<svg width="368" height="100" fill="none" xmlns="http://www.w3.org/2000/svg"><path d="M50.125 87.5c17.259 0 31.25-13.991 31.25-31.25h-62.5c0 17.259 13.991 31.25 31.25 31.25ZM18.875 12.5C34.408 12.5 47 25.092 47 40.625V50H18.875V12.5ZM81.375 50A28.126 28.126 0 0 0 53.25 21.875V50h28.125Z" fill="#0073E6"/><path d="M118.775 19.375h19.2c5.55 0 9.85 1.1 12.9 3.3 3.1 2.2 4.65 5.75 4.65 10.65v.3c0 2.7-.65 5.05-1.95 7.05-1.3 1.95-3.475 3.4-6.525 4.35 3.65.8 6.35 2.225 8.1 4.275 1.75 2 2.625 4.8 2.625 8.4v.3c0 5-1.6 8.75-4.8 11.25-3.15 2.5-7.675 3.75-13.575 3.75h-20.625V19.375Zm19.425 46.5c3.35 0 5.8-.725 7.35-2.175 1.6-1.45 2.4-3.575 2.4-6.375v-.3c0-2.8-.825-4.875-2.475-6.225-1.6-1.4-4.25-2.1-7.95-2.1h-9v17.175h9.675Zm-1.425-23.925c3.3 0 5.65-.625 7.05-1.875 1.4-1.25 2.1-3.25 2.1-6v-.3c0-2.55-.75-4.4-2.25-5.55-1.5-1.15-3.85-1.725-7.05-1.725h-8.1v15.45h8.25Zm42.856 31.8c-2.3 0-4.475-.425-6.525-1.275-2.05-.85-3.85-2.1-5.4-3.75-1.55-1.7-2.775-3.775-3.675-6.225-.9-2.45-1.35-5.275-1.35-8.475v-.6c0-3.15.45-5.975 1.35-8.475.95-2.55 2.2-4.7 3.75-6.45 1.6-1.8 3.45-3.175 5.55-4.125 2.1-.95 4.325-1.425 6.675-1.425 3 0 5.475.65 7.425 1.95 1.95 1.25 3.5 2.85 4.65 4.8v-5.925h9.075V73h-9.075v-6.45c-.55.95-1.25 1.875-2.1 2.775-.85.85-1.825 1.6-2.925 2.25a17.22 17.22 0 0 1-3.525 1.575c-1.25.4-2.55.6-3.9.6Zm2.175-7.2c1.45 0 2.825-.25 4.125-.75a9.482 9.482 0 0 0 3.375-2.4c.95-1.1 1.7-2.45 2.25-4.05.55-1.65.825-3.575.825-5.775v-.6c0-4.4-.925-7.65-2.775-9.75-1.85-2.1-4.3-3.15-7.35-3.15-3.15 0-5.65 1.125-7.5 3.375-1.85 2.25-2.775 5.5-2.775 9.75v.6c0 4.3.95 7.5 2.85 9.6 1.9 2.1 4.225 3.15 6.975 3.15Zm42.372 7.2c-5.1 0-9.075-1.1-11.925-3.3-2.8-2.25-4.3-5.475-4.5-9.675h8.55c.25 2 .925 3.55 2.025 4.65 1.15 1.1 3.075 1.65 5.775 1.65 2.45 0 4.225-.425 5.325-1.275 1.15-.85 1.725-2.1 1.725-3.75 0-1.6-.675-2.775-2.025-3.525-1.35-.75-3.475-1.375-6.375-1.875-2.6-.4-4.8-.9-6.6-1.5-1.8-.6-3.275-1.375-4.425-2.325-1.1-.95-1.9-2.075-2.4-3.375-.5-1.3-.75-2.875-.75-4.725 0-1.95.425-3.65 1.275-5.1.85-1.5 1.95-2.725 3.3-3.675 1.4-1 2.975-1.75 4.725-2.25 1.75-.5 3.55-.75 5.4-.75 2 0 3.875.2 5.625.6 1.8.4 3.375 1.075 4.725 2.025 1.35.9 2.45 2.125 3.3 3.675.9 1.5 1.475 3.35 1.725 5.55h-8.4c-.4-1.8-1.15-3.125-2.25-3.975-1.05-.85-2.625-1.275-4.725-1.275-1.95 0-3.475.425-4.575 1.275-1.1.85-1.65 1.975-1.65 3.375 0 .7.125 1.325.375 1.875.25.5.675.95 1.275 1.35.65.35 1.5.675 2.55.975 1.05.3 2.35.575 3.9.825 2.3.35 4.35.8 6.15 1.35 1.85.5 3.4 1.2 4.65 2.1a8.15 8.15 0 0 1 2.85 3.375c.7 1.35 1.05 3.075 1.05 5.175 0 4-1.35 7.1-4.05 9.3-2.7 2.15-6.575 3.225-11.625 3.225Zm39.678 0c-2.9 0-5.575-.45-8.025-1.35-2.4-.95-4.5-2.275-6.3-3.975-1.75-1.75-3.125-3.85-4.125-6.3-.95-2.45-1.425-5.225-1.425-8.325v-.6c0-3.05.475-5.8 1.425-8.25 1-2.5 2.375-4.625 4.125-6.375 1.75-1.8 3.8-3.175 6.15-4.125 2.4-1 5-1.5 7.8-1.5 2.45 0 4.775.375 6.975 1.125a15.85 15.85 0 0 1 5.925 3.525c1.7 1.6 3.05 3.65 4.05 6.15 1.05 2.5 1.575 5.5 1.575 9v2.625h-28.725c.15 3.75 1.125 6.625 2.925 8.625 1.85 2 4.475 3 7.875 3 2.75 0 4.85-.525 6.3-1.575 1.45-1.05 2.35-2.525 2.7-4.425h8.775c-.65 4.15-2.55 7.325-5.7 9.525-3.15 2.15-7.25 3.225-12.3 3.225Zm9.15-24.45c-.25-3.4-1.2-5.875-2.85-7.425-1.6-1.55-3.825-2.325-6.675-2.325-2.75 0-5 .875-6.75 2.625-1.75 1.7-2.85 4.075-3.3 7.125h19.575ZM318.65 73.75c-13.425 0-21.075-7.35-21.075-21.15V19.375h10.05V51.85c0 9.825 3.15 13.875 11.1 13.875 7.725 0 11.625-3.45 11.625-14.55v-31.8h10.05V52c0 14.025-7.575 21.75-21.75 21.75Zm32.374-.75V19.375h10.05V73h-10.05Z" fill="#090B0B"/></svg>