<svg height="80" width="565" xmlns="http://www.w3.org/2000/svg"><path d="m336.884 44.817c-.854-.15-3.72-.626-4.559-.78-4.527-.813-8.403-1.871-8.403-6.423 0-3.908 4.1-5.731 9.201-5.731 7.592 0 14.249 3.438 15.009 3.818l4.162-10.972c-1.601-.831-8.375-4.447-19.042-4.447-9.769 0-21.703 5.127-21.703 17.884 0 11.416 8.163 15.08 16.028 16.464 1.086.199 4.501.782 5.478.952 5.29.895 8.196 2.864 8.196 6.323 0 4.392-4.127 6.451-10.375 6.451-10.003 0-15.873-2.98-17.569-3.677l-4.61 10.735c1.432.737 8.261 4.586 21.587 4.586 12.931 0 23.308-6.401 23.308-18.315-.101-11.09-7.559-15.297-16.708-16.868m39.484-44.515-12.238 6.766v14.329h-6.443v11.698h6.443v25.289c0 10.803 4.443 20.502 20.113 20.502h4.9v-11.707h-1.838c-7.702 0-10.937-4.443-10.937-10.477v-23.607h14.056v-11.698h-14.056zm95.611 31.873c4.778 0 9.669 2.171 11.137 7.424l11.105-4.222c-3.11-10.987-13.322-15.095-22.33-15.095-16.14 0-22.647 10.017-22.647 19.754v20.205c0 9.733 6.507 19.759 22.647 19.759 9.008 0 19.22-4.114 22.33-15.101l-11.105-4.22c-1.468 5.247-6.359 7.431-11.137 7.431-8.314 0-10.519-4.55-10.519-9.737v-16.472c0-5.182 2.205-9.726 10.519-9.726m52.33 15.043 22.879-25.821h-15.049l-19.679 22.507v-43.6h-12.249v78.582h12.249v-18.297l4.017-4.535 17.524 22.832h14.687z" fill="#4e4e55"/><path d="m424.659 33.942h-12.725a3.666 3.666 0 0 0 -3.666 3.657v13.802h-12.554v-13.802c0-8.952 7.257-16.202 16.22-16.202h12.725zm-10.358 32.398h12.734a3.667 3.667 0 0 0 3.661-3.662v-13.797h12.551v13.797c0 8.952-7.258 16.208-16.212 16.208h-12.734zm-207.536-44.943h14.052v11.698h-14.052v23.607c0 6.034 3.233 10.477 10.929 10.477h1.837v11.707h-4.902c-15.675 0-20.104-9.699-20.104-20.502v-25.289h-20.598v23.607c0 6.034 3.239 10.477 10.935 10.477h1.831v11.707h-4.903c-15.668 0-20.107-9.699-20.107-20.502v-25.289h-6.204v-11.698h6.204v-14.329l12.244-6.766v21.095h20.598v-14.329l12.24-6.766zm-132.121-1.115c-3.872 0-7.799.749-11.334 2.245v-22.225h-12.24v78.584h12.24v-44.922c2.46-1.545 5.999-2.467 9.459-2.467 7.693 0 11.314 4.275 11.314 10.579v36.81h12.23v-38.48c0-11.604-8.409-20.124-21.669-20.124m62.035 47.171c-2.327 1.255-5.271 1.974-8.2 1.974-9.135 0-12.569-4.651-12.569-11.065v-36.965h-12.238v37.19c0 14.456 8.359 21.413 23.3 21.413 7.156 0 15.079-1.808 21.941-4.777v-53.826h-12.234zm-108.495-22.636c-.847-.15-3.717-.626-4.559-.78-4.517-.813-8.402-1.871-8.402-6.423 0-3.908 4.095-5.731 9.203-5.731 7.59 0 14.247 3.438 15.007 3.818l4.159-10.972c-1.59-.831-8.37-4.447-19.044-4.447-9.763 0-21.698 5.127-21.698 17.884 0 11.416 8.153 15.08 16.03 16.464 1.084.199 4.501.782 5.484.952 5.288.895 8.182 2.864 8.182 6.323 0 4.392-4.115 6.451-10.36 6.451-10.013 0-15.882-2.98-17.58-3.677l-4.606 10.735c1.436.737 8.263 4.586 21.589 4.586 12.931 0 23.308-6.401 23.308-18.315-.111-11.09-7.568-15.297-16.713-16.868m230.997.966h-20.636v-4.183c0-4.666 2.343-9.67 10.381-9.67 7.748 0 10.255 4.873 10.255 9.443zm12.24-5.747c0-10.515-8.019-19.759-22.437-19.759-16.367 0-22.652 10.216-22.652 19.759v19.094c0 13.21 8.446 20.87 22.652 20.87 12.532 0 19.037-7.242 20.969-11.592l-10.332-6.204c-.882 2.555-4.973 6.139-10.555 6.139-7.568 0-10.478-4.219-10.478-9.507l-.043-3.149h32.876zm7.831.022v38.828h12.23v-37.783c0-3.3 1.873-8.939 10.856-8.939 1.41 0 4.597.401 5.616.592v-11.859c-1.103-.266-3.631-.62-6.243-.62-15.556 0-22.459 9.752-22.459 19.781" fill="#e32124"/><path d="m559.521 24.66c0-.455-.288-.882-1.057-.882h-.768v1.938h.768c.829 0 1.057-.372 1.057-.97zm-.114 4.106a.16.16 0 0 1 -.144-.084l-.914-1.997h-.653v1.967c0 .058-.032.114-.086.114h-1.144c-.055 0-.113-.056-.113-.114v-5.901h2.283c1.539 0 2.224.971 2.224 1.881v.114c0 .8-.427 1.54-1.198 1.883l1.142 2.023c.028.058 0 .114-.058.114zm-.943-7.528c-2.594 0-4.479 2.028-4.479 4.621 0 2.424 1.912 4.477 4.479 4.477 2.595 0 4.452-2.053 4.452-4.477 0-2.567-2.026-4.621-4.452-4.621zm0 10.439c-3.309 0-5.99-2.51-5.99-5.818 0-3.307 2.681-5.961 5.99-5.961 3.28 0 5.963 2.681 5.963 5.961 0 3.308-2.653 5.818-5.963 5.818" fill="#4e4e55"/></svg>