<svg width="80" height="80" xmlns="http://www.w3.org/2000/svg">
  <path d="M0 80h79.974V.033H0V80z" fill="#ed1d24"/>
  <path d="M58.877 10.942h5.121v25.262h-5.121V10.942zM26.876 27.81c0 4.739-3.605 8.395-8.32 8.395-4.705 0-8.399-3.656-8.399-8.395V10.943h4.995V27.81c0 1.916 1.518 3.46 3.404 3.46 1.895 0 3.401-1.544 3.401-3.46V10.943h4.919V27.81zM50.535 69.109H33.707V43.857h5.101v20.117h11.727v5.135zM50.535 36.202h-5.114l-6.613-14.473v14.473h-5.101V10.94h5.101l6.613 14.451V10.94h5.114v25.262zM18.551 43.858c-4.699 0-8.395 3.775-8.395 8.344v8.564c0 4.51 3.696 8.344 8.395 8.344.569 0 1.122-.06 1.65-.157l1.754 5.271h4.919l-2.329-7.588c1.364-1.562 2.329-3.689 2.329-5.87v-8.564c0-4.569-3.605-8.344-8.323-8.344m3.404 16.908c0 1.661-1.506 3.208-3.404 3.208-1.883 0-3.4-1.547-3.4-3.208v-8.564a3.393 3.393 0 013.4-3.403 3.387 3.387 0 013.404 3.403v8.564zM61.429 43.858c-4.712 0-8.326 3.775-8.326 8.344v8.564c0 4.51 3.614 8.344 8.326 8.344 4.702 0 8.323-3.834 8.323-8.344v-8.564c0-4.569-3.621-8.344-8.323-8.344m3.413 16.908c0 1.661-1.54 3.208-3.413 3.208-1.883 0-3.414-1.547-3.414-3.208v-8.564a3.405 3.405 0 013.414-3.403 3.41 3.41 0 013.413 3.403v8.564z" fill="#fff"/>
</svg>
