<svg height="100" viewBox="0 0 275 100" width="275" xmlns="http://www.w3.org/2000/svg"><path d="m82.775 79.842-17.875-30.067 17.875-30.067 8.617 30.067zm-39.783-2.934-22.459-22.275h35.75l17.875 30.067zm0-54.358 31.075-7.792-17.875 30.067h-35.75zm45.65-22.55-40.609 10.542-6.05 10.358-12.191-.092-29.792 28.967 29.792 28.967 12.191-.092 6.05 10.358 40.609 10.634 10.908-39.509-6.142-10.266 6.142-10.267zm92.216 29.242c-5.408 0-9.075 2.291-11.825 6.508h-.183v-5.408h-9.533v39.783h9.716v-22.55c0-5.408 3.392-9.167 8.067-9.167 4.4 0 7.7 2.659 7.7 7.334v24.475h9.717v-26.034c.091-8.708-5.409-14.941-13.659-14.941zm-36.3 24.108c0 5.317-3.025 8.983-7.975 8.983-4.491 0-7.333-2.566-7.333-7.241v-24.75h-9.717v26.583c0 8.708 4.95 14.392 13.842 14.392 5.592 0 8.708-2.109 11.367-5.775h.275v4.675h9.35v-39.875h-9.717v23.008zm55.184-23.008h9.716v39.783h-9.716zm0-12.375h9.716v7.975h-9.716zm64.808 12.375-5.775 17.966c-1.283 3.667-2.292 8.709-2.292 8.709h-.275s-1.283-5.042-2.566-8.709l-6.509-17.966h-10.45l10.725 28.325c2.292 6.05 3.025 8.616 3.025 10.816 0 3.3-1.741 5.409-5.866 5.409h-3.759v8.341h6.234c8.066 0 10.908-3.208 13.933-12.008l14.025-40.792h-10.45zm-36.942 28.141v-21.083h6.234v-6.967h-6.234v-12.466h-9.716v12.375h-5.5v6.966h5.5v23.375c0 7.517 5.683 9.534 10.816 9.534 4.217 0 5.317-.184 5.317-.184v-7.7h-2.475c-2.292.092-3.942-.916-3.942-3.85z" fill="#110b09"/></svg>