<svg width="32" height="32" viewBox="0 0 32 32" version="1.1" xmlns="http://www.w3.org/2000/svg" xmlns:xlink="http://www.w3.org/1999/xlink">
<title>icon_support</title>
<desc>Created using Figma</desc>
<g id="Canvas" transform="translate(-1200 1190)">
<clipPath id="clip-0" clip-rule="evenodd">
<path d="M 1200 -1190L 1232 -1190L 1232 -1158L 1200 -1158L 1200 -1190Z" fill="#FFFFFF"/>
</clipPath>
<g id="icon_support" clip-path="url(#clip-0)">
<g id="Line">
<use xlink:href="#path0_stroke" transform="matrix(0.707107 0.707107 -0.707107 0.707107 1210.1 -1170.6)" fill="#7D7D7D"/>
</g>
<g id="Ellipse 6">
<use xlink:href="#path1_fill" transform="translate(1212 -1169)" fill="#7D7D7D"/>
</g>
<g id="Rectangle 2">
<use xlink:href="#path2_fill" transform="translate(1206 -1187)" fill="#7D7D7D"/>
</g>
<g id="Vector">
<use xlink:href="#path3_stroke" transform="translate(1204.5 -1186.08)" fill="#7D7D7D"/>
</g>
<g id="Ellipse 5">
<mask id="mask0_outline_ins">
<use xlink:href="#path4_fill" fill="white" transform="translate(1203 -1177)"/>
</mask>
<g mask="url(#mask0_outline_ins)">
<use xlink:href="#path5_stroke_2x" transform="translate(1203 -1177)" fill="#7D7D7D"/>
</g>
</g>
<g id="Ellipse 5.1">
<mask id="mask1_outline_ins">
<use xlink:href="#path6_fill" fill="white" transform="translate(1205 -1175)"/>
</mask>
<g mask="url(#mask1_outline_ins)">
<use xlink:href="#path7_stroke_2x" transform="translate(1205 -1175)" fill="#7D7D7D"/>
</g>
</g>
<g id="Ellipse 4.1">
<use xlink:href="#path8_fill" transform="translate(1214.73 -1176.54)" fill="#7D7D7D"/>
</g>
<g id="Vector">
<use xlink:href="#path9_fill" transform="translate(1222 -1187)" fill="#7D7D7D"/>
<mask id="mask2_outline_ins">
<use xlink:href="#path9_fill" fill="white" transform="translate(1222 -1187)"/>
</mask>
<g mask="url(#mask2_outline_ins)">
<use xlink:href="#path10_stroke_2x" transform="translate(1222 -1187)" fill="#7D7D7D"/>
</g>
</g>
</g>
</g>
<defs>
<path id="path0_stroke" d="M 0.0229792 0.645865L 3.20496 0.499472L 3.159 -0.499472L -0.0229792 -0.353078L 0.0229792 0.645865Z"/>
<path id="path1_fill" d="M 2 1C 2 1.55228 1.55228 2 1 2C 0.447715 2 0 1.55228 0 1C 0 0.447715 0.447715 0 1 0C 1.55228 0 2 0.447715 2 1Z"/>
<path id="path2_fill" d="M 0 0L 2 0L 2 11L 0 11L 0 0Z"/>
<path id="path3_stroke" d="M 13.5 3.08154L 12.6652 3.63216L 13.5 3.08154ZM 15.5 8.08162L 14.5269 8.3121C 14.5398 8.36638 14.5572 8.41949 14.5789 8.47087L 15.5 8.08162ZM 15.4091 15.9327L 15.1728 14.961C 14.7141 15.0726 14.3959 15.4897 14.4095 15.9616L 15.4091 15.9327ZM 15.5 19.0816L 16.4896 19.2252C 16.4979 19.1681 16.5012 19.1104 16.4996 19.0528L 15.5 19.0816ZM 10.5 23.0816L 10.1633 22.14C 9.76549 22.2823 9.5 22.6591 9.5 23.0816L 10.5 23.0816ZM 18.0423 14.0979L 17.1212 14.4871L 18.0423 14.0979ZM 17.3575 15.4588L 17.1212 14.4871L 17.3575 15.4588ZM 6.58135e-06 1.08154C 1.53912 1.08076 4.22803 0.86672 6.82115 1.12946C 9.48013 1.39481 11.6668 2.11855 12.6652 3.63216L 14.3348 2.53093C 12.7877 0.185524 9.72442 -0.590748 7.01975 -0.860654C 4.24924 -1.13317 1.46088 -0.917706 -6.58135e-06 -0.918462L 6.58135e-06 1.08154ZM 12.6652 3.63216C 13.2502 4.50967 13.6981 5.64221 14.0299 6.62529C 14.1942 7.11083 14.3168 7.52827 14.4027 7.83858C 14.4449 7.99081 14.4757 8.10839 14.4973 8.19302C 14.5077 8.23396 14.5151 8.26355 14.5204 8.28511C 14.5229 8.29522 14.5245 8.30193 14.5257 8.30713C 14.5263 8.30941 14.5266 8.31064 14.5268 8.31179C 14.5269 8.31221 14.527 8.31228 14.527 8.3125C 14.527 8.31252 14.527 8.31245 14.527 8.31243C 14.527 8.3124 14.527 8.31232 14.527 8.3123C 14.5269 8.3122 14.5269 8.3121 15.5 8.08162C 16.4731 7.85114 16.473 7.85101 16.473 7.85087C 16.473 7.85081 16.473 7.85065 16.4729 7.85052C 16.4729 7.85035 16.4728 7.84997 16.4727 7.84962C 16.4726 7.84909 16.4723 7.84804 16.4721 7.84698C 16.4717 7.84517 16.4709 7.84197 16.47 7.83837C 16.4684 7.83184 16.4658 7.82106 16.4627 7.80822C 16.4567 7.78386 16.4472 7.7456 16.4353 7.69881C 16.4121 7.60798 16.3761 7.4706 16.3302 7.30481C 16.24 6.97909 16.1013 6.50829 15.9246 5.98501C 15.5746 4.95042 15.0225 3.58292 14.3348 2.53093L 12.6652 3.63216ZM 14.5789 8.47087L 17.1212 14.4871L 18.9635 13.7086L 16.4211 7.69237L 14.5789 8.47087ZM 17.1212 14.4871L 15.1728 14.961L 15.6454 16.9044L 17.5939 16.4305L 17.1212 14.4871ZM 14.4095 15.9616L 14.5004 19.1105L 16.4996 19.0528L 16.4087 15.9039L 14.4095 15.9616ZM 14.5104 18.938C 14.4165 19.5863 14.3535 20.3799 14.0204 21.0043C 13.7657 21.5103 13.3796 21.8866 12.5 21.8866L 12.5 23.8866C 14.2386 23.8866 15.2616 22.9868 15.8069 21.9036C 16.2738 20.9387 16.4017 19.8298 16.4896 19.2252L 14.5104 18.938ZM 12.5 21.8866C 11.7241 21.8878 11.1484 21.9431 10.8031 21.9956C 10.6147 22.0249 10.4568 22.0585 10.3677 22.0804C 10.315 22.0936 10.2643 22.1078 10.2386 22.1155C 10.2216 22.1206 10.2029 22.1266 10.1945 22.1293C 10.1882 22.1314 10.1804 22.134 10.1773 22.1351C 10.1747 22.136 10.1712 22.1372 10.1699 22.1377C 10.1687 22.1381 10.1671 22.1387 10.1665 22.1389C 10.166 22.1391 10.1652 22.1393 10.1649 22.1394C 10.1646 22.1395 10.1642 22.1397 10.1641 22.1397C 10.1637 22.1399 10.1633 22.14 10.5 23.0816C 10.8367 24.0232 10.8363 24.0234 10.8359 24.0235C 10.8358 24.0235 10.8354 24.0237 10.8352 24.0238C 10.8354 24.0237 10.8332 24.0245 10.8337 24.0243C 10.8341 24.0241 10.83 24.0256 10.8309 24.0253C 10.8317 24.025 10.8244 24.0275 10.8259 24.027C 10.8269 24.0267 10.8166 24.0301 10.8185 24.0295C 10.8182 24.0296 10.8132 24.0312 10.8139 24.031C 10.8237 24.028 10.827 24.027 10.8483 24.0218C 10.9069 24.0072 10.9762 23.992 11.106 23.9726C 11.397 23.9276 11.8213 23.8854 12.5 23.8866L 12.5 21.8866ZM 9.5 23.0816L 9.5 26.0816L 11.5 26.0816L 11.5 23.0816L 9.5 23.0816ZM 15.1838 18.1329C 14.7492 18.2802 14.1662 18.3988 13.5425 18.3135C 12.9641 18.2451 12.5909 18.0273 12.3944 17.6344L 10.6056 18.5288C 11.2091 19.7359 12.3359 20.1847 13.3075 20.2997C 14.2338 20.3977 15.2508 20.2163 15.8162 20.0303L 15.1838 18.1329ZM 17.1212 14.4871L 17.5939 16.4305C 18.7916 16.1392 19.4433 14.8441 18.9635 13.7086L 17.1212 14.4871Z"/>
<path id="path4_fill" d="M 8 4C 8 6.20914 6.20914 8 4 8C 1.79086 8 0 6.20914 0 4C 0 1.79086 1.79086 0 4 0C 6.20914 0 8 1.79086 8 4Z"/>
<path id="path5_stroke_2x" d="M 7 4C 7 5.65685 5.65685 7 4 7L 4 9C 6.76142 9 9 6.76142 9 4L 7 4ZM 4 7C 2.34315 7 1 5.65685 1 4L -1 4C -1 6.76142 1.23858 9 4 9L 4 7ZM 1 4C 1 2.34315 2.34315 1 4 1L 4 -1C 1.23858 -1 -1 1.23858 -1 4L 1 4ZM 4 1C 5.65685 1 7 2.34315 7 4L 9 4C 9 1.23858 6.76142 -1 4 -1L 4 1Z"/>
<path id="path6_fill" d="M 4 2C 4 3.10457 3.10457 4 2 4C 0.895431 4 0 3.10457 0 2C 0 0.895431 0.895431 0 2 0C 3.10457 0 4 0.895431 4 2Z"/>
<path id="path7_stroke_2x" d="M 3 2C 3 2.55228 2.55228 3 2 3L 2 5C 3.65685 5 5 3.65685 5 2L 3 2ZM 2 3C 1.44772 3 1 2.55228 1 2L -1 2C -1 3.65685 0.343146 5 2 5L 2 3ZM 1 2C 1 1.44772 1.44772 1 2 1L 2 -1C 0.343146 -1 -1 0.343146 -1 2L 1 2ZM 2 1C 2.55228 1 3 1.44772 3 2L 5 2C 5 0.343146 3.65685 -1 2 -1L 2 1Z"/>
<path id="path8_fill" d="M 2.18182 1.12765C 2.18182 1.75044 1.6934 2.25531 1.09091 2.25531C 0.488417 2.25531 0 1.75044 0 1.12765C 0 0.504868 0.488417 0 1.09091 0C 1.6934 0 2.18182 0.504868 2.18182 1.12765Z"/>
<path id="path9_fill" d="M 5.87447 0.00046031C 5.50225 -0.00694566 5.13428 0.0763317 4.80599 0.242273C 4.4777 0.408215 4.20015 0.651231 4.00006 0.947922C 3.80002 0.651195 3.52248 0.408151 3.19418 0.242205C 2.86588 0.0762584 2.49789 -0.00699669 2.12566 0.00046031C 0.77987 0.025726 -0.188806 1.21111 0.0312209 2.46491C 0.421142 4.67566 3.81513 5.93262 4.00006 6C 4.185 5.93262 7.58177 4.67303 7.96891 2.46491C 8.18838 1.21005 7.22026 0.025726 5.87447 0.00046031Z"/>
<path id="path10_stroke_2x" d="M 5.87447 0.00046031L 5.83469 2.00007L 5.83693 2.00011L 5.87447 0.00046031ZM 4.80599 0.242273L 3.90375 -1.54266L 4.80599 0.242273ZM 4.00006 0.947922L 2.34172 2.06591L 3.9998 4.52538L 5.65824 2.06616L 4.00006 0.947922ZM 2.12566 0.00046031L 2.1632 2.00011L 2.16571 2.00006L 2.12566 0.00046031ZM 0.0312209 2.46491L -1.93868 2.81061L -1.93838 2.8123L 0.0312209 2.46491ZM 4.00006 6L 3.31545 7.87917L 4.00006 8.12859L 4.68468 7.87917L 4.00006 6ZM 7.96891 2.46491L 9.93886 2.8103L 9.939 2.80948L 7.96891 2.46491ZM 5.91426 -1.99914C 5.29992 -1.99669 4.45734 -1.80562 3.90375 -1.54266L 5.70822 2.0272C 5.81121 1.95829 5.70457 1.98279 5.83469 2.00006L 5.91426 -1.99914ZM 3.90375 -1.54266C 3.35902 -1.24966 2.69981 -0.671262 2.34189 -0.170314L 5.65824 2.06616C 5.70048 1.97372 5.59637 2.06609 5.70822 2.0272L 3.90375 -1.54266ZM 5.65841 -0.170069C 5.30051 -0.671133 4.64122 -1.24969 4.09642 -1.54273L 2.29195 2.02713C 2.40375 2.06599 2.29954 1.97352 2.34172 2.06591L 5.65841 -0.170069ZM 4.09642 -1.54273C 3.54276 -1.80572 2.70001 -1.99676 2.0856 -1.99914L 2.16571 2.00006C 2.29577 1.98276 2.18901 1.95824 2.29195 2.02713L 4.09642 -1.54273ZM 2.08812 -1.99919C -0.447769 -1.95158 -2.37729 0.311176 -1.93868 2.81061L 2.00112 2.11922C 1.99968 2.11104 2.00751 2.00303 2.1632 2.00011L 2.08812 -1.99919ZM -1.93838 2.8123C -1.59002 4.78741 -0.00587987 6.05679 1.00154 6.71246C 2.11479 7.42225 3.21825 7.84376 3.31545 7.87917L 4.68468 4.12083C 4.59695 4.08887 3.91095 3.8482 3.18348 3.35998C 2.3502 2.81764 2.04238 2.35316 2.00082 2.11753L -1.93838 2.8123ZM 4.68468 7.87917C 4.78225 7.84362 5.88646 7.42138 6.99976 6.71139C 8.00642 6.0561 9.59246 4.78605 9.93886 2.8103L 5.99896 2.11953C 5.95822 2.3519 5.65231 2.8157 4.81756 3.35908C 4.08946 3.84776 3.40281 4.089 3.31545 4.12083L 4.68468 7.87917ZM 9.939 2.80948C 10.3761 0.310276 8.44842 -1.95157 5.91201 -1.99919L 5.83693 2.00011C 5.9921 2.00302 6.00065 2.10983 5.99881 2.12035L 9.939 2.80948Z"/>
</defs>
</svg>
