<svg xmlns="http://www.w3.org/2000/svg" viewBox="0 0 512 512"><path d="M422.625 18.28c-24.68.13-51.932 15.455-74.094 36.907 1.868 1.036 3.742 2.07 5.626 3.157 8.05 4.642 15.615 9.363 22.72 14.125 25.19-9.583 55.47-14.465 103.437-2.97-12.036-37.07-33.633-51.345-57.688-51.22zM237.78 40.22l28.97 94.25c12.57 6.443 24.827 13.41 36.813 20.843l-36.625-111.97c-8.476-1.68-16.657-2.662-24.563-3-1.54-.065-3.074-.108-4.594-.124zm-19.218 1.124c-1.602.206-3.202.427-4.78.687-8.815 1.454-17.338 3.755-25.595 6.876l15.688 58.625c13.62 4.75 26.922 10.064 39.906 15.907l-25.218-82.093zm69.875 7.593l40.157 122.876c15.922 11.124 31.32 23.128 46.25 35.906L325.906 64.374c-13.092-6.527-25.568-11.643-37.47-15.438zm-117.5 7.844c-14.657 7.857-28.523 18.348-41.875 31.095 18.42 3.334 36.298 7.632 53.657 12.813L170.937 56.78zm179.25 20.907l53.282 155.97c10.798 10.382 21.322 21.187 31.624 32.374.395-1.174.75-2.332 1.125-3.5L379.843 97.407c-8.84-6.63-18.706-13.185-29.656-19.72zM136.595 108.25c-17.05 11.436-32.43 27.876-45.344 50.22-42.303 73.19-61.83 198.325-24.53 265.717l-.064-.062c.752 23.392-7.597 45.63-17.812 67.594 27.268-12.192 54.897-17.815 82.687-20.783l-.468-.343c87.895 19.01 212.87-49.42 260.688-132.156 13.547-23.44 20.606-46.14 22.28-67.72-77.218-81.572-166.868-139.912-277.436-162.468zm271.469 14L444.188 228c2.638-20.573.96-39.855-5.688-58.25-5.856-16.202-15.717-32.01-30.438-47.5z" /></svg>