<svg height="228" viewBox="0 0 377.25 288.75" width="990" xmlns="http://www.w3.org/2000/svg" xmlns:xlink="http://www.w3.org/1999/xlink"><linearGradient id="a" gradientUnits="userSpaceOnUse" x1="28.75" x2="665" y1="207.5" y2="207.5"><stop offset="0"/><stop offset=".6" stop-opacity=".2"/></linearGradient><linearGradient id="b" gradientUnits="userSpaceOnUse" x1="657.5" x2="765" y1="201.875" y2="201.875"><stop offset="0" stop-opacity=".2"/><stop offset="1" stop-opacity="0"/></linearGradient><g opacity=".3"><path d="m578.75 195 86.25-50-17.5-11.25-191.25 6.25-10-6.25-397.5 11.25-20 23.75 126.25-5-46.25 50 118.75 67.5 71.25-1.25 97.5-56.25 210-6.25 20-12.5-20-10zm-231.25 7.5-103.75 23.75-26.25-15 81.25-45 88.75-2.5 60 35zm165-31.25-17.5-10 40-2.5z" fill="url(#a)"/><path d="m746.25 190-70 1.25-18.75 11.25 17.5 11.25 70-1.25 20-11.25" fill="url(#b)"/></g><path d="m28.75 52.5v116.25l20-11.25v-93.75" fill="#949494"/><path d="m8.75 157.5v-140l118.75 67.5v23.75l-98.75-56.25v116.25" fill="#fff"/><path d="m248.75 17.5v140l-80 45-20-12.5 80-45v-93.75l-101.25 57.5v-23.75" fill="#949494"/><path d="m228.75 6.25-100 56.25-100-56.25-20 11.25 118.75 67.5 121.25-67.5" fill="#d6d6d6"/><path d="m208.75 62.5v71.25l20 11.25v-93.75" fill="#fff"/><path d="m108.75 190 100-56.25 20 11.25-80 45 78.75 45 80-45 20 11.25-100 56.25" fill="#d6d6d6"/><path d="m108.75 190v23.75l118.75 67.5v-23.75m100-56.25v-70l-20-11.25v70" fill="#fff"/><path d="m227.5 257.5 100-56.25v-70l20-11.25v93.75l-120 67.5" fill="#949494"/><path d="m347.5 120-20 11.25-20-11.25 20-11.25" fill="#d6d6d6"/><path d="m327.5 108.75v-23.75l20-11.25v23.75" fill="#949494"/><path d="m327.5 85v23.75l-20-11.25v-23.75" fill="#fff"/><path d="m347.5 73.75-20 11.25-20-11.25 20-11.25" fill="#d6d6d6"/><path d="m228.75 51.25v15l-8.75-10m-11.25 77.5v-65l20 11.25v36.25l-11.25-6.25v28.75l-20 1.25m120 25v-22.5l-10-12.5v30" opacity=".3"/></svg>