<svg width="562" height="100" fill="none" xmlns="http://www.w3.org/2000/svg"><path fill-rule="evenodd" clip-rule="evenodd" d="M65.34 52.563a21.875 21.875 0 0 1-12.153 3.687c-.62 0-1.431-.026-2.35-.079C42.25 54.688 38.303 58.188 35 63.178l-3.688 5.572V34.375a21.875 21.875 0 1 1 34.029 18.188Z" fill="#0073E6"/><path d="M33.706 85.199a7.813 7.813 0 0 1 0-11.049l5.524-5.524 5.525 5.524A7.813 7.813 0 1 1 33.706 85.2Z" fill="#0073E6"/><path d="M118.713 19.375h17.25c3 0 5.725.35 8.175 1.05 2.45.65 4.525 1.675 6.225 3.075 1.75 1.35 3.1 3.075 4.05 5.175.95 2.05 1.425 4.475 1.425 7.275v.3c0 2.85-.5 5.3-1.5 7.35-.95 2.05-2.3 3.75-4.05 5.1-1.7 1.3-3.775 2.275-6.225 2.925-2.4.65-5.025.975-7.875.975h-7.5V73h-9.975V19.375Zm17.25 26.025c3.3 0 5.8-.775 7.5-2.325 1.75-1.55 2.625-3.825 2.625-6.825v-.3c0-3.2-.9-5.475-2.7-6.825-1.75-1.35-4.225-2.025-7.425-2.025h-7.275v18.3h7.275Zm26.721-11.625h9.075V73h-9.075V33.775Zm4.425-6.45c-1.5 0-2.775-.5-3.825-1.5-1.05-1-1.575-2.225-1.575-3.675 0-1.5.525-2.75 1.575-3.75 1.05-1 2.325-1.5 3.825-1.5s2.775.5 3.825 1.5c1.05 1 1.575 2.25 1.575 3.75 0 1.45-.525 2.675-1.575 3.675-1.05 1-2.325 1.5-3.825 1.5ZM198.338 87.4c-3.1 0-5.775-.325-8.025-.975-2.25-.65-4.15-1.575-5.7-2.775-1.5-1.15-2.675-2.525-3.525-4.125-.85-1.55-1.4-3.275-1.65-5.175h9.15c.4 1.95 1.35 3.45 2.85 4.5 1.55 1.1 3.825 1.65 6.825 1.65 3.55 0 6.25-.875 8.1-2.625 1.9-1.75 2.85-4.4 2.85-7.95V64.15c-.55.95-1.25 1.875-2.1 2.775-.85.85-1.85 1.625-3 2.325a16.7 16.7 0 0 1-3.6 1.575c-1.3.4-2.675.6-4.125.6-2.45 0-4.75-.425-6.9-1.275a16.69 16.69 0 0 1-5.475-3.75c-1.55-1.65-2.775-3.625-3.675-5.925-.9-2.3-1.35-4.875-1.35-7.725v-.525c0-2.75.425-5.3 1.275-7.65.9-2.35 2.125-4.375 3.675-6.075 1.6-1.75 3.475-3.1 5.625-4.05 2.15-1 4.5-1.5 7.05-1.5 3.25 0 5.875.65 7.875 1.95 2 1.3 3.575 2.925 4.725 4.875v-6h9.075v36.3c-.05 5.8-1.875 10.125-5.475 12.975-3.55 2.9-8.375 4.35-14.475 4.35Zm.3-22.95c3.15 0 5.75-1.05 7.8-3.15 2.05-2.15 3.075-5.1 3.075-8.85v-.525c0-3.75-.95-6.65-2.85-8.7-1.85-2.1-4.425-3.15-7.725-3.15-3.4 0-6.025 1.1-7.875 3.3-1.85 2.2-2.775 5.1-2.775 8.7v.6c0 1.8.25 3.45.75 4.95.55 1.45 1.275 2.675 2.175 3.675.95 1 2.05 1.775 3.3 2.325 1.3.55 2.675.825 4.125.825Zm29.229-30.675h9.075v6c.95-1.85 2.45-3.45 4.5-4.8 2.05-1.35 4.525-2.025 7.425-2.025 2.55 0 4.775.575 6.675 1.725 1.95 1.1 3.425 2.875 4.425 5.325 1.5-2.45 3.475-4.225 5.925-5.325 2.45-1.15 4.9-1.725 7.35-1.725 1.8 0 3.475.3 5.025.9 1.6.55 3 1.45 4.2 2.7 1.2 1.2 2.125 2.775 2.775 4.725.7 1.9 1.05 4.2 1.05 6.9V73h-9.075V48.775c0-2.9-.6-5-1.8-6.3-1.2-1.3-2.925-1.95-5.175-1.95-1.15 0-2.25.2-3.3.6-1 .35-1.9.9-2.7 1.65-.8.75-1.45 1.7-1.95 2.85-.45 1.1-.675 2.4-.675 3.9V73h-9.075V48.775c0-2.9-.6-5-1.8-6.3-1.2-1.3-2.925-1.95-5.175-1.95-1.15 0-2.25.2-3.3.6-1 .35-1.9.9-2.7 1.65-.8.75-1.45 1.7-1.95 2.85-.45 1.1-.675 2.4-.675 3.9V73h-9.075V33.775Zm84.89 39.975c-2.9 0-5.575-.45-8.025-1.35-2.4-.95-4.5-2.275-6.3-3.975-1.75-1.75-3.125-3.85-4.125-6.3-.95-2.45-1.425-5.225-1.425-8.325v-.6c0-3.05.475-5.8 1.425-8.25 1-2.5 2.375-4.625 4.125-6.375 1.75-1.8 3.8-3.175 6.15-4.125 2.4-1 5-1.5 7.8-1.5 2.45 0 4.775.375 6.975 1.125a15.85 15.85 0 0 1 5.925 3.525c1.7 1.6 3.05 3.65 4.05 6.15 1.05 2.5 1.575 5.5 1.575 9v2.625h-28.725c.15 3.75 1.125 6.625 2.925 8.625 1.85 2 4.475 3 7.875 3 2.75 0 4.85-.525 6.3-1.575 1.45-1.05 2.35-2.525 2.7-4.425h8.775c-.65 4.15-2.55 7.325-5.7 9.525-3.15 2.15-7.25 3.225-12.3 3.225Zm9.15-24.45c-.25-3.4-1.2-5.875-2.85-7.425-1.6-1.55-3.825-2.325-6.675-2.325-2.75 0-5 .875-6.75 2.625-1.75 1.7-2.85 4.075-3.3 7.125h19.575Zm15.899-15.525h9.075V40c.95-1.9 2.475-3.55 4.575-4.95 2.15-1.4 4.85-2.1 8.1-2.1 1.95 0 3.75.3 5.4.9 1.65.6 3.075 1.525 4.275 2.775 1.2 1.2 2.125 2.775 2.775 4.725.65 1.95.975 4.275.975 6.975V73h-9.075V49.15c0-3-.625-5.175-1.875-6.525-1.25-1.4-3.225-2.1-5.925-2.1-2.55 0-4.725.8-6.525 2.4-1.8 1.55-2.7 3.875-2.7 6.975V73h-9.075V33.775Zm57.773 39.9c-3.9 0-6.85-1-8.85-3s-3-4.875-3-8.625V40.6h-5.25v-6.825h5.25V25.15h9.075v8.625h8.625V40.6h-8.625v20.625c0 1.75.375 3.025 1.125 3.825.8.8 1.925 1.2 3.375 1.2 1.75 0 3.225-.25 4.425-.75v7.2c-.7.25-1.55.475-2.55.675-1 .2-2.2.3-3.6.3ZM444.563 73.75c-16.8 0-26.175-10.725-26.175-27.225v-.6c0-16.125 11.1-27.375 26.025-27.375 12.3 0 21.825 6.15 23.025 18.75h-10.126c-1.124-7.125-5.099-10.8-12.824-10.8-9.45 0-15.6 7.35-15.6 19.35v.6c0 12.075 5.775 19.2 15.675 19.2 7.425 0 12.675-3.75 13.725-11.325h9.75c-1.575 12.9-10.726 19.425-23.475 19.425Zm48.84 0c-14.625 0-20.775-7.275-21.525-17.4h9.6c.675 5.4 2.85 9.9 11.925 9.9 5.925 0 10.125-3.3 10.125-8.25s-2.475-6.825-11.175-8.25c-12.825-1.725-18.9-5.625-18.9-15.675 0-8.775 7.5-15.375 18.675-15.375 11.55 0 18.45 5.25 19.5 15.525h-9.15c-.975-5.625-4.2-8.025-10.35-8.025-6.075 0-9.225 2.925-9.225 7.05 0 4.35 1.8 6.525 11.1 7.875 12.6 1.725 19.125 5.325 19.125 16.05 0 9.3-7.875 16.575-19.725 16.575Zm45.302 0c-14.625 0-20.775-7.275-21.525-17.4h9.6c.675 5.4 2.85 9.9 11.925 9.9 5.925 0 10.125-3.3 10.125-8.25s-2.475-6.825-11.175-8.25c-12.825-1.725-18.9-5.625-18.9-15.675 0-8.775 7.5-15.375 18.675-15.375 11.55 0 18.45 5.25 19.5 15.525h-9.15c-.975-5.625-4.2-8.025-10.35-8.025-6.075 0-9.225 2.925-9.225 7.05 0 4.35 1.8 6.525 11.1 7.875 12.6 1.725 19.125 5.325 19.125 16.05 0 9.3-7.875 16.575-19.725 16.575Z" fill="#fff"/></svg>