<svg fill="none" height="37" viewBox="0 0 116 37" width="116" xmlns="http://www.w3.org/2000/svg" xmlns:xlink="http://www.w3.org/1999/xlink"><linearGradient id="a"><stop offset="0" stop-color="#66e3ff"/><stop offset="1" stop-color="#7064f9"/></linearGradient><linearGradient id="b" gradientUnits="userSpaceOnUse" x1="18.3517" x2="20.8912" xlink:href="#a" y1="10.5" y2="26.3665"/><linearGradient id="c" gradientUnits="userSpaceOnUse" x1="18.3469" x2="20.8864" xlink:href="#a" y1="10.5002" y2="26.3667"/><clipPath id="d"><path d="m12 10.5h92v16h-92z"/></clipPath><mask id="e" height="17" maskUnits="userSpaceOnUse" width="93" x="11" y="10"><path d="m11.9922 10.5002h91.9998v16h-91.9998z" fill="#fff"/></mask><rect fill="#14191f" height="36" rx="7.5" width="115" x=".5" y=".5"/><g clip-path="url(#d)"><g mask="url(#e)"><path d="m36.8927 15.7051c-.9925 0-1.7805.365-2.262 1.124v-3.854h-1.576v10.2185h1.576v-3.912c0-1.489.817-2.102 1.853-2.102.9925 0 1.635.5835 1.635 1.693v4.321h1.5755v-4.4815c0-1.8975-1.167-3.007-2.8015-3.007zm5.3745 4.5105h5.808c.029-.2045.0585-.438.0585-.657 0-2.102-1.4885-3.8535-3.663-3.8535-2.291 0-3.8525 1.6785-3.8525 3.839 0 2.19 1.5615 3.839 3.969 3.839 1.43 0 2.525-.5985 3.196-1.591l-1.2985-.759c-.35.511-1.007.905-1.8825.905-1.1675 0-2.087-.584-2.335-1.7225zm-.015-1.285c.219-1.0945 1.022-1.795 2.204-1.795.9485 0 1.8675.54 2.0865 1.795h-4.2895zm12.6395-3.0355v1.036c-.555-.759-1.4155-1.226-2.554-1.226-1.985 0-3.6335 1.664-3.6335 3.839 0 2.16 1.649 3.839 3.6335 3.839 1.1385 0 1.9995-.467 2.554-1.2405v1.051h1.576v-7.299h-1.576zm-2.306 5.985c-1.313 0-2.3055-.9785-2.3055-2.336s.9925-2.3355 2.3055-2.3355c1.3135 0 2.306.978 2.306 2.3355s-.9925 2.336-2.306 2.336zm11.133-8.905v3.956c-.5545-.759-1.4155-1.226-2.554-1.226-1.9845 0-3.6335 1.664-3.6335 3.839 0 2.16 1.649 3.839 3.6335 3.839 1.1385 0 1.9995-.467 2.554-1.2405v1.051h1.576v-10.2185zm-2.3055 8.905c-1.3135 0-2.306-.9785-2.306-2.336s.9925-2.3355 2.306-2.3355c1.313 0 2.3055.978 2.3055 2.3355s-.9925 2.336-2.3055 2.336zm5.3535 1.3135h1.5765v-10.656h-1.5765zm4.282-2.978h5.808c.029-.2045.0585-.438.0585-.657 0-2.102-1.4885-3.8535-3.663-3.8535-2.291 0-3.8525 1.6785-3.8525 3.839 0 2.19 1.5615 3.839 3.969 3.839 1.43 0 2.5245-.5985 3.196-1.591l-1.299-.759c-.35.511-1.0065.905-1.8825.905-1.167 0-2.0865-.584-2.3345-1.7225zm-.015-1.285c.219-1.0945 1.022-1.795 2.204-1.795.9485 0 1.8675.54 2.0865 1.795zm8.0335-1.0215c0-.525.4965-.7735 1.0655-.7735.5985 0 1.109.2625 1.372.832l1.328-.7445c-.511-.9635-1.5035-1.518-2.7-1.518-1.4885 0-2.6705.861-2.6705 2.2335 0 2.6125 3.9255 1.883 3.9255 3.182 0 .584-.54.8175-1.2405.8175-.8025 0-1.386-.394-1.6195-1.051l-1.3575.788c.467 1.051 1.518 1.708 2.977 1.708 1.576 0 2.846-.788 2.846-2.248 0-2.7-3.926-1.8975-3.926-3.226zm5.92 0c0-.525.4965-.7735 1.0655-.7735.598 0 1.109.2625 1.3715.832l1.328-.7445c-.5105-.9635-1.503-1.518-2.6995-1.518-1.4885 0-2.6705.861-2.6705 2.2335 0 2.6125 3.9255 1.883 3.9255 3.182 0 .584-.54.8175-1.2405.8175-.8025 0-1.3865-.394-1.62-1.051l-1.357.788c.467 1.051 1.5175 1.708 2.977 1.708 1.576 0 2.8455-.788 2.8455-2.248 0-2.7-3.9255-1.8975-3.9255-3.226zm12.021 3.601c1.0935 0 1.903-.654 1.903-1.7265v-3.345h-.98v3.267c0 .483-.2555.845-.923.845s-.9235-.362-.9235-.845v-3.2675h-.9725v3.3455c0 1.0725.8095 1.7265 1.896 1.7265zm2.9275-5.072v4.972h.9803v-4.972z" fill="#6ab8fe"/><path clip-rule="evenodd" d="m100.529 14.0533h-5.0719c-.5381.0002-1.0541.214-1.4346.5945-.3805.3804-.5943.8964-.5944 1.4345v5.074c.0001.5381.2139 1.0541.5944 1.4346s.8965.5943 1.4346.5944h5.0719c.538-.0001 1.054-.2139 1.435-.5944.38-.3805.594-.8965.594-1.4346v-5.0735c0-.2665-.052-.5304-.154-.7767-.102-.2462-.252-.47-.44-.6585s-.412-.338-.658-.4401c-.247-.102-.51-.1541-.777-.1542zm-5.0719-1.015c-.3997.0001-.7955.0789-1.1647.2319s-.7047.3772-.9873.6599c-.2825.2827-.5067.6182-.6596.9875-.1528.3693-.2315.7651-.2314 1.1647v5.074c-.0001.3997.0786.7955.2314 1.1648.1529.3692.3771.7048.6596.9875.2826.2826.6181.5069.9873.6599s.765.2318 1.1647.2318h5.0719c.4 0 .796-.0787 1.165-.2317s.705-.3772.987-.6599c.283-.2826.507-.6182.66-.9875s.232-.7651.232-1.1649v-5.0735c0-.3997-.079-.7956-.232-1.165-.153-.3693-.377-.705-.66-.9877-.282-.2827-.618-.507-.987-.66s-.765-.2318-1.165-.2318z" fill="#7064f9" fill-rule="evenodd"/><path clip-rule="evenodd" d="m95.4571 14.0533h5.0719c.538.0002 1.054.214 1.435.5945.38.3804.594.8964.594 1.4345v5.074c0 .5381-.214 1.0541-.594 1.4346-.381.3805-.897.5943-1.435.5944h-5.0719c-.5381-.0001-1.0541-.2139-1.4346-.5944s-.5943-.8965-.5944-1.4346v-5.0735c-.0001-.2665.0523-.5304.1543-.7767.1019-.2462.2513-.47.4397-.6585.1885-.1885.4121-.338.6584-.4401.2462-.102.51-.1541.7766-.1542zm-3.043 2.029c-.0001-.3996.0786-.7954.2314-1.1647.1529-.3693.3771-.7048.6596-.9875.2826-.2827.6181-.5069.9873-.6599s.765-.2318 1.1647-.2319h5.0719c.4 0 .796.0788 1.165.2318.369.1529.705.3772.987.6598.283.2827.507.6183.66.9876s.232.7651.232 1.1648v5.074c0 .3998-.079.7956-.232 1.1649s-.377.7049-.66.9875c-.282.2827-.618.5069-.987.6599s-.765.2317-1.165.2317h-5.0719c-.3997 0-.7955-.0788-1.1647-.2318s-.7047-.3773-.9873-.6599c-.2825-.2827-.5067-.6183-.6596-.9875-.1528-.3693-.2315-.7651-.2314-1.1648v-5.0735z" fill="#6ab8fe" fill-rule="evenodd"/><path d="m15.2542 20.4415 9.7599-3.259c-.195-1.22-.334-2.035-.495-2.657-.1735-.669-.311-.848-.3649-.91-.1882-.2154-.4225-.3856-.6856-.498-.076-.0325-.289-.108-.978-.0665-.729.044-1.686.193-3.2015.433-1.515.24-2.4714.3945-3.1779.5775-.6685.1735-.848.3115-.91.3655-.215.1885-.385.4225-.4975.6855-.0325.076-.108.289-.0665.9785.044.729.193 1.6865.433 3.202.067.425.1275.805.184 1.1485z" fill="url(#b)"/><path clip-rule="evenodd" d="m12.5584 19.6902c-.464-2.932-.6965-4.398-.1935-5.575.2622-.6139.6594-1.1607 1.162-1.6.9635-.8415 2.429-1.0735 5.36-1.538 2.932-.465 4.3975-.697 5.575-.194.6135.2623 1.16.6595 1.599 1.162.842.964 1.074 2.43 1.538 5.3625.4645 2.932.6965 4.3985.1935 5.575-.2621.6138-.6591 1.1607-1.1615 1.6-.9635.842-2.4295 1.074-5.361 1.5385-2.931.4645-4.397.6965-5.5735.1935-.6135-.2623-1.1601-.6595-1.599-1.162-.842-.964-1.0745-2.43-1.539-5.3625zm5.1705 5.207c.785-.0475 1.796-.206 3.2925-.443 1.497-.237 2.5065-.399 3.2685-.5965.7375-.1915 1.0775-.378 1.297-.57.3229-.2824.5781-.6339.7465-1.0285.115-.268.1875-.649.1415-1.41-.0475-.785-.206-1.7965-.443-3.2935s-.3985-2.5075-.596-3.269c-.1915-.738-.3785-1.078-.57-1.2975-.2822-.3231-.6336-.5784-1.028-.747-.268-.115-.649-.1875-1.41-.1415-.785.0475-1.7955.206-3.2925.443-1.4965.2375-2.5065.399-3.268.5965-.738.1915-1.0775.3785-1.297.57-.3231.2824-.5784.6339-.747 1.0285-.1145.268-.187.649-.141 1.41.0475.7855.2055 1.7965.443 3.2935.237 1.497.3985 2.5075.596 3.269.1915.738.378 1.078.57 1.2975.2822.3231.6336.5784 1.028.747.268.115.648.1875 1.4095.1415z" fill="url(#c)" fill-rule="evenodd"/></g></g><rect height="36" rx="7.5" stroke="#2f3a46" stroke-dasharray="4 4" width="115" x=".5" y=".5"/></svg>