<svg width="233" height="79" fill="none" xmlns="http://www.w3.org/2000/svg"><g clip-path="url(#a)"><g clip-path="url(#b)"><path fill-rule="evenodd" clip-rule="evenodd" d="M124.8 37.6h11.8v-9.4h6.2v24h-6.2V43h-11.8v9.4h-6V28.2h6v9.4Zm41.9-9.4H157c-2.6 0-4.3.5-5.5 1.7-1.2 1.2-1.7 2.8-1.7 5.5V45c0 2.8.5 4.3 1.7 5.5 1.2 1.3 2.8 1.8 5.5 1.8h9.7c2.6 0 4.3-.5 5.5-1.8 1.2-1.2 1.7-2.7 1.7-5.5v-9.6c0-2.7-.5-4.3-1.7-5.5-1.2-1.2-2.9-1.7-5.5-1.7Zm1.2 17c0 1.4-.5 1.8-2.2 1.8H158c-1.7 0-2.2-.4-2.2-1.9v-9.8c0-1.4.5-1.8 2.2-1.8h7.7c1.7 0 2.2.4 2.2 1.8v9.9Zm21-7.4h8.5c2.7 0 4.4.5 5.6 1.8 1 1 1.7 2.8 1.7 4.7v1.5c0 1.9-.6 3.6-1.7 4.7-1.2 1.3-2.8 1.8-5.6 1.8H181V47h15.4c1.7 0 2.2-.4 2.2-1.8v-.8c0-1.4-.5-1.8-2.2-1.8h-8.6c-2.7 0-4.3-.5-5.5-1.7-1-1-1.7-2.9-1.7-4.8v-1.4c0-2 .6-3.7 1.7-4.8 1.2-1.2 2.8-1.7 5.5-1.7h15.6v5.3h-14.6c-1.7 0-2.1.4-2.1 1.8v.7c0 1.4.4 1.8 2.1 1.8Zm19.6-4.3v-5.3H233v5.3h-9.2v18.8h-6V33.5h-9.3Z" fill="#fff"/><path d="M104.3 28h-9.6c-2.7 0-4.3.5-5.5 1.7-1.3 1.3-1.7 2.8-1.7 5.6v17h6V35c0-1.4.5-1.8 2.2-1.8h7.7c1.7 0 2.1.4 2.1 1.8V52.3h6v-17c0-2.8-.4-4.3-1.6-5.6-1.3-1.2-2.9-1.7-5.6-1.7Z" fill="#fff"/><g clip-path="url(#c)"><g clip-path="url(#d)"><path d="M67 17 39.5 1a8 8 0 0 0-12 7v2l-1.7-1a8 8 0 0 0-12 7v2L12 17a8 8 0 0 0-12 7v49.6a3.8 3.8 0 0 0 6 3l13.7-10.8 21 12.2a3.8 3.8 0 0 0 5.7-3.3v-30c0-4.8-2.7-9.4-7-11.9l-6.8-4V8A3 3 0 0 1 37 5.4l27.5 15.9a8.8 8.8 0 0 1 4.4 7.6V66c0 1-.6 2-1.5 2.6l-7.3 4.2v-36c0-5-2.6-9.6-6.9-12L36.4 15V21l14.4 8.3a8.8 8.8 0 0 1 4.4 7.6v38.3a3.8 3.8 0 0 0 5.7 3.2l9.1-5.3a8 8 0 0 0 4-6.9V29c0-5-2.6-9.5-6.9-12ZM37 37.1a8.8 8.8 0 0 1 4.3 7.6v27.7L24 62.5l5.6-4.4a8 8 0 0 0 3-6.3V34.7l4.5 2.5Zm-9.4-5.4v20a3 3 0 0 1-1.2 2.3L5 71.1V23.8a3 3 0 0 1 4.5-2.6l4.3 2.5v35.5l5-4V16a3 3 0 0 1 4.5-2.5l4.3 2.4V26l-5-3V29l5 2.9Z" fill="#fff"/></g></g></g></g><defs><clipPath id="a"><path fill="#fff" d="M0 0h233v79H0z"/></clipPath><clipPath id="b"><path fill="#fff" d="M0 0h233v79H0z"/></clipPath><clipPath id="c"><path fill="#fff" d="M0 0h73.9v78.8H0z"/></clipPath><clipPath id="d"><path fill="#fff" d="M0 0h73.9v78.8H0z"/></clipPath></defs></svg>