<svg fill="none" height="37" viewBox="0 0 77 37" width="77" xmlns="http://www.w3.org/2000/svg" xmlns:xlink="http://www.w3.org/1999/xlink"><clipPath id="a"><path d="m12 11h15v15h-15z"/></clipPath><clipPath id="b"><path d="m29 12.7144h36v11.5715h-36z"/></clipPath><rect fill="#fff" height="36" rx="7.5" width="76" x=".5" y=".5"/><g clip-path="url(#a)" fill="#1d1d1d"><path d="m19.1984 25.9999c-2.6509 0-4.8-2.149-4.8-4.8s2.1491-4.8 4.8-4.8z"/><path d="m19.1984 11h-4.8v4.8h4.8z"/><path d="m22.2008 15.8c1.3254 0 2.4-1.0745 2.4-2.4s-1.0746-2.4-2.4-2.4c-1.3255 0-2.4 1.0745-2.4 2.4s1.0745 2.4 2.4 2.4z"/></g><g clip-path="url(#b)" fill="#1d1d1d"><path d="m43.0801 23.6469h1.6378c-.1191-.6227-.1799-1.215-.1799-1.9288v-2.9767c0-2.0048-1.1448-2.9919-3.1987-2.9919-1.8604 0-3.1255.972-3.2892 2.6274h1.8306c.0596-.7138.5656-1.1846 1.3991-1.1846.8633 0 1.4288.4556 1.4288 1.3972v.3645l-2.2623.2582c-1.5329.1822-2.7236.8201-2.7236 2.3692 0 1.3972 1.0715 2.2325 2.545 2.2325 1.2056 0 2.2224-.5012 2.6439-1.382.0185.5277.1685 1.215.1685 1.215zm-2.2915-1.1846c-.759 0-1.1758-.3797-1.1758-.9872 0-.8049.6102-.9872 1.414-1.0935l1.6818-.1974v.4708c0 1.215-.9376 1.8073-1.92 1.8073zm10.235 1.1846h1.8754v-10.9325h-1.9051v4.4779c-.3572-.7746-1.2204-1.4428-2.3962-1.4428-2.0439 0-3.4625 1.6554-3.4625 4.0398 0 2.3996 1.4186 4.0399 3.4625 4.0399 1.146 0 2.0538-.638 2.4259-1.4125zm.0149-3.7209c0 1.5035-.6995 2.4756-1.9051 2.4756-1.2353 0-2.014-1.0176-2.014-2.6123 0-1.5795.7787-2.6122 2.014-2.6122 1.2056 0 1.9051.972 1.9051 2.4755zm2.973-5.3004h2.0242v-1.8984h-2.0242zm.0595 9.0213h1.9051v-7.7152h-1.9051zm4.2844 0 1.8902-2.6426 1.8753 2.6426h2.1879l-2.9321-4.0399 2.694-3.6753h-2.0391l-1.6819 2.3844-1.6669-2.3844h-2.1879l2.7237 3.7665-2.9023 3.9487z"/><path clip-rule="evenodd" d="m30.8728 23.6427v-3.8464h2.4977l2.3482 3.8464h2.0888l-2.5786-4.1345c1.1668-.3745 2.1896-1.3253 2.1896-2.9244 0-2.1032-1.476-3.2269-3.9461-3.2269h-4.4724v10.2858zm0-8.7732v3.4286h2.5121c1.4262 0 2.1465-.5906 2.1465-1.7143 0-1.1236-.7846-1.7143-2.275-1.7143z" fill-rule="evenodd"/></g><rect height="36" rx="7.5" stroke="#e0e3e7" stroke-dasharray="4 4" width="76" x=".5" y=".5"/></svg>