<svg fill="none" height="37" viewBox="0 0 113 37" width="113" xmlns="http://www.w3.org/2000/svg" xmlns:xlink="http://www.w3.org/1999/xlink"><clipPath id="a"><path d="m12 10.7h18v15.5999h-18z"/></clipPath><rect fill="#14191f" height="36" rx="7.5" width="112" x=".5" y=".5"/><g clip-path="url(#a)" fill="#e1251b"><path d="m23.4023 10.7002h6.6v15.5999z"/><path d="m18.66 10.7007h-6.66v15.5999z"/><path d="m21.0011 16.4607 4.26 9.8399h-2.76l-1.26-3.12h-3.12z"/></g><path d="m36.786 24h-1.582v-9.772h4.214c.8773 0 1.568.266 2.072.798.504.5227.756 1.2367.756 2.142 0 .7-.1633 1.2833-.49 1.75-.3173.4573-.7887.7793-1.414.966l2.114 4.116h-1.764l-1.96-3.948h-1.946zm2.52-5.278c.4013 0 .714-.1027.938-.308.224-.2147.336-.518.336-.91v-.672c0-.392-.112-.6907-.336-.896-.224-.2147-.5367-.322-.938-.322h-2.52v3.108zm7.6108 5.446c-.5227 0-.9894-.0887-1.4-.266-.4107-.1773-.7607-.4293-1.05-.756-.2894-.336-.5134-.7373-.672-1.204-.1494-.476-.224-1.0033-.224-1.582s.0746-1.1013.224-1.568c.1586-.476.3826-.8773.672-1.204.2893-.336.6393-.5927 1.05-.77.4106-.1773.8773-.266 1.4-.266.532 0 .9986.0933 1.4.28.4106.1867.7513.448 1.022.784.2706.3267.4713.7093.602 1.148.14.4387.21.91.21 1.414v.574h-4.998v.238c0 .56.1633 1.022.49 1.386.336.3547.812.532 1.428.532.448 0 .826-.098 1.134-.294s.5693-.462.784-.798l.896.882c-.2707.448-.6627.8073-1.176 1.078-.5134.2613-1.1107.392-1.792.392zm0-6.426c-.2614 0-.504.0467-.728.14-.2147.0933-.4014.224-.56.392-.1494.168-.266.3687-.35.602s-.126.49-.126.77v.098h3.388v-.14c0-.56-.1447-1.008-.434-1.344-.2894-.3453-.686-.518-1.19-.518zm10.2572 6.258c-.4013 0-.7093-.112-.924-.336-.2146-.2333-.3453-.5273-.392-.882h-.07c-.14.4573-.3966.8027-.77 1.036-.3733.2333-.826.35-1.358.35-.756 0-1.3393-.196-1.75-.588-.4013-.392-.602-.9193-.602-1.582 0-.728.2614-1.274.784-1.638.532-.364 1.3067-.546 2.324-.546h1.316v-.616c0-.448-.1213-.7933-.364-1.036-.2426-.2427-.6206-.364-1.134-.364-.4293 0-.7793.0933-1.05.28-.2706.1867-.4993.4247-.686.714l-.91-.826c.2427-.4107.5834-.7467 1.022-1.008.4387-.2707 1.0127-.406 1.722-.406.9427 0 1.666.2193 2.17.658s.756 1.0687.756 1.89v3.654h.77v1.246zm-3.08-.994c.476 0 .868-.1027 1.176-.308.308-.2147.462-.4993.462-.854v-1.05h-1.288c-1.0546 0-1.582.3267-1.582.98v.252c0 .3267.1074.574.322.742.224.1587.5274.238.91.238zm8.2436 1.162c-.5226 0-.9893-.0887-1.4-.266-.4106-.1773-.756-.4293-1.036-.756-.28-.336-.4946-.7373-.644-1.204-.1493-.476-.224-1.0033-.224-1.582s.0747-1.1013.224-1.568c.1494-.476.364-.8773.644-1.204.28-.336.6254-.5927 1.036-.77.4107-.1773.8774-.266 1.4-.266.728 0 1.3254.1633 1.792.49.4667.3267.8074.7607 1.022 1.302l-1.26.588c-.1026-.336-.2846-.602-.546-.798-.252-.2053-.588-.308-1.008-.308-.56 0-.9846.1773-1.274.532-.28.3453-.42.798-.42 1.358v1.302c0 .56.14 1.0173.42 1.372.2894.3453.714.518 1.274.518.448 0 .8027-.1073 1.064-.322.2707-.224.4854-.518.644-.882l1.162.616c-.2426.5973-.6066 1.0547-1.092 1.372-.4853.3173-1.078.476-1.778.476zm6.3388-.168c-.532 0-.9334-.1353-1.204-.406-.2707-.28-.406-.672-.406-1.176v-4.452h-1.134v-1.246h.616c.252 0 .4246-.056.518-.168.1026-.112.154-.294.154-.546v-1.274h1.372v1.988h1.526v1.246h-1.526v4.788h1.414v1.246zm12.6218 0-.882-2.646h-3.654l-.854 2.646h-1.61l3.332-9.772h1.988l3.332 9.772zm-2.674-8.316h-.07l-1.414 4.312h2.884zm5.7276 8.316v-7.28h1.526v1.4h.07c.1026-.3733.3173-.7.644-.98.3266-.28.7793-.42 1.358-.42h.406v1.47h-.602c-.6067 0-1.0734.098-1.4.294-.3174.196-.476.4853-.476.868v4.648zm6.1293-8.582c-.3173 0-.5506-.0747-.7-.224-.14-.1493-.21-.3407-.21-.574v-.238c0-.2333.07-.4247.21-.574.1494-.1493.3827-.224.7-.224.3174 0 .546.0747.686.224s.21.3407.21.574v.238c0 .2333-.07.4247-.21.574s-.3686.224-.686.224zm-.77 1.302h1.526v7.28h-1.526zm9.0391 7.28c-.4013 0-.7093-.112-.924-.336-.2146-.2333-.3453-.5273-.392-.882h-.07c-.14.4573-.3966.8027-.77 1.036-.3733.2333-.826.35-1.358.35-.756 0-1.3393-.196-1.75-.588-.4013-.392-.602-.9193-.602-1.582 0-.728.2614-1.274.784-1.638.532-.364 1.3067-.546 2.324-.546h1.316v-.616c0-.448-.1213-.7933-.364-1.036-.2426-.2427-.6206-.364-1.134-.364-.4293 0-.7793.0933-1.05.28-.2706.1867-.4993.4247-.686.714l-.91-.826c.2427-.4107.5834-.7467 1.022-1.008.4387-.2707 1.0127-.406 1.722-.406.9427 0 1.666.2193 2.17.658s.756 1.0687.756 1.89v3.654h.77v1.246zm-3.08-.994c.476 0 .868-.1027 1.176-.308.308-.2147.462-.4993.462-.854v-1.05h-1.288c-1.0546 0-1.582.3267-1.582.98v.252c0 .3267.1074.574.322.742.224.1587.5274.238.91.238z" fill="#fff"/><rect height="36" rx="7.5" stroke="#2f3a46" stroke-dasharray="4 4" width="112" x=".5" y=".5"/></svg>