<svg xmlns="http://www.w3.org/2000/svg" width="89" height="89" fill="none"><path fill="#0059B3" fill-opacity=".3" d="m82.486 51.65 4.355-1.005.525-5.66-5.69-2.484a37.494 37.494 0 0 0-.37-4.063l1.424-.968 3.7-2.511-1.556-5.467-6.182-.26a36.441 36.441 0 0 0-1.83-3.662l.975-1.41 2.542-3.678-3.426-4.536-5.88 1.998c-.072-.073-.14-.146-.214-.219a37.685 37.685 0 0 0-2.798-2.53c.162-.672.302-1.259.402-1.68l1.042-4.348-4.833-2.992-4.744 3.973a36.304 36.304 0 0 0-3.82-1.476l-.228-1.698-.6-4.43L49.694 1.5l-2.997 5.436a37.662 37.662 0 0 0-4.077.003l-.836-1.516-2.16-3.915-5.586 1.044-.83 6.133c-1.3.422-2.574.916-3.817 1.48l-1.312-1.098-3.427-2.87-4.834 2.992c.33 1.37 1.001 4.179 1.445 6.032a37.645 37.645 0 0 0-2.762 2.503c-.083.083-.162.168-.244.25l-1.641-.557-4.233-1.44-3.425 4.537 3.52 5.092a36.578 36.578 0 0 0-1.824 3.665l-1.71.071-4.468.188-1.555 5.467 5.13 3.482a37.481 37.481 0 0 0-.364 4.063l-1.589.693L2 45.023l.525 5.66 6.034 1.393c.3 1.335.674 2.648 1.118 3.936l-1.216 1.206-3.174 3.147 2.534 5.088 6.134-.882a36.8 36.8 0 0 0 2.47 3.25l-.706 1.58-1.823 4.082 4.201 3.83 5.402-3.04a36.549 36.549 0 0 0 3.475 2.156c-.035.685-.066 1.283-.086 1.711l-.225 4.465 5.3 2.053 3.937-4.782c1.319.32 2.66.567 4.018.741l.542 1.639 1.403 4.244h5.684l1.947-5.89a36.947 36.947 0 0 0 4.017-.744l1.09 1.325 2.842 3.452 5.3-2.053-.312-6.184a36.712 36.712 0 0 0 3.472-2.16c.6.339 1.124.633 1.5.844l3.897 2.193 4.2-3.83a20737.6 20737.6 0 0 1-2.53-5.668 37.065 37.065 0 0 0 2.465-3.253l1.703.244 4.425.636 2.533-5.088-4.395-4.358a36.35 36.35 0 0 0 1.114-3.937l1.672-.387-.001.008Z"/><path fill="#004C99" d="M49.796 41.43c.596-1.22 1.939 1.93 2.636 3.094.698 1.166 1.101 2.566.82 3.896-.282 1.33-1.566 3.423-2.71 2.688-2.15-1.378-1.545-8.044-.748-9.679l.002.001Z"/><path stroke="#39F" stroke-linecap="round" stroke-linejoin="round" stroke-opacity=".3" stroke-width="2.56" d="m52.718 67.406 2.934 1.6.806-3.243 3.158 1.093.261-3.332 3.295.56-.288-3.328 3.342.014-.83-3.237 3.299-.535-1.352-3.057 3.166-1.073-1.84-2.79 2.943-1.583-2.274-2.448 2.643-2.044-2.643-2.044 2.274-2.447-2.943-1.582 1.84-2.79-3.166-1.073 1.352-3.057-3.299-.535.83-3.237-3.342.014.288-3.33-3.295.561-.261-3.331-3.158 1.093L55.652 19l-2.934 1.6-1.332-3.064-2.628 2.065-1.822-2.802-2.252 2.467L42.43 16.8l-1.822 2.802-2.627-2.065-1.333 3.064-2.934-1.6-.806 3.244-3.158-1.093-.26 3.331-3.295-.56.288 3.329-3.343-.014.83 3.237-3.299.535 1.352 3.057-3.165 1.072 1.839 2.79-2.943 1.584 2.275 2.447-2.643 2.044 2.643 2.045-2.275 2.447 2.943 1.582-1.84 2.79 3.165 1.073"/><path fill="url(#a)" d="M30.846 48.487c-.388 1.82-1.506 12.119-2.064 14.578-.223 1.248-.626 2.055-1.166 3.189a2.328 2.328 0 0 0 .865 2.985c1.325.835 3.193 1.919 4.736 2.46 1.605.561 3.846.882 5.429 1.051 1.133.121 2.166-.582 2.587-1.641 1.655-4.16 2.742-4.755 3.801-6.492 2.11-3.46 6.27-6.528 9.202-9.094 1.347-1.179 2.414-2.797 3.38-4.274.858-1.31 1.766-2.587 2.673-3.861.737-1.037 1.52-1.909.324-2.962-1.318-1.163-2.72-.356-3.903.592-.758.607-1.706 2.212-2.485 2.976-1.728 1.695-3.473 2.15-4.388-.112-.393-.972-.374-4.24.004-5.748 1.212-4.366 3.384-7.94 4.518-12.04.34-1.23.634-2.77-.255-3.89-.395-.5-1.118-.773-1.727-.553-.627.225-.975.874-1.183 1.492-.868 2.58-2.441 4.762-3.903 7.262l-.022.038c-1.099 1.879-2.396 4.096-4.786 2.784-.553-.303-1.166-.598-1.787-.492-1.425.244-1.832 2.142-3.215 2.381-.664.114-1.135-.358-1.837-.085-1.179.458-1.031 1.743-1.812 2.488-.288.274-.685.219-.972.45-.407.33-.734 1.058-.925 1.534-.632 1.578-.737 3.334-1.09 4.984Z"/><path stroke="#39F" stroke-linecap="round" stroke-linejoin="round" stroke-width="3.072" d="M82.486 51.646c0 .002.001.003.003.003l2.933-.677a2.015 2.015 0 0 0 1.554-1.777l.22-2.368a2.56 2.56 0 0 0-1.525-2.582l-2.522-1.101c-.901-.393-1.49-1.269-1.567-2.249a37.987 37.987 0 0 0-.078-.863c-.1-.977.318-1.944 1.13-2.497l.096-.065 2.168-1.472a2.56 2.56 0 0 0 1.025-2.819l-.543-1.907a2.56 2.56 0 0 0-2.355-1.857l-2.728-.115c-.982-.041-1.846-.645-2.274-1.529a36.424 36.424 0 0 0-.391-.784c-.45-.876-.413-1.933.147-2.744l.058-.083 1.49-2.156a2.56 2.56 0 0 0-.063-2.998l-1.195-1.583a2.56 2.56 0 0 0-2.868-.881l-3.839 1.304a.488.488 0 0 1-.503-.12v0a37.674 37.674 0 0 0-1.575-1.488c-.734-.654-1.076-1.65-.848-2.606l.027-.117.611-2.549a2.56 2.56 0 0 0-1.142-2.773L66.246 7.15a2.56 2.56 0 0 0-2.993.214l-2.091 1.752c-.754.631-1.8.767-2.713.402a36.1 36.1 0 0 0-.818-.316c-.923-.344-1.606-1.15-1.738-2.126l-.013-.1-.351-2.597a2.56 2.56 0 0 0-2.067-2.174l-1.95-.364A2.559 2.559 0 0 0 48.8 3.12l-1.329 2.41c-.474.86-1.398 1.365-2.38 1.353a35.866 35.866 0 0 0-.865.001c-.983.013-1.909-.492-2.383-1.353l-.06-.108-1.266-2.295a2.56 2.56 0 0 0-2.712-1.28l-1.95.364a2.56 2.56 0 0 0-2.066 2.174l-.366 2.705c-.132.974-.813 1.78-1.734 2.124-.274.102-.547.208-.818.317-.913.367-1.96.231-2.715-.4l-.078-.065-2.009-1.683a2.56 2.56 0 0 0-2.991-.214L21.39 8.214c-.94.582-1.4 1.7-1.142 2.775l.64 2.673c.228.954-.113 1.949-.844 2.602-.527.47-1.042.956-1.545 1.46v0a.56.56 0 0 1-.576.138l-1.31-.445-2.48-.844a2.56 2.56 0 0 0-2.867.881l-1.196 1.584a2.56 2.56 0 0 0-.063 2.998l1.553 2.245c.56.81.599 1.865.15 2.741-.133.26-.263.52-.39.783-.428.887-1.294 1.492-2.278 1.533l-.1.004-2.62.11A2.56 2.56 0 0 0 3.97 31.31l-.543 1.908a2.56 2.56 0 0 0 1.024 2.818l2.273 1.542c.812.551 1.23 1.517 1.131 2.492-.029.288-.055.576-.077.864-.077.981-.665 1.858-1.567 2.252l-.113.05-2.401 1.047a2.56 2.56 0 0 0-1.525 2.583l.183 1.976a2.56 2.56 0 0 0 1.973 2.257l2.662.615c.96.221 1.7.975 1.957 1.925.077.282.157.563.24.842.28.943.048 1.971-.65 2.663l-.075.074-1.86 1.844a2.56 2.56 0 0 0-.489 2.96l.884 1.775a2.561 2.561 0 0 0 2.657 1.392l2.714-.39c.971-.139 1.93.294 2.515 1.082.172.232.347.462.525.69.605.778.762 1.823.36 2.722l-.048.108-1.069 2.392a2.56 2.56 0 0 0 .613 2.936l1.467 1.337a2.56 2.56 0 0 0 2.98.34l2.384-1.343c.859-.482 1.914-.423 2.744.106.246.156.493.31.741.46.842.507 1.362 1.424 1.314 2.406l-.005.105-.132 2.617a2.56 2.56 0 0 0 1.632 2.516l1.85.717a2.56 2.56 0 0 0 2.901-.76l1.741-2.115c.624-.758 1.625-1.084 2.588-.895.284.056.57.109.855.158.972.167 1.792.835 2.102 1.77l.035.108.822 2.487a2.56 2.56 0 0 0 2.43 1.757h1.984a2.56 2.56 0 0 0 2.431-1.757l.861-2.604c.31-.934 1.128-1.6 2.098-1.769.286-.05.571-.102.856-.158.964-.19 1.965.136 2.59.894.023.03.047.057.069.085l1.666 2.023a2.56 2.56 0 0 0 2.9.76l1.851-.716a2.559 2.559 0 0 0 1.632-2.515l-.138-2.733c-.05-.981.47-1.897 1.31-2.405.249-.15.495-.304.74-.46.832-.531 1.888-.59 2.748-.107l.093.052 2.284 1.285a2.56 2.56 0 0 0 2.98-.339l1.466-1.336a2.56 2.56 0 0 0 .613-2.936l-1.12-2.51c-.401-.898-.246-1.941.358-2.718.178-.23.353-.46.525-.693.584-.79 1.544-1.223 2.516-1.083l.113.016 2.593.373a2.56 2.56 0 0 0 2.656-1.393l.885-1.776a2.559 2.559 0 0 0-.49-2.958l-1.94-1.925c-.698-.692-.93-1.719-.651-2.66.187-.632.358-1.27.51-1.913a.817.817 0 0 1 .609-.61l1.173-.271c.002 0 .003.001.003.003v0Z"/><defs><linearGradient id="a" x1="63.778" x2="21.729" y1="36.074" y2="42.266" gradientUnits="userSpaceOnUse"><stop stop-color="#007FFF"/><stop offset="1" stop-color="#39F"/></linearGradient></defs></svg>
