<svg xmlns="http://www.w3.org/2000/svg" width="81" height="94" fill="none"><path fill="#0059B3" fill-opacity=".3" d="M38.306 79.3c20.052 0 36.307-16.254 36.307-36.306 0-20.051-16.255-36.306-36.307-36.306C18.255 6.688 2 22.943 2 42.994c0 20.052 16.255 36.307 36.306 36.307Z"/><path stroke="#39F" stroke-miterlimit="10" stroke-opacity=".4" stroke-width="1.414" d="M26.67 36.725c-.693 1.764-4.79 3.312-7.817 2.122-3.028-1.189-4.42-3.19-3.728-4.954.693-1.764 3.074-2.283 6.102-1.095 3.028 1.19 4.977 5.11 4.284 6.875"/><path stroke="#39F" stroke-miterlimit="10" stroke-opacity=".4" stroke-width="1.414" d="M27.632 35.198c-.927 1.654-5.195 2.629-8.033 1.039-2.839-1.59-3.945-3.763-3.019-5.417.927-1.653 3.357-1.843 6.195-.253 2.839 1.59 4.235 5.74 3.309 7.393"/><path stroke="#39F" stroke-miterlimit="10" stroke-opacity=".4" stroke-width="1.414" d="M28.792 33.817c-1.143 1.512-5.504 1.896-8.1-.065-2.595-1.961-3.395-4.265-2.252-5.776 1.143-1.512 3.576-1.37 6.172.593 2.595 1.962 3.414 6.264 2.27 7.775"/><path stroke="#39F" stroke-miterlimit="10" stroke-opacity=".4" stroke-width="1.414" d="M30.132 32.607c-1.338 1.343-5.712 1.13-8.015-1.166-2.305-2.298-2.784-4.687-1.445-6.03 1.337-1.342 3.73-.87 6.034 1.428 2.304 2.297 2.529 6.669 1.191 8.011"/><path stroke="#39F" stroke-miterlimit="10" stroke-opacity=".4" stroke-width="1.414" d="M31.622 31.59c-1.509 1.148-5.812.342-7.782-2.248-1.97-2.59-2.12-5.022-.61-6.169 1.508-1.148 3.813-.353 5.782 2.236 1.97 2.59 1.599 6.952.09 8.1"/><path stroke="#39F" stroke-miterlimit="10" stroke-opacity=".4" stroke-width="1.414" d="M33.237 30.786c-1.652.931-5.805-.453-7.404-3.286-1.598-2.834-1.415-5.264.235-6.195s3.826.168 5.424 3.002c1.599 2.834.637 7.105-1.014 8.036"/><path stroke="#39F" stroke-miterlimit="10" stroke-opacity=".4" stroke-width="1.414" d="M34.947 30.21c-1.762.698-5.689-1.24-6.887-4.265-1.198-3.024-.686-5.407 1.076-6.105 1.762-.698 3.767.688 4.965 3.713 1.197 3.024-.337 7.125-2.1 7.823"/><path stroke="#39F" stroke-miterlimit="10" stroke-opacity=".4" stroke-width="1.414" d="M36.718 29.872c-1.841.451-5.467-2.003-6.242-5.162-.775-3.16.056-5.451 1.897-5.903 1.842-.451 3.639 1.195 4.413 4.354.775 3.16-1.303 7.014-3.144 7.465"/><path stroke="#39F" stroke-miterlimit="10" stroke-opacity=".4" stroke-width="1.414" d="M38.52 29.777c-1.884.197-5.143-2.728-5.48-5.964-.338-3.235.797-5.392 2.683-5.59 1.885-.196 3.442 1.68 3.78 4.916.336 3.235-2.247 6.77-4.133 6.967"/><path stroke="#39F" stroke-miterlimit="10" stroke-opacity=".4" stroke-width="1.414" d="M40.318 29.93c-1.894-.062-4.724-3.404-4.618-6.656.106-3.252 1.525-5.233 3.42-5.172 1.894.062 3.18 2.133 3.075 5.385-.106 3.252-3.148 6.401-5.043 6.339"/><path stroke="#39F" stroke-miterlimit="10" stroke-opacity=".4" stroke-width="1.414" d="M42.078 30.326c-1.868-.32-4.216-4.015-3.668-7.223.548-3.207 2.224-4.977 4.093-4.658 1.868.32 2.86 2.546 2.313 5.752-.548 3.208-3.99 5.913-5.858 5.595"/><path stroke="#39F" stroke-miterlimit="10" stroke-opacity=".4" stroke-width="1.414" d="M43.769 30.957c-1.807-.57-3.63-4.552-2.651-7.653.98-3.102 2.88-4.628 4.688-4.057 1.807.57 2.488 2.911 1.508 6.014-.98 3.102-4.758 5.314-6.565 4.744"/><path stroke="#39F" stroke-miterlimit="10" stroke-opacity=".4" stroke-width="1.414" d="M45.356 31.813c-1.713-.811-2.977-5.004-1.584-7.943 1.393-2.94 3.484-4.193 5.197-3.38 1.712.811 2.068 3.222.675 6.163-1.393 2.94-5.437 4.617-7.15 3.806"/><path stroke="#39F" stroke-miterlimit="10" stroke-opacity=".4" stroke-width="1.414" d="M46.813 32.876c-1.587-1.037-2.268-5.362-.488-8.085 1.78-2.722 4.023-3.678 5.61-2.641 1.586 1.037 1.61 3.475-.17 6.198-1.78 2.722-6.015 3.833-7.602 2.797"/><path stroke="#39F" stroke-miterlimit="10" stroke-opacity=".4" stroke-width="1.414" d="M48.112 34.13c-1.43-1.244-1.517-5.622.618-8.077 2.134-2.456 4.486-3.098 5.916-1.854 1.43 1.243 1.122 3.66-1.013 6.116-2.135 2.455-6.482 2.979-7.911 1.735"/><path stroke="#39F" stroke-miterlimit="10" stroke-opacity=".4" stroke-width="1.414" d="M49.227 35.547c-1.248-1.426-.736-5.775 1.712-7.917 2.45-2.142 4.866-2.458 6.114-1.03 1.248 1.426.613 3.78-1.835 5.921-2.45 2.142-6.827 2.069-8.074.643"/><path stroke="#39F" stroke-miterlimit="10" stroke-opacity=".4" stroke-width="1.414" d="M50.14 37.103c-1.042-1.583.057-5.822 2.774-7.61 2.718-1.789 5.155-1.772 6.197-.19 1.042 1.584.092 3.829-2.624 5.617-2.719 1.788-7.046 1.12-8.088-.463"/><path stroke="#39F" stroke-miterlimit="10" stroke-opacity=".4" stroke-width="1.414" d="M50.833 38.77c-.817-1.71.848-5.76 3.783-7.162 2.937-1.402 5.35-1.054 6.165.656.817 1.71-.43 3.806-3.365 5.208-2.936 1.401-7.131.15-7.948-1.56"/><path stroke="#39F" stroke-linecap="round" stroke-linejoin="round" stroke-width="2.829" d="M38.307 6.688V2C60.947 2 79.3 20.354 79.3 42.993c0 22.64-18.354 40.993-40.993 40.993v8.012"/><path stroke="#39F" stroke-linecap="round" stroke-linejoin="round" stroke-width="2.829" d="M38.306 79.3c20.052 0 36.307-16.254 36.307-36.306 0-20.051-16.255-36.306-36.307-36.306C18.255 6.688 2 22.943 2 42.994c0 20.052 16.255 36.307 36.306 36.307Z"/><path fill="url(#a)" fill-rule="evenodd" d="M19.233 40.547c-.644-.34-1.634.014-1.643.898l.002.002c-.01.928.116 1.795.349 2.707.185.723.595 1.83.952 2.79v.001l.263.715c-.514-.771-1.795-3.564-2.04-4.773-.086-.42-.165-.923-.249-1.454-.158-1-.332-2.103-.594-2.953-.566-1.837-2.535-1.663-2.29.458.04.35.076.736.113 1.142.092 1.005.194 2.125.408 3.066.393 1.733.836 3.178 1.124 4.117.075.245.14.456.19.629-.273-.33-1.221-2.318-1.715-4.672-.154-.736-.3-1.504-.44-2.25-.368-1.943-.704-3.724-1.092-4.334-1.247-1.962-2.557-.188-2.248 2.127.144 1.08.453 2.718.79 4.499l.19 1.017c.262 1.392.806 2.887 1.133 3.785.135.37.233.639.258.757-.248-.314-1.097-1.903-1.544-3.205-.354-1.033-.549-2.155-.717-3.122-.186-1.07-.339-1.951-.638-2.307-.818-.974-1.402-.336-1.616.895-.157.903-.124 2.727.165 3.867.487 1.918 1.038 3.757 2.032 5.864.854 1.81 1.782 3.592 2.749 5.115-.678-.21-1.385-.637-2.055-1.552-1.177-1.611-2.856-2.62-3.444-1.483-.345.667.483 2.636 1.354 3.854a11.397 11.397 0 0 0 3.66 3.32c1.046.598 1.75.869 2.543 1.174.764.294 1.612.62 2.932 1.304.094.05.19.101.289.151.977.517 1.994 1.225 2.8 1.826.87.882 1.515 1.976 1.916 3.217.076.236.159.738.245 1.45a30.963 30.963 0 0 0 10.632 3.525c-1.375-5.878-2.613-10.987-3.101-12.33a31.712 31.712 0 0 1-.554-1.714c-.587-1.946-1.174-3.893-3.476-6.625-1.057-1.254-1.763-1.68-2.359-2.037-.703-.424-1.252-.754-2.042-2.247-.226-.427-.433-.807-.622-1.154-.68-1.25-1.134-2.083-1.448-3.212a17.868 17.868 0 0 1-.092-.353c-.207-.81-.57-2.23-1.07-2.495Z" clip-rule="evenodd"/><path fill="url(#b)" fill-rule="evenodd" d="M58.687 37.643c.699-.248 1.708.217 1.649 1.071-.1 1.454-1.643 6.5-1.643 6.5.79-2.552 2.296-6.824 3.357-9.278.735-1.702 2.782-1.29 2.36.727-.39 1.864-.845 3.53-1.312 5.235-.29 1.06-.585 2.136-.87 3.284.63-1.509 1.202-3.374 1.741-5.132.74-2.41 1.416-4.618 2.1-5.433 1.458-1.738 2.525.249 1.97 2.432-.31 1.219-.847 2.98-1.402 4.793-.23.754-.463 1.517-.684 2.253.065.041.132.09.2.146l.01-.03c.923-2.803 1.95-5.924 2.5-6.42 1.614-1.454 1.883 1.189 1.213 3.785-.15.585-.299 1.172-.447 1.761-.756 3-1.52 6.033-2.682 8.88a8.842 8.842 0 0 1-.868 1.617l.348-.259c1.005-.752 1.89-1.414 2.65-1.023.538.276.69.91.71.993.436 1.939-3.213 4.47-6.005 5.524-1.135.43-3.018.95-5.53.786-1.412 1.302-2.199 3.308-2.584 5.192-.102.497-.333 2.164-.634 4.434a30.988 30.988 0 0 1-13.68 4.587c2.224-6.103 4.375-12.177 4.725-13.774.849-3.877 1.464-5.04 2.22-6.466.18-.34.368-.696.569-1.107 1.026-2.095 2.356-3.068 3.642-4.01 1.345-.985 2.643-1.935 3.497-4.097.756-1.912 1.234-3.173 1.786-5.154.173-.62.456-1.59 1.094-1.817Z" clip-rule="evenodd"/><path stroke="#39F" stroke-linecap="round" stroke-linejoin="round" stroke-width="2.829" d="M19.578 92h37.456"/><defs><linearGradient id="a" x1="35.953" x2="3.646" y1="43.982" y2="48.666" gradientUnits="userSpaceOnUse"><stop stop-color="#007FFF"/><stop offset="1" stop-color="#39F"/></linearGradient><linearGradient id="b" x1="41.154" x2="72.562" y1="46.995" y2="49.158" gradientUnits="userSpaceOnUse"><stop stop-color="#005BB8"/><stop offset="1" stop-color="#0072E6"/></linearGradient></defs></svg>
