<svg xmlns="http://www.w3.org/2000/svg" width="92" height="84" fill="none"><path fill="#0059B3" fill-opacity=".3" d="M55.466 2H36.985C17.663 2 2 17.663 2 36.985S16.37 71.97 36.985 71.97h4.088C43.23 75.32 49.999 82 64.847 82c-5.834-4.763-6.757-8.215-6.626-10.137 19.588 0 32.23-16.483 32.23-34.877 0-19.322-15.663-34.985-34.985-34.985V2Z"/><path stroke="#39F" stroke-linecap="round" stroke-linejoin="round" stroke-opacity=".3" stroke-width="2.793" d="M14.684 47.016c3.954 9.665 13.451 16.476 24.541 16.476h16.476c13.382 0 22.375-9.917 23.826-22.802M18.93 19.935c4.863-5.782 12.15-9.457 20.295-9.457h14.003c6.56 0 12.564 2.384 17.192 6.332"/><path fill="url(#a)" fill-rule="evenodd" d="M61.625 50.672c.029-.024.058-.051.086-.08.643-.614.706-1.167.528-1.938 0 0 2.547.461 2.701-1.421a.35.35 0 0 0 0-.065 2.026 2.026 0 0 0-.174-.876c-.232-.529-2.32-2.986-2.529-3.19-3.27-3.399-7.576-6.1-7.576-6.1 1.195-.053 2.27-.363 3.468-.708l.067-.019c1.464-.421 2.849-1.328 3.533-2.689L48.95 28.664s-.589-.376-1.504-.422c-2.562-.133-4.806.599-7.104 1.348-1.518.495-3.06.997-4.733 1.264-1.823.29-2.576.045-4.245-.498l-.232-.076L11.3 25.751c-1.078-.246-2.18.3-2.585 1.33-.568 1.442-1.305 3.52-1.595 5.23-.263 1.551-.339 3.638-.356 5.135-.013 1.108.791 2.041 1.882 2.233l17.649 3.104c.615.316 1.582 1.017 2.485 1.67.652.471 1.27.918 1.697 1.179 1.181.72 2.335 1.483 3.49 2.247 1.832 1.214 3.664 2.426 5.601 3.46 1.737.928 3.662 1.237 5.595 1.547 1.582.255 3.17.51 4.666 1.105 1.363.542 2.338.505 2.95.18.183-.097.334-.221.452-.363.596-.61.674-1.356.674-1.356s1.113.34 1.753.518c.081.023.165.05.253.076.588.183 1.32.41 2.062-.134.231-.143.42-.336.55-.56.22-.288.435-.663.646-1.143 1.276.182 1.957-.094 2.456-.537Z" clip-rule="evenodd"/><path fill="url(#b)" d="M68.214 43.245c.972-1.265 3.004-3.672 2.688-5.236l13.142-5.767c.957-.42 1.517-1.426 1.328-2.453-.226-1.229-.57-2.86-.989-4.052-.395-1.125-1.149-2.513-1.782-3.587-.59-1-1.848-1.345-2.894-.84L64.98 28.408c-2.77 1.009-4.881-.575-7.792-1.05-2.91-.474-6.001-.773-8.717.373a9.357 9.357 0 0 0-1.025.51c-1.966 1.13-3.526 2.915-5.021 4.651l-2.87 3.334c-.136.158-.277.328-.31.534-.059.37.248.69.555.902a4.377 4.377 0 0 0 3.732.571c1.07-.332 1.967-1.066 2.784-1.832a27.941 27.941 0 0 0 2.408-2.558c1.7.931 3.464 1.997 5.212 3.16 3.286 2.186 7.801 6.07 10.452 8.661 1.537-.252 2.675-.923 3.826-2.419Z"/><path fill="url(#c)" d="M48.541 51.372c-.125-.441-.465-.767-1.01-.968-1.005-.372-1.758-.17-2.458.322.351-.753.394-1.598.067-2.22-.333-.632-1.002-.94-1.835-.847-.732.082-1.505.467-2.26 1.006a2.501 2.501 0 0 0 .159-1.736 1.657 1.657 0 0 0-.783-1.034c-.559-.32-1.334-.358-2.24-.109-.53.146-1.281.475-2.05.951.353-.687.358-1.366-.003-2-.36-.63-.948-.986-1.701-1.023-1.338-.069-3.08.909-4.05 2.27-.461.648-.607 1.357-.409 1.995.19.616.685 1.11 1.356 1.358.352.129.656.19.939.19.468 0 .88-.167 1.356-.458-.186.29-.34.596-.449.912-.262.762-.128 1.572.357 2.167.468.572 1.199.883 2.05.883.157 0 .316-.01.479-.032.428-.055.903-.186 1.493-.558-.11.373-.101.752.032 1.104.28.738 1.077 1.253 2.183 1.414.124.017.245.027.363.027.729 0 1.383-.322 1.983-.8-.065.365-.001.658.075.852.278.715 1.087 1.223 2.013 1.265.09.004.175.006.26.006.937 0 1.577-.28 2.556-1.536l.048-.063c.71-.909 1.78-2.282 1.48-3.337v-.001Z"/><path stroke="#39F" stroke-linecap="round" stroke-linejoin="round" stroke-width="2.793" d="M55.466 2H36.985C17.663 2 2 17.663 2 36.985S16.37 71.97 36.985 71.97h4.088C43.23 75.32 49.999 82 64.847 82c-5.834-4.763-6.757-8.215-6.626-10.137 19.588 0 32.23-16.483 32.23-34.877 0-19.322-15.663-34.985-34.985-34.985V2Z"/><defs><linearGradient id="a" x1="6.764" x2="65.509" y1="32.244" y2="48.363" gradientUnits="userSpaceOnUse"><stop stop-color="#005BB8"/><stop offset="1" stop-color="#0072E6"/></linearGradient><linearGradient id="b" x1="89.096" x2="38.249" y1="26.027" y2="44.957" gradientUnits="userSpaceOnUse"><stop stop-color="#007FFF"/><stop offset="1" stop-color="#39F"/></linearGradient><linearGradient id="c" x1="49.977" x2="28.576" y1="46.505" y2="52.937" gradientUnits="userSpaceOnUse"><stop stop-color="#007FFF"/><stop offset="1" stop-color="#39F"/></linearGradient></defs></svg>
