<svg xmlns="http://www.w3.org/2000/svg" width="75" height="92" fill="none"><path stroke="#39F" stroke-linecap="round" stroke-linejoin="round" stroke-width="2.521" d="m38.332 71.682-4.174 11.42c-.599 1.638-2.818 1.876-3.75.401l-2.744-4.343a2.101 2.101 0 0 0-2.41-.88l-4.873 1.542c-1.668.528-3.212-1.094-2.604-2.734l3.171-8.553M38.12 70.426l3.008 13.356c.383 1.702 2.553 2.222 3.667.88l3.28-3.955a2.101 2.101 0 0 1 2.505-.564l4.65 2.165c1.582.737 3.32-.665 2.936-2.367l-3.13-13.875"/><path fill="#0059B3" fill-opacity=".3" d="M72.865 37.365c0 1.461-3.37 3.175-3.578 4.621-.207 1.446 2.542 4.038 2.132 5.44-.411 1.402-4.128 2.098-4.736 3.429-.607 1.33 1.303 4.593.513 5.82-.79 1.23-4.55.848-5.507 1.953-.958 1.106-.046 4.772-1.15 5.73-1.105.958-4.606-.467-5.836.322-1.228.79-1.387 4.568-2.716 5.173-1.33.61-4.289-1.746-5.688-1.336-1.402.413-2.62 3.993-4.066 4.2-1.446.208-3.624-2.883-5.083-2.883-1.46 0-3.625 2.977-5.084 2.883-1.457-.094-2.663-3.787-4.065-4.2-1.401-.41-4.36 1.945-5.688 1.336-1.33-.605-1.49-4.384-2.716-5.173-1.23-.79-4.733.635-5.838-.322-1.102-.958-.19-4.624-1.148-5.73-.956-1.105-4.719-.723-5.509-1.953-.788-1.227 1.119-4.49.513-5.82-.607-1.33-4.324-2.026-4.735-3.428-.412-1.403 2.339-3.995 2.13-5.44-.207-1.446-3.577-3.16-3.577-4.622 0-1.461 3.37-3.177 3.578-4.621.208-1.448-2.543-4.04-2.13-5.443.41-1.401 4.126-2.095 4.734-3.425.605-1.327-1.302-4.592-.513-5.82.79-1.23 4.553-.851 5.51-1.955.957-1.105.045-4.773 1.147-5.73 1.104-.957 4.607.467 5.838-.322 1.23-.79 1.387-4.568 2.716-5.175C23.643 4.269 26.6 6.62 28 6.209c1.402-.41 2.608-4.104 4.064-4.199 1.46-.093 3.625 2.884 5.085 2.884S40.787 1.8 42.233 2.01c1.446.208 2.664 3.787 4.066 4.199 1.4.41 4.357-1.94 5.688-1.335 1.33.607 1.488 4.386 2.716 5.175 1.23.789 4.731-.635 5.836.322 1.104.956.193 4.624 1.15 5.73.957 1.104 4.717.725 5.507 1.955.79 1.228-1.117 4.493-.513 5.82.608 1.33 4.325 2.024 4.736 3.425.41 1.404-2.339 3.996-2.132 5.443.208 1.445 3.578 3.162 3.578 4.621Z"/><path stroke="#39F" stroke-linecap="round" stroke-linejoin="round" stroke-opacity=".3" stroke-width="2.801" d="M15.347 47.864c-.745-1.543.647-3.871.258-5.581-.376-1.657-2.649-3.149-2.649-4.919 0-1.77 2.273-3.262 2.65-4.918.388-1.71-1.004-4.039-.259-5.582.756-1.568 3.452-1.927 4.528-3.274 1.08-1.353.835-4.06 2.189-5.142 1.347-1.075 3.929-.237 5.498-.993 1.544-.745 2.492-3.294 4.202-3.682 1.657-.377 3.614 1.499 5.384 1.499 1.77 0 3.727-1.876 5.384-1.5 1.711.39 2.66 2.938 4.203 3.683 1.569.756 4.15-.082 5.499.994 1.354 1.08 1.107 3.788 2.188 5.14 1.076 1.349 3.771 1.707 4.529 3.275.743 1.543-.649 3.871-.26 5.582.377 1.656 2.65 3.148 2.65 4.918s-2.273 3.262-2.65 4.919c-.389 1.71 1.003 4.038.26 5.58-.758 1.57-3.453 1.928-4.53 3.275"/><path fill="url(#a)" d="M27.775 35.33s2.321 6.637 3.021 9.443c1.78 7.137 6.915 9.028 8.158 11.55.977 1.981 1.96 3.72 3.319 5.998.456.766 1.35 1.158 2.21.923.933-.255 2.126-.634 2.974-1.09.778-.42 1.66-1.116 2.362-1.723.77-.666.865-1.798.296-2.644-1.077-1.601-1.75-2.766-2.285-4.1-1.231-3.07-.587-3.49.228-5.592.815-2.102.79-5.716 1.022-6.947.52-2.75 1.86-4.169.514-4.859-1.082-.554-2.59.898-3.083 2.577-.894 3.05-1.135 6.66-2.066-.353-.36-2.715-1.41-9.851-1.717-12.573-.106-.948-.684-1.614-1.46-1.512-.946.124-1.324.964-1.25 1.916.195 2.48.324 8.93.43 11.105.014.294-.23.55-.338.068-.556-2.472-2.077-10.967-2.605-13.736-.22-1.15-1.218-1.751-2.089-1.253-.582.333-.878 1.037-.772 1.72.396 2.56 2.021 13.674 2.021 13.674.156.792-.247.746-.415.212l-.03-.075s-2.854-8.384-3.438-10.554c-.242-.9-.815-1.688-1.692-1.441-.875.247-1.08 1.175-.866 2.082.613 2.588 2.608 9.953 3.17 12.209.24.966.06 1.03-.24.405-.348-.726-2.634-5.454-3.011-6.32-.357-.819-1.028-1.55-1.86-1.229-.834.322-.83 1.284-.508 2.118Z"/><path fill="url(#b)" d="M47.578 32.178s-3.28 7.982-4.058 10.767h-.002c-1.981 7.087-3.481 7.191-6.073 11.382-.171.298-.349.6-.533.903l-.005.008-.003.006c-1.205 1.979-2.699 4.062-4.495 6.225-.665.801-1.392 1.651-2.17 2.536a1.986 1.986 0 0 1-2.227.553c-1.327-.528-3.373-1.427-4.685-2.415-1.092-.821-2.284-2.162-3.129-3.19-.666-.813-.557-1.984.185-2.727.997-.998 1.841-1.904 2.485-2.68.678-.815 1.335-1.56 1.85-2.334 1.833-2.754.549-7.99.354-10.235-.194-2.246.075-4.644.707-5.726 1.966-3.361-.686-5.275 1.373-5.613 1.718-.283 2.125 3.254 1.822 5.647l.007-.003c-.603 4.745.699 2.77 1.434-.787.555-2.682 1.85-8.007 2.391-10.692.188-.935.82-1.547 1.585-1.38.932.206 1.236 1.076 1.08 2.018-.408 2.454-1.145 6.983-1.467 9.556-.044.349.234.53.37-.04.654-2.768 2.181-8.246 2.826-11.014.26-1.114 1.299-1.675 2.175-1.168.585.34.867 1.033.737 1.697-.483 2.484-1.901 11.092-1.901 11.092-.195.938.254.899.458.268 0 0 1.97-6.51 2.558-8.775.244-.938.844-1.769 1.784-1.532.94.236 1.173 1.195.959 2.14-.612 2.7-1.512 8.148-2.088 10.85-.247 1.159-.181 1.293.17.56.41-.853 2.782-5.996 3.185-6.852.38-.808 1.07-1.52 1.894-1.176.824.345.793 1.306.447 2.13Z"/><path stroke="#39F" stroke-linecap="round" stroke-linejoin="round" stroke-width="2.521" d="M72.865 37.365c0 1.461-3.37 3.175-3.578 4.621-.207 1.446 2.542 4.038 2.132 5.44-.411 1.402-4.128 2.098-4.736 3.429-.607 1.33 1.303 4.593.513 5.82-.79 1.23-4.55.848-5.507 1.953-.958 1.106-.046 4.772-1.15 5.73-1.105.958-4.606-.467-5.836.322-1.228.79-1.387 4.568-2.716 5.173-1.33.61-4.289-1.746-5.688-1.336-1.402.413-2.62 3.993-4.066 4.2-1.446.208-3.624-2.883-5.083-2.883-1.46 0-3.625 2.977-5.084 2.883-1.457-.094-2.663-3.787-4.065-4.2-1.401-.41-4.36 1.945-5.688 1.336-1.33-.605-1.49-4.384-2.716-5.173-1.23-.79-4.733.635-5.838-.322-1.102-.958-.19-4.624-1.148-5.73-.956-1.105-4.719-.723-5.509-1.953-.788-1.227 1.119-4.49.513-5.82-.607-1.33-4.324-2.026-4.735-3.428-.412-1.403 2.339-3.995 2.13-5.44-.207-1.446-3.577-3.16-3.577-4.622 0-1.461 3.37-3.177 3.578-4.621.208-1.448-2.543-4.04-2.13-5.443.41-1.401 4.126-2.095 4.734-3.425.605-1.327-1.302-4.592-.513-5.82.79-1.23 4.553-.851 5.51-1.955.957-1.105.045-4.773 1.147-5.73 1.104-.957 4.607.467 5.838-.322 1.23-.79 1.387-4.568 2.716-5.175C23.643 4.269 26.6 6.62 28 6.209c1.402-.41 2.608-4.104 4.064-4.199 1.46-.093 3.625 2.884 5.085 2.884S40.787 1.8 42.233 2.01c1.446.208 2.664 3.787 4.066 4.199 1.4.41 4.357-1.94 5.688-1.335 1.33.607 1.488 4.386 2.716 5.175 1.23.789 4.731-.635 5.836.322 1.104.956.193 4.624 1.15 5.73.957 1.104 4.717.725 5.507 1.955.79 1.228-1.117 4.493-.513 5.82.608 1.33 4.325 2.024 4.736 3.425.41 1.404-2.339 3.996-2.132 5.443.208 1.445 3.578 3.162 3.578 4.621Z"/><defs><linearGradient id="a" x1="27.574" x2="52.981" y1="31.762" y2="33.726" gradientUnits="userSpaceOnUse"><stop stop-color="#005BB8"/><stop offset="1" stop-color="#0072E6"/></linearGradient><linearGradient id="b" x1="49.932" x2="14.728" y1="31.227" y2="35.937" gradientUnits="userSpaceOnUse"><stop stop-color="#007FFF"/><stop offset="1" stop-color="#39F"/></linearGradient></defs></svg>
