<svg xmlns="http://www.w3.org/2000/svg" width="75" height="92" fill="none"><path stroke="#8DCEFF" stroke-linecap="round" stroke-linejoin="round" stroke-width="2.521" d="m38.916 71.682-4.175 11.42c-.599 1.638-2.818 1.876-3.75.401l-2.744-4.343a2.1 2.1 0 0 0-2.41-.88l-4.873 1.542c-1.668.528-3.212-1.094-2.604-2.734l3.171-8.553M38.703 70.426l3.008 13.356c.383 1.702 2.553 2.222 3.667.88l3.28-3.955a2.101 2.101 0 0 1 2.505-.564l4.65 2.165c1.582.737 3.32-.665 2.936-2.367l-3.13-13.875"/><path fill="#E7F2FE" fill-opacity=".5" d="M73.433 37.365c0 1.461-3.37 3.175-3.578 4.621-.207 1.446 2.542 4.038 2.131 5.44-.41 1.402-4.127 2.098-4.736 3.429-.607 1.33 1.303 4.593.513 5.82-.79 1.23-4.55.848-5.507 1.953-.958 1.106-.046 4.772-1.15 5.73-1.104.958-4.605-.467-5.836.322-1.228.79-1.386 4.568-2.715 5.173-1.331.61-4.29-1.746-5.689-1.336-1.402.413-2.62 3.993-4.065 4.2-1.447.208-3.625-2.883-5.084-2.883-1.459 0-3.625 2.977-5.084 2.883-1.456-.094-2.662-3.787-4.065-4.2-1.4-.41-4.36 1.945-5.688 1.336-1.33-.605-1.49-4.384-2.716-5.173-1.23-.79-4.732.635-5.837-.322-1.102-.958-.191-4.624-1.149-5.73-.956-1.105-4.718-.723-5.508-1.953-.788-1.227 1.118-4.49.512-5.82-.607-1.33-4.324-2.026-4.734-3.428-.412-1.403 2.338-3.995 2.13-5.44C5.37 40.54 2 38.826 2 37.364c0-1.461 3.37-3.177 3.578-4.621.208-1.448-2.542-4.04-2.13-5.443.41-1.401 4.126-2.095 4.734-3.425.605-1.327-1.301-4.592-.512-5.82.79-1.23 4.553-.851 5.508-1.955.959-1.105.047-4.773 1.149-5.73 1.104-.957 4.606.467 5.837-.322 1.23-.79 1.387-4.568 2.716-5.175 1.33-.605 4.287 1.746 5.689 1.335 1.402-.41 2.608-4.104 4.064-4.199 1.46-.093 3.624 2.884 5.084 2.884 1.46 0 3.637-3.093 5.084-2.884 1.445.208 2.663 3.787 4.065 4.199 1.4.41 4.358-1.94 5.689-1.335 1.329.607 1.487 4.386 2.715 5.175 1.23.789 4.732-.635 5.836.322 1.104.956.193 4.624 1.15 5.73.957 1.104 4.717.725 5.507 1.955.79 1.228-1.117 4.493-.513 5.82.609 1.33 4.325 2.024 4.736 3.425.41 1.404-2.338 3.996-2.131 5.443.208 1.445 3.578 3.162 3.578 4.621Z"/><path stroke="#C2E0FF" stroke-linecap="round" stroke-linejoin="round" stroke-opacity=".5" stroke-width="2.801" d="M15.914 47.864c-.744-1.543.647-3.871.259-5.581-.376-1.657-2.65-3.149-2.65-4.919 0-1.77 2.274-3.262 2.65-4.918.389-1.71-1.003-4.039-.259-5.582.757-1.568 3.452-1.927 4.528-3.274 1.081-1.353.835-4.06 2.19-5.142 1.346-1.075 3.928-.237 5.498-.993 1.543-.745 2.492-3.294 4.202-3.682 1.656-.377 3.614 1.499 5.384 1.499 1.77 0 3.727-1.876 5.383-1.5 1.712.39 2.66 2.938 4.204 3.683 1.568.756 4.15-.082 5.498.994 1.354 1.08 1.107 3.788 2.188 5.14 1.076 1.349 3.772 1.707 4.529 3.275.744 1.543-.648 3.871-.26 5.582.378 1.656 2.65 3.148 2.65 4.918s-2.272 3.262-2.65 4.919c-.388 1.71 1.004 4.038.26 5.58-.758 1.57-3.453 1.928-4.529 3.275"/><path fill="url(#a)" d="M28.342 35.33s2.322 6.637 3.021 9.443c1.78 7.137 6.915 9.028 8.159 11.55.977 1.981 1.96 3.72 3.318 5.998.456.766 1.35 1.158 2.21.923.933-.255 2.126-.634 2.974-1.09.778-.42 1.66-1.116 2.362-1.723.771-.666.865-1.798.296-2.644-1.076-1.601-1.75-2.766-2.285-4.1-1.23-3.07-.587-3.49.228-5.592.816-2.102.79-5.716 1.023-6.947.518-2.75 1.859-4.169.513-4.859-1.082-.554-2.59.898-3.083 2.577-.894 3.05-1.135 6.66-2.065-.353-.36-2.715-1.411-9.851-1.718-12.573-.106-.948-.684-1.614-1.46-1.512-.946.124-1.324.964-1.25 1.916.195 2.48.324 8.93.43 11.105.014.294-.23.55-.338.068-.556-2.472-2.077-10.967-2.605-13.736-.22-1.15-1.218-1.751-2.088-1.253-.582.333-.879 1.037-.773 1.72.397 2.56 2.022 13.674 2.022 13.674.155.792-.247.746-.415.212l-.03-.075s-2.855-8.384-3.44-10.554c-.24-.9-.813-1.688-1.69-1.441-.876.247-1.08 1.175-.866 2.082.612 2.588 2.607 9.953 3.17 12.209.24.966.06 1.03-.24.405-.349-.726-2.635-5.454-3.012-6.32-.356-.819-1.027-1.55-1.86-1.229-.834.322-.83 1.284-.508 2.118Z"/><path fill="url(#b)" d="M48.146 32.178s-3.28 7.982-4.058 10.767h-.002c-1.982 7.087-3.482 7.191-6.073 11.382-.172.298-.35.6-.534.903l-.004.008-.003.006c-1.205 1.979-2.7 4.062-4.495 6.225-.666.801-1.393 1.651-2.17 2.536a1.986 1.986 0 0 1-2.227.553c-1.328-.528-3.373-1.427-4.686-2.415-1.091-.821-2.284-2.162-3.128-3.19-.666-.813-.558-1.984.184-2.727.998-.998 1.842-1.904 2.486-2.68.677-.815 1.335-1.56 1.85-2.334 1.833-2.754.548-7.99.354-10.235-.195-2.246.074-4.644.707-5.726 1.965-3.361-.686-5.275 1.373-5.613 1.717-.283 2.125 3.254 1.821 5.647l.008-.003c-.603 4.745.698 2.77 1.434-.787.554-2.682 1.85-8.007 2.39-10.692.189-.935.821-1.547 1.586-1.38.932.206 1.235 1.076 1.079 2.018-.408 2.454-1.144 6.983-1.467 9.556-.044.349.234.53.37-.04.654-2.768 2.182-8.246 2.827-11.014.26-1.114 1.298-1.675 2.174-1.168.586.34.867 1.033.738 1.697-.483 2.484-1.902 11.092-1.902 11.092-.195.938.255.899.458.268 0 0 1.97-6.51 2.558-8.775.244-.938.844-1.769 1.784-1.532.94.236 1.174 1.195.96 2.14-.613 2.7-1.512 8.148-2.09 10.85-.246 1.159-.18 1.293.172.56.41-.853 2.782-5.996 3.184-6.852.38-.808 1.07-1.52 1.894-1.176.824.345.793 1.306.448 2.13Z"/><path stroke="#8DCEFF" stroke-linecap="round" stroke-linejoin="round" stroke-width="2.521" d="M73.433 37.365c0 1.461-3.37 3.175-3.578 4.621-.207 1.446 2.542 4.038 2.131 5.44-.41 1.402-4.127 2.098-4.736 3.429-.607 1.33 1.303 4.593.513 5.82-.79 1.23-4.55.848-5.507 1.953-.958 1.106-.046 4.772-1.15 5.73-1.104.958-4.605-.467-5.836.322-1.228.79-1.386 4.568-2.715 5.173-1.331.61-4.29-1.746-5.689-1.336-1.402.413-2.62 3.993-4.065 4.2-1.447.208-3.625-2.883-5.084-2.883-1.459 0-3.625 2.977-5.084 2.883-1.456-.094-2.662-3.787-4.065-4.2-1.4-.41-4.36 1.945-5.688 1.336-1.33-.605-1.49-4.384-2.716-5.173-1.23-.79-4.732.635-5.837-.322-1.102-.958-.191-4.624-1.149-5.73-.956-1.105-4.718-.723-5.508-1.953-.788-1.227 1.118-4.49.512-5.82-.607-1.33-4.324-2.026-4.734-3.428-.412-1.403 2.338-3.995 2.13-5.44C5.37 40.54 2 38.826 2 37.364c0-1.461 3.37-3.177 3.578-4.621.208-1.448-2.542-4.04-2.13-5.443.41-1.401 4.126-2.095 4.734-3.425.605-1.327-1.301-4.592-.512-5.82.79-1.23 4.553-.851 5.508-1.955.959-1.105.047-4.773 1.149-5.73 1.104-.957 4.606.467 5.837-.322 1.23-.79 1.387-4.568 2.716-5.175 1.33-.605 4.287 1.746 5.689 1.335 1.402-.41 2.608-4.104 4.064-4.199 1.46-.093 3.624 2.884 5.084 2.884 1.46 0 3.637-3.093 5.084-2.884 1.445.208 2.663 3.787 4.065 4.199 1.4.41 4.358-1.94 5.689-1.335 1.329.607 1.487 4.386 2.715 5.175 1.23.789 4.732-.635 5.836.322 1.104.956.193 4.624 1.15 5.73.957 1.104 4.717.725 5.507 1.955.79 1.228-1.117 4.493-.513 5.82.609 1.33 4.325 2.024 4.736 3.425.41 1.404-2.338 3.996-2.131 5.443.208 1.445 3.578 3.162 3.578 4.621Z"/><defs><linearGradient id="a" x1="28.142" x2="53.548" y1="31.762" y2="33.726" gradientUnits="userSpaceOnUse"><stop stop-color="#004C99"/><stop offset="1" stop-color="#0072E6"/></linearGradient><linearGradient id="b" x1="50.499" x2="15.296" y1="31.227" y2="35.937" gradientUnits="userSpaceOnUse"><stop stop-color="#007FFF"/><stop offset="1" stop-color="#39F"/></linearGradient></defs></svg>
