<svg xmlns="http://www.w3.org/2000/svg" xmlns:xlink="http://www.w3.org/1999/xlink" width="24" height="1248" viewBox="0 0 24 1248"><svg width="24" height="24" viewBox="0 0 24 24" id="ic_attach_file_24px" y="0"><path d="M16.5 6v11.5c0 2.21-1.79 4-4 4s-4-1.79-4-4V5c0-1.38 1.12-2.5 2.5-2.5s2.5 1.12 2.5 2.5v10.5c0 .55-.45 1-1 1s-1-.45-1-1V6H10v9.5c0 1.38 1.12 2.5 2.5 2.5s2.5-1.12 2.5-2.5V5c0-2.21-1.79-4-4-4S7 2.79 7 5v12.5c0 3.04 2.46 5.5 5.5 5.5s5.5-2.46 5.5-5.5V6h-1.5z"/><path d="M0 0h24v24H0z" fill="none"/></svg><svg width="24" height="24" viewBox="0 0 24 24" id="ic_attach_money_24px" y="24"><path d="M11.8 10.9c-2.27-.59-3-1.2-3-2.15 0-1.09 1.01-1.85 2.7-1.85 1.78 0 2.44.85 2.5 2.1h2.21c-.07-1.72-1.12-3.3-3.21-3.81V3h-3v2.16c-1.94.42-3.5 1.68-3.5 3.61 0 2.31 1.91 3.46 4.7 4.13 2.5.6 3 1.48 3 2.41 0 .69-.49 1.79-2.7 1.79-2.06 0-2.87-.92-2.98-2.1h-2.2c.12 2.19 1.76 3.42 3.68 3.83V21h3v-2.15c1.95-.37 3.5-1.5 3.5-3.55 0-2.84-2.43-3.81-4.7-4.4z"/><path d="M0 0h24v24H0z" fill="none"/></svg><svg width="24" height="24" viewBox="0 0 24 24" id="ic_border_all_24px" y="48"><path d="M3 3v18h18V3H3zm8 16H5v-6h6v6zm0-8H5V5h6v6zm8 8h-6v-6h6v6zm0-8h-6V5h6v6z"/><path d="M0 0h24v24H0z" fill="none"/></svg><svg width="24" height="24" viewBox="0 0 24 24" id="ic_border_bottom_24px" y="72"><path d="M9 11H7v2h2v-2zm4 4h-2v2h2v-2zM9 3H7v2h2V3zm4 8h-2v2h2v-2zM5 3H3v2h2V3zm8 4h-2v2h2V7zm4 4h-2v2h2v-2zm-4-8h-2v2h2V3zm4 0h-2v2h2V3zm2 10h2v-2h-2v2zm0 4h2v-2h-2v2zM5 7H3v2h2V7zm14-4v2h2V3h-2zm0 6h2V7h-2v2zM5 11H3v2h2v-2zM3 21h18v-2H3v2zm2-6H3v2h2v-2z"/><path d="M0 0h24v24H0z" fill="none"/></svg><svg width="24" height="24" viewBox="0 0 24 24" id="ic_border_clear_24px" y="96"><path d="M7 5h2V3H7v2zm0 8h2v-2H7v2zm0 8h2v-2H7v2zm4-4h2v-2h-2v2zm0 4h2v-2h-2v2zm-8 0h2v-2H3v2zm0-4h2v-2H3v2zm0-4h2v-2H3v2zm0-4h2V7H3v2zm0-4h2V3H3v2zm8 8h2v-2h-2v2zm8 4h2v-2h-2v2zm0-4h2v-2h-2v2zm0 8h2v-2h-2v2zm0-12h2V7h-2v2zm-8 0h2V7h-2v2zm8-6v2h2V3h-2zm-8 2h2V3h-2v2zm4 16h2v-2h-2v2zm0-8h2v-2h-2v2zm0-8h2V3h-2v2z"/><path d="M0 0h24v24H0z" fill="none"/></svg><svg width="24" height="24" viewBox="0 0 24 24" id="ic_border_color_24px" y="120"><path d="M17.75 7L14 3.25l-10 10V17h3.75l10-10zm2.96-2.96c.39-.39.39-1.02 0-1.41L18.37.29c-.39-.39-1.02-.39-1.41 0L15 2.25 18.75 6l1.96-1.96z"/><path d="M0 0h24v24H0z" fill="none"/><path fill-opacity=".36" d="M0 20h24v4H0z"/></svg><svg width="24" height="24" viewBox="0 0 24 24" id="ic_border_horizontal_24px" y="144"><path d="M3 21h2v-2H3v2zM5 7H3v2h2V7zM3 17h2v-2H3v2zm4 4h2v-2H7v2zM5 3H3v2h2V3zm4 0H7v2h2V3zm8 0h-2v2h2V3zm-4 4h-2v2h2V7zm0-4h-2v2h2V3zm6 14h2v-2h-2v2zm-8 4h2v-2h-2v2zm-8-8h18v-2H3v2zM19 3v2h2V3h-2zm0 6h2V7h-2v2zm-8 8h2v-2h-2v2zm4 4h2v-2h-2v2zm4 0h2v-2h-2v2z"/><path d="M0 0h24v24H0z" fill="none"/></svg><svg width="24" height="24" viewBox="0 0 24 24" id="ic_border_inner_24px" y="168"><path d="M3 21h2v-2H3v2zm4 0h2v-2H7v2zM5 7H3v2h2V7zM3 17h2v-2H3v2zM9 3H7v2h2V3zM5 3H3v2h2V3zm12 0h-2v2h2V3zm2 6h2V7h-2v2zm0-6v2h2V3h-2zm-4 18h2v-2h-2v2zM13 3h-2v8H3v2h8v8h2v-8h8v-2h-8V3zm6 18h2v-2h-2v2zm0-4h2v-2h-2v2z"/><path d="M0 0h24v24H0z" fill="none"/></svg><svg width="24" height="24" viewBox="0 0 24 24" id="ic_border_left_24px" y="192"><path d="M11 21h2v-2h-2v2zm0-4h2v-2h-2v2zm0-12h2V3h-2v2zm0 4h2V7h-2v2zm0 4h2v-2h-2v2zm-4 8h2v-2H7v2zM7 5h2V3H7v2zm0 8h2v-2H7v2zm-4 8h2V3H3v18zM19 9h2V7h-2v2zm-4 12h2v-2h-2v2zm4-4h2v-2h-2v2zm0-14v2h2V3h-2zm0 10h2v-2h-2v2zm0 8h2v-2h-2v2zm-4-8h2v-2h-2v2zm0-8h2V3h-2v2z"/><path d="M0 0h24v24H0z" fill="none"/></svg><svg width="24" height="24" viewBox="0 0 24 24" id="ic_border_outer_24px" y="216"><path d="M13 7h-2v2h2V7zm0 4h-2v2h2v-2zm4 0h-2v2h2v-2zM3 3v18h18V3H3zm16 16H5V5h14v14zm-6-4h-2v2h2v-2zm-4-4H7v2h2v-2z"/><path d="M0 0h24v24H0z" fill="none"/></svg><svg width="24" height="24" viewBox="0 0 24 24" id="ic_border_right_24px" y="240"><path d="M7 21h2v-2H7v2zM3 5h2V3H3v2zm4 0h2V3H7v2zm0 8h2v-2H7v2zm-4 8h2v-2H3v2zm8 0h2v-2h-2v2zm-8-8h2v-2H3v2zm0 4h2v-2H3v2zm0-8h2V7H3v2zm8 8h2v-2h-2v2zm4-4h2v-2h-2v2zm4-10v18h2V3h-2zm-4 18h2v-2h-2v2zm0-16h2V3h-2v2zm-4 8h2v-2h-2v2zm0-8h2V3h-2v2zm0 4h2V7h-2v2z"/><path d="M0 0h24v24H0z" fill="none"/></svg><svg width="24" height="24" viewBox="0 0 24 24" id="ic_border_style_24px" y="264"><path d="M15 21h2v-2h-2v2zm4 0h2v-2h-2v2zM7 21h2v-2H7v2zm4 0h2v-2h-2v2zm8-4h2v-2h-2v2zm0-4h2v-2h-2v2zM3 3v18h2V5h16V3H3zm16 6h2V7h-2v2z"/><path d="M0 0h24v24H0z" fill="none"/></svg><svg width="24" height="24" viewBox="0 0 24 24" id="ic_border_top_24px" y="288"><path d="M7 21h2v-2H7v2zm0-8h2v-2H7v2zm4 0h2v-2h-2v2zm0 8h2v-2h-2v2zm-8-4h2v-2H3v2zm0 4h2v-2H3v2zm0-8h2v-2H3v2zm0-4h2V7H3v2zm8 8h2v-2h-2v2zm8-8h2V7h-2v2zm0 4h2v-2h-2v2zM3 3v2h18V3H3zm16 14h2v-2h-2v2zm-4 4h2v-2h-2v2zM11 9h2V7h-2v2zm8 12h2v-2h-2v2zm-4-8h2v-2h-2v2z"/><path d="M0 0h24v24H0z" fill="none"/></svg><svg width="24" height="24" viewBox="0 0 24 24" id="ic_border_vertical_24px" y="312"><path d="M3 9h2V7H3v2zm0-4h2V3H3v2zm4 16h2v-2H7v2zm0-8h2v-2H7v2zm-4 0h2v-2H3v2zm0 8h2v-2H3v2zm0-4h2v-2H3v2zM7 5h2V3H7v2zm12 12h2v-2h-2v2zm-8 4h2V3h-2v18zm8 0h2v-2h-2v2zm0-8h2v-2h-2v2zm0-10v2h2V3h-2zm0 6h2V7h-2v2zm-4-4h2V3h-2v2zm0 16h2v-2h-2v2zm0-8h2v-2h-2v2z"/><path d="M0 0h24v24H0z" fill="none"/></svg><svg width="24" height="24" viewBox="0 0 24 24" id="ic_format_align_center_24px" y="336"><path d="M7 15v2h10v-2H7zm-4 6h18v-2H3v2zm0-8h18v-2H3v2zm4-6v2h10V7H7zM3 3v2h18V3H3z"/><path d="M0 0h24v24H0z" fill="none"/></svg><svg width="24" height="24" viewBox="0 0 24 24" id="ic_format_align_justify_24px" y="360"><path d="M3 21h18v-2H3v2zm0-4h18v-2H3v2zm0-4h18v-2H3v2zm0-4h18V7H3v2zm0-6v2h18V3H3z"/><path d="M0 0h24v24H0z" fill="none"/></svg><svg width="24" height="24" viewBox="0 0 24 24" id="ic_format_align_left_24px" y="384"><path d="M15 15H3v2h12v-2zm0-8H3v2h12V7zM3 13h18v-2H3v2zm0 8h18v-2H3v2zM3 3v2h18V3H3z"/><path d="M0 0h24v24H0z" fill="none"/></svg><svg width="24" height="24" viewBox="0 0 24 24" id="ic_format_align_right_24px" y="408"><path d="M3 21h18v-2H3v2zm6-4h12v-2H9v2zm-6-4h18v-2H3v2zm6-4h12V7H9v2zM3 3v2h18V3H3z"/><path d="M0 0h24v24H0z" fill="none"/></svg><svg width="24" height="24" viewBox="0 0 24 24" id="ic_format_bold_24px" y="432"><path d="M15.6 10.79c.97-.67 1.65-1.77 1.65-2.79 0-2.26-1.75-4-4-4H7v14h7.04c2.09 0 3.71-1.7 3.71-3.79 0-1.52-.86-2.82-2.15-3.42zM10 6.5h3c.83 0 1.5.67 1.5 1.5s-.67 1.5-1.5 1.5h-3v-3zm3.5 9H10v-3h3.5c.83 0 1.5.67 1.5 1.5s-.67 1.5-1.5 1.5z"/><path d="M0 0h24v24H0z" fill="none"/></svg><svg width="24" height="24" viewBox="0 0 24 24" id="ic_format_clear_24px" y="456"><path d="M0 0h24v24H0z" fill="none"/><path d="M3.27 5L2 6.27l6.97 6.97L6.5 19h3l1.57-3.66L16.73 21 18 19.73 3.55 5.27 3.27 5zM6 5v.18L8.82 8h2.4l-.72 1.68 2.1 2.1L14.21 8H20V5H6z"/></svg><svg width="24" height="24" viewBox="0 0 24 24" id="ic_format_color_fill_24px" y="480"><path d="M0 0h24v24H0z" fill="none"/><path d="M16.56 8.94L7.62 0 6.21 1.41l2.38 2.38-5.15 5.15c-.59.59-.59 1.54 0 2.12l5.5 5.5c.29.29.68.44 1.06.44s.77-.15 1.06-.44l5.5-5.5c.59-.58.59-1.53 0-2.12zM5.21 10L10 5.21 14.79 10H5.21zM19 11.5s-2 2.17-2 3.5c0 1.1.9 2 2 2s2-.9 2-2c0-1.33-2-3.5-2-3.5z"/><path fill-opacity=".36" d="M0 20h24v4H0z"/></svg><svg width="24" height="24" viewBox="0 0 24 24" id="ic_format_color_reset_24px" y="504"><path d="M0 0h24v24H0zm0 0h24v24H0zm0 0h24v24H0z" fill="none"/><path d="M18 14c0-4-6-10.8-6-10.8s-1.33 1.51-2.73 3.52l8.59 8.59c.09-.42.14-.86.14-1.31zm-.88 3.12L12.5 12.5 5.27 5.27 4 6.55l3.32 3.32C6.55 11.32 6 12.79 6 14c0 3.31 2.69 6 6 6 1.52 0 2.9-.57 3.96-1.5l2.63 2.63 1.27-1.27-2.74-2.74z"/></svg><svg width="24" height="24" viewBox="0 0 24 24" id="ic_format_color_text_24px" y="528"><path d="M0 0h24v24H0z" fill="none"/><path fill-opacity=".36" d="M0 20h24v4H0z"/><path d="M11 3L5.5 17h2.25l1.12-3h6.25l1.12 3h2.25L13 3h-2zm-1.38 9L12 5.67 14.38 12H9.62z"/></svg><svg width="24" height="24" viewBox="0 0 24 24" id="ic_format_indent_decrease_24px" y="552"><path d="M11 17h10v-2H11v2zm-8-5l4 4V8l-4 4zm0 9h18v-2H3v2zM3 3v2h18V3H3zm8 6h10V7H11v2zm0 4h10v-2H11v2z"/><path d="M0 0h24v24H0z" fill="none"/></svg><svg width="24" height="24" viewBox="0 0 24 24" id="ic_format_indent_increase_24px" y="576"><path d="M3 21h18v-2H3v2zM3 8v8l4-4-4-4zm8 9h10v-2H11v2zM3 3v2h18V3H3zm8 6h10V7H11v2zm0 4h10v-2H11v2z"/><path d="M0 0h24v24H0z" fill="none"/></svg><svg width="24" height="24" viewBox="0 0 24 24" id="ic_format_italic_24px" y="600"><path d="M0 0h24v24H0z" fill="none"/><path d="M10 4v3h2.21l-3.42 8H6v3h8v-3h-2.21l3.42-8H18V4z"/></svg><svg width="24" height="24" viewBox="0 0 24 24" id="ic_format_line_spacing_24px" y="624"><path d="M6 7h2.5L5 3.5 1.5 7H4v10H1.5L5 20.5 8.5 17H6V7zm4-2v2h12V5H10zm0 14h12v-2H10v2zm0-6h12v-2H10v2z"/><path d="M0 0h24v24H0z" fill="none"/></svg><svg width="24" height="24" viewBox="0 0 24 24" id="ic_format_list_bulleted_24px" y="648"><path d="M4 10.5c-.83 0-1.5.67-1.5 1.5s.67 1.5 1.5 1.5 1.5-.67 1.5-1.5-.67-1.5-1.5-1.5zm0-6c-.83 0-1.5.67-1.5 1.5S3.17 7.5 4 7.5 5.5 6.83 5.5 6 4.83 4.5 4 4.5zm0 12.17c-.74 0-1.33.6-1.33 1.33s.6 1.33 1.33 1.33 1.33-.6 1.33-1.33-.59-1.33-1.33-1.33zM7 19h14v-2H7v2zm0-6h14v-2H7v2zm0-8v2h14V5H7z"/><path d="M0 0h24v24H0z" fill="none"/></svg><svg width="24" height="24" viewBox="0 0 24 24" id="ic_format_list_numbered_24px" y="672"><path d="M2 17h2v.5H3v1h1v.5H2v1h3v-4H2v1zm1-9h1V4H2v1h1v3zm-1 3h1.8L2 13.1v.9h3v-1H3.2L5 10.9V10H2v1zm5-6v2h14V5H7zm0 14h14v-2H7v2zm0-6h14v-2H7v2z"/><path d="M0 0h24v24H0z" fill="none"/></svg><svg width="24" height="24" viewBox="0 0 24 24" id="ic_format_paint_24px" y="696"><path d="M18 4V3c0-.55-.45-1-1-1H5c-.55 0-1 .45-1 1v4c0 .55.45 1 1 1h12c.55 0 1-.45 1-1V6h1v4H9v11c0 .55.45 1 1 1h2c.55 0 1-.45 1-1v-9h8V4h-3z"/><path d="M0 0h24v24H0z" fill="none"/></svg><svg width="24" height="24" viewBox="0 0 24 24" id="ic_format_quote_24px" y="720"><path d="M6 17h3l2-4V7H5v6h3zm8 0h3l2-4V7h-6v6h3z"/><path d="M0 0h24v24H0z" fill="none"/></svg><svg width="24" height="24" viewBox="0 0 24 24" id="ic_format_size_24px" y="744"><path d="M0 0h24v24H0z" fill="none"/><path d="M9 4v3h5v12h3V7h5V4H9zm-6 8h3v7h3v-7h3V9H3v3z"/></svg><svg width="24" height="24" viewBox="0 0 24 24" id="ic_format_strikethrough_24px" y="768"><path d="M0 0h24v24H0z" fill="none"/><path d="M10 19h4v-3h-4v3zM5 4v3h5v3h4V7h5V4H5zM3 14h18v-2H3v2z"/></svg><svg width="24" height="24" viewBox="0 0 24 24" id="ic_format_textdirection_l_to_r_24px" y="792"><path d="M9 10v5h2V4h2v11h2V4h2V2H9C6.79 2 5 3.79 5 6s1.79 4 4 4zm12 8l-4-4v3H5v2h12v3l4-4z"/><path d="M0 0h24v24H0z" fill="none"/></svg><svg width="24" height="24" viewBox="0 0 24 24" id="ic_format_textdirection_r_to_l_24px" y="816"><path d="M10 10v5h2V4h2v11h2V4h2V2h-8C7.79 2 6 3.79 6 6s1.79 4 4 4zm-2 7v-3l-4 4 4 4v-3h12v-2H8z"/><path d="M0 0h24v24H0z" fill="none"/></svg><svg width="24" height="24" viewBox="0 0 24 24" id="ic_format_underline_24px" y="840"><path d="M0 0h24v24H0z" fill="none"/><path d="M12 17c3.31 0 6-2.69 6-6V3h-2.5v8c0 1.93-1.57 3.5-3.5 3.5S8.5 12.93 8.5 11V3H6v8c0 3.31 2.69 6 6 6zm-7 2v2h14v-2H5z"/></svg><svg width="24" height="24" viewBox="0 0 24 24" id="ic_functions_24px" y="864"><path d="M0 0h24v24H0z" fill="none"/><path d="M18 4H6v2l6.5 6L6 18v2h12v-3h-7l5-5-5-5h7z"/></svg><svg width="24" height="24" viewBox="0 0 24 24" id="ic_insert_chart_24px" y="888"><path d="M19 3H5c-1.1 0-2 .9-2 2v14c0 1.1.9 2 2 2h14c1.1 0 2-.9 2-2V5c0-1.1-.9-2-2-2zM9 17H7v-7h2v7zm4 0h-2V7h2v10zm4 0h-2v-4h2v4z"/><path d="M0 0h24v24H0z" fill="none"/></svg><svg width="24" height="24" viewBox="0 0 24 24" id="ic_insert_comment_24px" y="912"><path d="M20 2H4c-1.1 0-2 .9-2 2v12c0 1.1.9 2 2 2h14l4 4V4c0-1.1-.9-2-2-2zm-2 12H6v-2h12v2zm0-3H6V9h12v2zm0-3H6V6h12v2z"/><path d="M0 0h24v24H0z" fill="none"/></svg><svg width="24" height="24" viewBox="0 0 24 24" id="ic_insert_drive_file_24px" y="936"><path d="M6 2c-1.1 0-1.99.9-1.99 2L4 20c0 1.1.89 2 1.99 2H18c1.1 0 2-.9 2-2V8l-6-6H6zm7 7V3.5L18.5 9H13z"/><path d="M0 0h24v24H0z" fill="none"/></svg><svg width="24" height="24" viewBox="0 0 24 24" id="ic_insert_emoticon_24px" y="960"><path d="M0 0h24v24H0z" fill="none"/><path d="M11.99 2C6.47 2 2 6.48 2 12s4.47 10 9.99 10C17.52 22 22 17.52 22 12S17.52 2 11.99 2zM12 20c-4.42 0-8-3.58-8-8s3.58-8 8-8 8 3.58 8 8-3.58 8-8 8zm3.5-9c.83 0 1.5-.67 1.5-1.5S16.33 8 15.5 8 14 8.67 14 9.5s.67 1.5 1.5 1.5zm-7 0c.83 0 1.5-.67 1.5-1.5S9.33 8 8.5 8 7 8.67 7 9.5 7.67 11 8.5 11zm3.5 6.5c2.33 0 4.31-1.46 5.11-3.5H6.89c.8 2.04 2.78 3.5 5.11 3.5z"/></svg><svg width="24" height="24" viewBox="0 0 24 24" id="ic_insert_invitation_24px" y="984"><path d="M17 12h-5v5h5v-5zM16 1v2H8V1H6v2H5c-1.11 0-1.99.9-1.99 2L3 19c0 1.1.89 2 2 2h14c1.1 0 2-.9 2-2V5c0-1.1-.9-2-2-2h-1V1h-2zm3 18H5V8h14v11z"/><path d="M0 0h24v24H0z" fill="none"/></svg><svg width="24" height="24" viewBox="0 0 24 24" id="ic_insert_link_24px" y="1008"><path d="M0 0h24v24H0z" fill="none"/><path d="M3.9 12c0-1.71 1.39-3.1 3.1-3.1h4V7H7c-2.76 0-5 2.24-5 5s2.24 5 5 5h4v-1.9H7c-1.71 0-3.1-1.39-3.1-3.1zM8 13h8v-2H8v2zm9-6h-4v1.9h4c1.71 0 3.1 1.39 3.1 3.1s-1.39 3.1-3.1 3.1h-4V17h4c2.76 0 5-2.24 5-5s-2.24-5-5-5z"/></svg><svg width="24" height="24" viewBox="0 0 24 24" id="ic_insert_photo_24px" y="1032"><path d="M21 19V5c0-1.1-.9-2-2-2H5c-1.1 0-2 .9-2 2v14c0 1.1.9 2 2 2h14c1.1 0 2-.9 2-2zM8.5 13.5l2.5 3.01L14.5 12l4.5 6H5l3.5-4.5z"/><path d="M0 0h24v24H0z" fill="none"/></svg><svg width="24" height="24" viewBox="0 0 24 24" id="ic_merge_type_24px" y="1056"><path d="M0 0h24v24H0z" fill="none"/><path d="M17 20.41L18.41 19 15 15.59 13.59 17 17 20.41zM7.5 8H11v5.59L5.59 19 7 20.41l6-6V8h3.5L12 3.5 7.5 8z"/></svg><svg width="24" height="24" viewBox="0 0 24 24" id="ic_mode_comment_24px" y="1080"><path d="M21.99 4c0-1.1-.89-2-1.99-2H4c-1.1 0-2 .9-2 2v12c0 1.1.9 2 2 2h14l4 4-.01-18z"/><path d="M0 0h24v24H0z" fill="none"/></svg><svg width="24" height="24" viewBox="0 0 24 24" id="ic_mode_edit_24px" y="1104"><path d="M3 17.25V21h3.75L17.81 9.94l-3.75-3.75L3 17.25zM20.71 7.04c.39-.39.39-1.02 0-1.41l-2.34-2.34c-.39-.39-1.02-.39-1.41 0l-1.83 1.83 3.75 3.75 1.83-1.83z"/><path d="M0 0h24v24H0z" fill="none"/></svg><svg width="24" height="24" viewBox="0 0 24 24" id="ic_publish_24px" y="1128"><path d="M0 0h24v24H0z" fill="none"/><path d="M5 4v2h14V4H5zm0 10h4v6h6v-6h4l-7-7-7 7z"/></svg><svg width="24" height="24" viewBox="0 0 24 24" id="ic_vertical_align_bottom_24px" y="1152"><path d="M16 13h-3V3h-2v10H8l4 4 4-4zM4 19v2h16v-2H4z"/><path d="M0 0h24v24H0z" fill="none"/></svg><svg width="24" height="24" viewBox="0 0 24 24" id="ic_vertical_align_center_24px" y="1176"><path d="M8 19h3v4h2v-4h3l-4-4-4 4zm8-14h-3V1h-2v4H8l4 4 4-4zM4 11v2h16v-2H4z"/><path d="M0 0h24v24H0z" fill="none"/></svg><svg width="24" height="24" viewBox="0 0 24 24" id="ic_vertical_align_top_24px" y="1200"><path d="M8 11h3v10h2V11h3l-4-4-4 4zM4 3v2h16V3H4z"/><path d="M0 0h24v24H0z" fill="none"/></svg><svg width="24" height="24" viewBox="0 0 24 24" id="ic_wrap_text_24px" y="1224"><path d="M4 19h6v-2H4v2zM20 5H4v2h16V5zm-3 6H4v2h13.25c1.1 0 2 .9 2 2s-.9 2-2 2H15v-2l-3 3 3 3v-2h2c2.21 0 4-1.79 4-4s-1.79-4-4-4z"/><path d="M0 0h24v24H0z" fill="none"/></svg></svg>