<svg xmlns="http://www.w3.org/2000/svg" xmlns:xlink="http://www.w3.org/1999/xlink" width="24" height="936" viewBox="0 0 24 936"><svg width="24" height="24" viewBox="0 0 24 24" id="ic_business_24px" y="0"><path d="M0 0h24v24H0z" fill="none"/><path d="M12 7V3H2v18h20V7H12zM6 19H4v-2h2v2zm0-4H4v-2h2v2zm0-4H4V9h2v2zm0-4H4V5h2v2zm4 12H8v-2h2v2zm0-4H8v-2h2v2zm0-4H8V9h2v2zm0-4H8V5h2v2zm10 12h-8v-2h2v-2h-2v-2h2v-2h-2V9h8v10zm-2-8h-2v2h2v-2zm0 4h-2v2h2v-2z"/></svg><svg width="24" height="24" viewBox="0 0 24 24" id="ic_call_24px" y="24"><path d="M0 0h24v24H0z" fill="none"/><path d="M6.62 10.79c1.44 2.83 3.76 5.14 6.59 6.59l2.2-2.2c.27-.27.67-.36 1.02-.24 1.12.37 2.33.57 3.57.57.55 0 1 .45 1 1V20c0 .55-.45 1-1 1-9.39 0-17-7.61-17-17 0-.55.45-1 1-1h3.5c.55 0 1 .45 1 1 0 1.25.2 2.45.57 3.57.11.35.03.74-.25 1.02l-2.2 2.2z"/></svg><svg width="24" height="24" viewBox="0 0 24 24" id="ic_call_end_24px" y="48"><path d="M0 0h24v24H0z" fill="none"/><path d="M12 9c-1.6 0-3.15.25-4.6.72v3.1c0 .39-.23.74-.56.9-.98.49-1.87 1.12-2.66 1.85-.18.18-.43.28-.7.28-.28 0-.53-.11-.71-.29L.29 13.08c-.18-.17-.29-.42-.29-.7 0-.28.11-.53.29-.71C3.34 8.78 7.46 7 12 7s8.66 1.78 11.71 4.67c.18.18.29.43.29.71 0 .28-.11.53-.29.71l-2.48 2.48c-.18.18-.43.29-.71.29-.27 0-.52-.11-.7-.28-.79-.74-1.69-1.36-2.67-1.85-.33-.16-.56-.5-.56-.9v-3.1C15.15 9.25 13.6 9 12 9z"/></svg><svg width="24" height="24" viewBox="0 0 24 24" id="ic_call_made_24px" y="72"><path d="M0 0h24v24H0z" fill="none"/><path d="M9 5v2h6.59L4 18.59 5.41 20 17 8.41V15h2V5z"/></svg><svg width="24" height="24" viewBox="0 0 24 24" id="ic_call_merge_24px" y="96"><path d="M0 0h24v24H0z" fill="none"/><path d="M17 20.41L18.41 19 15 15.59 13.59 17 17 20.41zM7.5 8H11v5.59L5.59 19 7 20.41l6-6V8h3.5L12 3.5 7.5 8z"/></svg><svg width="24" height="24" viewBox="0 0 24 24" id="ic_call_missed_24px" y="120"><path d="M0 0h24v24H0z" fill="none"/><path d="M19.59 7L12 14.59 6.41 9H11V7H3v8h2v-4.59l7 7 9-9z"/></svg><svg width="24" height="24" viewBox="0 0 24 24" id="ic_call_received_24px" y="144"><path d="M0 0h24v24H0z" fill="none"/><path d="M20 5.41L18.59 4 7 15.59V9H5v10h10v-2H8.41z"/></svg><svg width="24" height="24" viewBox="0 0 24 24" id="ic_call_split_24px" y="168"><path d="M0 0h24v24H0z" fill="none"/><path d="M14 4l2.29 2.29-2.88 2.88 1.42 1.42 2.88-2.88L20 10V4zm-4 0H4v6l2.29-2.29 4.71 4.7V20h2v-8.41l-5.29-5.3z"/></svg><svg width="24" height="24" viewBox="0 0 24 24" id="ic_chat_24px" y="192"><path d="M20 2H4c-1.1 0-1.99.9-1.99 2L2 22l4-4h14c1.1 0 2-.9 2-2V4c0-1.1-.9-2-2-2zM6 9h12v2H6V9zm8 5H6v-2h8v2zm4-6H6V6h12v2z"/><path d="M0 0h24v24H0z" fill="none"/></svg><svg width="24" height="24" viewBox="0 0 24 24" id="ic_clear_all_24px" y="216"><path d="M5 13h14v-2H5v2zm-2 4h14v-2H3v2zM7 7v2h14V7H7z"/><path d="M0 0h24v24H0z" fill="none"/></svg><svg width="24" height="24" viewBox="0 0 24 24" id="ic_comment_24px" y="240"><path d="M21.99 4c0-1.1-.89-2-1.99-2H4c-1.1 0-2 .9-2 2v12c0 1.1.9 2 2 2h14l4 4-.01-18zM18 14H6v-2h12v2zm0-3H6V9h12v2zm0-3H6V6h12v2z"/><path d="M0 0h24v24H0z" fill="none"/></svg><svg width="24" height="24" viewBox="0 0 24 24" id="ic_contacts_24px" y="264"><path d="M0 0h24v24H0zm0 0h24v24H0zm0 0h24v24H0z" fill="none"/><path d="M20 0H4v2h16V0zM4 24h16v-2H4v2zM20 4H4c-1.1 0-2 .9-2 2v12c0 1.1.9 2 2 2h16c1.1 0 2-.9 2-2V6c0-1.1-.9-2-2-2zm-8 2.75c1.24 0 2.25 1.01 2.25 2.25s-1.01 2.25-2.25 2.25S9.75 10.24 9.75 9 10.76 6.75 12 6.75zM17 17H7v-1.5c0-1.67 3.33-2.5 5-2.5s5 .83 5 2.5V17z"/></svg><svg width="24" height="24" viewBox="0 0 24 24" id="ic_dialer_sip_24px" y="288"><path d="M0 0h24v24H0z" fill="none"/><path d="M17 3h-1v5h1V3zm-2 2h-2V4h2V3h-3v3h2v1h-2v1h3V5zm3-2v5h1V6h2V3h-3zm2 2h-1V4h1v1zm0 10.5c-1.25 0-2.45-.2-3.57-.57-.35-.11-.74-.03-1.01.24l-2.2 2.2c-2.83-1.44-5.15-3.75-6.59-6.59l2.2-2.21c.27-.26.35-.65.24-1C8.7 6.45 8.5 5.25 8.5 4c0-.55-.45-1-1-1H4c-.55 0-1 .45-1 1 0 9.39 7.61 17 17 17 .55 0 1-.45 1-1v-3.5c0-.55-.45-1-1-1z"/></svg><svg width="24" height="24" viewBox="0 0 24 24" id="ic_dialpad_24px" y="312"><path d="M0 0h24v24H0z" fill="none"/><path d="M12 19c-1.1 0-2 .9-2 2s.9 2 2 2 2-.9 2-2-.9-2-2-2zM6 1c-1.1 0-2 .9-2 2s.9 2 2 2 2-.9 2-2-.9-2-2-2zm0 6c-1.1 0-2 .9-2 2s.9 2 2 2 2-.9 2-2-.9-2-2-2zm0 6c-1.1 0-2 .9-2 2s.9 2 2 2 2-.9 2-2-.9-2-2-2zm12-8c1.1 0 2-.9 2-2s-.9-2-2-2-2 .9-2 2 .9 2 2 2zm-6 8c-1.1 0-2 .9-2 2s.9 2 2 2 2-.9 2-2-.9-2-2-2zm6 0c-1.1 0-2 .9-2 2s.9 2 2 2 2-.9 2-2-.9-2-2-2zm0-6c-1.1 0-2 .9-2 2s.9 2 2 2 2-.9 2-2-.9-2-2-2zm-6 0c-1.1 0-2 .9-2 2s.9 2 2 2 2-.9 2-2-.9-2-2-2zm0-6c-1.1 0-2 .9-2 2s.9 2 2 2 2-.9 2-2-.9-2-2-2z"/></svg><svg width="24" height="24" viewBox="0 0 24 24" id="ic_dnd_on_24px" y="336"><path d="M0 0h24v24H0z" fill="none"/><path d="M12 2C6.48 2 2 6.48 2 12s4.48 10 10 10 10-4.48 10-10S17.52 2 12 2zm0 18c-4.42 0-8-3.58-8-8 0-1.85.63-3.55 1.69-4.9L16.9 18.31C15.55 19.37 13.85 20 12 20zm6.31-3.1L7.1 5.69C8.45 4.63 10.15 4 12 4c4.42 0 8 3.58 8 8 0 1.85-.63 3.55-1.69 4.9z"/></svg><svg width="24" height="24" viewBox="0 0 24 24" id="ic_email_24px" y="360"><path d="M20 4H4c-1.1 0-1.99.9-1.99 2L2 18c0 1.1.9 2 2 2h16c1.1 0 2-.9 2-2V6c0-1.1-.9-2-2-2zm0 4l-8 5-8-5V6l8 5 8-5v2z"/><path d="M0 0h24v24H0z" fill="none"/></svg><svg width="24" height="24" viewBox="0 0 24 24" id="ic_forum_24px" y="384"><path d="M0 0h24v24H0z" fill="none"/><path d="M21 6h-2v9H6v2c0 .55.45 1 1 1h11l4 4V7c0-.55-.45-1-1-1zm-4 6V3c0-.55-.45-1-1-1H3c-.55 0-1 .45-1 1v14l4-4h10c.55 0 1-.45 1-1z"/></svg><svg width="24" height="24" viewBox="0 0 24 24" id="ic_import_export_24px" y="408"><path d="M9 3L5 6.99h3V14h2V6.99h3L9 3zm7 14.01V10h-2v7.01h-3L15 21l4-3.99h-3z"/><path d="M0 0h24v24H0z" fill="none"/></svg><svg width="24" height="24" viewBox="0 0 24 24" id="ic_invert_colors_off_24px" y="432"><path d="M0 0h24v24H0zm0 0h24v24H0z" fill="none"/><path d="M20.65 20.87l-2.35-2.35-6.3-6.29-3.56-3.57-1.42-1.41L4.27 4.5 3 5.77l2.78 2.78c-2.55 3.14-2.36 7.76.56 10.69C7.9 20.8 9.95 21.58 12 21.58c1.79 0 3.57-.59 5.03-1.78l2.7 2.7L21 21.23l-.35-.36zM12 19.59c-1.6 0-3.11-.62-4.24-1.76C6.62 16.69 6 15.19 6 13.59c0-1.32.43-2.57 1.21-3.6L12 14.77v4.82zM12 5.1v4.58l7.25 7.26c1.37-2.96.84-6.57-1.6-9.01L12 2.27l-3.7 3.7 1.41 1.41L12 5.1z"/></svg><svg width="24" height="24" viewBox="0 0 24 24" id="ic_invert_colors_on_24px" y="456"><path d="M0 0h24v24H0zm0 0h24v24H0z" fill="none"/><path d="M17.66 7.93L12 2.27 6.34 7.93c-3.12 3.12-3.12 8.19 0 11.31C7.9 20.8 9.95 21.58 12 21.58c2.05 0 4.1-.78 5.66-2.34 3.12-3.12 3.12-8.19 0-11.31zM12 19.59c-1.6 0-3.11-.62-4.24-1.76C6.62 16.69 6 15.19 6 13.59s.62-3.11 1.76-4.24L12 5.1v14.49z"/></svg><svg width="24" height="24" viewBox="0 0 24 24" id="ic_live_help_24px" y="480"><path d="M0 0h24v24H0z" fill="none"/><path d="M19 2H5c-1.11 0-2 .9-2 2v14c0 1.1.89 2 2 2h4l3 3 3-3h4c1.1 0 2-.9 2-2V4c0-1.1-.9-2-2-2zm-6 16h-2v-2h2v2zm2.07-7.75l-.9.92C13.45 11.9 13 12.5 13 14h-2v-.5c0-1.1.45-2.1 1.17-2.83l1.24-1.26c.37-.36.59-.86.59-1.41 0-1.1-.9-2-2-2s-2 .9-2 2H8c0-2.21 1.79-4 4-4s4 1.79 4 4c0 .88-.36 1.68-.93 2.25z"/></svg><svg width="24" height="24" viewBox="0 0 24 24" id="ic_location_off_24px" y="504"><path d="M0 0h24v24H0zm11.75 11.47l-.11-.11z" fill="none"/><path d="M12 6.5c1.38 0 2.5 1.12 2.5 2.5 0 .74-.33 1.39-.83 1.85l3.63 3.63c.98-1.86 1.7-3.8 1.7-5.48 0-3.87-3.13-7-7-7-1.98 0-3.76.83-5.04 2.15l3.19 3.19c.46-.52 1.11-.84 1.85-.84zm4.37 9.6l-4.63-4.63-.11-.11L3.27 3 2 4.27l3.18 3.18C5.07 7.95 5 8.47 5 9c0 5.25 7 13 7 13s1.67-1.85 3.38-4.35L18.73 21 20 19.73l-3.63-3.63z"/></svg><svg width="24" height="24" viewBox="0 0 24 24" id="ic_location_on_24px" y="528"><path d="M12 2C8.13 2 5 5.13 5 9c0 5.25 7 13 7 13s7-7.75 7-13c0-3.87-3.13-7-7-7zm0 9.5c-1.38 0-2.5-1.12-2.5-2.5s1.12-2.5 2.5-2.5 2.5 1.12 2.5 2.5-1.12 2.5-2.5 2.5z"/><path d="M0 0h24v24H0z" fill="none"/></svg><svg width="24" height="24" viewBox="0 0 24 24" id="ic_message_24px" y="552"><path d="M20 2H4c-1.1 0-1.99.9-1.99 2L2 22l4-4h14c1.1 0 2-.9 2-2V4c0-1.1-.9-2-2-2zm-2 12H6v-2h12v2zm0-3H6V9h12v2zm0-3H6V6h12v2z"/><path d="M0 0h24v24H0z" fill="none"/></svg><svg width="24" height="24" viewBox="0 0 24 24" id="ic_messenger_24px" y="576"><path d="M20 2H4c-1.1 0-2 .9-2 2v18l4-4h14c1.1 0 2-.9 2-2V4c0-1.1-.9-2-2-2z"/><path d="M0 0h24v24H0z" fill="none"/></svg><svg width="24" height="24" viewBox="0 0 24 24" id="ic_no_sim_24px" y="600"><path d="M0 0h24v24H0z" fill="none"/><path d="M18.99 5c0-1.1-.89-2-1.99-2h-7L7.66 5.34 19 16.68 18.99 5zM3.65 3.88L2.38 5.15 5 7.77V19c0 1.1.9 2 2 2h10.01c.35 0 .67-.1.96-.26l1.88 1.88 1.27-1.27L3.65 3.88z"/></svg><svg width="24" height="24" viewBox="0 0 24 24" id="ic_phone_24px" y="624"><path d="M0 0h24v24H0z" fill="none"/><path d="M6.62 10.79c1.44 2.83 3.76 5.14 6.59 6.59l2.2-2.2c.27-.27.67-.36 1.02-.24 1.12.37 2.33.57 3.57.57.55 0 1 .45 1 1V20c0 .55-.45 1-1 1-9.39 0-17-7.61-17-17 0-.55.45-1 1-1h3.5c.55 0 1 .45 1 1 0 1.25.2 2.45.57 3.57.11.35.03.74-.25 1.02l-2.2 2.2z"/></svg><svg width="24" height="24" viewBox="0 0 24 24" id="ic_portable_wifi_off_24px" y="648"><path d="M0 0h24v24H0zm0 0h24v24H0z" fill="none"/><path d="M17.56 14.24c.28-.69.44-1.45.44-2.24 0-3.31-2.69-6-6-6-.79 0-1.55.16-2.24.44l1.62 1.62c.2-.03.41-.06.62-.06 2.21 0 4 1.79 4 4 0 .21-.02.42-.05.63l1.61 1.61zM12 4c4.42 0 8 3.58 8 8 0 1.35-.35 2.62-.95 3.74l1.47 1.47C21.46 15.69 22 13.91 22 12c0-5.52-4.48-10-10-10-1.91 0-3.69.55-5.21 1.47l1.46 1.46C9.37 4.34 10.65 4 12 4zM3.27 2.5L2 3.77l2.1 2.1C2.79 7.57 2 9.69 2 12c0 3.7 2.01 6.92 4.99 8.65l1-1.73C5.61 17.53 4 14.96 4 12c0-1.76.57-3.38 1.53-4.69l1.43 1.44C6.36 9.68 6 10.8 6 12c0 2.22 1.21 4.15 3 5.19l1-1.74c-1.19-.7-2-1.97-2-3.45 0-.65.17-1.25.44-1.79l1.58 1.58L10 12c0 1.1.9 2 2 2l.21-.02.01.01 7.51 7.51L21 20.23 4.27 3.5l-1-1z"/></svg><svg width="24" height="24" viewBox="0 0 24 24" id="ic_quick_contacts_dialer_24px" y="672"><path d="M0 0h24v24H0z" fill="none"/><path d="M22 3H2C.9 3 0 3.9 0 5v14c0 1.1.9 2 2 2h20c1.1 0 1.99-.9 1.99-2L24 5c0-1.1-.9-2-2-2zM8 6c1.66 0 3 1.34 3 3s-1.34 3-3 3-3-1.34-3-3 1.34-3 3-3zm6 12H2v-1c0-2 4-3.1 6-3.1s6 1.1 6 3.1v1zm3.85-4h1.64L21 16l-1.99 1.99c-1.31-.98-2.28-2.38-2.73-3.99-.18-.64-.28-1.31-.28-2s.1-1.36.28-2c.45-1.62 1.42-3.01 2.73-3.99L21 8l-1.51 2h-1.64c-.22.63-.35 1.3-.35 2s.13 1.37.35 2z"/></svg><svg width="24" height="24" viewBox="0 0 24 24" id="ic_quick_contacts_mail_24px" y="696"><path d="M0 0h24v24H0z" fill="none"/><path d="M21 8V7l-3 2-3-2v1l3 2 3-2zm1-5H2C.9 3 0 3.9 0 5v14c0 1.1.9 2 2 2h20c1.1 0 1.99-.9 1.99-2L24 5c0-1.1-.9-2-2-2zM8 6c1.66 0 3 1.34 3 3s-1.34 3-3 3-3-1.34-3-3 1.34-3 3-3zm6 12H2v-1c0-2 4-3.1 6-3.1s6 1.1 6 3.1v1zm8-6h-8V6h8v6z"/><path d="M0 0h24v24H0z" fill="none"/></svg><svg width="24" height="24" viewBox="0 0 24 24" id="ic_ring_volume_24px" y="720"><path d="M0 0h24v24H0z" fill="none"/><path d="M23.71 16.67C20.66 13.78 16.54 12 12 12 7.46 12 3.34 13.78.29 16.67c-.18.18-.29.43-.29.71 0 .28.11.53.29.71l2.48 2.48c.18.18.43.29.71.29.27 0 .52-.11.7-.28.79-.74 1.69-1.36 2.66-1.85.33-.16.56-.5.56-.9v-3.1c1.45-.48 3-.73 4.6-.73s3.15.25 4.6.72v3.1c0 .39.23.74.56.9.98.49 1.87 1.12 2.66 1.85.18.18.43.28.7.28.28 0 .53-.11.71-.29l2.48-2.48c.18-.18.29-.43.29-.71 0-.27-.11-.52-.29-.7zM21.16 6.26l-1.41-1.41-3.56 3.55 1.41 1.41s3.45-3.52 3.56-3.55zM13 2h-2v5h2V2zM6.4 9.81L7.81 8.4 4.26 4.84 2.84 6.26c.11.03 3.56 3.55 3.56 3.55z"/></svg><svg width="24" height="24" viewBox="0 0 24 24" id="ic_stay_current_landscape_24px" y="744"><path d="M0 0h24v24H0z" fill="none"/><path d="M1.01 7L1 17c0 1.1.9 2 2 2h18c1.1 0 2-.9 2-2V7c0-1.1-.9-2-2-2H3c-1.1 0-1.99.9-1.99 2zM19 7v10H5V7h14z"/></svg><svg width="24" height="24" viewBox="0 0 24 24" id="ic_stay_current_portrait_24px" y="768"><path d="M0 0h24v24H0z" fill="none"/><path d="M17 1.01L7 1c-1.1 0-1.99.9-1.99 2v18c0 1.1.89 2 1.99 2h10c1.1 0 2-.9 2-2V3c0-1.1-.9-1.99-2-1.99zM17 19H7V5h10v14z"/></svg><svg width="24" height="24" viewBox="0 0 24 24" id="ic_stay_primary_landscape_24px" y="792"><path d="M0 0h24v24H0z" fill="none"/><path d="M1.01 7L1 17c0 1.1.9 2 2 2h18c1.1 0 2-.9 2-2V7c0-1.1-.9-2-2-2H3c-1.1 0-1.99.9-1.99 2zM19 7v10H5V7h14z"/></svg><svg width="24" height="24" viewBox="0 0 24 24" id="ic_stay_primary_portrait_24px" y="816"><path d="M0 0h24v24H0z" fill="none"/><path d="M17 1.01L7 1c-1.1 0-1.99.9-1.99 2v18c0 1.1.89 2 1.99 2h10c1.1 0 2-.9 2-2V3c0-1.1-.9-1.99-2-1.99zM17 19H7V5h10v14z"/></svg><svg width="24" height="24" viewBox="0 0 24 24" id="ic_swap_calls_24px" y="840"><path d="M18 4l-4 4h3v7c0 1.1-.9 2-2 2s-2-.9-2-2V8c0-2.21-1.79-4-4-4S5 5.79 5 8v7H2l4 4 4-4H7V8c0-1.1.9-2 2-2s2 .9 2 2v7c0 2.21 1.79 4 4 4s4-1.79 4-4V8h3l-4-4z"/><path d="M0 0h24v24H0z" fill="none"/></svg><svg width="24" height="24" viewBox="0 0 24 24" id="ic_textsms_24px" y="864"><path d="M20 2H4c-1.1 0-1.99.9-1.99 2L2 22l4-4h14c1.1 0 2-.9 2-2V4c0-1.1-.9-2-2-2zM9 11H7V9h2v2zm4 0h-2V9h2v2zm4 0h-2V9h2v2z"/><path d="M0 0h24v24H0z" fill="none"/></svg><svg width="24" height="24" viewBox="0 0 24 24" id="ic_voicemail_24px" y="888"><path d="M0 0h24v24H0z" fill="none"/><path d="M18.5 6C15.46 6 13 8.46 13 11.5c0 1.33.47 2.55 1.26 3.5H9.74c.79-.95 1.26-2.17 1.26-3.5C11 8.46 8.54 6 5.5 6S0 8.46 0 11.5 2.46 17 5.5 17h13c3.04 0 5.5-2.46 5.5-5.5S21.54 6 18.5 6zm-13 9C3.57 15 2 13.43 2 11.5S3.57 8 5.5 8 9 9.57 9 11.5 7.43 15 5.5 15zm13 0c-1.93 0-3.5-1.57-3.5-3.5S16.57 8 18.5 8 22 9.57 22 11.5 20.43 15 18.5 15z"/></svg><svg width="24" height="24" viewBox="0 0 24 24" id="ic_vpn_key_24px" y="912"><path d="M0 0h24v24H0z" fill="none"/><path d="M12.65 10C11.83 7.67 9.61 6 7 6c-3.31 0-6 2.69-6 6s2.69 6 6 6c2.61 0 4.83-1.67 5.65-4H17v4h4v-4h2v-4H12.65zM7 14c-1.1 0-2-.9-2-2s.9-2 2-2 2 .9 2 2-.9 2-2 2z"/></svg></svg>