<svg xmlns="http://www.w3.org/2000/svg" xmlns:xlink="http://www.w3.org/1999/xlink" width="24" height="168" viewBox="0 0 24 168"><svg width="24" height="24" viewBox="0 0 24 24" id="ic_check_box_24px" y="0"><path d="M0 0h24v24H0z" fill="none"/><path d="M19 3H5c-1.11 0-2 .9-2 2v14c0 1.1.89 2 2 2h14c1.11 0 2-.9 2-2V5c0-1.1-.89-2-2-2zm-9 14l-5-5 1.41-1.41L10 14.17l7.59-7.59L19 8l-9 9z"/></svg><svg width="24" height="24" viewBox="0 0 24 24" id="ic_check_box_outline_blank_24px" y="24"><path d="M19 5v14H5V5h14m0-2H5c-1.1 0-2 .9-2 2v14c0 1.1.9 2 2 2h14c1.1 0 2-.9 2-2V5c0-1.1-.9-2-2-2z"/><path d="M0 0h24v24H0z" fill="none"/></svg><svg width="24" height="24" viewBox="0 0 24 24" id="ic_radio_button_off_24px" y="48"><path d="M12 2C6.48 2 2 6.48 2 12s4.48 10 10 10 10-4.48 10-10S17.52 2 12 2zm0 18c-4.42 0-8-3.58-8-8s3.58-8 8-8 8 3.58 8 8-3.58 8-8 8z"/><path d="M0 0h24v24H0z" fill="none"/></svg><svg width="24" height="24" viewBox="0 0 24 24" id="ic_radio_button_on_24px" y="72"><path d="M12 7c-2.76 0-5 2.24-5 5s2.24 5 5 5 5-2.24 5-5-2.24-5-5-5zm0-5C6.48 2 2 6.48 2 12s4.48 10 10 10 10-4.48 10-10S17.52 2 12 2zm0 18c-4.42 0-8-3.58-8-8s3.58-8 8-8 8 3.58 8 8-3.58 8-8 8z"/><path d="M0 0h24v24H0z" fill="none"/></svg><svg width="24" height="24" viewBox="0 0 24 24" id="ic_star_24px" y="96"><path d="M0 0h24v24H0z" fill="none"/><path d="M12 17.27L18.18 21l-1.64-7.03L22 9.24l-7.19-.61L12 2 9.19 8.63 2 9.24l5.46 4.73L5.82 21z"/><path d="M0 0h24v24H0z" fill="none"/></svg><svg width="24" height="24" viewBox="0 0 24 24" id="ic_star_half_24px" y="120"><path d="M22 9.74l-7.19-.62L12 2.5 9.19 9.13 2 9.74l5.46 4.73-1.64 7.03L12 17.77l6.18 3.73-1.63-7.03L22 9.74zM12 15.9V6.6l1.71 4.04 4.38.38-3.32 2.88 1 4.28L12 15.9z"/><path d="M0 0h24v24H0z" fill="none"/></svg><svg width="24" height="24" viewBox="0 0 24 24" id="ic_star_outline_24px" y="144"><path d="M22 9.24l-7.19-.62L12 2 9.19 8.63 2 9.24l5.46 4.73L5.82 21 12 17.27 18.18 21l-1.63-7.03L22 9.24zM12 15.4l-3.76 2.27 1-4.28-3.32-2.88 4.38-.38L12 6.1l1.71 4.04 4.38.38-3.32 2.88 1 4.28L12 15.4z"/><path d="M0 0h24v24H0z" fill="none"/></svg></svg>