<svg xmlns="http://www.w3.org/2000/svg" xmlns:xlink="http://www.w3.org/1999/xlink" width="24" height="3288" viewBox="0 0 24 3288"><svg width="24" height="24" viewBox="0 0 24 24" id="ic_add_to_photos_24px" y="0"><path d="M0 0h24v24H0z" fill="none"/><path d="M4 6H2v14c0 1.1.9 2 2 2h14v-2H4V6zm16-4H8c-1.1 0-2 .9-2 2v12c0 1.1.9 2 2 2h12c1.1 0 2-.9 2-2V4c0-1.1-.9-2-2-2zm-1 9h-4v4h-2v-4H9V9h4V5h2v4h4v2z"/></svg><svg width="24" height="24" viewBox="0 0 24 24" id="ic_adjust_24px" y="24"><path d="M12 2C6.49 2 2 6.49 2 12s4.49 10 10 10 10-4.49 10-10S17.51 2 12 2zm0 18c-4.41 0-8-3.59-8-8s3.59-8 8-8 8 3.59 8 8-3.59 8-8 8zm3-8c0 1.66-1.34 3-3 3s-3-1.34-3-3 1.34-3 3-3 3 1.34 3 3z"/><path d="M0 0h24v24H0z" fill="none"/></svg><svg width="24" height="24" viewBox="0 0 24 24" id="ic_assistant_photo_24px" y="48"><path d="M0 0h24v24H0z" fill="none"/><path d="M14.4 6L14 4H5v17h2v-7h5.6l.4 2h7V6z"/></svg><svg width="24" height="24" viewBox="0 0 24 24" id="ic_audiotrack_24px" y="72"><path d="M0 0h24v24H0z" fill="none"/><path d="M12 3v9.28c-.47-.17-.97-.28-1.5-.28C8.01 12 6 14.01 6 16.5S8.01 21 10.5 21c2.31 0 4.2-1.75 4.45-4H15V6h4V3h-7z"/></svg><svg width="24" height="24" viewBox="0 0 24 24" id="ic_blur_circular_24px" y="96"><path d="M0 0h24v24H0z" fill="none"/><path d="M10 9c-.55 0-1 .45-1 1s.45 1 1 1 1-.45 1-1-.45-1-1-1zm0 4c-.55 0-1 .45-1 1s.45 1 1 1 1-.45 1-1-.45-1-1-1zM7 9.5c-.28 0-.5.22-.5.5s.22.5.5.5.5-.22.5-.5-.22-.5-.5-.5zm3 7c-.28 0-.5.22-.5.5s.22.5.5.5.5-.22.5-.5-.22-.5-.5-.5zm-3-3c-.28 0-.5.22-.5.5s.22.5.5.5.5-.22.5-.5-.22-.5-.5-.5zm3-6c.28 0 .5-.22.5-.5s-.22-.5-.5-.5-.5.22-.5.5.22.5.5.5zM14 9c-.55 0-1 .45-1 1s.45 1 1 1 1-.45 1-1-.45-1-1-1zm0-1.5c.28 0 .5-.22.5-.5s-.22-.5-.5-.5-.5.22-.5.5.22.5.5.5zm3 6c-.28 0-.5.22-.5.5s.22.5.5.5.5-.22.5-.5-.22-.5-.5-.5zm0-4c-.28 0-.5.22-.5.5s.22.5.5.5.5-.22.5-.5-.22-.5-.5-.5zM12 2C6.48 2 2 6.48 2 12s4.48 10 10 10 10-4.48 10-10S17.52 2 12 2zm0 18c-4.42 0-8-3.58-8-8s3.58-8 8-8 8 3.58 8 8-3.58 8-8 8zm2-3.5c-.28 0-.5.22-.5.5s.22.5.5.5.5-.22.5-.5-.22-.5-.5-.5zm0-3.5c-.55 0-1 .45-1 1s.45 1 1 1 1-.45 1-1-.45-1-1-1z"/></svg><svg width="24" height="24" viewBox="0 0 24 24" id="ic_blur_linear_24px" y="120"><path d="M0 0h24v24H0z" fill="none"/><path d="M5 17.5c.83 0 1.5-.67 1.5-1.5s-.67-1.5-1.5-1.5-1.5.67-1.5 1.5.67 1.5 1.5 1.5zM9 13c.55 0 1-.45 1-1s-.45-1-1-1-1 .45-1 1 .45 1 1 1zm0-4c.55 0 1-.45 1-1s-.45-1-1-1-1 .45-1 1 .45 1 1 1zM3 21h18v-2H3v2zM5 9.5c.83 0 1.5-.67 1.5-1.5S5.83 6.5 5 6.5 3.5 7.17 3.5 8 4.17 9.5 5 9.5zm0 4c.83 0 1.5-.67 1.5-1.5s-.67-1.5-1.5-1.5-1.5.67-1.5 1.5.67 1.5 1.5 1.5zM9 17c.55 0 1-.45 1-1s-.45-1-1-1-1 .45-1 1 .45 1 1 1zm8-.5c.28 0 .5-.22.5-.5s-.22-.5-.5-.5-.5.22-.5.5.22.5.5.5zM3 3v2h18V3H3zm14 5.5c.28 0 .5-.22.5-.5s-.22-.5-.5-.5-.5.22-.5.5.22.5.5.5zm0 4c.28 0 .5-.22.5-.5s-.22-.5-.5-.5-.5.22-.5.5.22.5.5.5zM13 9c.55 0 1-.45 1-1s-.45-1-1-1-1 .45-1 1 .45 1 1 1zm0 4c.55 0 1-.45 1-1s-.45-1-1-1-1 .45-1 1 .45 1 1 1zm0 4c.55 0 1-.45 1-1s-.45-1-1-1-1 .45-1 1 .45 1 1 1z"/></svg><svg width="24" height="24" viewBox="0 0 24 24" id="ic_blur_off_24px" y="144"><path d="M0 0h24v24H0z" fill="none"/><path d="M14 7c.55 0 1-.45 1-1s-.45-1-1-1-1 .45-1 1 .45 1 1 1zm-.2 4.48l.2.02c.83 0 1.5-.67 1.5-1.5s-.67-1.5-1.5-1.5-1.5.67-1.5 1.5l.02.2c.09.67.61 1.19 1.28 1.28zM14 3.5c.28 0 .5-.22.5-.5s-.22-.5-.5-.5-.5.22-.5.5.22.5.5.5zm-4 0c.28 0 .5-.22.5-.5s-.22-.5-.5-.5-.5.22-.5.5.22.5.5.5zm11 7c.28 0 .5-.22.5-.5s-.22-.5-.5-.5-.5.22-.5.5.22.5.5.5zM10 7c.55 0 1-.45 1-1s-.45-1-1-1-1 .45-1 1 .45 1 1 1zm8 8c.55 0 1-.45 1-1s-.45-1-1-1-1 .45-1 1 .45 1 1 1zm0-4c.55 0 1-.45 1-1s-.45-1-1-1-1 .45-1 1 .45 1 1 1zm0-4c.55 0 1-.45 1-1s-.45-1-1-1-1 .45-1 1 .45 1 1 1zm-4 13.5c-.28 0-.5.22-.5.5s.22.5.5.5.5-.22.5-.5-.22-.5-.5-.5zM2.5 5.27l3.78 3.78L6 9c-.55 0-1 .45-1 1s.45 1 1 1 1-.45 1-1c0-.1-.03-.19-.06-.28l2.81 2.81c-.71.11-1.25.73-1.25 1.47 0 .83.67 1.5 1.5 1.5.74 0 1.36-.54 1.47-1.25l2.81 2.81c-.09-.03-.18-.06-.28-.06-.55 0-1 .45-1 1s.45 1 1 1 1-.45 1-1c0-.1-.03-.19-.06-.28l3.78 3.78L20 20.23 3.77 4 2.5 5.27zM10 17c-.55 0-1 .45-1 1s.45 1 1 1 1-.45 1-1-.45-1-1-1zm11-3.5c-.28 0-.5.22-.5.5s.22.5.5.5.5-.22.5-.5-.22-.5-.5-.5zM6 13c-.55 0-1 .45-1 1s.45 1 1 1 1-.45 1-1-.45-1-1-1zM3 9.5c-.28 0-.5.22-.5.5s.22.5.5.5.5-.22.5-.5-.22-.5-.5-.5zm7 11c-.28 0-.5.22-.5.5s.22.5.5.5.5-.22.5-.5-.22-.5-.5-.5zM6 17c-.55 0-1 .45-1 1s.45 1 1 1 1-.45 1-1-.45-1-1-1zm-3-3.5c-.28 0-.5.22-.5.5s.22.5.5.5.5-.22.5-.5-.22-.5-.5-.5z"/></svg><svg width="24" height="24" viewBox="0 0 24 24" id="ic_blur_on_24px" y="168"><path d="M6 13c-.55 0-1 .45-1 1s.45 1 1 1 1-.45 1-1-.45-1-1-1zm0 4c-.55 0-1 .45-1 1s.45 1 1 1 1-.45 1-1-.45-1-1-1zm0-8c-.55 0-1 .45-1 1s.45 1 1 1 1-.45 1-1-.45-1-1-1zm-3 .5c-.28 0-.5.22-.5.5s.22.5.5.5.5-.22.5-.5-.22-.5-.5-.5zM6 5c-.55 0-1 .45-1 1s.45 1 1 1 1-.45 1-1-.45-1-1-1zm15 5.5c.28 0 .5-.22.5-.5s-.22-.5-.5-.5-.5.22-.5.5.22.5.5.5zM14 7c.55 0 1-.45 1-1s-.45-1-1-1-1 .45-1 1 .45 1 1 1zm0-3.5c.28 0 .5-.22.5-.5s-.22-.5-.5-.5-.5.22-.5.5.22.5.5.5zm-11 10c-.28 0-.5.22-.5.5s.22.5.5.5.5-.22.5-.5-.22-.5-.5-.5zm7 7c-.28 0-.5.22-.5.5s.22.5.5.5.5-.22.5-.5-.22-.5-.5-.5zm0-17c.28 0 .5-.22.5-.5s-.22-.5-.5-.5-.5.22-.5.5.22.5.5.5zM10 7c.55 0 1-.45 1-1s-.45-1-1-1-1 .45-1 1 .45 1 1 1zm0 5.5c-.83 0-1.5.67-1.5 1.5s.67 1.5 1.5 1.5 1.5-.67 1.5-1.5-.67-1.5-1.5-1.5zm8 .5c-.55 0-1 .45-1 1s.45 1 1 1 1-.45 1-1-.45-1-1-1zm0 4c-.55 0-1 .45-1 1s.45 1 1 1 1-.45 1-1-.45-1-1-1zm0-8c-.55 0-1 .45-1 1s.45 1 1 1 1-.45 1-1-.45-1-1-1zm0-4c-.55 0-1 .45-1 1s.45 1 1 1 1-.45 1-1-.45-1-1-1zm3 8.5c-.28 0-.5.22-.5.5s.22.5.5.5.5-.22.5-.5-.22-.5-.5-.5zM14 17c-.55 0-1 .45-1 1s.45 1 1 1 1-.45 1-1-.45-1-1-1zm0 3.5c-.28 0-.5.22-.5.5s.22.5.5.5.5-.22.5-.5-.22-.5-.5-.5zm-4-12c-.83 0-1.5.67-1.5 1.5s.67 1.5 1.5 1.5 1.5-.67 1.5-1.5-.67-1.5-1.5-1.5zm0 8.5c-.55 0-1 .45-1 1s.45 1 1 1 1-.45 1-1-.45-1-1-1zm4-4.5c-.83 0-1.5.67-1.5 1.5s.67 1.5 1.5 1.5 1.5-.67 1.5-1.5-.67-1.5-1.5-1.5zm0-4c-.83 0-1.5.67-1.5 1.5s.67 1.5 1.5 1.5 1.5-.67 1.5-1.5-.67-1.5-1.5-1.5z"/><path d="M0 0h24v24H0z" fill="none"/></svg><svg width="24" height="24" viewBox="0 0 24 24" id="ic_brightness_1_24px" y="192"><circle cx="12" cy="12" r="10"/><path d="M0 0h24v24H0z" fill="none"/></svg><svg width="24" height="24" viewBox="0 0 24 24" id="ic_brightness_2_24px" y="216"><path d="M10 2c-1.82 0-3.53.5-5 1.35C7.99 5.08 10 8.3 10 12s-2.01 6.92-5 8.65C6.47 21.5 8.18 22 10 22c5.52 0 10-4.48 10-10S15.52 2 10 2z"/><path d="M0 0h24v24H0z" fill="none"/></svg><svg width="24" height="24" viewBox="0 0 24 24" id="ic_brightness_3_24px" y="240"><path d="M9 2c-1.05 0-2.05.16-3 .46 4.06 1.27 7 5.06 7 9.54 0 4.48-2.94 8.27-7 9.54.95.3 1.95.46 3 .46 5.52 0 10-4.48 10-10S14.52 2 9 2z"/><path d="M0 0h24v24H0z" fill="none"/></svg><svg width="24" height="24" viewBox="0 0 24 24" id="ic_brightness_4_24px" y="264"><path d="M0 0h24v24H0z" fill="none"/><path d="M20 8.69V4h-4.69L12 .69 8.69 4H4v4.69L.69 12 4 15.31V20h4.69L12 23.31 15.31 20H20v-4.69L23.31 12 20 8.69zM12 18c-.89 0-1.74-.2-2.5-.55C11.56 16.5 13 14.42 13 12s-1.44-4.5-3.5-5.45C10.26 6.2 11.11 6 12 6c3.31 0 6 2.69 6 6s-2.69 6-6 6z"/></svg><svg width="24" height="24" viewBox="0 0 24 24" id="ic_brightness_5_24px" y="288"><path d="M0 0h24v24H0z" fill="none"/><path d="M20 15.31L23.31 12 20 8.69V4h-4.69L12 .69 8.69 4H4v4.69L.69 12 4 15.31V20h4.69L12 23.31 15.31 20H20v-4.69zM12 18c-3.31 0-6-2.69-6-6s2.69-6 6-6 6 2.69 6 6-2.69 6-6 6z"/></svg><svg width="24" height="24" viewBox="0 0 24 24" id="ic_brightness_6_24px" y="312"><path d="M0 0h24v24H0z" fill="none"/><path d="M20 15.31L23.31 12 20 8.69V4h-4.69L12 .69 8.69 4H4v4.69L.69 12 4 15.31V20h4.69L12 23.31 15.31 20H20v-4.69zM12 18V6c3.31 0 6 2.69 6 6s-2.69 6-6 6z"/></svg><svg width="24" height="24" viewBox="0 0 24 24" id="ic_brightness_7_24px" y="336"><path d="M0 0h24v24H0z" fill="none"/><path d="M20 8.69V4h-4.69L12 .69 8.69 4H4v4.69L.69 12 4 15.31V20h4.69L12 23.31 15.31 20H20v-4.69L23.31 12 20 8.69zM12 18c-3.31 0-6-2.69-6-6s2.69-6 6-6 6 2.69 6 6-2.69 6-6 6zm0-10c-2.21 0-4 1.79-4 4s1.79 4 4 4 4-1.79 4-4-1.79-4-4-4z"/></svg><svg width="24" height="24" viewBox="0 0 24 24" id="ic_brush_24px" y="360"><path d="M0 0h24v24H0z" fill="none"/><path d="M7 14c-1.66 0-3 1.34-3 3 0 1.31-1.16 2-2 2 .92 1.22 2.49 2 4 2 2.21 0 4-1.79 4-4 0-1.66-1.34-3-3-3zm13.71-9.37l-1.34-1.34c-.39-.39-1.02-.39-1.41 0L9 12.25 11.75 15l8.96-8.96c.39-.39.39-1.02 0-1.41z"/></svg><svg width="24" height="24" viewBox="0 0 24 24" id="ic_camera_24px" y="384"><path d="M0 0h24v24H0z" fill="none"/><path d="M9.4 10.5l4.77-8.26C13.47 2.09 12.75 2 12 2c-2.4 0-4.6.85-6.32 2.25l3.66 6.35.06-.1zM21.54 9c-.92-2.92-3.15-5.26-6-6.34L11.88 9h9.66zm.26 1h-7.49l.29.5 4.76 8.25C21 16.97 22 14.61 22 12c0-.69-.07-1.35-.2-2zM8.54 12l-3.9-6.75C3.01 7.03 2 9.39 2 12c0 .69.07 1.35.2 2h7.49l-1.15-2zm-6.08 3c.92 2.92 3.15 5.26 6 6.34L12.12 15H2.46zm11.27 0l-3.9 6.76c.7.15 1.42.24 2.17.24 2.4 0 4.6-.85 6.32-2.25l-3.66-6.35-.93 1.6z"/></svg><svg width="24" height="24" viewBox="0 0 24 24" id="ic_camera_alt_24px" y="408"><circle cx="12" cy="12" r="3.2"/><path d="M9 2L7.17 4H4c-1.1 0-2 .9-2 2v12c0 1.1.9 2 2 2h16c1.1 0 2-.9 2-2V6c0-1.1-.9-2-2-2h-3.17L15 2H9zm3 15c-2.76 0-5-2.24-5-5s2.24-5 5-5 5 2.24 5 5-2.24 5-5 5z"/><path d="M0 0h24v24H0z" fill="none"/></svg><svg width="24" height="24" viewBox="0 0 24 24" id="ic_camera_front_24px" y="432"><path d="M0 0h24v24H0z" fill="none"/><path d="M10 20H5v2h5v2l3-3-3-3v2zm4 0v2h5v-2h-5zM12 8c1.1 0 2-.9 2-2s-.9-2-2-2-1.99.9-1.99 2S10.9 8 12 8zm5-8H7C5.9 0 5 .9 5 2v14c0 1.1.9 2 2 2h10c1.1 0 2-.9 2-2V2c0-1.1-.9-2-2-2zM7 2h10v10.5c0-1.67-3.33-2.5-5-2.5s-5 .83-5 2.5V2z"/></svg><svg width="24" height="24" viewBox="0 0 24 24" id="ic_camera_rear_24px" y="456"><path d="M0 0h24v24H0z" fill="none"/><path d="M10 20H5v2h5v2l3-3-3-3v2zm4 0v2h5v-2h-5zm3-20H7C5.9 0 5 .9 5 2v14c0 1.1.9 2 2 2h10c1.1 0 2-.9 2-2V2c0-1.1-.9-2-2-2zm-5 6c-1.11 0-2-.9-2-2s.89-2 1.99-2 2 .9 2 2C14 5.1 13.1 6 12 6z"/></svg><svg width="24" height="24" viewBox="0 0 24 24" id="ic_camera_roll_24px" y="480"><path d="M0 0h24v24H0z" fill="none"/><path d="M14 5c0-1.1-.9-2-2-2h-1V2c0-.55-.45-1-1-1H6c-.55 0-1 .45-1 1v1H4c-1.1 0-2 .9-2 2v15c0 1.1.9 2 2 2h8c1.1 0 2-.9 2-2h8V5h-8zm-2 13h-2v-2h2v2zm0-9h-2V7h2v2zm4 9h-2v-2h2v2zm0-9h-2V7h2v2zm4 9h-2v-2h2v2zm0-9h-2V7h2v2z"/></svg><svg width="24" height="24" viewBox="0 0 24 24" id="ic_center_focus_strong_24px" y="504"><path d="M0 0h24v24H0z" fill="none"/><path d="M12 8c-2.21 0-4 1.79-4 4s1.79 4 4 4 4-1.79 4-4-1.79-4-4-4zm-7 7H3v4c0 1.1.9 2 2 2h4v-2H5v-4zM5 5h4V3H5c-1.1 0-2 .9-2 2v4h2V5zm14-2h-4v2h4v4h2V5c0-1.1-.9-2-2-2zm0 16h-4v2h4c1.1 0 2-.9 2-2v-4h-2v4z"/></svg><svg width="24" height="24" viewBox="0 0 24 24" id="ic_center_focus_weak_24px" y="528"><path d="M0 0h24v24H0z" fill="none"/><path d="M5 15H3v4c0 1.1.9 2 2 2h4v-2H5v-4zM5 5h4V3H5c-1.1 0-2 .9-2 2v4h2V5zm14-2h-4v2h4v4h2V5c0-1.1-.9-2-2-2zm0 16h-4v2h4c1.1 0 2-.9 2-2v-4h-2v4zM12 8c-2.21 0-4 1.79-4 4s1.79 4 4 4 4-1.79 4-4-1.79-4-4-4zm0 6c-1.1 0-2-.9-2-2s.9-2 2-2 2 .9 2 2-.9 2-2 2z"/></svg><svg width="24" height="24" viewBox="0 0 24 24" id="ic_collections_24px" y="552"><path d="M0 0h24v24H0z" fill="none"/><path d="M22 16V4c0-1.1-.9-2-2-2H8c-1.1 0-2 .9-2 2v12c0 1.1.9 2 2 2h12c1.1 0 2-.9 2-2zm-11-4l2.03 2.71L16 11l4 5H8l3-4zM2 6v14c0 1.1.9 2 2 2h14v-2H4V6H2z"/></svg><svg width="24" height="24" viewBox="0 0 24 24" id="ic_color_lens_24px" y="576"><path d="M12 3c-4.97 0-9 4.03-9 9s4.03 9 9 9c.83 0 1.5-.67 1.5-1.5 0-.39-.15-.74-.39-1.01-.23-.26-.38-.61-.38-.99 0-.83.67-1.5 1.5-1.5H16c2.76 0 5-2.24 5-5 0-4.42-4.03-8-9-8zm-5.5 9c-.83 0-1.5-.67-1.5-1.5S5.67 9 6.5 9 8 9.67 8 10.5 7.33 12 6.5 12zm3-4C8.67 8 8 7.33 8 6.5S8.67 5 9.5 5s1.5.67 1.5 1.5S10.33 8 9.5 8zm5 0c-.83 0-1.5-.67-1.5-1.5S13.67 5 14.5 5s1.5.67 1.5 1.5S15.33 8 14.5 8zm3 4c-.83 0-1.5-.67-1.5-1.5S16.67 9 17.5 9s1.5.67 1.5 1.5-.67 1.5-1.5 1.5z"/><path d="M0 0h24v24H0z" fill="none"/></svg><svg width="24" height="24" viewBox="0 0 24 24" id="ic_colorize_24px" y="600"><path d="M0 0h24v24H0z" fill="none"/><path d="M20.71 5.63l-2.34-2.34c-.39-.39-1.02-.39-1.41 0l-3.12 3.12-1.93-1.91-1.41 1.41 1.42 1.42L3 16.25V21h4.75l8.92-8.92 1.42 1.42 1.41-1.41-1.92-1.92 3.12-3.12c.4-.4.4-1.03.01-1.42zM6.92 19L5 17.08l8.06-8.06 1.92 1.92L6.92 19z"/></svg><svg width="24" height="24" viewBox="0 0 24 24" id="ic_compare_24px" y="624"><path d="M0 0h24v24H0z" fill="none"/><path d="M10 3H5c-1.1 0-2 .9-2 2v14c0 1.1.9 2 2 2h5v2h2V1h-2v2zm0 15H5l5-6v6zm9-15h-5v2h5v13l-5-6v9h5c1.1 0 2-.9 2-2V5c0-1.1-.9-2-2-2z"/></svg><svg width="24" height="24" viewBox="0 0 24 24" id="ic_control_point_24px" y="648"><path d="M13 7h-2v4H7v2h4v4h2v-4h4v-2h-4V7zm-1-5C6.49 2 2 6.49 2 12s4.49 10 10 10 10-4.49 10-10S17.51 2 12 2zm0 18c-4.41 0-8-3.59-8-8s3.59-8 8-8 8 3.59 8 8-3.59 8-8 8z"/><path d="M0 0h24v24H0z" fill="none"/></svg><svg width="24" height="24" viewBox="0 0 24 24" id="ic_control_point_duplicate_24px" y="672"><path d="M0 0h24v24H0z" fill="none"/><path d="M16 8h-2v3h-3v2h3v3h2v-3h3v-2h-3zM2 12c0-2.79 1.64-5.2 4.01-6.32V3.52C2.52 4.76 0 8.09 0 12s2.52 7.24 6.01 8.48v-2.16C3.64 17.2 2 14.79 2 12zm13-9c-4.96 0-9 4.04-9 9s4.04 9 9 9 9-4.04 9-9-4.04-9-9-9zm0 16c-3.86 0-7-3.14-7-7s3.14-7 7-7 7 3.14 7 7-3.14 7-7 7z"/></svg><svg width="24" height="24" viewBox="0 0 24 24" id="ic_crop_16_9_24px" y="696"><path d="M0 0h24v24H0z" fill="none"/><path d="M19 6H5c-1.1 0-2 .9-2 2v8c0 1.1.9 2 2 2h14c1.1 0 2-.9 2-2V8c0-1.1-.9-2-2-2zm0 10H5V8h14v8z"/></svg><svg width="24" height="24" viewBox="0 0 24 24" id="ic_crop_24px" y="720"><path d="M0 0h24v24H0z" fill="none"/><path d="M17 15h2V7c0-1.1-.9-2-2-2H9v2h8v8zM7 17V1H5v4H1v2h4v10c0 1.1.9 2 2 2h10v4h2v-4h4v-2H7z"/></svg><svg width="24" height="24" viewBox="0 0 24 24" id="ic_crop_3_2_24px" y="744"><path d="M0 0h24v24H0z" fill="none"/><path d="M19 4H5c-1.1 0-2 .9-2 2v12c0 1.1.9 2 2 2h14c1.1 0 2-.9 2-2V6c0-1.1-.9-2-2-2zm0 14H5V6h14v12z"/></svg><svg width="24" height="24" viewBox="0 0 24 24" id="ic_crop_5_4_24px" y="768"><path d="M0 0h24v24H0z" fill="none"/><path d="M19 5H5c-1.1 0-2 .9-2 2v10c0 1.1.9 2 2 2h14c1.1 0 2-.9 2-2V7c0-1.1-.9-2-2-2zm0 12H5V7h14v10z"/></svg><svg width="24" height="24" viewBox="0 0 24 24" id="ic_crop_7_5_24px" y="792"><path d="M0 0h24v24H0z" fill="none"/><path d="M19 7H5c-1.1 0-2 .9-2 2v6c0 1.1.9 2 2 2h14c1.1 0 2-.9 2-2V9c0-1.1-.9-2-2-2zm0 8H5V9h14v6z"/></svg><svg width="24" height="24" viewBox="0 0 24 24" id="ic_crop_din_24px" y="816"><path d="M0 0h24v24H0z" fill="none"/><path d="M19 3H5c-1.1 0-2 .9-2 2v14c0 1.1.9 2 2 2h14c1.1 0 2-.9 2-2V5c0-1.1-.9-2-2-2zm0 16H5V5h14v14z"/></svg><svg width="24" height="24" viewBox="0 0 24 24" id="ic_crop_free_24px" y="840"><path d="M0 0h24v24H0z" fill="none"/><path d="M3 5v4h2V5h4V3H5c-1.1 0-2 .9-2 2zm2 10H3v4c0 1.1.9 2 2 2h4v-2H5v-4zm14 4h-4v2h4c1.1 0 2-.9 2-2v-4h-2v4zm0-16h-4v2h4v4h2V5c0-1.1-.9-2-2-2z"/></svg><svg width="24" height="24" viewBox="0 0 24 24" id="ic_crop_landscape_24px" y="864"><path d="M0 0h24v24H0z" fill="none"/><path d="M19 5H5c-1.1 0-2 .9-2 2v10c0 1.1.9 2 2 2h14c1.1 0 2-.9 2-2V7c0-1.1-.9-2-2-2zm0 12H5V7h14v10z"/></svg><svg width="24" height="24" viewBox="0 0 24 24" id="ic_crop_original_24px" y="888"><path d="M0 0h24v24H0z" fill="none"/><path d="M19 3H5c-1.1 0-2 .9-2 2v14c0 1.1.9 2 2 2h14c1.1 0 2-.9 2-2V5c0-1.1-.9-2-2-2zm0 16H5V5h14v14zm-5.04-6.71l-2.75 3.54-1.96-2.36L6.5 17h11l-3.54-4.71z"/></svg><svg width="24" height="24" viewBox="0 0 24 24" id="ic_crop_portrait_24px" y="912"><path d="M0 0h24v24H0z" fill="none"/><path d="M17 3H7c-1.1 0-2 .9-2 2v14c0 1.1.9 2 2 2h10c1.1 0 2-.9 2-2V5c0-1.1-.9-2-2-2zm0 16H7V5h10v14z"/></svg><svg width="24" height="24" viewBox="0 0 24 24" id="ic_crop_square_24px" y="936"><path d="M0 0h24v24H0z" fill="none"/><path d="M18 4H6c-1.1 0-2 .9-2 2v12c0 1.1.9 2 2 2h12c1.1 0 2-.9 2-2V6c0-1.1-.9-2-2-2zm0 14H6V6h12v12z"/></svg><svg width="24" height="24" viewBox="0 0 24 24" id="ic_dehaze_24px" y="960"><path d="M2 15.5v2h20v-2H2zm0-5v2h20v-2H2zm0-5v2h20v-2H2z"/><path d="M0 0h24v24H0z" fill="none"/></svg><svg width="24" height="24" viewBox="0 0 24 24" id="ic_details_24px" y="984"><path d="M0 0h24v24H0z" fill="none"/><path d="M3 4l9 16 9-16H3zm3.38 2h11.25L12 16 6.38 6z"/></svg><svg width="24" height="24" viewBox="0 0 24 24" id="ic_edit_24px" y="1008"><path d="M3 17.25V21h3.75L17.81 9.94l-3.75-3.75L3 17.25zM20.71 7.04c.39-.39.39-1.02 0-1.41l-2.34-2.34c-.39-.39-1.02-.39-1.41 0l-1.83 1.83 3.75 3.75 1.83-1.83z"/><path d="M0 0h24v24H0z" fill="none"/></svg><svg width="24" height="24" viewBox="0 0 24 24" id="ic_exposure_24px" y="1032"><path d="M0 0h24v24H0z" fill="none"/><path d="M15 17v2h2v-2h2v-2h-2v-2h-2v2h-2v2h2zm5-15H4c-1.1 0-2 .9-2 2v16c0 1.1.9 2 2 2h16c1.1 0 2-.9 2-2V4c0-1.1-.9-2-2-2zM5 5h6v2H5V5zm15 15H4L20 4v16z"/></svg><svg width="24" height="24" viewBox="0 0 24 24" id="ic_exposure_minus_1_24px" y="1056"><path d="M0 0h24v24H0zm0 0h24v24H0z" fill="none"/><path d="M4 11v2h8v-2H4zm15 7h-2V7.38L14 8.4V6.7L18.7 5h.3v13z"/></svg><svg width="24" height="24" viewBox="0 0 24 24" id="ic_exposure_minus_2_24px" y="1080"><path d="M0 0h24v24H0zm0 0h24v24H0z" fill="none"/><path d="M15.05 16.29l2.86-3.07c.38-.39.72-.79 1.04-1.18.32-.39.59-.78.82-1.17.23-.39.41-.78.54-1.17s.19-.79.19-1.18c0-.53-.09-1.02-.27-1.46-.18-.44-.44-.81-.78-1.11-.34-.31-.77-.54-1.26-.71-.51-.16-1.08-.24-1.72-.24-.69 0-1.31.11-1.85.32-.54.21-1 .51-1.36.88-.37.37-.65.8-.84 1.3-.18.47-.27.97-.28 1.5h2.14c.01-.31.05-.6.13-.87.09-.29.23-.54.4-.75.18-.21.41-.37.68-.49.27-.12.6-.18.96-.18.31 0 .58.05.81.15.23.1.43.25.59.43.16.18.28.4.37.65.08.25.13.52.13.81 0 .22-.03.43-.08.65-.06.22-.15.45-.29.7-.14.25-.32.53-.56.83-.23.3-.52.65-.88 1.03l-4.17 4.55V18H21v-1.71h-5.95zM2 11v2h8v-2H2z"/></svg><svg width="24" height="24" viewBox="0 0 24 24" id="ic_exposure_plus_1_24px" y="1104"><path d="M0 0h24v24H0zm0 0h24v24H0z" fill="none"/><path d="M10 7H8v4H4v2h4v4h2v-4h4v-2h-4V7zm10 11h-2V7.38L15 8.4V6.7L19.7 5h.3v13z"/></svg><svg width="24" height="24" viewBox="0 0 24 24" id="ic_exposure_plus_2_24px" y="1128"><path d="M0 0h24v24H0zm0 0h24v24H0z" fill="none"/><path d="M16.05 16.29l2.86-3.07c.38-.39.72-.79 1.04-1.18.32-.39.59-.78.82-1.17.23-.39.41-.78.54-1.17.13-.39.19-.79.19-1.18 0-.53-.09-1.02-.27-1.46-.18-.44-.44-.81-.78-1.11-.34-.31-.77-.54-1.26-.71-.51-.16-1.08-.24-1.72-.24-.69 0-1.31.11-1.85.32-.54.21-1 .51-1.36.88-.37.37-.65.8-.84 1.3-.18.47-.27.97-.28 1.5h2.14c.01-.31.05-.6.13-.87.09-.29.23-.54.4-.75.18-.21.41-.37.68-.49.27-.12.6-.18.96-.18.31 0 .58.05.81.15.23.1.43.25.59.43.16.18.28.4.37.65.08.25.13.52.13.81 0 .22-.03.43-.08.65-.06.22-.15.45-.29.7-.14.25-.32.53-.56.83-.23.3-.52.65-.88 1.03l-4.17 4.55V18H22v-1.71h-5.95zM8 7H6v4H2v2h4v4h2v-4h4v-2H8V7z"/></svg><svg width="24" height="24" viewBox="0 0 24 24" id="ic_exposure_zero_24px" y="1152"><path d="M0 0h24v24H0zm0 0h24v24H0zm0 0h24v24H0zm0 0h24v24H0z" fill="none"/><path d="M16.14 12.5c0 1-.1 1.85-.3 2.55-.2.7-.48 1.27-.83 1.7-.36.44-.79.75-1.3.95-.51.2-1.07.3-1.7.3-.62 0-1.18-.1-1.69-.3-.51-.2-.95-.51-1.31-.95-.36-.44-.65-1.01-.85-1.7-.2-.7-.3-1.55-.3-2.55v-2.04c0-1 .1-1.85.3-2.55.2-.7.48-1.26.84-1.69.36-.43.8-.74 1.31-.93C10.81 5.1 11.38 5 12 5c.63 0 1.19.1 1.7.29.51.19.95.5 1.31.93.36.43.64.99.84 1.69.2.7.3 1.54.3 2.55v2.04zm-2.11-2.36c0-.64-.05-1.18-.13-1.62-.09-.44-.22-.79-.4-1.06-.17-.27-.39-.46-.64-.58-.25-.13-.54-.19-.86-.19-.32 0-.61.06-.86.18s-.47.31-.64.58c-.17.27-.31.62-.4 1.06s-.13.98-.13 1.62v2.67c0 .64.05 1.18.14 1.62.09.45.23.81.4 1.09s.39.48.64.61.54.19.87.19c.33 0 .62-.06.87-.19s.46-.33.63-.61c.17-.28.3-.64.39-1.09.09-.45.13-.99.13-1.62v-2.66z"/></svg><svg width="24" height="24" viewBox="0 0 24 24" id="ic_filter_1_24px" y="1176"><path d="M0 0h24v24H0z" fill="none"/><path d="M3 5H1v16c0 1.1.9 2 2 2h16v-2H3V5zm11 10h2V5h-4v2h2v8zm7-14H7c-1.1 0-2 .9-2 2v14c0 1.1.9 2 2 2h14c1.1 0 2-.9 2-2V3c0-1.1-.9-2-2-2zm0 16H7V3h14v14z"/></svg><svg width="24" height="24" viewBox="0 0 24 24" id="ic_filter_24px" y="1200"><path d="M0 0h24v24H0z" fill="none"/><path d="M15.96 10.29l-2.75 3.54-1.96-2.36L8.5 15h11l-3.54-4.71zM3 5H1v16c0 1.1.9 2 2 2h16v-2H3V5zm18-4H7c-1.1 0-2 .9-2 2v14c0 1.1.9 2 2 2h14c1.1 0 2-.9 2-2V3c0-1.1-.9-2-2-2zm0 16H7V3h14v14z"/></svg><svg width="24" height="24" viewBox="0 0 24 24" id="ic_filter_2_24px" y="1224"><path d="M0 0h24v24H0z" fill="none"/><path d="M3 5H1v16c0 1.1.9 2 2 2h16v-2H3V5zm18-4H7c-1.1 0-2 .9-2 2v14c0 1.1.9 2 2 2h14c1.1 0 2-.9 2-2V3c0-1.1-.9-2-2-2zm0 16H7V3h14v14zm-4-4h-4v-2h2c1.1 0 2-.89 2-2V7c0-1.11-.9-2-2-2h-4v2h4v2h-2c-1.1 0-2 .89-2 2v4h6v-2z"/></svg><svg width="24" height="24" viewBox="0 0 24 24" id="ic_filter_3_24px" y="1248"><path d="M0 0h24v24H0z" fill="none"/><path d="M21 1H7c-1.1 0-2 .9-2 2v14c0 1.1.9 2 2 2h14c1.1 0 2-.9 2-2V3c0-1.1-.9-2-2-2zm0 16H7V3h14v14zM3 5H1v16c0 1.1.9 2 2 2h16v-2H3V5zm14 8v-1.5c0-.83-.67-1.5-1.5-1.5.83 0 1.5-.67 1.5-1.5V7c0-1.11-.9-2-2-2h-4v2h4v2h-2v2h2v2h-4v2h4c1.1 0 2-.89 2-2z"/></svg><svg width="24" height="24" viewBox="0 0 24 24" id="ic_filter_4_24px" y="1272"><path d="M0 0h24v24H0z" fill="none"/><path d="M3 5H1v16c0 1.1.9 2 2 2h16v-2H3V5zm12 10h2V5h-2v4h-2V5h-2v6h4v4zm6-14H7c-1.1 0-2 .9-2 2v14c0 1.1.9 2 2 2h14c1.1 0 2-.9 2-2V3c0-1.1-.9-2-2-2zm0 16H7V3h14v14z"/></svg><svg width="24" height="24" viewBox="0 0 24 24" id="ic_filter_5_24px" y="1296"><path d="M0 0h24v24H0z" fill="none"/><path d="M21 1H7c-1.1 0-2 .9-2 2v14c0 1.1.9 2 2 2h14c1.1 0 2-.9 2-2V3c0-1.1-.9-2-2-2zm0 16H7V3h14v14zM3 5H1v16c0 1.1.9 2 2 2h16v-2H3V5zm14 8v-2c0-1.11-.9-2-2-2h-2V7h4V5h-6v6h4v2h-4v2h4c1.1 0 2-.89 2-2z"/></svg><svg width="24" height="24" viewBox="0 0 24 24" id="ic_filter_6_24px" y="1320"><path d="M0 0h24v24H0z" fill="none"/><path d="M3 5H1v16c0 1.1.9 2 2 2h16v-2H3V5zm18-4H7c-1.1 0-2 .9-2 2v14c0 1.1.9 2 2 2h14c1.1 0 2-.9 2-2V3c0-1.1-.9-2-2-2zm0 16H7V3h14v14zm-8-2h2c1.1 0 2-.89 2-2v-2c0-1.11-.9-2-2-2h-2V7h4V5h-4c-1.1 0-2 .89-2 2v6c0 1.11.9 2 2 2zm0-4h2v2h-2v-2z"/></svg><svg width="24" height="24" viewBox="0 0 24 24" id="ic_filter_7_24px" y="1344"><path d="M0 0h24v24H0z" fill="none"/><path d="M3 5H1v16c0 1.1.9 2 2 2h16v-2H3V5zm18-4H7c-1.1 0-2 .9-2 2v14c0 1.1.9 2 2 2h14c1.1 0 2-.9 2-2V3c0-1.1-.9-2-2-2zm0 16H7V3h14v14zm-8-2l4-8V5h-6v2h4l-4 8h2z"/></svg><svg width="24" height="24" viewBox="0 0 24 24" id="ic_filter_8_24px" y="1368"><path d="M0 0h24v24H0z" fill="none"/><path d="M3 5H1v16c0 1.1.9 2 2 2h16v-2H3V5zm18-4H7c-1.1 0-2 .9-2 2v14c0 1.1.9 2 2 2h14c1.1 0 2-.9 2-2V3c0-1.1-.9-2-2-2zm0 16H7V3h14v14zm-8-2h2c1.1 0 2-.89 2-2v-1.5c0-.83-.67-1.5-1.5-1.5.83 0 1.5-.67 1.5-1.5V7c0-1.11-.9-2-2-2h-2c-1.1 0-2 .89-2 2v1.5c0 .83.67 1.5 1.5 1.5-.83 0-1.5.67-1.5 1.5V13c0 1.11.9 2 2 2zm0-8h2v2h-2V7zm0 4h2v2h-2v-2z"/></svg><svg width="24" height="24" viewBox="0 0 24 24" id="ic_filter_9_24px" y="1392"><path d="M0 0h24v24H0z" fill="none"/><path d="M3 5H1v16c0 1.1.9 2 2 2h16v-2H3V5zm18-4H7c-1.1 0-2 .9-2 2v14c0 1.1.9 2 2 2h14c1.1 0 2-.9 2-2V3c0-1.1-.9-2-2-2zm0 16H7V3h14v14zM15 5h-2c-1.1 0-2 .89-2 2v2c0 1.11.9 2 2 2h2v2h-4v2h4c1.1 0 2-.89 2-2V7c0-1.11-.9-2-2-2zm0 4h-2V7h2v2z"/></svg><svg width="24" height="24" viewBox="0 0 24 24" id="ic_filter_9_plus_24px" y="1416"><path d="M0 0h24v24H0z" fill="none"/><path d="M3 5H1v16c0 1.1.9 2 2 2h16v-2H3V5zm11 7V8c0-1.11-.9-2-2-2h-1c-1.1 0-2 .89-2 2v1c0 1.11.9 2 2 2h1v1H9v2h3c1.1 0 2-.89 2-2zm-3-3V8h1v1h-1zm10-8H7c-1.1 0-2 .9-2 2v14c0 1.1.9 2 2 2h14c1.1 0 2-.9 2-2V3c0-1.1-.9-2-2-2zm0 8h-2V7h-2v2h-2v2h2v2h2v-2h2v6H7V3h14v6z"/></svg><svg width="24" height="24" viewBox="0 0 24 24" id="ic_filter_b_and_w_24px" y="1440"><path d="M0 0h24v24H0z" fill="none"/><path d="M19 3H5c-1.1 0-2 .9-2 2v14c0 1.1.9 2 2 2h14c1.1 0 2-.9 2-2V5c0-1.1-.9-2-2-2zm0 16l-7-8v8H5l7-8V5h7v14z"/></svg><svg width="24" height="24" viewBox="0 0 24 24" id="ic_filter_center_focus_24px" y="1464"><path d="M0 0h24v24H0z" fill="none"/><path d="M5 15H3v4c0 1.1.9 2 2 2h4v-2H5v-4zM5 5h4V3H5c-1.1 0-2 .9-2 2v4h2V5zm14-2h-4v2h4v4h2V5c0-1.1-.9-2-2-2zm0 16h-4v2h4c1.1 0 2-.9 2-2v-4h-2v4zM12 9c-1.66 0-3 1.34-3 3s1.34 3 3 3 3-1.34 3-3-1.34-3-3-3z"/></svg><svg width="24" height="24" viewBox="0 0 24 24" id="ic_filter_drama_24px" y="1488"><path d="M0 0h24v24H0z" fill="none"/><path d="M19.35 10.04C18.67 6.59 15.64 4 12 4 9.11 4 6.61 5.64 5.36 8.04 2.35 8.36 0 10.9 0 14c0 3.31 2.69 6 6 6h13c2.76 0 5-2.24 5-5 0-2.64-2.05-4.78-4.65-4.96zM19 18H6c-2.21 0-4-1.79-4-4s1.79-4 4-4 4 1.79 4 4h2c0-2.76-1.86-5.08-4.4-5.78C8.61 6.88 10.2 6 12 6c3.03 0 5.5 2.47 5.5 5.5v.5H19c1.65 0 3 1.35 3 3s-1.35 3-3 3z"/></svg><svg width="24" height="24" viewBox="0 0 24 24" id="ic_filter_frames_24px" y="1512"><path d="M0 0h24v24H0z" fill="none"/><path d="M20 4h-4l-4-4-4 4H4c-1.1 0-2 .9-2 2v14c0 1.1.9 2 2 2h16c1.1 0 2-.9 2-2V6c0-1.1-.9-2-2-2zm0 16H4V6h4.52l3.52-3.5L15.52 6H20v14zM18 8H6v10h12"/></svg><svg width="24" height="24" viewBox="0 0 24 24" id="ic_filter_hdr_24px" y="1536"><path d="M0 0h24v24H0z" fill="none"/><path d="M14 6l-3.75 5 2.85 3.8-1.6 1.2C9.81 13.75 7 10 7 10l-6 8h22L14 6z"/></svg><svg width="24" height="24" viewBox="0 0 24 24" id="ic_filter_none_24px" y="1560"><path d="M0 0h24v24H0z" fill="none"/><path d="M3 5H1v16c0 1.1.9 2 2 2h16v-2H3V5zm18-4H7c-1.1 0-2 .9-2 2v14c0 1.1.9 2 2 2h14c1.1 0 2-.9 2-2V3c0-1.1-.9-2-2-2zm0 16H7V3h14v14z"/></svg><svg width="24" height="24" viewBox="0 0 24 24" id="ic_filter_tilt_shift_24px" y="1584"><path d="M0 0h24v24H0z" fill="none"/><path d="M11 4.07V2.05c-2.01.2-3.84 1-5.32 2.21L7.1 5.69c1.11-.86 2.44-1.44 3.9-1.62zm7.32.19C16.84 3.05 15.01 2.25 13 2.05v2.02c1.46.18 2.79.76 3.9 1.62l1.42-1.43zM19.93 11h2.02c-.2-2.01-1-3.84-2.21-5.32L18.31 7.1c.86 1.11 1.44 2.44 1.62 3.9zM5.69 7.1L4.26 5.68C3.05 7.16 2.25 8.99 2.05 11h2.02c.18-1.46.76-2.79 1.62-3.9zM4.07 13H2.05c.2 2.01 1 3.84 2.21 5.32l1.43-1.43c-.86-1.1-1.44-2.43-1.62-3.89zM15 12c0-1.66-1.34-3-3-3s-3 1.34-3 3 1.34 3 3 3 3-1.34 3-3zm3.31 4.9l1.43 1.43c1.21-1.48 2.01-3.32 2.21-5.32h-2.02c-.18 1.45-.76 2.78-1.62 3.89zM13 19.93v2.02c2.01-.2 3.84-1 5.32-2.21l-1.43-1.43c-1.1.86-2.43 1.44-3.89 1.62zm-7.32-.19C7.16 20.95 9 21.75 11 21.95v-2.02c-1.46-.18-2.79-.76-3.9-1.62l-1.42 1.43z"/></svg><svg width="24" height="24" viewBox="0 0 24 24" id="ic_filter_vintage_24px" y="1608"><path d="M0 0h24v24H0z" fill="none"/><path d="M18.7 12.4c-.28-.16-.57-.29-.86-.4.29-.11.58-.24.86-.4 1.92-1.11 2.99-3.12 3-5.19-1.79-1.03-4.07-1.11-6 0-.28.16-.54.35-.78.54.05-.31.08-.63.08-.95 0-2.22-1.21-4.15-3-5.19C10.21 1.85 9 3.78 9 6c0 .32.03.64.08.95-.24-.2-.5-.39-.78-.55-1.92-1.11-4.2-1.03-6 0 0 2.07 1.07 4.08 3 5.19.28.16.57.29.86.4-.29.11-.58.24-.86.4-1.92 1.11-2.99 3.12-3 5.19 1.79 1.03 4.07 1.11 6 0 .28-.16.54-.35.78-.54-.05.32-.08.64-.08.96 0 2.22 1.21 4.15 3 5.19 1.79-1.04 3-2.97 3-5.19 0-.32-.03-.64-.08-.95.24.2.5.38.78.54 1.92 1.11 4.2 1.03 6 0-.01-2.07-1.08-4.08-3-5.19zM12 16c-2.21 0-4-1.79-4-4s1.79-4 4-4 4 1.79 4 4-1.79 4-4 4z"/></svg><svg width="24" height="24" viewBox="0 0 24 24" id="ic_flare_24px" y="1632"><path d="M0 0h24v24H0z" fill="none"/><path d="M7 11H1v2h6v-2zm2.17-3.24L7.05 5.64 5.64 7.05l2.12 2.12 1.41-1.41zM13 1h-2v6h2V1zm5.36 6.05l-1.41-1.41-2.12 2.12 1.41 1.41 2.12-2.12zM17 11v2h6v-2h-6zm-5-2c-1.66 0-3 1.34-3 3s1.34 3 3 3 3-1.34 3-3-1.34-3-3-3zm2.83 7.24l2.12 2.12 1.41-1.41-2.12-2.12-1.41 1.41zm-9.19.71l1.41 1.41 2.12-2.12-1.41-1.41-2.12 2.12zM11 23h2v-6h-2v6z"/></svg><svg width="24" height="24" viewBox="0 0 24 24" id="ic_flash_auto_24px" y="1656"><path d="M0 0h24v24H0z" fill="none"/><path d="M3 2v12h3v9l7-12H9l4-9H3zm16 0h-2l-3.2 9h1.9l.7-2h3.2l.7 2h1.9L19 2zm-2.15 5.65L18 4l1.15 3.65h-2.3z"/></svg><svg width="24" height="24" viewBox="0 0 24 24" id="ic_flash_off_24px" y="1680"><path d="M0 0h24v24H0z" fill="none"/><path d="M3.27 3L2 4.27l5 5V13h3v9l3.58-6.14L17.73 20 19 18.73 3.27 3zM17 10h-4l4-8H7v2.18l8.46 8.46L17 10z"/></svg><svg width="24" height="24" viewBox="0 0 24 24" id="ic_flash_on_24px" y="1704"><path d="M0 0h24v24H0z" fill="none"/><path d="M7 2v11h3v9l7-12h-4l4-8z"/></svg><svg width="24" height="24" viewBox="0 0 24 24" id="ic_flip_24px" y="1728"><path d="M0 0h24v24H0z" fill="none"/><path d="M15 21h2v-2h-2v2zm4-12h2V7h-2v2zM3 5v14c0 1.1.9 2 2 2h4v-2H5V5h4V3H5c-1.1 0-2 .9-2 2zm16-2v2h2c0-1.1-.9-2-2-2zm-8 20h2V1h-2v22zm8-6h2v-2h-2v2zM15 5h2V3h-2v2zm4 8h2v-2h-2v2zm0 8c1.1 0 2-.9 2-2h-2v2z"/></svg><svg width="24" height="24" viewBox="0 0 24 24" id="ic_gradient_24px" y="1752"><path d="M11 9h2v2h-2zm-2 2h2v2H9zm4 0h2v2h-2zm2-2h2v2h-2zM7 9h2v2H7zm12-6H5c-1.1 0-2 .9-2 2v14c0 1.1.9 2 2 2h14c1.1 0 2-.9 2-2V5c0-1.1-.9-2-2-2zM9 18H7v-2h2v2zm4 0h-2v-2h2v2zm4 0h-2v-2h2v2zm2-7h-2v2h2v2h-2v-2h-2v2h-2v-2h-2v2H9v-2H7v2H5v-2h2v-2H5V5h14v6z"/><path d="M0 0h24v24H0z" fill="none"/></svg><svg width="24" height="24" viewBox="0 0 24 24" id="ic_grain_24px" y="1776"><path d="M0 0h24v24H0z" fill="none"/><path d="M10 12c-1.1 0-2 .9-2 2s.9 2 2 2 2-.9 2-2-.9-2-2-2zM6 8c-1.1 0-2 .9-2 2s.9 2 2 2 2-.9 2-2-.9-2-2-2zm0 8c-1.1 0-2 .9-2 2s.9 2 2 2 2-.9 2-2-.9-2-2-2zm12-8c1.1 0 2-.9 2-2s-.9-2-2-2-2 .9-2 2 .9 2 2 2zm-4 8c-1.1 0-2 .9-2 2s.9 2 2 2 2-.9 2-2-.9-2-2-2zm4-4c-1.1 0-2 .9-2 2s.9 2 2 2 2-.9 2-2-.9-2-2-2zm-4-4c-1.1 0-2 .9-2 2s.9 2 2 2 2-.9 2-2-.9-2-2-2zm-4-4c-1.1 0-2 .9-2 2s.9 2 2 2 2-.9 2-2-.9-2-2-2z"/></svg><svg width="24" height="24" viewBox="0 0 24 24" id="ic_grid_off_24px" y="1800"><path d="M0 0h24v24H0z" fill="none"/><path d="M8 4v1.45l2 2V4h4v4h-3.45l2 2H14v1.45l2 2V10h4v4h-3.45l2 2H20v1.45l2 2V4c0-1.1-.9-2-2-2H4.55l2 2H8zm8 0h4v4h-4V4zM1.27 1.27L0 2.55l2 2V20c0 1.1.9 2 2 2h15.46l2 2 1.27-1.27L1.27 1.27zM10 12.55L11.45 14H10v-1.45zm-6-6L5.45 8H4V6.55zM8 20H4v-4h4v4zm0-6H4v-4h3.45l.55.55V14zm6 6h-4v-4h3.45l.55.54V20zm2 0v-1.46L17.46 20H16z"/></svg><svg width="24" height="24" viewBox="0 0 24 24" id="ic_grid_on_24px" y="1824"><path d="M0 0h24v24H0z" fill="none"/><path d="M20 2H4c-1.1 0-2 .9-2 2v16c0 1.1.9 2 2 2h16c1.1 0 2-.9 2-2V4c0-1.1-.9-2-2-2zM8 20H4v-4h4v4zm0-6H4v-4h4v4zm0-6H4V4h4v4zm6 12h-4v-4h4v4zm0-6h-4v-4h4v4zm0-6h-4V4h4v4zm6 12h-4v-4h4v4zm0-6h-4v-4h4v4zm0-6h-4V4h4v4z"/></svg><svg width="24" height="24" viewBox="0 0 24 24" id="ic_hdr_off_24px" y="1848"><path d="M0 0h24v24H0zm0 0h24v24H0z" fill="none"/><path d="M18 17L3.27 2.27 2 3.55l4 4V11H4V7H2v10h2v-4h2v4h2V9.55l1 1V17h4c.67 0 1.26-.33 1.62-.84l6.34 6.34 1.27-1.27L18 17zm-5-2h-2v-2.45l2 2V15zm5-2h1l.82 3.27.73.73H22l-1.19-4.17c.7-.31 1.19-1.01 1.19-1.83V9c0-1.1-.9-2-2-2h-4v5.45l2 2V13zm0-4h2v2h-2V9zm-3 2.45V9c0-1.1-.9-2-2-2h-2.45L15 11.45z"/></svg><svg width="24" height="24" viewBox="0 0 24 24" id="ic_hdr_on_24px" y="1872"><path d="M0 0h24v24H0z" fill="none"/><path d="M6 11H4V7H2v10h2v-4h2v4h2V7H6v4zm7-4H9v10h4c1.1 0 2-.9 2-2V9c0-1.1-.9-2-2-2zm0 8h-2V9h2v6zm9-4V9c0-1.1-.9-2-2-2h-4v10h2v-4h1l1 4h2l-1.19-4.17c.7-.31 1.19-1.01 1.19-1.83zm-2 0h-2V9h2v2z"/><path d="M0 0h24v24H0z" fill="none"/></svg><svg width="24" height="24" viewBox="0 0 24 24" id="ic_hdr_strong_24px" y="1896"><path d="M0 0h24v24H0z" fill="none"/><path d="M17 6c-3.31 0-6 2.69-6 6s2.69 6 6 6 6-2.69 6-6-2.69-6-6-6zM5 8c-2.21 0-4 1.79-4 4s1.79 4 4 4 4-1.79 4-4-1.79-4-4-4zm0 6c-1.1 0-2-.9-2-2s.9-2 2-2 2 .9 2 2-.9 2-2 2z"/></svg><svg width="24" height="24" viewBox="0 0 24 24" id="ic_hdr_weak_24px" y="1920"><path d="M0 0h24v24H0z" fill="none"/><path d="M5 8c-2.21 0-4 1.79-4 4s1.79 4 4 4 4-1.79 4-4-1.79-4-4-4zm12-2c-3.31 0-6 2.69-6 6s2.69 6 6 6 6-2.69 6-6-2.69-6-6-6zm0 10c-2.21 0-4-1.79-4-4s1.79-4 4-4 4 1.79 4 4-1.79 4-4 4z"/></svg><svg width="24" height="24" viewBox="0 0 24 24" id="ic_healing_24px" y="1944"><path d="M0 0h24v24H0z" fill="none"/><path d="M17.73 12.02l3.98-3.98c.39-.39.39-1.02 0-1.41l-4.34-4.34c-.39-.39-1.02-.39-1.41 0l-3.98 3.98L8 2.29C7.8 2.1 7.55 2 7.29 2c-.25 0-.51.1-.7.29L2.25 6.63c-.39.39-.39 1.02 0 1.41l3.98 3.98L2.25 16c-.39.39-.39 1.02 0 1.41l4.34 4.34c.39.39 1.02.39 1.41 0l3.98-3.98 3.98 3.98c.2.2.45.29.71.29.26 0 .51-.1.71-.29l4.34-4.34c.39-.39.39-1.02 0-1.41l-3.99-3.98zM12 9c.55 0 1 .45 1 1s-.45 1-1 1-1-.45-1-1 .45-1 1-1zm-4.71 1.96L3.66 7.34l3.63-3.63 3.62 3.62-3.62 3.63zM10 13c-.55 0-1-.45-1-1s.45-1 1-1 1 .45 1 1-.45 1-1 1zm2 2c-.55 0-1-.45-1-1s.45-1 1-1 1 .45 1 1-.45 1-1 1zm2-4c.55 0 1 .45 1 1s-.45 1-1 1-1-.45-1-1 .45-1 1-1zm2.66 9.34l-3.63-3.62 3.63-3.63 3.62 3.62-3.62 3.63z"/></svg><svg width="24" height="24" viewBox="0 0 24 24" id="ic_image_24px" y="1968"><path d="M0 0h24v24H0z" fill="none"/><path d="M21 19V5c0-1.1-.9-2-2-2H5c-1.1 0-2 .9-2 2v14c0 1.1.9 2 2 2h14c1.1 0 2-.9 2-2zM8.5 13.5l2.5 3.01L14.5 12l4.5 6H5l3.5-4.5z"/></svg><svg width="24" height="24" viewBox="0 0 24 24" id="ic_image_aspect_ratio_24px" y="1992"><path d="M0 0h24v24H0z" fill="none"/><path d="M16 10h-2v2h2v-2zm0 4h-2v2h2v-2zm-8-4H6v2h2v-2zm4 0h-2v2h2v-2zm8-6H4c-1.1 0-2 .9-2 2v12c0 1.1.9 2 2 2h16c1.1 0 2-.9 2-2V6c0-1.1-.9-2-2-2zm0 14H4V6h16v12z"/></svg><svg width="24" height="24" viewBox="0 0 24 24" id="ic_iso_24px" y="2016"><path d="M0 0h24v24H0zm0 0h24v24H0z" fill="none"/><path d="M19 3H5c-1.1 0-2 .9-2 2v14c0 1.1.9 2 2 2h14c1.1 0 2-.9 2-2V5c0-1.1-.9-2-2-2zM5.5 7.5h2v-2H9v2h2V9H9v2H7.5V9h-2V7.5zM19 19H5L19 5v14zm-2-2v-1.5h-5V17h5z"/></svg><svg width="24" height="24" viewBox="0 0 24 24" id="ic_landscape_24px" y="2040"><path d="M0 0h24v24H0z" fill="none"/><path d="M14 6l-3.75 5 2.85 3.8-1.6 1.2C9.81 13.75 7 10 7 10l-6 8h22L14 6z"/></svg><svg width="24" height="24" viewBox="0 0 24 24" id="ic_leak_add_24px" y="2064"><path d="M0 0h24v24H0z" fill="none"/><path d="M6 3H3v3c1.66 0 3-1.34 3-3zm8 0h-2c0 4.97-4.03 9-9 9v2c6.08 0 11-4.93 11-11zm-4 0H8c0 2.76-2.24 5-5 5v2c3.87 0 7-3.13 7-7zm0 18h2c0-4.97 4.03-9 9-9v-2c-6.07 0-11 4.93-11 11zm8 0h3v-3c-1.66 0-3 1.34-3 3zm-4 0h2c0-2.76 2.24-5 5-5v-2c-3.87 0-7 3.13-7 7z"/></svg><svg width="24" height="24" viewBox="0 0 24 24" id="ic_leak_remove_24px" y="2088"><path d="M0 0h24v24H0z" fill="none"/><path d="M10 3H8c0 .37-.04.72-.12 1.06l1.59 1.59C9.81 4.84 10 3.94 10 3zM3 4.27l2.84 2.84C5.03 7.67 4.06 8 3 8v2c1.61 0 3.09-.55 4.27-1.46L8.7 9.97C7.14 11.24 5.16 12 3 12v2c2.71 0 5.19-.99 7.11-2.62l2.5 2.5C10.99 15.81 10 18.29 10 21h2c0-2.16.76-4.14 2.03-5.69l1.43 1.43C14.55 17.91 14 19.39 14 21h2c0-1.06.33-2.03.89-2.84L19.73 21 21 19.73 4.27 3 3 4.27zM14 3h-2c0 1.5-.37 2.91-1.02 4.16l1.46 1.46C13.42 6.98 14 5.06 14 3zm5.94 13.12c.34-.08.69-.12 1.06-.12v-2c-.94 0-1.84.19-2.66.52l1.6 1.6zm-4.56-4.56l1.46 1.46C18.09 12.37 19.5 12 21 12v-2c-2.06 0-3.98.58-5.62 1.56z"/></svg><svg width="24" height="24" viewBox="0 0 24 24" id="ic_lens_24px" y="2112"><path d="M0 0h24v24H0z" fill="none"/><path d="M12 2C6.48 2 2 6.48 2 12s4.48 10 10 10 10-4.48 10-10S17.52 2 12 2z"/></svg><svg width="24" height="24" viewBox="0 0 24 24" id="ic_looks_24px" y="2136"><path d="M0 0h24v24H0z" fill="none"/><path d="M12 10c-3.86 0-7 3.14-7 7h2c0-2.76 2.24-5 5-5s5 2.24 5 5h2c0-3.86-3.14-7-7-7zm0-4C5.93 6 1 10.93 1 17h2c0-4.96 4.04-9 9-9s9 4.04 9 9h2c0-6.07-4.93-11-11-11z"/></svg><svg width="24" height="24" viewBox="0 0 24 24" id="ic_looks_3_24px" y="2160"><path d="M.01 0h24v24h-24z" fill="none"/><path d="M19.01 3h-14c-1.1 0-2 .9-2 2v14c0 1.1.9 2 2 2h14c1.1 0 2-.9 2-2V5c0-1.1-.9-2-2-2zm-4 7.5c0 .83-.67 1.5-1.5 1.5.83 0 1.5.67 1.5 1.5V15c0 1.11-.9 2-2 2h-4v-2h4v-2h-2v-2h2V9h-4V7h4c1.1 0 2 .89 2 2v1.5z"/></svg><svg width="24" height="24" viewBox="0 0 24 24" id="ic_looks_4_24px" y="2184"><path d="M0 0h24v24H0z" fill="none"/><path d="M19 3H5c-1.1 0-2 .9-2 2v14c0 1.1.9 2 2 2h14c1.1 0 2-.9 2-2V5c0-1.1-.9-2-2-2zm-4 14h-2v-4H9V7h2v4h2V7h2v10z"/></svg><svg width="24" height="24" viewBox="0 0 24 24" id="ic_looks_5_24px" y="2208"><path d="M0 0h24v24H0z" fill="none"/><path d="M19 3H5c-1.1 0-2 .9-2 2v14c0 1.1.9 2 2 2h14c1.1 0 2-.9 2-2V5c0-1.1-.9-2-2-2zm-4 6h-4v2h2c1.1 0 2 .89 2 2v2c0 1.11-.9 2-2 2H9v-2h4v-2H9V7h6v2z"/></svg><svg width="24" height="24" viewBox="0 0 24 24" id="ic_looks_6_24px" y="2232"><path d="M0 0h24v24H0z" fill="none"/><path d="M11 15h2v-2h-2v2zm8-12H5c-1.1 0-2 .9-2 2v14c0 1.1.9 2 2 2h14c1.1 0 2-.9 2-2V5c0-1.1-.9-2-2-2zm-4 6h-4v2h2c1.1 0 2 .89 2 2v2c0 1.11-.9 2-2 2h-2c-1.1 0-2-.89-2-2V9c0-1.11.9-2 2-2h4v2z"/></svg><svg width="24" height="24" viewBox="0 0 24 24" id="ic_looks_one_24px" y="2256"><path d="M0 0h24v24H0z" fill="none"/><path d="M19 3H5c-1.1 0-2 .9-2 2v14c0 1.1.9 2 2 2h14c1.1 0 2-.9 2-2V5c0-1.1-.9-2-2-2zm-5 14h-2V9h-2V7h4v10z"/></svg><svg width="24" height="24" viewBox="0 0 24 24" id="ic_looks_two_24px" y="2280"><path d="M0 0h24v24H0z" fill="none"/><path d="M19 3H5c-1.1 0-2 .9-2 2v14c0 1.1.9 2 2 2h14c1.1 0 2-.9 2-2V5c0-1.1-.9-2-2-2zm-4 8c0 1.11-.9 2-2 2h-2v2h4v2H9v-4c0-1.11.9-2 2-2h2V9H9V7h4c1.1 0 2 .89 2 2v2z"/></svg><svg width="24" height="24" viewBox="0 0 24 24" id="ic_loupe_24px" y="2304"><path d="M13 7h-2v4H7v2h4v4h2v-4h4v-2h-4V7zm-1-5C6.49 2 2 6.49 2 12s4.49 10 10 10h8c1.1 0 2-.9 2-2v-8c0-5.51-4.49-10-10-10zm0 18c-4.41 0-8-3.59-8-8s3.59-8 8-8 8 3.59 8 8-3.59 8-8 8z"/><path d="M0 0h24v24H0z" fill="none"/></svg><svg width="24" height="24" viewBox="0 0 24 24" id="ic_movie_creation_24px" y="2328"><path d="M18 4l2 4h-3l-2-4h-2l2 4h-3l-2-4H8l2 4H7L5 4H4c-1.1 0-1.99.9-1.99 2L2 18c0 1.1.9 2 2 2h16c1.1 0 2-.9 2-2V4h-4z"/><path d="M0 0h24v24H0z" fill="none"/></svg><svg width="24" height="24" viewBox="0 0 24 24" id="ic_nature_24px" y="2352"><path d="M0 0h24v24H0z" fill="none"/><path d="M13 16.12c3.47-.41 6.17-3.36 6.17-6.95 0-3.87-3.13-7-7-7s-7 3.13-7 7c0 3.47 2.52 6.34 5.83 6.89V20H5v2h14v-2h-6v-3.88z"/></svg><svg width="24" height="24" viewBox="0 0 24 24" id="ic_nature_people_24px" y="2376"><path d="M0 0h24v24H0z" fill="none"/><path d="M22.17 9.17c0-3.87-3.13-7-7-7s-7 3.13-7 7c0 3.47 2.52 6.34 5.83 6.89V20H6v-3h1v-4c0-.55-.45-1-1-1H3c-.55 0-1 .45-1 1v4h1v5h16v-2h-3v-3.88c3.47-.41 6.17-3.36 6.17-6.95zM4.5 11c.83 0 1.5-.67 1.5-1.5S5.33 8 4.5 8 3 8.67 3 9.5 3.67 11 4.5 11z"/></svg><svg width="24" height="24" viewBox="0 0 24 24" id="ic_navigate_before_24px" y="2400"><path d="M15.41 7.41L14 6l-6 6 6 6 1.41-1.41L10.83 12z"/><path d="M0 0h24v24H0z" fill="none"/></svg><svg width="24" height="24" viewBox="0 0 24 24" id="ic_navigate_next_24px" y="2424"><path d="M10 6L8.59 7.41 13.17 12l-4.58 4.59L10 18l6-6z"/><path d="M0 0h24v24H0z" fill="none"/></svg><svg width="24" height="24" viewBox="0 0 24 24" id="ic_palette_24px" y="2448"><path d="M12 3c-4.97 0-9 4.03-9 9s4.03 9 9 9c.83 0 1.5-.67 1.5-1.5 0-.39-.15-.74-.39-1.01-.23-.26-.38-.61-.38-.99 0-.83.67-1.5 1.5-1.5H16c2.76 0 5-2.24 5-5 0-4.42-4.03-8-9-8zm-5.5 9c-.83 0-1.5-.67-1.5-1.5S5.67 9 6.5 9 8 9.67 8 10.5 7.33 12 6.5 12zm3-4C8.67 8 8 7.33 8 6.5S8.67 5 9.5 5s1.5.67 1.5 1.5S10.33 8 9.5 8zm5 0c-.83 0-1.5-.67-1.5-1.5S13.67 5 14.5 5s1.5.67 1.5 1.5S15.33 8 14.5 8zm3 4c-.83 0-1.5-.67-1.5-1.5S16.67 9 17.5 9s1.5.67 1.5 1.5-.67 1.5-1.5 1.5z"/><path d="M0 0h24v24H0z" fill="none"/></svg><svg width="24" height="24" viewBox="0 0 24 24" id="ic_panorama_24px" y="2472"><path d="M0 0h24v24H0z" fill="none"/><path d="M23 18V6c0-1.1-.9-2-2-2H3c-1.1 0-2 .9-2 2v12c0 1.1.9 2 2 2h18c1.1 0 2-.9 2-2zM8.5 12.5l2.5 3.01L14.5 11l4.5 6H5l3.5-4.5z"/></svg><svg width="24" height="24" viewBox="0 0 24 24" id="ic_panorama_fisheye_24px" y="2496"><path d="M0 0h24v24H0z" fill="none"/><path d="M12 2C6.47 2 2 6.47 2 12s4.47 10 10 10 10-4.47 10-10S17.53 2 12 2zm0 18c-4.41 0-8-3.59-8-8s3.59-8 8-8 8 3.59 8 8-3.59 8-8 8z"/></svg><svg width="24" height="24" viewBox="0 0 24 24" id="ic_panorama_horizontal_24px" y="2520"><path d="M20 6.54v10.91c-2.6-.77-5.28-1.16-8-1.16-2.72 0-5.4.39-8 1.16V6.54c2.6.77 5.28 1.16 8 1.16 2.72.01 5.4-.38 8-1.16M21.43 4c-.1 0-.2.02-.31.06C18.18 5.16 15.09 5.7 12 5.7c-3.09 0-6.18-.55-9.12-1.64-.11-.04-.22-.06-.31-.06-.34 0-.57.23-.57.63v14.75c0 .39.23.62.57.62.1 0 .2-.02.31-.06 2.94-1.1 6.03-1.64 9.12-1.64 3.09 0 6.18.55 9.12 1.64.11.04.21.06.31.06.33 0 .57-.23.57-.63V4.63c0-.4-.24-.63-.57-.63z"/><path d="M0 0h24v24H0z" fill="none"/></svg><svg width="24" height="24" viewBox="0 0 24 24" id="ic_panorama_vertical_24px" y="2544"><path d="M19.94 21.12c-1.1-2.94-1.64-6.03-1.64-9.12 0-3.09.55-6.18 1.64-9.12.04-.11.06-.22.06-.31 0-.34-.23-.57-.63-.57H4.63c-.4 0-.63.23-.63.57 0 .1.02.2.06.31C5.16 5.82 5.71 8.91 5.71 12c0 3.09-.55 6.18-1.64 9.12-.05.11-.07.22-.07.31 0 .33.23.57.63.57h14.75c.39 0 .63-.24.63-.57-.01-.1-.03-.2-.07-.31zM6.54 20c.77-2.6 1.16-5.28 1.16-8 0-2.72-.39-5.4-1.16-8h10.91c-.77 2.6-1.16 5.28-1.16 8 0 2.72.39 5.4 1.16 8H6.54z"/><path d="M0 0h24v24H0z" fill="none"/></svg><svg width="24" height="24" viewBox="0 0 24 24" id="ic_panorama_wide_angle_24px" y="2568"><path d="M0 0h24v24H0z" fill="none"/><path d="M12 6c2.45 0 4.71.2 7.29.64.47 1.78.71 3.58.71 5.36 0 1.78-.24 3.58-.71 5.36-2.58.44-4.84.64-7.29.64s-4.71-.2-7.29-.64C4.24 15.58 4 13.78 4 12c0-1.78.24-3.58.71-5.36C7.29 6.2 9.55 6 12 6m0-2c-2.73 0-5.22.24-7.95.72l-.93.16-.25.9C2.29 7.85 2 9.93 2 12s.29 4.15.87 6.22l.25.89.93.16c2.73.49 5.22.73 7.95.73s5.22-.24 7.95-.72l.93-.16.25-.89c.58-2.08.87-4.16.87-6.23s-.29-4.15-.87-6.22l-.25-.89-.93-.16C17.22 4.24 14.73 4 12 4z"/></svg><svg width="24" height="24" viewBox="0 0 24 24" id="ic_photo_24px" y="2592"><path d="M0 0h24v24H0z" fill="none"/><path d="M21 19V5c0-1.1-.9-2-2-2H5c-1.1 0-2 .9-2 2v14c0 1.1.9 2 2 2h14c1.1 0 2-.9 2-2zM8.5 13.5l2.5 3.01L14.5 12l4.5 6H5l3.5-4.5z"/></svg><svg width="24" height="24" viewBox="0 0 24 24" id="ic_photo_album_24px" y="2616"><path d="M0 0h24v24H0z" fill="none"/><path d="M18 2H6c-1.1 0-2 .9-2 2v16c0 1.1.9 2 2 2h12c1.1 0 2-.9 2-2V4c0-1.1-.9-2-2-2zM6 4h5v8l-2.5-1.5L6 12V4zm0 15l3-3.86 2.14 2.58 3-3.86L18 19H6z"/></svg><svg width="24" height="24" viewBox="0 0 24 24" id="ic_photo_camera_24px" y="2640"><circle cx="12" cy="12" r="3.2"/><path d="M9 2L7.17 4H4c-1.1 0-2 .9-2 2v12c0 1.1.9 2 2 2h16c1.1 0 2-.9 2-2V6c0-1.1-.9-2-2-2h-3.17L15 2H9zm3 15c-2.76 0-5-2.24-5-5s2.24-5 5-5 5 2.24 5 5-2.24 5-5 5z"/><path d="M0 0h24v24H0z" fill="none"/></svg><svg width="24" height="24" viewBox="0 0 24 24" id="ic_photo_library_24px" y="2664"><path d="M0 0h24v24H0z" fill="none"/><path d="M22 16V4c0-1.1-.9-2-2-2H8c-1.1 0-2 .9-2 2v12c0 1.1.9 2 2 2h12c1.1 0 2-.9 2-2zm-11-4l2.03 2.71L16 11l4 5H8l3-4zM2 6v14c0 1.1.9 2 2 2h14v-2H4V6H2z"/></svg><svg width="24" height="24" viewBox="0 0 24 24" id="ic_portrait_24px" y="2688"><path d="M0 0h24v24H0z" fill="none"/><path d="M12 12.25c1.24 0 2.25-1.01 2.25-2.25S13.24 7.75 12 7.75 9.75 8.76 9.75 10s1.01 2.25 2.25 2.25zm4.5 4c0-1.5-3-2.25-4.5-2.25s-4.5.75-4.5 2.25V17h9v-.75zM19 3H5c-1.1 0-2 .9-2 2v14c0 1.1.9 2 2 2h14c1.1 0 2-.9 2-2V5c0-1.1-.9-2-2-2zm0 16H5V5h14v14z"/></svg><svg width="24" height="24" viewBox="0 0 24 24" id="ic_remove_red_eye_24px" y="2712"><path d="M0 0h24v24H0z" fill="none"/><path d="M12 4.5C7 4.5 2.73 7.61 1 12c1.73 4.39 6 7.5 11 7.5s9.27-3.11 11-7.5c-1.73-4.39-6-7.5-11-7.5zM12 17c-2.76 0-5-2.24-5-5s2.24-5 5-5 5 2.24 5 5-2.24 5-5 5zm0-8c-1.66 0-3 1.34-3 3s1.34 3 3 3 3-1.34 3-3-1.34-3-3-3z"/></svg><svg width="24" height="24" viewBox="0 0 24 24" id="ic_rotate_left_24px" y="2736"><path d="M0 0h24v24H0z" fill="none"/><path d="M7.11 8.53L5.7 7.11C4.8 8.27 4.24 9.61 4.07 11h2.02c.14-.87.49-1.72 1.02-2.47zM6.09 13H4.07c.17 1.39.72 2.73 1.62 3.89l1.41-1.42c-.52-.75-.87-1.59-1.01-2.47zm1.01 5.32c1.16.9 2.51 1.44 3.9 1.61V17.9c-.87-.15-1.71-.49-2.46-1.03L7.1 18.32zM13 4.07V1L8.45 5.55 13 10V6.09c2.84.48 5 2.94 5 5.91s-2.16 5.43-5 5.91v2.02c3.95-.49 7-3.85 7-7.93s-3.05-7.44-7-7.93z"/></svg><svg width="24" height="24" viewBox="0 0 24 24" id="ic_rotate_right_24px" y="2760"><path d="M0 0h24v24H0z" fill="none"/><path d="M15.55 5.55L11 1v3.07C7.06 4.56 4 7.92 4 12s3.05 7.44 7 7.93v-2.02c-2.84-.48-5-2.94-5-5.91s2.16-5.43 5-5.91V10l4.55-4.45zM19.93 11c-.17-1.39-.72-2.73-1.62-3.89l-1.42 1.42c.54.75.88 1.6 1.02 2.47h2.02zM13 17.9v2.02c1.39-.17 2.74-.71 3.9-1.61l-1.44-1.44c-.75.54-1.59.89-2.46 1.03zm3.89-2.42l1.42 1.41c.9-1.16 1.45-2.5 1.62-3.89h-2.02c-.14.87-.48 1.72-1.02 2.48z"/></svg><svg width="24" height="24" viewBox="0 0 24 24" id="ic_slideshow_24px" y="2784"><path d="M0 0h24v24H0z" fill="none"/><path d="M10 8v8l5-4-5-4zm9-5H5c-1.1 0-2 .9-2 2v14c0 1.1.9 2 2 2h14c1.1 0 2-.9 2-2V5c0-1.1-.9-2-2-2zm0 16H5V5h14v14z"/></svg><svg width="24" height="24" viewBox="0 0 24 24" id="ic_straighten_24px" y="2808"><path d="M0 0h24v24H0z" fill="none"/><path d="M21 6H3c-1.1 0-2 .9-2 2v8c0 1.1.9 2 2 2h18c1.1 0 2-.9 2-2V8c0-1.1-.9-2-2-2zm0 10H3V8h2v4h2V8h2v4h2V8h2v4h2V8h2v4h2V8h2v8z"/></svg><svg width="24" height="24" viewBox="0 0 24 24" id="ic_style_24px" y="2832"><path d="M2.53 19.65l1.34.56v-9.03l-2.43 5.86c-.41 1.02.08 2.19 1.09 2.61zm19.5-3.7L17.07 3.98c-.31-.75-1.04-1.21-1.81-1.23-.26 0-.53.04-.79.15L7.1 5.95c-.75.31-1.21 1.03-1.23 1.8-.01.27.04.54.15.8l4.96 11.97c.31.76 1.05 1.22 1.83 1.23.26 0 .52-.05.77-.15l7.36-3.05c1.02-.42 1.51-1.59 1.09-2.6zM7.88 8.75c-.55 0-1-.45-1-1s.45-1 1-1 1 .45 1 1-.45 1-1 1zm-2 11c0 1.1.9 2 2 2h1.45l-3.45-8.34v6.34z"/><path d="M0 0h24v24H0z" fill="none"/></svg><svg width="24" height="24" viewBox="0 0 24 24" id="ic_switch_camera_24px" y="2856"><path d="M0 0h24v24H0z" fill="none"/><path d="M20 4h-3.17L15 2H9L7.17 4H4c-1.1 0-2 .9-2 2v12c0 1.1.9 2 2 2h16c1.1 0 2-.9 2-2V6c0-1.1-.9-2-2-2zm-5 11.5V13H9v2.5L5.5 12 9 8.5V11h6V8.5l3.5 3.5-3.5 3.5z"/></svg><svg width="24" height="24" viewBox="0 0 24 24" id="ic_switch_video_24px" y="2880"><path d="M0 0h24v24H0z" fill="none"/><path d="M18 9.5V6c0-.55-.45-1-1-1H3c-.55 0-1 .45-1 1v12c0 .55.45 1 1 1h14c.55 0 1-.45 1-1v-3.5l4 4v-13l-4 4zm-5 6V13H7v2.5L3.5 12 7 8.5V11h6V8.5l3.5 3.5-3.5 3.5z"/></svg><svg width="24" height="24" viewBox="0 0 24 24" id="ic_tag_faces_24px" y="2904"><path d="M0 0h24v24H0z" fill="none"/><path d="M11.99 2C6.47 2 2 6.48 2 12s4.47 10 9.99 10C17.52 22 22 17.52 22 12S17.52 2 11.99 2zM12 20c-4.42 0-8-3.58-8-8s3.58-8 8-8 8 3.58 8 8-3.58 8-8 8zm3.5-9c.83 0 1.5-.67 1.5-1.5S16.33 8 15.5 8 14 8.67 14 9.5s.67 1.5 1.5 1.5zm-7 0c.83 0 1.5-.67 1.5-1.5S9.33 8 8.5 8 7 8.67 7 9.5 7.67 11 8.5 11zm3.5 6.5c2.33 0 4.31-1.46 5.11-3.5H6.89c.8 2.04 2.78 3.5 5.11 3.5z"/></svg><svg width="24" height="24" viewBox="0 0 24 24" id="ic_texture_24px" y="2928"><path d="M0 0h24v24H0z" fill="none"/><path d="M19.51 3.08L3.08 19.51c.09.34.27.65.51.9.25.24.56.42.9.51L20.93 4.49c-.19-.69-.73-1.23-1.42-1.41zM11.88 3L3 11.88v2.83L14.71 3h-2.83zM5 3c-1.1 0-2 .9-2 2v2l4-4H5zm14 18c.55 0 1.05-.22 1.41-.59.37-.36.59-.86.59-1.41v-2l-4 4h2zm-9.71 0h2.83L21 12.12V9.29L9.29 21z"/></svg><svg width="24" height="24" viewBox="0 0 24 24" id="ic_timelapse_24px" y="2952"><path d="M0 0h24v24H0z" fill="none"/><path d="M16.24 7.76C15.07 6.59 13.54 6 12 6v6l-4.24 4.24c2.34 2.34 6.14 2.34 8.49 0 2.34-2.34 2.34-6.14-.01-8.48zM12 2C6.48 2 2 6.48 2 12s4.48 10 10 10 10-4.48 10-10S17.52 2 12 2zm0 18c-4.42 0-8-3.58-8-8s3.58-8 8-8 8 3.58 8 8-3.58 8-8 8z"/></svg><svg width="24" height="24" viewBox="0 0 24 24" id="ic_timer_10_24px" y="2976"><path d="M0 0h24v24H0zm0 0h24v24H0z" fill="none"/><path d="M0 7.72V9.4l3-1V18h2V6h-.25L0 7.72zm23.78 6.65c-.14-.28-.35-.53-.63-.74-.28-.21-.61-.39-1.01-.53s-.85-.27-1.35-.38c-.35-.07-.64-.15-.87-.23-.23-.08-.41-.16-.55-.25-.14-.09-.23-.19-.28-.3-.05-.11-.08-.24-.08-.39 0-.14.03-.28.09-.41.06-.13.15-.25.27-.34.12-.1.27-.18.45-.24s.4-.09.64-.09c.25 0 .47.04.66.11.19.07.35.17.48.29.13.12.22.26.29.42.06.16.1.32.1.49h1.95c0-.39-.08-.75-.24-1.09-.16-.34-.39-.63-.69-.88-.3-.25-.66-.44-1.09-.59C21.49 9.07 21 9 20.46 9c-.51 0-.98.07-1.39.21-.41.14-.77.33-1.06.57-.29.24-.51.52-.67.84-.16.32-.23.65-.23 1.01s.08.69.23.96c.15.28.36.52.64.73.27.21.6.38.98.53.38.14.81.26 1.27.36.39.08.71.17.95.26s.43.19.57.29c.13.1.22.22.27.34.05.12.07.25.07.39 0 .32-.13.57-.4.77-.27.2-.66.29-1.17.29-.22 0-.43-.02-.64-.08-.21-.05-.4-.13-.56-.24-.17-.11-.3-.26-.41-.44-.11-.18-.17-.41-.18-.67h-1.89c0 .36.08.71.24 1.05.16.34.39.65.7.93.31.27.69.49 1.15.66.46.17.98.25 1.58.25.53 0 1.01-.06 1.44-.19.43-.13.8-.31 1.11-.54.31-.23.54-.51.71-.83.17-.32.25-.67.25-1.06-.02-.4-.09-.74-.24-1.02zm-9.96-7.32c-.34-.4-.75-.7-1.23-.88-.47-.18-1.01-.27-1.59-.27-.58 0-1.11.09-1.59.27-.48.18-.89.47-1.23.88-.34.41-.6.93-.79 1.59-.18.65-.28 1.45-.28 2.39v1.92c0 .94.09 1.74.28 2.39.19.66.45 1.19.8 1.6.34.41.75.71 1.23.89.48.18 1.01.28 1.59.28.59 0 1.12-.09 1.59-.28.48-.18.88-.48 1.22-.89.34-.41.6-.94.78-1.6.18-.65.28-1.45.28-2.39v-1.92c0-.94-.09-1.74-.28-2.39-.18-.66-.44-1.19-.78-1.59zm-.92 6.17c0 .6-.04 1.11-.12 1.53-.08.42-.2.76-.36 1.02-.16.26-.36.45-.59.57-.23.12-.51.18-.82.18-.3 0-.58-.06-.82-.18s-.44-.31-.6-.57c-.16-.26-.29-.6-.38-1.02-.09-.42-.13-.93-.13-1.53v-2.5c0-.6.04-1.11.13-1.52.09-.41.21-.74.38-1 .16-.25.36-.43.6-.55.24-.11.51-.17.81-.17.31 0 .58.06.81.17.24.11.44.29.6.55.16.25.29.58.37.99.08.41.13.92.13 1.52v2.51z"/></svg><svg width="24" height="24" viewBox="0 0 24 24" id="ic_timer_24px" y="3000"><path d="M0 0h24v24H0z" fill="none"/><path d="M15 1H9v2h6V1zm-4 13h2V8h-2v6zm8.03-6.61l1.42-1.42c-.43-.51-.9-.99-1.41-1.41l-1.42 1.42C16.07 4.74 14.12 4 12 4c-4.97 0-9 4.03-9 9s4.02 9 9 9 9-4.03 9-9c0-2.12-.74-4.07-1.97-5.61zM12 20c-3.87 0-7-3.13-7-7s3.13-7 7-7 7 3.13 7 7-3.13 7-7 7z"/></svg><svg width="24" height="24" viewBox="0 0 24 24" id="ic_timer_3_24px" y="3024"><path d="M0 0h24v24H0zm0 0h24v24H0z" fill="none"/><path d="M11.61 12.97c-.16-.24-.36-.46-.62-.65-.25-.19-.56-.35-.93-.48.3-.14.57-.3.8-.5.23-.2.42-.41.57-.64.15-.23.27-.46.34-.71.08-.24.11-.49.11-.73 0-.55-.09-1.04-.28-1.46-.18-.42-.44-.77-.78-1.06-.33-.28-.73-.5-1.2-.64-.45-.13-.97-.2-1.53-.2-.55 0-1.06.08-1.52.24-.47.17-.87.4-1.2.69-.33.29-.6.63-.78 1.03-.2.39-.29.83-.29 1.29h1.98c0-.26.05-.49.14-.69.09-.2.22-.38.38-.52.17-.14.36-.25.58-.33.22-.08.46-.12.73-.12.61 0 1.06.16 1.36.47.3.31.44.75.44 1.32 0 .27-.04.52-.12.74-.08.22-.21.41-.38.57-.17.16-.38.28-.63.37-.25.09-.55.13-.89.13H6.72v1.57H7.9c.34 0 .64.04.91.11.27.08.5.19.69.35.19.16.34.36.44.61.1.24.16.54.16.87 0 .62-.18 1.09-.53 1.42-.35.33-.84.49-1.45.49-.29 0-.56-.04-.8-.13-.24-.08-.44-.2-.61-.36-.17-.16-.3-.34-.39-.56-.09-.22-.14-.46-.14-.72H4.19c0 .55.11 1.03.32 1.45.21.42.5.77.86 1.05s.77.49 1.24.63.96.21 1.48.21c.57 0 1.09-.08 1.58-.23.49-.15.91-.38 1.26-.68.36-.3.64-.66.84-1.1.2-.43.3-.93.3-1.48 0-.29-.04-.58-.11-.86-.08-.25-.19-.51-.35-.76zm9.26 1.4c-.14-.28-.35-.53-.63-.74-.28-.21-.61-.39-1.01-.53s-.85-.27-1.35-.38c-.35-.07-.64-.15-.87-.23-.23-.08-.41-.16-.55-.25-.14-.09-.23-.19-.28-.3-.05-.11-.08-.24-.08-.39s.03-.28.09-.41c.06-.13.15-.25.27-.34.12-.1.27-.18.45-.24s.4-.09.64-.09c.25 0 .47.04.66.11.19.07.35.17.48.29.13.12.22.26.29.42.06.16.1.32.1.49h1.95c0-.39-.08-.75-.24-1.09-.16-.34-.39-.63-.69-.88-.3-.25-.66-.44-1.09-.59-.43-.15-.92-.22-1.46-.22-.51 0-.98.07-1.39.21-.41.14-.77.33-1.06.57-.29.24-.51.52-.67.84-.16.32-.23.65-.23 1.01s.08.68.23.96c.15.28.37.52.64.73.27.21.6.38.98.53.38.14.81.26 1.27.36.39.08.71.17.95.26s.43.19.57.29c.13.1.22.22.27.34.05.12.07.25.07.39 0 .32-.13.57-.4.77-.27.2-.66.29-1.17.29-.22 0-.43-.02-.64-.08-.21-.05-.4-.13-.56-.24-.17-.11-.3-.26-.41-.44-.11-.18-.17-.41-.18-.67h-1.89c0 .36.08.71.24 1.05.16.34.39.65.7.93.31.27.69.49 1.15.66.46.17.98.25 1.58.25.53 0 1.01-.06 1.44-.19.43-.13.8-.31 1.11-.54.31-.23.54-.51.71-.83.17-.32.25-.67.25-1.06-.02-.4-.09-.74-.24-1.02z"/></svg><svg width="24" height="24" viewBox="0 0 24 24" id="ic_timer_auto_24px" y="3048"><path d="M12 4C9.79 4 8 5.79 8 8s1.79 4 4 4 4-1.79 4-4-1.79-4-4-4zm0 10c-2.67 0-8 1.34-8 4v2h16v-2c0-2.67-5.33-4-8-4z"/><path d="M0 0h24v24H0z" fill="none"/></svg><svg width="24" height="24" viewBox="0 0 24 24" id="ic_timer_off_24px" y="3072"><path d="M0 0h24v24H0zm0 0h24v24H0zm0 0h24v24H0zm0 0h24v24H0zm0 0h24v24H0z" fill="none"/><path d="M19.04 4.55l-1.42 1.42C16.07 4.74 14.12 4 12 4c-1.83 0-3.53.55-4.95 1.48l1.46 1.46C9.53 6.35 10.73 6 12 6c3.87 0 7 3.13 7 7 0 1.27-.35 2.47-.94 3.49l1.45 1.45C20.45 16.53 21 14.83 21 13c0-2.12-.74-4.07-1.97-5.61l1.42-1.42-1.41-1.42zM15 1H9v2h6V1zm-4 8.44l2 2V8h-2v1.44zM3.02 4L1.75 5.27 4.5 8.03C3.55 9.45 3 11.16 3 13c0 4.97 4.02 9 9 9 1.84 0 3.55-.55 4.98-1.5l2.5 2.5 1.27-1.27-7.71-7.71L3.02 4zM12 20c-3.87 0-7-3.13-7-7 0-1.28.35-2.48.95-3.52l9.56 9.56c-1.03.61-2.23.96-3.51.96z"/></svg><svg width="24" height="24" viewBox="0 0 24 24" id="ic_tonality_24px" y="3096"><path d="M0 0h24v24H0z" fill="none"/><path d="M12 2C6.48 2 2 6.48 2 12s4.48 10 10 10 10-4.48 10-10S17.52 2 12 2zm-1 17.93c-3.94-.49-7-3.85-7-7.93s3.05-7.44 7-7.93v15.86zm2-15.86c1.03.13 2 .45 2.87.93H13v-.93zM13 7h5.24c.25.31.48.65.68 1H13V7zm0 3h6.74c.08.33.15.66.19 1H13v-1zm0 9.93V19h2.87c-.87.48-1.84.8-2.87.93zM18.24 17H13v-1h5.92c-.2.35-.43.69-.68 1zm1.5-3H13v-1h6.93c-.04.34-.11.67-.19 1z"/></svg><svg width="24" height="24" viewBox="0 0 24 24" id="ic_transform_24px" y="3120"><path d="M0 0h24v24H0z" fill="none"/><path d="M22 18v-2H8V4h2L7 1 4 4h2v2H2v2h4v8c0 1.1.9 2 2 2h8v2h-2l3 3 3-3h-2v-2h4zM10 8h6v6h2V8c0-1.1-.9-2-2-2h-6v2z"/></svg><svg width="24" height="24" viewBox="0 0 24 24" id="ic_tune_24px" y="3144"><path d="M0 0h24v24H0z" fill="none"/><path d="M3 17v2h6v-2H3zM3 5v2h10V5H3zm10 16v-2h8v-2h-8v-2h-2v6h2zM7 9v2H3v2h4v2h2V9H7zm14 4v-2H11v2h10zm-6-4h2V7h4V5h-4V3h-2v6z"/></svg><svg width="24" height="24" viewBox="0 0 24 24" id="ic_wb_auto_24px" y="3168"><path d="M0 0h24v24H0z" fill="none"/><path d="M6.85 12.65h2.3L8 9l-1.15 3.65zM22 7l-1.2 6.29L19.3 7h-1.6l-1.49 6.29L15 7h-.76C12.77 5.17 10.53 4 8 4c-4.42 0-8 3.58-8 8s3.58 8 8 8c3.13 0 5.84-1.81 7.15-4.43l.1.43H17l1.5-6.1L20 16h1.75l2.05-9H22zm-11.7 9l-.7-2H6.4l-.7 2H3.8L7 7h2l3.2 9h-1.9z"/></svg><svg width="24" height="24" viewBox="0 0 24 24" id="ic_wb_cloudy_24px" y="3192"><path d="M0 0h24v24H0z" fill="none"/><path d="M19.36 10.04C18.67 6.59 15.64 4 12 4 9.11 4 6.6 5.64 5.35 8.04 2.34 8.36 0 10.91 0 14c0 3.31 2.69 6 6 6h13c2.76 0 5-2.24 5-5 0-2.64-2.05-4.78-4.64-4.96z"/></svg><svg width="24" height="24" viewBox="0 0 24 24" id="ic_wb_incandescent_24px" y="3216"><path d="M0 0h24v24H0z" fill="none"/><path d="M3.55 18.54l1.41 1.41 1.79-1.8-1.41-1.41-1.79 1.8zM11 22.45h2V19.5h-2v2.95zM4 10.5H1v2h3v-2zm11-4.19V1.5H9v4.81C7.21 7.35 6 9.28 6 11.5c0 3.31 2.69 6 6 6s6-2.69 6-6c0-2.22-1.21-4.15-3-5.19zm5 4.19v2h3v-2h-3zm-2.76 7.66l1.79 1.8 1.41-1.41-1.8-1.79-1.4 1.4z"/></svg><svg width="24" height="24" viewBox="0 0 24 24" id="ic_wb_irradescent_24px" y="3240"><path d="M0 0h24v24H0z" fill="none"/><path d="M5 14.5h14v-6H5v6zM11 .55V3.5h2V.55h-2zm8.04 2.5l-1.79 1.79 1.41 1.41 1.8-1.79-1.42-1.41zM13 22.45V19.5h-2v2.95h2zm7.45-3.91l-1.8-1.79-1.41 1.41 1.79 1.8 1.42-1.42zM3.55 4.46l1.79 1.79 1.41-1.41-1.79-1.79-1.41 1.41zm1.41 15.49l1.79-1.8-1.41-1.41-1.79 1.79 1.41 1.42z"/></svg><svg width="24" height="24" viewBox="0 0 24 24" id="ic_wb_sunny_24px" y="3264"><path d="M0 0h24v24H0z" fill="none"/><path d="M6.76 4.84l-1.8-1.79-1.41 1.41 1.79 1.79 1.42-1.41zM4 10.5H1v2h3v-2zm9-9.95h-2V3.5h2V.55zm7.45 3.91l-1.41-1.41-1.79 1.79 1.41 1.41 1.79-1.79zm-3.21 13.7l1.79 1.8 1.41-1.41-1.8-1.79-1.4 1.4zM20 10.5v2h3v-2h-3zm-8-5c-3.31 0-6 2.69-6 6s2.69 6 6 6 6-2.69 6-6-2.69-6-6-6zm-1 16.95h2V19.5h-2v2.95zm-7.45-3.91l1.41 1.41 1.79-1.8-1.41-1.41-1.79 1.8z"/></svg></svg>