<svg xmlns="http://www.w3.org/2000/svg" xmlns:xlink="http://www.w3.org/1999/xlink" width="24" height="984" viewBox="0 0 24 984"><svg width="24" height="24" viewBox="0 0 24 24" id="ic_cast_24px" y="0"><path d="M0 0h24v24H0z" opacity=".1" fill="none"/><path d="M0 0h24v24H0z" fill="none"/><path d="M21 3H3c-1.1 0-2 .9-2 2v3h2V5h18v14h-7v2h7c1.1 0 2-.9 2-2V5c0-1.1-.9-2-2-2zM1 18v3h3c0-1.66-1.34-3-3-3zm0-4v2c2.76 0 5 2.24 5 5h2c0-3.87-3.13-7-7-7zm0-4v2c4.97 0 9 4.03 9 9h2c0-6.08-4.93-11-11-11z"/></svg><svg width="24" height="24" viewBox="0 0 24 24" id="ic_cast_connected_24px" y="24"><path d="M0 0h24v24H0z" opacity=".1" fill="none"/><path d="M0 0h24v24H0z" fill="none"/><path d="M1 18v3h3c0-1.66-1.34-3-3-3zm0-4v2c2.76 0 5 2.24 5 5h2c0-3.87-3.13-7-7-7zm18-7H5v1.63c3.96 1.28 7.09 4.41 8.37 8.37H19V7zM1 10v2c4.97 0 9 4.03 9 9h2c0-6.08-4.93-11-11-11zm20-7H3c-1.1 0-2 .9-2 2v3h2V5h18v14h-7v2h7c1.1 0 2-.9 2-2V5c0-1.1-.9-2-2-2z"/></svg><svg width="24" height="24" viewBox="0 0 24 24" id="ic_computer_24px" y="48"><path d="M0 0h24v24H0z" fill="none"/><path d="M20 18c1.1 0 1.99-.9 1.99-2L22 6c0-1.1-.9-2-2-2H4c-1.1 0-2 .9-2 2v10c0 1.1.9 2 2 2H0v2h24v-2h-4zM4 6h16v10H4V6z"/></svg><svg width="24" height="24" viewBox="0 0 24 24" id="ic_desktop_mac_24px" y="72"><path d="M0 0h24v24H0z" fill="none"/><path d="M21 2H3c-1.1 0-2 .9-2 2v12c0 1.1.9 2 2 2h7l-2 3v1h8v-1l-2-3h7c1.1 0 2-.9 2-2V4c0-1.1-.9-2-2-2zm0 12H3V4h18v10z"/></svg><svg width="24" height="24" viewBox="0 0 24 24" id="ic_desktop_windows_24px" y="96"><path d="M0 0h24v24H0z" fill="none"/><path d="M21 2H3c-1.1 0-2 .9-2 2v12c0 1.1.9 2 2 2h7v2H8v2h8v-2h-2v-2h7c1.1 0 2-.9 2-2V4c0-1.1-.9-2-2-2zm0 14H3V4h18v12z"/></svg><svg width="24" height="24" viewBox="0 0 24 24" id="ic_dock_24px" y="120"><path d="M0 0h24v24H0z" fill="none"/><path d="M8 23h8v-2H8v2zm8-21.99L8 1c-1.1 0-2 .9-2 2v14c0 1.1.9 2 2 2h8c1.1 0 2-.9 2-2V3c0-1.1-.9-1.99-2-1.99zM16 15H8V5h8v10z"/></svg><svg width="24" height="24" viewBox="0 0 24 24" id="ic_gamepad_24px" y="144"><path d="M0 0h24v24H0z" fill="none"/><path d="M15 7.5V2H9v5.5l3 3 3-3zM7.5 9H2v6h5.5l3-3-3-3zM9 16.5V22h6v-5.5l-3-3-3 3zM16.5 9l-3 3 3 3H22V9h-5.5z"/></svg><svg width="24" height="24" viewBox="0 0 24 24" id="ic_headset_24px" y="168"><path d="M0 0h24v24H0z" opacity=".1" fill="none"/><path d="M12 1c-4.97 0-9 4.03-9 9v7c0 1.66 1.34 3 3 3h3v-8H5v-2c0-3.87 3.13-7 7-7s7 3.13 7 7v2h-4v8h3c1.66 0 3-1.34 3-3v-7c0-4.97-4.03-9-9-9z"/></svg><svg width="24" height="24" viewBox="0 0 24 24" id="ic_headset_mic_24px" y="192"><path d="M0 0h24v24H0z" opacity=".1" fill="none"/><path d="M12 1c-4.97 0-9 4.03-9 9v7c0 1.66 1.34 3 3 3h3v-8H5v-2c0-3.87 3.13-7 7-7s7 3.13 7 7v2h-4v8h4v1h-7v2h6c1.66 0 3-1.34 3-3V10c0-4.97-4.03-9-9-9z"/></svg><svg width="24" height="24" viewBox="0 0 24 24" id="ic_keyboard_24px" y="216"><path d="M20 5H4c-1.1 0-1.99.9-1.99 2L2 17c0 1.1.9 2 2 2h16c1.1 0 2-.9 2-2V7c0-1.1-.9-2-2-2zm-9 3h2v2h-2V8zm0 3h2v2h-2v-2zM8 8h2v2H8V8zm0 3h2v2H8v-2zm-1 2H5v-2h2v2zm0-3H5V8h2v2zm9 7H8v-2h8v2zm0-4h-2v-2h2v2zm0-3h-2V8h2v2zm3 3h-2v-2h2v2zm0-3h-2V8h2v2z"/><path d="M0 0h24v24H0zm0 0h24v24H0z" fill="none"/></svg><svg width="24" height="24" viewBox="0 0 24 24" id="ic_keyboard_alt_24px" y="240"><path d="M0-1h24v24H0z" fill="none"/><path d="M15.5 10c.83 0 1.5-.67 1.5-1.5S16.33 7 15.5 7 14 7.67 14 8.5s.67 1.5 1.5 1.5zm-7 0c.83 0 1.5-.67 1.5-1.5S9.33 7 8.5 7 7 7.67 7 8.5 7.67 10 8.5 10zm3.5 7c2.61 0 4.83-1.67 5.65-4H6.35c.82 2.33 3.04 4 5.65 4zm-.01-16C6.47 1 2 5.48 2 11s4.47 10 9.99 10C17.52 21 22 16.52 22 11S17.52 1 11.99 1zM12 19c-4.42 0-8-3.58-8-8s3.58-8 8-8 8 3.58 8 8-3.58 8-8 8z"/></svg><svg width="24" height="24" viewBox="0 0 24 24" id="ic_keyboard_arrow_down_24px" y="264"><path d="M7.41 7.84L12 12.42l4.59-4.58L18 9.25l-6 6-6-6z"/><path d="M0-.75h24v24H0z" fill="none"/></svg><svg width="24" height="24" viewBox="0 0 24 24" id="ic_keyboard_arrow_left_24px" y="288"><path d="M15.41 16.09l-4.58-4.59 4.58-4.59L14 5.5l-6 6 6 6z"/><path d="M0-.5h24v24H0z" fill="none"/></svg><svg width="24" height="24" viewBox="0 0 24 24" id="ic_keyboard_arrow_right_24px" y="312"><path d="M8.59 16.34l4.58-4.59-4.58-4.59L10 5.75l6 6-6 6z"/><path d="M0-.25h24v24H0z" fill="none"/></svg><svg width="24" height="24" viewBox="0 0 24 24" id="ic_keyboard_arrow_up_24px" y="336"><path d="M7.41 15.41L12 10.83l4.59 4.58L18 14l-6-6-6 6z"/><path d="M0 0h24v24H0z" fill="none"/></svg><svg width="24" height="24" viewBox="0 0 24 24" id="ic_keyboard_backspace_24px" y="360"><path d="M0 0h24v24H0z" fill="none"/><path d="M21 11H6.83l3.58-3.59L9 6l-6 6 6 6 1.41-1.41L6.83 13H21z"/></svg><svg width="24" height="24" viewBox="0 0 24 24" id="ic_keyboard_capslock_24px" y="384"><path d="M12 8.41L16.59 13 18 11.59l-6-6-6 6L7.41 13 12 8.41zM6 18h12v-2H6v2z"/><path d="M0 0h24v24H0z" fill="none"/></svg><svg width="24" height="24" viewBox="0 0 24 24" id="ic_keyboard_control_24px" y="408"><path d="M0 0h24v24H0z" fill="none"/><path d="M6 10c-1.1 0-2 .9-2 2s.9 2 2 2 2-.9 2-2-.9-2-2-2zm12 0c-1.1 0-2 .9-2 2s.9 2 2 2 2-.9 2-2-.9-2-2-2zm-6 0c-1.1 0-2 .9-2 2s.9 2 2 2 2-.9 2-2-.9-2-2-2z"/></svg><svg width="24" height="24" viewBox="0 0 24 24" id="ic_keyboard_hide_24px" y="432"><path d="M0 0h24v24H0z" fill="none"/><path d="M20 3H4c-1.1 0-1.99.9-1.99 2L2 15c0 1.1.9 2 2 2h16c1.1 0 2-.9 2-2V5c0-1.1-.9-2-2-2zm-9 3h2v2h-2V6zm0 3h2v2h-2V9zM8 6h2v2H8V6zm0 3h2v2H8V9zm-1 2H5V9h2v2zm0-3H5V6h2v2zm9 7H8v-2h8v2zm0-4h-2V9h2v2zm0-3h-2V6h2v2zm3 3h-2V9h2v2zm0-3h-2V6h2v2zm-7 15l4-4H8l4 4z"/></svg><svg width="24" height="24" viewBox="0 0 24 24" id="ic_keyboard_return_24px" y="456"><path d="M0 0h24v24H0z" fill="none"/><path d="M19 7v4H5.83l3.58-3.59L8 6l-6 6 6 6 1.41-1.41L5.83 13H21V7z"/></svg><svg width="24" height="24" viewBox="0 0 24 24" id="ic_keyboard_tab_24px" y="480"><path d="M0 0h24v24H0z" fill="none"/><path d="M11.59 7.41L15.17 11H1v2h14.17l-3.59 3.59L13 18l6-6-6-6-1.41 1.41zM20 6v12h2V6h-2z"/></svg><svg width="24" height="24" viewBox="0 0 24 24" id="ic_keyboard_voice_24px" y="504"><path d="M12 15c1.66 0 2.99-1.34 2.99-3L15 6c0-1.66-1.34-3-3-3S9 4.34 9 6v6c0 1.66 1.34 3 3 3zm5.3-3c0 3-2.54 5.1-5.3 5.1S6.7 15 6.7 12H5c0 3.42 2.72 6.23 6 6.72V22h2v-3.28c3.28-.48 6-3.3 6-6.72h-1.7z"/><path d="M0 0h24v24H0z" fill="none"/></svg><svg width="24" height="24" viewBox="0 0 24 24" id="ic_laptop_24px" y="528"><path d="M-618-1720H782v3600H-618zM0 0h24v24H0z" fill="none"/><path d="M20 18c1.1 0 2-.9 2-2V6c0-1.1-.9-2-2-2H4c-1.1 0-2 .9-2 2v10c0 1.1.9 2 2 2H0v2h24v-2h-4zM4 6h16v10H4V6z"/></svg><svg width="24" height="24" viewBox="0 0 24 24" id="ic_laptop_chromebook_24px" y="552"><path d="M0 0h24v24H0z" fill="none"/><path d="M22 18V3H2v15H0v2h24v-2h-2zm-8 0h-4v-1h4v1zm6-3H4V5h16v10z"/></svg><svg width="24" height="24" viewBox="0 0 24 24" id="ic_laptop_mac_24px" y="576"><path d="M0 0h24v24H0z" fill="none"/><path d="M20 18c1.1 0 1.99-.9 1.99-2L22 5c0-1.1-.9-2-2-2H4c-1.1 0-2 .9-2 2v11c0 1.1.9 2 2 2H0c0 1.1.9 2 2 2h20c1.1 0 2-.9 2-2h-4zM4 5h16v11H4V5zm8 14c-.55 0-1-.45-1-1s.45-1 1-1 1 .45 1 1-.45 1-1 1z"/></svg><svg width="24" height="24" viewBox="0 0 24 24" id="ic_laptop_windows_24px" y="600"><path d="M0 0h24v24H0z" fill="none"/><path d="M20 18v-1c1.1 0 1.99-.9 1.99-2L22 5c0-1.1-.9-2-2-2H4c-1.1 0-2 .9-2 2v10c0 1.1.9 2 2 2v1H0v2h24v-2h-4zM4 5h16v10H4V5z"/></svg><svg width="24" height="24" viewBox="0 0 24 24" id="ic_memory_24px" y="624"><path d="M0 0h24v24H0z" fill="none"/><path d="M15 9H9v6h6V9zm-2 4h-2v-2h2v2zm8-2V9h-2V7c0-1.1-.9-2-2-2h-2V3h-2v2h-2V3H9v2H7c-1.1 0-2 .9-2 2v2H3v2h2v2H3v2h2v2c0 1.1.9 2 2 2h2v2h2v-2h2v2h2v-2h2c1.1 0 2-.9 2-2v-2h2v-2h-2v-2h2zm-4 6H7V7h10v10z"/></svg><svg width="24" height="24" viewBox="0 0 24 24" id="ic_mouse_24px" y="648"><path d="M0 0h24v24H0z" fill="none"/><path d="M13 1.07V9h7c0-4.08-3.05-7.44-7-7.93zM4 15c0 4.42 3.58 8 8 8s8-3.58 8-8v-4H4v4zm7-13.93C7.05 1.56 4 4.92 4 9h7V1.07z"/></svg><svg width="24" height="24" viewBox="0 0 24 24" id="ic_phone_android_24px" y="672"><path d="M16 1H8C6.34 1 5 2.34 5 4v16c0 1.66 1.34 3 3 3h8c1.66 0 3-1.34 3-3V4c0-1.66-1.34-3-3-3zm-2 20h-4v-1h4v1zm3.25-3H6.75V4h10.5v14z"/><path d="M0 0h24v24H0z" fill="none"/></svg><svg width="24" height="24" viewBox="0 0 24 24" id="ic_phone_iphone_24px" y="696"><path d="M15.5 1h-8C6.12 1 5 2.12 5 3.5v17C5 21.88 6.12 23 7.5 23h8c1.38 0 2.5-1.12 2.5-2.5v-17C18 2.12 16.88 1 15.5 1zm-4 21c-.83 0-1.5-.67-1.5-1.5s.67-1.5 1.5-1.5 1.5.67 1.5 1.5-.67 1.5-1.5 1.5zm4.5-4H7V4h9v14z"/><path d="M0 0h24v24H0z" fill="none"/></svg><svg width="24" height="24" viewBox="0 0 24 24" id="ic_phonelink_24px" y="720"><path d="M0 0h24v24H0z" fill="none"/><path d="M4 6h18V4H4c-1.1 0-2 .9-2 2v11H0v3h14v-3H4V6zm19 2h-6c-.55 0-1 .45-1 1v10c0 .55.45 1 1 1h6c.55 0 1-.45 1-1V9c0-.55-.45-1-1-1zm-1 9h-4v-7h4v7z"/></svg><svg width="24" height="24" viewBox="0 0 24 24" id="ic_phonelink_off_24px" y="744"><path d="M0 0h24v24H0zm0 0h24v24H0z" fill="none"/><path d="M22 6V4H6.82l2 2H22zM1.92 1.65L.65 2.92l1.82 1.82C2.18 5.08 2 5.52 2 6v11H0v3h17.73l2.35 2.35 1.27-1.27L3.89 3.62 1.92 1.65zM4 6.27L14.73 17H4V6.27zM23 8h-6c-.55 0-1 .45-1 1v4.18l2 2V10h4v7h-2.18l3 3H23c.55 0 1-.45 1-1V9c0-.55-.45-1-1-1z"/></svg><svg width="24" height="24" viewBox="0 0 24 24" id="ic_security_24px" y="768"><path d="M12 1L3 5v6c0 5.55 3.84 10.74 9 12 5.16-1.26 9-6.45 9-12V5l-9-4zm0 10.99h7c-.53 4.12-3.28 7.79-7 8.94V12H5V6.3l7-3.11v8.8z"/><path d="M0 0h24v24H0z" fill="none"/></svg><svg width="24" height="24" viewBox="0 0 24 24" id="ic_sim_card_24px" y="792"><path d="M19.99 4c0-1.1-.89-2-1.99-2h-8L4 8v12c0 1.1.9 2 2 2h12.01c1.1 0 1.99-.9 1.99-2l-.01-16zM9 19H7v-2h2v2zm8 0h-2v-2h2v2zm-8-4H7v-4h2v4zm4 4h-2v-4h2v4zm0-6h-2v-2h2v2zm4 2h-2v-4h2v4z"/><path d="M0 0h24v24H0z" fill="none"/></svg><svg width="24" height="24" viewBox="0 0 24 24" id="ic_smartphone_24px" y="816"><path d="M0 0h24v24H0z" fill="none"/><path d="M17 1.01L7 1c-1.1 0-2 .9-2 2v18c0 1.1.9 2 2 2h10c1.1 0 2-.9 2-2V3c0-1.1-.9-1.99-2-1.99zM17 19H7V5h10v14z"/></svg><svg width="24" height="24" viewBox="0 0 24 24" id="ic_speaker_24px" y="840"><path d="M0 0h24v24H0z" fill="none"/><path d="M17 2H7c-1.1 0-2 .9-2 2v16c0 1.1.9 1.99 2 1.99L17 22c1.1 0 2-.9 2-2V4c0-1.1-.9-2-2-2zm-5 2c1.1 0 2 .9 2 2s-.9 2-2 2c-1.11 0-2-.9-2-2s.89-2 2-2zm0 16c-2.76 0-5-2.24-5-5s2.24-5 5-5 5 2.24 5 5-2.24 5-5 5zm0-8c-1.66 0-3 1.34-3 3s1.34 3 3 3 3-1.34 3-3-1.34-3-3-3z"/></svg><svg width="24" height="24" viewBox="0 0 24 24" id="ic_tablet_24px" y="864"><path d="M0 0h24v24H0z" fill="none"/><path d="M21 4H3c-1.1 0-2 .9-2 2v12c0 1.1.9 2 2 2h18c1.1 0 1.99-.9 1.99-2L23 6c0-1.1-.9-2-2-2zm-2 14H5V6h14v12z"/></svg><svg width="24" height="24" viewBox="0 0 24 24" id="ic_tablet_android_24px" y="888"><path d="M18 0H6C4.34 0 3 1.34 3 3v18c0 1.66 1.34 3 3 3h12c1.66 0 3-1.34 3-3V3c0-1.66-1.34-3-3-3zm-4 22h-4v-1h4v1zm5.25-3H4.75V3h14.5v16z"/></svg><svg width="24" height="24" viewBox="0 0 24 24" id="ic_tablet_mac_24px" y="912"><path d="M18.5 0h-14C3.12 0 2 1.12 2 2.5v19C2 22.88 3.12 24 4.5 24h14c1.38 0 2.5-1.12 2.5-2.5v-19C21 1.12 19.88 0 18.5 0zm-7 23c-.83 0-1.5-.67-1.5-1.5s.67-1.5 1.5-1.5 1.5.67 1.5 1.5-.67 1.5-1.5 1.5zm7.5-4H4V3h15v16z"/></svg><svg width="24" height="24" viewBox="0 0 24 24" id="ic_tv_24px" y="936"><path d="M0 0h24v24H0z" fill="none"/><path d="M21 3H3c-1.1 0-2 .9-2 2v12c0 1.1.9 2 2 2h5v2h8v-2h5c1.1 0 1.99-.9 1.99-2L23 5c0-1.1-.9-2-2-2zm0 14H3V5h18v12z"/></svg><svg width="24" height="24" viewBox="0 0 24 24" id="ic_watch_24px" y="960"><path d="M0 0h24v24H0z" opacity=".1" fill="none"/><path d="M20 12c0-2.54-1.19-4.81-3.04-6.27L16 0H8l-.95 5.73C5.19 7.19 4 9.45 4 12s1.19 4.81 3.05 6.27L8 24h8l.96-5.73C18.81 16.81 20 14.54 20 12zM6 12c0-3.31 2.69-6 6-6s6 2.69 6 6-2.69 6-6 6-6-2.69-6-6z"/></svg></svg>