<svg xmlns="http://www.w3.org/2000/svg" xmlns:xlink="http://www.w3.org/1999/xlink" width="24" height="816" viewBox="0 0 24 816"><svg width="24" height="24" viewBox="0 0 24 24" id="ic_adb_24px" y="0"><path d="M0 0h24v24H0z" fill="none"/><path d="M5 16c0 3.87 3.13 7 7 7s7-3.13 7-7v-4H5v4zM16.12 4.37l2.1-2.1-.82-.83-2.3 2.31C14.16 3.28 13.12 3 12 3s-2.16.28-3.09.75L6.6 1.44l-.82.83 2.1 2.1C6.14 5.64 5 7.68 5 10v1h14v-1c0-2.32-1.14-4.36-2.88-5.63zM9 9c-.55 0-1-.45-1-1s.45-1 1-1 1 .45 1 1-.45 1-1 1zm6 0c-.55 0-1-.45-1-1s.45-1 1-1 1 .45 1 1-.45 1-1 1z"/></svg><svg width="24" height="24" viewBox="0 0 24 24" id="ic_bluetooth_audio_24px" y="24"><path d="M0 0h24v24H0z" fill="none"/><path d="M14.24 12.01l2.32 2.32c.28-.72.44-1.51.44-2.33 0-.82-.16-1.59-.43-2.31l-2.33 2.32zm5.29-5.3l-1.26 1.26c.63 1.21.98 2.57.98 4.02s-.36 2.82-.98 4.02l1.2 1.2c.97-1.54 1.54-3.36 1.54-5.31-.01-1.89-.55-3.67-1.48-5.19zm-3.82 1L10 2H9v7.59L4.41 5 3 6.41 8.59 12 3 17.59 4.41 19 9 14.41V22h1l5.71-5.71-4.3-4.29 4.3-4.29zM11 5.83l1.88 1.88L11 9.59V5.83zm1.88 10.46L11 18.17v-3.76l1.88 1.88z"/></svg><svg width="24" height="24" viewBox="0 0 24 24" id="ic_disc_full_24px" y="48"><path d="M0 0h24v24H0z" fill="none"/><path d="M20 16h2v-2h-2v2zm0-9v5h2V7h-2zM10 4c-4.42 0-8 3.58-8 8s3.58 8 8 8 8-3.58 8-8-3.58-8-8-8zm0 10c-1.1 0-2-.9-2-2s.9-2 2-2 2 .9 2 2-.9 2-2 2z"/></svg><svg width="24" height="24" viewBox="0 0 24 24" id="ic_dnd_forwardslash_24px" y="72"><path d="M-618-1464H782v3600H-618zM0 0h24v24H0z" fill="none"/><path d="M12 2C6.5 2 2 6.5 2 12s4.5 10 10 10 10-4.5 10-10S17.5 2 12 2zM4 12c0-4.4 3.6-8 8-8 1.8 0 3.5.6 4.9 1.7L5.7 16.9C4.6 15.5 4 13.8 4 12zm8 8c-1.8 0-3.5-.6-4.9-1.7L18.3 7.1C19.4 8.5 20 10.2 20 12c0 4.4-3.6 8-8 8z"/></svg><svg width="24" height="24" viewBox="0 0 24 24" id="ic_do_not_disturb_24px" y="96"><path d="M0 0h24v24H0z" fill="none"/><path d="M12 2C6.48 2 2 6.48 2 12s4.48 10 10 10 10-4.48 10-10S17.52 2 12 2zm0 18c-4.42 0-8-3.58-8-8 0-1.85.63-3.55 1.69-4.9L16.9 18.31C15.55 19.37 13.85 20 12 20zm6.31-3.1L7.1 5.69C8.45 4.63 10.15 4 12 4c4.42 0 8 3.58 8 8 0 1.85-.63 3.55-1.69 4.9z"/></svg><svg width="24" height="24" viewBox="0 0 24 24" id="ic_drive_eta_24px" y="120"><path d="M18.92 5.01C18.72 4.42 18.16 4 17.5 4h-11c-.66 0-1.21.42-1.42 1.01L3 11v8c0 .55.45 1 1 1h1c.55 0 1-.45 1-1v-1h12v1c0 .55.45 1 1 1h1c.55 0 1-.45 1-1v-8l-2.08-5.99zM6.5 15c-.83 0-1.5-.67-1.5-1.5S5.67 12 6.5 12s1.5.67 1.5 1.5S7.33 15 6.5 15zm11 0c-.83 0-1.5-.67-1.5-1.5s.67-1.5 1.5-1.5 1.5.67 1.5 1.5-.67 1.5-1.5 1.5zM5 10l1.5-4.5h11L19 10H5z"/><path d="M0 0h24v24H0z" fill="none"/></svg><svg width="24" height="24" viewBox="0 0 24 24" id="ic_event_available_24px" y="144"><path d="M0 0h24v24H0z" fill="none"/><path d="M16.53 11.06L15.47 10l-4.88 4.88-2.12-2.12-1.06 1.06L10.59 17l5.94-5.94zM19 3h-1V1h-2v2H8V1H6v2H5c-1.11 0-1.99.9-1.99 2L3 19c0 1.1.89 2 2 2h14c1.1 0 2-.9 2-2V5c0-1.1-.9-2-2-2zm0 16H5V8h14v11z"/></svg><svg width="24" height="24" viewBox="0 0 24 24" id="ic_event_busy_24px" y="168"><path d="M0 0h24v24H0z" fill="none"/><path d="M9.31 17l2.44-2.44L14.19 17l1.06-1.06-2.44-2.44 2.44-2.44L14.19 10l-2.44 2.44L9.31 10l-1.06 1.06 2.44 2.44-2.44 2.44L9.31 17zM19 3h-1V1h-2v2H8V1H6v2H5c-1.11 0-1.99.9-1.99 2L3 19c0 1.1.89 2 2 2h14c1.1 0 2-.9 2-2V5c0-1.1-.9-2-2-2zm0 16H5V8h14v11z"/></svg><svg width="24" height="24" viewBox="0 0 24 24" id="ic_event_note_24px" y="192"><path d="M0 0h24v24H0z" fill="none"/><path d="M17 10H7v2h10v-2zm2-7h-1V1h-2v2H8V1H6v2H5c-1.11 0-1.99.9-1.99 2L3 19c0 1.1.89 2 2 2h14c1.1 0 2-.9 2-2V5c0-1.1-.9-2-2-2zm0 16H5V8h14v11zm-5-5H7v2h7v-2z"/></svg><svg width="24" height="24" viewBox="0 0 24 24" id="ic_folder_special_24px" y="216"><path d="M0 0h24v24H0z" fill="none"/><path d="M20 6h-8l-2-2H4c-1.1 0-2 .9-2 2v12c0 1.1.9 2 2 2h16c1.1 0 2-.9 2-2V8c0-1.1-.9-2-2-2zm-6.42 12L10 15.9 6.42 18l.95-4.07-3.16-2.74 4.16-.36L10 7l1.63 3.84 4.16.36-3.16 2.74.95 4.06z"/></svg><svg width="24" height="24" viewBox="0 0 24 24" id="ic_mms_24px" y="240"><path d="M20 2H4c-1.1 0-1.99.9-1.99 2L2 22l4-4h14c1.1 0 2-.9 2-2V4c0-1.1-.9-2-2-2zM5 14l3.5-4.5 2.5 3.01L14.5 8l4.5 6H5z"/><path d="M0 0h24v24H0z" fill="none"/></svg><svg width="24" height="24" viewBox="0 0 24 24" id="ic_more_24px" y="264"><path d="M0 0h24v24H0z" fill="none"/><path d="M22 3H7c-.69 0-1.23.35-1.59.88L0 12l5.41 8.11c.36.53.97.89 1.66.89H22c1.1 0 2-.9 2-2V5c0-1.1-.9-2-2-2zM9 13.5c-.83 0-1.5-.67-1.5-1.5s.67-1.5 1.5-1.5 1.5.67 1.5 1.5-.67 1.5-1.5 1.5zm5 0c-.83 0-1.5-.67-1.5-1.5s.67-1.5 1.5-1.5 1.5.67 1.5 1.5-.67 1.5-1.5 1.5zm5 0c-.83 0-1.5-.67-1.5-1.5s.67-1.5 1.5-1.5 1.5.67 1.5 1.5-.67 1.5-1.5 1.5z"/></svg><svg width="24" height="24" viewBox="0 0 24 24" id="ic_network_locked_24px" y="288"><path d="M0 0h24v24H0zm0 0h24v24H0z" fill="none"/><path d="M19.5 10c.17 0 .33.03.5.05V1L1 20h13v-3c0-.89.39-1.68 1-2.23v-.27c0-2.48 2.02-4.5 4.5-4.5zm2.5 6v-1.5c0-1.38-1.12-2.5-2.5-2.5S17 13.12 17 14.5V16c-.55 0-1 .45-1 1v4c0 .55.45 1 1 1h5c.55 0 1-.45 1-1v-4c0-.55-.45-1-1-1zm-1 0h-3v-1.5c0-.83.67-1.5 1.5-1.5s1.5.67 1.5 1.5V16z"/></svg><svg width="24" height="24" viewBox="0 0 24 24" id="ic_phone_bluetooth_speaker_24px" y="312"><path d="M0 0h24v24H0z" fill="none"/><path d="M14.71 9.5L17 7.21V11h.5l2.85-2.85L18.21 6l2.15-2.15L17.5 1H17v3.79L14.71 2.5l-.71.71L16.79 6 14 8.79l.71.71zM18 2.91l.94.94-.94.94V2.91zm0 4.3l.94.94-.94.94V7.21zm2 8.29c-1.25 0-2.45-.2-3.57-.57-.35-.11-.74-.03-1.02.24l-2.2 2.2c-2.83-1.44-5.15-3.75-6.59-6.59l2.2-2.21c.28-.26.36-.65.25-1C8.7 6.45 8.5 5.25 8.5 4c0-.55-.45-1-1-1H4c-.55 0-1 .45-1 1 0 9.39 7.61 17 17 17 .55 0 1-.45 1-1v-3.5c0-.55-.45-1-1-1z"/></svg><svg width="24" height="24" viewBox="0 0 24 24" id="ic_phone_forwarded_24px" y="336"><path d="M0 0h24v24H0z" fill="none"/><path d="M18 11l5-5-5-5v3h-4v4h4v3zm2 4.5c-1.25 0-2.45-.2-3.57-.57-.35-.11-.74-.03-1.02.24l-2.2 2.2c-2.83-1.44-5.15-3.75-6.59-6.59l2.2-2.21c.28-.26.36-.65.25-1C8.7 6.45 8.5 5.25 8.5 4c0-.55-.45-1-1-1H4c-.55 0-1 .45-1 1 0 9.39 7.61 17 17 17 .55 0 1-.45 1-1v-3.5c0-.55-.45-1-1-1z"/></svg><svg width="24" height="24" viewBox="0 0 24 24" id="ic_phone_in_talk_24px" y="360"><path d="M0 0h24v24H0z" fill="none"/><path d="M20 15.5c-1.25 0-2.45-.2-3.57-.57-.35-.11-.74-.03-1.02.24l-2.2 2.2c-2.83-1.44-5.15-3.75-6.59-6.59l2.2-2.21c.28-.26.36-.65.25-1C8.7 6.45 8.5 5.25 8.5 4c0-.55-.45-1-1-1H4c-.55 0-1 .45-1 1 0 9.39 7.61 17 17 17 .55 0 1-.45 1-1v-3.5c0-.55-.45-1-1-1zM19 12h2c0-4.97-4.03-9-9-9v2c3.87 0 7 3.13 7 7zm-4 0h2c0-2.76-2.24-5-5-5v2c1.66 0 3 1.34 3 3z"/></svg><svg width="24" height="24" viewBox="0 0 24 24" id="ic_phone_locked_24px" y="384"><path d="M0 0h24v24H0z" fill="none"/><path d="M20 15.5c-1.25 0-2.45-.2-3.57-.57-.35-.11-.74-.03-1.02.24l-2.2 2.2c-2.83-1.44-5.15-3.75-6.59-6.59l2.2-2.21c.28-.26.36-.65.25-1C8.7 6.45 8.5 5.25 8.5 4c0-.55-.45-1-1-1H4c-.55 0-1 .45-1 1 0 9.39 7.61 17 17 17 .55 0 1-.45 1-1v-3.5c0-.55-.45-1-1-1zM20 4v-.5C20 2.12 18.88 1 17.5 1S15 2.12 15 3.5V4c-.55 0-1 .45-1 1v4c0 .55.45 1 1 1h5c.55 0 1-.45 1-1V5c0-.55-.45-1-1-1zm-.8 0h-3.4v-.5c0-.94.76-1.7 1.7-1.7s1.7.76 1.7 1.7V4z"/></svg><svg width="24" height="24" viewBox="0 0 24 24" id="ic_phone_missed_24px" y="408"><path d="M0 0h24v24H0z" fill="none"/><path d="M6.5 5.5L12 11l7-7-1-1-6 6-4.5-4.5H11V3H5v6h1.5V5.5zm17.21 11.17C20.66 13.78 16.54 12 12 12 7.46 12 3.34 13.78.29 16.67c-.18.18-.29.43-.29.71s.11.53.29.71l2.48 2.48c.18.18.43.29.71.29.27 0 .52-.11.7-.28.79-.74 1.69-1.36 2.66-1.85.33-.16.56-.5.56-.9v-3.1c1.45-.48 3-.73 4.6-.73 1.6 0 3.15.25 4.6.72v3.1c0 .39.23.74.56.9.98.49 1.87 1.12 2.67 1.85.18.18.43.28.7.28.28 0 .53-.11.71-.29l2.48-2.48c.18-.18.29-.43.29-.71s-.12-.52-.3-.7z"/></svg><svg width="24" height="24" viewBox="0 0 24 24" id="ic_phone_paused_24px" y="432"><path d="M0 0h24v24H0z" fill="none"/><path d="M17 3h-2v7h2V3zm3 12.5c-1.25 0-2.45-.2-3.57-.57-.35-.11-.74-.03-1.02.24l-2.2 2.2c-2.83-1.44-5.15-3.75-6.59-6.59l2.2-2.21c.28-.26.36-.65.25-1C8.7 6.45 8.5 5.25 8.5 4c0-.55-.45-1-1-1H4c-.55 0-1 .45-1 1 0 9.39 7.61 17 17 17 .55 0 1-.45 1-1v-3.5c0-.55-.45-1-1-1zM19 3v7h2V3h-2z"/></svg><svg width="24" height="24" viewBox="0 0 24 24" id="ic_play_download_24px" y="456"><path d="M0 0h24v24H0z" fill="none"/><path d="M20 6h-4V4l-2-2h-4L8 4v2H4c-1.11 0-1.99.89-1.99 2L2 19c0 1.11.89 2 2 2h16c1.11 0 2-.89 2-2V8c0-1.11-.89-2-2-2zM10 4h4v2h-4V4zm2 15l-5-5h3v-4h4v4h3l-5 5z"/></svg><svg width="24" height="24" viewBox="0 0 24 24" id="ic_play_install_24px" y="480"><path d="M0 0h24v24H0z" fill="none"/><path d="M20 6h-4V4l-2-2h-4L8 4v2H4c-1.11 0-1.99.89-1.99 2L2 19c0 1.11.89 2 2 2h16c1.11 0 2-.89 2-2V8c0-1.11-.89-2-2-2zM10 4h4v2h-4V4zm.5 13.5L7 14l1.41-1.41 2.09 2.09 5.18-5.18 1.41 1.41-6.59 6.59z"/></svg><svg width="24" height="24" viewBox="0 0 24 24" id="ic_sd_card_24px" y="504"><path d="M0 0h24v24H0z" fill="none"/><path d="M18 2h-8L4.02 8 4 20c0 1.1.9 2 2 2h12c1.1 0 2-.9 2-2V4c0-1.1-.9-2-2-2zm-6 6h-2V4h2v4zm3 0h-2V4h2v4zm3 0h-2V4h2v4z"/></svg><svg width="24" height="24" viewBox="0 0 24 24" id="ic_sim_card_alert_24px" y="528"><path d="M0 0h24v24H0z" fill="none"/><path d="M18 2h-8L4.02 8 4 20c0 1.1.9 2 2 2h12c1.1 0 2-.9 2-2V4c0-1.1-.9-2-2-2zm-5 15h-2v-2h2v2zm0-4h-2V8h2v5z"/></svg><svg width="24" height="24" viewBox="0 0 24 24" id="ic_sms_24px" y="552"><path d="M20 2H4c-1.1 0-1.99.9-1.99 2L2 22l4-4h14c1.1 0 2-.9 2-2V4c0-1.1-.9-2-2-2zM9 11H7V9h2v2zm4 0h-2V9h2v2zm4 0h-2V9h2v2z"/><path d="M0 0h24v24H0z" fill="none"/></svg><svg width="24" height="24" viewBox="0 0 24 24" id="ic_sms_failed_24px" y="576"><path d="M0 0h24v24H0z" fill="none"/><path d="M20 2H4c-1.1 0-1.99.9-1.99 2L2 22l4-4h14c1.1 0 2-.9 2-2V4c0-1.1-.9-2-2-2zm-7 12h-2v-2h2v2zm0-4h-2V6h2v4z"/></svg><svg width="24" height="24" viewBox="0 0 24 24" id="ic_sync_24px" y="600"><path d="M12 4V1L8 5l4 4V6c3.31 0 6 2.69 6 6 0 1.01-.25 1.97-.7 2.8l1.46 1.46C19.54 15.03 20 13.57 20 12c0-4.42-3.58-8-8-8zm0 14c-3.31 0-6-2.69-6-6 0-1.01.25-1.97.7-2.8L5.24 7.74C4.46 8.97 4 10.43 4 12c0 4.42 3.58 8 8 8v3l4-4-4-4v3z"/><path d="M0 0h24v24H0z" fill="none"/></svg><svg width="24" height="24" viewBox="0 0 24 24" id="ic_sync_disabled_24px" y="624"><path d="M0 0h24v24H0zm0 0h24v24H0z" fill="none"/><path d="M10 6.35V4.26c-.8.21-1.55.54-2.23.96l1.46 1.46c.25-.12.5-.24.77-.33zm-7.14-.94l2.36 2.36C4.45 8.99 4 10.44 4 12c0 2.21.91 4.2 2.36 5.64L4 20h6v-6l-2.24 2.24C6.68 15.15 6 13.66 6 12c0-1 .25-1.94.68-2.77l8.08 8.08c-.25.13-.5.25-.77.34v2.09c.8-.21 1.55-.54 2.23-.96l2.36 2.36 1.27-1.27L4.14 4.14 2.86 5.41zM20 4h-6v6l2.24-2.24C17.32 8.85 18 10.34 18 12c0 1-.25 1.94-.68 2.77l1.46 1.46C19.55 15.01 20 13.56 20 12c0-2.21-.91-4.2-2.36-5.64L20 4z"/></svg><svg width="24" height="24" viewBox="0 0 24 24" id="ic_sync_problem_24px" y="648"><path d="M0 0h24v24H0z" fill="none"/><path d="M3 12c0 2.21.91 4.2 2.36 5.64L3 20h6v-6l-2.24 2.24C5.68 15.15 5 13.66 5 12c0-2.61 1.67-4.83 4-5.65V4.26C5.55 5.15 3 8.27 3 12zm8 5h2v-2h-2v2zM21 4h-6v6l2.24-2.24C18.32 8.85 19 10.34 19 12c0 2.61-1.67 4.83-4 5.65v2.09c3.45-.89 6-4.01 6-7.74 0-2.21-.91-4.2-2.36-5.64L21 4zm-10 9h2V7h-2v6z"/></svg><svg width="24" height="24" viewBox="0 0 24 24" id="ic_system_update_24px" y="672"><path d="M0 0h24v24H0z" fill="none"/><path d="M17 1.01L7 1c-1.1 0-2 .9-2 2v18c0 1.1.9 2 2 2h10c1.1 0 2-.9 2-2V3c0-1.1-.9-1.99-2-1.99zM17 19H7V5h10v14zm-1-6h-3V8h-2v5H8l4 4 4-4z"/></svg><svg width="24" height="24" viewBox="0 0 24 24" id="ic_tap_and_play_24px" y="696"><path d="M0 0h24v24H0z" fill="none"/><path d="M2 16v2c2.76 0 5 2.24 5 5h2c0-3.87-3.13-7-7-7zm0 4v3h3c0-1.66-1.34-3-3-3zm0-8v2c4.97 0 9 4.03 9 9h2c0-6.08-4.92-11-11-11zM17 1.01L7 1c-1.1 0-2 .9-2 2v7.37c.69.16 1.36.37 2 .64V5h10v13h-3.03c.52 1.25.84 2.59.95 4H17c1.1 0 2-.9 2-2V3c0-1.1-.9-1.99-2-1.99z"/></svg><svg width="24" height="24" viewBox="0 0 24 24" id="ic_time_to_leave_24px" y="720"><path d="M18.92 5.01C18.72 4.42 18.16 4 17.5 4h-11c-.66 0-1.21.42-1.42 1.01L3 11v8c0 .55.45 1 1 1h1c.55 0 1-.45 1-1v-1h12v1c0 .55.45 1 1 1h1c.55 0 1-.45 1-1v-8l-2.08-5.99zM6.5 15c-.83 0-1.5-.67-1.5-1.5S5.67 12 6.5 12s1.5.67 1.5 1.5S7.33 15 6.5 15zm11 0c-.83 0-1.5-.67-1.5-1.5s.67-1.5 1.5-1.5 1.5.67 1.5 1.5-.67 1.5-1.5 1.5zM5 10l1.5-4.5h11L19 10H5z"/><path d="M0 0h24v24H0z" fill="none"/></svg><svg width="24" height="24" viewBox="0 0 24 24" id="ic_vibration_24px" y="744"><path d="M0 0h24v24H0z" fill="none"/><path d="M0 15h2V9H0v6zm3 2h2V7H3v10zm19-8v6h2V9h-2zm-3 8h2V7h-2v10zM16.5 3h-9C6.67 3 6 3.67 6 4.5v15c0 .83.67 1.5 1.5 1.5h9c.83 0 1.5-.67 1.5-1.5v-15c0-.83-.67-1.5-1.5-1.5zM16 19H8V5h8v14z"/></svg><svg width="24" height="24" viewBox="0 0 24 24" id="ic_voice_chat_24px" y="768"><path d="M0 0h24v24H0z" fill="none"/><path d="M20 2H4c-1.1 0-1.99.9-1.99 2L2 22l4-4h14c1.1 0 2-.9 2-2V4c0-1.1-.9-2-2-2zm-2 12l-4-3.2V14H6V6h8v3.2L18 6v8z"/></svg><svg width="24" height="24" viewBox="0 0 24 24" id="ic_vpn_lock_24px" y="792"><path d="M22 4v-.5C22 2.12 20.88 1 19.5 1S17 2.12 17 3.5V4c-.55 0-1 .45-1 1v4c0 .55.45 1 1 1h5c.55 0 1-.45 1-1V5c0-.55-.45-1-1-1zm-.8 0h-3.4v-.5c0-.94.76-1.7 1.7-1.7s1.7.76 1.7 1.7V4zm-2.28 8c.04.33.08.66.08 1 0 2.08-.8 3.97-2.1 5.39-.26-.81-1-1.39-1.9-1.39h-1v-3c0-.55-.45-1-1-1H7v-2h2c.55 0 1-.45 1-1V8h2c1.1 0 2-.9 2-2V3.46c-.95-.3-1.95-.46-3-.46C5.48 3 1 7.48 1 13s4.48 10 10 10 10-4.48 10-10c0-.34-.02-.67-.05-1h-2.03zM10 20.93c-3.95-.49-7-3.85-7-7.93 0-.62.08-1.21.21-1.79L8 16v1c0 1.1.9 2 2 2v1.93z"/><path d="M0 0h24v24H0z" fill="none"/></svg></svg>