<?xml version="1.0" encoding="iso-8859-1"?>
<!-- Generator: Adobe Illustrator 18.1.0, SVG Export Plug-In . SVG Version: 6.00 Build 0)  -->
<!DOCTYPE svg PUBLIC "-//W3C//DTD SVG 1.1//EN" "http://www.w3.org/Graphics/SVG/1.1/DTD/svg11.dtd">
<svg version="1.1" id="Layer_4" xmlns="http://www.w3.org/2000/svg" xmlns:xlink="http://www.w3.org/1999/xlink" x="0px" y="0px"
   viewBox="0 0 377.25 288.75" width="990" height="228" xml:space="preserve">
<g id="ground_shadow" style="opacity:0.3;">
  <linearGradient id="SVGID_1_" gradientUnits="userSpaceOnUse" x1="28.75" y1="207.5" x2="665" y2="207.5">
    <stop  offset="0" style="stop-color:#000000"/>
    <stop  offset="0.6" style="stop-color:#000000;stop-opacity:0.2"/>
  </linearGradient>
  <path style="fill:url(#SVGID_1_);" d="M578.75,195L665,145l-17.5-11.25L456.25,140l-10-6.25L48.75,145l-20,23.75l126.25-5
    l-46.25,50l118.75,67.5l71.25-1.25l97.5-56.25l210-6.25l20-12.5l-20-10H578.75z M347.5,202.5l-103.75,23.75l-26.25-15l81.25-45
    l88.75-2.5l60,35L347.5,202.5z M512.5,171.25l-17.5-10l40-2.5L512.5,171.25z"/>
  <linearGradient id="SVGID_2_" gradientUnits="userSpaceOnUse" x1="657.5" y1="201.875" x2="765" y2="201.875">
    <stop  offset="0" style="stop-color:#000000;stop-opacity:0.2"/>
    <stop  offset="1" style="stop-color:#000000;stop-opacity:0"/>
  </linearGradient>
  <polygon style="fill:url(#SVGID_2_);" points="746.25,190 676.25,191.25 657.5,202.5 675,213.75 745,212.5 765,201.25  "/>
</g>
<g id="logo">
  <polygon style="fill:#949494;" points="28.75,52.5 28.75,168.75 48.75,157.5 48.75,63.75  "/>
  <polygon style="fill:#FFFFFF;" points="8.75,157.5 8.75,17.5 127.5,85 127.5,108.75 28.75,52.5 28.75,168.75   "/>
  <polygon style="fill:#949494;" points="248.75,17.5 248.75,157.5 168.75,202.5 148.75,190 228.75,145 228.75,51.25 127.5,108.75 
    127.5,85  "/>
  <polygon style="fill:#D6D6D6;" points="228.75,6.25 128.75,62.5 28.75,6.25 8.75,17.5 127.5,85 248.75,17.5  "/>
  <polygon style="fill:#FFFFFF;" points="208.75,62.5 208.75,133.75 228.75,145 228.75,51.25  "/>
  <polygon style="fill:#D6D6D6;" points="108.75,190 208.75,133.75 228.75,145 148.75,190 227.5,235 307.5,190 327.5,201.25 
    227.5,257.5   "/>
  <polygon style="fill:#FFFFFF;" points="108.75,190 108.75,213.75 227.5,281.25 227.5,257.5  "/>
  <polygon style="fill:#FFFFFF;" points="327.5,201.25 327.5,131.25 307.5,120 307.5,190  "/>
  <polygon style="fill:#949494;" points="227.5,257.5 327.5,201.25 327.5,131.25 347.5,120 347.5,213.75 227.5,281.25  "/>
  <polygon style="fill:#D6D6D6;" points="347.5,120 327.5,131.25 307.5,120 327.5,108.75  "/>
  <polygon style="fill:#949494;" points="327.5,108.75 327.5,85 347.5,73.75 347.5,97.5   "/>
  <polygon style="fill:#FFFFFF;" points="327.5,85 327.5,108.75 307.5,97.5 307.5,73.75   "/>
  <polygon style="fill:#D6D6D6;" points="347.5,73.75 327.5,85 307.5,73.75 327.5,62.5  "/>
</g>
<g id="face_shadow" style="opacity:0.3;">
  <polygon points="228.75,51.25 228.75,66.25 220,56.25  "/>
  <polygon points="208.75,133.75 208.75,68.75 228.75,80 228.75,116.25 217.5,110 217.5,138.75 197.5,140  "/>
  <polygon points="317.5,165 317.5,142.5 307.5,130 307.5,160  "/>
</g>
</svg>
