<svg xmlns="http://www.w3.org/2000/svg" viewBox="0 0 472.48 472.48">
  <path d="M236.23 133.47c-56.66 0-102.76 46.1-102.76 102.76S179.57 339 236.23 339 339 292.9 339 236.23s-46.1-102.76-102.77-102.76zm68.89 48.44l-28.04 28.04a48.97 48.97 0 0 0-14.55-14.56l28.04-28.03a88.48 88.48 0 0 1 14.55 14.55zM324 236.23c0 3.49-.21 6.92-.6 10.3h-39.67a48.57 48.57 0 0 0 0-20.58h39.66c.4 3.37.6 6.8.6 10.28zm-87.77 33.6c-18.52 0-33.6-15.07-33.6-33.6s15.07-33.6 33.6-33.6 33.6 15.07 33.6 33.6-15.07 33.6-33.6 33.6zm-87.76-33.6c0-3.48.21-6.9.6-10.28h39.67a48.58 48.58 0 0 0 0 20.58h-39.66c-.4-3.38-.61-6.81-.61-10.3zm3.72-25.28a87.2 87.2 0 0 1 6.75-16.25l16.24 16.25h-23zm23 50.58l-16.25 16.24a87.25 87.25 0 0 1-6.75-16.24h23zm145.09 0a87.22 87.22 0 0 1-6.75 16.24l-16.24-16.24h22.99zm-22.99-50.58l16.24-16.24a87.2 87.2 0 0 1 6.75 16.24h-22.99zm-35.76-35.77V152.2a87.2 87.2 0 0 1 16.24 6.75l-16.24 16.24zm-15-26.1v39.66a48.57 48.57 0 0 0-20.58 0v-39.66a88.22 88.22 0 0 1 20.58 0zm-35.58 26.1l-16.25-16.24a87.23 87.23 0 0 1 16.25-6.75v23zm-29.04-7.83l28.03 28.04a48.96 48.96 0 0 0-14.55 14.55l-28.03-28.03a88.48 88.48 0 0 1 14.55-14.56zm-14.55 123.22l28.03-28.04a48.97 48.97 0 0 0 14.56 14.55l-28.04 28.04a88.48 88.48 0 0 1-14.55-14.55zm43.59 6.72v22.99a87.27 87.27 0 0 1-16.24-6.75l16.24-16.24zm15 26.1v-39.66a48.58 48.58 0 0 0 20.58 0v39.66a88.35 88.35 0 0 1-20.58 0zm35.58-26.1l16.24 16.24a87.23 87.23 0 0 1-16.24 6.75v-22.99zm29.03 7.82l-28.03-28.03a48.98 48.98 0 0 0 14.55-14.55l28.03 28.03a88.51 88.51 0 0 1-14.55 14.55z"/>
  <path d="M464.41 217.7a25.4 25.4 0 0 0-19.04-6.73l-58.98 4.16a150.88 150.88 0 0 0-29.1-70.1l44.64-38.75a25.35 25.35 0 0 0-17.46-44.5 25.4 25.4 0 0 0-18.22 8.71l-38.81 44.7a150.87 150.87 0 0 0-70.09-29.1l4.15-58.9a25.35 25.35 0 0 0-43.8-19.13 25.4 25.4 0 0 0-6.73 19.05l4.15 58.97a150.88 150.88 0 0 0-70.09 29.1l-38.8-44.68A25.4 25.4 0 0 0 88 61.79a25.4 25.4 0 0 0-18.8 7.4A25.4 25.4 0 0 0 61.8 88c.24 7 3.4 13.65 8.7 18.25l44.68 38.8a150.86 150.86 0 0 0-29.1 70.08l-58.96-4.15a25.44 25.44 0 0 0-19.05 6.73A25.43 25.43 0 0 0 0 236.24c0 7 2.94 13.74 8.05 18.52a25.45 25.45 0 0 0 19.07 6.75l58.97-4.16a150.88 150.88 0 0 0 29.1 70.1l-44.7 38.79a25.4 25.4 0 0 0-8.7 18.23c-.25 7 2.45 13.86 7.4 18.82a25.42 25.42 0 0 0 18.8 7.4c7-.25 13.65-3.42 18.25-8.7l38.8-44.7a150.88 150.88 0 0 0 70.09 29.1l-4.16 58.97a25.4 25.4 0 0 0 6.73 19.05 25.42 25.42 0 0 0 18.54 8.07c7 0 13.74-2.94 18.52-8.05a25.45 25.45 0 0 0 6.75-19.07l-4.16-58.97c26.05-3.65 50-13.94 70.09-29.1l38.76 44.64a25.16 25.16 0 0 0 19.12 8.77h.06c6.76 0 13.12-2.63 17.9-7.41a25.42 25.42 0 0 0 7.41-18.82 25.4 25.4 0 0 0-8.7-18.22l-44.7-38.81a150.86 150.86 0 0 0 29.1-70.09l58.9 4.16a25.35 25.35 0 0 0 19.12-43.81zM377.58 80.32a10.2 10.2 0 0 1 7.42-3.54 10.33 10.33 0 0 1 7.15 18.13l-44.48 38.62c-2.79-3.03-5.7-5.93-8.72-8.72l38.63-44.49zM225.93 26.05a10.2 10.2 0 0 1 2.74-7.76 10.34 10.34 0 0 1 17.87 7.76l-4.13 58.7a152.4 152.4 0 0 0-12.34 0l-4.14-58.7zM80.33 94.9a10.25 10.25 0 0 1-3.55-7.45c-.1-2.9.97-5.62 3.02-7.66a10.24 10.24 0 0 1 7.67-3.02c2.9.1 5.54 1.36 7.44 3.55l38.61 44.47a152.6 152.6 0 0 0-8.72 8.72l-44.46-38.6zM26.08 246.55c-2.9.2-5.66-.78-7.79-2.76a10.22 10.22 0 0 1-3.28-7.55c0-2.9 1.17-5.59 3.3-7.56a10.2 10.2 0 0 1 7.76-2.75l58.68 4.14a153.9 153.9 0 0 0 0 12.34l-58.67 4.14zm68.84 145.6a10.25 10.25 0 0 1-7.45 3.54c-2.89.1-5.61-.97-7.66-3.01a10.23 10.23 0 0 1-3.02-7.68c.1-2.9 1.36-5.53 3.55-7.43l44.48-38.62a152.9 152.9 0 0 0 8.72 8.72L94.9 392.14zm151.64 54.26c.2 2.9-.78 5.66-2.76 7.78a10.22 10.22 0 0 1-7.55 3.29c-2.9 0-5.59-1.17-7.56-3.3a10.22 10.22 0 0 1-2.75-7.76l4.14-58.7a153.85 153.85 0 0 0 12.34 0l4.14 58.69zm145.6-68.83a10.2 10.2 0 0 1 3.55 7.42c.1 2.9-.97 5.63-3.02 7.68a10.25 10.25 0 0 1-7.3 3.02h-.03a10.25 10.25 0 0 1-7.77-3.55l-38.63-44.49c3.02-2.78 5.93-5.7 8.72-8.72l44.49 38.64zm-155.92-4.72c-75.33 0-136.62-61.29-136.62-136.63S160.9 99.61 236.23 99.61s136.63 61.29 136.63 136.62-61.29 136.63-136.63 136.63zm210.94-126.29c-.22 0-.44 0-.74-.02l-58.7-4.14a152.4 152.4 0 0 0 0-12.34l58.7-4.14c2.88-.2 5.64.77 7.76 2.74a10.34 10.34 0 0 1-7.02 17.9z"/>
</svg>
