<svg viewBox="0 0 459.7 459.7" xmlns="http://www.w3.org/2000/svg">
  <path d="M392.4 67.3C349 24 291.2 0 229.9 0S110.7 24 67.3 67.3 0 168.5 0 230s24 119 67.3 162.5c43.4 43.4 101.2 67.3 162.6 67.3s119-23.9 162.5-67.3a228.3 228.3 0 0 0 67.3-162.5c0-61.4-24-119.2-67.3-162.6zM319.6 309c19.3-21.9 29.9-49.7 29.9-79.1 0-29.5-10.6-57.3-30-79.2L387 83.3c37.3 40 57.7 91.7 57.7 146.6S424.3 336.5 387 376.4zm-163.7-5.1c-17.5-17.5-28-40.1-30.3-64.5a46.7 46.7 0 0 0 47.4-5.6 46.3 46.3 0 0 0 56.9 0 46.3 46.3 0 0 0 56.8 0 46.3 46.3 0 0 0 47.4 5.6c-2.2 24.4-12.8 47-30.2 64.5a104 104 0 0 1-74 30.6 104 104 0 0 1-74-30.6zm0-148a104 104 0 0 1 74-30.7 104 104 0 0 1 74 30.7c17.9 17.9 28.5 41.1 30.3 66.1a31.6 31.6 0 0 1-42-3.4 7.5 7.5 0 0 0-10.9 0 31.5 31.5 0 0 1-46 0 7.5 7.5 0 0 0-10.9 0c-6 6.3-14.2 9.8-23 9.8-8.7 0-16.9-3.5-23-9.8a7.5 7.5 0 0 0-10.9 0 31.5 31.5 0 0 1-42 3.4c1.8-25 12.4-48.2 30.4-66.1zm220.5-83.2L309 140.1a118.8 118.8 0 0 0-79.1-29.9c-29.5 0-57.3 10.6-79.2 30L83.3 72.6C123.3 35.4 175 15 230 15c54.8 0 106.6 20.5 146.5 57.7zM15 230c0-55 20.5-106.7 57.7-146.6l67.4 67.4c-19.3 21.9-29.9 49.7-29.9 79.2s10.6 57.2 30 79l-67.5 67.5A213.3 213.3 0 0 1 15 229.9zm68.3 157l67.4-67.3c21.9 19.3 49.7 29.9 79.2 29.9 29.4 0 57.2-10.6 79-30l67.5 67.5a213.3 213.3 0 0 1-146.5 57.7A213.3 213.3 0 0 1 83.3 387z"/>
  <path d="M235.5 58.5c33.3 1 65.2 11.6 92.3 30.6a7.5 7.5 0 0 0 10.5-1.9c2.4-3.4 1.5-8-1.9-10.4A185.7 185.7 0 0 0 236 43.5a7.5 7.5 0 0 0-.5 15zM395 143a186 186 0 0 0-9-15.2 7.5 7.5 0 1 0-12.6 8.2c3 4.5 5.8 9.2 8.3 14a7.5 7.5 0 1 0 13.3-7zM409 178a7.5 7.5 0 1 0-14.4 4.2c8 27.8 8.9 57.5 2.5 85.7a7.5 7.5 0 1 0 14.6 3.3c7-30.7 6-62.9-2.6-93.1zM258.3 292.4c12.9 0 24.9-5.2 33.8-14.5a7.5 7.5 0 1 0-10.8-10.4 31.5 31.5 0 0 1-46 0 7.5 7.5 0 0 0-10.9 0 31.5 31.5 0 0 1-46 0 7.5 7.5 0 1 0-10.8 10.4 46.3 46.3 0 0 0 62.3 4.8c8 6.3 18 9.7 28.4 9.7z"/>
</svg>
