<svg xmlns="http://www.w3.org/2000/svg" viewBox="0 0 436.3 436.3">
  <path d="M433.5 420.8l-73-58c-1.3-1.1-3-1.7-4.6-1.7H237.6l-35-27.9h27.7l19.5 16.4a7.5 7.5 0 0 0 10.5-.9 7.5 7.5 0 0 0-.9-10.6l-21.5-18a7.5 7.5 0 0 0-4.9-1.8H96.7l-83.9-82A7.5 7.5 0 1 0 2.3 247L75 318.3h-12a7.5 7.5 0 1 0 0 15h27.4l38 37.2-63.1 50.3a7.5 7.5 0 0 0 9.3 11.7l70.9-56.4h207.7l70.8 56.4a7.5 7.5 0 0 0 10.6-1.2c2.6-3.2 2-8-1.2-10.5zm-255-87.6l35 28h-73l-28.6-28h66.6z"/>
  <path d="M23.5 144.3h165.1v159.4a7.5 7.5 0 1 0 15 0V144.3h165.2a7.5 7.5 0 0 0 7.2-9.8 189.9 189.9 0 0 0-67.2-94.9A186.7 186.7 0 0 0 196.1 2.2c-41 0-79.9 13-112.6 37.4a189.9 189.9 0 0 0-67.2 95 7.5 7.5 0 0 0 7.2 9.7zm69-92.7c30-22.5 66-34.4 103.6-34.4S269.7 29 299.8 51.6a175 175 0 0 1 58.5 77.7H34a175 175 0 0 1 58.5-77.7zM196.1 382.2a7.5 7.5 0 0 0-7.5 7.5v36a7.5 7.5 0 1 0 15 0v-36c0-4.2-3.3-7.5-7.5-7.5z"/>
</svg>
