<svg width="28" height="28" fill="none" xmlns="http://www.w3.org/2000/svg"><path fill-rule="evenodd" clip-rule="evenodd" d="M4.577 9.064A1 1 0 004 9.97v16.46a1 1 0 001.423.906l18-8.4A1 1 0 0024 18.03V1.57a1 1 0 00-1.423-.906l-18 8.4z" fill="#C2E0FF"/><path fill-rule="evenodd" clip-rule="evenodd" d="M9.383 8h10a2 2 0 012 2v8a2 2 0 01-2 2h-12V10a2 2 0 012-2zm-4 11v-9a4 4 0 014-4h10a4 4 0 014 4v8a4 4 0 01-4 4H3.619c-1.056 0-1.391-1.422-.448-1.894L5.383 19z" fill="url(#give-feedback-linear)"/><rect x="9.383" y="11" width="10" height="2" rx="1" fill="url(#paint1_linear)"/><rect x="9.383" y="15" width="7" height="2" rx="1" fill="url(#paint2_linear)"/><defs><linearGradient id="give-feedback-linear" x1="23.383" y1="22" x2="7.911" y2="1.921" gradientUnits="userSpaceOnUse"><stop stop-color="#0059B3"/><stop offset="1" stop-color="#007FFF"/></linearGradient><linearGradient id="paint1_linear" x1="19.383" y1="13" x2="18.614" y2="9.154" gradientUnits="userSpaceOnUse"><stop stop-color="#0059B3"/><stop offset="1" stop-color="#007FFF"/></linearGradient><linearGradient id="paint2_linear" x1="16.383" y1="17" x2="15.326" y2="13.302" gradientUnits="userSpaceOnUse"><stop stop-color="#0059B3"/><stop offset="1" stop-color="#007FFF"/></linearGradient></defs></svg>