<svg width="28" height="28" fill="none" xmlns="http://www.w3.org/2000/svg"><path fill-rule="evenodd" clip-rule="evenodd" d="M23.423 9.064A1 1 0 0124 9.97v16.46a1 1 0 01-1.423.906l-18-8.4A1 1 0 014 18.03V1.57A1 1 0 015.423.664l18 8.4z" fill="#C2E0FF"/><path d="M6.25 21.122a5.872 5.872 0 015.872-5.872h3.756a5.872 5.872 0 015.872 5.872c0 .9-.729 1.628-1.628 1.628H7.878a1.628 1.628 0 01-1.628-1.628z" stroke="url(#join-community-linear)" stroke-width="2.5"/><circle cx="14" cy="8" r="2.9" stroke="url(#paint1_linear)" stroke-width="2.2"/><defs><linearGradient id="join-community-linear" x1="23" y1="24" x2="14.509" y2="8.717" gradientUnits="userSpaceOnUse"><stop stop-color="#0059B3"/><stop offset="1" stop-color="#007FFF"/></linearGradient><linearGradient id="paint1_linear" x1="18" y1="12" x2="10" y2="4" gradientUnits="userSpaceOnUse"><stop stop-color="#0059B3"/><stop offset="1" stop-color="#007FFF"/></linearGradient></defs></svg>