<svg width="28" height="28" fill="none" xmlns="http://www.w3.org/2000/svg"><path fill-rule="evenodd" clip-rule="evenodd" d="M4.577 9.064A1 1 0 004 9.97v16.46a1 1 0 001.423.906l18-8.4A1 1 0 0024 18.03V1.57a1 1 0 00-1.423-.906l-18 8.4z" fill="#C2E0FF"/><path fill-rule="evenodd" clip-rule="evenodd" d="M7 8h14a2 2 0 012 2H5a2 2 0 012-2zm-4 3v-1a4 4 0 014-4h14a4 4 0 014 4v8a4 4 0 01-4 4H7a4 4 0 01-4-4v-7zm20 1v6a2 2 0 01-2 2H7a2 2 0 01-2-2v-6h18z" fill="url(#support-us-linear)"/><rect x="7.5" y="15.5" width="5" height="1" rx=".5" stroke="url(#paint1_linear)"/><rect x="15" y="15" width="2" height="2" rx="1" fill="url(#paint2_linear)"/><defs><linearGradient id="support-us-linear" x1="25" y1="22" x2="9.778" y2="1.07" gradientUnits="userSpaceOnUse"><stop stop-color="#0059B3"/><stop offset="1" stop-color="#007FFF"/></linearGradient><linearGradient id="paint1_linear" x1="13" y1="17" x2="11.8" y2="13.4" gradientUnits="userSpaceOnUse"><stop stop-color="#0059B3"/><stop offset="1" stop-color="#007FFF"/></linearGradient><linearGradient id="paint2_linear" x1="17" y1="17" x2="15" y2="15" gradientUnits="userSpaceOnUse"><stop stop-color="#0059B3"/><stop offset="1" stop-color="#007FFF"/></linearGradient></defs></svg>