<svg height="32" viewBox="0 0 180 32" width="180" xmlns="http://www.w3.org/2000/svg"><g fill="none" fill-rule="evenodd"><g><path d="m31.0344828 15.5172414c0 8.5701882-6.9470532 15.5172414-15.5172414 15.5172414-8.56989423 0-15.5172414-6.9470532-15.5172414-15.5172414 0-8.56989423 6.94734717-15.5172414 15.5172414-15.5172414 8.5701882 0 15.5172414 6.94734717 15.5172414 15.5172414" fill="#ecb360"/><path d="m26.8965517 13.9655172c0 7.7128847-6.0213369 13.9655173-13.4482758 13.9655173-7.42722227 0-13.4482759-6.2526326-13.4482759-13.9655173 0-7.71288459 6.02105363-13.9655172 13.4482759-13.9655172 7.4269389 0 13.4482758 6.25263261 13.4482758 13.9655172" fill="#d76835"/><path d="m27.9310345 12.4136422c0 6.8560652-5.3263006 12.413944-11.8969855 12.413944-6.5698174 0-11.89611797-5.5578788-11.89611797-12.413944 0-6.85576335 5.32630057-12.4136422 11.89611797-12.4136422 6.5706849 0 11.8969855 5.55787885 11.8969855 12.4136422" fill="#d33a41"/><path d="m26.8965517 13.4484262c0 6.2843054-4.8632703 11.37916-10.8622124 11.37916-5.9989422 0-10.86192551-5.0948546-10.86192551-11.37916 0-6.28490677 4.86298331-11.37946068 10.86192551-11.37946068 5.9989421 0 10.8622124 5.09455391 10.8622124 11.37946068" fill="#b6cb46"/><path d="m25.862069 14.4826111c0 5.7133106-4.6316645 10.3449751-10.3449751 10.3449751-5.71301565 0-10.34468011-4.6316645-10.34468011-10.3449751 0-5.71331065 4.63166446-10.34468007 10.34468011-10.34468007 5.7133106 0 10.3449751 4.63136942 10.3449751 10.34468007" fill="#66ad4a"/><path d="m21.7241379 12.4137931c0 4.5706247-3.7052373 8.2758621-8.275862 8.2758621-4.57090515 0-8.27586211-3.7052374-8.27586211-8.2758621 0-4.57062469 3.70495696-8.27586207 8.27586211-8.27586207 4.5706247 0 8.275862 3.70523738 8.275862 8.27586207" fill="#aed7dc"/><path d="m22.7586207 11.3793103c0 3.9991764-3.2419755 7.2413794-7.2415259 7.2413794-3.9995505 0-7.24123273-3.242203-7.24123273-7.2413794 0-3.99946945 3.24168223-7.24137927 7.24123273-7.24137927 3.9995504 0 7.2415259 3.24190982 7.2415259 7.24137927" fill="#5bb1cf"/><path d="m22.7586207 11.8963967c0 3.7136422-2.7788402 6.724293-6.2068966 6.724293s-6.2068965-3.0106508-6.2068965-6.724293c0-3.71333217 2.7788401-6.72398291 6.2068965-6.72398291s6.2068966 3.01065074 6.2068966 6.72398291" fill="#25a8c3"/><path d="m20.6896552 12.9308813c0 3.1423524-2.315869 5.6898084-5.1725531 5.6898084-2.8564055 0-5.1722745-2.547456-5.1722745-5.6898084 0-3.14235241 2.315869-5.68950199 5.1722745-5.68950199 2.8566841 0 5.1725531 2.54714958 5.1725531 5.68950199"/><path d="m15.5171021 18.6206897c-2.8564055 0-5.1722745-2.547456-5.1722745-5.6898084 0-3.14235241 2.315869-5.68950199 5.1722745-5.68950199 2.8566841 0 5.1725531 2.54714958 5.1725531 5.68950199 0 3.1423524-2.315869 5.6898084-5.1725531 5.6898084z" fill="#1b1a18"/><path d="m18.3395432 11.2904163c-.4920811.8231975-1.4595626 1.299291-2.16129 1.062668-.7017274-.2363383-.8715674-1.0956984-.3798654-1.9191807.4920811-.82348231 1.4595626-1.29929107 2.16129-1.06295279s.8715674 1.09569839.3798654 1.91946549" fill="#fffffe"/></g><g fill="#fff" transform="translate(40.344828 7.241379)"><path d="m117.326492 14.0927618c-.247347-.6938318-.370833-1.5731169-.370833-2.7528593 0-1.1797425.123486-2.05864681.370833-2.75285936.691971-1.98933976 2.522419-3.07654593 4.920599-3.07654593 1.780376 0 3.189919.67060248 4.129237 1.73496018.074543.09253628.099015.23153112-.024471.3240674l-1.557876 1.27189794c-.123485.09253628-.247347.06968782-.345985-.04607774-.593333-.62452474-1.211514-.97144061-2.200905-.97144061-1.06318 0-1.87939.48591071-2.225752 1.45735131-.197652.55521772-.246971 1.20297171-.246971 2.05864681 0 .8560558.049319 1.5270391.246971 2.0822568.346362.9482113 1.162572 1.4341221 2.225752 1.4341221.989391 0 1.607572-.3469159 2.200905-.9714407.098638-.1157655.2225-.1157655.345985-.0232292l1.557876 1.2722787c.123486.0925363.099014.2083019.024471.3236866-.939318 1.0411284-2.348861 1.7121117-4.129237 1.7121117-2.39818 0-4.228628-1.0872061-4.920599-3.0769267"/><path d="m136.031168 16.9153089c-.172804 0-.296666-.069307-.395681-.2315311l-3.016737-4.6728921-1.607195 1.7349602v2.9379319c0 .1389948-.098638.2315311-.246971.2315311h-2.275448c-.147957 0-.246971-.0925363-.246971-.2315311v-15.26810647c0-.13861403.099014-.23115031.246971-.23115031h2.275448c.148333 0 .246971.09253628.246971.23115031v9.06855607l4.080295-4.48781948c.147956-.16222411.271818-.23153112.469471-.23153112h2.522418c.148334 0 .197653.13861403.098638.23153112l-3.783251 4.07121578 4.352113 6.6161541c.074543.0925363.024848.2315311-.123485.2315311z"/><path d="m3.44757063 14.5093655h3.51143272c1.63204255 0 2.54688993-.8792851 2.54688993-2.1976416 0-1.295508-.91484738-2.1744124-2.54688993-2.1744124h-3.51143272c-.09863786 0-.14833327.0460778-.14833327.1386141v4.094445c0 .0925363.04969541.1389949.14833327.1389949zm3.36309944-6.77799741c1.48370927 0 2.39855665-.83282658 2.39855665-2.05902758 0-1.24904946-.91484738-2.08187604-2.39855665-2.08187604h-3.36309944c-.09863786 0-.14833327.04607774-.14833327.13861403v3.86329476c0 .09253629.04969541.13899483.14833327.13899483zm-6.42915584-6.31569676c0-.13861403.09901435-.23115031.24697115-.23115031h6.25635133c3.56075169 0 5.24211309 1.66565316 5.24211309 4.18698136 0 1.78141872-.8899996 2.79931787-1.9535568 3.33130632v.04645855c1.0387095.36976434 2.2502234 1.61919465 2.2502234 3.53922735 0 3.1230045-2.1018901 4.6268143-5.78612731 4.6268143h-6.00900371c-.1479568 0-.24697115-.0925363-.24697115-.2315311z"/><path d="m14.4750581 16.9153089c-.1487097 0-.2477241-.0925363-.2477241-.2315311v-10.68736988c0-.13899483.0990144-.23153112.2477241-.23153112h2.2746946c.1483333 0 .2473476.09253629.2473476.23153112v.94821133h.0248477c.5684854-.85567504 1.5823472-1.43412204 3.0909041-1.43412204.9393187 0 1.8790137.34691588 2.4971946.92536287.123862.11538475.1487097.20830185.0493189.3236866l-1.3105283 1.55026841c-.0986379.11538475-.2224999.13861402-.3459855.04607774-.5440142-.32406741-1.112876-.53198845-1.7555281-.53198845-1.5578759 0-2.2502234 1.04074762-2.2502234 2.82216632v6.0377071c0 .1389948-.0990143.2315311-.2473476.2315311z"/><path d="m30.2623873 13.39893c.1980287-.578447.2473477-1.1104354.2473477-2.0590275 0-.9482114-.049319-1.45735135-.2473477-2.05864681-.3463619-.92536286-1.1124996-1.45735131-2.2253756-1.45735131-1.1128761 0-1.9042379.53198845-2.2502234 1.45735131-.1976522.60129546-.2473476 1.11043541-.2473476 2.05864681 0 .9485921.0496954 1.4805805.2473476 2.0590275.3459855.9253629 1.1373473 1.4573514 2.2502234 1.4573514 1.112876 0 1.8790137-.5319885 2.2253756-1.4573514zm-7.1459745.6938318c-.2721953-.786368-.3956809-1.5266583-.3956809-2.7528593 0-1.2258202.1234856-1.96611052.3956809-2.75285936.6674998-1.94288121 2.4971945-3.07654593 4.9205989-3.07654593 2.3985566 0 4.2282514 1.13366472 4.8961276 3.07654593.2718189.78674884.3956809 1.52703916.3956809 2.75285936 0 1.226201-.123862 1.9664913-.3956809 2.7528593-.6678762 1.943262-2.497571 3.0769267-4.8961276 3.0769267-2.4234044 0-4.2530991-1.1336647-4.9205989-3.0769267z"/><path d="m45.3234858 16.9153089c-.1487097 0-.2473476-.0925363-.297043-.2315311l-2.2995423-7.12491325h-.0493189l-2.32439 7.12491325c-.0496954.1389948-.1483333.2315311-.2970431.2315311h-2.0273469c-.1487098 0-.2473477-.0925363-.2966666-.2315311l-3.7587803-10.68736988c-.0496955-.13899483.0248477-.23153112.1731809-.23153112h2.373709c.173181 0 .2721953.06930701.3215143.23153112l2.2995423 7.35644438h.0496954l2.2746946-7.35644438c.0496954-.13899483.1731809-.23153112.3215142-.23153112h1.7803758c.1483333 0 .2721954.09253629.3215143.23153112l2.4234044 7.35644438h.0493189l2.1760567-7.35644438c.049319-.16222411.1483333-.23153112.3215143-.23153112h2.3737089c.1483333 0 .2225.09253629.173181.23153112l-3.7587803 10.68736988c-.049319.1389948-.1483333.2315311-.2966666.2315311z"/><path d="m51.8938218 15.4114991c-.0986378-.0925363-.0986378-.2311503 0-.3236866l1.4095427-1.3880443c.0990143-.0925363.2473476-.0925363.3463619 0 .8655285.7402903 2.2502234 1.2722787 3.4865851 1.2722787 1.4588615 0 2.2005279-.5552177 2.2005279-1.3187373 0-.6709833-.4201521-1.0872061-1.978028-1.226201l-1.2860571-.1153847c-2.4230279-.2315311-3.659766-1.3880443-3.659766-3.2852286 0-2.15118306 1.6568903-3.51599809 4.6243088-3.51599809 1.8545425 0 3.4124184.578447 4.475599 1.36481503.1238621.09253629.1238621.23115031.0496954.3236866l-1.2118904 1.36519583c-.0986378.11538476-.2224999.11538476-.3459855.04607774-.7420428-.4859107-1.9287091-.92536286-3.1157518-.92536286s-1.8052235.4859107-1.8052235 1.15651318c0 .64813481.4205286 1.04112842 1.9535568 1.18012327l1.2856806.1157655c2.497571.2311504 3.6846137 1.4341221 3.6846137 3.2616185 0 2.2208709-1.7310569 3.7707585-4.995142 3.7707585-2.4478756 0-4.1292371-.9021336-5.1186276-1.7581894"/><path d="m71.0995931 9.14226086c-.3215143-.90213359-1.2118904-1.43412204-2.32439-1.43412204-1.1373473 0-2.0277234.53198845-2.3488612 1.43412204-.0993909.27760886-.1487098.55521772-.1487098.94859214 0 .0925363.0493189.1389948.1487098.1389948h4.6732512c.0990144 0 .1483333-.0464585.1483333-.1389948 0-.39337442-.0493189-.67098328-.1483333-.94859214zm-7.1956699 4.92727164c-.2473477-.7166802-.4205286-1.572736-.4205286-2.72963 0-1.1565132.1487097-2.03541753.3956809-2.75285936.6674997-1.94288121 2.4971945-3.07654593 4.8712799-3.07654593 2.4482521 0 4.2286279 1.17974246 4.8961276 3.07654593.2721954.78674884.3956809 1.55026836.3956809 3.35453556 0 .1386141-.0990143.2311503-.2718188.2311503h-7.3440032c-.0993909 0-.1487098.0464586-.1487098.1389949 0 .3236866.0741667.6012954.173181.855675.3956809 1.087587 1.335376 1.6888825 2.6703755 1.6888825 1.335376 0 2.2012809-.4626815 2.7942375-1.0639769.1238621-.1157656.2473477-.1389949.3708332-.0464586l1.4592381 1.2029717c.1234856.0925363.1234856.2083019.0248477.3240674-1.0138617 1.1100547-2.6955997 1.8968035-4.8961276 1.8968035-2.5224187 0-4.3027946-1.1565132-4.9702943-3.100156z"/><path d="m76.0928527 16.9153089c-.1479568 0-.2469711-.0925363-.2469711-.2315311v-10.68736988c0-.13899483.0990143-.23153112.2469711-.23153112h2.2750711c.1487097 0 .2473476.09253629.2473476.23153112v.94821133h.0248477c.5684854-.85567504 1.5823471-1.43412204 3.0909041-1.43412204.9396951 0 1.8790137.34691588 2.4971945.92536287.1238621.11538475.1483333.20830185.0496954.3236866l-1.3105282 1.55026841c-.0986379.11538475-.2225.13861402-.346362.04607774-.5436377-.32406741-1.1124996-.53198845-1.7551517-.53198845-1.5578759 0-2.2505998 1.04074762-2.2505998 2.82216632v6.0377071c0 .1389948-.0986379.2315311-.2473476.2315311z"/><path d="m84.704089 15.0878125c-.0990144-.0925363-.1483333-.2315311-.049319-.3472967l1.5330282-1.6656532c.0990144-.1153847.2473476-.1153847.3459855-.0228484 1.0884049.8095973 2.6955997 1.6652723 4.5746134 1.6652723 2.0028757 0 3.1650707-.9482113 3.1650707-2.2665678 0-1.1336647-.7416664-1.873955-3.0660564-2.1747931l-.8903761-.1157656c-3.2388609-.41622287-5.0689322-1.87395499-5.0689322-4.48781949 0-2.84539561 2.2253757-4.74219908 5.687113-4.74219908 2.1018901 0 4.1047658.62452473 5.4401418 1.57273607.1238621.09291709.1487098.18545338.0496954.3240674l-1.1870427 1.7117309c-.0986378.11576556-.2224999.13899484-.3463619.06968782-1.3598473-.83282658-2.6210566-1.226201-4.0302228-1.226201-1.7065856 0-2.6459042.87928513-2.6459042 2.10510532 0 1.08720617.815833 1.82749646 3.0909041 2.12833459l.8903761.11576556c3.2388609.41622289 5.0192368 1.85034493 5.0192368 4.55712651 0 2.7993179-2.1512091 4.8811939-6.3301415 4.8811939-2.4723468 0-4.87128-.9253628-6.1818082-2.081876"/><path d="m102.339937 17.1118057c-2.3985567 0-3.3134041-1.0872061-3.3134041-3.2619993v-5.87548295c0-.09253629-.0496954-.13899484-.1487097-.13899484h-.7913618c-.1479568 0-.2469712-.09253628-.2469712-.23153112v-1.5498876c0-.13861402.0990144-.23115031.2469712-.23115031h.7913618c.0990143 0 .1487097-.04645855.1487097-.13899483v-3.05369746c0-.13861403.0990144-.23115031.2469712-.23115031h2.2750709c.148333 0 .247348.09253628.247348.23115031v3.05369746c0 .09253628.049319.13899483.148333.13899483h1.582724c.147956 0 .246971.09253629.246971.23115031v1.5498876c0 .13899484-.099015.23153112-.246971.23153112h-1.582724c-.099014 0-.148333.04645855-.148333.13899484v5.78332755c0 .786368.346362 1.0407476 1.112876 1.0407476h.618181c.147956 0 .246971.0925363.246971.2315311v1.8503449c0 .1389949-.099015.2315311-.246971.2315311z"/><path d="m112.530885 13.1673989v-.855675c0-.0925363-.049695-.1389949-.14871-.1389949h-1.978028c-1.780376 0-2.571737.4626815-2.571737 1.5038099 0 .9253629.716818 1.3880443 2.052194 1.3880443 1.706586 0 2.646281-.6245247 2.646281-1.8971843zm.29629 3.74791c-.148333 0-.246971-.0925363-.246971-.2315311v-.8095973h-.024848c-.568862.7635196-1.681738 1.295508-3.362723 1.295508-2.176056 0-4.006128-1.0639769-4.006128-3.4006133 0-2.4291727 1.830072-3.5392274 4.772266-3.5392274h2.423404c.099015 0 .14871-.0464585.14871-.1389948v-.53198845c0-1.27265954-.643405-1.85072573-2.646281-1.85072573-1.335376 0-2.151209.34691587-2.720071.76351957-.123485.09253628-.271819.06930701-.345985-.04645855l-.914848-1.52665833c-.074166-.11576556-.049318-.23153112.049319-.30083813.964543-.64775401 2.275071-1.08720617 4.228628-1.08720617 3.634919 0 4.970295 1.15651318 4.970295 3.88652404v7.28675655c0 .1389948-.099391.2315311-.247348.2315311z"/></g></g></svg>