<?xml version="1.0" encoding="UTF-8"?>
<svg width="180px" height="32px" viewBox="0 0 180 32" version="1.1" xmlns="http://www.w3.org/2000/svg" xmlns:xlink="http://www.w3.org/1999/xlink">
    <!-- Generator: Sketch 49.2 (51160) - http://www.bohemiancoding.com/sketch -->
    <title>Browserstack-logo-black</title>
    <desc>Created with Sketch.</desc>
    <defs></defs>
    <g id="Final" stroke="none" stroke-width="1" fill="none" fill-rule="evenodd">
        <g id="2-Developers" transform="translate(-40.000000, -16.000000)">
            <g id="Browserstack-logo-black" transform="translate(40.000000, 16.000000)">
                <g>
                    <g id="Group-2">
                        <path d="M31.0344828,15.5172414 C31.0344828,24.0874296 24.0874296,31.0344828 15.5172414,31.0344828 C6.94734717,31.0344828 0,24.0874296 0,15.5172414 C0,6.94734717 6.94734717,0 15.5172414,0 C24.0874296,0 31.0344828,6.94734717 31.0344828,15.5172414" id="Fill-1" fill="#ECB360"></path>
                        <path d="M26.8965517,13.9655172 C26.8965517,21.6784019 20.8752148,27.9310345 13.4482759,27.9310345 C6.02105363,27.9310345 0,21.6784019 0,13.9655172 C0,6.25263261 6.02105363,0 13.4482759,0 C20.8752148,0 26.8965517,6.25263261 26.8965517,13.9655172" id="Fill-2" fill="#D76835"></path>
                        <path d="M27.9310345,12.4136422 C27.9310345,19.2697074 22.6047339,24.8275862 16.034049,24.8275862 C9.4642316,24.8275862 4.13793103,19.2697074 4.13793103,12.4136422 C4.13793103,5.55787885 9.4642316,0 16.034049,0 C22.6047339,0 27.9310345,5.55787885 27.9310345,12.4136422" id="Fill-3" fill="#D33A41"></path>
                        <path d="M26.8965517,13.4484262 C26.8965517,19.7327316 22.0332814,24.8275862 16.0343393,24.8275862 C10.0353971,24.8275862 5.17241379,19.7327316 5.17241379,13.4484262 C5.17241379,7.16351943 10.0353971,2.06896552 16.0343393,2.06896552 C22.0332814,2.06896552 26.8965517,7.16351943 26.8965517,13.4484262" id="Fill-4" fill="#B6CB46"></path>
                        <path d="M25.862069,14.4826111 C25.862069,20.1959217 21.2304045,24.8275862 15.5170939,24.8275862 C9.80407825,24.8275862 5.17241379,20.1959217 5.17241379,14.4826111 C5.17241379,8.76930045 9.80407825,4.13793103 15.5170939,4.13793103 C21.2304045,4.13793103 25.862069,8.76930045 25.862069,14.4826111" id="Fill-5" fill="#66AD4A"></path>
                        <path d="M21.7241379,12.4137931 C21.7241379,16.9844178 18.0189006,20.6896552 13.4482759,20.6896552 C8.87737075,20.6896552 5.17241379,16.9844178 5.17241379,12.4137931 C5.17241379,7.84316841 8.87737075,4.13793103 13.4482759,4.13793103 C18.0189006,4.13793103 21.7241379,7.84316841 21.7241379,12.4137931" id="Fill-6" fill="#AED7DC"></path>
                        <path d="M22.7586207,11.3793103 C22.7586207,15.3784867 19.5166452,18.6206897 15.5170948,18.6206897 C11.5175443,18.6206897 8.27586207,15.3784867 8.27586207,11.3793103 C8.27586207,7.37984085 11.5175443,4.13793103 15.5170948,4.13793103 C19.5166452,4.13793103 22.7586207,7.37984085 22.7586207,11.3793103" id="Fill-7" fill="#5BB1CF"></path>
                        <path d="M22.7586207,11.8963967 C22.7586207,15.6100389 19.9797805,18.6206897 16.5517241,18.6206897 C13.1236677,18.6206897 10.3448276,15.6100389 10.3448276,11.8963967 C10.3448276,8.18306453 13.1236677,5.17241379 16.5517241,5.17241379 C19.9797805,5.17241379 22.7586207,8.18306453 22.7586207,11.8963967" id="Fill-8" fill="#25A8C3"></path>
                        <path d="M20.6896552,12.9308813 C20.6896552,16.0732337 18.3737862,18.6206897 15.5171021,18.6206897 C12.6606966,18.6206897 10.3448276,16.0732337 10.3448276,12.9308813 C10.3448276,9.78852889 12.6606966,7.24137931 15.5171021,7.24137931 C18.3737862,7.24137931 20.6896552,9.78852889 20.6896552,12.9308813" id="Fill-9"></path>
                        <path d="M15.5171021,18.6206897 C12.6606966,18.6206897 10.3448276,16.0732337 10.3448276,12.9308813 C10.3448276,9.78852889 12.6606966,7.24137931 15.5171021,7.24137931 C18.3737862,7.24137931 20.6896552,9.78852889 20.6896552,12.9308813 C20.6896552,16.0732337 18.3737862,18.6206897 15.5171021,18.6206897 Z" id="Fill-11" fill="#1B1A18"></path>
                        <path d="M18.3395432,11.2904163 C17.8474621,12.1136138 16.8799806,12.5897073 16.1782532,12.3530843 C15.4765258,12.116746 15.3066858,11.2573859 15.7983878,10.4339036 C16.2904689,9.61042129 17.2579504,9.13461253 17.9596778,9.37095081 C18.6614052,9.60728909 18.8312452,10.4666492 18.3395432,11.2904163" id="Fill-12" fill="#FFFFFE"></path>
                    </g>
                    <g id="Group-26" transform="translate(40.344828, 7.241379)" fill="#FFFFFF">
                        <path d="M117.326492,14.0927618 C117.079145,13.39893 116.955659,12.5196449 116.955659,11.3399025 C116.955659,10.16016 117.079145,9.28125569 117.326492,8.58704314 C118.018463,6.59770338 119.848911,5.51049721 122.247091,5.51049721 C124.027467,5.51049721 125.43701,6.18109969 126.376328,7.24545739 C126.450871,7.33799367 126.475343,7.47698851 126.351857,7.56952479 L124.793981,8.84142273 C124.670496,8.93395901 124.546634,8.91111055 124.447996,8.79534499 C123.854663,8.17082025 123.236482,7.82390438 122.247091,7.82390438 C121.183911,7.82390438 120.367701,8.30981509 120.021339,9.28125569 C119.823687,9.83647341 119.774368,10.4842274 119.774368,11.3399025 C119.774368,12.1959583 119.823687,12.8669416 120.021339,13.4221593 C120.367701,14.3703706 121.183911,14.8562814 122.247091,14.8562814 C123.236482,14.8562814 123.854663,14.5093655 124.447996,13.8848407 C124.546634,13.7690752 124.670496,13.7690752 124.793981,13.8616115 L126.351857,15.1338902 C126.475343,15.2264265 126.450871,15.3421921 126.376328,15.4575768 C125.43701,16.4987052 124.027467,17.1696885 122.247091,17.1696885 C119.848911,17.1696885 118.018463,16.0824824 117.326492,14.0927618" id="Fill-23"></path>
                        <path d="M136.031168,16.9153089 C135.858364,16.9153089 135.734502,16.8460019 135.635487,16.6837778 L132.61875,12.0108857 L131.011555,13.7458459 L131.011555,16.6837778 C131.011555,16.8227726 130.912917,16.9153089 130.764584,16.9153089 L128.489136,16.9153089 C128.341179,16.9153089 128.242165,16.8227726 128.242165,16.6837778 L128.242165,1.41567133 C128.242165,1.2770573 128.341179,1.18452102 128.489136,1.18452102 L130.764584,1.18452102 C130.912917,1.18452102 131.011555,1.2770573 131.011555,1.41567133 L131.011555,10.4842274 L135.09185,5.99640792 C135.239806,5.83418381 135.363668,5.7648768 135.561321,5.7648768 L138.083739,5.7648768 C138.232073,5.7648768 138.281392,5.90349083 138.182377,5.99640792 L134.399126,10.0676237 L138.751239,16.6837778 C138.825782,16.7763141 138.776087,16.9153089 138.627754,16.9153089 L136.031168,16.9153089" id="Fill-25"></path>
                        <path d="M3.44757063,14.5093655 L6.95900335,14.5093655 C8.5910459,14.5093655 9.50589328,13.6300804 9.50589328,12.3117239 C9.50589328,11.0162159 8.5910459,10.1373115 6.95900335,10.1373115 L3.44757063,10.1373115 C3.34893277,10.1373115 3.29923736,10.1833893 3.29923736,10.2759256 L3.29923736,14.3703706 C3.29923736,14.4629069 3.34893277,14.5093655 3.44757063,14.5093655 Z M6.81067007,7.73136809 C8.29437934,7.73136809 9.20922672,6.89854151 9.20922672,5.67234051 C9.20922672,4.42329105 8.29437934,3.59046447 6.81067007,3.59046447 L3.44757063,3.59046447 C3.34893277,3.59046447 3.29923736,3.63654221 3.29923736,3.7290785 L3.29923736,7.59237326 C3.29923736,7.68490955 3.34893277,7.73136809 3.44757063,7.73136809 L6.81067007,7.73136809 Z M0.381514233,1.41567133 C0.381514233,1.2770573 0.480528579,1.18452102 0.628485378,1.18452102 L6.88483671,1.18452102 C10.4455884,1.18452102 12.1269498,2.85017418 12.1269498,5.37150238 C12.1269498,7.1529211 11.2369502,8.17082025 10.173393,8.7028087 L10.173393,8.74926725 C11.2121025,9.11903159 12.4236164,10.3684619 12.4236164,12.2884946 C12.4236164,15.4114991 10.3217263,16.9153089 6.63748909,16.9153089 L0.628485378,16.9153089 C0.480528579,16.9153089 0.381514233,16.8227726 0.381514233,16.6837778 L0.381514233,1.41567133 Z" id="Fill-13"></path>
                        <path d="M14.4750581,16.9153089 C14.3263484,16.9153089 14.227334,16.8227726 14.227334,16.6837778 L14.227334,5.99640792 C14.227334,5.85741309 14.3263484,5.7648768 14.4750581,5.7648768 L16.7497527,5.7648768 C16.898086,5.7648768 16.9971003,5.85741309 16.9971003,5.99640792 L16.9971003,6.94461925 L17.021948,6.94461925 C17.5904334,6.08894421 18.6042952,5.51049721 20.1128521,5.51049721 C21.0521708,5.51049721 21.9918658,5.85741309 22.6100467,6.43586008 C22.7339087,6.55124483 22.7587564,6.64416193 22.6593656,6.75954668 L21.3488373,8.30981509 C21.2501994,8.42519984 21.1263374,8.44842911 21.0028518,8.35589283 C20.4588376,8.03182542 19.8899758,7.82390438 19.2473237,7.82390438 C17.6894478,7.82390438 16.9971003,8.864652 16.9971003,10.6460707 L16.9971003,16.6837778 C16.9971003,16.8227726 16.898086,16.9153089 16.7497527,16.9153089 L14.4750581,16.9153089" id="Fill-14"></path>
                        <path d="M30.2623873,13.39893 C30.460416,12.820483 30.509735,12.2884946 30.509735,11.3399025 C30.509735,10.3916911 30.460416,9.88255115 30.2623873,9.28125569 C29.9160254,8.35589283 29.1498877,7.82390438 28.0370117,7.82390438 C26.9241356,7.82390438 26.1327738,8.35589283 25.7867883,9.28125569 C25.5891361,9.88255115 25.5394407,10.3916911 25.5394407,11.3399025 C25.5394407,12.2884946 25.5891361,12.820483 25.7867883,13.39893 C26.1327738,14.3242929 26.9241356,14.8562814 28.0370117,14.8562814 C29.1498877,14.8562814 29.9160254,14.3242929 30.2623873,13.39893 Z M23.1164128,14.0927618 C22.8442175,13.3063938 22.7207319,12.5661035 22.7207319,11.3399025 C22.7207319,10.1140823 22.8442175,9.37379198 23.1164128,8.58704314 C23.7839126,6.64416193 25.6136073,5.51049721 28.0370117,5.51049721 C30.4355683,5.51049721 32.2652631,6.64416193 32.9331393,8.58704314 C33.2049582,9.37379198 33.3288202,10.1140823 33.3288202,11.3399025 C33.3288202,12.5661035 33.2049582,13.3063938 32.9331393,14.0927618 C32.2652631,16.0360238 30.4355683,17.1696885 28.0370117,17.1696885 C25.6136073,17.1696885 23.7839126,16.0360238 23.1164128,14.0927618 Z" id="Fill-15"></path>
                        <path d="M45.3234858,16.9153089 C45.1747761,16.9153089 45.0761382,16.8227726 45.0264428,16.6837778 L42.7269005,9.55886455 L42.6775816,9.55886455 L40.3531916,16.6837778 C40.3034962,16.8227726 40.2048583,16.9153089 40.0561485,16.9153089 L38.0288016,16.9153089 C37.8800918,16.9153089 37.7814539,16.8227726 37.732135,16.6837778 L33.9733547,5.99640792 C33.9236592,5.85741309 33.9982024,5.7648768 34.1465356,5.7648768 L36.5202446,5.7648768 C36.6934256,5.7648768 36.7924399,5.83418381 36.8417589,5.99640792 L39.1413012,13.3528523 L39.1909966,13.3528523 L41.4656912,5.99640792 C41.5153866,5.85741309 41.6388721,5.7648768 41.7872054,5.7648768 L43.5675812,5.7648768 C43.7159145,5.7648768 43.8397766,5.85741309 43.8890955,5.99640792 L46.3124999,13.3528523 L46.3618188,13.3528523 L48.5378755,5.99640792 C48.5871945,5.83418381 48.6862088,5.7648768 48.8593898,5.7648768 L51.2330987,5.7648768 C51.381432,5.7648768 51.4555987,5.85741309 51.4062797,5.99640792 L47.6474994,16.6837778 C47.5981804,16.8227726 47.4991661,16.9153089 47.3508328,16.9153089 L45.3234858,16.9153089" id="Fill-16"></path>
                        <path d="M51.8938218,15.4114991 C51.795184,15.3189628 51.795184,15.1803488 51.8938218,15.0878125 L53.3033645,13.6997682 C53.4023788,13.6072319 53.5507121,13.6072319 53.6497264,13.6997682 C54.5152549,14.4400585 55.8999498,14.9720469 57.1363115,14.9720469 C58.595173,14.9720469 59.3368394,14.4168292 59.3368394,13.6533096 C59.3368394,12.9823263 58.9166873,12.5661035 57.3588114,12.4271086 L56.0727543,12.3117239 C53.6497264,12.0801928 52.4129883,10.9236796 52.4129883,9.0264953 C52.4129883,6.87531224 54.0698786,5.51049721 57.0372971,5.51049721 C58.8918396,5.51049721 60.4497155,6.08894421 61.5128961,6.87531224 C61.6367582,6.96784853 61.6367582,7.10646255 61.5625915,7.19899884 L60.3507011,8.56419467 C60.2520633,8.67957943 60.1282012,8.67957943 60.0047156,8.61027241 C59.2626728,8.12436171 58.0760065,7.68490955 56.8889638,7.68490955 C55.7019211,7.68490955 55.0837403,8.17082025 55.0837403,8.84142273 C55.0837403,9.48955754 55.5042689,9.88255115 57.0372971,10.021546 L58.3229777,10.1373115 C60.8205487,10.3684619 62.0075914,11.5714336 62.0075914,13.39893 C62.0075914,15.6198009 60.2765345,17.1696885 57.0124494,17.1696885 C54.5645738,17.1696885 52.8832123,16.2675549 51.8938218,15.4114991" id="Fill-17"></path>
                        <path d="M71.0995931,9.14226086 C70.7780788,8.24012727 69.8877027,7.70813882 68.7752031,7.70813882 C67.6378558,7.70813882 66.7474797,8.24012727 66.4263419,9.14226086 C66.326951,9.41986972 66.2776321,9.69747858 66.2776321,10.090853 C66.2776321,10.1833893 66.326951,10.2298478 66.4263419,10.2298478 L71.0995931,10.2298478 C71.1986075,10.2298478 71.2479264,10.1833893 71.2479264,10.090853 C71.2479264,9.69747858 71.1986075,9.41986972 71.0995931,9.14226086 Z M63.9039232,14.0695325 C63.6565755,13.3528523 63.4833946,12.4967965 63.4833946,11.3399025 C63.4833946,10.1833893 63.6321043,9.30448497 63.8790755,8.58704314 C64.5465752,6.64416193 66.37627,5.51049721 68.7503554,5.51049721 C71.1986075,5.51049721 72.9789833,6.69023967 73.646483,8.58704314 C73.9186784,9.37379198 74.0421639,10.1373115 74.0421639,11.9415787 C74.0421639,12.0801928 73.9431496,12.172729 73.7703451,12.172729 L66.4263419,12.172729 C66.326951,12.172729 66.2776321,12.2191876 66.2776321,12.3117239 C66.2776321,12.6354105 66.3517988,12.9130193 66.4508131,13.1673989 C66.846494,14.2549859 67.7861891,14.8562814 69.1211886,14.8562814 C70.4565646,14.8562814 71.3224695,14.3935999 71.9154261,13.7923045 C72.0392882,13.6765389 72.1627738,13.6533096 72.2862593,13.7458459 L73.7454974,14.9488176 C73.868983,15.0413539 73.868983,15.1571195 73.7703451,15.272885 C72.7564834,16.3829397 71.0747454,17.1696885 68.8742175,17.1696885 C66.3517988,17.1696885 64.5714229,16.0131753 63.9039232,14.0695325 Z" id="Fill-18"></path>
                        <path d="M76.0928527,16.9153089 C75.9448959,16.9153089 75.8458816,16.8227726 75.8458816,16.6837778 L75.8458816,5.99640792 C75.8458816,5.85741309 75.9448959,5.7648768 76.0928527,5.7648768 L78.3679238,5.7648768 C78.5166335,5.7648768 78.6152714,5.85741309 78.6152714,5.99640792 L78.6152714,6.94461925 L78.6401191,6.94461925 C79.2086045,6.08894421 80.2224662,5.51049721 81.7310232,5.51049721 C82.6707183,5.51049721 83.6100369,5.85741309 84.2282177,6.43586008 C84.3520798,6.55124483 84.376551,6.64416193 84.2779131,6.75954668 L82.9673849,8.30981509 C82.868747,8.42519984 82.7448849,8.44842911 82.6210229,8.35589283 C82.0773852,8.03182542 81.5085233,7.82390438 80.8658712,7.82390438 C79.3079953,7.82390438 78.6152714,8.864652 78.6152714,10.6460707 L78.6152714,16.6837778 C78.6152714,16.8227726 78.5166335,16.9153089 78.3679238,16.9153089 L76.0928527,16.9153089" id="Fill-19"></path>
                        <path d="M84.704089,15.0878125 C84.6050746,14.9952762 84.5557557,14.8562814 84.65477,14.7405158 L86.1877982,13.0748626 C86.2868126,12.9594779 86.4351458,12.9594779 86.5337837,13.0520142 C87.6221886,13.8616115 89.2293834,14.7172865 91.1083971,14.7172865 C93.1112728,14.7172865 94.2734678,13.7690752 94.2734678,12.4507187 C94.2734678,11.317054 93.5318014,10.5767637 91.2074114,10.2759256 L90.3170353,10.16016 C87.0781744,9.74393713 85.2481031,8.28620501 85.2481031,5.67234051 C85.2481031,2.8269449 87.4734788,0.930141431 90.9352161,0.930141431 C93.0371062,0.930141431 95.0399819,1.55466616 96.3753579,2.5028775 C96.49922,2.59579459 96.5240677,2.68833088 96.4250533,2.8269449 L95.2380106,4.5386758 C95.1393728,4.65444136 95.0155107,4.67767064 94.8916487,4.60836362 C93.5318014,3.77553704 92.2705921,3.38216262 90.8614259,3.38216262 C89.1548403,3.38216262 88.2155217,4.26144775 88.2155217,5.48726794 C88.2155217,6.57447411 89.0313547,7.3147644 91.3064258,7.61560253 L92.1968019,7.73136809 C95.4356628,8.14759098 97.2160387,9.58171302 97.2160387,12.2884946 C97.2160387,15.0878125 95.0648296,17.1696885 90.8858972,17.1696885 C88.4135504,17.1696885 86.0146172,16.2443257 84.704089,15.0878125" id="Fill-20"></path>
                        <path d="M102.339937,17.1118057 C99.9413803,17.1118057 99.0265329,16.0245996 99.0265329,13.8498064 L99.0265329,7.97432345 C99.0265329,7.88178716 98.9768375,7.83532861 98.8778232,7.83532861 L98.0864614,7.83532861 C97.9385046,7.83532861 97.8394902,7.74279233 97.8394902,7.60379749 L97.8394902,6.05390989 C97.8394902,5.91529587 97.9385046,5.82275958 98.0864614,5.82275958 L98.8778232,5.82275958 C98.9768375,5.82275958 99.0265329,5.77630103 99.0265329,5.68376475 L99.0265329,2.63006729 C99.0265329,2.49145326 99.1255473,2.39891698 99.2735041,2.39891698 L101.548575,2.39891698 C101.696908,2.39891698 101.795923,2.49145326 101.795923,2.63006729 L101.795923,5.68376475 C101.795923,5.77630103 101.845242,5.82275958 101.944256,5.82275958 L103.52698,5.82275958 C103.674936,5.82275958 103.773951,5.91529587 103.773951,6.05390989 L103.773951,7.60379749 C103.773951,7.74279233 103.674936,7.83532861 103.52698,7.83532861 L101.944256,7.83532861 C101.845242,7.83532861 101.795923,7.88178716 101.795923,7.97432345 L101.795923,13.757651 C101.795923,14.544019 102.142285,14.7983986 102.908799,14.7983986 L103.52698,14.7983986 C103.674936,14.7983986 103.773951,14.8909349 103.773951,15.0299297 L103.773951,16.8802746 C103.773951,17.0192695 103.674936,17.1118057 103.52698,17.1118057 L102.339937,17.1118057" id="Fill-21"></path>
                        <path d="M112.530885,13.1673989 L112.530885,12.3117239 C112.530885,12.2191876 112.48119,12.172729 112.382175,12.172729 L110.404147,12.172729 C108.623771,12.172729 107.83241,12.6354105 107.83241,13.6765389 C107.83241,14.6019018 108.549228,15.0645832 109.884604,15.0645832 C111.59119,15.0645832 112.530885,14.4400585 112.530885,13.1673989 Z M112.827175,16.9153089 C112.678842,16.9153089 112.580204,16.8227726 112.580204,16.6837778 L112.580204,15.8741805 L112.555356,15.8741805 C111.986494,16.6377001 110.873618,17.1696885 109.192633,17.1696885 C107.016577,17.1696885 105.186505,16.1057116 105.186505,13.7690752 C105.186505,11.3399025 107.016577,10.2298478 109.958771,10.2298478 L112.382175,10.2298478 C112.48119,10.2298478 112.530885,10.1833893 112.530885,10.090853 L112.530885,9.55886455 C112.530885,8.28620501 111.88748,7.70813882 109.884604,7.70813882 C108.549228,7.70813882 107.733395,8.05505469 107.164533,8.47165839 C107.041048,8.56419467 106.892714,8.5409654 106.818548,8.42519984 L105.9037,6.89854151 C105.829534,6.78277595 105.854382,6.66701039 105.953019,6.59770338 C106.917562,5.94994937 108.22809,5.51049721 110.181647,5.51049721 C113.816566,5.51049721 115.151942,6.66701039 115.151942,9.39702125 L115.151942,16.6837778 C115.151942,16.8227726 115.052551,16.9153089 114.904594,16.9153089 L112.827175,16.9153089 Z" id="Fill-22"></path>
                    </g>
                </g>
            </g>
        </g>
    </g>
</svg>