<svg fill="none" height="32" viewBox="0 0 180 32" width="180" xmlns="http://www.w3.org/2000/svg"><g clip-rule="evenodd" fill-rule="evenodd"><path d="m31.0345 15.5172c0 8.5702-6.9471 15.5173-15.5173 15.5173-8.56985 0-15.5172-6.9471-15.5172-15.5173 0-8.56985 6.94735-15.5172 15.5172-15.5172 8.5702 0 15.5173 6.94735 15.5173 15.5172z" fill="#ecb360"/><path d="m26.8966 13.9655c0 7.7129-6.0214 13.9655-13.4483 13.9655-7.42725 0-13.4483-6.2526-13.4483-13.9655 0-7.71287 6.02105-13.9655 13.4483-13.9655 7.4269 0 13.4483 6.25263 13.4483 13.9655z" fill="#d76835"/><path d="m27.931 12.4136c0 6.8561-5.3263 12.414-11.8969 12.414-6.56986 0-11.89616-5.5579-11.89616-12.414 0-6.85572 5.3263-12.4136 11.89616-12.4136 6.5706 0 11.8969 5.55788 11.8969 12.4136z" fill="#d33a41"/><path d="m26.8966 13.4484c0 6.2843-4.8633 11.3792-10.8622 11.3792-5.999 0-10.86198-5.0949-10.86198-11.3792 0-6.28488 4.86298-11.37943 10.86198-11.37943 5.9989 0 10.8622 5.09455 10.8622 11.37943z" fill="#b6cb46"/><path d="m25.8621 14.4826c0 5.7133-4.6317 10.345-10.345 10.345-5.71301 0-10.34468-4.6317-10.34468-10.345 0-5.71329 4.63167-10.34466 10.34468-10.34466 5.7133 0 10.345 4.63137 10.345 10.34466z" fill="#66ad4a"/><path d="m21.7241 12.4138c0 4.5706-3.7052 8.2759-8.2758 8.2759-4.57092 0-8.27588-3.7053-8.27588-8.2759 0-4.57062 3.70496-8.27586 8.27588-8.27586 4.5706 0 8.2758 3.70524 8.2758 8.27586z" fill="#aed7dc"/><path d="m22.7586 11.3793c0 3.9992-3.242 7.2414-7.2415 7.2414-3.9996 0-7.24125-3.2422-7.24125-7.2414 0-3.99945 3.24165-7.24136 7.24125-7.24136 3.9995 0 7.2415 3.24191 7.2415 7.24136z" fill="#5bb1cf"/><path d="m22.7586 11.8964c0 3.7136-2.7788 6.7243-6.2069 6.7243-3.428 0-6.2069-3.0107-6.2069-6.7243 0-3.71333 2.7789-6.72398 6.2069-6.72398 3.4281 0 6.2069 3.01065 6.2069 6.72398z" fill="#25a8c3"/><path d="m15.5171 18.6207c-2.8564 0-5.1723-2.5475-5.1723-5.6898 0-3.14236 2.3159-5.68951 5.1723-5.68951 2.8567 0 5.1725 2.54715 5.1725 5.68951 0 3.1423-2.3158 5.6898-5.1725 5.6898z" fill="#1b1a18"/><path d="m18.3395 11.2904c-.492.8232-1.4595 1.2993-2.1612 1.0627-.7018-.2364-.8716-1.0957-.3799-1.9192.4921-.82349 1.4596-1.2993 2.1613-1.06296s.8715 1.09566.3798 1.91946z" fill="#fffffe"/><g fill="#1b1a18"><path d="m157.671 21.3341c-.247-.6938-.371-1.5731-.371-2.7528 0-1.1798.124-2.0587.371-2.7529.692-1.9893 2.523-3.0765 4.921-3.0765 1.78 0 3.19.6706 4.129 1.7349.075.0926.099.2316-.024.3241l-1.558 1.2719c-.124.0925-.248.0697-.346-.0461-.594-.6245-1.212-.9714-2.201-.9714-1.063 0-1.879.4859-2.226 1.4573-.197.5552-.247 1.203-.247 2.0587 0 .856.05 1.527.247 2.0822.347.9482 1.163 1.4341 2.226 1.4341.989 0 1.607-.3469 2.201-.9714.098-.1158.222-.1158.346-.0232l1.558 1.2723c.123.0925.099.2083.024.3236-.939 1.0412-2.349 1.7122-4.129 1.7122-2.398 0-4.229-1.0873-4.921-3.077z"/><path d="m176.376 24.1567c-.173 0-.297-.0693-.396-.2315l-3.016-4.6729-1.608 1.7349v2.938c0 .139-.098.2315-.247.2315h-2.275c-.148 0-.247-.0925-.247-.2315v-15.26815c0-.13861.099-.23115.247-.23115h2.275c.149 0 .247.09254.247.23115v9.06855l4.081-4.4878c.148-.1622.272-.2315.469-.2315h2.523c.148 0 .197.1386.098.2315l-3.783 4.0712 4.352 6.6162c.075.0925.025.2315-.123.2315z"/><path d="m43.7924 21.7507h3.5114c1.6321 0 2.5469-.8792 2.5469-2.1976 0-1.2955-.9148-2.1744-2.5469-2.1744h-3.5114c-.0986 0-.1483.0461-.1483.1386v4.0945c0 .0925.0497.1389.1483.1389zm3.3631-6.7779c1.4837 0 2.3986-.8329 2.3986-2.0591 0-1.249-.9149-2.0819-2.3986-2.0819h-3.3631c-.0986 0-.1483.0461-.1483.1387v3.8633c0 .0925.0497.139.1483.139zm-6.4292-6.31575c0-.13861.0991-.23115.247-.23115h6.2564c3.5607 0 5.2421 1.6657 5.2421 4.187 0 1.7814-.89 2.7993-1.9536 3.3313v.0464c1.0387.3698 2.2503 1.6192 2.2503 3.5393 0 3.123-2.1019 4.6268-5.7862 4.6268h-6.009c-.1479 0-.247-.0925-.247-.2315z"/><path d="m54.8199 24.1567c-.1487 0-.2477-.0926-.2477-.2316v-10.6873c0-.139.099-.2316.2477-.2316h2.2747c.1483 0 .2473.0926.2473.2316v.9482h.0249c.5685-.8557 1.5823-1.4341 3.0909-1.4341.9393 0 1.879.3469 2.4972.9253.1238.1154.1487.2083.0493.3237l-1.3105 1.5503c-.0987.1154-.2225.1386-.346.0461-.544-.3241-1.1129-.532-1.7555-.532-1.5579 0-2.2503 1.0407-2.2503 2.8221v6.0377c0 .139-.099.2316-.2473.2316z"/><path d="m70.6072 20.6403c.198-.5785.2474-1.1104.2474-2.059 0-.9482-.0494-1.4574-.2474-2.0587-.3464-.9253-1.1125-1.4573-2.2254-1.4573-1.1128 0-1.9042.532-2.2502 1.4573-.1976.6013-.2473 1.1105-.2473 2.0587 0 .9486.0497 1.4805.2473 2.059.346.9254 1.1374 1.4573 2.2502 1.4573 1.1129 0 1.879-.5319 2.2254-1.4573zm-7.146.6938c-.2722-.7863-.3956-1.5266-.3956-2.7528 0-1.2259.1234-1.9661.3956-2.7529.6675-1.9429 2.4972-3.0765 4.9206-3.0765 2.3986 0 4.2283 1.1336 4.8962 3.0765.2718.7868.3956 1.527.3956 2.7529 0 1.2262-.1238 1.9665-.3956 2.7528-.6679 1.9433-2.4976 3.077-4.8962 3.077-2.4234 0-4.2531-1.1337-4.9206-3.077z"/><path d="m85.6683 24.1567c-.1487 0-.2473-.0925-.297-.2315l-2.2996-7.125h-.0493l-2.3244 7.125c-.0497.139-.1483.2315-.297.2315h-2.0274c-.1487 0-.2473-.0925-.2966-.2315l-3.7588-10.6874c-.0497-.139.0248-.2315.1732-.2315h2.3737c.1732 0 .2722.0693.3215.2315l2.2995 7.3564h.0497l2.2747-7.3564c.0497-.139.1732-.2315.3215-.2315h1.7804c.1484 0 .2722.0925.3215.2315l2.4234 7.3564h.0494l2.176-7.3564c.0493-.1622.1484-.2315.3215-.2315h2.3737c.1484 0 .2225.0925.1732.2315l-3.7588 10.6874c-.0493.139-.1483.2315-.2966.2315z"/><path d="m92.2387 22.6529c-.0987-.0926-.0987-.2312 0-.3237l1.4095-1.3881c.099-.0925.2473-.0925.3464 0 .8655.7403 2.2502 1.2723 3.4865 1.2723 1.4589 0 2.2006-.5552 2.2006-1.3187 0-.671-.4202-1.0872-1.9781-1.2262l-1.286-.1154c-2.423-.2315-3.6598-1.3881-3.6598-3.2852 0-2.1512 1.6569-3.516 4.6243-3.516 1.8546 0 3.4129.5784 4.4759 1.3648.124.0925.124.2311.049.3237l-1.211 1.3652c-.099.1153-.223.1153-.346.046-.7425-.4859-1.9292-.9253-3.1162-.9253s-1.8052.4859-1.8052 1.1565c0 .6481.4205 1.0411 1.9535 1.1801l1.2857.1158c2.4972.2311 3.6842 1.4341 3.6842 3.2616 0 2.2209-1.731 3.7708-4.9947 3.7708-2.4479 0-4.1293-.9022-5.1186-1.7582z"/><path d="m111.444 16.3836c-.321-.9021-1.211-1.4341-2.324-1.4341-1.137 0-2.028.532-2.349 1.4341-.099.2776-.149.5552-.149.9486 0 .0926.05.139.149.139h4.673c.099 0 .149-.0464.149-.139 0-.3934-.05-.671-.149-.9486zm-7.195 4.9273c-.248-.7167-.421-1.5727-.421-2.7296 0-1.1565.149-2.0355.396-2.7529.667-1.9429 2.497-3.0765 4.871-3.0765 2.448 0 4.229 1.1797 4.896 3.0765.273.7868.396 1.5503.396 3.3545 0 .1387-.099.2312-.272.2312h-7.344c-.099 0-.149.0465-.149.139 0 .3237.075.6013.174.8557.395 1.0875 1.335 1.6888 2.67 1.6888s2.201-.4626 2.794-1.0639c.124-.1158.248-.139.371-.0465l1.459 1.203c.124.0925.124.2083.025.324-1.014 1.1101-2.695 1.8969-4.896 1.8969-2.522 0-4.303-1.1566-4.97-3.1002z"/><path d="m116.438 24.1567c-.148 0-.247-.0926-.247-.2316v-10.6873c0-.139.099-.2316.247-.2316h2.275c.148 0 .247.0926.247.2316v.9482h.025c.568-.8557 1.582-1.4341 3.091-1.4341.94 0 1.879.3469 2.497.9253.124.1154.148.2083.05.3237l-1.311 1.5503c-.098.1154-.222.1386-.346.0461-.544-.3241-1.113-.532-1.755-.532-1.558 0-2.251 1.0407-2.251 2.8221v6.0377c0 .139-.099.2316-.247.2316z"/><path d="m125.049 22.3292c-.099-.0926-.148-.2316-.049-.3473l1.533-1.6657c.099-.1154.247-.1154.346-.0228 1.088.8096 2.695 1.6653 4.574 1.6653 2.003 0 3.165-.9483 3.165-2.2666 0-1.1337-.741-1.874-3.066-2.1748l-.89-.1158c-3.239-.4162-5.069-1.8739-5.069-4.4878 0-2.8454 2.225-4.74219 5.687-4.74219 2.102 0 4.105.62452 5.44 1.57273.124.09292.149.18546.05.32406l-1.187 1.7117c-.099.1158-.223.139-.347.0697-1.359-.8328-2.621-1.2262-4.03-1.2262-1.706 0-2.646.8793-2.646 2.1051 0 1.0872.816 1.8275 3.091 2.1284l.891.1157c3.238.4163 5.019 1.8504 5.019 4.5572 0 2.7993-2.151 4.8812-6.33 4.8812-2.473 0-4.872-.9254-6.182-2.0819z"/><path d="m142.685 24.3532c-2.399 0-3.314-1.0872-3.314-3.262v-5.8755c0-.0925-.049-.139-.148-.139h-.792c-.148 0-.247-.0925-.247-.2315v-1.5499c0-.1386.099-.2312.247-.2312h.792c.099 0 .148-.0464.148-.139v-3.05366c0-.13861.099-.23115.247-.23115h2.275c.149 0 .248.09254.248.23115v3.05366c0 .0926.049.139.148.139h1.583c.148 0 .247.0926.247.2312v1.5499c0 .139-.099.2315-.247.2315h-1.583c-.099 0-.148.0465-.148.139v5.7833c0 .7864.346 1.0408 1.113 1.0408h.618c.148 0 .247.0925.247.2315v1.8503c0 .139-.099.2316-.247.2316z"/><path d="m152.876 20.4088v-.8557c0-.0925-.05-.139-.149-.139h-1.978c-1.78 0-2.572.4627-2.572 1.5038 0 .9254.717 1.388 2.052 1.388 1.707 0 2.647-.6245 2.647-1.8971zm.296 3.7479c-.148 0-.247-.0926-.247-.2316v-.8096h-.025c-.569.7636-1.682 1.2956-3.363 1.2956-2.176 0-4.006-1.064-4.006-3.4007 0-2.4291 1.83-3.5392 4.773-3.5392h2.423c.099 0 .149-.0464.149-.139v-.532c0-1.2726-.644-1.8507-2.647-1.8507-1.335 0-2.151.3469-2.72.7635-.123.0926-.271.0693-.346-.0464l-.914-1.5267c-.075-.1158-.05-.2315.049-.3008.964-.6478 2.275-1.0872 4.228-1.0872 3.635 0 4.971 1.1565 4.971 3.8865v7.2867c0 .139-.1.2316-.248.2316z"/></g></g></svg>