<svg fill="none" height="54" viewBox="0 0 180 54" width="180" xmlns="http://www.w3.org/2000/svg"><g fill="#2e3340"><path d="m45.5905 30.9645c-.9833 0-1.475-.1674-1.475-.9401 0-.1886.0547-.4147.1822-.6785l3.2023-6.8814h9.5c1.3784 0 1.2786 1.2906.7977 2.3571l-.2441.5h3.9881l.256-.5c1-2 .5015-3.8571-2.0664-3.8571h-15.5l-4.1039 8.8337c-.091.2638-.1274.5088-.1274.7539 0 .7727.4188 1.3946 1.2383 1.8469.6556.3581 1.4022.5466 2.2398.5466l14.5219.0189.9934-2zm31.9095-10h-12l-5 11.9811h4l4.5-10.4811h5.7727c1.7116 0 1.7273 1.5.7273 3h4.0063l.4937-1c.6424-1.8551-.4271-3.5-2.5-3.5zm21.5 0h-16c-1.5 4-2.5 6-3.5 9-.5 2 .7316 2.9811 3.1304 2.9811h14.7502l3.8404-8.3779c.613-1.8974-.092-3.6032-2.221-3.6032zm-4.5 10h-9.6541c-.9656 0-1.5416-.1863-1.5416-.9401 0-.2262.0545-.4524.1635-.6785l3.0322-6.8814h9.5c1.8946 0 1.5884 1.2763.9779 2.631zm9.764 2h20.924l5.312-12-4-.0188-4.627 10.2095h-6.737l4.437-10.1907-4.116.0188-4.437 10.1719h-4.607c-.983 0-1.475-.377-1.475-1.1308 0-.2262.054-.4524.164-.6785l3.898-8.3814h-4l-4.123 8.8902c-.091.2639-.128.5089-.128.7538 0 .7728.438 1.3948 1.294 1.8283.637.358 1.402.5277 2.221.5277zm49.824-17-4.588 1-1.5 4h-10.58c-3.604-.0565-4.92 1-5.92 3l-3 6.5c-.5 1.5.07 2.5 2 2.5h16zm-20.088 14.9645c-1.5 0-2-.9046-1.5-1.9645l2-4c1-2 1.5-2.5 3.5-2.5h9.5l-4.102 8.4645zm19.032 2.0355 5.468-13-4.412 1-5.19 12zm5.968-14.5 1-2.5-4.5 1-1 2.5zm16.5 2.5h-14.945l-5.283 12h4.115l4.613-10.5h8.5c2.5 0 1.5 2.0354 1 3.0354l-3.5 7.5h4l3.5-7.9999c1.148-2.6053.841-4.0355-2-4.0355z"/><path d="m34.1161 20.9018c-1.1279-.1384-2.2371-.2086-3.3008-.2059-3.453.0085-9.3539 1.1021-9.3539 5.6918l1.102.2141c-.0148.1989-.0148.3987 0 .5976v1.0419l-1.102-.078c.2923 4.1428 2.7205 5.2876 5.0073 5.3489 1.094 0 2.1244-.1172 3.1332-.5823.0344-.0162.0624-.0442.079-.0793s.0209-.0751.0121-.1131c-.0087-.038-.03-.0716-.0602-.0952s-.0673-.0357-.1052-.0341c-2.1085.3064-4.2662-1.4054-4.2662-5.0368 0-4.5967 3.6574-6.3631 8.8992-6.3631.1188.0153.1336-.2758-.0445-.3065zm-11.4854 8.1492h1.7538c.1434 1.233.6376 2.6668 1.5199 3.5112-.8225-.1044-1.5859-.4954-2.1638-1.1084-.5778-.613-1.0316-1.5515-1.1099-2.4028zm1.9522-3.8742c0 .1532-.1188.429-.1782.7048h-.6979c-.3733-.0174-.7453-.0583-1.1137-.1226.0053-.0355.0053-.0717 0-.1072.4603-2.4669 2.8213-3.4935 5.1081-3.9225-.7361.2982-1.3981.7626-1.9377 1.3592-.5396.5965-.943 1.31-1.1806 2.0883z"/><path d="m36.4991 17.2293c-4.6247-1.3423-24.0989-2.9699-24.0989 8.275.6556.0961 1.1109.2434 1.4616.2915-.0467.8561 0 1.7942 0 2.6632l-1.7539-.2959c0 6.5102 4.5802 8.5615 8.1935 8.5615.5966-.0028 1.1924-.0456 1.7838-.1281 1.4884-.1707 2.9321-.638 4.2537-1.3768.0289-.0213.0506-.0515.0621-.0865.0116-.0349.0124-.0728.0022-.1083-.0101-.0354-.0306-.0666-.0586-.0891-.0279-.0225-.0619-.0352-.0972-.0363-3.0492.6404-7.2267-.2241-7.2267-7.7806 0-10.0539 13.5754-9.3933 17.5242-9.5534.0337-.0153.0616-.0419.0795-.0756s.0248-.0726.0196-.1108c-.0052-.0381-.0221-.0735-.0483-.1005-.0262-.0271-.0601-.0444-.0966-.0493zm-16.1824 18.6468c-1.7538.1169-3.4822-.4853-4.8216-1.6797-1.3394-1.1945-2.1852-2.888-2.3594-4.7241 1.1587.1601 2.6376.2882 3.8725.3522.0614 1.2644.4389 2.4895 1.0947 3.5519.6557 1.0624 1.5665 1.9246 2.6406 2.4997zm-2.8358-12.1512c-.0915.3522-.2287.9766-.3507 1.5209l-1.8295-.1921-1.8448-.2401c0-5.8791 9.1751-7.8954 12.6828-7.8954-4.7568 1.1687-7.8803 3.5728-8.6578 6.7587z"/><path d="m38.8786 13.9039c-5.6349-1.9973-12.0277-2.9788-18.0017-2.8995-8.6364 0-19.58459 2.6632-19.8769 11.8367l2.33846.5919c-.29231 1.1836-.29231 3.551-.29231 3.551s-1.33323-.4087-2.04615-.5919c0 10.8504 6.13104 13.6077 12.0316 13.6077 2.3829.0074 4.7473-.4218 6.9775-1.2666.0351-.0162.0637-.044.0807-.079.0169-.0349.0213-.0748.0124-.1127-.009-.0378-.0307-.0713-.0616-.0949-.0308-.0235-.0687-.0355-.1074-.0339-1.8354 0-3.2915.6104-6.2039-1.5261-5.65781-4.1051-4.96006-14.7877 1.5169-19.4422 6.6741-4.914 21.0993-3.3879 23.5718-3.2353.0199.004.0404.004.0603.0001.0199-.004.0389-.0119.0558-.0232s.0314-.0259.0427-.0429.0192-.036.0232-.0561c.004-.02.004-.0407 0-.0607-.0039-.02-.0117-.0391-.023-.0561s-.0258-.0316-.0426-.043c-.0169-.0114-.0358-.0193-.0558-.0233zm-25.7864 25.1803c-7.00778 0-10.58926-3.9391-10.92297-11.5084 1.90297.4966 3.69769.9924 5.64439 1.2684-.11729 2.9664.89754 5.8656 2.83648 8.1034.9915.9972 2.2099 1.7358 3.5494 2.1518zm15.8814-26.3554c-8.5403 0-18.4342 1.072-20.3736 10.7042 0 0-5.26154-.8878-6.43077-1.1837 1.46154-12.1327 21.63077-11.2173 29.81537-9.5205z"/></g><path d="m35.5 41 138-5-1 2-140 10z" fill="#fc0"/><path d="m34.5 34h143.5l-1 2-146.5 5.5z" fill="#06c"/></svg>