<svg fill="none" height="49" viewBox="0 0 180 49" width="180" xmlns="http://www.w3.org/2000/svg" xmlns:xlink="http://www.w3.org/1999/xlink"><radialGradient id="a" cx="0" cy="0" gradientTransform="matrix(0 46.8991 -54.1468 0 -1.41665 23.828)" gradientUnits="userSpaceOnUse" r="1"><stop offset="0" stop-color="#20c6b7"/><stop offset="1" stop-color="#4d9abf"/></radialGradient><clipPath id="b"><path d="m0 0h180v48.9796h-180z"/></clipPath><g clip-path="url(#b)"><path clip-rule="evenodd" d="m65.351 15.8914.1506 2.6914c1.718-2.0816 3.9735-3.1224 6.7653-3.1224 4.838 0 7.3004 2.7771 7.3862 8.3314v15.3894h-5.2164v-15.0881c0-1.478-.3183-2.5715-.9551-3.2829-.6367-.7102-1.6787-1.0653-3.1249-1.0653-2.1049 0-3.6734.9551-4.702 2.8628v16.5735h-5.2188v-23.2898h4.9176zm29.8506 23.7208c-3.3061 0-5.9877-1.0432-8.0412-3.131-2.0547-2.0877-3.082-4.8686-3.082-8.3412v-.6453c0-2.3241.4469-4.4021 1.342-6.2314.8939-1.8294 2.1514-3.2535 3.769-4.2735 1.6175-1.0176 3.4212-1.527 5.4122-1.527 3.1629 0 5.6084 1.0115 7.3324 3.0343 1.726 2.0241 2.588 4.8857 2.588 8.5886v2.1098h-15.1832c.1592 1.9224.7983 3.4433 1.9224 4.5624 1.1241 1.1192 2.5384 1.6788 4.2417 1.6788 2.3902 0 4.3371-.9673 5.8411-2.9057l2.812 2.6914c-.93 1.3911-2.172 2.4711-3.725 3.2388-1.5535.7678-3.2959 1.151-5.2281 1.151zm-.622-19.9518c-1.4327 0-2.5874.502-3.4678 1.5061-.8816 1.0041-1.4424 2.4037-1.6861 4.1976h9.9429v-.3882c-.1151-1.751-.5804-3.0735-1.3959-3.971-.8168-.8963-1.947-1.3445-3.3931-1.3445zm20.5284-9.4286v5.6608h4.102v3.8743h-4.102v13.0004c0 .889.176 1.5306.527 1.9262.35.3942.977.5914 1.879.5914.615-.0017 1.227-.074 1.825-.2155v4.0469c-1.188.3306-2.333.4947-3.436.4947-4.008 0-6.012-2.2163-6.012-6.6502v-13.1951h-3.826v-3.8743h3.823v-5.6608h5.218zm13.637 28.9506h-5.218v-33.06119h5.218zm11.231 0h-5.218v-23.2898h5.218zm-5.54-29.33874c0-.80204.253-1.46939.761-2.00081.51-.53021 1.236-.79592 2.18-.79592.945 0 1.675.26571 2.192.79592.514.53142.771 1.19877.771 2.00204 0 .78861-.257 1.44491-.771 1.96901-.517.524-1.247.7861-2.192.7861-.944 0-1.67-.2621-2.18-.7861-.508-.5229-.761-1.1804-.761-1.96901zm13.056 29.33874v-19.4167h-3.543v-3.8743h3.543v-2.1306c0-2.5837.715-4.57714 2.147-5.98408 1.432-1.40571 3.436-2.10857 6.012-2.10857.917 0 1.891.12857 2.922.38694l-.129 4.08981c-.658-.1222-1.327-.17965-1.997-.17144-2.492 0-3.737 1.28324-3.737 3.85224v2.0657h4.724v3.8743h-4.724v19.4155h-5.218zm21.882-7.4902 4.724-15.7996h5.562l-9.233 26.82c-1.418 3.9172-3.823 5.8764-7.216 5.8764-.759 0-1.597-.1298-2.513-.3882v-4.0469l.989.0649c1.316 0 2.308-.24 2.974-.7213.665-.48 1.191-1.2869 1.578-2.4208l.751-2.002-8.16-23.1821h5.626z" fill="#fff" fill-rule="evenodd"/><path d="m34.1473 17.3082-.0171-.0074c-.0098-.0037-.0196-.0073-.0282-.0159-.014-.0151-.0244-.0332-.0304-.053-.0059-.0197-.0072-.0405-.0038-.0609l.9465-5.7869 4.4388 4.44-4.6164 1.9641c-.0128.0051-.0265.0076-.0404.0073h-.0183c-.0062-.0037-.0123-.0086-.0245-.0208-.1718-.1913-.3773-.3494-.6062-.4665zm6.4384-.3527 4.7461 4.7461c.9857.987 1.4792 1.4792 1.6592 2.0498.027.0845.049.169.0661.2559l-11.3424-4.8036c-.0061-.0025-.0122-.005-.0184-.0074-.0453-.0183-.0979-.0392-.0979-.0857s.0538-.0686.0992-.0869l.0146-.0062zm6.278 8.5751c-.2449.4604-.7225.938-1.5306 1.7474l-5.3511 5.3498-6.9208-1.4413-.0367-.0073c-.0612-.0098-.1261-.0208-.1261-.0759-.0263-.2855-.1111-.5626-.2491-.8139s-.3262-.4715-.553-.647c-.0281-.0281-.0208-.0722-.0122-.1126 0-.0061 0-.0123.0024-.0172l1.3017-7.991.0049-.0269c.0073-.0612.0183-.1323.0734-.1323.279-.0347.5482-.1245.7921-.2643.2438-.1398.4574-.3268.6283-.5499.0111-.0123.0184-.0258.0331-.0331.0392-.0184.0857 0 .1261.0171l11.8163 4.9984zm-8.1123 8.3278-8.7992 8.7991 1.5062-9.2571.0024-.0122c.0012-.0123.0037-.0245.0074-.0355.0122-.0294.044-.0417.0747-.0539l.0147-.0062c.3297-.1407.6214-.3576.851-.633.0294-.0343.0649-.0674.1102-.0735.0117-.0019.0237-.0019.0355 0l6.1959 1.2735zm-10.6616 10.6616-.9918.9918-10.9653-15.8473c-.004-.0058-.0081-.0115-.0123-.0172-.0171-.0232-.0355-.0465-.0318-.0734 0-.0196.0134-.0368.0269-.0515l.0123-.0159c.033-.049.0612-.0979.0918-.1506l.0245-.0428.0037-.0037c.0171-.0294.033-.0576.0624-.0735.0257-.0122.0612-.0073.0894-.0012l12.1482 2.5053c.0339.0053.066.0192.093.0404.0159.0159.0196.0331.0233.0527.0847.3206.2424.6173.4608.8668.2183.2496.4914.4453.798.5719.0342.0172.0196.0551.0036.0955-.0079.0178-.0141.0362-.0183.0551-.1531.9307-1.4657 8.9364-1.8184 11.0976zm-2.0718 2.0706c-.7311.7237-1.1621 1.1069-1.6494 1.2612-.4805.152-.9962.152-1.4768 0-.5706-.1812-1.064-.6734-2.0498-1.6604l-11.0118-11.0118 2.8763-4.4608c.0135-.0221.027-.0417.049-.0576.0306-.022.0747-.0122.1114 0 .6602.1992 1.3691.1633 2.0058-.1016.033-.0123.0661-.0208.0918.0024.0128.0118.0243.0249.0343.0392l11.0192 15.9906zm-17.24943-12.4726-2.52612-2.5262 4.98855-2.1281c.0128-.0056.0265-.0085.0404-.0086.0417 0 .0662.0416.0882.0796.0501.0771.1032.1523.1592.2253l.0159.0196c.0147.0208.0049.0416-.0098.0612l-2.7551 4.2772zm-3.64408-3.6441-3.19592-3.1959c-.54367-.5437-.937958-.938-1.212244-1.2772l9.717574 2.0155c.0122.0023.0244.0043.0367.0061.06.0098.1261.0209.1261.0772 0 .0612-.0722.0894-.1334.1126l-.0282.0123zm-4.966531-6.1164c.011074-.2058.048102-.4095.110204-.6061.181225-.5706.673469-1.0628 1.660407-2.0498l4.0898-4.0898c1.88306 2.7329 3.77122 5.4623 5.66453 8.1882.033.0441.0698.0931.0318.1298-.1788.1971-.3576.4126-.4837.6465-.0137.0301-.0347.0562-.0612.0759-.0159.0098-.0331.0062-.0514.0025h-.0025l-10.957941-2.2984zm6.955101-7.8404 5.49674-5.4991c.518.2265 2.4 1.0212 4.0812 1.7314 1.2735.5388 2.4343 1.0286 2.7992 1.1877.0367.0147.0698.0294.0857.0662.0098.022.0049.0502 0 .0734-.087.397-.0741.8093.0377 1.2s.3189.7476.6027 1.0384c.0368.0367 0 .0894-.0318.1347l-.0172.0257-5.5836 8.6486c-.0147.0245-.0282.0453-.0527.0612-.0294.0184-.071.0098-.1053.0012-.2172-.0569-.4404-.0873-.6649-.0906-.2008 0-.4188.0368-.6392.0772h-.0012c-.0245.0036-.0465.0085-.0661-.0062-.0217-.0176-.0403-.0387-.0551-.0624l-5.88736-8.5874zm6.60984-6.60976 7.1191-7.11918c.9858-.98572 1.4792-1.47918 2.0498-1.65918.4806-.151952.9963-.151952 1.4768 0 .5706.18 1.0641.67346 2.0498 1.65918l1.5428 1.54286-5.0632 7.84158c-.0126.0229-.0297.0429-.0502.0588-.0307.0208-.0735.0123-.1102 0-.3992-.1211-.822-.1432-1.2316-.0642-.4096.0789-.7939.2565-1.1195.5173-.033.0343-.082.0147-.1236-.0037-.6613-.2877-5.8041-2.4612-6.54-2.77346zm15.3134-4.50122 4.6751 4.67508-1.1265 6.9772v.0183c-.001.0159-.0043.0316-.0098.0466-.0122.0245-.0367.0293-.0612.0367-.2409.073-.4677.186-.671.3343-.0088.0062-.017.0132-.0245.0208-.0135.0147-.027.0282-.049.0306-.018.0006-.0358-.0023-.0527-.0086l-7.124-3.0269-.0135-.0061c-.0453-.0184-.0992-.0404-.0992-.087-.0419-.397-.1715-.7797-.3796-1.1204-.0343-.0563-.0722-.1151-.0428-.1726zm-4.8147 10.53798 6.6784 2.8285c.0367.0172.0771.0331.0931.0711.0063.0228.0063.0469 0 .0698-.0196.0979-.0368.2094-.0368.322v.1874c0 .0465-.0477.0661-.0918.0844l-.0135.0049c-1.0579.4519-14.853 6.3343-14.8739 6.3343-.0208 0-.0428 0-.0636-.0208-.0368-.0367 0-.0882.033-.1347.0059-.0081.0116-.0162.0172-.0245l5.4881-8.4979.0098-.0147c.0319-.0515.0686-.109.1274-.109l.0551.0086c.1249.0171.2351.033.3465.033.8327 0 1.6041-.4053 2.0694-1.0983.0111-.0185.0252-.0351.0416-.049.0331-.0245.0821-.0123.12.0049zm-7.6481 11.2469 15.0367-6.4126s.022 0 .0429.0208c.082.082.1518.1371.2191.1886l.0331.0208c.0306.0171.0612.0367.0637.0685 0 .0123 0 .0196-.0025.0307l-1.2881 7.9126-.0049.0318c-.0086.0613-.0172.1311-.0747.1311-.3435.0231-.6761.1297-.969.3104-.293.1808-.5374.4302-.7122.7267l-.0062.0098c-.0171.0282-.033.0551-.0612.0698-.0257.0122-.0588.0073-.0857.0012l-11.9914-2.4734c-.0123-.0025-.1862-.6356-.1996-.6368z" fill="url(#a)"/></g></svg>