<svg xmlns="http://www.w3.org/2000/svg" width="90" height="90" fill="none"><path fill="#470137" d="M70.833 4.998H19.167C11.343 4.998 5 11.341 5 19.165v49.667c0 7.824 6.343 14.167 14.167 14.167h51.666C78.657 82.999 85 76.656 85 68.832V19.165c0-7.824-6.343-14.167-14.167-14.167Z"/><path fill="#FF61F6" d="m47.05 25.513-9.983 16.476 10.68 17.495a.55.55 0 0 1 .053.403c-.036.126-.16.046-.375.081h-7.62c-.538 0-.913-.019-1.128-.377-.716-1.395-1.432-2.781-2.147-4.159a148.606 148.606 0 0 0-2.28-4.213 245.39 245.39 0 0 1-2.389-4.347h-.053a166.196 166.196 0 0 1-2.227 4.294c-.77 1.431-1.53 2.853-2.281 4.266a189.386 189.386 0 0 1-2.308 4.213c-.143.322-.394.355-.751.355h-7.352c-.143 0-.224.057-.242-.087a.54.54 0 0 1 .08-.375l10.358-17.013-10.09-17.066c-.107-.142-.124-.258-.053-.349a.391.391 0 0 1 .322-.134h7.567c.165-.009.33.019.483.08a.972.972 0 0 1 .322.296 59.982 59.982 0 0 0 2.147 4.293 229.903 229.903 0 0 0 2.388 4.24 60.013 60.013 0 0 1 2.227 4.24h.054c.715-1.467 1.44-2.898 2.173-4.294.733-1.395 1.484-2.8 2.254-4.213a194.36 194.36 0 0 0 2.227-4.212.826.826 0 0 1 .215-.35.779.779 0 0 1 .43-.08h7.03a.307.307 0 0 1 .268.537ZM62.445 60.664a16.629 16.629 0 0 1-7.165-1.503 11.391 11.391 0 0 1-5.017-4.535c-1.217-2.02-1.825-4.552-1.825-7.594-.02-2.463.61-4.888 1.825-7.03a13.395 13.395 0 0 1 5.313-5.152c2.325-1.288 5.133-1.932 8.425-1.932.179 0 .411.009.698.027.286.018.626.045 1.02.08V22.453c0-.25.107-.376.322-.376h6.762a.283.283 0 0 1 .322.322v31.717c0 .61.026 1.271.08 1.986.054.716.099 1.36.134 1.932a.555.555 0 0 1-.322.537 26.618 26.618 0 0 1-5.42 1.61c-1.7.313-3.424.475-5.152.483Zm3.274-6.655V39.358a5.323 5.323 0 0 0-.886-.161 10.725 10.725 0 0 0-1.1-.054 8.287 8.287 0 0 0-3.757.859 7.337 7.337 0 0 0-2.817 2.468c-.734 1.074-1.1 2.487-1.1 4.24a9.464 9.464 0 0 0 .563 3.435 6.528 6.528 0 0 0 1.503 2.361 5.722 5.722 0 0 0 2.254 1.342 8.833 8.833 0 0 0 2.764.43c.5 0 .965-.019 1.395-.054.4-.03.796-.102 1.18-.215Z"/></svg>
