<svg xmlns="http://www.w3.org/2000/svg" width="90" height="90" fill="none"><path fill="#1ABCFE" d="M44.67 45c0-7.364 5.97-13.334 13.333-13.334 7.364 0 13.333 5.97 13.333 13.333 0 7.364-5.97 13.334-13.333 13.334-7.364 0-13.333-5.97-13.333-13.334Z"/><path fill="#0ACF83" d="M18 71.666c0-7.363 5.97-13.333 13.333-13.333h13.333v13.333C44.666 79.03 38.696 85 31.333 85S18 79.03 18 71.666Z"/><path fill="#FF7262" d="M44.67 5v26.666h13.333c7.364 0 13.333-5.969 13.333-13.333C71.336 10.97 65.366 5 58.003 5H44.67Z"/><path fill="#F24E1E" d="M18 18.333c0 7.364 5.97 13.334 13.333 13.334h13.333V5H31.333C23.97 5 18 10.97 18 18.333Z"/><path fill="#A259FF" d="M18 45c0 7.363 5.97 13.333 13.333 13.333h13.333V31.666H31.333C23.97 31.666 18 37.636 18 44.999Z"/></svg>
