<svg fill="none" height="90" width="90" xmlns="http://www.w3.org/2000/svg"><path d="m22.454 11.383 22.546-2.383 22.546 2.383 17.454 23.433-40 46.58-40-46.58 17.454-23.431z" fill="#fdb300"/><path d="m21.202 34.816 23.798 46.579-40-46.581h16.202zm47.595-.001-23.797 46.58 40-46.58z" fill="#ea6c00"/><path d="m21.202 34.816h47.596l-23.798 46.579-23.798-46.58z" fill="#fdad00"/><path d="m45 9-22.546 2.383-1.252 23.433zm0 0 22.546 2.383 1.251 23.432z" fill="#fdd231"/><path d="m85 34.815-17.454-23.431 1.251 23.431zm-80 0 17.454-23.431-1.252 23.431z" fill="#fdad00"/><path d="m45 9-23.798 25.816h47.596z" fill="#feeeb7"/></svg>