<svg xmlns="http://www.w3.org/2000/svg" width="90" height="90" fill="none"><path fill="#FDB300" d="M22.454 11.383 45 9l22.546 2.383L85 34.816l-40 46.58-40-46.58 17.454-23.431Z"/><path fill="#EA6C00" d="M21.202 34.816 45 81.395 5 34.814h16.202ZM68.797 34.815 45 81.395l40-46.58H68.797Z"/><path fill="#FDAD00" d="M21.202 34.816h47.596L45 81.395l-23.798-46.58Z"/><path fill="#FDD231" d="m45 9-22.546 2.383-1.252 23.433L45 9ZM45 9l22.546 2.383 1.251 23.432L45 9Z"/><path fill="#FDAD00" d="M85 34.815 67.546 11.384l1.251 23.431H85ZM5 34.815l17.454-23.431-1.252 23.431H5Z"/><path fill="#FEEEB7" d="M45 9 21.202 34.816h47.596L45 9Z"/></svg>
