<svg xmlns="http://www.w3.org/2000/svg" enable-background="new 0 0 24 24" height="24" viewBox="0 0 24 24" width="24"><g><rect fill="none" height="24" width="24"/></g><g><g><path d="M15,11.68V11L8,6l-7,5v10h5v-6h4v6h1.68C11.25,20.09,11,19.08,11,18C11,15.21,12.64,12.81,15,11.68z"/><path d="M23,13.11V3H10v1.97l7,5v1.11c0.33-0.05,0.66-0.08,1-0.08C19.96,11,21.73,11.81,23,13.11z M17,7h2v2h-2V7z"/><g><path d="M23,18c0-2.76-2.24-5-5-5s-5,2.24-5,5s2.24,5,5,5S23,20.76,23,18z M17.5,21v-2.5H15v-1h2.5V15h1v2.5H21v1h-2.5V21H17.5z"/></g></g></g></svg>