<svg xmlns="http://www.w3.org/2000/svg" enable-background="new 0 0 24 24" height="24" viewBox="0 0 24 24" width="24"><g><rect fill="none" height="24" width="24"/></g><g><g><circle cx="17" cy="15.5" fill-rule="evenodd" r="1.12"/><path d="M17,17.5c-0.73,0-2.19,0.36-2.24,1.08c0.5,0.71,1.32,1.17,2.24,1.17 s1.74-0.46,2.24-1.17C19.19,17.86,17.73,17.5,17,17.5z" fill-rule="evenodd"/><path d="M18,11.09V6.27L10.5,3L3,6.27v4.91c0,4.54,3.2,8.79,7.5,9.82 c0.55-0.13,1.08-0.32,1.6-0.55C13.18,21.99,14.97,23,17,23c3.31,0,6-2.69,6-6C23,14.03,20.84,11.57,18,11.09z M11,17 c0,0.56,0.08,1.11,0.23,1.62c-0.24,0.11-0.48,0.22-0.73,0.3c-3.17-1-5.5-4.24-5.5-7.74v-3.6l5.5-2.4l5.5,2.4v3.51 C13.16,11.57,11,14.03,11,17z M17,21c-2.21,0-4-1.79-4-4c0-2.21,1.79-4,4-4s4,1.79,4,4C21,19.21,19.21,21,17,21z" fill-rule="evenodd"/></g></g></svg>