<svg xmlns="http://www.w3.org/2000/svg" enable-background="new 0 0 24 24" height="24" viewBox="0 0 24 24" width="24"><g><path d="M0,0h24v24H0V0z" fill="none"/></g><g><g><path d="M14.5,17c0,1.65-1.35,3-3,3s-3-1.35-3-3h2c0,0.55,0.45,1,1,1s1-0.45,1-1s-0.45-1-1-1H2v-2h9.5 C13.15,14,14.5,15.35,14.5,17z M19,6.5C19,4.57,17.43,3,15.5,3S12,4.57,12,6.5h2C14,5.67,14.67,5,15.5,5S17,5.67,17,6.5 S16.33,8,15.5,8H2v2h13.5C17.43,10,19,8.43,19,6.5z M18.5,11H2v2h16.5c0.83,0,1.5,0.67,1.5,1.5S19.33,16,18.5,16v2 c1.93,0,3.5-1.57,3.5-3.5S20.43,11,18.5,11z"/></g></g></svg>