<svg xmlns="http://www.w3.org/2000/svg" height="24" viewBox="0 0 24 24" width="24"><path d="M0 0h24v24H0V0z" fill="none"/><path d="M6 6.5c.31 0 .7.15.9.56.24.5.02 1.1-.47 1.34-.14.06-.28.1-.43.1-.3 0-.7-.15-.89-.56-.17-.34-.1-.63-.05-.78.05-.14.18-.4.51-.56.14-.06.28-.1.43-.1m6.47 2.11l6.69 2.41c.52.19.93.56 1.15 1.05.22.48.25 1.03.06 1.53l-.01.02-8.59-3.11.7-1.9M10 15.19l4 1.44V17h-4v-1.81M6 4.5c-.44 0-.88.1-1.3.3-1.49.71-2.12 2.5-1.4 4 .51 1.07 1.58 1.7 2.7 1.7.44 0 .88-.1 1.3-.3 1.49-.72 2.12-2.51 1.41-4C8.19 5.13 7.12 4.5 6 4.5zm5.28 1.55L9.2 11.71l12.36 4.47.69-1.89c.77-2.09-.31-4.39-2.41-5.15l-8.56-3.09zm-9.09 4.2l-.69 1.89L8 14.48V19h8v-1.63L20.52 19l.69-1.89-19.02-6.86z"/></svg>