<svg xmlns="http://www.w3.org/2000/svg" height="24" viewBox="0 0 24 24" width="24"><path d="M0 0h24v24H0V0z" fill="none"/><path d="M3 14h.78c.55-.61 1.34-1 2.22-1s1.67.39 2.22 1h7.56c.55-.61 1.34-1 2.22-1s1.67.39 2.22 1H21v-2H3v2z" opacity=".3"/><path d="M17 5H3c-1.1 0-2 .89-2 2v9h2c0 1.66 1.34 3 3 3s3-1.34 3-3h6c0 1.66 1.34 3 3 3s3-1.34 3-3h2v-5l-6-6zm-2 2h1l3 3h-4V7zM9 7h4v3H9V7zM3 7h4v3H3V7zm3 10.25c-.69 0-1.25-.56-1.25-1.25s.56-1.25 1.25-1.25 1.25.56 1.25 1.25-.56 1.25-1.25 1.25zm12 0c-.69 0-1.25-.56-1.25-1.25s.56-1.25 1.25-1.25 1.25.56 1.25 1.25-.56 1.25-1.25 1.25zM21 14h-.78c-.55-.61-1.34-1-2.22-1s-1.67.39-2.22 1H8.22c-.55-.61-1.33-1-2.22-1s-1.67.39-2.22 1H3v-2h18v2z"/></svg>