<svg xmlns="http://www.w3.org/2000/svg" height="24" viewBox="0 0 24 24" width="24"><path d="M0 0h24v24H0V0z" fill="none"/><path d="M14.94 10.11l-4.4 4.42-1.6-1.6c-.29-.29-.77-.29-1.06 0-.29.29-.29.77 0 1.06L10 16.11c.29.29.77.29 1.06 0L16 11.17c.29-.29.29-.77 0-1.06-.29-.29-.77-.29-1.06 0zm6.24-5.1L18.1 2.45c-.42-.35-1.05-.3-1.41.13-.35.42-.29 1.05.13 1.41l3.07 2.56c.42.35 1.05.3 1.41-.13.36-.42.3-1.05-.12-1.41zM4.1 6.55l3.07-2.56c.43-.36.49-.99.13-1.41-.35-.43-.98-.48-1.4-.13L2.82 5.01c-.42.36-.48.99-.12 1.41.35.43.98.48 1.4.13zM12 4c-4.97 0-9 4.03-9 9s4.03 9 9 9 9-4.03 9-9-4.03-9-9-9zm0 16c-3.86 0-7-3.14-7-7s3.14-7 7-7 7 3.14 7 7-3.14 7-7 7z"/></svg>