<svg xmlns="http://www.w3.org/2000/svg" enable-background="new 0 0 24 24" height="24" viewBox="0 0 24 24" width="24"><g><rect fill="none" height="24" width="24"/></g><g><g><path d="M17 18H7V6h10v1h2V3c0-1.1-.9-2-2-2H7c-1.1 0-2 .9-2 2v18c0 1.1.9 2 2 2h10c1.1 0 2-.9 2-2v-4h-2v1zM7 3h10v1H7V3zm10 18H7v-1h10v1z"/><polygon points="20.38,9.62 21,11 21.62,9.62 23,9 21.62,8.38 21,7 20.38,8.38 19,9"/><polygon points="16,8 14.75,10.75 12,12 14.75,13.25 16,16 17.25,13.25 20,12 17.25,10.75"/><polygon points="21,13 20.38,14.38 19,15 20.38,15.62 21,17 21.62,15.62 23,15 21.62,14.38"/></g></g></svg>