<svg xmlns="http://www.w3.org/2000/svg" enable-background="new 0 0 24 24" height="24" viewBox="0 0 24 24" width="24"><g><rect fill="none" height="24" width="24"/></g><g><g><path d="M6.36,18.78L6.61,21l1.62-1.54l2.77-7.6c-0.68-0.17-1.28-0.51-1.77-0.98L6.36,18.78z"/><path d="M14.77,10.88c-0.49,0.47-1.1,0.81-1.77,0.98l2.77,7.6L17.39,21l0.26-2.22L14.77,10.88z"/><path d="M15,8c0-1.3-0.84-2.4-2-2.82V3h-2v2.18C9.84,5.6,9,6.7,9,8c0,1.66,1.34,3,3,3S15,9.66,15,8z M12,9c-0.55,0-1-0.45-1-1 c0-0.55,0.45-1,1-1s1,0.45,1,1C13,8.55,12.55,9,12,9z"/></g></g></svg>