<svg xmlns="http://www.w3.org/2000/svg" enable-background="new 0 0 24 24" height="24" viewBox="0 0 24 24" width="24"><g><path d="M0 0h24v24H0V0z" fill="none"/></g><g><g><path d="M12 1C5.9 1 1 5.9 1 12s4.9 11 11 11 11-4.9 11-11S18.1 1 12 1zm0 20c-4.99 0-9-4.01-9-9s4.01-9 9-9 9 4.01 9 9-4.01 9-9 9z"/><path d="M19.73 11.42 12.54 4.2c-.36-.27-.8-.27-1.15 0L4.2 11.42c-.27.36-.27.8 0 1.16l7.19 7.22c.36.27.8.27 1.15 0l7.19-7.22c.36-.36.36-.89 0-1.16zM13.5 14.5l-1.41-1.41L13.17 12H10v3H8v-4c0-.6.4-1 1-1h4.17l-1.09-1.09L13.5 7.5 17 11l-3.5 3.5z"/></g></g></svg>