<svg xmlns="http://www.w3.org/2000/svg" enable-background="new 0 0 24 24" height="24" viewBox="0 0 24 24" width="24"><g><rect fill="none" height="24" width="24" x="0"/></g><g><g><polygon points="20,7 20.94,4.94 23,4 20.94,3.06 20,1 19.06,3.06 17,4 19.06,4.94"/><path d="M14.17,8.42l1.41,1.41l-1.46,1.46l1.41,1.41l2.17-2.17c0.39-0.39,0.39-1.02,0-1.41l-2.83-2.83C14.68,6.1,14.43,6,14.17,6 c-0.26,0-0.51,0.1-0.71,0.29l-2.17,2.17l1.41,1.41L14.17,8.42z"/><path d="M1.39,4.22l7.07,7.07l-6.17,6.17c-0.39,0.39-0.39,1.02,0,1.41l2.83,2.83C5.32,21.9,5.57,22,5.83,22s0.51-0.1,0.71-0.29 l6.17-6.17l7.07,7.07l1.41-1.41L2.81,2.81L1.39,4.22z M11.29,14.12l-5.46,5.46l-1.41-1.41l5.46-5.46L11.29,14.12z"/></g></g></svg>