<svg xmlns="http://www.w3.org/2000/svg" enable-background="new 0 0 24 24" height="24" viewBox="0 0 24 24" width="24"><g><rect fill="none" height="24" width="24" x="0"/></g><g><g><path d="M3,6.71v9.91C4.14,16.21,5.31,16,6.5,16c1.19,0,2.36,0.21,3.5,0.62V6.72C8.89,6.25,7.7,6,6.5,6 C5.28,6,4.11,6.24,3,6.71z" opacity=".3"/><polygon points="19,0.5 14,5.5 14,15 19,10.5"/><path d="M22.47,5.2C22,4.96,21.51,4.76,21,4.59v12.03C19.86,16.21,18.69,16,17.5,16c-1.9,0-3.78,0.54-5.5,1.58V5.48 C10.38,4.55,8.51,4,6.5,4C4.71,4,3.02,4.44,1.53,5.2C1.2,5.36,1,5.71,1,6.08v12.08c0,0.58,0.47,0.99,1,0.99 c0.16,0,0.32-0.04,0.48-0.12C3.69,18.4,5.05,18,6.5,18c2.07,0,3.98,0.82,5.5,2c1.52-1.18,3.43-2,5.5-2c1.45,0,2.81,0.4,4.02,1.04 c0.16,0.08,0.32,0.12,0.48,0.12c0.52,0,1-0.41,1-0.99V6.08C23,5.71,22.8,5.36,22.47,5.2z M10,16.62C8.86,16.21,7.69,16,6.5,16 c-1.19,0-2.36,0.21-3.5,0.62V6.71C4.11,6.24,5.28,6,6.5,6C7.7,6,8.89,6.25,10,6.72V16.62z"/></g></g></svg>