<svg xmlns="http://www.w3.org/2000/svg" enable-background="new 0 0 24 24" height="24" viewBox="0 0 24 24" width="24"><g><rect fill="none" height="24" width="24"/><path d="M14,8v2h-3L8.31,8.82L7,12.75V22H3V12l1.58-4.63C4.96,6.25,6.22,5.69,7.3,6.18l4.15,1.83L14,8z M8,1C6.9,1,6,1.9,6,3 s0.9,2,2,2s2-0.9,2-2S9.1,1,8,1z M9,19h12v-2H9V19z M19.5,16c0.83,0,1.5-0.67,1.5-1.5c0-0.83-0.67-1.5-1.5-1.5S18,13.67,18,14.5 C18,15.33,18.67,16,19.5,16z M13,12c0-0.55-0.45-1-1-1H9v2h2v1c0,1.1,0.9,2,2,2h2c1.1,0,2-0.9,2-2v-3h-2v2h-2V12z"/></g></svg>