<svg xmlns="http://www.w3.org/2000/svg" enable-background="new 0 0 24 24" height="24" viewBox="0 0 24 24" width="24"><g><rect fill="none" height="24" width="24"/></g><g><path d="M23 8.75h-4v-1.5h4v1.5zm-.38-4.38L22 3l-3.62 1.63L19 6l3.62-1.63zM19 10l-.62 1.37L22 13l.62-1.37L19 10zm-8 3c.55 0 1 .45 1 1v2c0 .55-.45 1-1 1H9.64l-.74 2.78A2.999 2.999 0 016 22a2.995 2.995 0 01-2.9-3.77l1.82-6.8A4.028 4.028 0 013 8c0-2.21 1.79-4 4-4h8c1.49 0 2.45 1.56 1.79 2.89l-2 4C14.45 11.57 13.75 12 13 12h-2.02l-.27 1H11z"/></g></svg>