<svg xmlns="http://www.w3.org/2000/svg" enable-background="new 0 0 24 24" height="24" viewBox="0 0 24 24" width="24"><g><rect fill="none" height="24" width="24"/><rect fill="none" height="24" width="24"/></g><g><g><path d="M11.65,3.46c0.27-0.71-0.36-1.45-1.12-1.34C9.05,2.33,7.68,2.88,6.49,3.66l4.59,4.59C10.88,6.69,11.04,5.05,11.65,3.46z"/><path d="M2.1,3.51L2.1,3.51c-0.39,0.39-0.39,1.02,0,1.41l1.56,1.56c-1.4,2.11-2.02,4.77-1.46,7.56c0.79,3.94,3.99,7.07,7.94,7.78 c2.74,0.49,5.3-0.15,7.35-1.51l1.57,1.57c0.39,0.39,1.02,0.39,1.41,0l0,0c0.39-0.39,0.39-1.02,0-1.41L3.51,3.51 C3.12,3.12,2.49,3.12,2.1,3.51z"/></g></g></svg>