<svg xmlns="http://www.w3.org/2000/svg" enable-background="new 0 0 24 24" height="24" viewBox="0 0 24 24" width="24"><g><rect fill="none" height="24" width="24"/><rect fill="none" height="24" width="24"/></g><g><path d="M20,19V5c0-1.1-0.9-2-2-2H6C4.9,3,4,3.9,4,5v14H3c-0.55,0-1,0.45-1,1v0c0,0.55,0.45,1,1,1h10.25 c0,0.97,0.78,1.75,1.75,1.75s1.75-0.78,1.75-1.75H21c0.55,0,1-0.45,1-1v0c0-0.55-0.45-1-1-1H20z M18,11h-2V9h2V11z M14,11H6V9h8V11 z M14,13v2H6v-2H14z M16,13h2v2h-2V13z M18,7h-2V5h2V7z M14,5v2H6V5H14z M6,19v-2h8v2H6z M16,19v-2h2v2H16z"/></g></svg>