<svg xmlns="http://www.w3.org/2000/svg" enable-background="new 0 0 24 24" height="24" viewBox="0 0 24 24" width="24"><g><rect fill="none" height="24" width="24"/></g><g><g><path d="M22,9.76V4H4v2h16v2.59C20.73,8.88,21.4,9.28,22,9.76z"/><path d="M9,9H2v11h7V9z M7,18H4v-7h3V18z"/><path d="M17.75,16.97c0.3-0.23,0.5-0.57,0.5-0.97c0-0.69-0.56-1.25-1.25-1.25s-1.25,0.56-1.25,1.25c0,0.4,0.2,0.75,0.5,0.97V22 h1.5V16.97z"/><path d="M17,13.5c1.38,0,2.5,1.12,2.5,2.5c0,0.69-0.28,1.31-0.73,1.76l1.06,1.06C20.55,18.1,21,17.1,21,16c0-2.21-1.79-4-4-4 c-2.21,0-4,1.79-4,4c0,1.1,0.45,2.1,1.17,2.83l1.06-1.06c-0.45-0.45-0.73-1.08-0.73-1.77C14.5,14.62,15.62,13.5,17,13.5z"/><path d="M17,9.5c-3.59,0-6.5,2.91-6.5,6.5c0,1.79,0.73,3.42,1.9,4.6l1.06-1.06C12.56,18.63,12,17.38,12,16c0-2.76,2.24-5,5-5 s5,2.24,5,5c0,1.37-0.56,2.62-1.46,3.52l1.07,1.06c1.17-1.18,1.89-2.8,1.89-4.58C23.5,12.41,20.59,9.5,17,9.5z"/></g></g></svg>