<svg xmlns="http://www.w3.org/2000/svg" enable-background="new 0 0 24 24" height="24" viewBox="0 0 24 24" width="24"><g><path d="M0,0h24v24H0V0z" fill="none"/></g><g><g><path d="M20,5V4c0-0.55-0.45-1-1-1h-2c-0.55,0-1,0.45-1,1v1h-1v4c0,0.55,0.45,1,1,1h1v7c0,1.1-0.9,2-2,2s-2-0.9-2-2V7 c0-2.21-1.79-4-4-4S5,4.79,5,7v7H4c-0.55,0-1,0.45-1,1v4h1v1c0,0.55,0.45,1,1,1h2c0.55,0,1-0.45,1-1v-1h1v-4c0-0.55-0.45-1-1-1H7 V7c0-1.1,0.9-2,2-2s2,0.9,2,2v10c0,2.21,1.79,4,4,4s4-1.79,4-4v-7h1c0.55,0,1-0.45,1-1V5H20z"/></g></g></svg>