<svg xmlns="http://www.w3.org/2000/svg" height="24" viewBox="0 0 24 24" width="24"><path d="M0 0h24v24H0V0z" fill="none"/><path d="M19 17.47c-.88-.07-1.75-.22-2.6-.45l-1.19 1.19c1.2.41 2.48.67 3.8.75v-1.49zM6.54 5h-1.5c.09 1.32.35 2.59.75 3.8l1.2-1.2c-.24-.84-.39-1.71-.45-2.6z" opacity=".3"/><path d="M20 21c.55 0 1-.45 1-1v-3.49c0-.55-.45-1-1-1-1.24 0-2.45-.2-3.57-.57-.1-.04-.21-.05-.31-.05-.26 0-.51.1-.71.29l-2.2 2.2c-2.83-1.45-5.15-3.76-6.59-6.59l2.2-2.2c.28-.28.36-.67.25-1.02C8.7 6.45 8.5 5.25 8.5 4c0-.55-.45-1-1-1H4c-.55 0-1 .45-1 1 0 9.39 7.61 17 17 17zm-3.6-3.98c.85.24 1.72.39 2.6.45v1.49c-1.32-.09-2.59-.35-3.8-.75l1.2-1.19zM5.03 5h1.5c.07.89.22 1.76.46 2.59l-1.2 1.2c-.41-1.2-.67-2.47-.76-3.79z"/></svg>