<svg xmlns="http://www.w3.org/2000/svg" enable-background="new 0 0 24 24" height="24" viewBox="0 0 24 24" width="24"><g><path d="M0,0h24v24H0V0z" fill="none"/></g><g><path d="M18,13c0-0.55-0.45-1-1-1h-4c-0.55,0-1,0.45-1,1v4c0,0.55,0.45,1,1,1h4c0.55,0,1-0.45,1-1v-1l1.27,0.67 C19.6,16.85,20,16.61,20,16.23v-2.46c0-0.38-0.4-0.62-0.73-0.44L18,14V13z M10.8,3.9l-6,4.5C4.3,8.78,4,9.37,4,10v9 c0,1.1,0.9,2,2,2h13c0.55,0,1-0.45,1-1v0c0-0.55-0.45-1-1-1H6v-9l6-4.5l6,4.5l0,1h2v-1c0-0.63-0.3-1.22-0.8-1.6l-6-4.5 C12.49,3.37,11.51,3.37,10.8,3.9z"/></g></svg>