<svg xmlns="http://www.w3.org/2000/svg" enable-background="new 0 0 24 24" height="24" viewBox="0 0 24 24" width="24"><g><path d="M0,0h24v24H0V0z" fill="none"/></g><g><g><path d="M14,6h-4L9,7H6v10h12V7h-3L14,6z M12,14c-1.1,0-2-0.9-2-2c0-1.1,0.9-2,2-2s2,0.9,2,2C14,13.1,13.1,14,12,14z"/><path d="M8.57,0.51l4.48,4.48V2.04c4.72,0.47,8.48,4.23,8.95,8.95c0,0,2,0,2,0C23.34,3.02,15.49-1.59,8.57,0.51z"/><path d="M10.95,21.96C6.23,21.49,2.47,17.73,2,13.01c0,0-2,0-2,0c0.66,7.97,8.51,12.58,15.43,10.48l-4.48-4.48V21.96z"/></g></g></svg>