<svg width="24" height="24" viewBox="0 0 24 24" xmlns="http://www.w3.org/2000/svg"><path d="M3 22C2.45 22 1.97917 21.8042 1.5875 21.4125C1.19583 21.0208 1 20.55 1 20V9H3V20H20V22H3ZM7 18C6.45 18 5.97917 17.8042 5.5875 17.4125C5.19583 17.0208 5 16.55 5 16V5H10V3C10 2.45 10.1958 1.97917 10.5875 1.5875C10.9792 1.19583 11.45 1 12 1H16C16.55 1 17.0208 1.19583 17.4125 1.5875C17.8042 1.97917 18 2.45 18 3V5H23V16C23 16.55 22.8042 17.0208 22.4125 17.4125C22.0208 17.8042 21.55 18 21 18H7ZM12 5H16V3H12V5Z"/></svg>