<svg xmlns="http://www.w3.org/2000/svg" enable-background="new 0 0 24 24" height="24" viewBox="0 0 24 24" width="24"><g><rect fill="none" height="24" width="24" y="0"/></g><g><g><polygon enable-background="new" opacity=".3" points="12.35,16.18 7.82,11.65 5.3,18.7"/><path d="M2,22l14-5L7,8L2,22z M12.35,16.18L5.3,18.7l2.52-7.05L12.35,16.18z"/><path d="M14.53,12.53l5.59-5.59c0.49-0.49,1.28-0.49,1.77,0l0.59,0.59l1.06-1.06l-0.59-0.59c-1.07-1.07-2.82-1.07-3.89,0 l-5.59,5.59L14.53,12.53z"/><path d="M9.47,7.47l1.06,1.06l0.59-0.59c1.07-1.07,1.07-2.82,0-3.89l-0.59-0.59L9.47,4.53l0.59,0.59c0.48,0.48,0.48,1.28,0,1.76 L9.47,7.47z"/><path d="M17.06,11.88l-1.59,1.59l1.06,1.06l1.59-1.59c0.49-0.49,1.28-0.49,1.77,0l1.61,1.61l1.06-1.06l-1.61-1.61 C19.87,10.81,18.13,10.81,17.06,11.88z"/><path d="M15.06,5.88l-3.59,3.59l1.06,1.06l3.59-3.59c1.07-1.07,1.07-2.82,0-3.89l-1.59-1.59l-1.06,1.06l1.59,1.59 C15.54,4.6,15.54,5.4,15.06,5.88z"/></g></g></svg>