<svg xmlns="http://www.w3.org/2000/svg" enable-background="new 0 0 24 24" height="24" viewBox="0 0 24 24" width="24"><rect fill="none" height="24" width="24"/><path d="M12,2C6.48,2,2,6.48,2,12s4.48,10,10,10s10-4.48,10-10S17.52,2,12,2z M12,20c-4.41,0-8-3.59-8-8s3.59-8,8-8s8,3.59,8,8 S16.41,20,12,20z M16.17,14.76l-1.1-1.1c0.71-1.33,0.53-3.01-0.59-4.13C13.79,8.84,12.9,8.5,12,8.5c-0.03,0-0.06,0.01-0.09,0.01 L13,9.6l-1.06,1.06L9.11,7.83L11.94,5L13,6.06l-0.96,0.96c1.27,0.01,2.53,0.48,3.5,1.44C17.24,10.17,17.45,12.82,16.17,14.76z M14.89,16.17L12.06,19L11,17.94l0.95-0.95c-1.26-0.01-2.52-0.5-3.48-1.46c-1.71-1.71-1.92-4.35-0.64-6.29l1.1,1.1 c-0.71,1.33-0.53,3.01,0.59,4.13c0.7,0.7,1.63,1.04,2.56,1.01L11,14.4l1.06-1.06L14.89,16.17z"/></svg>