<svg xmlns="http://www.w3.org/2000/svg" enable-background="new 0 0 24 24" height="24" viewBox="0 0 24 24" width="24"><rect fill="none" height="24" width="24"/><path d="M11,8c0-0.55-0.45-1-1-1H3C2.45,7,2,7.45,2,8s0.45,1,1,1h7C10.55,9,11,8.55,11,8z M11,16c0-0.55-0.45-1-1-1H3 c-0.55,0-1,0.45-1,1c0,0.55,0.45,1,1,1h7C10.55,17,11,16.55,11,16z M17.05,10.29c-0.39,0.39-1.02,0.39-1.41,0l-2.12-2.12 c-0.39-0.39-0.39-1.02,0-1.41l0,0c0.39-0.39,1.02-0.39,1.41,0l1.41,1.41l3.54-3.54c0.39-0.39,1.02-0.39,1.41,0l0,0 c0.39,0.39,0.39,1.02,0,1.41L17.05,10.29z M17.05,18.29c-0.39,0.39-1.02,0.39-1.41,0l-2.12-2.12c-0.39-0.39-0.39-1.02,0-1.41l0,0 c0.39-0.39,1.02-0.39,1.41,0l1.41,1.41l3.54-3.54c0.39-0.39,1.02-0.39,1.41,0l0,0c0.39,0.39,0.39,1.02,0,1.41L17.05,18.29z"/></svg>