<svg xmlns="http://www.w3.org/2000/svg" enable-background="new 0 0 24 24" height="24" viewBox="0 0 24 24" width="24"><rect fill="none" height="24" width="24"/><g><path d="M22,8c0-0.55-0.45-1-1-1h-7c-0.55,0-1,0.45-1,1s0.45,1,1,1h7C21.55,9,22,8.55,22,8z M13,16c0,0.55,0.45,1,1,1h7 c0.55,0,1-0.45,1-1c0-0.55-0.45-1-1-1h-7C13.45,15,13,15.45,13,16z M10.47,4.63c0.39,0.39,0.39,1.02,0,1.41l-4.23,4.25 c-0.39,0.39-1.02,0.39-1.42,0L2.7,8.16c-0.39-0.39-0.39-1.02,0-1.41c0.39-0.39,1.02-0.39,1.41,0l1.42,1.42l3.54-3.54 C9.45,4.25,10.09,4.25,10.47,4.63z M10.48,12.64c0.39,0.39,0.39,1.02,0,1.41l-4.23,4.25c-0.39,0.39-1.02,0.39-1.42,0L2.7,16.16 c-0.39-0.39-0.39-1.02,0-1.41s1.02-0.39,1.41,0l1.42,1.42l3.54-3.54C9.45,12.25,10.09,12.25,10.48,12.64L10.48,12.64z"/></g></svg>