<svg xmlns="http://www.w3.org/2000/svg" enable-background="new 0 0 24 24" height="24" viewBox="0 0 24 24" width="24"><rect fill="none" height="24" width="24"/><path d="M5,18c0,0.55,0.45,1,1,1s1-0.45,1-1s-0.45-1-1-1S5,17.45,5,18z M17,18c0,0.55,0.45,1,1,1s1-0.45,1-1s-0.45-1-1-1 S17,17.45,17,18z M8,22c0,0.55,0.45,1,1,1s1-0.45,1-1s-0.45-1-1-1S8,21.45,8,22z M11,18c0,0.55,0.45,1,1,1s1-0.45,1-1s-0.45-1-1-1 S11,17.45,11,18z M14,22c0,0.55,0.45,1,1,1s1-0.45,1-1s-0.45-1-1-1S14,21.45,14,22z M17.5,16h-10C4.47,16,2,13.53,2,10.5 c0-2.76,2.09-5.09,4.78-5.44C7.83,3.18,9.82,2,12,2c2.97,0,5.45,2.18,5.92,5.02C20.21,7.23,22,9.16,22,11.5 C22,13.98,19.98,16,17.5,16z"/></svg>