<svg xmlns="http://www.w3.org/2000/svg" enable-background="new 0 0 24 24" height="24" viewBox="0 0 24 24" width="24"><rect fill="none" height="24" width="24"/><path d="M11,14H9c0-4.97,4.03-9,9-9v2C14.13,7,11,10.13,11,14z M18,11V9c-2.76,0-5,2.24-5,5h2C15,12.34,16.34,11,18,11z M7,4 c0-1.11-0.89-2-2-2S3,2.89,3,4s0.89,2,2,2S7,5.11,7,4z M11.45,4.5h-2C9.21,5.92,7.99,7,6.5,7h-3C2.67,7,2,7.67,2,8.5V11h6V8.74 C9.86,8.15,11.25,6.51,11.45,4.5z M19,17c1.11,0,2-0.89,2-2s-0.89-2-2-2s-2,0.89-2,2S17.89,17,19,17z M20.5,18h-3 c-1.49,0-2.71-1.08-2.95-2.5h-2c0.2,2.01,1.59,3.65,3.45,4.24V22h6v-2.5C22,18.67,21.33,18,20.5,18z"/></svg>