<svg xmlns="http://www.w3.org/2000/svg" enable-background="new 0 0 24 24" height="24" viewBox="0 0 24 24" width="24"><rect fill="none" height="24" width="24"/><path d="M13.17,2H6C4.9,2,4,2.9,4,4v16c0,1.1,0.9,2,2,2h12c1.1,0,2-0.9,2-2V8.83c0-0.53-0.21-1.04-0.59-1.41l-4.83-4.83 C14.21,2.21,13.7,2,13.17,2z M12,10c1.1,0,2,0.9,2,2c0,1.1-0.9,2-2,2s-2-0.9-2-2C10,10.9,10.9,10,12,10z M16,18H8v-0.57 c0-0.81,0.48-1.53,1.22-1.85C10.07,15.21,11.01,15,12,15c0.99,0,1.93,0.21,2.78,0.58C15.52,15.9,16,16.62,16,17.43V18z"/></svg>