<svg xmlns="http://www.w3.org/2000/svg" enable-background="new 0 0 24 24" height="24" viewBox="0 0 24 24" width="24"><g><rect fill="none" height="24" width="24"/></g><g><g><path d="M12,4c-4.42,0-8,3.58-8,8s3.58,8,8,8s8-3.58,8-8S16.42,4,12,4z M8.46,14.45L7.1,13.83 c0.28-0.61,0.41-1.24,0.4-1.86c-0.01-0.63-0.14-1.24-0.4-1.8l1.36-0.63c0.35,0.75,0.53,1.56,0.54,2.4 C9.01,12.8,8.83,13.64,8.46,14.45z M11.53,16.01l-1.3-0.74c0.52-0.92,0.78-1.98,0.78-3.15c0-1.19-0.27-2.33-0.8-3.4l1.34-0.67 c0.64,1.28,0.96,2.65,0.96,4.07C12.51,13.55,12.18,14.86,11.53,16.01z M14.67,17.33l-1.35-0.66c0.78-1.6,1.18-3.18,1.18-4.69 c0-1.51-0.4-3.07-1.18-4.64l1.34-0.67C15.56,8.45,16,10.23,16,11.98C16,13.72,15.56,15.52,14.67,17.33z" opacity=".3"/><path d="M12,2C6.48,2,2,6.48,2,12c0,5.52,4.48,10,10,10s10-4.48,10-10C22,6.48,17.52,2,12,2z M12,20c-4.42,0-8-3.58-8-8 s3.58-8,8-8s8,3.58,8,8S16.42,20,12,20z"/><path d="M7.1,10.18c0.26,0.56,0.39,1.16,0.4,1.8c0.01,0.63-0.13,1.25-0.4,1.86l1.37,0.62c0.37-0.81,0.55-1.65,0.54-2.5 c-0.01-0.84-0.19-1.65-0.54-2.4L7.1,10.18z"/><path d="M13.33,7.33c0.78,1.57,1.18,3.14,1.18,4.64c0,1.51-0.4,3.09-1.18,4.69l1.35,0.66c0.88-1.81,1.33-3.61,1.33-5.35 c0-1.74-0.45-3.53-1.33-5.31L13.33,7.33z"/><path d="M10.2,8.72c0.53,1.07,0.8,2.21,0.8,3.4c0,1.17-0.26,2.23-0.78,3.15l1.3,0.74c0.65-1.15,0.98-2.45,0.98-3.89 c0-1.42-0.32-2.79-0.96-4.07L10.2,8.72z"/></g></g></svg>