<svg xmlns="http://www.w3.org/2000/svg" enable-background="new 0 0 24 24" height="24" viewBox="0 0 24 24" width="24"><g><rect fill="none" height="24" width="24"/><rect fill="none" height="24" width="24"/></g><g><g><path d="M5,5h2v1c0,1.1,0.9,2,2,2h6c1.1,0,2-0.9,2-2V5h2v6h2V5c0-1.1-0.9-2-2-2h-4.18C14.4,1.84,13.3,1,12,1S9.6,1.84,9.18,3H5 C3.9,3,3,3.9,3,5v14c0,1.1,0.9,2,2,2h5v-2H5V5z M12,3c0.55,0,1,0.45,1,1s-0.45,1-1,1s-1-0.45-1-1S11.45,3,12,3z"/><path d="M21.29,16.29l-2.58-2.58c-0.39-0.39-1.02-0.39-1.41,0c-0.39,0.39-0.39,1.02,0,1.41l0.87,0.88H13c-0.55,0-1,0.45-1,1 c0,0.55,0.45,1,1,1h5.17l-0.87,0.88c-0.39,0.39-0.39,1.02,0,1.41v0c0.39,0.39,1.02,0.39,1.41,0l2.58-2.58 C21.68,17.31,21.68,16.68,21.29,16.29z"/></g></g></svg>