<svg xmlns="http://www.w3.org/2000/svg" height="24" viewBox="0 -960 960 960" width="24"><path d="M200-120q-50 0-85-35t-35-85q0-50 35-85t85-35h560q50 0 85 35t35 85q0 50-35 85t-85 35H200Zm0-80h560q17 0 28.5-11.5T800-240q0-17-11.5-28.5T760-280H200q-17 0-28.5 11.5T160-240q0 17 11.5 28.5T200-200Zm200-240q-17 0-28.5-11.5T360-480v-320q0-17 11.5-28.5T400-840h320q17 0 28.5 11.5T760-800v320q0 17-11.5 28.5T720-440H400Zm40-80h240v-240H440v240Zm-360-2v-77h197v77H80Zm400-118h160v-79H480v79Zm-320 0h117v-79H160v79Zm280 120v-240 240Z"/></svg>