<svg xmlns="http://www.w3.org/2000/svg" enable-background="new 0 0 24 24" height="24" viewBox="0 0 24 24" width="24"><rect fill="none" height="24" width="24"/><path d="M22.39,12.19c0.34-0.44,0.25-1.07-0.19-1.4l-9.6-7.33c-0.36-0.27-0.86-0.27-1.21,0L6,7.58V7c0-0.55-0.45-1-1-1S4,6.45,4,7 v2.11l-2.21,1.68c-0.44,0.33-0.52,0.96-0.19,1.4c0.34,0.44,0.96,0.52,1.4,0.19L4,11.62V20c0,0.55,0.45,1,1,1h6v-5c0-0.55,0.45-1,1-1 s1,0.45,1,1v5h6c0.55,0,1-0.45,1-1v-8.38l0.99,0.76C21.43,12.72,22.06,12.63,22.39,12.19z M5.27,5c-0.74,0-1.26-0.8-0.9-1.45 C4.89,2.62,5.87,2,7,2c0.38,0,0.72-0.22,0.89-0.53C8.04,1.16,8.39,1,8.73,1c0.74,0,1.26,0.8,0.9,1.45C9.11,3.38,8.13,4,7,4 C6.62,4,6.28,4.22,6.11,4.53C5.96,4.84,5.61,5,5.27,5z"/></svg>