<svg xmlns="http://www.w3.org/2000/svg" enable-background="new 0 0 24 24" height="24" viewBox="0 0 24 24" width="24"><rect fill="none" height="24" width="24"/><path d="M18,14H6V8c0-1.1,0.9-2,2-2h2v5h8V14z" opacity=".3"/><path d="M18,9h-6V4H8C5.79,4,4,5.79,4,8v6c0,1.1,0.9,2,2,2h2v2.93c-0.61-0.35-1.16-0.78-1.65-1.27l-1.42,1.42 C6.74,20.88,9.24,22,12,22c2.76,0,5.26-1.12,7.07-2.93l-1.42-1.42c-0.49,0.49-1.05,0.92-1.65,1.27V16h2c1.1,0,2-0.9,2-2v-3 C20,9.9,19.1,9,18,9z M14,19.75C13.36,19.91,12.69,20,12,20c-0.69,0-1.36-0.09-2-0.25V16h4V19.75z M18,14H6V8c0-1.1,0.9-2,2-2h2v5h8 V14z"/></svg>