<svg xmlns="http://www.w3.org/2000/svg" height="24" viewBox="0 0 24 24" width="24"><path d="M0 0h24v24H0V0z" fill="none"/><path d="M16 1c-2.4 0-4.52 1.21-5.78 3.05.01-.01.01-.02.02-.03C9.84 4 9.42 4 9 4c-4.42 0-8 .5-8 4v10c0 .88.39 1.67 1 2.22V22c0 .55.45 1 1 1h1c.55 0 1-.45 1-1v-1h8v1c0 .55.45 1 1 1h1c.55 0 1-.45 1-1v-1.78c.61-.55 1-1.34 1-2.22v-3.08c3.39-.49 6-3.39 6-6.92 0-3.87-3.13-7-7-7zM4.5 19c-.83 0-1.5-.67-1.5-1.5S3.67 16 4.5 16s1.5.67 1.5 1.5S5.33 19 4.5 19zM3 13V8h6c0 1.96.81 3.73 2.11 5H3zm10.5 6c-.83 0-1.5-.67-1.5-1.5s.67-1.5 1.5-1.5 1.5.67 1.5 1.5-.67 1.5-1.5 1.5zm2.5-6c-2.76 0-5-2.24-5-5s2.24-5 5-5 5 2.24 5 5-2.24 5-5 5zm.5-9H15v5l3.62 2.16.75-1.23-2.87-1.68z"/></svg>