<svg xmlns="http://www.w3.org/2000/svg" height="24" viewBox="0 0 24 24" width="24"><path d="M0 0h24v24H0V0z" fill="none"/><path d="M17.34 1.13c-2.94-.55-5.63.75-7.12 2.92.01-.01.01-.02.02-.03C9.84 4 9.42 4 9 4c-4.42 0-8 .5-8 4v10c0 .88.39 1.67 1 2.22v1.28c0 .83.67 1.5 1.5 1.5S5 22.33 5 21.5V21h8v.5c0 .82.67 1.5 1.5 1.5.82 0 1.5-.67 1.5-1.5v-1.28c.61-.55 1-1.34 1-2.22v-3.08c3.72-.54 6.5-3.98 5.92-7.97-.42-2.9-2.7-5.29-5.58-5.82zM4.5 19c-.83 0-1.5-.67-1.5-1.5S3.67 16 4.5 16s1.5.67 1.5 1.5S5.33 19 4.5 19zM3 13V8h6c0 1.96.81 3.73 2.11 5H3zm10.5 6c-.83 0-1.5-.67-1.5-1.5s.67-1.5 1.5-1.5 1.5.67 1.5 1.5-.67 1.5-1.5 1.5zm2.5-6c-2.76 0-5-2.24-5-5s2.24-5 5-5 5 2.24 5 5-2.24 5-5 5zm-.25-9c-.41 0-.75.34-.75.75v3.68c0 .35.19.68.49.86l2.52 1.51c.34.2.78.09.98-.24.21-.34.1-.79-.25-.99L16.5 8.25v-3.5c0-.41-.34-.75-.75-.75z"/></svg>