<svg xmlns="http://www.w3.org/2000/svg" enable-background="new 0 0 24 24" height="24" viewBox="0 0 24 24" width="24"><g><rect fill="none" height="24" width="24"/><rect fill="none" height="24" width="24"/></g><g><g/><g><path d="M16.24,11.51l1.57-1.57l-3.75-3.75l-1.57,1.57L8.35,3.63c-0.78-0.78-2.05-0.78-2.83,0l-1.9,1.9 c-0.78,0.78-0.78,2.05,0,2.83l4.13,4.13L3.15,17.1C3.05,17.2,3,17.32,3,17.46v3.04C3,20.78,3.22,21,3.5,21h3.04 c0.13,0,0.26-0.05,0.35-0.15l4.62-4.62l4.13,4.13c1.32,1.32,2.76,0.07,2.83,0l1.9-1.9c0.78-0.78,0.78-2.05,0-2.83L16.24,11.51z M9.18,11.07L5.04,6.94l1.89-1.9c0,0,0,0,0,0l1.27,1.27L7.73,6.8c-0.39,0.39-0.39,1.02,0,1.41c0.39,0.39,1.02,0.39,1.41,0 l0.48-0.48l1.45,1.45L9.18,11.07z M17.06,18.96l-4.13-4.13l1.9-1.9l1.45,1.45l-0.48,0.48c-0.39,0.39-0.39,1.02,0,1.41 c0.39,0.39,1.02,0.39,1.41,0l0.48-0.48l1.27,1.27L17.06,18.96z"/><path d="M20.71,7.04c0.39-0.39,0.39-1.02,0-1.41l-2.34-2.34c-0.47-0.47-1.12-0.29-1.41,0l-1.83,1.83l3.75,3.75L20.71,7.04z"/></g></g></svg>