<svg xmlns="http://www.w3.org/2000/svg" enable-background="new 0 0 24 24" height="24" viewBox="0 0 24 24" width="24"><g><rect fill="none" height="24" width="24" y="0"/></g><g><path d="M12,2C8,2,4,2.5,4,6v9.5c0,0.95,0.38,1.81,1,2.44V20c0,0.55,0.45,1,1,1h1c0.55,0,1-0.45,1-1 v-1h8v1c0,0.55,0.45,1,1,1h1c0.55,0,1-0.45,1-1v-2.06c0.62-0.63,1-1.49,1-2.44V6C20,2.5,16.42,2,12,2z M8.5,16 C7.67,16,7,15.33,7,14.5S7.67,13,8.5,13s1.5,0.67,1.5,1.5S9.33,16,8.5,16z M15.5,16c-0.83,0-1.5-0.67-1.5-1.5s0.67-1.5,1.5-1.5 s1.5,0.67,1.5,1.5S16.33,16,15.5,16z M18,10H6V7h12V10z" enable-background="new"/></g></svg>