<svg xmlns="http://www.w3.org/2000/svg" enable-background="new 0 0 24 24" height="24" viewBox="0 0 24 24" width="24"><rect fill="none" height="24" width="24"/><path d="M3,5v14c0,1.1,0.9,2,2,2h14c1.1,0,2-0.9,2-2V5c0-1.1-0.9-2-2-2H5C3.9,3,3,3.9,3,5z M16.3,16.29L16.3,16.29 c-0.39,0.39-1.02,0.39-1.41,0L12,13.41l-2.89,2.89c-0.39,0.39-1.02,0.39-1.41,0l0,0c-0.39-0.39-0.39-1.02,0-1.41L10.59,12L7.7,9.11 c-0.39-0.39-0.39-1.02,0-1.41l0,0c0.39-0.39,1.02-0.39,1.41,0L12,10.59l2.89-2.88c0.39-0.39,1.02-0.39,1.41,0l0,0 c0.39,0.39,0.39,1.02,0,1.41L13.41,12l2.89,2.88C16.68,15.27,16.68,15.91,16.3,16.29z"/></svg>