<svg xmlns="http://www.w3.org/2000/svg" enable-background="new 0 0 24 24" height="24" viewBox="0 0 24 24" width="24"><rect fill="none" height="24" width="24"/><path d="M21.99,12.34C22,12.23,22,12.11,22,12c0-5.52-4.48-10-10-10S2,6.48,2,12c0,5.17,3.93,9.43,8.96,9.95 c-0.93-0.73-1.72-1.64-2.32-2.68C5.9,18,4,15.22,4,12c0-1.85,0.63-3.55,1.69-4.9l5.66,5.66c0.56-0.4,1.17-0.73,1.82-1L7.1,5.69 C8.45,4.63,10.15,4,12,4c4.24,0,7.7,3.29,7.98,7.45C20.69,11.67,21.37,11.97,21.99,12.34z M17,13c-3.18,0-5.9,1.87-7,4.5 c1.1,2.63,3.82,4.5,7,4.5s5.9-1.87,7-4.5C22.9,14.87,20.18,13,17,13z M17,20c-1.38,0-2.5-1.12-2.5-2.5c0-1.38,1.12-2.5,2.5-2.5 s2.5,1.12,2.5,2.5C19.5,18.88,18.38,20,17,20z M18.5,17.5c0,0.83-0.67,1.5-1.5,1.5s-1.5-0.67-1.5-1.5c0-0.83,0.67-1.5,1.5-1.5 S18.5,16.67,18.5,17.5z"/></svg>