<svg xmlns="http://www.w3.org/2000/svg" enable-background="new 0 0 24 24" height="24" viewBox="0 0 24 24" width="24"><g><rect fill="none" height="24" width="24"/></g><g><g><circle cx="4" cy="14" r="2"/><path d="M1.22,17.58C0.48,17.9,0,18.62,0,19.43V21l4.5,0v-1.61c0-0.83,0.23-1.61,0.63-2.29C4.76,17.04,4.39,17,4,17 C3.01,17,2.07,17.21,1.22,17.58z"/><circle cx="20" cy="14" r="2"/><path d="M22.78,17.58C21.93,17.21,20.99,17,20,17c-0.39,0-0.76,0.04-1.13,0.1c0.4,0.68,0.63,1.46,0.63,2.29V21l4.5,0v-1.57 C24,18.62,23.52,17.9,22.78,17.58z"/><path d="M16.24,16.65c-1.17-0.52-2.61-0.9-4.24-0.9c-1.63,0-3.07,0.39-4.24,0.9C6.68,17.13,6,18.21,6,19.39V21h12v-1.61 C18,18.21,17.32,17.13,16.24,16.65z M8.07,19c0.09-0.23,0.27-0.42,0.49-0.52c1.1-0.49,2.26-0.73,3.43-0.73 c1.18,0,2.33,0.25,3.43,0.73c0.23,0.1,0.4,0.29,0.49,0.52H8.07z"/><path d="M9,12c0,1.66,1.34,3,3,3s3-1.34,3-3c0-1.66-1.34-3-3-3S9,10.34,9,12z M13,12c0,0.55-0.45,1-1,1s-1-0.45-1-1s0.45-1,1-1 S13,11.45,13,12z"/><path d="M2.48,10.86C2.17,10.1,2,9.36,2,8.6C2,6.02,4.02,4,6.6,4c2.68,0,3.82,1.74,5.4,3.59C13.57,5.76,14.7,4,17.4,4 C19.98,4,22,6.02,22,8.6c0,0.76-0.17,1.5-0.48,2.26c0.65,0.31,1.18,0.82,1.53,1.44C23.65,11.1,24,9.88,24,8.6 C24,4.9,21.1,2,17.4,2c-2.09,0-4.09,0.97-5.4,2.51C10.69,2.97,8.69,2,6.6,2C2.9,2,0,4.9,0,8.6c0,1.28,0.35,2.5,0.96,3.7 C1.31,11.68,1.84,11.17,2.48,10.86z"/><path d="M17.4,4c-2.68,0-3.82,1.74-5.4,3.59C10.44,5.75,9.3,4,6.6,4C4.02,4,2,6.02,2,8.6c0,0.76,0.17,1.5,0.48,2.26 C2.94,10.64,3.45,10.5,4,10.5c1.93,0,3.5,1.57,3.5,3.5c0,0.45-0.09,0.87-0.24,1.26c0.97-0.42,1.96-0.69,2.98-0.84 C9.49,13.87,9,13,9,12c0-1.66,1.34-3,3-3c1.66,0,3,1.34,3,3c0,1-0.49,1.87-1.24,2.42c1.02,0.15,2.02,0.43,2.98,0.85 c-0.15-0.39-0.24-0.82-0.24-1.26c0-1.93,1.57-3.5,3.5-3.5c0.55,0,1.06,0.14,1.52,0.36C21.83,10.1,22,9.36,22,8.6 C22,6.02,19.98,4,17.4,4z" opacity=".3"/><path d="M8.07,19.02h7.85c-0.09-0.23-0.27-0.42-0.49-0.52c-1.1-0.49-2.26-0.73-3.43-0.73 c-1.18,0-2.33,0.25-3.43,0.73C8.34,18.6,8.17,18.79,8.07,19.02z" opacity=".3"/><circle cx="12" cy="12" opacity=".3" r="1"/></g></g></svg>