<svg xmlns="http://www.w3.org/2000/svg" enable-background="new 0 0 24 24" height="24" viewBox="0 0 24 24" width="24"><g><rect fill="none" height="24" width="24"/></g><g><path d="M12,2C6.49,2,2,6.49,2,12s4.49,10,10,10s10-4.49,10-10S17.51,2,12,2z M11,10V7c0-0.55,0.45-1,1-1h0c0.55,0,1,0.45,1,1v3 h1.79c0.45,0,0.67,0.54,0.35,0.85l-2.79,2.79c-0.2,0.2-0.51,0.2-0.71,0l-2.79-2.79C8.54,10.54,8.76,10,9.21,10H11z M16,17H8 c-0.55,0-1-0.45-1-1v0c0-0.55,0.45-1,1-1h8c0.55,0,1,0.45,1,1v0C17,16.55,16.55,17,16,17z"/></g></svg>