<svg xmlns="http://www.w3.org/2000/svg" enable-background="new 0 0 24 24" height="24" viewBox="0 0 24 24" width="24"><rect fill="none" height="24" width="24"/><path d="M14,11c0,0.55-0.45,1-1,1H4c-0.55,0-1-0.45-1-1s0.45-1,1-1h9C13.55,10,14,10.45,14,11z M3,7c0,0.55,0.45,1,1,1h9 c0.55,0,1-0.45,1-1s-0.45-1-1-1H4C3.45,6,3,6.45,3,7z M10,15c0-0.55-0.45-1-1-1H4c-0.55,0-1,0.45-1,1s0.45,1,1,1h5 C9.55,16,10,15.55,10,15z M18.01,12.87l0.71-0.71c0.39-0.39,1.02-0.39,1.41,0l0.71,0.71c0.39,0.39,0.39,1.02,0,1.41l-0.71,0.71 L18.01,12.87z M17.3,13.58l-5.16,5.16C12.05,18.83,12,18.95,12,19.09v1.41c0,0.28,0.22,0.5,0.5,0.5h1.41c0.13,0,0.26-0.05,0.35-0.15 l5.16-5.16L17.3,13.58z"/></svg>