<svg xmlns="http://www.w3.org/2000/svg" enable-background="new 0 0 24 24" height="24" viewBox="0 0 24 24" width="24"><g><rect fill="none" height="24" width="24" y="0"/></g><g><g><path d="M13.95,13H9V8.05l5.61-5.61C13.78,2.16,12.9,2,12,2c-4.2,0-8,3.22-8,8.2c0,3.32,2.67,7.25,8,11.8c5.33-4.55,8-8.48,8-11.8 c0-1.01-0.16-1.94-0.45-2.8L13.95,13z"/><polygon points="11,11 13.12,11 19.28,4.84 17.16,2.72 11,8.88"/><path d="M20.71,2L20,1.29C19.8,1.1,19.55,1,19.29,1c-0.13,0-0.48,0.07-0.71,0.29l-0.72,0.72l2.12,2.12l0.72-0.72 C21.1,3.02,21.1,2.39,20.71,2z"/></g></g></svg>