<svg xmlns="http://www.w3.org/2000/svg" enable-background="new 0 0 24 24" height="24" viewBox="0 0 24 24" width="24"><g><rect fill="none" height="24" width="24"/><rect fill="none" height="24" width="24"/></g><g><g><path d="M19,5c0-1.1-0.9-2-2-2h-2c-0.55,0-1,0.45-1,1v0c0,0.55,0.45,1,1,1h2v2.65L13.52,12H10V8c0-0.55-0.45-1-1-1H6 c-2.21,0-4,1.79-4,4v3h2c0,1.66,1.34,3,3,3s3-1.34,3-3h4.48L19,8.35V5z M7,15c-0.55,0-1-0.45-1-1h2C8,14.55,7.55,15,7,15z"/><path d="M9,4H6C5.45,4,5,4.45,5,5v0c0,0.55,0.45,1,1,1h3c0.55,0,1-0.45,1-1v0C10,4.45,9.55,4,9,4z"/><path d="M19,11c-1.66,0-3,1.34-3,3s1.34,3,3,3s3-1.34,3-3S20.66,11,19,11z M19,15c-0.55,0-1-0.45-1-1s0.45-1,1-1s1,0.45,1,1 S19.55,15,19,15z"/></g><polygon points="7,20 11,20 11,18 17,21 13,21 13,23"/></g></svg>