<svg xmlns="http://www.w3.org/2000/svg" enable-background="new 0 0 24 24" height="24" viewBox="0 0 24 24" width="24"><g><rect fill="none" height="24" width="24"/></g><g><path d="M12,4c1.93,0,3.68,0.78,4.95,2.05l-1.41,1.41C14.63,6.56,13.38,6,12,6S9.37,6.56,8.46,7.46L7.05,6.05 C8.32,4.78,10.07,4,12,4z M19.78,3.23l-1.41,1.41C16.74,3.01,14.49,2,12.01,2S7.27,3.01,5.64,4.63L4.22,3.22 C6.22,1.23,8.97,0,12.01,0S17.79,1.23,19.78,3.23z M12,11c1.94,0,4,1.45,4,4.15c0,0.94-0.55,2.93-4,6.17c-3.45-3.24-4-5.23-4-6.17 C8,12.45,10.06,11,12,11z M12,9c-3.15,0-6,2.41-6,6.15c0,2.49,2,5.44,6,8.85c4-3.41,6-6.36,6-8.85C18,11.41,15.15,9,12,9z M13.5,15 c0-0.83-0.67-1.5-1.5-1.5c-0.83,0-1.5,0.67-1.5,1.5c0,0.83,0.67,1.5,1.5,1.5C12.83,16.5,13.5,15.83,13.5,15z"/></g></svg>