<svg xmlns="http://www.w3.org/2000/svg" enable-background="new 0 0 24 24" height="24" viewBox="0 0 24 24" width="24"><g><rect fill="none" height="24" width="24"/><rect fill="none" height="24" width="24"/></g><g><g/><path d="M11.99,2C6.47,2,2,6.48,2,12c0,5.52,4.47,10,9.99,10C17.52,22,22,17.52,22,12C22,6.48,17.52,2,11.99,2z M8.5,8 C9.33,8,10,8.67,10,9.5S9.33,11,8.5,11S7,10.33,7,9.5S7.67,8,8.5,8z M16.71,14.72C15.8,16.67,14.04,18,12,18s-3.8-1.33-4.71-3.28 C7.13,14.39,7.37,14,7.74,14h8.52C16.63,14,16.87,14.39,16.71,14.72z M15.5,11c-0.83,0-1.5-0.67-1.5-1.5S14.67,8,15.5,8 S17,8.67,17,9.5S16.33,11,15.5,11z"/></g></svg>