<svg xmlns="http://www.w3.org/2000/svg" enable-background="new 0 0 24 24" height="24" viewBox="0 0 24 24" width="24"><g><rect fill="none" height="24" width="24"/><rect fill="none" height="24" width="24"/></g><g><g/><g><circle cx="12" cy="4" r="2"/><path d="M15.89,8.11C15.5,7.72,14.83,7,13.53,7c-0.21,0-1.42,0-2.54,0C8.53,6.99,6.48,5.2,6.07,2.85C5.99,2.36,5.58,2,5.09,2h0 c-0.61,0-1.09,0.54-1,1.14C4.53,5.8,6.47,7.95,9,8.71V21c0,0.55,0.45,1,1,1h0c0.55,0,1-0.45,1-1v-5h2v5c0,0.55,0.45,1,1,1h0 c0.55,0,1-0.45,1-1V10.05l3.24,3.24c0.39,0.39,1.02,0.39,1.41,0v0c0.39-0.39,0.39-1.02,0-1.41L15.89,8.11z"/></g></g></svg>