<svg xmlns="http://www.w3.org/2000/svg" enable-background="new 0 0 24 24" height="24" viewBox="0 0 24 24" width="24"><rect fill="none" height="24" width="24"/><path d="M19.78,22.61l-1.63-1.63C18.1,20.98,18.05,21,18,21h-3.8c0-2.71-2.16-3-2.7-3s-2.7,0.29-2.7,3H5c-1.1,0-2-0.9-2-2v-3.8 c2.71,0,3-2.16,3-2.7c0-0.54-0.3-2.7-2.99-2.7V6c0-0.05,0.02-0.09,0.02-0.14L1.39,4.22l1.41-1.41l18.38,18.38L19.78,22.61z M20,17.17V15c1.38,0,2.5-1.12,2.5-2.5S21.38,10,20,10V6c0-1.1-0.9-2-2-2h-4c0-1.38-1.12-2.5-2.5-2.5S9,2.62,9,4H6.83L20,17.17z"/></svg>