<svg xmlns="http://www.w3.org/2000/svg" enable-background="new 0 0 24 24" height="24" viewBox="0 0 24 24" width="24"><g><rect fill="none" height="24" width="24"/><rect fill="none" height="24" width="24"/></g><g><g><path d="M12,2C6.48,2,2,6.48,2,12s4.48,10,10,10s10-4.48,10-10S17.52,2,12,2z M12,20c-4.41,0-8-3.59-8-8c0-0.01,0-0.02,0-0.03 c2.31-0.22,3.43-1.59,4.34-3.41C8.51,8.21,8.85,8,9.24,8h5.53c0.38,0,0.72,0.21,0.89,0.55c0.9,1.8,1.99,3.19,4.34,3.41 c0,0.01,0,0.02,0,0.03C20,16.41,16.41,20,12,20z"/><circle cx="9" cy="13" r="1.25"/><circle cx="15" cy="13" r="1.25"/></g></g></svg>