<svg xmlns="http://www.w3.org/2000/svg" enable-background="new 0 0 24 24" height="24" viewBox="0 0 24 24" width="24"><g><rect fill="none" height="24" width="24"/></g><g><g><path d="M22,9h-4V4H8v14.5V20h14V9z M10,6h6v3h-6V6z M14,17h-4v-5h4V17z M16,17c-0.55,0-1-0.45-1-1c0-0.55,0.45-1,1-1s1,0.45,1,1 C17,16.55,16.55,17,16,17z M16,14c-0.55,0-1-0.45-1-1c0-0.55,0.45-1,1-1s1,0.45,1,1C17,13.55,16.55,14,16,14z M19,17 c-0.55,0-1-0.45-1-1c0-0.55,0.45-1,1-1s1,0.45,1,1C20,16.55,19.55,17,19,17z M19,14c-0.55,0-1-0.45-1-1c0-0.55,0.45-1,1-1 s1,0.45,1,1C20,13.55,19.55,14,19,14z"/><rect height="13" width="5" x="2" y="8"/></g></g></svg>