<svg xmlns="http://www.w3.org/2000/svg" enable-background="new 0 0 24 24" height="24" viewBox="0 0 24 24" width="24"><g><rect fill="none" height="24" width="24"/><rect fill="none" height="24" width="24"/></g><g><g><path d="M19,9h-1V6c0-1.1-0.9-2-2-2h-6C8.9,4,8,4.9,8,6v14h12c1.1,0,2-0.9,2-2v-6C22,10.34,20.66,9,19,9z M10,6h6v3h-6V6z M14,17 h-4v-5h4V17z M16,17c-0.55,0-1-0.45-1-1c0-0.55,0.45-1,1-1s1,0.45,1,1C17,16.55,16.55,17,16,17z M16,14c-0.55,0-1-0.45-1-1 c0-0.55,0.45-1,1-1s1,0.45,1,1C17,13.55,16.55,14,16,14z M19,17c-0.55,0-1-0.45-1-1c0-0.55,0.45-1,1-1s1,0.45,1,1 C20,16.55,19.55,17,19,17z M19,14c-0.55,0-1-0.45-1-1c0-0.55,0.45-1,1-1s1,0.45,1,1C20,13.55,19.55,14,19,14z"/><path d="M4.5,8C3.12,8,2,9.12,2,10.5v8C2,19.88,3.12,21,4.5,21S7,19.88,7,18.5v-8C7,9.12,5.88,8,4.5,8z"/></g></g></svg>