<svg xmlns="http://www.w3.org/2000/svg" enable-background="new 0 0 24 24" height="24" viewBox="0 0 24 24" width="24"><g><path d="M0,0h24v24H0V0z" fill="none"/></g><g><path d="M16,3H5C3.9,3,3,3.9,3,5v14c0,1.1,0.9,2,2,2h14c1.1,0,2-0.9,2-2V8L16,3z M8,7h3c0.55,0,1,0.45,1,1v0c0,0.55-0.45,1-1,1H8 C7.45,9,7,8.55,7,8v0C7,7.45,7.45,7,8,7z M16,17H8c-0.55,0-1-0.45-1-1v0c0-0.55,0.45-1,1-1h8c0.55,0,1,0.45,1,1v0 C17,16.55,16.55,17,16,17z M16,13H8c-0.55,0-1-0.45-1-1v0c0-0.55,0.45-1,1-1h8c0.55,0,1,0.45,1,1v0C17,12.55,16.55,13,16,13z M15,8 V5l4,4h-3C15.45,9,15,8.55,15,8z"/></g></svg>