<svg xmlns="http://www.w3.org/2000/svg" enable-background="new 0 0 24 24" height="24" viewBox="0 0 24 24" width="24"><g><rect fill="none" height="24" width="24"/><rect fill="none" height="24" width="24"/></g><g><g><path d="M12,2C6.48,2,2,6.48,2,12c0,5.52,4.48,10,10,10s10-4.48,10-10C22,6.48,17.52,2,12,2z M17,15h-3.38 c-0.38,0-0.73-0.21-0.89-0.55L12,13H9.5v4.25C9.5,17.66,9.16,18,8.75,18h0C8.34,18,8,17.66,8,17.25V8c0-0.55,0.45-1,1-1h4.38 c0.38,0,0.73,0.21,0.89,0.55L15,9h2c0.55,0,1,0.45,1,1v4C18,14.55,17.55,15,17,15z"/></g></g></svg>