<svg xmlns="http://www.w3.org/2000/svg" enable-background="new 0 0 24 24" height="24" viewBox="0 0 24 24" width="24"><g><path d="M0,0h24v24H0V0z" fill="none"/></g><g><path d="M16,7.08c0,1.77-0.84,3.25-2,3.82V21h-2V10.9c-1.16-0.57-2-2.05-2-3.82C10.01,4.83,11.35,3,13,3C14.66,3,16,4.83,16,7.08z M17,3v18h2v-8h2V7C21,5.24,19.76,3,17,3z M8.28,3c-0.4,0-0.72,0.32-0.72,0.72V7H6.72V3.72C6.72,3.32,6.4,3,6,3 S5.28,3.32,5.28,3.72V7H4.44V3.72C4.44,3.32,4.12,3,3.72,3S3,3.32,3,3.72V9c0,1.1,0.9,2,2,2v10h2V11c1.1,0,2-0.9,2-2V3.72 C9,3.32,8.68,3,8.28,3z"/></g></svg>