<svg xmlns="http://www.w3.org/2000/svg" enable-background="new 0 0 24 24" height="24" viewBox="0 0 24 24" width="24"><g><path d="M0,0h24v24H0V0z" fill="none"/></g><g><path d="M12,2c-4.2,0-8,3.22-8,8.2c0,3.18,2.45,6.92,7.34,11.23c0.38,0.33,0.95,0.33,1.33,0C17.55,17.12,20,13.38,20,10.2 C20,5.22,16.2,2,12,2z M12,15L12,15c-0.55,0-1-0.45-1-1v0c0-0.55,0.45-1,1-1h0c0.55,0,1,0.45,1,1v0C13,14.55,12.55,15,12,15z M12,11L12,11c-0.55,0-1-0.45-1-1V7c0-0.55,0.45-1,1-1h0c0.55,0,1,0.45,1,1v3C13,10.55,12.55,11,12,11z"/></g></svg>