<svg xmlns="http://www.w3.org/2000/svg" height="24" viewBox="0 -960 960 960" width="24"><path d="M720-200q-17 0-28.5-11.5T680-240q0-17 11.5-28.5T720-280q17 0 28.5 11.5T760-240q0 17-11.5 28.5T720-200ZM280-80q-17 0-28.5-11.5T240-120q0-17 11.5-28.5T280-160q17 0 28.5 11.5T320-120q0 17-11.5 28.5T280-80Zm-40-120q-17 0-28.5-11.5T200-240q0-17 11.5-28.5T240-280h360q17 0 28.5 11.5T640-240q0 17-11.5 28.5T600-200H240ZM400-80q-17 0-28.5-11.5T360-120q0-17 11.5-28.5T400-160h280q17 0 28.5 11.5T720-120q0 17-11.5 28.5T680-80H400ZM300-320q-91 0-155.5-64.5T80-540q0-83 55-145t136-73q32-57 87.5-89.5T480-880q90 0 156.5 57.5T717-679q69 6 116 57t47 122q0 75-52.5 127.5T700-320H300Zm0-80h400q42 0 71-29t29-71q0-42-29-71t-71-29h-60v-40q0-66-47-113t-113-47q-48 0-87.5 26T333-704l-10 24h-25q-57 2-97.5 42.5T160-540q0 58 41 99t99 41Zm180-200Z"/></svg>