<svg xmlns="http://www.w3.org/2000/svg" enable-background="new 0 0 24 24" height="24" viewBox="0 0 24 24" width="24"><g><rect fill="none" height="24" width="24"/></g><g><path d="M16.5,15.5h-2v-4h2V15.5z M20,6h-8l-1.41-1.41C10.21,4.21,9.7,4,9.17,4H4C2.9,4,2.01,4.9,2.01,6L2,18c0,1.1,0.9,2,2,2h16 c1.1,0,2-0.9,2-2V8C22,6.9,21.1,6,20,6z M18.25,11.5H18v4c0,0.83-0.67,1.5-1.5,1.5h-2c-0.83,0-1.5-0.67-1.5-1.5v-4h-0.25 c-0.41,0-0.75-0.34-0.75-0.75c0-0.41,0.34-0.75,0.75-0.75h1.75V9.75C14.5,9.34,14.84,9,15.25,9h0.5c0.41,0,0.75,0.34,0.75,0.75V10 h1.75c0.41,0,0.75,0.34,0.75,0.75C19,11.16,18.66,11.5,18.25,11.5z"/></g></svg>