<svg xmlns="http://www.w3.org/2000/svg" enable-background="new 0 0 24 24" height="24" viewBox="0 0 24 24" width="24"><g><rect fill="none" height="24" width="24"/><rect fill="none" height="24" width="24"/></g><g><path d="M9,20c0,0.55,0.45,1,1,1c0.55,0,1-0.45,1-1v-3c0.73-2.58,3.07-3.47,5.17-3l-0.88,0.88c-0.39,0.39-0.39,1.02,0,1.41 c0.39,0.39,1.02,0.39,1.41,0l2.59-2.59c0.39-0.39,0.39-1.02,0-1.41l-2.59-2.59c-0.39-0.39-1.02-0.39-1.41,0 c-0.39,0.39-0.39,1.02,0,1.41L16.17,12c-1.51-0.33-3.73,0.08-5.17,1.36l0-6.53l0.88,0.88c0.39,0.39,1.02,0.39,1.41,0 c0.39-0.39,0.39-1.02,0-1.41l-2.59-2.59c-0.39-0.39-1.02-0.39-1.41,0L6.71,6.29c-0.39,0.39-0.39,1.02,0,1.41 c0.39,0.39,1.02,0.39,1.41,0L9,6.83V20z"/></g></svg>