<svg xmlns="http://www.w3.org/2000/svg" height="24" viewBox="0 -960 960 960" width="24"><path d="M720-120q8 0 14-6t6-14v-80h80q8 0 14-6t6-14q0-8-6-14t-14-6h-80v-80q0-8-6-14t-14-6q-8 0-14 6t-6 14v80h-80q-8 0-14 6t-6 14q0 8 6 14t14 6h80v80q0 8 6 14t14 6Zm0 80q-83 0-141.5-58.5T520-240q0-83 58.5-141.5T720-440q83 0 141.5 58.5T920-240q0 83-58.5 141.5T720-40ZM400-680q-17 0-28.5-11.5T360-720q0-17 11.5-28.5T400-760h400q17 0 28.5 11.5T840-720q0 17-11.5 28.5T800-680H400ZM200-160q-33 0-56.5-23.5T120-240q0-33 23.5-56.5T200-320q33 0 56.5 23.5T280-240q0 33-23.5 56.5T200-160Zm0-240q-33 0-56.5-23.5T120-480q0-33 23.5-56.5T200-560q33 0 56.5 23.5T280-480q0 33-23.5 56.5T200-400Zm0-240q-33 0-56.5-23.5T120-720q0-33 23.5-56.5T200-800q33 0 56.5 23.5T280-720q0 33-23.5 56.5T200-640Zm200 200q-17 0-28.5-11.5T360-480q0-17 11.5-28.5T400-520h80q17 0 28.5 11.5T520-480q0 17-11.5 28.5T480-440h-80Zm0 240q-17 0-28.5-11.5T360-240q0-17 11.5-28.5T400-280q17 0 28.5 11.5T440-240q0 17-11.5 28.5T400-200Z"/></svg>