<svg xmlns="http://www.w3.org/2000/svg" enable-background="new 0 0 24 24" height="24" viewBox="0 0 24 24" width="24"><g><rect fill="none" height="24" width="24"/></g><g><g><path d="M18 13c-2.76 0-5 2.24-5 5s2.24 5 5 5 5-2.24 5-5-2.24-5-5-5zm3 5.5h-2.5V21h-1v-2.5H15v-1h2.5V15h1v2.5H21v1z"/><rect height="2" width="13" x="7" y="5"/><circle cx="3.5" cy="18" r="1.5"/><path d="M18 11H7v2h6.11c1.26-1.24 2.99-2 4.89-2zM7 17v2h4.08c-.05-.33-.08-.66-.08-1s.03-.67.08-1H7z"/><circle cx="3.5" cy="6" r="1.5"/><circle cx="3.5" cy="12" r="1.5"/></g></g></svg>