<svg xmlns="http://www.w3.org/2000/svg" enable-background="new 0 0 24 24" height="24" viewBox="0 0 24 24" width="24"><g><rect fill="none" height="24" width="24"/></g><g><g><path d="M20,20H4c-1.1,0-2,0.9-2,2s0.9,2,2,2h16c1.1,0,2-0.9,2-2S21.1,20,20,20z"/><path d="M7.11,17L7.11,17c0.48,0,0.91-0.3,1.06-0.75l1.01-2.83h5.65l0.99,2.82C15.98,16.7,16.41,17,16.89,17 c0.79,0,1.33-0.79,1.05-1.52L13.69,4.17C13.43,3.47,12.75,3,12,3s-1.43,0.47-1.69,1.17L6.06,15.48C5.78,16.21,6.33,17,7.11,17z M11.94,5.6h0.12l2.03,5.79H9.91L11.94,5.6z"/></g></g></svg>