<svg xmlns="http://www.w3.org/2000/svg" enable-background="new 0 0 24 24" height="24" viewBox="0 0 24 24" width="24"><g><rect fill="none" height="24" width="24"/></g><g><g><path d="M16,4h-1V2h-2v2h-2V2H9v2H8C5.79,4,4,5.79,4,8v10c0,2.21,1.79,4,4,4h8c2.21,0,4-1.79,4-4V8C20,5.79,18.21,4,16,4z M18,18 c0,1.1-0.9,2-2,2H8c-1.1,0-2-0.9-2-2V8c0-1.1,0.9-2,2-2h8c1.1,0,2,0.9,2,2V18z"/><path d="M9.5,15.54C9.5,16.9,10.62,18,12,18s2.5-1.1,2.5-2.46c0-1.09-0.45-1.41-2.5-3.79C9.93,14.15,9.5,14.46,9.5,15.54z"/><rect height="2" width="8" x="8" y="8"/></g></g></svg>