<svg xmlns="http://www.w3.org/2000/svg" enable-background="new 0 0 24 24" height="24" viewBox="0 0 24 24" width="24"><g><path d="M0,0h24v24H0V0z" fill="none"/></g><g><g><path d="M12,2L4,5v6.09c0,5.05,3.41,9.76,8,10.91c4.59-1.15,8-5.86,8-10.91V5L12,2z M18,11.09c0,4-2.55,7.7-6,8.83 c-3.45-1.13-6-4.82-6-8.83v-4.7l6-2.25l6,2.25V11.09z M9.91,8.5L8.5,9.91L10.59,12L8.5,14.09l1.41,1.41L12,13.42l2.09,2.08 l1.41-1.41L13.42,12l2.08-2.09L14.09,8.5L12,10.59L9.91,8.5z"/><path d="M6,6.39v4.7c0,4,2.55,7.7,6,8.83c3.45-1.13,6-4.82,6-8.83v-4.7l-6-2.25L6,6.39z M15.5,9.91L13.42,12 l2.08,2.09l-1.41,1.41L12,13.42L9.91,15.5L8.5,14.09L10.59,12L8.5,9.91L9.91,8.5L12,10.59l2.09-2.09L15.5,9.91z" opacity=".3"/></g></g></svg>