<svg xmlns="http://www.w3.org/2000/svg" enable-background="new 0 0 24 24" height="24" viewBox="0 0 24 24" width="24"><g><rect fill="none" height="24" width="24"/></g><g><g><path d="M5,11h4c1.1,0,2-0.9,2-2V5c0-1.1-0.9-2-2-2H5C3.9,3,3,3.9,3,5v4C3,10.1,3.9,11,5,11z"/><path d="M5,21h4c1.1,0,2-0.9,2-2v-4c0-1.1-0.9-2-2-2H5c-1.1,0-2,0.9-2,2v4C3,20.1,3.9,21,5,21z"/><path d="M13,5v4c0,1.1,0.9,2,2,2h4c1.1,0,2-0.9,2-2V5c0-1.1-0.9-2-2-2h-4C13.9,3,13,3.9,13,5z"/><path d="M15,21h4c1.1,0,2-0.9,2-2v-4c0-1.1-0.9-2-2-2h-4c-1.1,0-2,0.9-2,2v4C13,20.1,13.9,21,15,21z"/></g></g></svg>