<svg xmlns="http://www.w3.org/2000/svg" enable-background="new 0 0 24 24" height="24" viewBox="0 0 24 24" width="24"><g><rect fill="none" height="24" width="24"/></g><g><g><path d="M10.27,12h3.46c0.93,0,1.63-0.83,1.48-1.75l-0.3-1.79C14.67,7.04,13.44,6,12,6S9.33,7.04,9.09,8.47l-0.3,1.79 C8.64,11.17,9.34,12,10.27,12z"/><path d="M1.66,11.11c-0.13,0.26-0.18,0.57-0.1,0.88c0.16,0.69,0.76,1.03,1.53,1c0,0,1.49,0,1.95,0c0.83,0,1.51-0.58,1.51-1.29 c0-0.14-0.03-0.27-0.07-0.4c-0.01-0.03-0.01-0.05,0.01-0.08c0.09-0.16,0.14-0.34,0.14-0.53c0-0.31-0.14-0.6-0.36-0.82 c-0.03-0.03-0.03-0.06-0.02-0.1c0.07-0.2,0.07-0.43,0.01-0.65C6.1,8.69,5.71,8.4,5.27,8.38c-0.03,0-0.05-0.01-0.07-0.03 C5.03,8.14,4.72,8,4.37,8C4.07,8,3.8,8.1,3.62,8.26C3.59,8.29,3.56,8.29,3.53,8.28c-0.14-0.06-0.3-0.09-0.46-0.09 c-0.65,0-1.18,0.49-1.24,1.12c0,0.02-0.01,0.04-0.03,0.06c-0.29,0.26-0.46,0.65-0.41,1.05c0.03,0.22,0.12,0.43,0.25,0.6 C1.67,11.04,1.67,11.08,1.66,11.11z"/><path d="M16.24,13.65c-1.17-0.52-2.61-0.9-4.24-0.9c-1.63,0-3.07,0.39-4.24,0.9C6.68,14.13,6,15.21,6,16.39V18h12v-1.61 C18,15.21,17.32,14.13,16.24,13.65z"/><path d="M1.22,14.58C0.48,14.9,0,15.62,0,16.43V18l4.5,0v-1.61c0-0.83,0.23-1.61,0.63-2.29C4.76,14.04,4.39,14,4,14 C3.01,14,2.07,14.21,1.22,14.58z"/><path d="M22.78,14.58C21.93,14.21,20.99,14,20,14c-0.39,0-0.76,0.04-1.13,0.1c0.4,0.68,0.63,1.46,0.63,2.29V18l4.5,0v-1.57 C24,15.62,23.52,14.9,22.78,14.58z"/><path d="M22,11v-0.5c0-1.1-0.9-2-2-2h-2c-0.42,0-0.65,0.48-0.39,0.81l0.7,0.63C18.12,10.25,18,10.61,18,11c0,1.1,0.9,2,2,2 S22,12.1,22,11z"/></g></g></svg>