<svg xmlns="http://www.w3.org/2000/svg" enable-background="new 0 0 24 24" height="24" viewBox="0 0 24 24" width="24"><g><path d="M0,0h24v24H0V0z" fill="none"/></g><g><g><path d="M12,11H6V8c0-0.55-0.45-1-1-1h0C4.45,7,4,7.45,4,8v8c0,0.55,0.45,1,1,1h0c0.55,0,1-0.45,1-1v-3h6v3c0,0.55,0.45,1,1,1h0 c0.55,0,1-0.45,1-1V8c0-0.55-0.45-1-1-1h0c-0.55,0-1,0.45-1,1V11z M21,11h-1v-1c0-0.55-0.45-1-1-1h0c-0.55,0-1,0.45-1,1v1h-1 c-0.55,0-1,0.45-1,1v0c0,0.55,0.45,1,1,1h1v1c0,0.55,0.45,1,1,1h0c0.55,0,1-0.45,1-1v-1h1c0.55,0,1-0.45,1-1v0 C22,11.45,21.55,11,21,11z"/></g></g></svg>