<svg xmlns="http://www.w3.org/2000/svg" enable-background="new 0 0 24 24" height="24" viewBox="0 0 24 24" width="24"><g><rect fill="none" height="24" width="24"/><rect fill="none" height="24" width="24"/></g><g><path d="M16.48,10.41c-0.39,0.39-1.04,0.39-1.43,0l-4.47-4.46l-7.05,7.04l-0.66-0.63c-1.17-1.17-1.17-3.07,0-4.24l4.24-4.24 c1.17-1.17,3.07-1.17,4.24,0L16.48,9C16.87,9.39,16.87,10.02,16.48,10.41z M17.18,8.29c0.78,0.78,0.78,2.05,0,2.83 c-1.27,1.27-2.61,0.22-2.83,0l-3.76-3.76l-5.57,5.57c-0.39,0.39-0.39,1.02,0,1.41c0.39,0.39,1.02,0.39,1.42,0l4.62-4.62l0.71,0.71 l-4.62,4.62c-0.39,0.39-0.39,1.02,0,1.41c0.39,0.39,1.02,0.39,1.42,0l4.62-4.62l0.71,0.71l-4.62,4.62c-0.39,0.39-0.39,1.02,0,1.41 c0.39,0.39,1.02,0.39,1.41,0l4.62-4.62l0.71,0.71l-4.62,4.62c-0.39,0.39-0.39,1.02,0,1.41c0.39,0.39,1.02,0.39,1.41,0l8.32-8.34 c1.17-1.17,1.17-3.07,0-4.24l-4.24-4.24c-1.15-1.15-3.01-1.17-4.18-0.06L17.18,8.29z"/></g></svg>