<svg xmlns="http://www.w3.org/2000/svg" enable-background="new 0 0 24 24" height="24" viewBox="0 0 24 24" width="24"><g><rect fill="none" height="24" width="24"/></g><g><g><g opacity=".3"><polygon points="8.66,14.64 4.41,18.88 5.12,19.59 9.36,15.34 9.36,15.34 8.66,14.64"/></g><g opacity=".3"><rect height="6" transform="matrix(0.7071 -0.7071 0.7071 0.7071 -7.0983 17.0848)" width="1" x="16.57" y="14.11"/></g><g><path d="M21.67,18.17l-5.3-5.3h-0.99l-2.54,2.54v0.99l5.3,5.3c0.39,0.39,1.02,0.39,1.41,0l2.12-2.12 C22.06,19.2,22.06,18.56,21.67,18.17z M18.84,19.59l-4.24-4.24l0.71-0.71l4.24,4.24L18.84,19.59z"/></g><g><path d="M17.34,10.19l1.41-1.41l2.12,2.12c1.17-1.17,1.17-3.07,0-4.24l-3.54-3.54l-1.41,1.41V1.71L15.22,1l-3.54,3.54l0.71,0.71 h2.83l-1.41,1.41l1.06,1.06l-2.89,2.89L7.85,6.48V5.06L4.83,2.04L2,4.87l3.03,3.03h1.41l4.13,4.13l-0.85,0.85H7.6l-5.3,5.3 c-0.39,0.39-0.39,1.02,0,1.41l2.12,2.12c0.39,0.39,1.02,0.39,1.41,0l5.3-5.3v-2.12l5.15-5.15L17.34,10.19z M9.36,15.34 l-4.24,4.24l-0.71-0.71l4.24-4.24l0,0L9.36,15.34L9.36,15.34z"/></g></g></g></svg>