<svg xmlns="http://www.w3.org/2000/svg" enable-background="new 0 0 24 24" height="24" viewBox="0 0 24 24" width="24"><g><rect fill="none" height="24" width="24"/></g><g><g><path d="M12,2C8.69,2,6,4.69,6,8s2.69,6,6,6s6-2.69,6-6S15.31,2,12,2z M15,9h-2v2h-2V9H9V7h2V5h2v2h2V9z"/><path d="M10,16H6.5v6H10c0.8,0,1.5-0.7,1.5-1.5v-3C11.5,16.7,10.8,16,10,16z M10,20.5H8v-3h2V20.5z"/><path d="M18,16h-5v6h1.5v-2h1.1l0.9,2H18l-0.86-2H18V16z M16.5,18.5h-2v-1h2V18.5z"/><polygon points="3.5,18 1.5,18 1.5,16 0,16 0,22 1.5,22 1.5,19.5 3.5,19.5 3.5,22 5,22 5,16 3.5,16"/><polygon points="22,18.5 22,16.5 20.5,16.5 20.5,18.5 18.5,18.5 18.5,20 20.5,20 20.5,22 22,22 22,20 24,20 24,18.5"/></g></g></svg>