<svg xmlns="http://www.w3.org/2000/svg" enable-background="new 0 0 24 24" height="24" viewBox="0 0 24 24" width="24"><g><path d="M0,0h24v24H0V0z" fill="none"/></g><g><path d="M2.1,3.51L2.1,3.51C1.71,3.9,1.71,4.54,2.1,4.93l1.56,1.56c-1.25,1.88-1.88,4.2-1.59,6.69c0.52,4.54,4.21,8.23,8.75,8.75 c2.49,0.29,4.81-0.34,6.69-1.59l1.56,1.56c0.39,0.39,1.02,0.39,1.41,0l0,0c0.39-0.39,0.39-1.02,0-1.41L3.51,3.51 C3.12,3.12,2.49,3.12,2.1,3.51z M12,20c-4.41,0-8-3.59-8-8c0-1.48,0.41-2.86,1.12-4.06l10.94,10.94C14.86,19.59,13.48,20,12,20z M7.94,5.12L6.49,3.66C8.07,2.61,9.96,2,12,2c5.52,0,10,4.48,10,10c0,2.04-0.61,3.93-1.66,5.51l-1.46-1.46 C19.59,14.86,20,13.48,20,12c0-4.41-3.59-8-8-8C10.52,4,9.14,4.41,7.94,5.12z"/></g></svg>