<svg xmlns="http://www.w3.org/2000/svg" enable-background="new 0 0 24 24" height="24" viewBox="0 0 24 24" width="24"><g><rect fill="none" height="24" width="24"/></g><g><g><polygon points="13.79,8 15.59,5 13.79,2 10.21,2 8.41,5 10.21,8"/><polygon points="10.21,9 8.41,12 10.21,15 13.79,15 15.59,12 13.79,9"/><polygon points="16.45,11.51 20.04,11.51 21.83,8.51 20.04,5.51 16.45,5.51 14.65,8.51"/><polygon points="20.04,12.51 16.45,12.51 14.65,15.51 16.45,18.51 20.04,18.51 21.83,15.51"/><polygon points="7.55,11.51 9.35,8.51 7.55,5.51 3.96,5.51 2.17,8.51 3.96,11.51"/><polygon points="7.55,12.51 3.96,12.51 2.17,15.51 3.96,18.51 7.55,18.51 9.35,15.51"/><polygon points="10.21,16 8.41,19 10.21,22 13.79,22 15.59,19 13.79,16"/></g></g></svg>