<svg xmlns="http://www.w3.org/2000/svg" enable-background="new 0 0 24 24" height="24" viewBox="0 0 24 24" width="24"><g><rect fill="none" height="24" width="24"/><rect fill="none" height="24" width="24"/></g><g><g><path d="M12.68,6.8c-0.39-0.35-0.98-0.35-1.37,0C9.35,8.56,9,10.84,9,12c0,1.15,0.35,3.44,2.32,5.2c0.39,0.35,0.98,0.35,1.37,0 C14.65,15.44,15,13.16,15,12C15,10.85,14.65,8.56,12.68,6.8z"/><path d="M7.5,12c0-0.97,0.23-4.16,3.03-6.5C9.75,5.19,8.9,5,8,5c-3.86,0-7,3.14-7,7s3.14,7,7,7c0.9,0,1.75-0.19,2.53-0.5 C7.73,16.16,7.5,12.97,7.5,12z"/><path d="M16,5c-0.9,0-1.75,0.19-2.53,0.5c2.8,2.34,3.03,5.53,3.03,6.5c0,0.97-0.23,4.16-3.03,6.5C14.25,18.81,15.1,19,16,19 c3.86,0,7-3.14,7-7S19.86,5,16,5z"/></g></g></svg>