<svg xmlns="http://www.w3.org/2000/svg" enable-background="new 0 0 24 24" height="24" viewBox="0 0 24 24" width="24"><g><rect fill="none" height="24" width="24"/><rect fill="none" height="24" width="24"/></g><g><g><path d="M15,6L15,6c0,0.55,0.45,1,1,1h4c0.55,0,1-0.45,1-1v0c0-0.55-0.45-1-1-1h-4C15.45,5,15,5.45,15,6z"/><path d="M9.58,6C9.22,5.38,8.56,5,7.85,5H4C3.45,5,3,5.45,3,6v0c0,0.55,0.45,1,1,1h3.85l6.35,11c0.36,0.62,1.02,1,1.73,1H20 c0.55,0,1-0.45,1-1v0c0-0.55-0.45-1-1-1h-4.07L9.58,6z"/></g></g></svg>