<svg xmlns="http://www.w3.org/2000/svg" enable-background="new 0 0 24 24" height="24" viewBox="0 0 24 24" width="24"><g><rect fill="none" height="24" width="24"/><rect fill="none" height="24" width="24"/></g><g><g><path d="M18.29,17.29L18.29,17.29c0.39-0.39,0.39-1.02,0-1.41L14.42,12l3.88-3.88c0.39-0.39,0.39-1.02,0-1.41l0,0 c-0.39-0.39-1.02-0.39-1.41,0l-4.59,4.59c-0.39,0.39-0.39,1.02,0,1.41l4.59,4.59C17.27,17.68,17.9,17.68,18.29,17.29z"/><path d="M11.7,17.29L11.7,17.29c0.39-0.39,0.39-1.02,0-1.41L7.83,12l3.88-3.88c0.39-0.39,0.39-1.02,0-1.41l0,0 c-0.39-0.39-1.02-0.39-1.41,0l-4.59,4.59c-0.39,0.39-0.39,1.02,0,1.41l4.59,4.59C10.68,17.68,11.31,17.68,11.7,17.29z"/></g></g></svg>