<svg xmlns="http://www.w3.org/2000/svg" enable-background="new 0 0 24 24" height="24" viewBox="0 0 24 24" width="24"><g><rect fill="none" height="24" width="24"/><rect fill="none" height="24" width="24"/></g><g><g><path d="M12,2C6.48,2,2,6.48,2,12c0,5.52,4.48,10,10,10s10-4.48,10-10C22,6.48,17.52,2,12,2z M12,19c-0.83,0-1.5-0.67-1.5-1.5h3 C13.5,18.33,12.83,19,12,19z M14.25,16.5h-4.5C9.34,16.5,9,16.16,9,15.75v0C9,15.34,9.34,15,9.75,15h4.5 c0.41,0,0.75,0.34,0.75,0.75v0C15,16.16,14.66,16.5,14.25,16.5z M14.97,14H9.03C7.8,13.09,7,11.64,7,10c0-2.76,2.24-5,5-5 s5,2.24,5,5C17,11.64,16.2,13.09,14.97,14z"/></g></g></svg>