<svg xmlns="http://www.w3.org/2000/svg" height="24" viewBox="0 0 24 24" width="24"><path d="M0 0h24v24H0z" fill="none"/><path d="M4 16h3c.55 0 1-.45 1-1s-.45-1-1-1H4c-.55 0-1 .45-1 1s.45 1 1 1zm6.5 0h3c.55 0 1-.45 1-1s-.45-1-1-1h-3c-.55 0-1 .45-1 1s.45 1 1 1zm6.5 0h3c.55 0 1-.45 1-1s-.45-1-1-1h-3c-.55 0-1 .45-1 1s.45 1 1 1zM4 20c.55 0 1-.45 1-1s-.45-1-1-1-1 .45-1 1 .45 1 1 1zm4 0c.55 0 1-.45 1-1s-.45-1-1-1-1 .45-1 1 .45 1 1 1zm4 0c.55 0 1-.45 1-1s-.45-1-1-1-1 .45-1 1 .45 1 1 1zm4 0c.55 0 1-.45 1-1s-.45-1-1-1-1 .45-1 1 .45 1 1 1zm4 0c.55 0 1-.45 1-1s-.45-1-1-1-1 .45-1 1 .45 1 1 1zM4 12h6c.55 0 1-.45 1-1s-.45-1-1-1H4c-.55 0-1 .45-1 1s.45 1 1 1zm10 0h6c.55 0 1-.45 1-1s-.45-1-1-1h-6c-.55 0-1 .45-1 1s.45 1 1 1zM3 5v2c0 .55.45 1 1 1h16c.55 0 1-.45 1-1V5c0-.55-.45-1-1-1H4c-.55 0-1 .45-1 1z"/></svg>