<svg xmlns="http://www.w3.org/2000/svg" enable-background="new 0 0 24 24" height="24" viewBox="0 0 24 24" width="24"><g><rect fill="none" height="24" width="24" y="0"/></g><g><g><g><g><path d="M3,14c0,1.3,0.84,2.4,2,2.82V20H4c-0.55,0-1,0.45-1,1v0c0,0.55,0.45,1,1,1h4c0.55,0,1-0.45,1-1v0c0-0.55-0.45-1-1-1H7 v-3.18C8.16,16.4,9,15.3,9,14V7c0-0.55-0.45-1-1-1H4C3.45,6,3,6.45,3,7V14z M5,8h2v3H5V8z"/></g><g><path d="M20.64,8.54l-0.96-0.32C19.27,8.08,19,7.7,19,7.27V3c0-0.55-0.45-1-1-1h-3c-0.55,0-1,0.45-1,1v4.28 c0,0.43-0.27,0.81-0.68,0.95l-0.96,0.32C11.55,8.83,11,9.59,11,10.45V20c0,1.1,0.9,2,2,2h7c1.1,0,2-0.9,2-2v-9.56 C22,9.58,21.45,8.82,20.64,8.54z M16,4h1v1h-1V4z M13,10.44l0.95-0.32C15.18,9.72,16,8.57,16,7.28V7h1v0.28 c0,1.29,0.82,2.44,2.05,2.85L20,10.44V12h-7V10.44z M20,20h-7v-2h7V20z"/></g></g></g></g></svg>