<svg xmlns="http://www.w3.org/2000/svg" height="24" viewBox="0 0 24 24" width="24"><path d="M0 0h24v24H0V0z" fill="none"/><path d="M10.5 17.15l3.98-2.28c.67-.38.67-1.35 0-1.74l-3.98-2.28c-.67-.38-1.5.11-1.5.87v4.55c0 .77.83 1.26 1.5.88zM21 6h-7.59l2.94-2.94c.2-.2.2-.51 0-.71s-.51-.2-.71 0L12 5.99 8.36 2.35c-.2-.2-.51-.2-.71 0s-.2.51 0 .71L10.59 6H3c-1.1 0-2 .89-2 2v12c0 1.1.9 2 2 2h18c1.1 0 2-.9 2-2V8c0-1.11-.9-2-2-2zm-1 14H4c-.55 0-1-.45-1-1V9c0-.55.45-1 1-1h16c.55 0 1 .45 1 1v10c0 .55-.45 1-1 1z"/></svg>