<svg xmlns="http://www.w3.org/2000/svg" height="24" viewBox="0 0 24 24" width="24"><path d="M0 0h24v24H0V0z" fill="none"/><path d="M7 20.01L17 20l1.1-10H5.89L7 20.01zm5-9.41s3 3.4 3 5.4c0 1.66-1.34 3-3 3s-3-1.34-3-3c0-2 3-5.4 3-5.4z" opacity=".3"/><path d="M5.01 20.23C5.13 21.23 5.97 22 7 22h10c1.03 0 1.87-.77 1.99-1.77L21 2H3l2.01 18.23zM17 20l-10 .01L5.89 10H18.1L17 20zm1.76-16l-.43 4H5.67l-.44-4h13.53zM12 19c1.66 0 3-1.34 3-3 0-2-3-5.4-3-5.4S9 14 9 16c0 1.66 1.34 3 3 3zm0-5.09c.59.91 1 1.73 1 2.09 0 .55-.45 1-1 1s-1-.45-1-1c0-.37.41-1.19 1-2.09z"/></svg>