<svg xmlns="http://www.w3.org/2000/svg" enable-background="new 0 0 24 24" height="24" viewBox="0 0 24 24" width="24"><g><path d="M0,0h24v24H0V0z" fill="none"/></g><g><g><path d="M18,11c0.7,0,1.37,0.1,2,0.29V10c0-1.1-0.9-2-2-2h-1V6c0-2.76-2.24-5-5-5S7,3.24,7,6v2H6c-1.1,0-2,0.9-2,2v10 c0,1.1,0.9,2,2,2h6.26C11.47,20.87,11,19.49,11,18C11,14.13,14.13,11,18,11z M9,6c0-1.66,1.34-3,3-3s3,1.34,3,3v2H9V6z"/><path d="M18,13c-2.76,0-5,2.24-5,5s2.24,5,5,5s5-2.24,5-5S20.76,13,18,13z M20,20c-0.2,0.2-0.51,0.2-0.71,0l-1.65-1.65 c-0.09-0.09-0.15-0.22-0.15-0.35v-2.5c0-0.28,0.22-0.5,0.5-0.5h0c0.28,0,0.5,0.22,0.5,0.5v2.29l1.5,1.5 C20.2,19.49,20.2,19.8,20,20z"/></g></g></svg>