<svg xmlns="http://www.w3.org/2000/svg" enable-background="new 0 0 24 24" height="24" viewBox="0 0 24 24" width="24"><g><rect fill="none" height="24" width="24"/><rect fill="none" height="24" width="24"/></g><g><g><path d="M18,11c0.7,0,1.37,0.1,2,0.29V10c0-1.1-0.9-2-2-2h-1V6c0-2.76-2.24-5-5-5S7,3.24,7,6v2H6c-1.1,0-2,0.9-2,2v10 c0,1.1,0.9,2,2,2h6.26C11.47,20.87,11,19.49,11,18C11,14.13,14.13,11,18,11z M8.9,6c0-1.71,1.39-3.1,3.1-3.1s3.1,1.39,3.1,3.1v2 H8.9V6z"/><path d="M18,13c-2.76,0-5,2.24-5,5s2.24,5,5,5s5-2.24,5-5S20.76,13,18,13z M18,15c0.83,0,1.5,0.67,1.5,1.5S18.83,18,18,18 s-1.5-0.67-1.5-1.5S17.17,15,18,15z M18,21c-1.03,0-1.94-0.52-2.48-1.32C16.25,19.26,17.09,19,18,19s1.75,0.26,2.48,0.68 C19.94,20.48,19.03,21,18,21z"/></g></g></svg>