<svg xmlns="http://www.w3.org/2000/svg" enable-background="new 0 0 24 24" height="24" viewBox="0 0 24 24" width="24"><g><path d="M0,0h24v24H0V0z" fill="none"/></g><g><g><path d="M6,20V10h12v1c0.7,0,1.37,0.1,2,0.29V10c0-1.1-0.9-2-2-2h-1V6c0-2.76-2.24-5-5-5S7,3.24,7,6v2H6c-1.1,0-2,0.9-2,2v10 c0,1.1,0.9,2,2,2h6.26c-0.42-0.6-0.75-1.28-0.97-2H6z M9,6c0-1.66,1.34-3,3-3s3,1.34,3,3v2H9V6z"/><path d="M18,13c-2.76,0-5,2.24-5,5s2.24,5,5,5s5-2.24,5-5S20.76,13,18,13z M19.65,20.35l-2.15-2.15V15h1v2.79l1.85,1.85 L19.65,20.35z"/></g></g></svg>