<svg xmlns="http://www.w3.org/2000/svg" enable-background="new 0 0 24 24" height="24" viewBox="0 0 24 24" width="24"><g><path d="M0,0h24v24H0V0z" fill="none"/></g><g><g><path d="M5,5h6c0.55,0,1-0.45,1-1v0c0-0.55-0.45-1-1-1H5C3.9,3,3,3.9,3,5v14c0,1.1,0.9,2,2,2h6c0.55,0,1-0.45,1-1v0 c0-0.55-0.45-1-1-1H5V5z"/><path d="M20.65,11.65l-2.79-2.79C17.54,8.54,17,8.76,17,9.21V11h-7c-0.55,0-1,0.45-1,1v0c0,0.55,0.45,1,1,1h7v1.79 c0,0.45,0.54,0.67,0.85,0.35l2.79-2.79C20.84,12.16,20.84,11.84,20.65,11.65z"/></g></g></svg>