<svg xmlns="http://www.w3.org/2000/svg" height="24" viewBox="0 0 24 24" width="24"><path d="M0 0h24v24H0V0z" fill="none"/><path d="M21.41 11.58l-9-9C12.05 2.22 11.55 2 11 2H4c-1.1 0-2 .9-2 2v7c0 .55.22 1.05.59 1.42l9 9c.36.36.86.58 1.41.58s1.05-.22 1.41-.59l7-7c.37-.36.59-.86.59-1.41s-.23-1.06-.59-1.42zM5.5 7C4.67 7 4 6.33 4 5.5S4.67 4 5.5 4 7 4.67 7 5.5 6.33 7 5.5 7zm11.77 8.27l-3.92 3.92c-.2.2-.51.2-.71 0l-3.92-3.92c-.57-.58-.87-1.43-.67-2.34.19-.88.89-1.61 1.76-1.84.94-.25 1.85.04 2.44.65l.75.72.73-.73c.45-.45 1.08-.73 1.77-.73 1.38 0 2.5 1.12 2.5 2.5 0 .69-.28 1.32-.73 1.77z"/></svg>