<svg xmlns="http://www.w3.org/2000/svg" enable-background="new 0 0 24 24" height="24" viewBox="0 0 24 24" width="24"><g><rect fill="none" height="24" width="24"/></g><g><g><rect fill-opacity=".3" height="1" width="16" x="4" y="18"/><path d="M12,5C8.61,5,5.01,5.81,4.18,8h15.66c-0.13-0.37-0.35-0.7-0.66-1.01C17.93,5.73,15.31,5,12,5z" fill-opacity=".3"/><path d="M2,19c0,1.1,0.9,2,2,2h16c1.1,0,2-0.9,2-2v-3H2V19z M4,18h16v1H4V18z"/><path d="M18.66,11.5c-1.95,0-2.09,1-3.33,1c-1.19,0-1.42-1-3.33-1c-1.95,0-2.09,1-3.33,1c-1.19,0-1.42-1-3.33-1 c-1.95,0-2.09,1-3.33,1v2c1.9,0,2.17-1,3.35-1c1.19,0,1.42,1,3.33,1c1.95,0,2.09-1,3.33-1c1.19,0,1.42,1,3.33,1 c1.95,0,2.09-1,3.33-1c1.19,0,1.4,0.98,3.32,1l-0.01-1.98C20.38,12.19,20.37,11.5,18.66,11.5z"/><path d="M22,9c0.02-4-4.28-6-10-6C6.29,3,2,5,2,9v1h20L22,9L22,9z M4.18,8C5.01,5.81,8.61,5,12,5c3.31,0,5.93,0.73,7.19,1.99 C19.49,7.3,19.71,7.63,19.84,8H4.18z"/></g></g></svg>