<svg xmlns="http://www.w3.org/2000/svg" enable-background="new 0 0 24 24" height="24" viewBox="0 0 24 24" width="24"><g><rect fill="none" height="24" width="24"/><rect fill="none" height="24" width="24"/></g><g><g><path d="M14,9c0-2.04,1.24-3.79,3-4.57V4c0-1.1-0.9-2-2-2H4C2.9,2,2.01,2.9,2.01,4L2,22l4-4h9c1.1,0,2-0.9,2-2v-2.42 C15.24,12.8,14,11.05,14,9z M10,14H6v-2h4V14z M13,11H6V9h7V11z M13,8H6V6h7V8z"/><path d="M20,6.18C19.69,6.07,19.35,6,19,6c-1.66,0-3,1.34-3,3c0,1.66,1.34,3,3,3s3-1.34,3-3V3h2V1h-4V6.18z"/></g></g></svg>