<svg xmlns="http://www.w3.org/2000/svg" enable-background="new 0 0 24 24" height="24" viewBox="0 0 24 24" width="24"><g><rect fill="none" height="24" width="24" x="0"/><path d="M19,10c1.13,0,2.16-0.39,3-1.02V18c0,1.1-0.9,2-2,2H4c-1.1,0-2-0.9-2-2V6c0-1.1,0.9-2,2-2h10.1C14.04,4.32,14,4.66,14,5 c0,1.48,0.65,2.79,1.67,3.71L12,11L5.3,6.81C4.73,6.46,4,6.86,4,7.53c0,0.29,0.15,0.56,0.4,0.72l7.07,4.42 c0.32,0.2,0.74,0.2,1.06,0l4.77-2.98C17.84,9.88,18.4,10,19,10z M16,5c0,1.66,1.34,3,3,3s3-1.34,3-3s-1.34-3-3-3S16,3.34,16,5z"/></g></svg>