<svg xmlns="http://www.w3.org/2000/svg" enable-background="new 0 0 24 24" height="24" viewBox="0 0 24 24" width="24"><g><rect fill="none" height="24" width="24"/><rect fill="none" height="24" width="24"/></g><g><g><path d="M4,5h10c0.55,0,1-0.45,1-1s-0.45-1-1-1H4C3.45,3,3,3.45,3,4S3.45,5,4,5z"/><path d="M14,6H4C2.9,6,2,6.9,2,8v11c0,1.1,0.9,2,2,2h10c1.1,0,2-0.9,2-2V8C16,6.9,15.1,6,14,6z M11.5,15h-1v1 c0,0.83-0.67,1.5-1.5,1.5S7.5,16.83,7.5,16v-1h-1C5.67,15,5,14.33,5,13.5C5,12.67,5.67,12,6.5,12h1v-1c0-0.83,0.67-1.5,1.5-1.5 s1.5,0.67,1.5,1.5v1h1c0.83,0,1.5,0.67,1.5,1.5C13,14.33,12.33,15,11.5,15z"/><path d="M20,6c-1.68,0-3,1.76-3,4c0,1.77,0.83,3.22,2,3.76V20c0,0.55,0.45,1,1,1s1-0.45,1-1v-6.24c1.17-0.54,2-1.99,2-3.76 C23,7.76,21.68,6,20,6z"/></g></g></svg>