<svg xmlns="http://www.w3.org/2000/svg" enable-background="new 0 0 24 24" height="24" viewBox="0 0 24 24" width="24"><g><rect fill="none" height="24" width="24"/></g><g><g><rect height="2" width="12" x="3" y="3"/><path d="M14,6H4C2.9,6,2,6.9,2,8v11c0,1.1,0.9,2,2,2h10c1.1,0,2-0.9,2-2V8C16,6.9,15.1,6,14,6z M13,15h-2.5v2.5h-3V15H5v-3h2.5 V9.5h3V12H13V15z"/><path d="M20,6c-1.68,0-3,1.76-3,4c0,1.77,0.83,3.22,2,3.76V20c0,0.55,0.45,1,1,1s1-0.45,1-1v-6.24c1.17-0.54,2-1.99,2-3.76 C23,7.76,21.68,6,20,6z"/></g></g></svg>