<svg xmlns="http://www.w3.org/2000/svg" enable-background="new 0 0 24 24" height="24" viewBox="0 0 24 24" width="24"><g><rect fill="none" height="24" width="24"/></g><g><g><g><path d="M4 10h18V6c0-1.1-.9-2-2-2h-3l2 4h-3l-2-4h-2l2 4h-3L9 4H7l2 4H6L4 4c-1.1 0-1.99.9-1.99 2L2 18c0 1.1.9 2 2 2h8v-2H4v-8z"/></g><g><polygon points="14,18.88 14,21 16.12,21 21.29,15.83 19.17,13.71"/></g><g><path d="m22.71 13-.71-.71c-.39-.39-1.02-.39-1.41 0l-.71.71L22 15.12l.71-.71c.39-.39.39-1.02 0-1.41z"/></g></g></g></svg>