<svg xmlns="http://www.w3.org/2000/svg" enable-background="new 0 0 24 24" height="24" viewBox="0 0 24 24" width="24"><g><path d="M0,0h24v24H0V0z" fill="none"/></g><g><g><path d="M22.82,12.01L18.83,16l-1.81-1.81L19.2,12L12,4.8L9.81,6.99L8,5.17l3.99-3.99L22.82,12.01z M21.19,21.19l-1.41,1.41 L16,18.83l-3.99,3.99L1.18,11.99L5.17,8L1.39,4.22L2.8,2.81L21.19,21.19z M14.19,17.02l-1.39-1.39l-0.8,0.8L7.58,12l0.8-0.8 l-1.4-1.39L4.8,12l7.2,7.2L14.19,17.02z M16.42,12L12,7.58l-0.8,0.8l4.42,4.42L16.42,12z"/></g></g></svg>