<svg xmlns="http://www.w3.org/2000/svg" enable-background="new 0 0 24 24" height="24" viewBox="0 0 24 24" width="24"><g><rect fill="none" height="24" width="24"/><rect fill="none" height="24" width="24"/></g><g><path d="M15.83,1.01l-4.11,0.42C8.47,1.75,6,4.48,6,7.75s2.47,6,5.72,6.33l1.9,0.19l-0.56,0.85C12.71,15.04,12.36,15,12,15 c-2.76,0-5,2.24-5,5v2c0,0.55,0.45,1,1,1h8c0.55,0,1-0.45,1-1v-2c0-1.67-0.83-3.15-2.09-4.06l0.97-1.45 C17.02,14.56,18,13.66,18,12.5V3C18,1.83,17,0.91,15.83,1.01z"/></g></svg>