<svg xmlns="http://www.w3.org/2000/svg" enable-background="new 0 0 24 24" height="24" viewBox="0 0 24 24" width="24"><g><rect fill="none" height="24" width="24"/></g><g><path d="M2.92,9.07C5.51,7.08,8.67,6,12,6s6.49,1.08,9.08,3.07l-2.85,2.86C16.46,10.71,14.31,10,12,10 c-2.31,0-4.46,0.71-6.23,1.93L2.92,9.07z" opacity=".3"/><path d="M12,4C7.31,4,3.07,5.9,0,8.98L12,21L24,8.98C20.93,5.9,16.69,4,12,4z M2.92,9.07C5.51,7.08,8.67,6,12,6 s6.49,1.08,9.08,3.07l-2.85,2.86C16.46,10.71,14.31,10,12,10c-2.31,0-4.46,0.71-6.23,1.93L2.92,9.07z"/></g></svg>