<svg xmlns="http://www.w3.org/2000/svg" enable-background="new 0 0 24 24" height="24" viewBox="0 0 24 24" width="24"><g><rect fill="none" height="24" width="24"/><rect fill="none" height="24" width="24"/></g><g><path d="M19.5,24c0.82,0,1.5-0.67,1.5-1.5v-7.16c0-0.22-0.04-0.45-0.11-0.66l-1.97-5.67C18.72,8.42,18.16,8,17.5,8h-11 C5.84,8,5.29,8.42,5.08,9.01l-1.97,5.67C3.04,14.89,3,15.11,3,15.34v7.16C3,23.33,3.68,24,4.5,24S6,23.33,6,22.5V22h12v0.5 C18,23.33,18.67,24,19.5,24z M6.85,10h10.29l1.04,3H5.81L6.85,10z M6,17.5C6,16.67,6.67,16,7.5,16S9,16.67,9,17.5S8.33,19,7.5,19 S6,18.33,6,17.5z M15,17.5c0-0.83,0.67-1.5,1.5-1.5s1.5,0.67,1.5,1.5S17.33,19,16.5,19S15,18.33,15,17.5z M16.24,0.71 c0.39,0.39,0.39,1.02,0,1.41l-3.54,3.54c-0.39,0.39-1.02,0.39-1.41,0L9.88,4.24c-0.39-0.39-0.39-1.02,0-1.41l0,0 c0.39-0.39,1.02-0.39,1.41,0L12,3.54l2.83-2.83C15.22,0.32,15.85,0.32,16.24,0.71z"/></g></svg>