<svg xmlns="http://www.w3.org/2000/svg" enable-background="new 0 0 24 24" height="24" viewBox="0 0 24 24" width="24"><g><path d="M0,0h24v24H0V0z" fill="none"/></g><g><path d="M8.9,6c0-1.71,1.39-3.1,3.1-3.1s3.1,1.39,3.1,3.1v2h-4.27L20,17.17V10c0-1.1-0.9-2-2-2h-1V6c0-2.76-2.24-5-5-5 C9.79,1,7.93,2.45,7.27,4.44L8.9,6.07V6z M2.1,2.1L0.69,3.51L5.3,8.13C4.55,8.42,4,9.15,4,10v10c0,1.1,0.9,2,2,2h12 c0.34,0,0.65-0.09,0.93-0.24l1.56,1.56l1.41-1.41L2.1,2.1z M12,17c-1.1,0-2-0.9-2-2c0-0.59,0.27-1.12,0.68-1.49l2.81,2.81 C13.12,16.73,12.59,17,12,17z"/></g></svg>