<svg xmlns="http://www.w3.org/2000/svg" height="24" viewBox="0 0 24 24" width="24"><path d="M0 0h24v24H0V0zm0 0h24v24H0V0zm0 0h24v24H0V0zm0 0h24v24H0V0z" fill="none"/><path d="M8.9 6c0-1.71 1.39-3.1 3.1-3.1s3.1 1.39 3.1 3.1v2h-4.66L20 17.56V10c0-1.1-.9-2-2-2h-1V6c0-2.76-2.24-5-5-5-2.32 0-4.26 1.59-4.82 3.74L8.9 6.46V6zm-3.78-.49c-.39-.39-1.02-.39-1.41 0-.39.39-.39 1.02 0 1.41l1.33 1.33C4.42 8.6 4 9.25 4 10v10c0 1.1.9 2 2 2h12.78l.29.29c.39.39 1.02.39 1.41 0 .39-.39.39-1.02 0-1.41L5.12 5.51z"/></svg>