<svg xmlns="http://www.w3.org/2000/svg" enable-background="new 0 0 24 24" height="24" viewBox="0 0 24 24" width="24"><g><rect fill="none" height="24" width="24"/></g><g><g><path d="M4.07,13H2.05c0.2,2.01,1,3.84,2.21,5.33l1.43-1.43C4.83,15.79,4.25,14.46,4.07,13z"/><path d="M5.69,7.1L4.26,5.67C3.05,7.16,2.25,8.99,2.05,11h2.02C4.25,9.54,4.83,8.21,5.69,7.1z"/><path d="M11,4.07V2.05c-2.01,0.2-3.84,1-5.33,2.21L7.1,5.69C8.21,4.83,9.54,4.25,11,4.07z"/><path d="M18.33,4.26C16.84,3.05,15.01,2.25,13,2.05v2.02c1.46,0.18,2.79,0.76,3.9,1.62L18.33,4.26z"/><path d="M18.31,16.9l1.43,1.43c1.21-1.48,2.01-3.32,2.21-5.33h-2.02C19.75,14.46,19.17,15.79,18.31,16.9z"/><path d="M19.93,11h2.02c-0.2-2.01-1-3.84-2.21-5.33L18.31,7.1C19.17,8.21,19.75,9.54,19.93,11z"/><path d="M13,19.93v2.02c2.01-0.2,3.84-1,5.33-2.21l-1.43-1.43C15.79,19.17,14.46,19.75,13,19.93z"/><path d="M5.67,19.74c1.48,1.21,3.32,2.01,5.33,2.21v-2.02c-1.46-0.18-2.79-0.76-3.9-1.62L5.67,19.74z"/><circle cx="12" cy="12" r="5"/></g></g></svg>