<svg xmlns="http://www.w3.org/2000/svg" enable-background="new 0 0 24 24" height="24" viewBox="0 0 24 24" width="24"><g><rect fill="none" height="24" width="24"/><rect fill="none" height="24" width="24"/></g><g><g><path d="M3.23,13L3.23,13c-0.64,0-1.13,0.59-0.98,1.21c0.25,1.12,0.7,2.18,1.3,3.12c0.34,0.54,1.1,0.61,1.55,0.16l0,0 c0.32-0.32,0.4-0.83,0.15-1.21c-0.49-0.77-0.85-1.62-1.05-2.54C4.1,13.3,3.68,13,3.23,13z"/><path d="M5.09,6.51L5.09,6.51C4.64,6.06,3.88,6.13,3.54,6.67c-0.6,0.95-1.04,2-1.3,3.12C2.11,10.41,2.59,11,3.23,11h0 c0.45,0,0.87-0.3,0.97-0.74c0.2-0.92,0.56-1.77,1.05-2.54C5.49,7.34,5.42,6.83,5.09,6.51z"/><path d="M11,3.23L11,3.23c0-0.64-0.59-1.13-1.21-0.98c-1.12,0.25-2.18,0.7-3.12,1.3c-0.54,0.34-0.61,1.1-0.16,1.55l0,0 c0.32,0.32,0.83,0.4,1.21,0.15C8.49,4.76,9.34,4.4,10.26,4.2C10.7,4.1,11,3.68,11,3.23z"/><path d="M17.33,3.54c-0.95-0.6-2-1.04-3.12-1.3C13.59,2.11,13,2.59,13,3.23v0c0,0.45,0.3,0.87,0.74,0.97 c0.92,0.2,1.77,0.56,2.54,1.05c0.38,0.24,0.89,0.17,1.21-0.15l0,0C17.94,4.64,17.87,3.88,17.33,3.54z"/><path d="M18.91,17.49L18.91,17.49c0.45,0.45,1.21,0.38,1.55-0.16c0.6-0.95,1.04-2,1.3-3.12c0.14-0.62-0.35-1.21-0.98-1.21h0 c-0.45,0-0.87,0.3-0.97,0.74c-0.2,0.92-0.56,1.77-1.05,2.54C18.51,16.66,18.58,17.17,18.91,17.49z"/><path d="M20.77,11L20.77,11c0.64,0,1.13-0.59,0.98-1.21c-0.25-1.12-0.7-2.18-1.3-3.12c-0.34-0.54-1.1-0.61-1.55-0.16l0,0 c-0.32,0.32-0.4,0.83-0.15,1.21c0.49,0.77,0.85,1.62,1.05,2.54C19.9,10.7,20.32,11,20.77,11z"/><path d="M13,20.77L13,20.77c0,0.64,0.59,1.13,1.21,0.98c1.12-0.25,2.18-0.7,3.12-1.3c0.54-0.34,0.61-1.1,0.16-1.55l0,0 c-0.32-0.32-0.83-0.4-1.21-0.15c-0.77,0.49-1.62,0.85-2.54,1.05C13.3,19.9,13,20.32,13,20.77z"/><path d="M6.67,20.46c0.95,0.6,2,1.04,3.12,1.3c0.62,0.14,1.21-0.35,1.21-0.98v0c0-0.45-0.3-0.87-0.74-0.97 c-0.92-0.2-1.77-0.56-2.54-1.05c-0.38-0.24-0.89-0.17-1.21,0.15l0,0C6.06,19.36,6.13,20.12,6.67,20.46z"/><circle cx="12" cy="12" r="5"/></g></g></svg>