<svg xmlns="http://www.w3.org/2000/svg" enable-background="new 0 0 24 24" height="24" viewBox="0 0 24 24" width="24"><g><rect fill="none" height="24" width="24"/><path d="M12,2c1.1,0,2,0.9,2,2s-0.9,2-2,2s-2-0.9-2-2S10.9,2,12,2z M10,20c-1.66,0-3-1.34-3-3c0-1.31,0.84-2.41,2-2.83V12.1 c-2.28,0.46-4,2.48-4,4.9c0,2.76,2.24,5,5,5c2.42,0,4.44-1.72,4.9-4h-2.07C12.42,19.16,11.31,20,10,20z M21.19,21.19L2.81,2.81 L1.39,4.22L10,12.83V17h4.17l5.61,5.61L21.19,21.19z M19,11c-1.54,0.02-3.09-0.75-4.07-1.83l-1.29-1.43 C13.4,7.5,13.2,7.38,13.01,7.28c-0.36-0.19-0.72-0.3-1.2-0.26c-0.49,0.04-0.91,0.27-1.23,0.61L14,11.05c1.29,1.07,3.25,1.94,5,1.95 V11z"/></g></svg>