<svg xmlns="http://www.w3.org/2000/svg" enable-background="new 0 0 24 24" height="24" viewBox="0 0 24 24" width="24"><g><rect fill="none" height="24" width="24"/></g><g><g><path d="M9,13.05C9,14.68,10.34,16,12,16s3-1.32,3-2.95c0-1.31-0.53-1.69-3-4.55C9.52,11.38,9,11.75,9,13.05z"/><path d="M20,13c0.55,0,1-0.45,1-1s-0.45-1-1-1h-1V5h1c0.55,0,1-0.45,1-1s-0.45-1-1-1H4C3.45,3,3,3.45,3,4s0.45,1,1,1h1v6H4 c-0.55,0-1,0.45-1,1s0.45,1,1,1h1v6H4c-0.55,0-1,0.45-1,1s0.45,1,1,1h16c0.55,0,1-0.45,1-1s-0.45-1-1-1h-1v-6H20z M17,19H7v-6 c0.55,0,1-0.45,1-1s-0.45-1-1-1V5h10v6c-0.55,0-1,0.45-1,1s0.45,1,1,1V19z"/></g></g></svg>