<svg xmlns="http://www.w3.org/2000/svg" enable-background="new 0 0 24 24" height="24" viewBox="0 0 24 24" width="24"><g><rect fill="none" height="24" width="24"/></g><g><path d="M20,13c0.55,0,1-0.45,1-1s-0.45-1-1-1h-1V5h1c0.55,0,1-0.45,1-1s-0.45-1-1-1H4C3.45,3,3,3.45,3,4s0.45,1,1,1h1v6H4 c-0.55,0-1,0.45-1,1s0.45,1,1,1h1v6H4c-0.55,0-1,0.45-1,1s0.45,1,1,1h16c0.55,0,1-0.45,1-1s-0.45-1-1-1h-1v-6H20z M12,16 c-1.66,0-3-1.32-3-2.95c0-1.3,0.52-1.67,3-4.55c2.47,2.86,3,3.24,3,4.55C15,14.68,13.66,16,12,16z"/></g></svg>