<svg xmlns="http://www.w3.org/2000/svg" height="24" viewBox="0 -960 960 960" width="24"><path d="M727-280H600q-17 0-28.5-11.5T560-320q0-17 11.5-28.5T600-360h127l-36-36q-11-11-11-27.5t12-28.5q11-11 28-11t28 11l104 104q5 5 8 12.5t3 15.5q0 8-3 15.5t-8 12.5L748-188q-11 11-27.5 11.5T692-188q-11-11-11-28t11-28l35-36Zm-567 0q-33 0-56.5-23.5T80-360v-400q0-33 23.5-56.5T160-840h520q33 0 56.5 23.5T760-760v163q0 16-12 28t-28 12q-17 0-28.5-11.5T680-597v-107L416-520 160-703v343h283q17 0 28.5 11.5T483-320q0 17-11.5 28.5T443-280H160Zm58-480 198 142 204-142H218Zm-58 400v-400 400Z"/></svg>