<svg xmlns="http://www.w3.org/2000/svg" enable-background="new 0 0 24 24" height="24" viewBox="0 0 24 24" width="24"><g><rect fill="none" height="24" width="24"/></g><g><g><g><path d="M23,5.5V20c0,2.2-1.8,4-4,4h-7.3c-1.08,0-2.1-0.43-2.85-1.19L1,14.83c0,0,1.26-1.23,1.3-1.25 c0.22-0.19,0.49-0.29,0.79-0.29c0.22,0,0.42,0.06,0.6,0.16C3.73,13.46,8,15.91,8,15.91V4c0-0.83,0.67-1.5,1.5-1.5S11,3.17,11,4v7 h1V1.5C12,0.67,12.67,0,13.5,0S15,0.67,15,1.5V11h1V2.5C16,1.67,16.67,1,17.5,1S19,1.67,19,2.5V11h1V5.5C20,4.67,20.67,4,21.5,4 S23,4.67,23,5.5z"/></g></g></g></svg>