<svg xmlns="http://www.w3.org/2000/svg" enable-background="new 0 0 24 24" height="24" viewBox="0 0 24 24" width="24"><g><path d="M0 0v24h24V0H0zm1 13V7c0-1.66 1.34-3 3-3h12c1.66 0 3 1.34 3 3v7c0 1.1-.9 2-2 2H4c-1.66 0-3-1.34-3-3zm22 5c0 1.1-.9 2-2 2H5c-.55 0-1-.45-1-1s.45-1 1-1h16V8c0-.55.45-1 1-1s1 .45 1 1v10z" fill="none"/><path d="M23 8v10c0 1.1-.9 2-2 2H5c-.55 0-1-.45-1-1s.45-1 1-1h16V8c0-.55.45-1 1-1s1 .45 1 1zM4 16c-1.66 0-3-1.34-3-3V7c0-1.66 1.34-3 3-3h12c1.66 0 3 1.34 3 3v7c0 1.1-.9 2-2 2H4zm3-6c0 1.66 1.34 3 3 3s3-1.34 3-3-1.34-3-3-3-3 1.34-3 3z"/></g></svg>