<svg xmlns="http://www.w3.org/2000/svg" enable-background="new 0 0 24 24" height="24" viewBox="0 0 24 24" width="24"><g><rect fill="none" height="24" width="24"/><path d="M18.65,19.35l-2.15-2.15V14h1v2.79l1.85,1.85L18.65,19.35z M17,10c0.34,0,0.67,0.03,1,0.08V5h-2v3H8V5H6v15 h4.68C10.25,19.09,10,18.08,10,17C10,13.13,13.13,10,17,10z M12,5c-0.55,0-1-0.45-1-1c0-0.55,0.45-1,1-1c0.55,0,1,0.45,1,1 C13,4.55,12.55,5,12,5z" opacity=".3"/><path d="M17,12c-2.76,0-5,2.24-5,5s2.24,5,5,5c2.76,0,5-2.24,5-5S19.76,12,17,12z M18.65,19.35l-2.15-2.15V14h1v2.79l1.85,1.85 L18.65,19.35z M18,3h-3.18C14.4,1.84,13.3,1,12,1S9.6,1.84,9.18,3H6C4.9,3,4,3.9,4,5v15c0,1.1,0.9,2,2,2h6.11 c-0.59-0.57-1.07-1.25-1.42-2H6V5h2v3h8V5h2v5.08c0.71,0.1,1.38,0.31,2,0.6V5C20,3.9,19.1,3,18,3z M12,5c-0.55,0-1-0.45-1-1 c0-0.55,0.45-1,1-1c0.55,0,1,0.45,1,1C13,4.55,12.55,5,12,5z"/></g></svg>