<svg xmlns="http://www.w3.org/2000/svg" enable-background="new 0 0 24 24" height="24" viewBox="0 0 24 24" width="24"><g><rect fill="none" height="24" width="24"/></g><g><g><g><path d="M18.39,14.56C16.71,13.7,14.53,13,12,13c-2.53,0-4.71,0.7-6.39,1.56C4.61,15.07,4,16.1,4,17.22V20h16v-2.78 C20,16.1,19.39,15.07,18.39,14.56z"/></g><g><path d="M10,12c0.17,0,3.83,0,4,0c1.66,0,3-1.34,3-3c0-0.73-0.27-1.4-0.71-1.92C16.42,6.75,16.5,6.38,16.5,6 c0-1.25-0.77-2.32-1.86-2.77C14,2.48,13.06,2,12,2s-2,0.48-2.64,1.23C8.27,3.68,7.5,4.75,7.5,6c0,0.38,0.08,0.75,0.21,1.08 C7.27,7.6,7,8.27,7,9C7,10.66,8.34,12,10,12z"/></g></g></g></svg>