<svg xmlns="http://www.w3.org/2000/svg" enable-background="new 0 0 24 24" height="24" viewBox="0 0 24 24" width="24"><g><rect fill="none" height="24" width="24"/></g><g><g><path d="M13.9,7.59C13.74,6.67,12.94,6,12,6s-1.74,0.67-1.9,1.59L9.78,10h4.44L13.9,7.59z" opacity=".3"/><path d="M17.48,16.34C16.29,15.73,14.37,15,12,15c-2.37,0-4.29,0.73-5.48,1.34C6.2,16.5,6,16.84,6,17.22V18h12 v-0.78C18,16.84,17.8,16.5,17.48,16.34z" opacity=".3"/><path d="M18.39,14.56C16.71,13.7,14.53,13,12,13c-2.53,0-4.71,0.7-6.39,1.56C4.61,15.07,4,16.1,4,17.22V20h16v-2.78 C20,16.1,19.39,15.07,18.39,14.56z M18,18H6v-0.78c0-0.38,0.2-0.72,0.52-0.88C7.71,15.73,9.63,15,12,15 c2.37,0,4.29,0.73,5.48,1.34C17.8,16.5,18,16.84,18,17.22V18z"/><path d="M9.78,12h4.44c1.21,0,2.14-1.06,1.98-2.26l-0.32-2.45C15.57,5.39,13.92,4,12,4S8.43,5.39,8.12,7.29L7.8,9.74 C7.64,10.94,8.57,12,9.78,12z M10.1,7.59C10.26,6.67,11.06,6,12,6s1.74,0.67,1.9,1.59L14.22,10H9.78L10.1,7.59z"/></g></g></svg>