<svg xmlns="http://www.w3.org/2000/svg" height="24" viewBox="0 0 24 24" width="24"><path d="M0 0h24v24H0V0z" fill="none"/><circle cx="12" cy="8" opacity=".3" r="2.1"/><path d="M12 14.9c-2.97 0-6.1 1.46-6.1 2.1v1.1h12.2V17c0-.64-3.13-2.1-6.1-2.1z" opacity=".3"/><path d="M12 13c-2.67 0-8 1.34-8 4v3h16v-3c0-2.66-5.33-4-8-4zm6.1 5.1H5.9V17c0-.64 3.13-2.1 6.1-2.1s6.1 1.46 6.1 2.1v1.1zM12 12c2.21 0 4-1.79 4-4s-1.79-4-4-4-4 1.79-4 4 1.79 4 4 4zm0-6.1c1.16 0 2.1.94 2.1 2.1 0 1.16-.94 2.1-2.1 2.1S9.9 9.16 9.9 8c0-1.16.94-2.1 2.1-2.1z"/></svg>