<svg xmlns="http://www.w3.org/2000/svg" height="24" viewBox="0 0 24 24" width="24"><path d="M0 0h24v24H0V0z" fill="none"/><path d="M6.54 5c.06.88.21 1.75.44 2.58l-1.2 1.21c-.4-1.21-.66-2.47-.75-3.79h1.51m9.86 12.01c.85.24 1.72.39 2.6.45v1.5c-1.32-.09-2.6-.35-3.8-.76l1.2-1.19M7.5 3H4c-.55 0-1 .45-1 1 0 9.39 7.61 17 17 17 .55 0 1-.45 1-1v-3.5c0-.55-.45-1-1-1-1.25 0-2.45-.2-3.57-.57-.1-.03-.21-.05-.31-.05-.26 0-.51.1-.71.29l-2.2 2.2c-2.83-1.44-5.15-3.75-6.59-6.59l2.2-2.21c.28-.26.36-.65.25-1C8.7 6.45 8.5 5.25 8.5 4c0-.55-.45-1-1-1zM15 3h2v7h-2zm4 0h2v7h-2z"/></svg>