<svg xmlns="http://www.w3.org/2000/svg" height="24" viewBox="0 0 24 24" width="24"><path d="M0 0h24v24H0V0z" fill="none"/><path d="M6.54 5h-1.5c.09 1.32.34 2.58.75 3.79l1.2-1.21c-.24-.83-.39-1.7-.45-2.58zm8.66 13.21c1.21.41 2.48.67 3.8.76v-1.5c-.88-.07-1.75-.22-2.6-.45l-1.2 1.19z" opacity=".3"/><path d="M15 12h2c0-2.76-2.24-5-5-5v2c1.66 0 3 1.34 3 3zm4 0h2c0-4.97-4.03-9-9-9v2c3.87 0 7 3.13 7 7zm1 3.5c-1.25 0-2.45-.2-3.57-.57-.1-.03-.21-.05-.31-.05-.26 0-.51.1-.71.29l-2.2 2.2c-2.83-1.44-5.15-3.75-6.59-6.59l2.2-2.21c.28-.26.36-.65.25-1C8.7 6.45 8.5 5.25 8.5 4c0-.55-.45-1-1-1H4c-.55 0-1 .45-1 1 0 9.39 7.61 17 17 17 .55 0 1-.45 1-1v-3.5c0-.55-.45-1-1-1zM5.03 5h1.5c.07.88.22 1.75.45 2.58l-1.2 1.21c-.4-1.21-.66-2.47-.75-3.79zM19 18.97c-1.32-.09-2.6-.35-3.8-.76l1.2-1.2c.85.24 1.72.39 2.6.45v1.51z"/></svg>