<svg xmlns="http://www.w3.org/2000/svg" enable-background="new 0 0 24 24" height="24" viewBox="0 0 24 24" width="24"><g><path d="M0,0h24v24H0V0z" fill="none"/></g><g><g><path d="M20,5V4c0-1.1-0.9-2-2-2s-2,0.9-2,2v1h-1v5h6V5H20z M19,5h-2V4c0-0.55,0.45-1,1-1s1,0.45,1,1V5z"/><path d="M15.63,14.4l-2.52,2.5c-2.5-1.43-4.57-3.5-6-6l2.5-2.52c0.23-0.24,0.33-0.57,0.27-0.9L9.13,3.8C9.04,3.34,8.63,3,8.15,3 L4,3C3.44,3,2.97,3.47,3,4.03C3.17,6.92,4.05,9.63,5.43,12c1.58,2.73,3.85,4.99,6.57,6.57c2.37,1.37,5.08,2.26,7.97,2.43 c0.56,0.03,1.03-0.44,1.03-1l0-4.15c0-0.48-0.34-0.89-0.8-0.98l-3.67-0.73C16.2,14.07,15.86,14.17,15.63,14.4z"/></g></g></svg>