<svg xmlns="http://www.w3.org/2000/svg" enable-background="new 0 0 24 24" height="24" viewBox="0 0 24 24" width="24"><g><rect fill="none" height="24" width="24"/></g><g><path d="M20,5h-3.17l-1.24-1.35C15.22,3.24,14.68,3,14.12,3H9.88C9.32,3,8.78,3.24,8.41,3.65L7.17,5H4C2.9,5,2,5.9,2,7v12 c0,1.1,0.9,2,2,2h16c1.1,0,2-0.9,2-2V7C22,5.9,21.1,5,20,5z M17,17H7c-0.41,0-0.65-0.47-0.4-0.8l2-2.67c0.2-0.27,0.6-0.27,0.8,0 L11.25,16l2.6-3.47c0.2-0.27,0.6-0.27,0.8,0l2.75,3.67C17.65,16.53,17.41,17,17,17z"/></g></svg>