<svg xmlns="http://www.w3.org/2000/svg" enable-background="new 0 0 24 24" height="24" viewBox="0 0 24 24" width="24"><g><rect fill="none" height="24" width="24"/></g><g><path d="M6,2.5V1h5v5H9.5V3.56L3.56,9.5H6V11H1V6h1.5v2.44L8.44,2.5H6z M22.98,16.82l-0.63,4.46C22.21,22.27,21.36,23,20.37,23 h-6.16c-0.53,0-1.29-0.21-1.66-0.59L8,17.62l0.83-0.84c0.24-0.24,0.58-0.35,0.92-0.28L13,17.24V6.5C13,5.67,13.67,5,14.5,5 S16,5.67,16,6.5v6h0.91c0.31,0,0.62,0.07,0.89,0.21l4.09,2.04C22.66,15.14,23.1,15.97,22.98,16.82z"/></g></svg>