<svg xmlns="http://www.w3.org/2000/svg" enable-background="new 0 0 24 24" height="24" viewBox="0 0 24 24" width="24"><path d="M0 0h24v24H0V0z" fill="none"/><path d="M18.5 10.2c0 2.57-2.1 5.79-6.16 9.51l-.34.3-.34-.31C7.6 15.99 5.5 12.77 5.5 10.2c0-3.84 2.82-6.7 6.5-6.7s6.5 2.85 6.5 6.7z" fill-opacity=".3"/><path d="M12 2c4.2 0 8 3.22 8 8.2 0 3.32-2.67 7.25-8 11.8-5.33-4.55-8-8.48-8-11.8C4 5.22 7.8 2 12 2zm6 8.2C18 6.57 15.35 4 12 4s-6 2.57-6 6.2c0 2.34 1.95 5.44 6 9.14 4.05-3.7 6-6.8 6-9.14zM12 12c-1.1 0-2-.9-2-2s.9-2 2-2 2 .9 2 2-.9 2-2 2z"/></svg>