<svg xmlns="http://www.w3.org/2000/svg" enable-background="new 0 0 24 24" height="24" viewBox="0 0 24 24" width="24"><g><rect fill="none" height="24" width="24"/><rect fill="none" height="24" width="24"/></g><g><g><path d="M19.28,4.93l-2.12-2.12c-0.78-0.78-2.05-0.78-2.83,0L11.5,5.64l2.12,2.12l2.12-2.12l3.54,3.54 C20.45,8,20.45,6.1,19.28,4.93z"/><path d="M5.49,13.77c0.59,0.59,1.54,0.59,2.12,0l2.47-2.47L7.96,9.17l-2.47,2.47C4.9,12.23,4.9,13.18,5.49,13.77L5.49,13.77z"/><path d="M14.33,8.46l-0.71,0.71l-3.18-3.18C9.85,5.4,8.9,5.4,8.32,5.99c-0.59,0.59-0.59,1.54,0,2.12l3.18,3.18l-7,7 c-0.7,0.7-0.88,1.84-0.29,2.65c0.74,1.03,2.19,1.12,3.05,0.26L16.45,12c0.39,0.39,1.02,0.39,1.41,0c0.39-0.39,0.39-1.02,0-1.41 l-2.12-2.12C15.35,8.07,14.72,8.07,14.33,8.46z"/></g></g></svg>