<svg xmlns="http://www.w3.org/2000/svg" enable-background="new 0 0 24 24" height="24" viewBox="0 0 24 24" width="24"><g><rect fill="none" height="24" width="24"/><rect fill="none" height="24" width="24"/></g><g><g/><g><path d="M21,6.3c0-0.79-0.47-1.51-1.19-1.83l-7-3.11c-0.52-0.23-1.11-0.23-1.62,0l-7,3.11C3.47,4.79,3,5.51,3,6.3V11 c0,5.55,3.84,10.74,9,12c2.3-0.56,4.33-1.9,5.88-3.71l-3.12-3.12c-1.94,1.29-4.58,1.07-6.29-0.64c-1.95-1.95-1.95-5.12,0-7.07 c1.95-1.95,5.12-1.95,7.07,0c1.71,1.71,1.92,4.35,0.64,6.29l2.9,2.9C20.29,15.69,21,13.38,21,11V6.3z"/><circle cx="12" cy="12" r="3"/></g></g></svg>