<svg xmlns="http://www.w3.org/2000/svg" enable-background="new 0 0 24 24" height="24" viewBox="0 0 24 24" width="24"><g><rect fill="none" height="24" width="24"/></g><g><g><path d="M6,18c0,1.1,0.9,2,2,2h8c1.1,0,2-0.9,2-2v-3H6V18z" opacity=".3"/><path d="M16,8H8c-1.1,0-2,0.9-2,2v3h12v-3C18,8.9,17.1,8,16,8z" opacity=".3"/><path d="M17,6.14V4c0-1.1-0.9-2-2-2H9C7.9,2,7,2.9,7,4v2.14c-1.72,0.45-3,2-3,3.86v8c0,2.21,1.79,4,4,4h8c2.21,0,4-1.79,4-4v-8 C20,8.14,18.72,6.59,17,6.14z M9,4h6v2h-2c0-0.55-0.45-1-1-1s-1,0.45-1,1H9V4z M18,18c0,1.1-0.9,2-2,2H8c-1.1,0-2-0.9-2-2v-3h12 V18z M18,13H6v-3c0-1.1,0.9-2,2-2h8c1.1,0,2,0.9,2,2V13z"/></g></g></svg>