<svg xmlns="http://www.w3.org/2000/svg" enable-background="new 0 0 24 24" height="24" viewBox="0 0 24 24" width="24"><g><rect fill="none" height="24" width="24"/></g><g><path d="M19.94,9.06C19.5,5.73,16.57,3,13,3C9.47,3,6.57,5.61,6.08,9l-1.93,3.48C3.74,13.14,4.22,14,5,14h1l0,2c0,1.1,0.9,2,2,2h1 v3h7l0-4.68C18.62,15.07,20.35,12.24,19.94,9.06z M12.5,14c-0.41,0-0.74-0.33-0.74-0.74c0-0.41,0.33-0.73,0.74-0.73 c0.41,0,0.73,0.32,0.73,0.73C13.23,13.67,12.92,14,12.5,14z M14.26,9.68c-0.44,0.65-0.86,0.85-1.09,1.27 c-0.09,0.17-0.13,0.28-0.13,0.82h-1.06c0-0.29-0.04-0.75,0.18-1.16c0.28-0.51,0.83-0.81,1.14-1.26c0.33-0.47,0.15-1.36-0.8-1.36 c-0.62,0-0.92,0.47-1.05,0.86l-0.96-0.4C10.76,7.67,11.46,7,12.5,7c0.86,0,1.45,0.39,1.75,0.88C14.51,8.31,14.66,9.1,14.26,9.68z"/></g></svg>