<svg xmlns="http://www.w3.org/2000/svg" enable-background="new 0 0 24 24" height="24" viewBox="0 0 24 24" width="24"><g><rect fill="none" height="24" width="24"/><path d="M11,8.17L6.49,3.66C8.07,2.61,9.96,2,12,2c5.52,0,10,4.48,10,10c0,2.04-0.61,3.93-1.66,5.51l-1.46-1.46 C19.59,14.87,20,13.48,20,12c0-3.35-2.07-6.22-5-7.41V5c0,1.1-0.9,2-2,2h-2V8.17z M20.49,21.9L20.49,21.9 c-0.39,0.39-1.02,0.39-1.41,0l-1.56-1.56c-2.07,1.37-4.68,2-7.45,1.48c-3.95-0.75-7.13-3.92-7.88-7.88 c-0.52-2.77,0.1-5.38,1.48-7.45L2.1,4.93c-0.39-0.39-0.39-1.02,0-1.41l0,0c0.39-0.39,1.02-0.39,1.41,0l16.97,16.97 C20.88,20.88,20.88,21.51,20.49,21.9z M11,18c-1.1,0-2-0.9-2-2v-1l-4.79-4.79C4.08,10.79,4,11.38,4,12c0,4.08,3.05,7.44,7,7.93V18z"/></g></svg>