<svg xmlns="http://www.w3.org/2000/svg" enable-background="new 0 0 24 24" height="24" viewBox="0 0 24 24" width="24"><g><rect fill="none" height="24" width="24"/></g><g><g><path d="M19,6h-1V1H6v5H5C3.9,6,3,6.9,3,8v12c0,1.1,0.9,2,2,2h14c1.1,0,2-0.9,2-2V8C21,6.9,20.1,6,19,6z M8,3h8v3H8V3z M19,20H5V8 h14V20z"/><path d="M12,9c-2.76,0-5,2.24-5,5s2.24,5,5,5c2.76,0,5-2.24,5-5S14.76,9,12,9z M12,17.5c-1.93,0-3.5-1.57-3.5-3.5 s1.57-3.5,3.5-3.5s3.5,1.57,3.5,3.5S13.93,17.5,12,17.5z"/><polygon points="12.5,11.5 11.5,11.5 11.5,14.21 13.14,15.85 13.85,15.14 12.5,13.79"/></g></g></svg>