<svg xmlns="http://www.w3.org/2000/svg" enable-background="new 0 0 24 24" height="24" viewBox="0 0 24 24" width="24"><g><rect fill="none" height="24" width="24"/><rect fill="none" height="24" width="24"/></g><g><g><path d="M5,11h4c1.1,0,2-0.9,2-2V5c0-1.1-0.9-2-2-2H5C3.9,3,3,3.9,3,5v4C3,10.1,3.9,11,5,11z M5,5h4v4H5V5z"/><path d="M5,21h4c1.1,0,2-0.9,2-2v-4c0-1.1-0.9-2-2-2H5c-1.1,0-2,0.9-2,2v4C3,20.1,3.9,21,5,21z M5,15h4v4H5V15z"/><path d="M13,5v4c0,1.1,0.9,2,2,2h4c1.1,0,2-0.9,2-2V5c0-1.1-0.9-2-2-2h-4C13.9,3,13,3.9,13,5z M19,9h-4V5h4V9z"/><path d="M21,20.5v-1c0-0.28-0.22-0.5-0.5-0.5h-1c-0.28,0-0.5,0.22-0.5,0.5v1c0,0.28,0.22,0.5,0.5,0.5h1C20.78,21,21,20.78,21,20.5 z"/><path d="M13,13.5v1c0,0.28,0.22,0.5,0.5,0.5h1c0.28,0,0.5-0.22,0.5-0.5v-1c0-0.28-0.22-0.5-0.5-0.5h-1C13.22,13,13,13.22,13,13.5z"/><path d="M16.5,15h-1c-0.28,0-0.5,0.22-0.5,0.5v1c0,0.28,0.22,0.5,0.5,0.5h1c0.28,0,0.5-0.22,0.5-0.5v-1C17,15.22,16.78,15,16.5,15 z"/><path d="M13,17.5v1c0,0.28,0.22,0.5,0.5,0.5h1c0.28,0,0.5-0.22,0.5-0.5v-1c0-0.28-0.22-0.5-0.5-0.5h-1C13.22,17,13,17.22,13,17.5z"/><path d="M15.5,21h1c0.28,0,0.5-0.22,0.5-0.5v-1c0-0.28-0.22-0.5-0.5-0.5h-1c-0.28,0-0.5,0.22-0.5,0.5v1C15,20.78,15.22,21,15.5,21 z"/><path d="M17.5,19h1c0.28,0,0.5-0.22,0.5-0.5v-1c0-0.28-0.22-0.5-0.5-0.5h-1c-0.28,0-0.5,0.22-0.5,0.5v1C17,18.78,17.22,19,17.5,19 z"/><path d="M18.5,13h-1c-0.28,0-0.5,0.22-0.5,0.5v1c0,0.28,0.22,0.5,0.5,0.5h1c0.28,0,0.5-0.22,0.5-0.5v-1C19,13.22,18.78,13,18.5,13 z"/><path d="M19.5,17h1c0.28,0,0.5-0.22,0.5-0.5v-1c0-0.28-0.22-0.5-0.5-0.5h-1c-0.28,0-0.5,0.22-0.5,0.5v1C19,16.78,19.22,17,19.5,17 z"/></g></g></svg>