<svg xmlns="http://www.w3.org/2000/svg" enable-background="new 0 0 24 24" height="24" viewBox="0 0 24 24" width="24"><rect fill="none" height="24" width="24"/><g><path d="M19.88,18.47c0.44-0.7,0.7-1.51,0.7-2.39c0-2.49-2.01-4.5-4.5-4.5s-4.5,2.01-4.5,4.5s2.01,4.5,4.49,4.5 c0.88,0,1.7-0.26,2.39-0.7L21.58,23L23,21.58L19.88,18.47z M16.08,18.58c-1.38,0-2.5-1.12-2.5-2.5c0-1.38,1.12-2.5,2.5-2.5 s2.5,1.12,2.5,2.5C18.58,17.46,17.46,18.58,16.08,18.58z M15.72,10.08c-0.74,0.02-1.45,0.18-2.1,0.45l-0.55-0.83l-3.8,6.18 l-3.01-3.52l-3.63,5.81L1,17l5-8l3,3.5L13,6C13,6,15.72,10.08,15.72,10.08z M18.31,10.58c-0.64-0.28-1.33-0.45-2.05-0.49 c0,0,5.12-8.09,5.12-8.09L23,3.18L18.31,10.58z"/></g></svg>