<svg xmlns="http://www.w3.org/2000/svg" enable-background="new 0 0 24 24" height="24" viewBox="0 0 24 24" width="24"><g><rect fill="none" height="24" width="24"/><rect fill="none" height="24" width="24"/></g><g><path d="M12,21c0.55,0,1-0.45,1-1V6.83l0.88,0.88c0.39,0.39,1.02,0.39,1.41,0c0.39-0.39,0.39-1.02,0-1.41l-2.59-2.59 c-0.39-0.39-1.02-0.39-1.41,0L8.71,6.29c-0.39,0.39-0.39,1.02,0,1.41c0.39,0.39,1.02,0.39,1.41,0L11,6.83v0V9 c0,3.62-2.89,6.22-4.97,7.62c-0.52,0.35-0.59,1.09-0.14,1.53c0.33,0.33,0.87,0.4,1.26,0.13c1.59-1.06,2.89-2.28,3.85-3.59l0,5.3 C11,20.55,11.45,21,12,21z"/></g></svg>