<svg xmlns="http://www.w3.org/2000/svg" enable-background="new 0 0 24 24" height="24" viewBox="0 0 24 24" width="24"><g><rect fill="none" height="24" width="24"/></g><g><g><path d="M12,2C6.48,2,2,6.48,2,12s4.48,10,10,10s10-4.48,10-10S17.52,2,12,2z M12,20c-4.41,0-8-3.59-8-8s3.59-8,8-8s8,3.59,8,8 S16.41,20,12,20z"/><path d="M17,10h-4.59l0.58-3.41v-0.2c-0.01-0.26-0.12-0.51-0.3-0.7L12,5l-4.6,5c-0.27,0.26-0.42,0.62-0.4,1v5c0,1.1,0.9,2,2,2h5.5 c0.56,0.03,1.08-0.29,1.3-0.8l2.1-4.9c0.08-0.15,0.12-0.33,0.1-0.5V11C18,10.45,17.55,10,17,10z"/></g></g></svg>