<svg xmlns="http://www.w3.org/2000/svg" enable-background="new 0 0 24 24" height="24" viewBox="0 0 24 24" width="24"><g><rect fill="none" height="24" width="24"/></g><g><g><path d="M12 2C6.48 2 2 6.48 2 12s4.48 10 10 10 10-4.48 10-10S17.52 2 12 2zm0 18c-4.41 0-8-3.59-8-8s3.59-8 8-8 8 3.59 8 8-3.59 8-8 8z"/><path d="M17 10h-4.59l.58-3.41v-.2c-.01-.26-.12-.51-.3-.7L12 5l-4.6 5c-.27.26-.42.62-.4 1v5c0 1.1.9 2 2 2h5.5c.56.03 1.08-.29 1.3-.8l2.1-4.9c.08-.15.12-.33.1-.5V11c0-.55-.45-1-1-1z"/></g></g></svg>