<svg xmlns="http://www.w3.org/2000/svg" enable-background="new 0 0 24 24" height="24" viewBox="0 0 24 24" width="24"><g><rect fill="none" height="24" width="24"/></g><g><g><path d="M12,5V1L7,6l5,5V7c3.31,0,6,2.69,6,6s-2.69,6-6,6s-6-2.69-6-6H4c0,4.42,3.58,8,8,8s8-3.58,8-8S16.42,5,12,5z"/><g><path d="M9.56,13.49h0.45c0.21,0,0.37-0.05,0.48-0.16s0.16-0.25,0.16-0.43c0-0.08-0.01-0.15-0.04-0.22s-0.06-0.12-0.11-0.17 s-0.11-0.09-0.18-0.11s-0.16-0.04-0.25-0.04c-0.08,0-0.15,0.01-0.22,0.03s-0.13,0.05-0.18,0.1s-0.09,0.09-0.12,0.15 s-0.05,0.13-0.05,0.2H8.65c0-0.18,0.04-0.34,0.11-0.48s0.17-0.27,0.3-0.37s0.27-0.18,0.44-0.23s0.35-0.08,0.54-0.08 c0.21,0,0.41,0.03,0.59,0.08s0.33,0.13,0.46,0.23s0.23,0.23,0.3,0.38s0.11,0.33,0.11,0.53c0,0.09-0.01,0.18-0.04,0.27 s-0.07,0.17-0.13,0.25s-0.12,0.15-0.2,0.22s-0.17,0.12-0.28,0.17c0.24,0.09,0.42,0.21,0.54,0.39s0.18,0.38,0.18,0.61 c0,0.2-0.04,0.38-0.12,0.53s-0.18,0.29-0.32,0.39s-0.29,0.19-0.48,0.24s-0.38,0.08-0.6,0.08c-0.18,0-0.36-0.02-0.53-0.07 s-0.33-0.12-0.46-0.23s-0.25-0.23-0.33-0.38s-0.12-0.34-0.12-0.55h0.85c0,0.08,0.02,0.15,0.05,0.22s0.07,0.12,0.13,0.17 s0.12,0.09,0.2,0.11s0.16,0.04,0.25,0.04c0.1,0,0.19-0.01,0.27-0.04s0.15-0.07,0.2-0.12s0.1-0.11,0.13-0.18s0.04-0.15,0.04-0.24 c0-0.11-0.02-0.21-0.05-0.29s-0.08-0.15-0.14-0.2s-0.13-0.09-0.22-0.11s-0.18-0.04-0.29-0.04H9.56V13.49z"/><path d="M15.3,14.24c0,0.32-0.03,0.6-0.1,0.82s-0.17,0.42-0.29,0.57s-0.28,0.26-0.45,0.33s-0.37,0.1-0.59,0.1 s-0.41-0.03-0.59-0.1s-0.33-0.18-0.46-0.33s-0.23-0.34-0.3-0.57s-0.11-0.5-0.11-0.82V13.5c0-0.32,0.03-0.6,0.1-0.82 s0.17-0.42,0.29-0.57s0.28-0.26,0.45-0.33s0.37-0.1,0.59-0.1s0.41,0.03,0.59,0.1s0.33,0.18,0.46,0.33s0.23,0.34,0.3,0.57 s0.11,0.5,0.11,0.82V14.24z M14.45,13.38c0-0.19-0.01-0.35-0.04-0.48c-0.03-0.13-0.07-0.23-0.12-0.31s-0.11-0.14-0.19-0.17 s-0.16-0.05-0.25-0.05s-0.18,0.02-0.25,0.05s-0.14,0.09-0.19,0.17s-0.09,0.18-0.12,0.31s-0.04,0.29-0.04,0.48v0.97 c0,0.19,0.01,0.35,0.04,0.48s0.07,0.24,0.12,0.32s0.11,0.14,0.19,0.17s0.16,0.05,0.25,0.05s0.18-0.02,0.25-0.05 s0.14-0.09,0.19-0.17s0.09-0.19,0.11-0.32c0.03-0.13,0.04-0.29,0.04-0.48V13.38z"/></g></g></g></svg>