<svg xmlns="http://www.w3.org/2000/svg" enable-background="new 0 0 24 24" height="24" viewBox="0 0 24 24" width="24"><g><rect fill="none" height="24" width="24"/><rect fill="none" height="24" width="24"/></g><g><g><path d="M3.86,18.46c2.65,3.45,7.11,4.37,10.74,2.79c0.61-0.27,0.74-1.09,0.27-1.56l-0.05-0.05c-0.29-0.29-0.72-0.35-1.1-0.19 c-2.96,1.24-6.59,0.37-8.58-2.62c-1.58-2.37-1.55-5.37,0.05-7.73C6.6,7.03,8.8,6.03,11,6.03v1.76c0,0.45,0.54,0.67,0.86,0.36 l2.79-2.79c0.2-0.2,0.2-0.51,0-0.71l-2.8-2.79C11.54,1.54,11,1.76,11,2.21v1.8c-2.76,0-5.52,1.25-7.34,3.78 C1.38,10.96,1.46,15.37,3.86,18.46z"/><g><path d="M17.7,7.71c-0.39-0.39-1.02-0.39-1.41,0l-4.59,4.58c-0.39,0.39-0.39,1.02,0,1.41l4.59,4.59c0.39,0.39,1.02,0.39,1.41,0 l4.59-4.59c0.39-0.39,0.39-1.02,0-1.41L17.7,7.71z"/></g></g></g></svg>