<svg xmlns="http://www.w3.org/2000/svg" enable-background="new 0 0 24 24" height="24" viewBox="0 0 24 24" width="24"><g><rect fill="none" height="24" width="24"/><rect fill="none" height="24" width="24"/></g><g><path d="M16,21c-0.55,0-1-0.45-1-1l0-5.09c0-0.98,0.71-1.8,1.67-1.97C18.56,12.63,20,10.98,20,9c0-2.21-1.79-4-4-4 c-1.98,0-3.63,1.44-3.94,3.33C11.89,9.29,11.07,10,10.09,10l-4.26,0l0.88,0.88c0.39,0.39,0.39,1.02,0,1.41 c-0.39,0.39-1.02,0.39-1.41,0L2.71,9.71c-0.39-0.39-0.39-1.02,0-1.41l2.59-2.59c0.39-0.39,1.02-0.39,1.41,0 c0.39,0.39,0.39,1.02,0,1.41L5.83,8l4.25,0c0.48-2.84,2.94-5,5.92-5c3.31,0,6,2.69,6,6c0,2.97-2.16,5.44-5,5.92L17,20 C17,20.55,16.55,21,16,21z"/></g></svg>