<svg xmlns="http://www.w3.org/2000/svg" enable-background="new 0 0 24 24" height="24" viewBox="0 0 24 24" width="24"><g><rect fill="none" height="24" width="24"/><path d="M20,6h-8l-1.41-1.41C10.21,4.21,9.7,4,9.17,4H4C2.9,4,2.01,4.9,2.01,6L2,18c0,1.1,0.9,2,2,2h16c1.1,0,2-0.9,2-2V8 C22,6.9,21.1,6,20,6z M7.12,15.29l-1.41-1.41c-0.39-0.39-0.39-1.02,0-1.41l0,0c0.39-0.39,1.02-0.39,1.41,0l0.71,0.71l2.83-2.83 c0.39-0.39,1.02-0.39,1.41,0l0,0c0.39,0.39,0.39,1.02,0,1.41l-3.54,3.54C8.14,15.68,7.51,15.68,7.12,15.29z M17.41,13l0.88,0.88 c0.39,0.39,0.39,1.02,0,1.41l0,0c-0.39,0.39-1.02,0.39-1.41,0L16,14.41l-0.88,0.88c-0.39,0.39-1.02,0.39-1.41,0l0,0 c-0.39-0.39-0.39-1.02,0-1.41L14.59,13l-0.88-0.88c-0.39-0.39-0.39-1.02,0-1.41l0,0c0.39-0.39,1.02-0.39,1.41,0L16,11.59l0.88-0.88 c0.39-0.39,1.02-0.39,1.41,0l0,0c0.39,0.39,0.39,1.02,0,1.41L17.41,13z"/></g></svg>