<svg xmlns="http://www.w3.org/2000/svg" enable-background="new 0 0 24 24" height="24" viewBox="0 0 24 24" width="24"><g><rect fill="none" height="24" width="24"/></g><g><g><path d="M15.44,0.59l-3.18,3.18c-0.78,0.78-0.78,2.05,0,2.83l1.24,1.24l-0.71,0.71L11.55,7.3c-0.78-0.78-2.05-0.78-2.83,0 L7.3,8.72c-0.78,0.78-0.78,2.05,0,2.83l1.24,1.24l-0.71,0.71L6.6,12.25c-0.78-0.78-2.05-0.78-2.83,0l-3.18,3.18 c-0.78,0.78-0.78,2.05,0,2.83l3.54,3.54c0.78,0.78,2.05,0.78,2.83,0l3.18-3.18c0.78-0.78,0.78-2.05,0-2.83l-1.24-1.24l0.71-0.71 l1.24,1.24c0.78,0.78,2.05,0.78,2.83,0l1.41-1.41c0.78-0.78,0.78-2.05,0-2.83L13.84,9.6l0.71-0.71l1.24,1.24 c0.78,0.78,2.05,0.78,2.83,0l3.18-3.18c0.78-0.78,0.78-2.05,0-2.83l-3.54-3.54C17.48-0.2,16.22-0.2,15.44,0.59z M6.6,19.32 l-1.06,1.06L2,16.85l1.06-1.06L6.6,19.32z M8.72,17.2l-1.06,1.06l-3.54-3.54l1.06-1.06L8.72,17.2z M18.26,7.66L17.2,8.72 l-3.54-3.54l1.06-1.06L18.26,7.66z M20.38,5.54L19.32,6.6l-3.54-3.54L16.85,2L20.38,5.54z M14,21l0,2c4.97,0,9-4.03,9-9l-2,0 C21,17.87,17.87,21,14,21z M14,17l0,2c2.76,0,5-2.24,5-5l-2,0C17,15.66,15.66,17,14,17z"/></g></g></svg>