<svg xmlns="http://www.w3.org/2000/svg" enable-background="new 0 0 24 24" height="24" viewBox="0 0 24 24" width="24"><g><rect fill="none" height="24" width="24"/></g><g><g><path d="M18,6v6.26l2,1V6c0-1.1-0.9-2-2-2h-4c0-1.38-1.12-2.5-2.5-2.5S9,2.62,9,4H5.01c-1.1,0-2,0.9-2,2v3.8 C5.7,9.8,6,11.96,6,12.5c0,0.54-0.29,2.7-3,2.7V19c0,1.1,0.9,2,2,2h3.8c0-2.16,1.37-2.78,2.2-2.94v-2.03 C9.57,16.2,7.85,17.07,7.13,19H5v-2.13c2.17-0.8,3-2.87,3-4.37c0-1.49-0.83-3.56-2.99-4.37V6H11V4c0-0.28,0.22-0.5,0.5-0.5 S12,3.72,12,4v2H18z"/><polygon points="13,12 13,16 17,17 13,18 13,22 23,17"/></g></g></svg>