<svg xmlns="http://www.w3.org/2000/svg" enable-background="new 0 0 24 24" height="24" viewBox="0 0 24 24" width="24"><g><rect fill="none" height="24" width="24"/><rect fill="none" height="24" width="24"/></g><g><g><path d="M12,11c1.66,0,3-1.34,3-3s-1.34-3-3-3S9,6.34,9,8S10.34,11,12,11z"/><path d="M12,12c-1.84,0-3.56,0.5-5.03,1.37C6.36,13.73,6,14.39,6,15.09L6,16c0,0.55,0.45,1,1,1h10c0.55,0,1-0.45,1-1l0-0.91 c0-0.7-0.36-1.36-0.97-1.72C15.56,12.5,13.84,12,12,12z"/><path d="M22.11,7.79L22.11,7.79c0.55-0.23,0.78-0.88,0.5-1.41c-1.13-2.12-2.87-3.86-4.99-4.99c-0.52-0.28-1.17-0.04-1.4,0.5v0 c-0.19,0.47-0.01,1.02,0.43,1.25c1.79,0.94,3.26,2.42,4.21,4.21C21.09,7.8,21.64,7.98,22.11,7.79z"/><path d="M7.79,1.89L7.79,1.89c-0.23-0.55-0.88-0.78-1.4-0.5C4.27,2.52,2.52,4.26,1.4,6.38c-0.28,0.52-0.05,1.18,0.5,1.41l0,0 c0.47,0.2,1.02,0.01,1.25-0.43c0.94-1.79,2.42-3.26,4.21-4.21C7.8,2.91,7.98,2.36,7.79,1.89z"/><path d="M1.89,16.21L1.89,16.21c-0.55,0.23-0.78,0.88-0.5,1.4c1.13,2.12,2.87,3.87,5,5c0.52,0.28,1.17,0.04,1.4-0.5l0,0 c0.19-0.47,0.01-1.02-0.43-1.25c-1.79-0.94-3.26-2.42-4.21-4.21C2.91,16.2,2.36,16.02,1.89,16.21z"/><path d="M16.21,22.11L16.21,22.11c0.23,0.55,0.88,0.78,1.4,0.5c2.12-1.13,3.87-2.87,5-5c0.28-0.52,0.04-1.17-0.5-1.4h0 c-0.47-0.19-1.02-0.01-1.25,0.43c-0.94,1.79-2.42,3.26-4.21,4.21C16.2,21.09,16.02,21.64,16.21,22.11z"/></g></g></svg>