<svg xmlns="http://www.w3.org/2000/svg" enable-background="new 0 0 24 24" height="24" viewBox="0 0 24 24" width="24"><g><rect fill="none" height="24" width="24"/></g><g><path d="M8,24L8,24c0.55,0,1-0.45,1-1v0c0-0.55-0.45-1-1-1h0c-0.55,0-1,0.45-1,1v0C7,23.55,7.45,24,8,24z M12,24L12,24 c0.55,0,1-0.45,1-1v0c0-0.55-0.45-1-1-1h0c-0.55,0-1,0.45-1,1v0C11,23.55,11.45,24,12,24z M16,24L16,24c0.55,0,1-0.45,1-1v0 c0-0.55-0.45-1-1-1h0c-0.55,0-1,0.45-1,1v0C15,23.55,15.45,24,16,24z M16,0.01L8,0C6.9,0,6,0.9,6,2v16c0,1.1,0.9,2,2,2h8 c1.1,0,2-0.9,2-2V2C18,0.9,17.1,0.01,16,0.01z M16,16H8V4h8V16z"/></g></svg>