<svg xmlns="http://www.w3.org/2000/svg" enable-background="new 0 0 24 24" height="24" viewBox="0 0 24 24" width="24"><g><rect fill="none" height="24" width="24"/></g><g><g><path d="M6,11c2.76,0,5-2.24,5-5S8.76,1,6,1S1,3.24,1,6S3.24,11,6,11z"/><path d="M23,14h-9v9h9V14z"/><path d="M17.71,7.7C18.11,7.89,18.54,8,19,8c1.65,0,3-1.35,3-3s-1.35-3-3-3s-3,1.35-3,3c0,0.46,0.11,0.89,0.3,1.29L6.29,16.3 C5.89,16.11,5.46,16,5,16c-1.65,0-3,1.35-3,3s1.35,3,3,3s3-1.35,3-3c0-0.46-0.11-0.89-0.3-1.29L17.71,7.7z"/></g></g></svg>