<svg xmlns="http://www.w3.org/2000/svg" enable-background="new 0 0 24 24" height="24" viewBox="0 0 24 24" width="24"><g><rect fill="none" height="24" width="24"/></g><g><g><path d="M12,2L4,5v6.09c0,5.05,3.41,9.76,8,10.91c4.59-1.15,8-5.86,8-10.91V5L12,2z M18,11.09c0,4-2.55,7.7-6,8.83 c-3.45-1.13-6-4.82-6-8.83v-4.7l6-2.25l6,2.25V11.09z"/><path d="M9.01,14.33c1.75,2.17,5.12,2.24,6.96,0.07c0.23-0.27,0.08-0.68-0.26-0.74c-1.29-0.21-2.48-0.98-3.18-2.2 c-0.71-1.22-0.78-2.63-0.32-3.86c0.12-0.33-0.16-0.66-0.51-0.6C8.36,7.62,6.81,11.61,9.01,14.33z"/></g></g></svg>