<svg xmlns="http://www.w3.org/2000/svg" enable-background="new 0 0 24 24" height="24" viewBox="0 0 24 24" width="24"><g><path d="M0,0h24v24H0V0z" fill="none"/></g><g><g><path d="M17.65,15.34l5.62-5.63c0.41-0.41,0.38-1.08-0.06-1.47C20.22,5.6,16.3,4,12,4 C7.7,4,3.78,5.6,0.79,8.24C0.35,8.63,0.32,9.3,0.73,9.71l5.62,5.63C7.8,13.89,9.79,13,12,13S16.2,13.89,17.65,15.34z" fill-opacity=".3"/><path d="M17.65,15.34C16.2,13.89,14.21,13,12,13s-4.2,0.89-5.65,2.34l4.94,4.95c0.39,0.39,1.02,0.39,1.42,0L17.65,15.34z"/></g></g></svg>