<svg xmlns="http://www.w3.org/2000/svg" enable-background="new 0 0 24 24" height="24" viewBox="0 0 24 24" width="24"><g><path d="M0,0h24v24H0V0z" fill="none"/></g><g><g><path d="M18.31,12h2.67l2.29-2.29c0.41-0.41,0.38-1.08-0.06-1.47C20.22,5.6,16.3,4,12,4S3.78,5.6,0.79,8.24 C0.35,8.62,0.32,9.3,0.73,9.71l3.5,3.51C6.22,11.23,8.97,10,12,10C14.35,10,16.52,10.74,18.31,12z" fill-opacity=".3"/><path d="M12,10c-3.03,0-5.78,1.23-7.77,3.22l7.06,7.08c0.19,0.19,0.45,0.29,0.7,0.29V14c0-1.1,0.9-2,2-2h4.32 C16.52,10.74,14.35,10,12,10z M18.92,17.5l1.38-1.38c0.39-0.39,0.39-1.02,0-1.41l0,0c-0.39-0.39-1.02-0.39-1.41,0l-1.39,1.38 l-1.39-1.38c-0.39-0.39-1.02-0.39-1.41,0c-0.39,0.39-0.39,1.02,0,1.41l1.39,1.38l-1.39,1.38c-0.39,0.39-0.39,1.02,0,1.41l0,0 c0.39,0.39,1.02,0.39,1.41,0l1.39-1.38l1.39,1.38c0.39,0.39,1.02,0.39,1.41,0l0,0c0.39-0.39,0.39-1.02,0-1.41L18.92,17.5z"/></g></g></svg>