<svg xmlns="http://www.w3.org/2000/svg" enable-background="new 0 0 24 24" height="24" viewBox="0 0 24 24" width="24"><g><path d="M0,0h24v24H0V0z" fill="none"/></g><g><g><path d="M17,8h5.92C19.97,5.51,16.16,4,12,4C7.7,4,3.78,5.6,0.79,8.24C0.35,8.63,0.32,9.3,0.73,9.71l10.56,10.58 c0.39,0.39,1.02,0.39,1.42,0l4.29-4.3V8z" opacity=".3"/><path d="M20,20L20,20c0.55,0,1-0.45,1-1v0c0-0.55-0.45-1-1-1h0c-0.55,0-1,0.45-1,1v0C19,19.55,19.45,20,20,20z"/><path d="M20,16L20,16c0.55,0,1-0.45,1-1v-4c0-0.55-0.45-1-1-1h0c-0.55,0-1,0.45-1,1v4C19,15.55,19.45,16,20,16z"/></g></g></svg>