<svg xmlns="http://www.w3.org/2000/svg" enable-background="new 0 0 24 24" height="24" viewBox="0 0 24 24" width="24"><g><path d="M0,0h24v24H0V0z" fill="none"/></g><g><path d="M18.92,17.5l1.38-1.39c0.39-0.39,0.39-1.02,0-1.41l0,0c-0.39-0.39-1.02-0.39-1.41,0l-1.39,1.38l-1.39-1.38 c-0.39-0.39-1.02-0.39-1.41,0c-0.39,0.39-0.39,1.02,0,1.41l1.39,1.39l-1.39,1.39c-0.39,0.39-0.39,1.02,0,1.41l0,0 c0.39,0.39,1.02,0.39,1.41,0l1.39-1.38l1.39,1.38c0.39,0.39,1.02,0.39,1.41,0l0,0c0.39-0.39,0.39-1.02,0-1.41L18.92,17.5z"/><path d="M12,14c0-0.36,0.1-0.69,0.27-0.98C12.17,13.02,12.09,13,12,13c0,0,0,0,0,0c-1.93,0-3.7,0.68-5.08,1.82 c-0.2,0.16-0.39,0.33-0.57,0.51l4.94,4.95c0.19,0.19,0.45,0.29,0.7,0.29c0,0,0,0,0,0V14z"/><path d="M23.21,8.24C20.22,5.6,16.3,4,12,4S3.78,5.6,0.79,8.24C0.35,8.63,0.32,9.3,0.73,9.71l5.62,5.63 c0.18-0.18,0.37-0.35,0.57-0.51C8.3,13.69,10.07,13,12,13l0,0c0.09,0,0.18,0.02,0.27,0.02C12.61,12.42,13.25,12,14,12h6.99 l2.28-2.29C23.68,9.3,23.65,8.63,23.21,8.24z" fill-opacity=".3"/></g></svg>