<svg xmlns="http://www.w3.org/2000/svg" enable-background="new 0 0 24 24" height="24" viewBox="0 0 24 24" width="24"><g><path d="M0,0h24v24H0V0z" fill="none"/></g><g><g><g><g><path d="M18.65,15.16c0.41-0.73,1.18-1.16,1.63-1.8c0.48-0.68,0.21-1.94-1.14-1.94c-0.61,0-1.01,0.32-1.26,0.7 c-0.19,0.29-0.57,0.39-0.89,0.25v0c-0.42-0.18-0.6-0.7-0.34-1.07c0.51-0.75,1.36-1.31,2.48-1.31c1.23,0,2.08,0.56,2.51,1.26 c0.37,0.6,0.58,1.73,0.01,2.57c-0.63,0.93-1.23,1.21-1.56,1.81c-0.08,0.14-0.13,0.26-0.16,0.49c-0.05,0.39-0.36,0.68-0.75,0.68 h-0.03c-0.44,0-0.79-0.38-0.75-0.82C18.43,15.73,18.49,15.44,18.65,15.16z M18.09,18.95c0-0.59,0.47-1.04,1.05-1.04 c0.59,0,1.04,0.45,1.04,1.04c0,0.58-0.44,1.05-1.04,1.05C18.55,20,18.09,19.53,18.09,18.95z"/></g></g><path d="M14.08,12.12c0.35-2.04,2.01-3.7,4.04-4.05c1.99-0.34,3.79,0.5,4.86,1.93l0.29-0.29 c0.41-0.41,0.38-1.08-0.06-1.47C20.22,5.6,16.3,4,12,4C7.7,4,3.78,5.6,0.79,8.24C0.35,8.63,0.32,9.3,0.73,9.71l10.56,10.58 c0.39,0.39,1.02,0.39,1.42,0l3.3-3.31C14.58,15.91,13.73,14.11,14.08,12.12z" fill-opacity=".3"/></g></g></svg>