<svg xmlns="http://www.w3.org/2000/svg" enable-background="new 0 0 24 24" height="24" viewBox="0 0 24 24" width="24"><g><path d="M0,0h24v24H0V0z" fill="none"/></g><g><g><path d="M19.77,13.22l3.5-3.51c0.41-0.41,0.38-1.08-0.06-1.47C20.22,5.6,16.3,4,12,4C7.7,4,3.78,5.6,0.79,8.24 C0.35,8.63,0.32,9.3,0.73,9.71l3.5,3.51C6.22,11.23,8.97,10,12,10S17.78,11.23,19.77,13.22z" fill-opacity=".3"/><path d="M19.77,13.22C17.78,11.23,15.03,10,12,10s-5.78,1.23-7.77,3.22l7.06,7.08c0.39,0.39,1.02,0.39,1.42,0L19.77,13.22z"/></g></g></svg>