<svg xmlns="http://www.w3.org/2000/svg" enable-background="new 0 0 24 24" height="24" viewBox="0 0 24 24" width="24"><g><path d="M0,0h24v24H0V0z" fill="none"/></g><g><path d="M20,10c-0.55,0-1,0.45-1,1v4c0,0.55,0.45,1,1,1s1-0.45,1-1v-4C21,10.45,20.55,10,20,10z"/><path d="M20,20L20,20c0.55,0,1-0.45,1-1v0c0-0.55-0.45-1-1-1h0c-0.55,0-1,0.45-1,1v0C19,19.55,19.45,20,20,20z"/><path d="M17,12.5V10c0-0.33,0.09-0.63,0.22-0.9C14.74,8.02,12.59,8,12,8c-3.59,0-6.83,1.45-9.18,3.8l8.48,8.49 c0.39,0.39,1.02,0.39,1.42,0l4.29-4.3V12.5z"/><path d="M17.2,9.14C17.53,8.47,18.21,8,19,8h3.92C19.96,5.51,16.16,4,12,4C7.7,4,3.78,5.6,0.79,8.24 C0.35,8.63,0.32,9.3,0.73,9.71l2.09,2.09C5.17,9.45,8.41,8,12,8C14.38,8,16.59,8.73,17.2,9.14z" fill-opacity=".3"/></g></svg>