<svg xmlns="http://www.w3.org/2000/svg" enable-background="new 0 0 24 24" height="24" viewBox="0 0 24 24" width="24"><g><path d="M0,0h24v24H0V0z" fill="none"/></g><g><g><path d="M21.18,11.8l2.09-2.09c0.41-0.41,0.38-1.08-0.06-1.47C20.22,5.6,16.3,4,12,4S3.78,5.6,0.79,8.24 C0.35,8.62,0.32,9.3,0.73,9.71l2.09,2.09C5.17,9.45,8.41,8,12,8S18.83,9.45,21.18,11.8z" fill-opacity=".3"/><path d="M12,8c-3.59,0-6.83,1.45-9.18,3.8l8.48,8.49c0.19,0.19,0.45,0.29,0.7,0.29V14c0-1.1,0.9-2,2-2h6.99l0.2-0.2 C18.83,9.45,15.59,8,12,8z M20.3,14.71L20.3,14.71c-0.39-0.39-1.02-0.39-1.41,0l-1.39,1.38l-1.39-1.38 c-0.39-0.39-1.02-0.39-1.41,0c-0.39,0.39-0.39,1.02,0,1.41l1.39,1.38l-1.39,1.38c-0.39,0.39-0.39,1.02,0,1.41l0,0 c0.39,0.39,1.02,0.39,1.41,0l1.39-1.38l1.39,1.38c0.39,0.39,1.02,0.39,1.41,0l0,0c0.39-0.39,0.39-1.02,0-1.41l-1.38-1.38 l1.38-1.38C20.69,15.73,20.69,15.1,20.3,14.71z"/></g></g></svg>