<svg xmlns="http://www.w3.org/2000/svg" enable-background="new 0 0 24 24" height="24" viewBox="0 0 24 24" width="24"><g><path d="M0,0h24v24H0V0z" fill="none"/></g><g><g><path d="M21.18,11.8l2.09-2.09c0.41-0.41,0.38-1.08-0.06-1.47C20.22,5.6,16.3,4,12,4C7.7,4,3.78,5.6,0.79,8.24 C0.35,8.63,0.32,9.3,0.73,9.71l2.09,2.09C5.17,9.45,8.41,8,12,8S18.83,9.45,21.18,11.8z" fill-opacity=".3"/><path d="M21.18,11.8C18.83,9.45,15.59,8,12,8s-6.83,1.45-9.18,3.8l8.48,8.49c0.39,0.39,1.02,0.39,1.42,0L21.18,11.8z"/></g></g></svg>