<svg xmlns="http://www.w3.org/2000/svg" enable-background="new 0 0 24 24" height="24" viewBox="0 0 24 24" width="24"><g><path d="M0,0h24v24H0V0z" fill="none"/></g><g><g><path d="M17,11.21V10c0-1.1,0.9-2,2-2h3.92C19.96,5.51,16.16,4,12,4C7.7,4,3.78,5.6,0.79,8.24 C0.35,8.63,0.32,9.3,0.73,9.71l3.5,3.51C6.22,11.23,8.97,10,12,10C13.8,10,15.5,10.44,17,11.21z" fill-opacity=".3"/><g><path d="M4.23,13.22l7.06,7.08c0.39,0.39,1.02,0.39,1.42,0l4.29-4.3v-4.78C15.5,10.44,13.8,10,12,10 C8.97,10,6.22,11.23,4.23,13.22z"/><path d="M20,20L20,20c0.55,0,1-0.45,1-1v0c0-0.55-0.45-1-1-1h0c-0.55,0-1,0.45-1,1v0C19,19.55,19.45,20,20,20z"/><path d="M20,10c-0.55,0-1,0.45-1,1v4c0,0.55,0.45,1,1,1s1-0.45,1-1v-4C21,10.45,20.55,10,20,10z"/></g></g></g></svg>