<svg xmlns="http://www.w3.org/2000/svg" enable-background="new 0 0 24 24" height="24" viewBox="0 0 24 24" width="24"><g><rect fill="none" height="24" width="24"/></g><g><g><g><g><path d="M6,8.83V20h12V4h-7.17L6,8.83z M11,8h2v5h-2V8z M11,15h2v2h-2V15z" enable-background="new" opacity=".3"/><path d="M18,2h-8L4,8v12c0,1.1,0.9,2,2,2h12c1.1,0,2-0.9,2-2V4C20,2.9,19.1,2,18,2z M18,20H6V8.83L10.83,4H18V20z"/><rect height="2" width="2" x="11" y="15"/><rect height="5" width="2" x="11" y="8"/></g></g></g></g></svg>