<svg xmlns="http://www.w3.org/2000/svg" enable-background="new 0 0 24 24" height="24" viewBox="0 0 24 24" width="24"><g><rect fill="none" height="24" width="24"/><path d="M22,9v6c0,1.1-0.9,2-2,2h-1l0-2h1V9H4v6h6v2H4c-1.1,0-2-0.9-2-2V9c0-1.1,0.9-2,2-2h16C21.1,7,22,7.9,22,9z M14.5,19 l1.09-2.41L18,15.5l-2.41-1.09L14.5,12l-1.09,2.41L11,15.5l2.41,1.09L14.5,19z M17,14l0.62-1.38L19,12l-1.38-0.62L17,10l-0.62,1.38 L15,12l1.38,0.62L17,14z M14.5,19l1.09-2.41L18,15.5l-2.41-1.09L14.5,12l-1.09,2.41L11,15.5l2.41,1.09L14.5,19z M17,14l0.62-1.38 L19,12l-1.38-0.62L17,10l-0.62,1.38L15,12l1.38,0.62L17,14z"/></g></svg>