<svg xmlns="http://www.w3.org/2000/svg" enable-background="new 0 0 24 24" height="24" viewBox="0 0 24 24" width="24"><g><rect fill="none" height="24" width="24"/></g><g><g><path d="M20.05,2.41L18.64,1c-3.51,3.51-3.51,9.21,0,12.73l1.41-1.41C17.32,9.58,17.32,5.14,20.05,2.41z"/><path d="M22.88,5.24l-1.41-1.41c-1.95,1.95-1.95,5.12,0,7.07l1.41-1.41C21.71,8.32,21.71,6.41,22.88,5.24z"/><path d="M15.48,17.34C14.29,16.73,12.37,16,10,16c-2.37,0-4.29,0.73-5.48,1.34C4.2,17.5,4,17.84,4,18.22V19h12 v-0.78C16,17.84,15.8,17.5,15.48,17.34z" opacity=".3"/><circle cx="10" cy="9" opacity=".3" r="2"/><path d="M10,13c2.21,0,4-1.79,4-4c0-2.21-1.79-4-4-4S6,6.79,6,9C6,11.21,7.79,13,10,13z M10,7c1.1,0,2,0.9,2,2c0,1.1-0.9,2-2,2 s-2-0.9-2-2C8,7.9,8.9,7,10,7z"/><path d="M16.39,15.56C14.71,14.7,12.53,14,10,14c-2.53,0-4.71,0.7-6.39,1.56C2.61,16.07,2,17.1,2,18.22V21h16v-2.78 C18,17.1,17.39,16.07,16.39,15.56z M16,19H4v-0.78c0-0.38,0.2-0.72,0.52-0.88C5.71,16.73,7.63,16,10,16 c2.37,0,4.29,0.73,5.48,1.34C15.8,17.5,16,17.84,16,18.22V19z"/></g></g></svg>