<svg xmlns="http://www.w3.org/2000/svg" enable-background="new 0 0 24 24" height="24" viewBox="0 0 24 24" width="24"><rect fill="none" height="24" width="24"/><path d="M12,9c-1.1,0-2-0.9-2-2c0-1.1,0.9-2,2-2s2,0.9,2,2C14,8.1,13.1,9,12,9z M7,19c-1.1,0-2-0.9-2-2 c0-1.1,0.9-2,2-2s2,0.9,2,2C9,18.1,8.1,19,7,19z M17,19c-1.1,0-2-0.9-2-2c0-1.1,0.9-2,2-2s2,0.9,2,2C19,18.1,18.1,19,17,19z" opacity=".3"/><path d="M16,7c0-2.21-1.79-4-4-4S8,4.79,8,7c0,2.21,1.79,4,4,4S16,9.21,16,7z M12,9c-1.1,0-2-0.9-2-2c0-1.1,0.9-2,2-2s2,0.9,2,2 C14,8.1,13.1,9,12,9z M7,13c-2.21,0-4,1.79-4,4c0,2.21,1.79,4,4,4s4-1.79,4-4C11,14.79,9.21,13,7,13z M7,19c-1.1,0-2-0.9-2-2 c0-1.1,0.9-2,2-2s2,0.9,2,2C9,18.1,8.1,19,7,19z M17,13c-2.21,0-4,1.79-4,4c0,2.21,1.79,4,4,4s4-1.79,4-4C21,14.79,19.21,13,17,13z M17,19c-1.1,0-2-0.9-2-2c0-1.1,0.9-2,2-2s2,0.9,2,2C19,18.1,18.1,19,17,19z"/></svg>