<svg xmlns="http://www.w3.org/2000/svg" enable-background="new 0 0 24 24" height="24" viewBox="0 0 24 24" width="24"><g><rect fill="none" height="24" width="24"/></g><g><g><circle cx="16.5" cy="2.38" r="2"/><path d="M24,11.88v-4.7l-5.05-2.14c-0.97-0.41-2.09-0.06-2.65,0.84l0,0l-1,1.6c-0.67,1.18-1.91,2.06-3.41,2.32l0.06,0.06 c0.69,0.69,1.52,1.07,2.46,1.17c0.8-0.42,1.52-0.98,2.09-1.64l0.6,3l-1.16,1.1L15,14.38v0.76v6.74h2v-6l2.1-2l1.8,8H23l-2.18-11 l-0.62-3.1l1.8,0.7v3.4H24z"/><path d="M10.29,8.09c0.22,0.15,0.47,0.24,0.72,0.29c0.13,0.02,0.25,0.04,0.38,0.04s0.26-0.01,0.38-0.04 c0.13-0.02,0.25-0.06,0.37-0.11c0.24-0.1,0.47-0.24,0.66-0.44c0.49-0.49,0.67-1.17,0.55-1.8C13.28,5.66,13.1,5.29,12.8,5 c-0.19-0.19-0.42-0.34-0.66-0.44c-0.12-0.05-0.24-0.09-0.37-0.11s-0.25-0.04-0.38-0.04c-0.12,0-0.23,0.01-0.35,0.03 c-0.14,0.02-0.28,0.06-0.41,0.11C10.4,4.66,10.17,4.81,9.98,5C9.68,5.29,9.5,5.66,9.43,6.03c-0.12,0.63,0.06,1.31,0.55,1.8 C10.07,7.93,10.18,8.01,10.29,8.09z"/><path d="M11.24,10.56l-2-2c-0.1-0.1-0.2-0.18-0.31-0.26C8.71,8.16,8.46,8.06,8.21,8.02C8.08,7.99,7.96,7.98,7.83,7.98 c-0.51,0-1.02,0.2-1.41,0.59l-3.34,3.34c-0.41,0.41-0.62,0.98-0.58,1.54C2.5,13.63,2.54,13.82,2.61,14l1.07,2.95l-3.63,3.63 L1.46,22l4.24-4.24v-2.22L7,16.75v5.13h2v-6l-2.12-2.12l2.36-2.36l0.71,0.71l0,0c1.29,1.26,2.97,2.04,5.03,2.04l-0.14-2.07 C13.34,12.06,12.14,11.46,11.24,10.56z"/></g></g></svg>