<svg xmlns="http://www.w3.org/2000/svg" enable-background="new 0 0 24 24" height="24" viewBox="0 0 24 24" width="24"><g><rect fill="none" height="24" width="24"/></g><g><g><path d="M12,2C6.48,2,2,6.48,2,12c0,5.52,4.48,10,10,10s10-4.48,10-10C22,6.48,17.52,2,12,2z M5.23,7.75 C6.1,8.62,6.7,9.74,6.91,11H4.07C4.22,9.82,4.63,8.72,5.23,7.75z M4.07,13h2.84c-0.21,1.26-0.81,2.38-1.68,3.25 C4.63,15.28,4.22,14.18,4.07,13z M11,19.93c-1.73-0.22-3.29-1-4.49-2.14c1.3-1.24,2.19-2.91,2.42-4.79H11V19.93z M11,11H8.93 C8.69,9.12,7.81,7.44,6.5,6.2C7.71,5.06,9.27,4.29,11,4.07V11z M19.93,11h-2.84c0.21-1.26,0.81-2.38,1.68-3.25 C19.37,8.72,19.78,9.82,19.93,11z M13,4.07c1.73,0.22,3.29,0.99,4.5,2.13c-1.31,1.24-2.19,2.92-2.43,4.8H13V4.07z M13,19.93V13 h2.07c0.24,1.88,1.12,3.55,2.42,4.79C16.29,18.93,14.73,19.71,13,19.93z M18.77,16.25c-0.87-0.86-1.46-1.99-1.68-3.25h2.84 C19.78,14.18,19.37,15.28,18.77,16.25z"/></g></g></svg>