<svg xmlns="http://www.w3.org/2000/svg" height="24" viewBox="0 0 24 24" width="24"><path d="M0 0h24v24H0V0z" fill="none"/><path d="M11.99 2C6.47 2 2 6.48 2 12s4.47 10 9.99 10C17.52 22 22 17.52 22 12S17.52 2 11.99 2zm7.48 7.16l-5.01-.43-2-4.71c3.21.19 5.91 2.27 7.01 5.14zm-5.07 6.26L12 13.98l-2.39 1.44.63-2.72-2.11-1.83 2.78-.24L12 8.06l1.09 2.56 2.78.24-2.11 1.83.64 2.73zm-2.86-11.4l-2 4.72-5.02.43c1.1-2.88 3.8-4.97 7.02-5.15zM4 12c0-.64.08-1.26.23-1.86l3.79 3.28-1.11 4.75C5.13 16.7 4 14.48 4 12zm3.84 6.82L12 16.31l4.16 2.5c-1.22.75-2.64 1.19-4.17 1.19-1.52 0-2.94-.44-4.15-1.18zm9.25-.65l-1.11-4.75 3.79-3.28c.14.59.23 1.22.23 1.86 0 2.48-1.14 4.7-2.91 6.17z"/></svg>