<svg xmlns="http://www.w3.org/2000/svg" height="24" viewBox="0 -960 960 960" width="24"><path d="M480-760q-17 0-28.5-11.5T440-800v-80q0-17 11.5-28.5T480-920q17 0 28.5 11.5T520-880v80q0 17-11.5 28.5T480-760Zm198 82q-11-11-11-27.5t11-28.5l56-57q12-12 28.5-12t28.5 12q11 11 11 28t-11 28l-57 57q-11 11-28 11t-28-11Zm122 238q-17 0-28.5-11.5T760-480q0-17 11.5-28.5T800-520h80q17 0 28.5 11.5T920-480q0 17-11.5 28.5T880-440h-80ZM480-40q-17 0-28.5-11.5T440-80v-80q0-17 11.5-28.5T480-200q17 0 28.5 11.5T520-160v80q0 17-11.5 28.5T480-40ZM226-678l-57-56q-12-12-12-29t12-28q11-11 28-11t28 11l57 57q11 11 11 28t-11 28q-12 11-28 11t-28-11Zm508 509-56-57q-11-12-11-28.5t11-27.5q11-11 27.5-11t28.5 11l57 56q12 11 11.5 28T791-169q-12 12-29 12t-28-12ZM80-440q-17 0-28.5-11.5T40-480q0-17 11.5-28.5T80-520h80q17 0 28.5 11.5T200-480q0 17-11.5 28.5T160-440H80Zm89 271q-11-11-11-28t11-28l57-57q11-11 27.5-11t28.5 11q12 12 12 28.5T282-225l-56 56q-12 12-29 12t-28-12Zm311-71q-100 0-170-70t-70-170q0-100 70-170t170-70q100 0 170 70t70 170q0 100-70 170t-170 70Zm0-80q66 0 113-47t47-113q0-66-47-113t-113-47q-66 0-113 47t-47 113q0 66 47 113t113 47Zm0-160Z"/></svg>