<svg xmlns="http://www.w3.org/2000/svg" enable-background="new 0 0 24 24" height="24" viewBox="0 0 24 24" width="24"><g><rect fill="none" height="24" width="24" x="0"/></g><g><g><path d="M18.89,14.75l-4.09-2.04c-0.28-0.14-0.58-0.21-0.89-0.21H13v-6C13,5.67,12.33,5,11.5,5S10,5.67,10,6.5v10.74L6.75,16.5 c-0.33-0.07-0.68,0.03-0.92,0.28L5,17.62l4.54,4.79C9.92,22.79,10.68,23,11.21,23h6.16c1,0,1.84-0.73,1.98-1.72l0.63-4.46 C20.1,15.97,19.66,15.14,18.89,14.75z"/><path d="M20.13,3.87C18.69,2.17,15.6,1,12,1S5.31,2.17,3.87,3.87L2,2v5h5L4.93,4.93c1-1.29,3.7-2.43,7.07-2.43 s6.07,1.14,7.07,2.43L17,7h5V2L20.13,3.87z"/></g></g></svg>