<svg xmlns="http://www.w3.org/2000/svg" enable-background="new 0 0 24 24" height="24" viewBox="0 0 24 24" width="24"><g><rect fill="none" height="24" width="24"/></g><g><path d="M20.22,10l-4.15,0.01c-0.16-0.01-0.31,0.02-0.45,0.08l-0.59,0.26L13.2,6.25c-0.56-1.26-2.04-1.83-3.3-1.27 s-1.83,2.04-1.27,3.3l3.3,7.45l-1.87,0.39c-0.19,0.05-0.99,0.27-1.36,1.21L8,19.19l6.78,2.67c0.49,0.19,1.05,0.18,1.53-0.04 l5.99-2.65c0.89-0.4,1.37-1.38,1.13-2.32l-1.36-5.34C21.85,10.65,21.1,10.04,20.22,10z M21.49,17.34L15.5,20l-4.92-1.96l4.18-0.88 l-4.3-9.7c-0.11-0.25,0-0.55,0.25-0.66c0.25-0.11,0.55,0,0.66,0.25l2.5,5.65l1.61-0.71L20.13,12L21.49,17.34z M2.06,5.56L1,4.5 L4.5,1L8,4.5L6.94,5.56L5.32,3.94C5.11,4.76,5,5.62,5,6.5c0,2.42,0.82,4.65,2.2,6.43L6.13,14C4.49,11.95,3.5,9.34,3.5,6.5 c0-0.92,0.1-1.82,0.3-2.68L2.06,5.56z"/></g></svg>