<svg xmlns="http://www.w3.org/2000/svg" enable-background="new 0 0 24 24" height="24" viewBox="0 0 24 24" width="24"><rect fill="none" height="24" width="24"/><path d="M24 14h-2v-2h-2v2h-2v2h2v2h2v-2h2v-2zM7.06 8.94 5 8l2.06-.94L8 5l.94 2.06L11 8l-2.06.94L8 11l-.94-2.06zM8 21l.94-2.06L11 18l-2.06-.94L8 15l-.94 2.06L5 18l2.06.94L8 21zm-3.63-8.63L3 13l1.37.63L5 15l.63-1.37L7 13l-1.37-.63L5 11l-.63 1.37zM12 12c0-2.73 1.08-5.27 2.75-7.25L12 2h7v7l-2.82-2.82C14.84 7.82 14 9.88 14 12c0 3.32 2.1 6.36 5 7.82V22c-4.09-1.59-7-5.65-7-10z"/></svg>