<svg xmlns="http://www.w3.org/2000/svg" enable-background="new 0 0 24 24" height="24" viewBox="0 0 24 24" width="24"><g><rect fill="none" height="24" width="24"/></g><g><g><path d="M6,8v13h4v-7h4v7h4V8l-6-5L6,8z M13.5,10c0,0.83-0.67,1.5-1.5,1.5s-1.5-0.67-1.5-1.5s0.67-1.5,1.5-1.5S13.5,9.17,13.5,10z"/><path d="M3,5C1.9,5,1,5.9,1,7v1h4V7C5,5.9,4.1,5,3,5z"/><rect height="12" width="4" x="1" y="9"/><path d="M21,5c-1.1,0-2,0.9-2,2v1h4V7C23,5.9,22.1,5,21,5z"/><rect height="12" width="4" x="19" y="9"/></g></g></svg>