<svg xmlns="http://www.w3.org/2000/svg" enable-background="new 0 0 24 24" height="24" viewBox="0 0 24 24" width="24"><g><rect fill="none" height="24" width="24"/><rect fill="none" height="24" width="24"/></g><g><g><path d="M21.96,9.73l-1.43-5C20.41,4.3,20.02,4,19.57,4H4.43C3.98,4,3.59,4.3,3.47,4.73l-1.43,5C1.86,10.36,2.34,11,3,11h2.2 l-1.05,7.88C4.07,19.47,4.53,20,5.13,20h0c0.5,0,0.92-0.37,0.98-0.86L6.67,15h10.67l0.55,4.14c0.07,0.49,0.49,0.86,0.98,0.86h0 c0.6,0,1.06-0.53,0.98-1.12L18.8,11H21C21.66,11,22.14,10.36,21.96,9.73z M6.93,13l0.27-2h9.6l0.27,2H6.93z"/></g></g></svg>