<svg xmlns="http://www.w3.org/2000/svg" enable-background="new 0 0 24 24" height="24" viewBox="0 0 24 24" width="24"><g><rect fill="none" height="24" width="24"/><rect fill="none" height="24" width="24"/></g><g><g><path d="M22,7.5C22,5.57,17.52,4,12,4S2,5.57,2,7.5c0,1.81,3.95,3.31,9,3.48V15H9.35c-0.82,0-1.55,0.5-1.86,1.26l-0.99,2.47 C6.27,19.34,6.71,20,7.37,20h0c0.38,0,0.72-0.23,0.86-0.58L9.2,17h5.6l0.97,2.42c0.14,0.35,0.48,0.58,0.86,0.58h0 c0.66,0,1.11-0.66,0.86-1.27l-0.99-2.47C16.2,15.5,15.46,15,14.65,15H13v-4.02C18.05,10.81,22,9.31,22,7.5z"/></g></g></svg>