<svg xmlns="http://www.w3.org/2000/svg" enable-background="new 0 0 24 24" height="24" viewBox="0 0 24 24" width="24"><g><rect fill="none" height="24" width="24"/><path d="M19,7H9C7.9,7,7,7.9,7,9v10c0,1.1,0.9,2,2,2h10c1.1,0,2-0.9,2-2V9C21,7.9,20.1,7,19,7z M19,10L19,10c0,0.55-0.45,1-1,1h-8 c-0.55,0-1-0.45-1-1v0c0-0.55,0.45-1,1-1h8C18.55,9,19,9.45,19,10z M13,15v-2h2v2H13z M15,17v2h-2v-2H15z M11,15H9v-2h2V15z M17,13 h2v2h-2V13z M9,17h2v2H9V17z M17,19v-2h2v2H17z M6,17H5c-1.1,0-2-0.9-2-2V5c0-1.1,0.9-2,2-2h10c1.1,0,2,0.9,2,2v1h-2V5H5v10h1V17z"/></g></svg>