<svg xmlns="http://www.w3.org/2000/svg" enable-background="new 0 0 24 24" height="24" viewBox="0 0 24 24" width="24"><g><path d="M0,0h24v24H0V0z" fill="none"/></g><g><path d="M19.41,7.41l-4.83-4.83C14.21,2.21,13.7,2,13.17,2H6C4.9,2,4.01,2.9,4.01,4L4,20c0,1.1,0.89,2,1.99,2H18c1.1,0,2-0.9,2-2 V8.83C20,8.3,19.79,7.79,19.41,7.41z M10.23,17.29l-2.12-2.12c-0.39-0.39-0.39-1.02,0-1.41l0,0c0.39-0.39,1.02-0.39,1.41,0 l1.41,1.41l3.54-3.54c0.39-0.39,1.02-0.39,1.41,0l0,0c0.39,0.39,0.39,1.02,0,1.41l-4.24,4.24C11.26,17.68,10.62,17.68,10.23,17.29z M14,9c-0.55,0-1-0.45-1-1V3.5L18.5,9H14z"/></g></svg>