<svg xmlns="http://www.w3.org/2000/svg" enable-background="new 0 0 24 24" height="24" viewBox="0 0 24 24" width="24"><g><rect fill="none" height="24" width="24"/><rect fill="none" height="24" width="24"/></g><g><g><polygon points="6.6,11 17.4,11 16.5,8 7.5,8"/><path d="M20,12v1H4v-1c0-0.55-0.45-1-1-1h0c-0.55,0-1,0.45-1,1v8c0,1.1,0.9,2,2,2h6v-3c0-1.1,0.9-2,2-2h0c1.1,0,2,0.9,2,2v3h6 c1.1,0,2-0.9,2-2v-8c0-0.55-0.45-1-1-1h0C20.45,11,20,11.45,20,12z"/><path d="M15.9,6L15,3V2c0-0.55-0.45-1-1-1h0c-0.55,0-1,0.45-1,1v1h-2.03V2c0-0.55-0.45-1-1-1h0c-0.55,0-1,0.45-1,1v1.12L8.1,6 H15.9z"/></g></g></svg>