<svg xmlns="http://www.w3.org/2000/svg" enable-background="new 0 0 24 24" height="24" viewBox="0 0 24 24" width="24"><g><rect fill="none" height="24" width="24"/><rect fill="none" height="24" width="24"/></g><g><path d="M20,4H4C2.89,4,2,4.9,2,6v12c0,1.1,0.89,2,2,2h16c1.1,0,2-0.9,2-2V6C22,4.9,21.11,4,20,4z M20,18H4V8h16V18z M12,16 c0-0.55,0.45-1,1-1h4c0.55,0,1,0.45,1,1c0,0.55-0.45,1-1,1h-4C12.45,17,12,16.55,12,16z M6.79,9.71c0.39-0.39,1.02-0.39,1.41,0 l2.59,2.59c0.39,0.39,0.39,1.02,0,1.41l-2.59,2.59c-0.39,0.39-1.02,0.39-1.41,0c-0.39-0.39-0.39-1.02,0-1.41L8.67,13l-1.88-1.88 C6.4,10.73,6.4,10.1,6.79,9.71z"/></g></svg>