<svg xmlns="http://www.w3.org/2000/svg" enable-background="new 0 0 24 24" height="24" viewBox="0 0 24 24" width="24"><g><rect fill="none" height="24" width="24"/><path d="M14.17,3H5C3.9,3,3,3.9,3,5v14c0,1.1,0.9,2,2,2h14c1.1,0,2-0.9,2-2V9.83c0-0.53-0.21-1.04-0.59-1.41l-4.83-4.83 C15.21,3.21,14.7,3,14.17,3L14.17,3z M8,15h8c0.55,0,1,0.45,1,1v0c0,0.55-0.45,1-1,1H8c-0.55,0-1-0.45-1-1v0C7,15.45,7.45,15,8,15z M8,11h8c0.55,0,1,0.45,1,1v0c0,0.55-0.45,1-1,1H8c-0.55,0-1-0.45-1-1v0C7,11.45,7.45,11,8,11z M8,7h5c0.55,0,1,0.45,1,1v0 c0,0.55-0.45,1-1,1H8C7.45,9,7,8.55,7,8v0C7,7.45,7.45,7,8,7z"/></g></svg>