<svg xmlns="http://www.w3.org/2000/svg" enable-background="new 0 0 24 24" height="24" viewBox="0 0 24 24" width="24"><g><rect fill="none" height="24" width="24"/></g><g><g><path d="M17.92,7.02C17.45,4.18,14.97,2,12,2C9.82,2,7.83,3.18,6.78,5.06C4.09,5.41,2,7.74,2,10.5C2,13.53,4.47,16,7.5,16h10 c2.48,0,4.5-2.02,4.5-4.5C22,9.16,20.21,7.23,17.92,7.02z"/><polygon points="14.8,17 11.9,20.32 13.9,21.32 11.55,24 14.2,24 17.1,20.68 15.1,19.68 17.45,17"/><polygon points="8.8,17 5.9,20.32 7.9,21.32 5.55,24 8.2,24 11.1,20.68 9.1,19.68 11.45,17"/></g></g></svg>