<svg xmlns="http://www.w3.org/2000/svg" enable-background="new 0 0 24 24" height="24" viewBox="0 0 24 24" width="24"><rect fill="none" height="24" width="24" y="0"/><path d="M7,20h4c0,1.1-0.9,2-2,2S7,21.1,7,20z M5,18c0,0.55,0.45,1,1,1h6c0.55,0,1-0.45,1-1s-0.45-1-1-1H6C5.45,17,5,17.45,5,18z M16.5,9.5c0,3.82-2.66,5.86-3.77,6.5H5.27C4.16,15.36,1.5,13.32,1.5,9.5C1.5,5.36,4.86,2,9,2S16.5,5.36,16.5,9.5z M21.37,7.37L20,8 l1.37,0.63L22,10l0.63-1.37L24,8l-1.37-0.63L22,6L21.37,7.37z M19,6l0.94-2.06L22,3l-2.06-0.94L19,0l-0.94,2.06L16,3l2.06,0.94L19,6 z"/></svg>