<svg xmlns="http://www.w3.org/2000/svg" enable-background="new 0 0 24 24" height="24" viewBox="0 0 24 24" width="24"><g><rect fill="none" height="24" width="24" x="0"/><path d="M15,4L15,4c0.55,0,1,0.45,1,1v0c0,0.55-0.45,1-1,1h0c-0.55,0-1-0.45-1-1v0C14,4.45,14.45,4,15,4z M14,7L14,7 c0.55,0,1,0.45,1,1v0c0,0.55-0.45,1-1,1h0c-0.55,0-1-0.45-1-1v0C13,7.45,13.45,7,14,7z M12,4L12,4c0.55,0,1,0.45,1,1v0 c0,0.55-0.45,1-1,1h0c-0.55,0-1-0.45-1-1v0C11,4.45,11.45,4,12,4z M17,9L17,9c-0.55,0-1-0.45-1-1v0c0-0.55,0.45-1,1-1h0 c0.55,0,1,0.45,1,1v0C18,8.55,17.55,9,17,9z M18,6L18,6c-0.55,0-1-0.45-1-1v0c0-0.55,0.45-1,1-1h0c0.55,0,1,0.45,1,1v0 C19,5.55,18.55,6,18,6z M20,9L20,9c-0.55,0-1-0.45-1-1v0c0-0.55,0.45-1,1-1h0c0.55,0,1,0.45,1,1v0C21,8.55,20.55,9,20,9z M21,6 L21,6c-0.55,0-1-0.45-1-1v0c0-0.55,0.45-1,1-1h0c0.55,0,1,0.45,1,1v0C22,5.55,21.55,6,21,6z M14.62,14.38L12.1,16.9 c-2.5-1.43-4.57-3.5-6-6l2.52-2.52C8.86,8.14,8.96,7.8,8.9,7.48L8.16,3.8C8.07,3.34,7.66,3,7.18,3H3.03C2.47,3,2,3.47,2.03,4.03 C2.2,6.92,3.05,9.63,4.43,12c1.58,2.73,3.85,4.99,6.57,6.57c2.37,1.37,5.08,2.23,7.97,2.4c0.56,0.03,1.03-0.44,1.03-1v-4.15 c0-0.48-0.34-0.89-0.8-0.98l-3.67-0.73C15.2,14.04,14.86,14.14,14.62,14.38z M15,10L15,10c0.55,0,1,0.45,1,1v0c0,0.55-0.45,1-1,1h0 c-0.55,0-1-0.45-1-1v0C14,10.45,14.45,10,15,10z M12,10L12,10c0.55,0,1,0.45,1,1v0c0,0.55-0.45,1-1,1h0c-0.55,0-1-0.45-1-1v0 C11,10.45,11.45,10,12,10z M18,12L18,12c-0.55,0-1-0.45-1-1v0c0-0.55,0.45-1,1-1h0c0.55,0,1,0.45,1,1v0C19,11.55,18.55,12,18,12z M21,12L21,12c-0.55,0-1-0.45-1-1v0c0-0.55,0.45-1,1-1h0c0.55,0,1,0.45,1,1v0C22,11.55,21.55,12,21,12z"/></g></svg>