<svg xmlns="http://www.w3.org/2000/svg" enable-background="new 0 0 24 24" height="24" viewBox="0 0 24 24" width="24"><g><rect fill="none" height="24" width="24"/><rect fill="none" height="24" width="24"/></g><g><path d="M8,6.83l0.88,0.88c0.39,0.39,1.02,0.39,1.41,0c0.39-0.39,0.39-1.02,0-1.41L7.71,3.71c-0.39-0.39-1.02-0.39-1.41,0 L3.71,6.29c-0.39,0.39-0.39,1.02,0,1.41c0.39,0.39,1.02,0.39,1.41,0L6,6.83V13c0,1.1,0.9,2,2,2h8v5c0,0.55,0.45,1,1,1h0 c0.55,0,1-0.45,1-1v-5c0-1.1-0.9-2-2-2H8V6.83L8,6.83z"/></g></svg>