<svg xmlns="http://www.w3.org/2000/svg" enable-background="new 0 0 24 24" height="24" viewBox="0 0 24 24" width="24"><g><rect fill="none" height="24" width="24"/><rect fill="none" height="24" width="24"/></g><g><path d="M20.29,12.29c-0.39-0.39-1.02-0.39-1.41,0L18,13.17V9c0-3.31-2.69-6-6-6S6,5.69,6,9v11c0,0.55,0.45,1,1,1s1-0.45,1-1V9 c0-2.21,1.79-4,4-4s4,1.79,4,4v4.17l-0.88-0.88c-0.39-0.39-1.02-0.39-1.41,0c-0.39,0.39-0.39,1.02,0,1.41l2.59,2.59 c0.39,0.39,1.02,0.39,1.41,0l2.59-2.59C20.68,13.32,20.68,12.68,20.29,12.29z"/></g></svg>