<svg xmlns="http://www.w3.org/2000/svg" enable-background="new 0 0 24 24" height="24" viewBox="0 0 24 24" width="24"><g><rect fill="none" height="24" width="24" x="0"/></g><g><g><g><path d="M21,10.12h-6.78l2.74-2.82c-2.73-2.7-7.15-2.8-9.88-0.1c-2.73,2.71-2.73,7.08,0,9.79s7.15,2.71,9.88,0 C18.32,15.65,19,14.08,19,12.1h2c0,1.98-0.88,4.55-2.64,6.29c-3.51,3.48-9.21,3.48-12.72,0c-3.5-3.47-3.53-9.11-0.02-12.58 s9.14-3.47,12.65,0L21,3V10.12z M12.5,8v4.25l3.5,2.08l-0.72,1.21L11,13V8H12.5z"/></g></g></g></svg>