<svg xmlns="http://www.w3.org/2000/svg" height="24" viewBox="0 0 24 24" width="24"><path d="M0 0h24v24H0V0z" fill="none"/><path d="M1 15c.55 0 1-.45 1-1v-4c0-.55-.45-1-1-1s-1 .45-1 1v4c0 .55.45 1 1 1zm3 2c.55 0 1-.45 1-1V8c0-.55-.45-1-1-1s-1 .45-1 1v8c0 .55.45 1 1 1zm18-7v4c0 .55.45 1 1 1s1-.45 1-1v-4c0-.55-.45-1-1-1s-1 .45-1 1zm-2 7c.55 0 1-.45 1-1V8c0-.55-.45-1-1-1s-1 .45-1 1v8c0 .55.45 1 1 1zM16.5 3h-9C6.67 3 6 3.67 6 4.5v15c0 .83.67 1.5 1.5 1.5h9c.83 0 1.5-.67 1.5-1.5v-15c0-.83-.67-1.5-1.5-1.5zM16 19H8V5h8v14z"/></svg>