<svg xmlns="http://www.w3.org/2000/svg" enable-background="new 0 0 24 24" height="24" viewBox="0 0 24 24" width="24"><g><rect fill="none" height="24" width="24"/></g><g><path d="M18,10.48V6c0-1.1-0.9-2-2-2H4C2.9,4,2,4.9,2,6v12c0,1.1,0.9,2,2,2h12c1.1,0,2-0.9,2-2v-4.48l3.15,3.13 C21.46,16.97,22,16.74,22,16.3V7.7c0-0.44-0.54-0.67-0.85-0.35L18,10.48z M10,8c1.1,0,2,0.9,2,2s-0.9,2-2,2s-2-0.9-2-2S8.9,8,10,8z M14,16H6v-0.57c0-0.81,0.48-1.53,1.22-1.85C8.07,13.21,9.01,13,10,13c0.99,0,1.93,0.21,2.78,0.58C13.52,13.9,14,14.62,14,15.43V16 z"/></g></svg>