<svg xmlns="http://www.w3.org/2000/svg" enable-background="new 0 0 24 24" height="24" viewBox="0 0 24 24" width="24"><g><rect fill="none" height="24" width="24"/></g><g><path d="M18,10.48V6c0-1.1-0.9-2-2-2H4C2.9,4,2,4.9,2,6v12c0,1.1,0.9,2,2,2h12c1.1,0,2-0.9,2-2v-4.48l3.15,3.13 C21.46,16.97,22,16.74,22,16.3V7.7c0-0.44-0.54-0.67-0.85-0.35L18,10.48z M5.6,15.2l1.38-1.83c0.2-0.27,0.6-0.27,0.8,0L9,15 l2.23-2.97c0.2-0.27,0.6-0.27,0.8,0l2.38,3.17c0.25,0.33,0.01,0.8-0.4,0.8H6C5.59,16,5.35,15.53,5.6,15.2z"/></g></svg>