<svg xmlns="http://www.w3.org/2000/svg" enable-background="new 0 0 24 24" height="24" viewBox="0 0 24 24" width="24"><g><rect fill="none" height="24" width="24"/></g><g><g><path d="M4,18h16V6H4V18z M12.5,7.5h4v4h-4V7.5z M12.5,12.5h4v4h-4V12.5z M7.5,7.5h4v4h-4V7.5z M7.5,12.5h4v4h-4 V12.5z" opacity=".3"/><path d="M20,4H4C2.9,4,2,4.9,2,6v12c0,1.1,0.9,2,2,2h16c1.1,0,2-0.9,2-2V6C22,4.9,21.1,4,20,4z M20,18H4V6h16V18z"/><rect height="4" width="4" x="7.5" y="7.5"/><rect height="4" width="4" x="12.5" y="7.5"/><rect height="4" width="4" x="7.5" y="12.5"/><rect height="4" width="4" x="12.5" y="12.5"/></g></g></svg>