<svg xmlns="http://www.w3.org/2000/svg" enable-background="new 0 0 24 24" height="24" viewBox="0 0 24 24" width="24"><rect fill="none" height="24" width="24"/><path d="M4,14h2c0.55,0,1-0.45,1-1v-2c0-0.55-0.45-1-1-1H4c-0.55,0-1,0.45-1,1v2C3,13.55,3.45,14,4,14z M4,19h2c0.55,0,1-0.45,1-1 v-2c0-0.55-0.45-1-1-1H4c-0.55,0-1,0.45-1,1v2C3,18.55,3.45,19,4,19z M4,9h2c0.55,0,1-0.45,1-1V6c0-0.55-0.45-1-1-1H4 C3.45,5,3,5.45,3,6v2C3,8.55,3.45,9,4,9z M9,14h11c0.55,0,1-0.45,1-1v-2c0-0.55-0.45-1-1-1H9c-0.55,0-1,0.45-1,1v2 C8,13.55,8.45,14,9,14z M9,19h11c0.55,0,1-0.45,1-1v-2c0-0.55-0.45-1-1-1H9c-0.55,0-1,0.45-1,1v2C8,18.55,8.45,19,9,19z M8,6v2 c0,0.55,0.45,1,1,1h11c0.55,0,1-0.45,1-1V6c0-0.55-0.45-1-1-1H9C8.45,5,8,5.45,8,6z"/></svg>