<svg xmlns="http://www.w3.org/2000/svg" enable-background="new 0 0 24 24" height="24" viewBox="0 0 24 24" width="24"><g><rect fill="none" height="24" width="24"/></g><g><g><path d="M2,4v16h20V4H2z M6.5,18H4v-2.5h2.5V18z M6.5,13.25H4v-2.5h2.5V13.25z M6.5,8.5H4V6h2.5V8.5z M11,18H8.5v-2.5H11V18z M11,13.25H8.5v-2.5H11V13.25z M11,8.5H8.5V6H11V8.5z M15.5,18H13v-2.5h2.5V18z M15.5,13.25H13v-2.5h2.5V13.25z M15.5,8.5H13V6 h2.5V8.5z M20,18h-2.5v-2.5H20V18z M20,13.25h-2.5v-2.5H20V13.25z M20,8.5h-2.5V6H20V8.5z"/></g></g></svg>