<svg xmlns="http://www.w3.org/2000/svg" enable-background="new 0 0 24 24" height="24" viewBox="0 0 24 24" width="24"><g><rect fill="none" height="24" width="24"/><rect fill="none" height="24" width="24"/></g><g><g><path d="M20,4H4C2.9,4,2,4.9,2,6v12c0,1.1,0.9,2,2,2h16c1.1,0,2-0.9,2-2V6C22,4.9,21.1,4,20,4z M10.75,16.75h-3 c-0.28,0-0.5-0.22-0.5-0.5v-3c0-0.28,0.22-0.5,0.5-0.5h3c0.28,0,0.5,0.22,0.5,0.5v3C11.25,16.53,11.03,16.75,10.75,16.75z M10.75,11.25h-3c-0.28,0-0.5-0.22-0.5-0.5v-3c0-0.28,0.22-0.5,0.5-0.5h3c0.28,0,0.5,0.22,0.5,0.5v3 C11.25,11.03,11.03,11.25,10.75,11.25z M16.25,16.75h-3c-0.28,0-0.5-0.22-0.5-0.5v-3c0-0.28,0.22-0.5,0.5-0.5h3 c0.28,0,0.5,0.22,0.5,0.5v3C16.75,16.53,16.53,16.75,16.25,16.75z M16.25,11.25h-3c-0.28,0-0.5-0.22-0.5-0.5v-3 c0-0.28,0.22-0.5,0.5-0.5h3c0.28,0,0.5,0.22,0.5,0.5v3C16.75,11.03,16.53,11.25,16.25,11.25z"/></g></g></svg>