<svg xmlns="http://www.w3.org/2000/svg" enable-background="new 0 0 24 24" height="24" viewBox="0 0 24 24" width="24"><g><rect fill="none" height="24" width="24"/><rect fill="none" height="24" width="24"/></g><g><path d="M19,3H5C3.9,3,3,3.9,3,5v14c0,1.1,0.9,2,2,2h14c1.1,0,2-0.9,2-2V5C21,3.9,20.1,3,19,3z M8,17L8,17c-0.55,0-1-0.45-1-1V8 c0-0.55,0.45-1,1-1h0c0.55,0,1,0.45,1,1v8C9,16.55,8.55,17,8,17z M12,12L12,12c-0.55,0-1-0.45-1-1V8c0-0.55,0.45-1,1-1h0 c0.55,0,1,0.45,1,1v3C13,11.55,12.55,12,12,12z M16,15L16,15c-0.55,0-1-0.45-1-1V8c0-0.55,0.45-1,1-1h0c0.55,0,1,0.45,1,1v6 C17,14.55,16.55,15,16,15z"/></g></svg>