<svg xmlns="http://www.w3.org/2000/svg" enable-background="new 0 0 24 24" height="24" viewBox="0 0 24 24" width="24"><g><path d="M0,0h24v24H0V0z" fill="none"/></g><g><g><path d="M16.49,4.5c1.79,0,3.42,0.73,4.59,1.91l1.06-1.06C20.7,3.9,18.7,3,16.49,3c-2.21,0-4.21,0.9-5.66,2.34 l1.06,1.06C13.08,5.23,14.7,4.5,16.49,4.5z" fill-opacity=".3"/><path d="M16.49,6c-1.38,0-2.63,0.56-3.54,1.46l1.06,1.06c0.63-0.63,1.51-1.03,2.47-1.03s1.84,0.39,2.47,1.03 l1.06-1.06C19.12,6.56,17.87,6,16.49,6z" fill-opacity=".3"/><path d="M16.49,9c-0.55,0-1.05,0.22-1.41,0.59L16.49,11l1.41-1.41C17.54,9.22,17.04,9,16.49,9z"/><path d="M21,15l-5-1l-2.9,2.9c-2.5-1.43-4.57-3.5-6-6L10,8L9,3L3,3c0,3.28,0.89,6.35,2.43,9c1.58,2.73,3.85,4.99,6.57,6.57 c2.65,1.53,5.72,2.43,9,2.43L21,15z"/></g></g></svg>