<svg xmlns="http://www.w3.org/2000/svg" enable-background="new 0 0 24 24" height="24" viewBox="0 0 24 24" width="24"><g><rect fill="none" height="24" width="24"/></g><g><g><g><path d="M11,14c0-3.36,2.64-6,6-6c2.2,0,4.08,1.13,5.13,2.86L24,8.98C20.93,5.9,16.69,4,12,4C7.31,4,3.07,5.9,0,8.98L12,21 l1.86-1.87C12.14,18.09,11,16.2,11,14z"/></g><g><path d="M21,14c0-2.24-1.76-4-4-4s-4,1.76-4,4c0,2.24,1.76,4,4,4c0.75,0,1.44-0.21,2.03-0.56L21.59,20L23,18.59l-2.56-2.56 C20.79,15.44,21,14.75,21,14z M15,14c0-1.12,0.88-2,2-2s2,0.88,2,2c0,1.12-0.88,2-2,2S15,15.12,15,14z"/></g></g></g></svg>