<svg xmlns="http://www.w3.org/2000/svg" height="24" viewBox="0 -960 960 960" width="24"><path d="M240-120q-66 0-113-47T80-280q0-66 47-113t113-47q66 0 113 47t47 113q0 66-47 113t-113 47Zm480 0q-66 0-113-47t-47-113q0-66 47-113t113-47q66 0 113 47t47 113q0 66-47 113t-113 47Zm-480-80q33 0 56.5-23.5T320-280q0-33-23.5-56.5T240-360q-33 0-56.5 23.5T160-280q0 33 23.5 56.5T240-200Zm480 0q33 0 56.5-23.5T800-280q0-33-23.5-56.5T720-360q-33 0-56.5 23.5T640-280q0 33 23.5 56.5T720-200ZM480-520q-66 0-113-47t-47-113q0-66 47-113t113-47q66 0 113 47t47 113q0 66-47 113t-113 47Zm0-80q33 0 56.5-23.5T560-680q0-33-23.5-56.5T480-760q-33 0-56.5 23.5T400-680q0 33 23.5 56.5T480-600Zm0-80Zm240 400Zm-480 0Z"/></svg>