<svg xmlns="http://www.w3.org/2000/svg" enable-background="new 0 0 24 24" height="24" viewBox="0 0 24 24" width="24"><g><rect fill="none" height="24" width="24"/></g><g><g><path d="M14,10V3.26C13.35,3.09,12.68,3,12,3c-4.2,0-8,3.22-8,8.2c0,3.32,2.67,7.25,8,11.8c5.33-4.55,8-8.48,8-11.8 c0-0.41-0.04-0.81-0.09-1.2H14z M12,13c-1.1,0-2-0.9-2-2c0-1.1,0.9-2,2-2s2,0.9,2,2C14,12.1,13.1,13,12,13z"/><polygon points="22.54,2.88 21.12,1.46 19,3.59 16.88,1.46 15.46,2.88 17.59,5 15.46,7.12 16.88,8.54 19,6.41 21.12,8.54 22.54,7.12 20.41,5"/></g></g></svg>