<svg xmlns="http://www.w3.org/2000/svg" width="120" height="102" fill="none"><g stroke="#F5FAFF" clip-path="url(#a)"><path d="M120 0 90 17l30 17m0-34 30 17-30 17m0-34v34M120 34 90 51l30 17m0-34 30 17-30 17m0-34v34M120 68 90 85l30 17m0-34 30 17-30 17m0-34v34M0 68l-30 17 30 17m0-34 30 17-30 17m0-34v34M0 34l-30 17L0 68m0-34 30 17L0 68m0-34v34M0 0l-30 17L0 34M0 0l30 17L0 34M0 0v34"/><path d="M90 0 60 17l30 17m0-34 30 17-30 17m0-34v34"/><path d="M90 17 60 34l30 17m0-34 30 17-30 17m0-34v34"/><path d="M90 34 60 51l30 17m0-34 30 17-30 17m0-34v34"/><path d="M90 51 60 68l30 17m0-34 30 17-30 17m0-34v34"/><path d="M90 68 60 85l30 17m0-34 30 17-30 17m0-34v34"/><path d="M60 68 30 85l30 17m0-34 30 17-30 17m0-34v34M60 34 30 51l30 17m0-34 30 17-30 17m0-34v34M60 0 30 17l30 17m0-34 30 17-30 17m0-34v34"/><path d="M60 0 30 17l30 17m0-34 30 17-30 17m0-34v34"/><path d="M60 17 30 34l30 17m0-34 30 17-30 17m0-34v34"/><path d="M60 34 30 51l30 17m0-34 30 17-30 17m0-34v34"/><path d="M60 51 30 68l30 17m0-34 30 17-30 17m0-34v34"/><path d="M60 68 30 85l30 17m0-34 30 17-30 17m0-34v34"/><path d="M30 68 0 85l30 17m0-34 30 17-30 17m0-34v34M30 34 0 51l30 17m0-34 30 17-30 17m0-34v34M30 0 0 17l30 17m0-34 30 17-30 17m0-34v34M90 0 60 17l30 17m0-34 30 17-30 17m0-34v34M90 34 60 51l30 17m0-34 30 17-30 17m0-34v34M90 68 60 85l30 17m0-34 30 17-30 17m0-34v34"/><path d="M30 0 0 17l30 17m0-34 30 17-30 17m0-34v34"/><path d="M30 17 0 34l30 17m0-34 30 17-30 17m0-34v34"/><path d="M30 34 0 51l30 17m0-34 30 17-30 17m0-34v34"/><path d="M30 51 0 68l30 17m0-34 30 17-30 17m0-34v34"/><path d="M30 68 0 85l30 17m0-34 30 17-30 17m0-34v34M60 0 30 17l30 17m0-34 30 17-30 17m0-34v34M60 34 30 51l30 17m0-34 30 17-30 17m0-34v34"/><path d="M60 68 30 85l30 17m0-34 30 17-30 17m0-34v34"/></g><defs><clipPath id="a"><path fill="#fff" d="M0 0h120v102H0z"/></clipPath></defs></svg>