<svg width="56" height="32" viewBox="0 0 56 32" fill="none" stroke-opacity="0.01" xmlns="http://www.w3.org/2000/svg">
<g clip-path="url(#clip0_6525_145680)">
<path d="M35 -4L28 0L35 4M35 -4L42 0L35 4M35 -4V4" stroke="#99CCF3" stroke-width="0.5"/>
<path d="M42 0L35 4L42 8M42 0L49 4L42 8M42 0V8" stroke="#99CCF3" stroke-width="0.5"/>
<path d="M49 -4L42 0L49 4M49 -4L56 0L49 4M49 -4V4" stroke="#99CCF3" stroke-width="0.5"/>
<path d="M7 12L0 16L7 20M7 12L14 16L7 20M7 12V20" stroke="#99CCF3" stroke-width="0.5"/>
<path d="M35 12L28 16L35 20M35 12L42 16L35 20M35 12V20" stroke="#99CCF3" stroke-width="0.5"/>
<path d="M21 4L14 8L21 12M21 4L28 8L21 12M21 4V12" stroke="#99CCF3" stroke-width="0.5"/>
<path d="M14 16L7 20L14 24M14 16L21 20L14 24M14 16V24" stroke="#99CCF3" stroke-width="0.5"/>
<path d="M42 16L35 20L42 24M42 16L49 20L42 24M42 16V24" stroke="#99CCF3" stroke-width="0.5"/>
<path d="M28 8L21 12L28 16M28 8L35 12L28 16M28 8V16" stroke="#99CCF3" stroke-width="0.5"/>
<path d="M14 8L7 12L14 16M14 8L21 12L14 16M14 8V16" stroke="#99CCF3" stroke-width="0.5"/>
<path d="M42 8L35 12L42 16M42 8L49 12L42 16M42 8V16" stroke="#99CCF3" stroke-width="0.5"/>
<path d="M28 0L21 4L28 8M28 0L35 4L28 8M28 0V8" stroke="#99CCF3" stroke-width="0.5"/>
<path d="M21 12L14 16L21 20M21 12L28 16L21 20M21 12V20" stroke="#99CCF3" stroke-width="0.5"/>
<path d="M49 12L42 16L49 20M49 12L56 16L49 20M49 12V20" stroke="#99CCF3" stroke-width="0.5"/>
<path d="M35 4L28 8L35 12M35 4L42 8L35 12M35 4V12" stroke="#99CCF3" stroke-width="0.5"/>
<path d="M49 4L42 8L49 12M49 4L56 8L49 12M49 4V12" stroke="#99CCF3" stroke-width="0.5"/>
<path d="M49 20L42 24L49 28M49 20L56 24L49 28M49 20V28" stroke="#99CCF3" stroke-width="0.5"/>
<path d="M42 24L35 28L42 32M42 24L49 28L42 32M42 24V32" stroke="#99CCF3" stroke-width="0.5"/>
<path d="M14 24L7 28L14 32M14 24L21 28L14 32M14 24V32" stroke="#99CCF3" stroke-width="0.5"/>
<path d="M7 20L0 24L7 28M7 20L14 24L7 28M7 20V28" stroke="#99CCF3" stroke-width="0.5"/>
<path d="M7 4L0 8L7 12M7 4L14 8L7 12M7 4V12" stroke="#99CCF3" stroke-width="0.5"/>
<path d="M7 -4L0 0L7 4M7 -4L14 0L7 4M7 -4V4" stroke="#99CCF3" stroke-width="0.5"/>
<path d="M21 -4L14 0L21 4M21 -4L28 0L21 4M21 -4V4" stroke="#99CCF3" stroke-width="0.5"/>
<path d="M14 0L7 4L14 8M14 0L21 4L14 8M14 0V8" stroke="#99CCF3" stroke-width="0.5"/>
<path d="M28 16L21 20L28 24M28 16L35 20L28 24M28 16V24" stroke="#99CCF3" stroke-width="0.5"/>
<path d="M21 20L14 24L21 28M21 20L28 24L21 28M21 20V28" stroke="#99CCF3" stroke-width="0.5"/>
<path d="M28 24L21 28L28 32M28 24L35 28L28 32M28 24V32" stroke="#99CCF3" stroke-width="0.5"/>
<path d="M35 20L28 24L35 28M35 20L42 24L35 28M35 20V28" stroke="#99CCF3" stroke-width="0.5"/>
<path d="M35 28L28 32L35 36M35 28L42 32L35 36M35 28V36" stroke="#99CCF3" stroke-width="0.5"/>
<path d="M49 28L42 32L49 36M49 28L56 32L49 36M49 28V36" stroke="#99CCF3" stroke-width="0.5"/>
<path d="M21 28L14 32L21 36M21 28L28 32L21 36M21 28V36" stroke="#99CCF3" stroke-width="0.5"/>
<path d="M7 28L0 32L7 36M7 28L14 32L7 36M7 28V36" stroke="#99CCF3" stroke-width="0.5"/>
<path d="M14 8L0 16L14 24M14 8L28 16L14 24M14 8V24" stroke="#99CCF3" stroke-width="0.5"/>
<path d="M28 0L14 8L28 16M28 0L42 8L28 16M28 0V16" stroke="#99CCF3" stroke-width="0.5"/>
<path d="M42 8L28 16L42 24M42 8L56 16L42 24M42 8V24" stroke="#99CCF3" stroke-width="0.5"/>
<path d="M28 16L14 24L28 32M28 16L42 24L28 32M28 16V32" stroke="#99CCF3" stroke-width="0.5"/>
<path d="M14 24L0 32L14 40M14 24L28 32L14 40M14 24V40" stroke="#99CCF3" stroke-width="0.5"/>
<path d="M0 16L-14 24L0 32M0 16L14 24L0 32M0 16V32" stroke="#99CCF3" stroke-width="0.5"/>
<path d="M0 0L-14 8L0 16M0 0L14 8L0 16M0 0V16" stroke="#99CCF3" stroke-width="0.5"/>
<path d="M14 -8L0 0L14 8M14 -8L28 0L14 8M14 -8V8" stroke="#99CCF3" stroke-width="0.5"/>
<path d="M42 -8L28 0L42 8M42 -8L56 0L42 8M42 -8V8" stroke="#99CCF3" stroke-width="0.5"/>
<path d="M56 0L42 8L56 16M56 0L70 8L56 16M56 0V16" stroke="#99CCF3" stroke-width="0.5"/>
<path d="M56 16L42 24L56 32M56 16L70 24L56 32M56 16V32" stroke="#99CCF3" stroke-width="0.5"/>
<path d="M42 24L28 32L42 40M42 24L56 32L42 40M42 24V40" stroke="#99CCF3" stroke-width="0.5"/>
<path d="M28 0L0 16L28 32M28 0L56 16L28 32M28 0V32" stroke="#99CCF3" stroke-width="0.5"/>
</g>
<defs>
<clipPath id="clip0_6525_145680">
<rect width="56" height="32" fill="white"/>
</clipPath>
</defs>
</svg>
