<svg width="120" height="120" viewBox="0 0 120 120" fill="none" xmlns="http://www.w3.org/2000/svg">
<path fill-rule="evenodd" clip-rule="evenodd" d="M120 25.7063L75.0088 51.3082L30.0177 25.7063L75.0088 0.104492L120 25.7063Z" fill="white"/>
<path fill-rule="evenodd" clip-rule="evenodd" d="M75.0098 51.3081V102.512L30.0186 76.91V25.7063L75.0098 51.3081Z" fill="#EEF1F4"/>
<path fill-rule="evenodd" clip-rule="evenodd" d="M120 76.9102L75.0088 102.512V51.3084L120 25.7065V76.9102Z" fill="#D7DCE1"/>
<path fill-rule="evenodd" clip-rule="evenodd" d="M15.0216 68.3759V85.4439L45.0156 102.512V119.58L0.0244637 93.9778V59.842L15.0216 68.3759Z" fill="#EEF1F4"/>
<path fill-rule="evenodd" clip-rule="evenodd" d="M75.0078 102.512L45.0138 119.58V102.512L75.0078 85.4441V102.512Z" fill="#D7DCE1"/>
<path fill-rule="evenodd" clip-rule="evenodd" d="M45.0138 68.376L15.0197 85.4439L45.0138 102.512L75.0078 85.4439L45.0138 68.376Z" fill="white"/>
<path fill-rule="evenodd" clip-rule="evenodd" d="M45.0156 51.3081L15.0216 68.3759V85.4438L45.0156 68.3759V51.3081Z" fill="#D7DCE1"/>
<path fill-rule="evenodd" clip-rule="evenodd" d="M30.0185 42.7742L0.0244637 59.8421L15.0214 68.376L45.0156 51.3081L30.0185 42.7742Z" fill="white"/>
</svg>
