<svg width="207" height="173" xmlns="http://www.w3.org/2000/svg"><g fill="none" fill-rule="evenodd"><path fill="#FFF" d="M91.92 13.27l68.95 39.8-68.95 39.8-68.94-39.8z"/><path fill="#D7DCE1" d="M91.92 92.88v79.6l68.95-39.8v-79.6z"/><path fill="#E5E8EC" d="M22.98 53.07v79.6l68.94 39.81v-79.6zM0 39.8v26.54l22.98 13.27V53.07z"/><path fill="#D7DCE1" d="M91.92 13.27V39.8L22.98 79.6V53.08z"/><path fill="#FFF" d="M68.94 0L0 39.8l22.98 13.27 68.94-39.8z"/><path fill="#D7DCE1" d="M22.98 159.22l22.98-13.27V119.4l-22.98 13.27z"/><path fill="#E5E8EC" d="M0 119.41l22.98 13.27v26.54L0 145.95z"/><path fill="#FFF" d="M22.98 106.14l22.98 13.27-22.98 13.27L0 119.4z"/><path fill="#D7DCE1" d="M183.98 146.22l22.98-13.27V106.4l-22.98 13.27z"/><path fill="#E5E8EC" d="M161 106.41l22.98 13.27v26.54L161 132.95z"/><path fill="#FFF" d="M183.98 93.14l22.98 13.27-22.98 13.27L161 106.4z"/></g></svg>