<svg width="836" height="773" xmlns="http://www.w3.org/2000/svg"><g fill="#001E3C" stroke="#007FFF" fill-rule="evenodd"><path d="M626 435l125 72-125 72-125-72zM627 579.33V724l125-72.33V507zM501 507v144.67L626 724V579.33zM793 531v48l42-24v-48z"/><path d="M751 507l42 24v48l-42-24zM752 507l41.5 24 41.5-24-41.5-24zM793.33 628v48L710 724v48l125-72v-96zM627 724l83 48v-48l-83-48z"/><path d="M709.5 628l83.5 48-83.5 48-83.5-48zM710 580l83 48v48l-83-48zM710 580l83.33 48L835 604l-83.33-48zM501 218l125 72-125 72-125-72z"/><path d="M501 361.33V506l125-72.33V289zM376 289v144.67L501 506V361.33zM668 362l42-24v-48l-42 24zM626 290l42 24v48l-42-24z"/><path d="M668.5 266l41.5 24-41.5 24-41.5-24zM585 506v48l125-72v-96l-41.67 24v48zM501 459v48l83 48v-48z"/><path d="M584.5 410l83.5 48-83.5 48-83.5-48zM585 362l83 48v48l-83-48zM626.67 338L710 386l-41.67 24L585 362zM376 435l125 72-125 72-125-72zM376 579.33V724l125-72.33V507zM251 507v144.67L376 724V579.33zM543 579l42-24v-48l-42 24zM501 507l42 24v48l-42-24z"/><path d="M542.5 483l41.5 24-41.5 24-41.5-24zM543.33 628v48L460 724v48l125-72v-96zM376 724l83 48v-48l-83-48z"/><path d="M459.5 628l83.5 48-83.5 48-83.5-48zM460 580l83 48v48l-83-48zM501.67 556L585 604l-41.67 24L460 580zM376 1L251 73l125 72 125-72zM376 145.33V290l125-72.33V73z"/><path d="M251 73v144.67L376 290V145.33zM543 145l42-24V73l-42 24zM501 73l42 24v48l-42-24z"/><path d="M542.5 49L584 73l-41.5 24L501 73zM460 290v48l125-72v-96l-41.67 24v48zM376 242v48l83 48v-48z"/><path d="M459.5 194l83.5 48-83.5 48-83.5-48zM460 145l83 48v48l-83-48zM501.67 121L585 169l-41.67 24L460 145zM251 218l125 72-125 72-125-72z"/><path d="M251 361.33V506l125-72.33V289zM126 289v144.67L251 506V361.33zM418 362l42-24v-48l-42 24zM376 290l42 24v48l-42-24z"/><path d="M417.5 266l41.5 24-41.5 24-41.5-24zM334 506v48l125-72v-96l-41.67 24v48zM251 459v48l83 48v-48z"/><path d="M334.5 410l83.5 48-83.5 48-83.5-48zM335 362l83 48v48l-83-48z"/><path d="M375.67 338L459 386l-41.67 24L334 362zM1 507l125 72 125-72-125-72zM126 579.33V724l125-72.33V507zM1 651.67L126 724V579.33L1 507zM292 579l42-24v-48l-42 24z"/><path d="M251 507l42 24v48l-42-24z"/><path d="M292.5 483l41.5 24-41.5 24-41.5-24zM292.33 628v48L209 724v48l125-72v-96zM126 724l83 48v-48l-83-48z"/><path d="M209.5 628l83.5 48-83.5 48-83.5-48z"/><path d="M209 580l83 48v48l-83-48zM250.67 556L334 604l-41.67 24L209 580zM84 266v48l42 24v-48zM251 218v48l-125 72v-48z"/><path d="M209.25 194L84 266l41.75 24L251 218zM126 482l42-24v-48l-42 24zM84 410l42 24v48l-42-24z"/><path d="M125.5 386l41.5 24-41.5 24L84 410zM626 579l42-24v-48l-42 24z"/><path d="M585 507l42 24v48l-42-24z"/><path d="M626.5 483l41.5 24-41.5 24-41.5-24z"/></g></svg>