<svg width="152" height="176" viewBox="0 0 152 176" fill="none" xmlns="http://www.w3.org/2000/svg">
<path fill-rule="evenodd" clip-rule="evenodd" d="M152 55L95 88L38 55L95 22L152 55Z" fill="#334B63"/>
<path fill-rule="evenodd" clip-rule="evenodd" d="M95 88V154L38 121V55L95 88Z" fill="#132F4C"/>
<path fill-rule="evenodd" clip-rule="evenodd" d="M152 121L95 154V88.0001L152 55V121Z" fill="#001E3C"/>
<path fill-rule="evenodd" clip-rule="evenodd" d="M19.0001 110V132L57 154V176L0 143V99L19.0001 110Z" fill="#132F4C"/>
<path fill-rule="evenodd" clip-rule="evenodd" d="M95 154L57 176V154L95 132V154Z" fill="#001E3C"/>
<path fill-rule="evenodd" clip-rule="evenodd" d="M57 110L19 132L57 154L95 132L57 110Z" fill="#334B63"/>
<path fill-rule="evenodd" clip-rule="evenodd" d="M57 88L19 110V132L57 110V88Z" fill="#001E3C"/>
<path fill-rule="evenodd" clip-rule="evenodd" d="M37.9999 77L0 99.0001L18.9998 110L57 87.9999L37.9999 77Z" fill="#334B63"/>
<path fill-rule="evenodd" clip-rule="evenodd" d="M95 44L76 33.0001V11L95 21.9999V44Z" fill="#132F4C"/>
<path fill-rule="evenodd" clip-rule="evenodd" d="M114 11L95 21.9999V44L114 32.9998V11Z" fill="#001E3C"/>
<path fill-rule="evenodd" clip-rule="evenodd" d="M95 0L76 10.9999L95 22L114 10.9999L95 0Z" fill="#334B63"/>
</svg>
