<svg width="128" height="140" viewBox="0 0 128 140" fill="none" xmlns="http://www.w3.org/2000/svg">
<path fill-rule="evenodd" clip-rule="evenodd" d="M55 11.7965L0 43.4458L55 75.0949L110 43.4458L55 11.7965Z" fill="white"/>
<path fill-rule="evenodd" clip-rule="evenodd" d="M55 75.0931V139.396L0 107.245V42.9417L55 75.0931Z" fill="#D7DCE1"/>
<path fill-rule="evenodd" clip-rule="evenodd" d="M110 42.9417V107.245L55 139.396V75.0931L110 42.9417Z" fill="#E5E8EC"/>
<path fill-rule="evenodd" clip-rule="evenodd" d="M128 31.8906V53.3248L110 64.0422V42.6079L128 31.8906Z" fill="#E5E8EC"/>
<path fill-rule="evenodd" clip-rule="evenodd" d="M55 11.7965V33.0967L110 65.0476V43.7471L55 11.7965Z" fill="#D7DCE1"/>
<path fill-rule="evenodd" clip-rule="evenodd" d="M73.2501 0.74292L128 32.392L109.75 42.9419L55 11.2928L73.2501 0.74292Z" fill="white"/>
<path fill-rule="evenodd" clip-rule="evenodd" d="M109.515 128.608L91.0308 117.993V96.7621L109.515 107.377V128.608Z" fill="#D7DCE1"/>
<path fill-rule="evenodd" clip-rule="evenodd" d="M128 96.7621L109.515 107.377V128.608L128 117.993V96.7621Z" fill="#E5E8EC"/>
<path fill-rule="evenodd" clip-rule="evenodd" d="M109.515 86.1458L91.0308 96.7612L109.515 107.376L128 96.7612L109.515 86.1458Z" fill="white"/>
</svg>
