<svg width="144" height="99" viewBox="0 0 144 99" fill="none" xmlns="http://www.w3.org/2000/svg">
<path fill-rule="evenodd" clip-rule="evenodd" d="M68.0001 32.9999V55L106 76.9999V99L49 66V22L68.0001 32.9999Z" fill="#E5E8EC"/>
<path fill-rule="evenodd" clip-rule="evenodd" d="M144 76.9999L106 99V76.9999L144 55V76.9999Z" fill="#D7DCE1"/>
<path fill-rule="evenodd" clip-rule="evenodd" d="M106 33L68 55.0001L106 77L144 55.0001L106 33Z" fill="white"/>
<path fill-rule="evenodd" clip-rule="evenodd" d="M106 11L68 32.9999V55L106 32.9999V11Z" fill="#D7DCE1"/>
<path fill-rule="evenodd" clip-rule="evenodd" d="M86.9999 0L49 22.0001L67.9998 33L106 10.9999L86.9999 0Z" fill="white"/>
<path fill-rule="evenodd" clip-rule="evenodd" d="M17 77L34 67.3332V48L17 57.6666V77Z" fill="#D7DCE1"/>
<path fill-rule="evenodd" clip-rule="evenodd" d="M0 48L17 57.6666V77L0 67.3332V48Z" fill="#E5E8EC"/>
<path fill-rule="evenodd" clip-rule="evenodd" d="M17 38L34 48.0002L17 58L0 48.0002L17 38Z" fill="white"/>
</svg>
