<svg height="120" width="293" xmlns="http://www.w3.org/2000/svg"><g fill="none" fill-rule="evenodd"><path d="M203.92 39.8v26.54l-45.96 26.54v26.53l68.94-39.8V26.54z" fill="#d7dce1"/><path d="M112 92.88l45.96 26.53V92.88L112 66.34z" fill="#e5e8ec"/><path d="M157.96 39.8l45.96 26.54-45.96 26.54L112 66.34z" fill="#fff"/><path d="M157.96 13.27l45.96 26.53v26.54L157.96 39.8z" fill="#e5e8ec"/><path d="M157.96 13.27l45.96 26.53 22.98-13.26L180.94 0z" fill="#fff"/><g><path d="M66 60.27V86.8l22.98 13.27V73.54z" fill="#e5e8ec"/><path d="M157.92 33.73v26.54l-68.94 39.8V73.54z" fill="#d7dce1"/><path d="M134.94 20.46L66 60.26l22.98 13.28 68.94-39.8z" fill="#fff"/></g><g><path d="M269.98 92.54l22.98-13.27V52.73L269.98 66z" fill="#d7dce1"/><path d="M247 52.73L269.98 66v26.54L247 79.27z" fill="#e5e8ec"/><path d="M269.98 39.46l22.98 13.27L269.98 66 247 52.73z" fill="#fff"/></g><g><path d="M22.98 92.54l22.98-13.27V52.73L22.98 66z" fill="#d7dce1"/><path d="M0 52.73L22.98 66v26.54L0 79.27z" fill="#e5e8ec"/><path d="M22.98 39.46l22.98 13.27L22.98 66 0 52.73z" fill="#fff"/></g></g></svg>