<svg width="570" height="526" xmlns="http://www.w3.org/2000/svg"><g fill="none" fill-rule="evenodd"><path fill="#1ED2FF" d="M427.25 295.66l85.46 49.27-85.46 49.28-85.45-49.28z"/><path fill="#001E3C" d="M427.25 394.2v98.56l85.46-49.27v-98.56z"/><path fill="#007DFF" d="M341.8 344.93v98.55l85.45 49.28v-98.55z"/><path fill="#001E3C" d="M541.19 361.36v32.85l28.48-16.43v-32.85z"/><path fill="#007DFF" d="M512.7 344.93l28.49 16.43v32.85l-28.48-16.43z"/><path fill="#1ED2FF" d="M512.7 344.93l28.49 16.43 28.48-16.43-28.48-16.42z"/><path fill="#001E3C" d="M541.19 427.06v32.85l-56.97 32.85v32.85l85.45-49.27v-65.7z"/><path fill="#007DFF" d="M427.25 492.76l56.97 32.85v-32.85l-56.97-32.85z"/><path fill="#1ED2FF" d="M484.22 427.06l56.97 32.85-56.97 32.85-56.97-32.85z"/><path fill="#007DFF" d="M484.22 394.2l56.97 32.86v32.85l-56.97-32.85z"/><path fill="#1ED2FF" d="M484.22 394.2l56.97 32.86 28.48-16.43-56.96-32.85zM341.8 147.83l85.45 49.27-85.45 49.28-85.45-49.28z"/><path fill="#001E3C" d="M341.8 246.38v98.55l85.45-49.27V197.1z"/><path fill="#007DFF" d="M256.35 197.1v98.56l85.45 49.27v-98.55z"/><path fill="#001E3C" d="M455.74 246.38l28.48-16.42V197.1l-28.48 16.43z"/><path fill="#007DFF" d="M427.25 197.1l28.49 16.43v32.85l-28.49-16.42z"/><path fill="#1ED2FF" d="M455.74 180.68l28.48 16.42-28.48 16.43-28.49-16.43z"/><path fill="#001E3C" d="M398.77 344.93v32.85l85.45-49.27v-65.7l-28.48 16.42v32.85z"/><path fill="#007DFF" d="M341.8 312.08v32.85l56.97 32.85v-32.85z"/><path fill="#1ED2FF" d="M398.77 279.23l56.97 32.85-56.97 32.85-56.97-32.85z"/><path fill="#007DFF" d="M398.77 246.38l56.97 32.85v32.85l-56.97-32.85z"/><path fill="#1ED2FF" d="M427.25 229.96l56.97 32.85-28.48 16.42-56.97-32.85zM256.35 295.66l85.45 49.27-85.45 49.28-85.45-49.28z"/><path fill="#001E3C" d="M256.35 394.2v98.56l85.45-49.27v-98.56z"/><path fill="#007DFF" d="M170.9 344.93v98.55l85.45 49.28v-98.55z"/><path fill="#001E3C" d="M370.29 394.2l28.48-16.42v-32.85l-28.48 16.43z"/><path fill="#007DFF" d="M341.8 344.93l28.49 16.43v32.85l-28.49-16.43z"/><path fill="#1ED2FF" d="M370.29 328.5l28.48 16.43-28.48 16.43-28.49-16.43z"/><path fill="#001E3C" d="M370.29 427.06v32.85l-56.97 32.85v32.85l85.45-49.27v-65.7z"/><path fill="#007DFF" d="M256.35 492.76l56.97 32.85v-32.85l-56.97-32.85z"/><path fill="#1ED2FF" d="M313.32 427.06l56.97 32.85-56.97 32.85-56.97-32.85z"/><path fill="#007DFF" d="M313.32 394.2l56.97 32.86v32.85l-56.97-32.85z"/><path fill="#1ED2FF" d="M341.8 377.78l56.97 32.85-28.48 16.43-56.97-32.85zM256.35 0L170.9 49.28l85.45 49.27 85.45-49.27z"/><path fill="#001E3C" d="M256.35 98.55v98.55l85.45-49.27V49.28z"/><path fill="#007DFF" d="M170.9 49.28v98.55l85.45 49.27V98.55z"/><path fill="#001E3C" d="M370.29 98.55l28.48-16.42V49.28L370.3 65.7z"/><path fill="#007DFF" d="M341.8 49.28L370.3 65.7v32.85L341.8 82.13z"/><path fill="#1ED2FF" d="M370.29 32.85l28.48 16.43L370.3 65.7 341.8 49.28z"/><path fill="#001E3C" d="M313.32 197.1v32.86l85.45-49.28v-65.7L370.3 131.4v32.85z"/><path fill="#007DFF" d="M256.35 164.25v32.85l56.97 32.86V197.1z"/><path fill="#1ED2FF" d="M313.32 131.4l56.97 32.85-56.97 32.85-56.97-32.85z"/><path fill="#007DFF" d="M313.32 98.55l56.97 32.85v32.85l-56.97-32.85z"/><path fill="#1ED2FF" d="M341.8 82.13l56.97 32.85-28.48 16.42-56.97-32.85zM170.9 147.83l85.45 49.27-85.45 49.28-85.45-49.28z"/><path fill="#001E3C" d="M170.9 246.38v98.55l85.45-49.27V197.1z"/><path fill="#007DFF" d="M85.45 197.1v98.56l85.45 49.27v-98.55z"/><path fill="#001E3C" d="M284.84 246.38l28.48-16.42V197.1l-28.48 16.43z"/><path fill="#007DFF" d="M256.35 197.1l28.49 16.43v32.85l-28.49-16.42z"/><path fill="#1ED2FF" d="M284.84 180.68l28.48 16.42-28.48 16.43-28.49-16.43z"/><path fill="#001E3C" d="M227.87 344.93v32.85l85.45-49.27v-65.7l-28.48 16.42v32.85z"/><path fill="#007DFF" d="M170.9 312.08v32.85l56.97 32.85v-32.85z"/><path fill="#1ED2FF" d="M227.87 279.23l56.97 32.85-56.97 32.85-56.97-32.85z"/><path fill="#007DFF" d="M227.87 246.38l56.97 32.85v32.85l-56.97-32.85z"/><path fill="#1ED2FF" d="M256.35 229.96l56.97 32.85-28.48 16.42-56.97-32.85zM0 344.93l85.45 49.28 85.45-49.28-85.45-49.27z"/><path fill="#001E3C" d="M85.45 394.2v98.56l85.45-49.27v-98.56z"/><path fill="#007DFF" d="M0 443.48l85.45 49.28v-98.55L0 344.93z"/><path fill="#001E3C" d="M199.39 394.2l28.48-16.42v-32.85l-28.48 16.43z"/><path fill="#007DFF" d="M170.9 344.93l28.49 16.43v32.85l-28.49-16.43z"/><path fill="#1ED2FF" d="M199.39 328.5l28.48 16.43-28.48 16.43-28.49-16.43z"/><path fill="#001E3C" d="M199.39 427.06v32.85l-56.97 32.85v32.85l85.45-49.27v-65.7z"/><path fill="#007DFF" d="M85.45 492.76l56.97 32.85v-32.85l-56.97-32.85z"/><path fill="#1ED2FF" d="M142.42 427.06l56.97 32.85-56.97 32.85-56.97-32.85z"/><path fill="#007DFF" d="M142.42 394.2l56.97 32.86v32.85l-56.97-32.85z"/><path fill="#1ED2FF" d="M170.9 377.78l56.97 32.85-28.48 16.43-56.97-32.85z"/><path fill="#007DFF" d="M56.97 180.68v32.85l28.48 16.43V197.1z"/><path fill="#001E3C" d="M170.9 147.83v32.85l-85.45 49.28V197.1z"/><path fill="#1ED2FF" d="M142.42 131.4l-85.45 49.28 28.48 16.42 85.45-49.27z"/><path fill="#001E3C" d="M85.45 328.5l28.48-16.42v-32.85l-28.48 16.43z"/><path fill="#007DFF" d="M56.97 279.23l28.48 16.43v32.85l-28.48-16.43z"/><path fill="#1ED2FF" d="M85.45 262.8l28.48 16.43-28.48 16.43-28.48-16.43z"/><path fill="#001E3C" d="M427.25 394.2l28.49-16.42v-32.85l-28.49 16.43z"/><path fill="#007DFF" d="M398.77 344.93l28.49 16.43v32.85l-28.49-16.43z"/><path fill="#1ED2FF" d="M427.25 328.5l28.49 16.43-28.49 16.43-28.48-16.43z"/></g></svg>