<svg width="161" height="173" viewBox="0 0 161 173" fill="none" xmlns="http://www.w3.org/2000/svg">
<path fill-rule="evenodd" clip-rule="evenodd" d="M91.9232 13.2681L160.866 53.0719L91.9232 92.8755L22.981 53.0719L91.9232 13.2681Z" fill="white"/>
<path fill-rule="evenodd" clip-rule="evenodd" d="M91.9233 92.8755V172.483L160.866 132.679V53.072L91.9233 92.8755Z" fill="#D7DCE1"/>
<path fill-rule="evenodd" clip-rule="evenodd" d="M22.981 53.072V132.679L91.9232 172.483V92.8755L22.981 53.072Z" fill="#E5E8EC"/>
<path fill-rule="evenodd" clip-rule="evenodd" d="M0 39.8039V66.3396L22.9809 79.6077V53.072L0 39.8039Z" fill="#E5E8EC"/>
<path fill-rule="evenodd" clip-rule="evenodd" d="M91.9232 13.2681V39.8038L22.981 79.6079V53.0719L91.9232 13.2681Z" fill="#D7DCE1"/>
<path fill-rule="evenodd" clip-rule="evenodd" d="M68.9423 0L0 39.8038L22.9809 53.072L91.9231 13.2681L68.9423 0Z" fill="white"/>
<path fill-rule="evenodd" clip-rule="evenodd" d="M22.981 159.216L45.9618 145.947V119.412L22.981 132.68V159.216Z" fill="#D7DCE1"/>
<path fill-rule="evenodd" clip-rule="evenodd" d="M0 119.412L22.9809 132.679V159.215L0 145.947V119.412Z" fill="#E5E8EC"/>
<path fill-rule="evenodd" clip-rule="evenodd" d="M22.9809 106.144L45.9617 119.412L22.9809 132.679L0 119.412L22.9809 106.144Z" fill="white"/>
</svg>
