<svg height="139" width="196" xmlns="http://www.w3.org/2000/svg"><g fill="none" fill-rule="evenodd"><path d="M123.97 97.02v27.72l71.96-41.58V27.72l-23.98 13.86V69.3z" fill="#d7dce1"/><path d="M76 69.3v27.72l47.97 27.72V97.02z" fill="#e5e8ec"/><path d="M123.97 41.58l47.98 27.72-47.98 27.72L76 69.3z" fill="#fff"/><path d="M123.97 13.86l47.98 27.72V69.3l-47.98-27.72z" fill="#e5e8ec"/><path d="M147.96 0l47.97 27.72-23.98 13.86-47.98-27.72z" fill="#fff"/><path d="M99.99 138.6l23.98-13.86V97.02L100 110.88z" fill="#d7dce1"/><path d="M76 97.02l23.99 13.86v27.72L76 124.74z" fill="#e5e8ec"/><path d="M99.99 83.16l23.98 13.86L100 110.88 76 97.02z" fill="#fff"/><g><path d="M22.98 94.07L45.96 80.8V54.27L22.98 67.54z" fill="#d7dce1"/><path d="M0 54.27l22.98 13.27v26.53L0 80.8z" fill="#e5e8ec"/><path d="M22.98 41l22.98 13.27-22.98 13.27L0 54.27z" fill="#fff"/></g></g></svg>