<svg height="120" width="120" xmlns="http://www.w3.org/2000/svg"><g fill="none" fill-rule="evenodd"><path d="M0 25.7l45 25.6 44.98-25.6L45 .1z" fill="#fff"/><path d="M45 51.3v51.21l44.98-25.6v-51.2z" fill="#d7dce1"/><path d="M0 76.91l45 25.6v-51.2L0 25.7z" fill="#eef1f4"/><path d="M104.98 68.38v17.06l-30 17.07v17.07l45-25.6V59.84z" fill="#d7dce1"/><path d="M45 102.51l29.99 17.07v-17.07l-30-17.07z" fill="#eef1f4"/><path d="M74.99 68.38l29.99 17.06-30 17.07L45 85.44z" fill="#fff"/><path d="M74.99 51.3l29.99 17.08v17.06l-30-17.06z" fill="#eef1f4"/><path d="M89.98 42.77l30 17.07-15 8.54-30-17.07z" fill="#fff"/></g></svg>