<svg height="32" width="178" xmlns="http://www.w3.org/2000/svg"><g fill="none" fill-rule="evenodd"><path d="M74.2 8.66c1.7 0 3.17.7 3.95 1.74V8.87h3.3V22.4h-3.3V20.8c-.64 1.08-2.2 1.8-3.89 1.8-4.07 0-6.43-2.84-6.43-6.97s2.36-6.97 6.38-6.97zm26.28 0c4.54 0 6.57 3.3 6.57 6.51 0 .46-.02.86-.05 1.13h-9.97c.24 2.17 1.63 3.57 3.72 3.57 1.7 0 2.8-.7 3.14-1.99h3.22c-.51 2.87-3.03 4.72-6.36 4.72-4.42 0-6.89-3.48-6.89-7.02 0-3.57 2.2-6.92 6.62-6.92zm30.38 0c1.7 0 3.17.7 3.94 1.74V8.87h3.3V22.4h-3.3V20.8c-.64 1.08-2.2 1.8-3.88 1.8-4.08 0-6.44-2.84-6.44-6.97s2.36-6.97 6.38-6.97zm29.16-5.04v12c0 2.58 1.63 3.87 4.02 3.87 2.39 0 4.05-1.29 4.05-3.86V3.62h3.32V15.6c0 4.56-2.97 7-7.37 7-4.37 0-7.37-2.44-7.37-7V3.62zm-109.92 0l5.69 13.86 5.68-13.86h4.08v18.77h-3.33V9.94l-5.1 12.45h-2.67L49.32 9.94V22.4H46V3.62zM89.28 4.8v4.07h3.75v2.76h-3.75v7.78h3.75v2.98H89.5a3.52 3.52 0 01-3.52-3.52v-7.24h-2.66V8.87h2.66V4.8zm23.08 4.07v2.39c.67-1.72 1.72-2.39 3.46-2.39h1.58v2.76h-2.12c-2.09 0-2.92 1.8-2.92 4.37v6.39h-3.3V8.87zm9.98 0V22.4h-3.3V8.87zm22.09-5.79v19.3h-3.27V3.09zm33.53.54v18.77h-3.57V3.62zM74.72 11.5c-2.18 0-3.62 1.64-3.62 4.13 0 2.5 1.44 4.13 3.62 4.13 2.22 0 3.67-1.64 3.67-4.13 0-2.5-1.45-4.13-3.67-4.13zm56.65 0c-2.17 0-3.62 1.64-3.62 4.13 0 2.5 1.45 4.13 3.62 4.13 2.23 0 3.67-1.64 3.67-4.13 0-2.5-1.44-4.13-3.67-4.13zm22.83.97v2.81h-7.09v-2.81zm-53.72-1.35c-1.85 0-3.03.97-3.37 3h6.65a3.1 3.1 0 00-3.28-3zM122.5 3v3.75h-3.65V3z" fill="#001e3c"/><path d="M25.7 0v18.74l-7.69 4.43 5.15 2.93 7.68-4.41.02-6.94L36 11.8v12.83L23.16 32l-10.29-5.89v-5.9l.02.02v-.03l7.69-4.41h-.04l.02-6.95-7.69 4.43-7.7-4.44V21.7L0 18.74.03 0l12.84 7.37zM36 0v6l-5 3V3z" fill="#007fff"/></g></svg>