<svg data-name="Layer 1" xmlns="http://www.w3.org/2000/svg" viewBox="0 0 177.57 31.97"><path d="M45.95 2.95h4.1l5.66 13.83 5.67-13.83h4.07v18.72h-3.32V9.26l-5.08 12.41h-2.68l-5.1-12.41v12.41h-3.32z" fill="#fff"/><path data-name="fullLogo" d="M67.72 14.93c0-4.12 2.35-6.95 6.36-6.95a4.89 4.89 0 013.94 1.73V8.2h3.29v13.48H78v-1.58a4.55 4.55 0 01-3.87 1.8c-4.07 0-6.42-2.84-6.42-6.96zm10.54 0c0-2.49-1.45-4.12-3.67-4.12-2.16 0-3.6 1.63-3.6 4.12s1.44 4.12 3.6 4.12c2.22 0 3.67-1.63 3.67-4.12zM89.11 4.13v4.06h3.75v2.75H89.1v7.76h3.75v2.97h-3.53a3.5 3.5 0 01-3.5-3.5v-7.22h-2.65V8.19h2.64V4.13zM106.9 17.18c-.51 2.86-3.02 4.7-6.34 4.7a6.76 6.76 0 01-6.87-7c0-3.56 2.19-6.9 6.6-6.9a6.2 6.2 0 016.56 6.5c0 .45-.03.85-.06 1.12h-9.95a3.64 3.64 0 003.72 3.56c1.69 0 2.78-.7 3.13-1.98zm-9.98-3.75h6.64a3.1 3.1 0 00-3.27-3 3.16 3.16 0 00-3.37 3zM115.05 10.95c-2.08 0-2.91 1.79-2.91 4.35v6.37h-3.29V8.19h3.29v2.38a3.28 3.28 0 013.45-2.38h1.58v2.75zM122.25 2.33v3.75h-3.64V2.33zM118.8 8.2h3.29v13.48h-3.3zM124.23 14.93c0-4.12 2.35-6.95 6.36-6.95a4.89 4.89 0 013.93 1.73V8.2h3.3v13.48h-3.3v-1.58a4.55 4.55 0 01-3.87 1.8c-4.07 0-6.42-2.84-6.42-6.96zm10.53 0c0-2.49-1.44-4.12-3.66-4.12-2.17 0-3.6 1.63-3.6 4.12s1.43 4.12 3.6 4.12c2.22 0 3.66-1.63 3.66-4.12zM140.86 2.41h3.26v19.26h-3.26zM146.8 11.77h7.07v2.81h-7.07zM156.33 14.9V2.95h3.34v11.98c0 2.57 1.64 3.85 4.02 3.85s4.03-1.28 4.03-3.85V2.95h3.32V14.9c0 4.55-2.97 6.98-7.35 6.98-4.36 0-7.36-2.43-7.36-6.98zM174 2.95h3.57v18.72H174z" fill="#fff"/><g fill="#007fff"><path data-name="logoMark &lt;PathItem&gt;" d="M30.68 14.73l-.02 6.94-7.64 4.4-5.11-2.92 7.64-4.43V0L12.8 7.37.03 0 0 18.72l5.14 2.95V8.83l7.65 4.43 7.65-4.42-.02 6.93h.03l-7.63 4.41v.03l-.03-.01v5.89l10.23 5.88 12.76-7.37V11.8l-5.1 2.95z"/><path data-name="logoMark &lt;PathItem&gt;" d="M35.78 0v5.9l-5.1 2.94v-5.9L35.78 0z"/></g></svg>