<svg width="28" height="28" fill="none" xmlns="http://www.w3.org/2000/svg"><rect width="28" height="28" rx="2" /><path fill-rule="evenodd" clip-rule="evenodd" d="M4.577 9.064A1 1 0 004 9.97v16.46a1 1 0 001.423.906l18-8.4A1 1 0 0024 18.03V1.57a1 1 0 00-1.423-.906l-18 8.4z" fill="#C2E0FF"/><path fill-rule="evenodd" clip-rule="evenodd" d="M6.418 14.361A12.94 12.94 0 016.173 14a13.995 13.995 0 011.879-2.285C9.49 10.308 11.501 9 14 9c2.497 0 4.51 1.308 5.949 2.715A14 14 0 0121.827 14a14 14 0 01-1.879 2.285C18.51 17.692 16.499 19 14 19c-2.497 0-4.51-1.308-5.949-2.715a13.995 13.995 0 01-1.633-1.924zm17.46-.84L23 14l.878.48-.002.002-.003.006-.01.018a5.344 5.344 0 01-.162.275 15.994 15.994 0 01-2.354 2.934C19.717 19.308 17.23 21 14 21c-3.23 0-5.718-1.692-7.347-3.285A16 16 0 014.3 14.781a9.158 9.158 0 01-.162-.275l-.01-.018-.003-.005-.001-.003L5 14l-.878-.48h.001l.001-.002.003-.006.01-.018a5.955 5.955 0 01.162-.275 16 16 0 012.354-2.934C8.283 8.692 10.77 7 14 7c3.23 0 5.718 1.692 7.347 3.285a15.994 15.994 0 012.354 2.934 9.024 9.024 0 01.162.275l.01.018.003.005.001.003zM23 14l.878-.479a1 1 0 010 .958L23 14zm-18.878-.479L5 14l-.878.479a1 1 0 010-.958zM15 14a1 1 0 10-2 0 1 1 0 002 0zm2 0a3 3 0 10-6 0 3 3 0 006 0z" fill="url(#paint0_linear)"/><defs><linearGradient id="paint0_linear" x1="24" y1="21" x2="10.845" y2="2.208" gradientUnits="userSpaceOnUse"><stop stop-color="#0059B3"/><stop offset="1" stop-color="#007FFF"/></linearGradient></defs></svg>