<svg width="32" height="32" viewBox="0 0 32 32" fill="none" xmlns="http://www.w3.org/2000/svg">
<path d="M1.85779 7.51428C4.98199 4.39008 10.0473 4.39008 13.1715 7.51428L30.1421 24.4848V24.4848C27.0179 27.609 21.9526 27.609 18.8284 24.4848L1.85779 7.51428V7.51428Z" fill="#007FFF"/>
<path d="M9 17.3421L1.85782 24.4842C4.98201 27.6084 10.0473 27.6084 13.1715 24.4842L14.3166 23.3391C14.5045 23.1513 14.5045 22.8468 14.3167 22.6589L9 17.3421Z" fill="#007FFF"/>
<path d="M18.8284 7.51367L17.6831 8.65891C17.4953 8.84675 17.4953 9.15129 17.6831 9.33913L23 14.6558L30.1421 7.51367C27.0179 4.38948 21.9526 4.38948 18.8284 7.51367Z" fill="#007FFF"/>
</svg>
