<svg width="36" height="36" fill="none" xmlns="http://www.w3.org/2000/svg"><circle cx="18" cy="18" r="16" fill="#132F4C"/><mask id="a" style="mask-type:alpha" maskUnits="userSpaceOnUse" x="6" y="8" width="12" height="13"><path d="m16.574 17.934-4.235 2.383c-.43.241-.954.241-1.384 0L6.72 17.934c-.445-.25-.72-.72-.72-1.23v-4.702c0-.51.275-.98.72-1.23l4.235-2.383c.43-.241.954-.241 1.384 0l4.235 2.383c.445.25.72.72.72 1.23v4.702c0 .51-.275.98-.72 1.23Z" fill="#C4C4C4"/></mask><g mask="url(#a)"><path d="m17.294 17.537-5.647 3.169v-6.4l5.647-3.137v6.368Z" fill="#1E4976"/><path d="M11.616 8 6 11.2l5.647 3.168 5.647-3.2L11.616 8Z" fill="#5090D3"/><path d="m6.032 17.537 5.615 3.169v-6.338L6 11.2l.032 6.337Z" fill="#265D97"/></g><mask id="b" style="mask-type:alpha" maskUnits="userSpaceOnUse" x="18" y="8" width="12" height="13"><path d="m29.28 17.934-4.235 2.383c-.43.241-.954.241-1.384 0l-4.235-2.383c-.445-.25-.72-.72-.72-1.23v-4.702c0-.51.275-.98.72-1.23l4.235-2.383c.43-.241.954-.241 1.384 0l4.235 2.383c.445.25.72.72.72 1.23v4.702c0 .51-.275.98-.72 1.23Z" fill="#C4C4C4"/></mask><g mask="url(#b)"><path d="m30 17.537-5.647 3.169v-6.4L30 11.17v6.368Z" fill="#1E4976"/><path d="m24.322 8-5.616 3.2 5.647 3.168 5.647-3.2L24.322 8Z" fill="#5090D3"/><path d="m18.738 17.537 5.615 3.169v-6.338L18.706 11.2l.032 6.337Z" fill="#265D97"/></g><mask id="c" style="mask-type:alpha" maskUnits="userSpaceOnUse" x="12" y="11" width="12" height="14"><path d="m22.927 21.463-4.235 2.383c-.43.241-.954.241-1.384 0l-4.235-2.383c-.445-.25-.72-.72-.72-1.23v-4.702c0-.51.275-.98.72-1.23l4.235-2.382c.43-.242.954-.242 1.384 0l4.235 2.382c.445.25.72.72.72 1.23v4.702c0 .51-.275.98-.72 1.23Z" fill="#C4C4C4"/></mask><g mask="url(#c)"><path d="M23.647 21.066 18 24.235v-6.4l5.647-3.137v6.368Z" fill="#1E4976"/><path d="m17.968 11.53-5.615 3.199L18 17.898l5.647-3.2-5.678-3.169Z" fill="#5090D3"/><path d="M12.385 21.067 18 24.235v-6.337l-5.647-3.168.032 6.337Z" fill="#265D97"/></g><mask id="d" style="mask-type:alpha" maskUnits="userSpaceOnUse" x="6" y="15" width="12" height="13"><path d="m16.574 24.993-4.235 2.383c-.43.241-.954.241-1.384 0L6.72 24.993c-.445-.25-.72-.72-.72-1.23V19.06c0-.51.275-.98.72-1.23l4.235-2.383c.43-.241.954-.241 1.384 0l4.235 2.383c.445.25.72.72.72 1.23v4.702c0 .51-.275.98-.72 1.23Z" fill="#C4C4C4"/></mask><g mask="url(#d)"><path d="m17.294 24.596-5.647 3.168v-6.4l5.647-3.137v6.369Z" fill="#1E4976"/><path d="M11.616 15.06 6 18.258l5.647 3.168 5.647-3.2-5.678-3.168Z" fill="#5090D3"/><path d="m6.032 24.596 5.615 3.169v-6.338L6 18.26l.032 6.337Z" fill="#265D97"/></g><mask id="e" style="mask-type:alpha" maskUnits="userSpaceOnUse" x="18" y="15" width="12" height="13"><path d="m29.28 24.993-4.235 2.383c-.43.241-.954.241-1.384 0l-4.235-2.383c-.445-.25-.72-.72-.72-1.23V19.06c0-.51.275-.98.72-1.23l4.235-2.383c.43-.241.954-.241 1.384 0l4.235 2.383c.445.25.72.72.72 1.23v4.702c0 .51-.275.98-.72 1.23Z" fill="#C4C4C4"/></mask><g mask="url(#e)"><path d="m30 24.596-5.647 3.168v-6.4L30 18.228v6.369Z" fill="#1E4976"/><path d="m24.322 15.06-5.616 3.199 5.647 3.168 5.647-3.2-5.678-3.168Z" fill="#5090D3"/><path d="m18.738 24.596 5.615 3.169v-6.338l-5.647-3.168.032 6.337Z" fill="#265D97"/></g></svg>