<svg width="32" height="32" viewBox="0 0 32 32" fill="none" xmlns="http://www.w3.org/2000/svg">
<path d="M2 19.3574V12.6426C2 9.77173 3.53829 7.12098 6.03089 5.69664L12.0309 2.26806C14.4903 0.862657 17.5096 0.862657 19.9691 2.26806L25.9691 5.69663C28.4617 7.12098 30 9.77173 30 12.6426V19.3574C30 22.2283 28.4617 24.879 25.9691 26.3034L19.9691 29.7319C17.5097 31.1373 14.4904 31.1373 12.0309 29.7319L6.03089 26.3034C3.53829 24.879 2 22.2283 2 19.3574Z" fill="#1F262E"/>
<path d="M4.5 19.5538V12.4462C4.5 10.4901 5.53901 8.6811 7.22871 7.69544L13.2287 4.19544C14.9412 3.19648 17.0588 3.19648 18.7713 4.19544L24.7713 7.69544C26.461 8.68109 27.5 10.4901 27.5 12.4462V19.5538C27.5 21.5099 26.461 23.3189 24.7713 24.3046L18.7713 27.8046C17.0588 28.8035 14.9412 28.8035 13.2287 27.8046L7.22871 24.3046C5.53901 23.3189 4.5 21.5099 4.5 19.5538Z" fill="url(#paint0_radial_7367_303088)" stroke="#0059B3"/>
<path d="M10 20.7V11.3C10 11.1343 10.1343 11 10.3 11H12.271C12.366 11 12.4554 11.045 12.512 11.1213L16.0017 15.828L19.516 11.1205C19.5726 11.0447 19.6618 11 19.7564 11H21.7C21.8657 11 22 11.1343 22 11.3V20.7C22 20.8656 21.8657 21 21.7 21H19.626C19.4603 21 19.326 20.8656 19.326 20.7V15.9445C19.326 15.6519 18.9498 15.5324 18.781 15.7714L16.5897 18.8731C16.5334 18.9527 16.4421 19 16.3446 19H15.6554C15.5579 19 15.4666 18.9527 15.4103 18.8731L13.219 15.7714C13.0502 15.5324 12.674 15.6519 12.674 15.9445V20.7C12.674 20.8656 12.5397 21 12.374 21H10.3C10.1343 21 10 20.8656 10 20.7Z" fill="url(#paint1_linear_7367_303088)"/>
<path d="M19.1955 10.8812L16.0028 15.1578L12.8333 10.8831C12.7012 10.705 12.4927 10.6 12.271 10.6H10.3C9.9134 10.6 9.6 10.9134 9.6 11.3V20.7C9.6 21.0866 9.9134 21.4 10.3 21.4H12.374C12.7606 21.4 13.074 21.0866 13.074 20.7V16.2594L15.0837 19.1039C15.2148 19.2896 15.428 19.4 15.6554 19.4H16.3446C16.572 19.4 16.7852 19.2896 16.9163 19.1039L18.926 16.2594V20.7C18.926 21.0866 19.2394 21.4 19.626 21.4H21.7C22.0866 21.4 22.4 21.0865 22.4 20.7V11.3C22.4 10.9134 22.0866 10.6 21.7 10.6H19.7564C19.5355 10.6 19.3276 10.7042 19.1955 10.8812L19.516 11.1205L19.1955 10.8812ZM19.1077 16.0022C19.1076 16.0023 19.1076 16.0023 19.1076 16.0024L19.1077 16.0022L19.026 15.9445L19.1077 16.0022Z" stroke="#99CCF3" stroke-opacity="0.3" stroke-width="0.8"/>
<defs>
<radialGradient id="paint0_radial_7367_303088" cx="0" cy="0" r="1" gradientUnits="userSpaceOnUse" gradientTransform="translate(16 16) rotate(-90) scale(14.5 34.8)">
<stop stop-color="#003A75"/>
<stop offset="1" stop-color="#001933"/>
</radialGradient>
<linearGradient id="paint1_linear_7367_303088" x1="16" y1="11" x2="16" y2="21" gradientUnits="userSpaceOnUse">
<stop stop-color="#F0F7FF"/>
<stop offset="1" stop-color="#66B2FF"/>
</linearGradient>
</defs>
</svg>
