<svg width="36" height="36" fill="none" xmlns="http://www.w3.org/2000/svg"><circle cx="18" cy="18" r="16" fill="#EAEEF3"/><mask id="a" style="mask-type:alpha" maskUnits="userSpaceOnUse" x="11" y="7" width="14" height="14"><path d="m23.485 18.058-4.715 2.651c-.478.27-1.062.27-1.54 0l-4.715-2.651a1.571 1.571 0 0 1-.8-1.37v-5.233c0-.568.306-1.091.8-1.37l4.715-2.652a1.571 1.571 0 0 1 1.54 0l4.715 2.652c.495.278.8.802.8 1.37v5.233c0 .568-.305 1.091-.8 1.37Z" fill="#C4C4C4"/></mask><g mask="url(#a)"><path d="M24.286 17.616 18 21.143v-7.124l6.286-3.492v7.089Z" fill="#0059B3"/><path d="m17.965 7-6.25 3.562L18 14.089l6.286-3.562L17.965 7Z" fill="#66B2FF"/><path d="M11.75 17.616 18 21.143V14.09l-6.286-3.527.035 7.054Z" fill="#007FFF"/></g><mask id="b" style="mask-type:alpha" maskUnits="userSpaceOnUse" x="4" y="11" width="14" height="14"><path d="M16.413 21.986 11.7 24.638c-.478.27-1.063.27-1.54 0l-4.715-2.652a1.571 1.571 0 0 1-.801-1.37v-5.232c0-.568.306-1.092.8-1.37l4.715-2.652a1.571 1.571 0 0 1 1.54 0l4.715 2.652c.495.278.801.802.801 1.37v5.233c0 .567-.306 1.091-.8 1.37Z" fill="#C4C4C4"/></mask><g mask="url(#b)"><path d="m17.214 21.544-6.285 3.527v-7.123l6.285-3.492v7.088Z" fill="#0059B3"/><path d="m10.893 10.929-6.25 3.561 6.285 3.527 6.286-3.561-6.32-3.527Z" fill="#66B2FF"/><path d="m4.678 21.544 6.25 3.527v-7.054L4.643 14.49l.035 7.054Z" fill="#007FFF"/></g><mask id="c" style="mask-type:alpha" maskUnits="userSpaceOnUse" x="18" y="11" width="14" height="14"><path d="m30.556 21.986-4.714 2.652c-.479.27-1.063.27-1.541 0l-4.714-2.652a1.571 1.571 0 0 1-.801-1.37v-5.232c0-.568.306-1.092.8-1.37l4.715-2.652a1.571 1.571 0 0 1 1.54 0l4.715 2.652c.495.278.801.802.801 1.37v5.233c0 .567-.306 1.091-.8 1.37Z" fill="#C4C4C4"/></mask><g mask="url(#c)"><path d="m31.357 21.544-6.285 3.527v-7.123l6.285-3.492v7.088Z" fill="#0059B3"/><path d="m25.036 10.929-6.25 3.561 6.285 3.527 6.286-3.561-6.32-3.527Z" fill="#66B2FF"/><path d="m18.82 21.544 6.251 3.527v-7.054l-6.285-3.527.035 7.054Z" fill="#007FFF"/></g><mask id="d" style="mask-type:alpha" maskUnits="userSpaceOnUse" x="11" y="15" width="14" height="14"><path d="m23.485 25.915-4.715 2.651c-.478.27-1.062.27-1.54 0l-4.715-2.651a1.571 1.571 0 0 1-.8-1.37v-5.233c0-.568.306-1.092.8-1.37l4.715-2.652a1.571 1.571 0 0 1 1.54 0l4.715 2.652c.495.278.8.802.8 1.37v5.233c0 .568-.305 1.091-.8 1.37Z" fill="#C4C4C4"/></mask><g mask="url(#d)"><path d="M24.286 25.473 18 29v-7.124l6.286-3.492v7.088Z" fill="#0059B3"/><path d="m17.965 14.857-6.25 3.562L18 21.946l6.286-3.562-6.321-3.527Z" fill="#66B2FF"/><path d="M11.75 25.473 18 29v-7.054l-6.286-3.527.035 7.054Z" fill="#007FFF"/></g></svg>