<svg width="32" height="32" viewBox="0 0 32 32" fill="none" xmlns="http://www.w3.org/2000/svg">
<path fill-rule="evenodd" clip-rule="evenodd" d="M11.4388 23.0252C15.1077 23.4279 19.551 22.7756 22.5199 19.3124C25.2762 16.0972 26.4758 10.7879 25.0377 2.60996C29.0173 3.69481 30 6.54035 30 13.5V18.5C30 28.4795 27.9795 30 18 30H14C4.0205 30 2 28.4795 2 18.5V13.5C2 3.5205 4.0205 2 14 2H18C19.6893 2 21.1506 2.04357 22.4126 2.16437C24.0461 10.5402 22.7565 15.1953 20.6219 17.6853C18.4153 20.2593 14.9761 20.8984 11.7116 20.5402C11.0253 20.4648 10.408 20.9601 10.3327 21.6463C10.2573 22.3326 10.7526 22.9499 11.4388 23.0252ZM14.5003 15C14.5003 16.1046 13.6049 17 12.5003 17C11.3957 17 10.5003 16.1046 10.5003 15C10.5003 13.8954 11.3957 13 12.5003 13C13.6049 13 14.5003 13.8954 14.5003 15ZM17.5003 13C18.6049 13 19.5003 12.1046 19.5003 11C19.5003 9.89543 18.6049 9 17.5003 9C16.3957 9 15.5003 9.89543 15.5003 11C15.5003 12.1046 16.3957 13 17.5003 13Z" fill="#007FFF"/>
</svg>
