<svg xmlns="http://www.w3.org/2000/svg" width="32" height="32" fill="none"><g clip-path="url(#a)"><circle cx="16" cy="16" r="16" fill="#F0F7FF"/><path fill="#99CCF3" d="M13.617 14.593 19 17.67l5.383-3.076a1.598 1.598 0 0 0-.589-.584l-4-2.286a1.6 1.6 0 0 0-1.587 0l-4 2.285a1.6 1.6 0 0 0-.59.585Z"/><path fill="#39F" d="M13.4 15.398v4.543a1.6 1.6 0 0 0 .806 1.389l4 2.286c.246.14.52.21.794.21V17.67l-5.383-3.076c-.14.24-.217.517-.217.805Z"/><path fill="#007FFF" d="M19.793 23.616a1.6 1.6 0 0 1-.793.21V17.67l5.383-3.076c.14.24.217.517.217.805v4.543a1.6 1.6 0 0 1-.806 1.389l-4.001 2.286Z"/><path fill="#99CCF3" d="M7.617 18.193 13 21.27l5.383-3.076a1.599 1.599 0 0 0-.589-.584l-4-2.286a1.6 1.6 0 0 0-1.587 0l-4 2.285a1.6 1.6 0 0 0-.59.585Z"/><path fill="#39F" d="M7.4 18.998v4.543a1.6 1.6 0 0 0 .806 1.389l4 2.286c.246.14.52.21.794.21V21.27l-5.383-3.076c-.14.24-.217.517-.217.805Z"/><path fill="#007FFF" d="M13.793 27.216a1.6 1.6 0 0 1-.793.21V21.27l5.383-3.076c.14.24.217.517.217.805v4.543a1.6 1.6 0 0 1-.806 1.389l-4.001 2.286Z"/><path fill="#99CCF3" d="M7.612 10.992 13 14.072l11.384-6.674a1.6 1.6 0 0 0-.59-.587l-3.99-2.28a1.6 1.6 0 0 0-1.603.009l-10.01 5.868a1.598 1.598 0 0 0-.58.584Z"/><path fill="#39F" d="M7.4 11.788v4.555a1.6 1.6 0 0 0 .805 1.388l3.992 2.282a1.6 1.6 0 0 0 .803.21V14.07l-5.388-3.079a1.6 1.6 0 0 0-.212.796Z"/><path fill="#007FFF" d="M13.799 20.003a1.6 1.6 0 0 1-.799.22V14.07l11.384-6.673c.14.24.216.515.216.802v4.555a1.6 1.6 0 0 1-.79 1.38l-10.011 5.868Z"/></g><defs><clipPath id="a"><path fill="#fff" d="M0 0h32v32H0z"/></clipPath></defs></svg>
