<svg width="36" height="36" fill="none" xmlns="http://www.w3.org/2000/svg"><circle cx="18" cy="18" r="16" fill="#132F4C"/><mask id="a" style="mask-type:alpha" maskUnits="userSpaceOnUse" x="7" y="11" width="14" height="15"><path d="m19.584 22.702-5.04 2.835a1.68 1.68 0 0 1-1.648 0l-5.04-2.835A1.68 1.68 0 0 1 7 21.237v-5.595c0-.606.327-1.166.856-1.464l5.04-2.835a1.68 1.68 0 0 1 1.648 0l5.04 2.835c.529.298.856.857.856 1.464v5.595a1.68 1.68 0 0 1-.856 1.465Z" fill="#C4C4C4"/></mask><g mask="url(#a)"><path d="M20.44 22.23 13.72 26v-7.615l6.72-3.734v7.578Z" fill="#265D97"/><path d="M13.682 10.88 7 14.688l6.72 3.77 6.72-3.807-6.758-3.771Z" fill="#91B9E3"/><path d="M7.038 22.23 13.72 26V18.46L7 14.688l.038 7.542Z" fill="#5090D3"/></g><mask id="b" style="mask-type:alpha" maskUnits="userSpaceOnUse" x="14" y="15" width="14" height="15"><path d="m27.144 26.902-5.04 2.835a1.68 1.68 0 0 1-1.648 0l-5.04-2.835a1.68 1.68 0 0 1-.856-1.465v-5.594c0-.607.327-1.167.856-1.465l5.04-2.835a1.68 1.68 0 0 1 1.648 0l5.04 2.835c.529.298.856.858.856 1.465v5.595a1.68 1.68 0 0 1-.856 1.464Z" fill="#C4C4C4"/></mask><g mask="url(#b)"><path d="m28 26.43-6.72 3.77v-7.616L28 18.851v7.578Z" fill="#265D97"/><path d="m21.242 15.08-6.682 3.808 6.72 3.77L28 18.852l-6.758-3.77Z" fill="#91B9E3"/><path d="m14.598 26.43 6.682 3.77V22.66l-6.72-3.77.038 7.54Z" fill="#5090D3"/></g><mask id="c" style="mask-type:alpha" maskUnits="userSpaceOnUse" x="12" y="5" width="14" height="15"><path d="m24.624 16.822-5.04 2.835a1.68 1.68 0 0 1-1.648 0l-5.04-2.835a1.68 1.68 0 0 1-.856-1.464V9.762c0-.607.327-1.167.856-1.465l5.04-2.835a1.68 1.68 0 0 1 1.648 0l5.04 2.835c.529.298.856.858.856 1.465v5.595a1.68 1.68 0 0 1-.856 1.464Z" fill="#C4C4C4"/></mask><g mask="url(#c)"><path d="m25.48 16.349-6.72 3.77v-7.615l6.72-3.733v7.578Z" fill="#265D97"/><path d="M18.723 5 12.04 8.808l6.72 3.77 6.72-3.807L18.722 5Z" fill="#91B9E3"/><path d="m12.078 16.35 6.682 3.77V12.58l-6.72-3.77.038 7.54Z" fill="#5090D3"/></g></svg>