<svg xmlns="http://www.w3.org/2000/svg" width="36" height="36" fill="none"><circle cx="18" cy="18" r="16" fill="#132F4C"/><mask id="product-advanced-mask0" mask-type="alpha" maskUnits="userSpaceOnUse" x="4" y="6" width="14" height="15"><path d="M4 11.46a3 3 0 011.53-2.614l3.587-2.019a3 3 0 012.942 0l3.588 2.019a3 3 0 011.53 2.614v3.903a3 3 0 01-1.53 2.615l-3.588 2.018a3 3 0 01-2.942 0L5.53 17.978A3 3 0 014 15.363V11.46z" fill="#ED64A6"/></mask><g mask="url(#product-advanced-mask0)" fill-rule="evenodd" clip-rule="evenodd"><path d="M4 9.706l6.588 3.706 6.589-3.706L10.588 6 4 9.706z" fill="#5090D3"/><path d="M10.588 13.411v7.412l6.589-3.706V9.706l-6.589 3.705z" fill="#132F4C"/><path d="M4 17.117l6.588 3.706v-7.412L4 9.707v7.411z" fill="#1E4976"/></g><mask id="product-advanced-mask1" mask-type="alpha" maskUnits="userSpaceOnUse" x="18" y="6" width="15" height="15"><path d="M18.824 11.46a3 3 0 011.529-2.614l3.588-2.019a3 3 0 012.942 0l3.588 2.019a3 3 0 011.53 2.614v3.903a3 3 0 01-1.53 2.615l-3.588 2.018a3 3 0 01-2.942 0l-3.588-2.018a3 3 0 01-1.53-2.615V11.46z" fill="#ED64A6"/></mask><g mask="url(#product-advanced-mask1)" fill-rule="evenodd" clip-rule="evenodd"><path d="M18.824 9.706l6.588 3.706L32 9.706 25.412 6l-6.588 3.706z" fill="#5090D3"/><path d="M25.412 13.411v7.412L32 17.117V9.706l-6.588 3.705z" fill="#173A5E"/><path d="M18.823 17.117l6.588 3.706v-7.412l-6.588-3.705v7.411z" fill="#132F4C"/></g><mask id="product-advanced-mask2" mask-type="alpha" maskUnits="userSpaceOnUse" x="11" y="10" width="14" height="15"><path d="M11.412 15.578a3 3 0 011.529-2.615l3.588-2.018a3 3 0 012.942 0l3.588 2.018a3 3 0 011.53 2.615v3.903a3 3 0 01-1.53 2.614l-3.588 2.019a3 3 0 01-2.942 0l-3.588-2.018a3 3 0 01-1.53-2.615v-3.903z" fill="#ED64A6"/></mask><g mask="url(#product-advanced-mask2)" fill-rule="evenodd" clip-rule="evenodd"><path d="M11.412 13.824L18 17.529l6.588-3.705L18 10.118l-6.588 3.706z" fill="#5090D3"/><path d="M18 17.53v7.41l6.588-3.705v-7.412L18 17.53zM11.412 21.235L18 24.941v-7.412l-6.588-3.706v7.412z" fill="#132F4C"/></g><mask id="product-advanced-mask3" mask-type="alpha" maskUnits="userSpaceOnUse" x="4" y="14" width="14" height="15"><path d="M4 19.696a3 3 0 011.53-2.615l3.587-2.018a3 3 0 012.942 0l3.588 2.018a3 3 0 011.53 2.615v3.902a3 3 0 01-1.53 2.615l-3.588 2.019a3 3 0 01-2.942 0L5.53 26.213A3 3 0 014 23.6v-3.903z" fill="#ED64A6"/></mask><g mask="url(#product-advanced-mask3)" fill-rule="evenodd" clip-rule="evenodd"><path d="M4 17.941l6.588 3.706 6.589-3.706-6.589-3.706L4 17.941z" fill="#5090D3"/><path d="M10.588 21.647v7.412l6.589-3.706V17.94l-6.589 3.706z" fill="#173A5E"/><path d="M4 25.353l6.588 3.706v-7.412L4 17.94v7.412z" fill="#1E4976"/></g><mask id="product-advanced-mask4" mask-type="alpha" maskUnits="userSpaceOnUse" x="18" y="14" width="15" height="15"><path d="M18.824 19.696a3 3 0 011.529-2.615l3.588-2.018a3 3 0 012.942 0l3.588 2.018a3 3 0 011.53 2.615v3.902a3 3 0 01-1.53 2.615l-3.588 2.019a3 3 0 01-2.942 0l-3.588-2.019a3 3 0 01-1.53-2.614v-3.903z" fill="#ED64A6"/></mask><g mask="url(#product-advanced-mask4)" fill-rule="evenodd" clip-rule="evenodd"><path d="M18.824 17.941l6.588 3.706L32 17.941l-6.588-3.706-6.588 3.706z" fill="#5090D3"/><path d="M25.412 21.647v7.412L32 25.353V17.94l-6.588 3.706z" fill="#173A5E"/><path d="M18.823 25.353l6.588 3.706v-7.412l-6.588-3.706v7.412z" fill="#1E4976"/></g></svg>