<svg fill="none" height="32" viewBox="0 0 32 32" width="32" xmlns="http://www.w3.org/2000/svg" xmlns:xlink="http://www.w3.org/1999/xlink"><clipPath id="a"><path d="m0 0h32v32h-32z"/></clipPath><g clip-path="url(#a)"><circle cx="16" cy="16" fill="#132f4c" r="16"/><path d="m16.6171 9.32119 5.383 3.07601 5.383-3.07601c-.1391-.23917-.3402-.44231-.5888-.58445-.0001-.00007.0001.00008 0 0l-4.0004-2.28593c-.4917-.281-1.0954-.28108-1.5872-.00025-.0002.00009.0001-.00008 0 0l-4.0004 2.28596c-.0001.00005 0-.00004 0 0-.2487.14215-.4501.34545-.5892.58467z" fill="#5090d3"/><path d="m16.4 10.1257v4.543c0 .5741.3077 1.1043.8062 1.3892l4 2.2857c.0002.0001-.0002-.0001 0 0 .2458.1403.5201.2108.7938.2108v-6.1572l-5.383-3.07602c-.1398.24026-.217.51687-.217.80452z" fill="#1e4976"/><path d="m22.793 18.3441c-.2457.1402-.5194.2103-.793.2103v-6.1572l5.383-3.07602c.1398.24026.217.51687.217.80452v4.543c0 .5741-.3077 1.1043-.8062 1.3892z" fill="#173a5e"/><path d="m4.61707 9.32119 5.38303 3.07601 5.383-3.07601c-.1391-.23917-.3402-.44231-.5888-.58445-.0001-.00007.0001.00008 0 0l-4.0004-2.28593c-.4917-.281-1.0954-.28108-1.58721-.00025-.00014.00009.00014-.00008 0 0l-4.00043 2.28596c-.00008.00005.00008-.00004 0 0-.24865.14215-.45004.34545-.58919.58467z" fill="#5090d3"/><path d="m4.40002 10.1257v4.543c0 .5741.30766 1.1043.80618 1.3892l4 2.2857c.00016.0001-.00016-.0001 0 0 .24583.1403.52006.2108.7938.2108v-6.1572l-5.38299-3.07602c-.13976.24026-.21699.51687-.21699.80452z" fill="#1e4976"/><path d="m10.793 18.3441c-.2457.1402-.5194.2103-.793.2103v-6.1572l5.383-3.07602c.1398.24026.217.51687.217.80452v4.543c0 .5741-.3077 1.1043-.8062 1.3892z" fill="#173a5e"/><path d="m10.6171 12.9212 5.383 3.076 5.383-3.076c-.1391-.2392-.3402-.4423-.5888-.5845-.0001 0 .0001.0001 0 0l-4.0004-2.2859c-.4917-.28099-1.0954-.28107-1.5872-.0002-.0002 0 .0001-.0001 0 0l-4.0004 2.2859c-.0001.0001 0 0 0 0-.2487.1422-.4501.3455-.5892.5847z" fill="#5090d3"/><path d="m10.4 13.7257v4.543c0 .5741.3077 1.1043.8062 1.3892l4 2.2857c.0002.0001-.0002-.0001 0 0 .2458.1403.5201.2108.7938.2108v-6.1572l-5.383-3.076c-.1398.2402-.217.5168-.217.8045z" fill="#1e4976"/><path d="m16.793 21.9441c-.2457.1402-.5194.2103-.793.2103v-6.1572l5.383-3.076c.1398.2402.217.5168.217.8045v4.543c0 .5741-.3077 1.1043-.8062 1.3892z" fill="#173a5e"/><path d="m16.6171 16.5212 5.383 3.076 5.383-3.076c-.1391-.2392-.3402-.4423-.5888-.5845-.0001 0 .0001.0001 0 0l-4.0004-2.2859c-.4917-.281-1.0954-.2811-1.5872-.0002-.0002 0 .0001-.0001 0 0l-4.0004 2.2859c-.0001.0001 0 0 0 0-.2487.1422-.4501.3455-.5892.5847z" fill="#5090d3"/><path d="m16.4 17.3257v4.543c0 .5741.3077 1.1043.8062 1.3892l4 2.2857c.0002.0001-.0002-.0001 0 0 .2458.1403.5201.2108.7938.2108v-6.1572l-5.383-3.076c-.1398.2402-.217.5168-.217.8045z" fill="#1e4976"/><path d="m22.793 25.5441c-.2457.1402-.5194.2103-.793.2103v-6.1572l5.383-3.076c.1398.2402.217.5168.217.8045v4.543c0 .5741-.3077 1.1043-.8062 1.3892z" fill="#173a5e"/><path d="m4.61707 16.5212 5.38303 3.076 5.383-3.076c-.1391-.2392-.3402-.4423-.5888-.5845-.0001 0 .0001.0001 0 0l-4.0004-2.2859c-.4917-.281-1.0954-.2811-1.58721-.0002-.00014 0 .00014-.0001 0 0l-4.00043 2.2859c-.00008.0001.00008 0 0 0-.24865.1422-.45004.3455-.58919.5847z" fill="#5090d3"/><path d="m4.40002 17.3257v4.543c0 .5741.30766 1.1043.80618 1.3892l4 2.2857c.00016.0001-.00016-.0001 0 0 .24583.1403.52006.2108.7938.2108v-6.1572l-5.38299-3.076c-.13976.2402-.21699.5168-.21699.8045z" fill="#1e4976"/><path d="m10.793 25.5441c-.2457.1402-.5194.2103-.793.2103v-6.1572l5.383-3.076c.1398.2402.217.5168.217.8045v4.543c0 .5741-.3077 1.1043-.8062 1.3892z" fill="#173a5e"/></g></svg>