<svg width="32" height="32" viewBox="0 0 32 32" fill="none" xmlns="http://www.w3.org/2000/svg">
<path d="M2 19.3574V12.6426C2 9.77173 3.53829 7.12098 6.03089 5.69664L12.0309 2.26806C14.4903 0.862657 17.5096 0.862657 19.9691 2.26806L25.9691 5.69663C28.4617 7.12098 30 9.77173 30 12.6426V19.3574C30 22.2283 28.4617 24.879 25.9691 26.3034L19.9691 29.7319C17.5097 31.1373 14.4904 31.1373 12.0309 29.7319L6.03089 26.3034C3.53829 24.879 2 22.2283 2 19.3574Z" fill="#F0F7FF"/>
<path d="M4.5 19.5538V12.4462C4.5 10.4901 5.53901 8.6811 7.22871 7.69544L13.2287 4.19544C14.9412 3.19648 17.0588 3.19648 18.7713 4.19544L24.7713 7.69544C26.461 8.68109 27.5 10.4901 27.5 12.4462V19.5538C27.5 21.5099 26.461 23.3189 24.7713 24.3046L18.7713 27.8046C17.0588 28.8035 14.9412 28.8035 13.2287 27.8046L7.22871 24.3046C5.53901 23.3189 4.5 21.5099 4.5 19.5538Z" fill="url(#paint0_radial_7360_302913)" stroke="#B3D9FF"/>
<path d="M10.6242 21.4H13.8558C14.0685 21.4 14.2696 21.3033 14.4024 21.1373L16.0002 19.14L17.5981 21.1373C17.7309 21.3033 17.932 21.4 18.1447 21.4H21.3763C21.9633 21.4 22.2896 20.721 21.9229 20.2627L18.5125 15.9997L21.9224 11.7373C22.2891 11.279 21.9628 10.6 21.3758 10.6H18.1447C17.932 10.6 17.7309 10.6967 17.5981 10.8627L16.0004 12.8596L14.4029 10.8627C14.2701 10.6967 14.0689 10.6 13.8563 10.6H10.6247C10.0377 10.6 9.7114 11.279 10.0781 11.7373L13.4881 15.9998L10.0776 20.2627C9.71093 20.721 10.0372 21.4 10.6242 21.4Z" fill="url(#paint1_linear_7360_302913)" stroke="#F0F7FF" stroke-width="0.8"/>
<defs>
<radialGradient id="paint0_radial_7360_302913" cx="0" cy="0" r="1" gradientUnits="userSpaceOnUse" gradientTransform="translate(16 16) rotate(-90) scale(14.5 34.8)">
<stop stop-color="#D6EAFF"/>
<stop offset="1" stop-color="white"/>
</radialGradient>
<linearGradient id="paint1_linear_7360_302913" x1="16.0002" y1="11" x2="16.0002" y2="21" gradientUnits="userSpaceOnUse">
<stop stop-color="#0059B3"/>
<stop offset="1" stop-color="#3399FF"/>
</linearGradient>
</defs>
</svg>
