<svg fill="none" height="32" width="32" xmlns="http://www.w3.org/2000/svg" xmlns:xlink="http://www.w3.org/1999/xlink"><clipPath id="a"><path d="m0 0h32v32h-32z"/></clipPath><g clip-path="url(#a)"><circle cx="16" cy="16" fill="#132f4c" r="16"/><path d="m7.617 13.721 5.383 3.076 5.383-3.076a1.598 1.598 0 0 0 -.589-.584l-4-2.286a1.6 1.6 0 0 0 -1.587 0l-4 2.285a1.6 1.6 0 0 0 -.59.585z" fill="#91b9e3"/><path d="m7.4 14.526v4.543a1.6 1.6 0 0 0 .806 1.389l4 2.286c.246.14.52.21.794.21v-6.157l-5.383-3.076c-.14.24-.217.517-.217.805z" fill="#5090d3"/><path d="m13.793 22.744a1.6 1.6 0 0 1 -.793.21v-6.157l5.383-3.076c.14.24.217.517.217.805v4.543a1.6 1.6 0 0 1 -.806 1.389z" fill="#265d97"/><path d="m13.617 17.321 5.383 3.076 5.383-3.076a1.599 1.599 0 0 0 -.589-.584l-4-2.286a1.6 1.6 0 0 0 -1.587 0l-4 2.285a1.6 1.6 0 0 0 -.59.585z" fill="#91b9e3"/><path d="m13.4 18.126v4.543a1.6 1.6 0 0 0 .806 1.389l4 2.286c.246.14.52.21.794.21v-6.157l-5.383-3.076c-.14.24-.217.517-.217.805z" fill="#5090d3"/><path d="m19.793 26.344a1.6 1.6 0 0 1 -.793.21v-6.157l5.383-3.076c.14.24.217.517.217.805v4.543a1.6 1.6 0 0 1 -.806 1.389z" fill="#265d97"/><path d="m10.417 8.521 5.383 3.076 5.383-3.076a1.599 1.599 0 0 0 -.589-.584l-4-2.286a1.6 1.6 0 0 0 -1.587 0l-4 2.286a1.6 1.6 0 0 0 -.59.584z" fill="#91b9e3"/><path d="m10.2 9.326v4.543a1.6 1.6 0 0 0 .806 1.389l4 2.286c.246.14.52.21.794.21v-6.157l-5.383-3.076c-.14.24-.217.517-.217.805z" fill="#5090d3"/><path d="m16.593 17.544c-.246.14-.52.21-.793.21v-6.157l5.383-3.076c.14.24.217.517.217.805v4.543a1.6 1.6 0 0 1 -.806 1.389z" fill="#265d97"/></g></svg>