<svg xmlns="http://www.w3.org/2000/svg" width="32" height="32" fill="none"><g clip-path="url(#a)"><circle cx="16" cy="16" r="16" fill="#F0F7FF"/><path fill="#91B9E3" d="M7.617 13.721 13 16.797l5.383-3.076a1.598 1.598 0 0 0-.589-.584l-4-2.286a1.6 1.6 0 0 0-1.587 0l-4 2.285a1.6 1.6 0 0 0-.59.585Z"/><path fill="#5090D3" d="M7.4 14.526v4.543a1.6 1.6 0 0 0 .806 1.389l4 2.286c.246.14.52.21.794.21v-6.157l-5.383-3.076c-.14.24-.217.517-.217.805Z"/><path fill="#265D97" d="M13.793 22.744a1.6 1.6 0 0 1-.793.21v-6.157l5.383-3.076c.14.24.217.517.217.805v4.543a1.6 1.6 0 0 1-.806 1.389l-4.001 2.286Z"/><path fill="#91B9E3" d="M13.617 17.321 19 20.397l5.383-3.076a1.599 1.599 0 0 0-.589-.584l-4-2.286a1.6 1.6 0 0 0-1.587 0l-4 2.285a1.6 1.6 0 0 0-.59.585Z"/><path fill="#5090D3" d="M13.4 18.126v4.543a1.6 1.6 0 0 0 .806 1.389l4 2.286c.246.14.52.21.794.21v-6.157l-5.383-3.076c-.14.24-.217.517-.217.805Z"/><path fill="#265D97" d="M19.793 26.344a1.6 1.6 0 0 1-.793.21v-6.157l5.383-3.076c.14.24.217.517.217.805v4.543a1.6 1.6 0 0 1-.806 1.389l-4.001 2.286Z"/><path fill="#91B9E3" d="m10.417 8.521 5.383 3.076 5.383-3.076a1.599 1.599 0 0 0-.589-.584l-4-2.286a1.6 1.6 0 0 0-1.587 0l-4 2.286a1.6 1.6 0 0 0-.59.584Z"/><path fill="#5090D3" d="M10.2 9.326v4.543a1.6 1.6 0 0 0 .806 1.389l4 2.286c.246.14.52.21.794.21v-6.157l-5.383-3.076c-.14.24-.217.517-.217.805Z"/><path fill="#265D97" d="M16.593 17.544c-.246.14-.52.21-.793.21v-6.157l5.383-3.076c.14.24.217.517.217.805v4.543a1.6 1.6 0 0 1-.806 1.389l-4.001 2.286Z"/></g><defs><clipPath id="a"><path fill="#fff" d="M0 0h32v32H0z"/></clipPath></defs></svg>
