<svg fill="none" height="32" width="32" xmlns="http://www.w3.org/2000/svg" xmlns:xlink="http://www.w3.org/1999/xlink"><clipPath id="a"><path d="m0 0h32v32h-32z"/></clipPath><g clip-path="url(#a)"><circle cx="16" cy="16" fill="#f0f7ff" r="16"/><path d="m10.617 9.321 5.383 3.076 5.383-3.076a1.599 1.599 0 0 0 -.589-.584l-4-2.286a1.6 1.6 0 0 0 -1.587 0l-4 2.286a1.6 1.6 0 0 0 -.59.584z" fill="#66b2ff"/><path d="m10.4 10.126v4.543a1.6 1.6 0 0 0 .806 1.389l4 2.286c.246.14.52.21.794.21v-6.157l-5.383-3.076c-.14.24-.217.517-.217.805z" fill="#007fff"/><path d="m16.793 18.344a1.6 1.6 0 0 1 -.793.21v-6.157l5.383-3.076c.14.24.217.517.217.805v4.543a1.6 1.6 0 0 1 -.806 1.389z" fill="#0059b3"/><path d="m16.617 12.921 5.383 3.076 5.383-3.076a1.598 1.598 0 0 0 -.589-.584l-4-2.286a1.6 1.6 0 0 0 -1.587 0l-4 2.285a1.6 1.6 0 0 0 -.59.585z" fill="#66b2ff"/><path d="m16.4 13.726v4.543a1.6 1.6 0 0 0 .806 1.389l4 2.286c.246.14.52.21.794.21v-6.157l-5.383-3.076c-.14.24-.217.517-.217.805z" fill="#007fff"/><path d="m22.793 21.944a1.6 1.6 0 0 1 -.793.21v-6.157l5.383-3.076c.14.24.217.517.217.805v4.543a1.6 1.6 0 0 1 -.806 1.389z" fill="#0059b3"/><path d="m4.617 12.921 5.383 3.076 5.383-3.076a1.598 1.598 0 0 0 -.589-.584l-4-2.286a1.6 1.6 0 0 0 -1.587 0l-4 2.285a1.6 1.6 0 0 0 -.59.585z" fill="#66b2ff"/><path d="m4.4 13.726v4.543a1.6 1.6 0 0 0 .806 1.389l4 2.286c.246.14.52.21.794.21v-6.157l-5.383-3.076a1.6 1.6 0 0 0 -.217.805z" fill="#007fff"/><path d="m10.793 21.944a1.6 1.6 0 0 1 -.793.21v-6.157l5.383-3.076c.14.24.217.517.217.805v4.543a1.6 1.6 0 0 1 -.806 1.389z" fill="#0059b3"/><path d="m10.617 16.521 5.383 3.076 5.383-3.076a1.599 1.599 0 0 0 -.589-.584l-4-2.286a1.6 1.6 0 0 0 -1.587 0l-4 2.286a1.6 1.6 0 0 0 -.59.584z" fill="#66b2ff"/><path d="m10.4 17.326v4.543a1.6 1.6 0 0 0 .806 1.389l4 2.286c.246.14.52.21.794.21v-6.157l-5.383-3.076c-.14.24-.217.517-.217.805z" fill="#007fff"/><path d="m16.793 25.544a1.6 1.6 0 0 1 -.793.21v-6.157l5.383-3.076c.14.24.217.517.217.805v4.543a1.6 1.6 0 0 1 -.806 1.389z" fill="#0059b3"/></g></svg>