<svg fill="none" height="32" width="32" xmlns="http://www.w3.org/2000/svg" xmlns:xlink="http://www.w3.org/1999/xlink"><clipPath id="a"><path d="m0 0h32v32h-32z"/></clipPath><g clip-path="url(#a)"><circle cx="16" cy="16" fill="#132f4c" r="16"/><path d="m12.617 10.121 5.383 3.076 5.383-3.076a1.598 1.598 0 0 0 -.589-.584l-4-2.286a1.6 1.6 0 0 0 -1.587 0l-4 2.286a1.6 1.6 0 0 0 -.59.584z" fill="#c2e0ff"/><path d="m12.4 10.926v4.543a1.6 1.6 0 0 0 .806 1.389l4 2.286c.246.14.52.21.794.21v-6.157l-5.383-3.076c-.14.24-.217.517-.217.805z" fill="#66b2ff"/><path d="m18.793 19.144a1.6 1.6 0 0 1 -.793.21v-6.157l5.383-3.076c.14.24.217.517.217.805v4.543a1.6 1.6 0 0 1 -.806 1.389z" fill="#39f"/><path d="m6.217 13.721 5.383 3.076 5.383-3.076a1.6 1.6 0 0 0 -.589-.584l-4-2.286a1.6 1.6 0 0 0 -1.587 0l-4 2.285a1.6 1.6 0 0 0 -.59.585z" fill="#c2e0ff"/><path d="m6 14.526v4.543a1.6 1.6 0 0 0 .806 1.389l4 2.286c.246.14.52.21.794.21v-6.157l-5.383-3.076c-.14.24-.217.517-.217.805z" fill="#66b2ff"/><path d="m12.393 22.744a1.6 1.6 0 0 1 -.793.21v-6.157l5.383-3.076c.14.24.217.517.217.805v4.543a1.6 1.6 0 0 1 -.806 1.389z" fill="#39f"/><path d="m15.017 15.721 5.383 3.076 5.383-3.076a1.599 1.599 0 0 0 -.589-.584l-4-2.286a1.6 1.6 0 0 0 -1.587 0l-4 2.285a1.6 1.6 0 0 0 -.59.585z" fill="#c2e0ff"/><path d="m14.8 16.526v4.543a1.6 1.6 0 0 0 .806 1.389l4 2.286c.246.14.52.21.794.21v-6.157l-5.383-3.076a1.6 1.6 0 0 0 -.217.805z" fill="#66b2ff"/><path d="m21.193 24.744c-.246.14-.52.21-.793.21v-6.157l5.383-3.076c.14.24.217.517.217.805v4.543a1.6 1.6 0 0 1 -.806 1.389z" fill="#39f"/></g></svg>