<svg xmlns="http://www.w3.org/2000/svg" width="32" height="32" fill="none"><g clip-path="url(#a)"><circle cx="16" cy="16" r="16" fill="#F0F7FF"/><path fill="#66B2FF" d="M10.617 9.321 16 12.397l5.383-3.076a1.599 1.599 0 0 0-.589-.584l-4-2.286a1.6 1.6 0 0 0-1.587 0l-4 2.286a1.6 1.6 0 0 0-.59.584Z"/><path fill="#007FFF" d="M10.4 10.126v4.543a1.6 1.6 0 0 0 .806 1.389l4 2.286c.246.14.52.21.794.21v-6.157l-5.383-3.076c-.14.24-.217.517-.217.805Z"/><path fill="#0059B3" d="M16.793 18.344a1.6 1.6 0 0 1-.793.21v-6.157l5.383-3.076c.14.24.217.517.217.805v4.543a1.6 1.6 0 0 1-.806 1.389l-4.001 2.286Z"/><path fill="#66B2FF" d="M16.617 12.921 22 15.997l5.383-3.076a1.598 1.598 0 0 0-.589-.584l-4-2.286a1.6 1.6 0 0 0-1.587 0l-4 2.285a1.6 1.6 0 0 0-.59.585Z"/><path fill="#007FFF" d="M16.4 13.726v4.543a1.6 1.6 0 0 0 .806 1.389l4 2.286c.246.14.52.21.794.21v-6.157l-5.383-3.076c-.14.24-.217.517-.217.805Z"/><path fill="#0059B3" d="M22.793 21.944a1.6 1.6 0 0 1-.793.21v-6.157l5.383-3.076c.14.24.217.517.217.805v4.543a1.6 1.6 0 0 1-.806 1.389l-4.001 2.286Z"/><path fill="#66B2FF" d="M4.617 12.921 10 15.997l5.383-3.076a1.598 1.598 0 0 0-.589-.584l-4-2.286a1.6 1.6 0 0 0-1.587 0l-4 2.285a1.6 1.6 0 0 0-.59.585Z"/><path fill="#007FFF" d="M4.4 13.726v4.543a1.6 1.6 0 0 0 .806 1.389l4 2.286c.246.14.52.21.794.21v-6.157l-5.383-3.076a1.6 1.6 0 0 0-.217.805Z"/><path fill="#0059B3" d="M10.793 21.944a1.6 1.6 0 0 1-.793.21v-6.157l5.383-3.076c.14.24.217.517.217.805v4.543a1.6 1.6 0 0 1-.806 1.389l-4.001 2.286Z"/><path fill="#66B2FF" d="M10.617 16.521 16 19.597l5.383-3.076a1.599 1.599 0 0 0-.589-.584l-4-2.286a1.6 1.6 0 0 0-1.587 0l-4 2.286a1.6 1.6 0 0 0-.59.584Z"/><path fill="#007FFF" d="M10.4 17.326v4.543a1.6 1.6 0 0 0 .806 1.389l4 2.286c.246.14.52.21.794.21v-6.157l-5.383-3.076c-.14.24-.217.517-.217.805Z"/><path fill="#0059B3" d="M16.793 25.544a1.6 1.6 0 0 1-.793.21v-6.157l5.383-3.076c.14.24.217.517.217.805v4.543a1.6 1.6 0 0 1-.806 1.389l-4.001 2.286Z"/></g><defs><clipPath id="a"><path fill="#fff" d="M0 0h32v32H0z"/></clipPath></defs></svg>
