<svg width="36" height="36" fill="none" xmlns="http://www.w3.org/2000/svg"><circle cx="18" cy="18" r="16" fill="#132F4C"/><mask id="a" style="mask-type:alpha" maskUnits="userSpaceOnUse" x="12" y="6" width="15" height="16"><path d="m25.673 18.132-5.172 2.91a1.724 1.724 0 0 1-1.69 0l-5.173-2.91a1.724 1.724 0 0 1-.88-1.502v-5.742c0-.623.337-1.198.88-1.503l5.172-2.91a1.724 1.724 0 0 1 1.69 0l5.173 2.91c.543.305.879.88.879 1.503v5.742c0 .623-.336 1.197-.879 1.502Z" fill="#C4C4C4"/></mask><g mask="url(#a)"><path d="m26.552 17.647-6.897 3.87v-7.816l6.897-3.831v7.777Z" fill="#39F"/><path d="m19.617 6-6.858 3.908 6.896 3.87 6.897-3.908L19.617 6Z" fill="#C2E0FF"/><path d="m12.797 17.648 6.858 3.87v-7.74l-6.896-3.87.038 7.74Z" fill="#66B2FF"/></g><mask id="b" style="mask-type:alpha" maskUnits="userSpaceOnUse" x="5" y="10" width="14" height="16"><path d="m17.914 22.443-5.172 2.91a1.724 1.724 0 0 1-1.69 0l-5.173-2.91A1.724 1.724 0 0 1 5 20.94v-5.742c0-.623.336-1.197.879-1.503l5.172-2.909a1.724 1.724 0 0 1 1.69 0l5.173 2.91c.543.305.88.88.88 1.502v5.742c0 .623-.337 1.197-.88 1.503Z" fill="#C4C4C4"/></mask><g mask="url(#b)"><path d="m18.793 21.958-6.896 3.87v-7.816l6.896-3.832v7.778Z" fill="#39F"/><path d="M11.858 10.31 5 14.218l6.897 3.87 6.896-3.908-6.935-3.87Z" fill="#C2E0FF"/><path d="m5.039 21.958 6.858 3.87v-7.74L5 14.218l.039 7.74Z" fill="#66B2FF"/></g><mask id="c" style="mask-type:alpha" maskUnits="userSpaceOnUse" x="16" y="13" width="14" height="16"><path d="m29.121 25.029-5.172 2.91a1.724 1.724 0 0 1-1.69 0l-5.173-2.91a1.724 1.724 0 0 1-.879-1.503v-5.742c0-.623.336-1.197.879-1.503l5.172-2.909a1.724 1.724 0 0 1 1.69 0l5.173 2.91c.543.305.88.88.88 1.502v5.742c0 .623-.337 1.197-.88 1.503Z" fill="#C4C4C4"/></mask><g mask="url(#c)"><path d="m30 24.544-6.896 3.87v-7.816L30 16.766v7.778Z" fill="#39F"/><path d="m23.065 12.896-6.858 3.908 6.897 3.87L30 16.766l-6.935-3.87Z" fill="#C2E0FF"/><path d="m16.246 24.544 6.858 3.87v-7.74l-6.897-3.87.039 7.74Z" fill="#66B2FF"/></g></svg>