<svg width="32" height="32" viewBox="0 0 32 32" fill="none" xmlns="http://www.w3.org/2000/svg">
<path d="M2 19.3574V12.6426C2 9.77173 3.53829 7.12098 6.03089 5.69664L12.0309 2.26806C14.4903 0.862657 17.5096 0.862657 19.9691 2.26806L25.9691 5.69663C28.4617 7.12098 30 9.77173 30 12.6426V19.3574C30 22.2283 28.4617 24.879 25.9691 26.3034L19.9691 29.7319C17.5097 31.1373 14.4904 31.1373 12.0309 29.7319L6.03089 26.3034C3.53829 24.879 2 22.2283 2 19.3574Z" fill="#1F262E"/>
<path d="M4.5 19.5538V12.4462C4.5 10.4901 5.53901 8.6811 7.22871 7.69544L13.2287 4.19544C14.9412 3.19648 17.0588 3.19648 18.7713 4.19544L24.7713 7.69544C26.461 8.68109 27.5 10.4901 27.5 12.4462V19.5538C27.5 21.5099 26.461 23.3189 24.7713 24.3046L18.7713 27.8046C17.0588 28.8035 14.9412 28.8035 13.2287 27.8046L7.22871 24.3046C5.53901 23.3189 4.5 21.5099 4.5 19.5538Z" fill="url(#paint0_radial_7360_302996)" stroke="#0059B3"/>
<path d="M14.828 21C14.6623 21 14.528 20.8657 14.528 20.7V13.694C14.528 13.5283 14.3937 13.394 14.228 13.394H11.3C11.1343 13.394 11 13.2597 11 13.094V11.3C11 11.1343 11.1343 11 11.3 11H20.7C20.8657 11 21 11.1343 21 11.3V13.094C21 13.2597 20.8657 13.394 20.7 13.394H17.8C17.6343 13.394 17.5 13.5283 17.5 13.694V20.7C17.5 20.8657 17.3657 21 17.2 21H14.828Z" fill="url(#paint1_linear_7360_302996)"/>
<path d="M14.128 13.794V20.7C14.128 21.0866 14.4414 21.4 14.828 21.4H17.2C17.5866 21.4 17.9 21.0866 17.9 20.7V13.794H20.7C21.0866 13.794 21.4 13.4806 21.4 13.094V11.3C21.4 10.9134 21.0866 10.6 20.7 10.6H11.3C10.9134 10.6 10.6 10.9134 10.6 11.3V13.094C10.6 13.4806 10.9134 13.794 11.3 13.794H14.128Z" stroke="#99CCF3" stroke-opacity="0.3" stroke-width="0.8"/>
<defs>
<radialGradient id="paint0_radial_7360_302996" cx="0" cy="0" r="1" gradientUnits="userSpaceOnUse" gradientTransform="translate(16 16) rotate(-90) scale(14.5 34.8)">
<stop stop-color="#003A75"/>
<stop offset="1" stop-color="#001933"/>
</radialGradient>
<linearGradient id="paint1_linear_7360_302996" x1="16" y1="11" x2="16" y2="21" gradientUnits="userSpaceOnUse">
<stop stop-color="#F0F7FF"/>
<stop offset="1" stop-color="#66B2FF"/>
</linearGradient>
</defs>
</svg>
