<svg width="32" height="32" viewBox="0 0 32 32" fill="none" xmlns="http://www.w3.org/2000/svg">
<path d="M2 19.3574V12.6426C2 9.77173 3.53829 7.12098 6.03089 5.69664L12.0309 2.26806C14.4903 0.862657 17.5096 0.862657 19.9691 2.26806L25.9691 5.69663C28.4617 7.12098 30 9.77173 30 12.6426V19.3574C30 22.2283 28.4617 24.879 25.9691 26.3034L19.9691 29.7319C17.5097 31.1373 14.4904 31.1373 12.0309 29.7319L6.03089 26.3034C3.53829 24.879 2 22.2283 2 19.3574Z" fill="#F0F7FF"/>
<path d="M4.5 19.5538V12.4462C4.5 10.4901 5.53901 8.6811 7.22871 7.69544L13.2287 4.19544C14.9412 3.19648 17.0588 3.19648 18.7713 4.19544L24.7713 7.69544C26.461 8.68109 27.5 10.4901 27.5 12.4462V19.5538C27.5 21.5099 26.461 23.3189 24.7713 24.3046L18.7713 27.8046C17.0588 28.8035 14.9412 28.8035 13.2287 27.8046L7.22871 24.3046C5.53901 23.3189 4.5 21.5099 4.5 19.5538Z" fill="url(#paint0_radial_7360_302908)" stroke="#B3D9FF"/>
<path d="M20.192 15.8555C20.9236 15.3291 21.4 14.4702 21.4 13.5C21.4 11.8984 20.1016 10.6 18.5 10.6H12.3C11.9134 10.6 11.6 10.9134 11.6 11.3V20.7C11.6 21.0866 11.9134 21.4 12.3 21.4H19C20.6016 21.4 21.9 20.1016 21.9 18.5C21.9 17.3232 21.1991 16.3102 20.192 15.8555ZM14.9 18.6V17.4H18C18.3314 17.4 18.6 17.6686 18.6 18C18.6 18.3314 18.3314 18.6 18 18.6H14.9ZM14.9 13.4H17.5C17.8314 13.4 18.1 13.6686 18.1 14C18.1 14.3314 17.8314 14.6 17.5 14.6H14.9V13.4Z" fill="url(#paint1_linear_7360_302908)" stroke="#F0F7FF" stroke-width="0.8"/>
<defs>
<radialGradient id="paint0_radial_7360_302908" cx="0" cy="0" r="1" gradientUnits="userSpaceOnUse" gradientTransform="translate(16 16) rotate(-90) scale(14.5 34.8)">
<stop stop-color="#D6EAFF"/>
<stop offset="1" stop-color="white"/>
</radialGradient>
<linearGradient id="paint1_linear_7360_302908" x1="16.75" y1="11" x2="16.75" y2="21" gradientUnits="userSpaceOnUse">
<stop stop-color="#0059B3"/>
<stop offset="1" stop-color="#3399FF"/>
</linearGradient>
</defs>
</svg>
