<svg xmlns="http://www.w3.org/2000/svg" width="32" height="32" fill="none"><g clip-path="url(#a)"><circle cx="16" cy="16" r="16" fill="#F0F7FF"/><path fill="#C2E0FF" d="M12.617 10.121 18 13.197l5.383-3.076a1.598 1.598 0 0 0-.589-.584l-4-2.286a1.6 1.6 0 0 0-1.587 0l-4 2.286a1.6 1.6 0 0 0-.59.584Z"/><path fill="#66B2FF" d="M12.4 10.926v4.543a1.6 1.6 0 0 0 .806 1.389l4 2.286c.246.14.52.21.794.21v-6.157l-5.383-3.076c-.14.24-.217.517-.217.805Z"/><path fill="#39F" d="M18.793 19.144a1.6 1.6 0 0 1-.793.21v-6.157l5.383-3.076c.14.24.217.517.217.805v4.543a1.6 1.6 0 0 1-.806 1.389l-4.001 2.286Z"/><path fill="#C2E0FF" d="m6.217 13.721 5.383 3.076 5.383-3.076a1.6 1.6 0 0 0-.589-.584l-4-2.286a1.6 1.6 0 0 0-1.587 0l-4 2.285a1.6 1.6 0 0 0-.59.585Z"/><path fill="#66B2FF" d="M6 14.526v4.543a1.6 1.6 0 0 0 .806 1.389l4 2.286c.246.14.52.21.794.21v-6.157l-5.383-3.076c-.14.24-.217.517-.217.805Z"/><path fill="#39F" d="M12.393 22.744a1.6 1.6 0 0 1-.793.21v-6.157l5.383-3.076c.14.24.217.517.217.805v4.543a1.6 1.6 0 0 1-.806 1.389l-4.001 2.286Z"/><path fill="#C2E0FF" d="m15.017 15.721 5.383 3.076 5.383-3.076a1.599 1.599 0 0 0-.589-.584l-4-2.286a1.6 1.6 0 0 0-1.587 0l-4 2.285a1.6 1.6 0 0 0-.59.585Z"/><path fill="#66B2FF" d="M14.8 16.526v4.543a1.6 1.6 0 0 0 .806 1.389l4 2.286c.246.14.52.21.794.21v-6.157l-5.383-3.076a1.6 1.6 0 0 0-.217.805Z"/><path fill="#39F" d="M21.193 24.744c-.246.14-.52.21-.793.21v-6.157l5.383-3.076c.14.24.217.517.217.805v4.543a1.6 1.6 0 0 1-.806 1.389l-4.001 2.286Z"/></g><defs><clipPath id="a"><path fill="#fff" d="M0 0h32v32H0z"/></clipPath></defs></svg>
