<svg width="36" height="32" viewBox="0 0 36 32" fill="none" xmlns="http://www.w3.org/2000/svg">
<path fill-rule="evenodd" clip-rule="evenodd" d="M20.2704 15.6476C20.4135 15.5556 20.5 15.3972 20.5 15.227C20.5 15.3972 20.4135 15.5556 20.2704 15.6476ZM13.5 20V25.7244C13.5 25.896 13.588 26.0555 13.733 26.1472L23 32L35.2572 24.6457C35.4079 24.5553 35.5 24.3925 35.5 24.2169V11.809C35.5 11.4373 35.1088 11.1956 34.7764 11.3618L30.7764 13.3618C30.607 13.4465 30.5 13.6196 30.5 13.809V21.2169C30.5 21.3925 30.4079 21.5553 30.2572 21.6457L23 26L18 22.8421L13.5 20ZM13 7.5L1.25725 0.454349C0.923986 0.254391 0.5 0.494448 0.5 0.883095V18.7169C0.5 18.8925 0.59215 19.0553 0.742752 19.1457L4.74275 21.5457C5.07601 21.7456 5.5 21.5056 5.5 21.1169V9.83333C5.5 9.45587 5.90224 9.21453 6.23529 9.39216L13 13V7.5ZM19.7647 9.39216C20.0978 9.21453 20.5 9.45587 20.5 9.83333C20.5 9.45587 20.0978 9.21453 19.7647 9.39216Z" fill="#007FFF"/>
<path d="M13.5 20L18 22.8421L25.2712 18.1477C25.4138 18.0556 25.5 17.8974 25.5 17.7277V0.883095C25.5 0.494448 25.076 0.254391 24.7428 0.454348L13 7.5V13L19.7647 9.39216C20.0978 9.21453 20.5 9.45587 20.5 9.83333V15.227C20.5 15.3972 20.4135 15.5556 20.2704 15.6476L13.5 20Z" fill="#007FFF"/>
<path d="M35.5 0.809017V4.7169C35.5 4.89254 35.4079 5.05529 35.2572 5.14565L31.2572 7.54565C30.924 7.74561 30.5 7.50555 30.5 7.1169V2.80902C30.5 2.61963 30.607 2.4465 30.7764 2.3618L34.7764 0.361803C35.1088 0.195578 35.5 0.437326 35.5 0.809017Z" fill="#007FFF"/>
</svg>
