<svg width="32" height="32" viewBox="0 0 32 32" fill="none" xmlns="http://www.w3.org/2000/svg">
<path d="M2 19.3574V12.6426C2 9.77173 3.53829 7.12098 6.03089 5.69664L12.0309 2.26806C14.4903 0.862657 17.5096 0.862657 19.9691 2.26806L25.9691 5.69663C28.4617 7.12098 30 9.77173 30 12.6426V19.3574C30 22.2283 28.4617 24.879 25.9691 26.3034L19.9691 29.7319C17.5097 31.1373 14.4904 31.1373 12.0309 29.7319L6.03089 26.3034C3.53829 24.879 2 22.2283 2 19.3574Z" fill="#1F262E"/>
<path d="M4.5 19.5538V12.4462C4.5 10.4901 5.53901 8.6811 7.22871 7.69544L13.2287 4.19544C14.9412 3.19648 17.0588 3.19648 18.7713 4.19544L24.7713 7.69544C26.461 8.68109 27.5 10.4901 27.5 12.4462V19.5538C27.5 21.5099 26.461 23.3189 24.7713 24.3046L18.7713 27.8046C17.0588 28.8035 14.9412 28.8035 13.2287 27.8046L7.22871 24.3046C5.53901 23.3189 4.5 21.5099 4.5 19.5538Z" fill="url(#paint0_radial_7360_302981)" stroke="#0059B3"/>
<path d="M16.81 21C15.9793 21 15.2093 20.8787 14.5 20.636C13.8 20.3933 13.184 20.048 12.652 19.6C12.1293 19.1427 11.7233 18.6013 11.434 17.976C11.1447 17.3507 11 16.756 11 16C11 15.2533 11.1493 14.6633 11.448 14.038C11.7467 13.4127 12.1573 12.876 12.68 12.428C13.2027 11.9707 13.814 11.6207 14.514 11.378C15.2233 11.126 15.9933 11 16.824 11C17.3747 11 17.9067 11.0607 18.42 11.182C18.9427 11.3033 19.428 11.476 19.876 11.7C20.2337 11.8789 20.5226 12.0858 20.7956 12.3188C20.9134 12.4193 20.9285 12.5943 20.835 12.7177L19.6448 14.2883C19.5367 14.431 19.3287 14.4472 19.1881 14.3364C19.0557 14.2319 18.9116 14.1325 18.756 14.038C18.4947 13.8793 18.196 13.7533 17.86 13.66C17.5333 13.5667 17.1553 13.52 16.726 13.52C16.3527 13.52 15.9933 13.576 15.648 13.688C15.312 13.8 15.0087 13.968 14.738 14.192C14.4673 14.4067 14.2527 14.6773 14.094 15.004C13.9353 15.3213 13.856 15.596 13.856 16.028C13.856 16.4387 13.9353 16.7113 14.094 17.038C14.262 17.3553 14.4953 17.626 14.794 17.85C15.0927 18.0647 15.4287 18.228 15.802 18.34C16.1847 18.452 16.5907 18.508 17.02 18.508C17.4493 18.508 17.832 18.452 18.168 18.34C18.504 18.2187 18.8027 18.074 19.064 17.906C19.2161 17.8028 19.3586 17.7028 19.4917 17.6059C19.6377 17.4997 19.845 17.5395 19.9367 17.6951L20.8775 19.2921C20.949 19.4135 20.9272 19.5692 20.8205 19.6612C20.6026 19.8489 20.3505 20.0345 20.002 20.216C19.5633 20.44 19.0687 20.6267 18.518 20.776C17.9673 20.9253 17.398 21 16.81 21Z" fill="url(#paint1_linear_7360_302981)"/>
<path d="M14.369 21.0139L14.3705 21.0145C15.1258 21.2728 15.94 21.4 16.81 21.4C17.4323 21.4 18.0369 21.3209 18.6227 21.1621C19.196 21.0066 19.7171 20.8106 20.1839 20.5722L20.1839 20.5723L20.1868 20.5708C20.5669 20.3728 20.8443 20.1687 21.0816 19.9642C21.3423 19.7395 21.3868 19.3685 21.2221 19.089L20.2813 17.4921C20.066 17.1267 19.5873 17.0417 19.2563 17.2825C19.1284 17.3756 18.9909 17.4722 18.8436 17.5721C18.613 17.7199 18.345 17.8505 18.0369 17.9621C17.7503 18.0569 17.413 18.108 17.02 18.108C16.6263 18.108 16.2588 18.0568 15.9157 17.9565C15.5842 17.8569 15.2902 17.7135 15.0308 17.5276C14.7809 17.3395 14.5892 17.1163 14.4507 16.8569C14.3166 16.5794 14.256 16.3668 14.256 16.028C14.256 15.6623 14.3189 15.4486 14.4518 15.1829L14.4518 15.1829L14.4538 15.1788C14.5876 14.9032 14.7653 14.6809 14.9866 14.5054L14.9866 14.5055L14.993 14.5002C15.2249 14.3083 15.4841 14.1645 15.773 14.068C16.0768 13.9696 16.3939 13.92 16.726 13.92C17.1275 13.92 17.4671 13.9638 17.7501 14.0446L17.7501 14.0446L17.7529 14.0454C18.0585 14.1303 18.3225 14.2427 18.5484 14.3799C18.6912 14.4666 18.8218 14.5569 18.9405 14.6505C19.238 14.885 19.7062 14.8697 19.9636 14.5299L21.1538 12.9593C21.3694 12.6748 21.3415 12.2588 21.0553 12.0145C20.7638 11.7658 20.4481 11.5388 20.0549 11.3422C19.5771 11.1033 19.062 10.9205 18.5112 10.7925C17.9667 10.6639 17.404 10.6 16.824 10.6C15.953 10.6 15.1377 10.7321 14.3815 11.0006C13.6374 11.2587 12.9814 11.6331 12.4181 12.1256C11.8536 12.6099 11.4093 13.1909 11.0871 13.8656L11.448 14.038L11.0871 13.8656C10.7644 14.5412 10.6 15.1898 10.6 16C10.6 16.8166 10.7584 17.4684 11.071 18.144C11.384 18.8206 11.8241 19.4071 12.3886 19.901L12.3886 19.9011L12.3943 19.906C12.9662 20.3875 13.6258 20.7563 14.369 21.0139Z" stroke="#99CCF3" stroke-opacity="0.3" stroke-width="0.8"/>
<defs>
<radialGradient id="paint0_radial_7360_302981" cx="0" cy="0" r="1" gradientUnits="userSpaceOnUse" gradientTransform="translate(16 16) rotate(-90) scale(14.5 34.8)">
<stop stop-color="#003A75"/>
<stop offset="1" stop-color="#001933"/>
</radialGradient>
<linearGradient id="paint1_linear_7360_302981" x1="16" y1="11" x2="16" y2="21" gradientUnits="userSpaceOnUse">
<stop stop-color="#F0F7FF"/>
<stop offset="1" stop-color="#66B2FF"/>
</linearGradient>
</defs>
</svg>
