<svg width="83" height="25" fill="none" xmlns="http://www.w3.org/2000/svg"><path fill-rule="evenodd" clip-rule="evenodd" d="M51.07 19.55C46.285 23.105 39.351 25 33.381 25c-8.37 0-15.906-3.12-21.607-8.31-.448-.407-.047-.964.49-.646 6.153 3.608 13.76 5.778 21.619 5.778 5.3 0 11.13-1.105 16.49-3.398.81-.347 1.487.535.695 1.127z" fill="#5A6978"/><path fill-rule="evenodd" clip-rule="evenodd" d="M53.058 17.258c-.61-.788-4.042-.372-5.583-.188-.47.058-.54-.354-.118-.65 2.734-1.94 7.22-1.38 7.743-.73.523.654-.136 5.186-2.705 7.349-.394.332-.77.155-.595-.285.577-1.452 1.87-4.706 1.258-5.497zM47.583 2.73V.845c0-.285.215-.477.473-.477h8.374c.269 0 .484.195.484.477v1.614c-.004.27-.23.625-.631 1.184l-4.34 6.244c1.613-.04 3.315.202 4.777 1.033.33.188.42.462.444.733v2.011c0 .275-.3.596-.616.43-2.576-1.361-5.998-1.51-8.847.015-.29.159-.595-.16-.595-.434v-1.91c0-.307.004-.83.308-1.296l5.028-7.266h-4.376a.465.465 0 01-.483-.473zM17.035 14.492h-2.548a.483.483 0 01-.455-.437V.878a.48.48 0 01.491-.473H16.9c.247.01.444.202.462.44v1.723h.047C18.028.903 19.192.126 20.762.126c1.594 0 2.59.777 3.307 2.442C24.685.903 26.086.126 27.588.126c1.068 0 2.236.445 2.949 1.441.806 1.109.641 2.72.641 4.131l-.003 8.317a.483.483 0 01-.491.477H28.14a.486.486 0 01-.459-.477V7.031c0-.556.05-1.943-.072-2.47-.19-.885-.76-1.134-1.498-1.134-.616 0-1.26.415-1.522 1.08-.262.664-.237 1.776-.237 2.524v6.984a.483.483 0 01-.49.477h-2.545a.484.484 0 01-.459-.477l-.003-6.984c0-1.47.24-3.633-1.57-3.633-1.83 0-1.76 2.11-1.76 3.633v6.984a.483.483 0 01-.49.477M64.123.126c3.78 0 5.827 3.272 5.827 7.432 0 4.02-2.261 7.208-5.827 7.208-3.712 0-5.733-3.272-5.733-7.349 0-4.102 2.046-7.29 5.733-7.29zm.022 2.69c-1.878 0-1.996 2.579-1.996 4.186 0 1.61-.025 5.048 1.974 5.048 1.974 0 2.068-2.773 2.068-4.463 0-1.112-.047-2.441-.38-3.496-.287-.917-.857-1.274-1.666-1.274zM74.851 14.492h-2.537a.486.486 0 01-.458-.477L71.852.835a.483.483 0 01.491-.43h2.361c.223.01.405.162.455.368v2.015h.047C75.919.986 76.919.126 78.678.126c1.143 0 2.258.416 2.974 1.553.667 1.055.667 2.828.667 4.103v8.294a.49.49 0 01-.491.416h-2.555a.484.484 0 01-.451-.416V6.92c0-1.44.164-3.55-1.595-3.55-.62 0-1.19.42-1.473 1.055-.358.805-.405 1.607-.405 2.495v7.096a.491.491 0 01-.498.477M40.907 8.198c0 1 .025 1.834-.477 2.722-.405.723-1.05 1.167-1.763 1.167-.978 0-1.552-.751-1.552-1.86 0-2.188 1.946-2.586 3.792-2.586v.557zm2.57 6.257a.529.529 0 01-.603.062c-.846-.708-1-1.037-1.462-1.712-1.397 1.437-2.39 1.867-4.2 1.867-2.146 0-3.812-1.332-3.812-4.001 0-2.084 1.118-3.503 2.716-4.196 1.383-.614 3.315-.722 4.79-.892V5.25c0-.61.047-1.333-.31-1.86-.309-.473-.904-.668-1.43-.668-.972 0-1.835.502-2.047 1.542-.043.23-.211.458-.444.47l-2.469-.268c-.208-.047-.44-.217-.38-.538C34.392.91 37.101 0 39.524 0c1.24 0 2.86.332 3.837 1.278 1.24 1.167 1.122 2.723 1.122 4.417v4c0 1.204.495 1.73.96 2.38.162.232.197.51-.01.683-.52.437-1.444 1.25-1.953 1.705l-.004-.008M7.507 8.198c0 1 .025 1.834-.477 2.722-.405.723-1.046 1.167-1.763 1.167-.978 0-1.548-.751-1.548-1.86 0-2.188 1.946-2.586 3.788-2.586v.557zm2.57 6.257a.529.529 0 01-.603.062c-.845-.708-.996-1.037-1.462-1.712-1.397 1.437-2.386 1.867-4.2 1.867C1.67 14.672 0 13.34 0 10.671c0-2.084 1.122-3.503 2.716-4.196 1.383-.614 3.315-.722 4.791-.892V5.25c0-.61.047-1.333-.308-1.86-.312-.473-.907-.668-1.43-.668-.971 0-1.838.502-2.05 1.542-.043.23-.211.458-.44.47L.806 4.466C.598 4.42.37 4.25.426 3.929.996.91 3.702 0 6.124 0c1.24 0 2.86.332 3.838 1.278 1.24 1.167 1.121 2.723 1.121 4.417v4c0 1.204.495 1.73.96 2.38.165.232.201.51-.007.683-.52.437-1.444 1.25-1.953 1.705l-.007-.008" fill="#5A6978"/></svg>