<svg width="81" height="23" fill="none" xmlns="http://www.w3.org/2000/svg">
  <path d="M44.513 2.507V.778a.43.43 0 01.44-.439h7.752c.25 0 .448.181.448.438v1.485c-.003.245-.212.571-.584 1.088L48.55 9.083c1.492-.035 3.07.188 4.425.95.305.173.388.424.411.674v1.849c0 .255-.279.55-.57.397-2.388-1.253-5.555-1.39-8.193.015-.27.144-.551-.145-.551-.4v-1.76c0-.28.004-.76.287-1.188l4.652-6.676h-4.05a.433.433 0 01-.448-.437zm-28.28 10.81h-2.36a.442.442 0 01-.421-.399l.002-12.11c0-.241.202-.436.455-.436L16.105.37c.23.013.414.186.43.407V2.36h.043C17.148.83 18.229.116 19.68.116c1.476 0 2.398.715 3.06 2.244.574-1.53 1.872-2.244 3.26-2.244.991 0 2.07.409 2.73 1.326.75 1.017.595 2.497.595 3.794v7.644a.446.446 0 01-.456.436h-2.356a.44.44 0 01-.423-.434l-.001-6.421c0-.51.043-1.782-.067-2.269-.178-.815-.706-1.044-1.388-1.044-.57 0-1.166.382-1.41.994-.24.612-.22 1.63-.22 2.319v6.419a.445.445 0 01-.454.436h-2.356a.441.441 0 01-.424-.434l-.003-6.422c0-1.351.221-3.338-1.451-3.338-1.697 0-1.63 1.939-1.63 3.338l-.002 6.42c0 .243-.2.437-.452.437zM59.829.117c3.498 0 5.396 3.006 5.396 6.828 0 3.693-2.096 6.627-5.396 6.627-3.436 0-5.309-3.012-5.309-6.756 0-3.769 1.894-6.7 5.31-6.7zm.023 2.47C58.11 2.587 58 4.959 58 6.433c0 1.478-.023 4.637 1.83 4.637 1.823 0 1.91-2.547 1.91-4.098 0-1.02-.043-2.243-.352-3.212-.264-.842-.792-1.173-1.536-1.173zm9.91 10.73h-2.351a.44.44 0 01-.424-.434L66.982.768a.448.448 0 01.454-.396l2.19-.001a.448.448 0 01.42.34v1.851h.045C70.75.907 71.67.116 73.3.116c1.059 0 2.096.383 2.756 1.429.613.965.613 2.597.613 3.769v7.62a.447.447 0 01-.447.383h-2.369a.45.45 0 01-.42-.383V6.359c0-1.323.156-3.262-1.477-3.262-.573 0-1.096.383-1.361.97-.33.74-.373 1.476-.373 2.292v6.521a.453.453 0 01-.46.437zM11.61 11.095c-.429-.598-.888-1.08-.888-2.186V5.233c0-1.555.111-2.985-1.038-4.057C8.778.306 7.28 0 6.13 0 3.885 0 1.38.838.856 3.612c-.056.296.158.45.352.494l2.286.248c.213-.011.369-.223.41-.435C4.1 2.962 4.9 2.502 5.8 2.502c.483 0 1.035.18 1.323.613.331.484.287 1.15.287 1.712v.304c-1.37.154-3.157.255-4.435.818-1.479.64-2.515 1.94-2.515 3.857 0 2.453 1.544 3.679 3.528 3.679 1.681 0 2.595-.397 3.891-1.716.429.62.569.92 1.352 1.573.176.093.4.086.557-.055l.006.005c.471-.42 1.328-1.164 1.808-1.567.191-.16.157-.417.007-.63zm-4.641-1.06c-.376.66-.97 1.07-1.632 1.07-.905 0-1.435-.69-1.435-1.71 0-2.007 1.803-2.372 3.51-2.372v.51c0 .917.02 1.684-.443 2.502zm35.564 1.06c-.432-.598-.89-1.08-.89-2.186V5.233c0-1.555.11-2.985-1.04-4.057C39.703.306 38.2 0 37.054 0c-2.244 0-4.749.838-5.274 3.612-.056.296.159.45.352.494l2.285.248c.216-.011.37-.223.41-.435.199-.957.996-1.417 1.897-1.417.484 0 1.037.18 1.323.613.33.484.286 1.15.286 1.712v.304c-1.367.154-3.154.255-4.433.818-1.479.64-2.516 1.94-2.516 3.857 0 2.453 1.542 3.679 3.53 3.679 1.676 0 2.595-.397 3.89-1.716.427.62.568.92 1.35 1.573.178.093.4.086.557-.055l.005.005c.472-.42 1.33-1.164 1.811-1.567.192-.16.16-.417.007-.63zm-4.643-1.06c-.373.66-.97 1.07-1.632 1.07-.905 0-1.432-.69-1.432-1.71 0-2.007 1.8-2.372 3.506-2.372v.51c0 .917.023 1.684-.442 2.502z" fill="#fff"/>
  <path d="M47.662 18.023c-4.5 3.212-10.768 4.946-16.297 4.946-7.747 0-14.65-2.803-19.97-7.607-.492-.444-.175-.966.437-.614 5.787 3.347 12.722 5.304 19.999 5.304 4.907 0 10.12-.977 15.073-3.084 1.083-.462 1.532.502.758 1.055z" fill="#F9A51B"/>
  <path d="M49.585 15.855c-.569-.727-3.747-.344-5.174-.175-.43.052-.5-.326-.108-.599 2.534-1.772 6.69-1.256 7.17-.671.486.602-.129 4.77-2.503 6.76-.366.309-.71.141-.549-.262.533-1.337 1.73-4.329 1.164-5.053z" fill="#F9A51B"/>
  <path d="M79.353 11.339c.266 0 .492.093.678.28.186.186.28.41.28.675a.923.923 0 01-.28.677.92.92 0 01-.678.28.919.919 0 01-.677-.28.926.926 0 01-.278-.678c0-.263.093-.488.28-.674a.92.92 0 01.675-.28zm1.108.952c0-.305-.108-.565-.324-.78a1.073 1.073 0 00-.785-.322c-.304 0-.564.107-.78.322a1.064 1.064 0 00-.324.78c0 .307.107.57.321.785.215.217.477.326.783.326.306 0 .568-.109.785-.326a1.07 1.07 0 00.324-.785zm-.814-.239a.185.185 0 01-.127.187.602.602 0 01-.207.026h-.196v-.433h.184a.58.58 0 01.264.044c.054.03.082.088.082.176zm-.74-.37v1.21h.21v-.476h.17c.117 0 .197.013.243.038.078.046.116.138.116.278v.096l.005.039.003.014c.002.003.002.008.003.012h.199l-.008-.016a.164.164 0 01-.01-.062c-.003-.032-.003-.062-.003-.09v-.089a.343.343 0 00-.066-.188.294.294 0 00-.209-.118.457.457 0 00.176-.059c.08-.052.12-.131.12-.24 0-.151-.064-.253-.19-.306a.946.946 0 00-.332-.043h-.427z" fill="#fff"/>
</svg>