<svg width="80" height="52" fill="none" xmlns="http://www.w3.org/2000/svg">
  <path fill="none" d="M0 0h80v52H0z"/>
  <path d="M44.051 23.507v-1.729a.43.43 0 01.44-.439h7.753c.25 0 .448.181.448.438v1.485c-.003.245-.213.571-.584 1.088l-4.02 5.733c1.492-.035 3.07.188 4.425.95.306.173.389.424.412.674v1.849c0 .255-.28.55-.57.397-2.388-1.253-5.555-1.39-8.193.015-.27.144-.552-.145-.552-.4v-1.76c0-.28.005-.76.288-1.188l4.652-6.676H44.5a.433.433 0 01-.449-.437zm-28.28 10.81h-2.359a.442.442 0 01-.421-.399l.002-12.11c0-.241.202-.436.454-.436l2.197-.001c.23.013.414.187.429.408v1.581h.043c.571-1.53 1.652-2.244 3.104-2.244 1.476 0 2.398.715 3.06 2.244.573-1.53 1.871-2.244 3.26-2.244.991 0 2.069.409 2.73 1.326.75 1.017.595 2.497.595 3.794l-.001 7.644a.446.446 0 01-.456.436h-2.355a.44.44 0 01-.424-.434v-6.421c0-.51.043-1.782-.068-2.269-.177-.815-.705-1.044-1.388-1.044-.57 0-1.165.382-1.408.994-.242.612-.22 1.63-.22 2.319v6.419a.445.445 0 01-.456.436h-2.355a.441.441 0 01-.424-.434l-.003-6.422c0-1.351.22-3.338-1.452-3.338-1.697 0-1.63 1.939-1.63 3.338l-.001 6.42c0 .243-.2.437-.453.437zm43.597-13.2c3.498 0 5.395 3.006 5.395 6.828 0 3.693-2.096 6.627-5.395 6.627-3.436 0-5.31-3.012-5.31-6.756 0-3.769 1.895-6.7 5.31-6.7zm.022 2.47c-1.742 0-1.852 2.372-1.852 3.846 0 1.479-.022 4.637 1.83 4.637 1.823 0 1.91-2.547 1.91-4.098 0-1.02-.043-2.243-.352-3.212-.263-.842-.792-1.173-1.536-1.173zm9.911 10.73H66.95a.44.44 0 01-.423-.434l-.005-12.115a.448.448 0 01.454-.396l2.19-.001c.208.01.377.152.42.34v1.851h.044c.66-1.655 1.581-2.446 3.211-2.446 1.058 0 2.095.383 2.756 1.429.613.965.613 2.597.613 3.769v7.62a.447.447 0 01-.448.383h-2.368a.45.45 0 01-.421-.383v-6.575c0-1.323.157-3.262-1.476-3.262-.573 0-1.096.383-1.362.97-.33.74-.373 1.476-.373 2.292v6.521a.453.453 0 01-.46.437zM11.15 32.095c-.43-.598-.888-1.08-.888-2.186v-3.676c0-1.555.11-2.985-1.038-4.057C8.317 21.306 6.817 21 5.668 21c-2.244 0-4.748.838-5.274 3.612-.056.297.159.45.353.494l2.286.248c.212-.011.368-.223.41-.435.196-.957.997-1.417 1.896-1.417.484 0 1.036.18 1.324.613.33.484.286 1.15.286 1.712v.304c-1.369.154-3.156.255-4.434.818C1.036 27.589 0 28.889 0 30.806c0 2.453 1.544 3.679 3.528 3.679 1.68 0 2.595-.397 3.89-1.716.43.62.57.92 1.352 1.573.176.093.401.086.558-.055l.005.005a106.34 106.34 0 011.808-1.567c.192-.16.158-.417.008-.63zm-4.642-1.06c-.375.66-.97 1.07-1.631 1.07-.906 0-1.435-.69-1.435-1.71 0-2.007 1.803-2.372 3.509-2.372v.51c0 .917.021 1.684-.443 2.502zm35.565 1.06c-.433-.598-.891-1.08-.891-2.186v-3.676c0-1.555.11-2.985-1.039-4.057-.902-.87-2.404-1.176-3.55-1.176-2.244 0-4.75.838-5.275 3.612-.056.297.16.45.352.494l2.285.248c.216-.011.371-.223.411-.435.198-.957.995-1.417 1.896-1.417.485 0 1.038.18 1.323.613.33.484.286 1.15.286 1.712v.304c-1.367.154-3.154.255-4.432.818-1.48.64-2.517 1.94-2.517 3.857 0 2.453 1.543 3.679 3.53 3.679 1.676 0 2.595-.397 3.89-1.716.428.62.569.92 1.352 1.573.177.093.4.086.555-.055l.006.005c.472-.42 1.33-1.164 1.81-1.567.193-.16.16-.417.008-.63zm-4.643-1.06c-.373.66-.97 1.07-1.632 1.07-.905 0-1.433-.69-1.433-1.71 0-2.007 1.801-2.372 3.507-2.372v.51c0 .917.022 1.684-.442 2.502z" fill="#000"/>
  <path d="M47.2 39.023c-4.499 3.212-10.767 4.946-16.297 4.946-7.746 0-14.65-2.803-19.97-7.607-.492-.445-.174-.966.438-.614 5.786 3.347 12.722 5.305 19.999 5.305 4.907 0 10.12-.978 15.073-3.085 1.083-.462 1.532.502.758 1.055z" fill="#F9A51B"/>
  <path d="M49.124 36.855c-.57-.727-3.747-.344-5.175-.175-.43.052-.5-.326-.108-.599 2.535-1.772 6.69-1.256 7.17-.671.486.602-.128 4.77-2.503 6.76-.366.309-.71.141-.548-.262.533-1.337 1.73-4.329 1.164-5.053z" fill="#F9A51B"/>
  <path d="M78.892 32.339c.266 0 .492.093.678.28.186.185.28.41.28.675a.923.923 0 01-.28.677.92.92 0 01-.678.28.919.919 0 01-.677-.28.926.926 0 01-.279-.677c0-.264.093-.49.28-.675a.92.92 0 01.676-.28zM80 33.29c0-.305-.109-.565-.325-.78a1.073 1.073 0 00-.784-.323c-.305 0-.564.108-.78.323a1.064 1.064 0 00-.325.78c0 .307.107.57.322.785.215.217.476.326.782.326.307 0 .569-.109.785-.326A1.07 1.07 0 0080 33.29zm-.815-.239a.185.185 0 01-.126.187.602.602 0 01-.208.026h-.196v-.433h.185c.121 0 .208.014.264.044.054.03.081.088.081.176zm-.739-.37v1.21h.21v-.476h.17c.116 0 .197.013.242.038.079.046.117.138.117.278v.096l.005.039.002.014.004.012h.199l-.008-.016a.164.164 0 01-.011-.062c-.003-.032-.003-.062-.003-.09v-.089a.343.343 0 00-.066-.188.294.294 0 00-.208-.118.457.457 0 00.175-.059c.08-.052.12-.131.12-.24 0-.151-.063-.253-.189-.306a.945.945 0 00-.333-.043h-.426z" fill="#000"/>
</svg>