<svg width="29" height="52" fill="none" xmlns="http://www.w3.org/2000/svg">
  <g clip-path="url(#a)">
    <path d="M14.684 19.333c-1.145 0-2.918-1.303-4.785-1.257-2.465.033-4.724 1.43-5.994 3.642-2.558 4.44-.66 11 1.835 14.609 1.224 1.757 2.668 3.733 4.582 3.672 1.837-.079 2.525-1.193 4.755-1.193 2.212 0 2.84 1.193 4.785 1.146 1.978-.032 3.233-1.789 4.442-3.563 1.397-2.04 1.977-4.017 2.008-4.126-.047-.016-3.845-1.475-3.89-5.869-.032-3.673 2.996-5.43 3.137-5.509-1.727-2.525-4.378-2.808-5.305-2.87-2.416-.19-4.44 1.316-5.57 1.316v.002Zm4.082-3.705c1.019-1.223 1.692-2.933 1.504-4.628-1.458.063-3.216.973-4.268 2.197-.942 1.082-1.756 2.825-1.538 4.488 1.617.125 3.28-.832 4.3-2.056" fill="#fff"/>
  </g>
  <defs>
    <clipPath id="a">
      <path fill="#fff" transform="translate(0 11)" d="M0 0h29v29H0z"/>
    </clipPath>
  </defs>
</svg>