<svg width="71" height="52" fill="none" xmlns="http://www.w3.org/2000/svg">
  <path d="M65.29 35.313a.304.304 0 0 1-.318-.32v-9.35h-3.176a.304.304 0 0 1-.32-.318v-1.29c0-.189.13-.32.32-.32h8.454c.189 0 .319.132.319.32v1.29c0 .188-.13.319-.319.319h-3.176v9.35c0 .188-.13.319-.319.319h-1.464Zm-24.33-4.668-1.667-4.784-1.682 4.784h3.35Zm3.698 4.29c.073.189-.043.378-.246.378h-1.508c-.218 0-.348-.101-.421-.305l-.855-2.464h-4.684l-.857 2.464c-.072.204-.203.305-.42.305h-1.42c-.189 0-.32-.19-.247-.378l3.93-10.929c.072-.203.203-.29.42-.29h1.943c.218 0 .363.087.435.29l3.93 10.929Zm11.264-1.188c.928 0 1.552-.449 2.06-1.217l-2.35-2.523c-.899.508-1.479 1.014-1.479 2.03 0 1 .812 1.71 1.77 1.71Zm.653-8.495c-.754 0-1.189.48-1.189 1.117 0 .493.26.928.855 1.566 1.03-.595 1.465-.957 1.465-1.595 0-.595-.377-1.088-1.131-1.088ZM63 34.907c.188.203.072.406-.16.406h-1.842c-.247 0-.377-.059-.537-.247l-1.102-1.217c-.74.986-1.77 1.725-3.48 1.725-2.117 0-3.785-1.276-3.785-3.464 0-1.683.9-2.581 2.262-3.335-.667-.768-.971-1.58-.971-2.29 0-1.798 1.261-3.03 3.16-3.03 1.944 0 3.133 1.146 3.133 2.841 0 1.45-1.044 2.261-2.146 2.87l1.624 1.755.914-1.595c.116-.189.246-.261.478-.261h1.406c.233 0 .363.16.219.406l-1.625 2.783L63 34.907Zm-14.472.406c.188 0 .32-.131.32-.32v-9.35h3.175c.188 0 .319-.13.319-.318v-1.29c0-.189-.13-.32-.32-.32h-8.454a.305.305 0 0 0-.319.32v1.29c0 .188.13.319.319.319h3.175v9.35c0 .188.131.319.32.319h1.465Z" fill="#000"/>
  <path d="M5.61 40.953A14.493 14.493 0 0 0 14.507 44c3.665 0 7.006-1.36 9.556-3.594.03-.028.016-.046-.015-.028-1.144.765-4.405 2.433-9.541 2.433-4.463 0-7.284-.996-8.876-1.885-.03-.015-.042.008-.02.026Zm9.88.74c3.57 0 7.493-.972 9.839-2.899.642-.524 1.253-1.223 1.801-2.162.315-.54.624-1.182.875-1.812.011-.031-.008-.046-.031-.011-2.182 3.21-8.5 5.213-15.023 5.213-4.61 0-9.572-1.475-11.514-4.29-.02-.026-.039-.015-.027.015 1.81 3.846 7.299 5.947 14.08 5.947Zm-3.9-6.38c-7.424 0-10.925-3.457-11.56-5.817-.007-.034-.03-.027-.03.004 0 .794.08 1.82.216 2.5.066.331.335.851.73 1.265 1.798 1.874 6.28 4.5 14.042 4.5 10.576 0 12.994-3.523 13.488-4.681.353-.829.536-2.326.536-3.584 0-.304-.008-.547-.02-.786 0-.039-.022-.042-.03-.004-.528 2.834-9.564 6.603-17.372 6.603ZM1.398 23.28c-.425.845-.897 2.269-1.037 3.006-.061.316-.035.468.076.703.89 1.888 5.39 4.91 15.89 4.91 6.405 0 11.38-1.574 12.187-4.446.148-.529.156-1.087-.034-1.839-.214-.84-.613-1.82-.95-2.508-.012-.023-.031-.02-.027.007.125 3.767-10.378 6.194-15.677 6.194-5.74 0-10.53-2.287-10.53-5.175 0-.278.058-.555.13-.844.007-.026-.016-.03-.028-.008Zm22.687-4.624a.586.586 0 0 1 .092.335c0 1.61-4.931 4.461-12.78 4.461-5.767 0-6.847-2.14-6.847-3.5 0-.486.186-.984.597-1.49.023-.03.003-.041-.022-.019-.75.635-1.438 1.35-2.042 2.12-.289.365-.468.689-.468.882 0 2.82 7.07 4.864 13.681 4.864 7.044 0 10.188-2.3 10.188-4.32 0-.722-.281-1.144-1-1.961a17.08 17.08 0 0 0-1.376-1.391c-.023-.019-.038-.004-.023.02Zm-2.159-1.61A14.345 14.345 0 0 0 14.506 15c-2.74 0-5.341.767-7.523 2.105-.654.403-1.023.725-1.023 1.14 0 1.223 2.859 2.538 7.93 2.538 5.018 0 8.91-1.44 8.91-2.827 0-.33-.289-.562-.874-.912Z" fill="#00A8E0"/>
</svg>