<svg width="95" height="22" fill="none" xmlns="http://www.w3.org/2000/svg"><path d="M14.85 13.288a7.447 7.447 0 00-2.634-9.35 56.294 56.294 0 013.85-3.603 33.553 33.553 0 00-4.516 3.218A7.447 7.447 0 002.46 15.01c-1.425 3.085-1.65 5.56-.418 6.396 1.347.896 4.273-.732 6.05-3.377 0 0-2.717 2.448-4.208 1.887-.918-.347-.918-1.755-.165-3.768a7.447 7.447 0 009.636-.704l.264.495c3.245-.264 12.93-.523 12.93-.523-.021-.456-6.434-.016-11.698-2.128zm-13.299-3.14a6.556 6.556 0 019.268-5.963 35.705 35.705 0 00-7.926 9.939 6.523 6.523 0 01-1.342-3.976zm6.55 6.55a6.523 6.523 0 01-4.053-1.402c1.298-2.927 3.938-6.854 7.54-10.693a6.55 6.55 0 012.437 8.333 11.97 11.97 0 01-3.113-2.03l1.975 3.707a6.53 6.53 0 01-4.785 2.085zM59.268 9.466l1.21-1.612h-4.224l1.04-1.38h4.229l1.215-1.612h-8.437l-5.802 7.7h8.437l1.21-1.611h-4.224l1.117-1.485h4.229zM65.126 4.862l-5.803 7.7h4.213l5.797-7.7h-4.207zM79.15 4.862l-2.942 3.905-.902-3.905h-3.29l-5.802 7.7h2.783l2.915-3.866.897 3.866h3.322l5.802-7.7H79.15zM92.912 4.862h-6.765a3.537 3.537 0 00-2.833 1.414l-3.492 4.636a1.034 1.034 0 00.82 1.655h6.764a3.54 3.54 0 002.838-1.413l.842-1.1h.979l1.22-1.65h-5.18l-1.65 2.173a.918.918 0 01-.737.368h-1.194a.27.27 0 01-.27-.27c0-.057.02-.114.056-.159l2.75-3.685a.914.914 0 01.737-.368h1.193a.27.27 0 01.27.27.28.28 0 01-.055.159l-.451.6h4.201l.743-.99a1.03 1.03 0 00-.825-1.65l.038.01zM50.847 5.896a1.028 1.028 0 00-1.028-1.028h-6.765a3.542 3.542 0 00-2.838 1.413l-3.492 4.637a1.034 1.034 0 00.825 1.65h6.764a3.54 3.54 0 002.838-1.414l3.493-4.636c.134-.18.206-.398.203-.622zm-4.702 1.007l-2.75 3.68a.912.912 0 01-.737.368h-1.215a.27.27 0 01-.215-.43l2.75-3.684a.93.93 0 01.737-.369h1.193a.27.27 0 01.27.27.28.28 0 01-.055.16l.022.005z" fill="#5A6978"/><path d="M34.936 8.899a3.537 3.537 0 002.046-1.326l.803-1.061a1.029 1.029 0 00-.825-1.65h-8.536l-5.802 7.7h8.833a3.543 3.543 0 002.838-1.414l.82-1.1a.831.831 0 00-.17-1.16l-.007.01zm-3.905 1l-.522.694a.919.919 0 01-.737.368H28.05l1.1-1.485h1.65a.27.27 0 01.27.27c0 .058-.02.114-.055.16l.016-.006zm2.255-2.991l-.445.588a.924.924 0 01-.737.363h-1.722l1.04-1.38h1.65a.27.27 0 01.27.27.281.281 0 01-.056.159z" fill="#5A6978"/></svg>