<svg width="95" height="52" fill="none" xmlns="http://www.w3.org/2000/svg">
  <path d="M14.85 33.288a7.447 7.447 0 00-2.635-9.35 56.293 56.293 0 013.85-3.603 33.553 33.553 0 00-4.515 3.218A7.448 7.448 0 002.458 35.01c-1.424 3.085-1.65 5.56-.418 6.396 1.348.897 4.274-.731 6.05-3.377 0 0-2.717 2.447-4.207 1.886-.919-.346-.919-1.754-.165-3.767a7.447 7.447 0 009.636-.704l.264.495c3.245-.264 12.93-.523 12.93-.523-.022-.456-6.435-.016-11.698-2.128zm-13.3-3.14a6.556 6.556 0 019.268-5.963 35.706 35.706 0 00-7.925 9.939 6.523 6.523 0 01-1.342-3.977zm6.551 6.55a6.523 6.523 0 01-4.053-1.403c1.298-2.925 3.938-6.853 7.54-10.692a6.55 6.55 0 012.437 8.333 11.969 11.969 0 01-3.113-2.03l1.974 3.708a6.53 6.53 0 01-4.785 2.084zM59.268 29.466l1.21-1.612h-4.224l1.04-1.38h4.229l1.215-1.612h-8.437l-5.802 7.7h8.437l1.21-1.611h-4.224l1.117-1.485h4.229zM65.126 24.862l-5.803 7.7h4.213l5.797-7.7h-4.207zM79.15 24.862l-2.942 3.905-.902-3.905h-3.29l-5.802 7.7h2.783l2.915-3.866.897 3.866h3.322l5.802-7.7H79.15zM92.911 24.862h-6.765a3.536 3.536 0 00-2.832 1.414l-3.493 4.636a1.034 1.034 0 00.82 1.655h6.765a3.54 3.54 0 002.838-1.413l.841-1.1h.98l1.22-1.65h-5.18l-1.65 2.173a.919.919 0 01-.738.368h-1.193a.27.27 0 01-.27-.27c0-.057.02-.114.055-.159l2.75-3.685a.913.913 0 01.737-.368h1.194a.27.27 0 01.27.27.28.28 0 01-.056.159l-.45.6h4.201l.743-.99a1.028 1.028 0 00-.825-1.65l.038.01zM50.847 25.896a1.028 1.028 0 00-1.028-1.028h-6.765a3.54 3.54 0 00-2.838 1.413l-3.492 4.637a1.034 1.034 0 00.825 1.65h6.764a3.54 3.54 0 002.838-1.414l3.493-4.636c.134-.18.206-.398.203-.622zm-4.702 1.007l-2.75 3.68a.912.912 0 01-.737.368h-1.215a.27.27 0 01-.215-.43l2.75-3.684a.93.93 0 01.737-.369h1.193a.27.27 0 01.27.27.28.28 0 01-.055.16l.022.005z" fill="#0033A1"/>
  <path d="M34.936 28.899a3.536 3.536 0 002.046-1.326l.803-1.061a1.028 1.028 0 00-.825-1.65h-8.536l-5.802 7.7h8.833a3.543 3.543 0 002.838-1.414l.82-1.1a.831.831 0 00-.17-1.16l-.007.01zm-3.905 1l-.522.694a.919.919 0 01-.737.368H28.05l1.1-1.485h1.65a.27.27 0 01.27.27c0 .058-.02.114-.055.16l.016-.006zm2.255-2.991l-.445.588a.922.922 0 01-.737.363h-1.722l1.04-1.38h1.65a.27.27 0 01.27.27.281.281 0 01-.056.159z" fill="#0033A1"/>
</svg>