<svg xmlns="http://www.w3.org/2000/svg" height="800" width="1200" viewBox="-11.94372 -9.26035 103.51224 55.5621"><path d="M19.7908 7.1438c-7.2493 0-11.6943 5.6618-11.6943 11.3768 0 6.8791 5.6092 11.3768 11.7472 11.3768 4.0744 0 7.9375-1.799 11.2181-4.7093v8.5196c-3.4396 2.0637-8.1491 3.3337-11.8004 3.3337C8.7842 37.0414 0 28.5221 0 18.5208 0 7.9378 8.8368.0003 19.3143.0003c4.0217 0 8.7313 1.217 11.8002 2.7516v8.3606c-3.8627-2.54-7.7783-3.9687-11.3237-3.9687zm33.5439 29.8973c-10.5301 0-19.4199-8.202-19.4199-18.5205C33.9148 8.0963 42.752 0 53.8112 0c4.0214 0 8.9959 1.0583 12.065 2.487v8.3077C62.384 8.784 57.8861 7.1435 53.97 7.1435c-7.249 0-11.959 5.6618-11.959 11.3768 0 6.7202 5.5563 11.5888 12.065 11.5888 1.3756 0 2.6986-.1059 4.3922-.7411v-6.667H52.542v-7.038h13.5464v18.7323c-3.8637 1.7465-8.2023 2.6458-12.7537 2.6458zm18.6703-.7408V.7408h7.6198v35.5595z" fill="#e11937"/></svg>