<?xml version="1.0" encoding="utf-8"?>
<!-- Generator: Adobe Illustrator 27.5.0, SVG Export Plug-In . SVG Version: 6.00 Build 0)  -->
<svg version="1.1" id="Layer_1" xmlns="http://www.w3.org/2000/svg" xmlns:xlink="http://www.w3.org/1999/xlink" x="0px" y="0px"
	 viewBox="0 0 451.1 138.5" style="enable-background:new 0 0 451.1 138.5;" xml:space="preserve">
<style type="text/css">
	.st0{fill:#1565C0;}
</style>
<g>
	<path class="st0" d="M190.5,82.9c-4.1,3.5-7.5,5.2-11.4,5.2c-2.8,0-5.7-1.3-7.4-3.5c-2.1-2.7-3.2-7.7-3.2-16
		c0-14.8,3.3-21.2,10.7-21.2c3,0,6.7,1.8,10,5l8.1-10.9c-2.7-2.4-3.8-3.2-6.2-4.4c-3.4-1.9-8-2.8-12.2-2.8c-5.3,0-11.5,1.8-15.7,4.7
		c-7.4,5-13,14.7-13,29.3c0,20.5,10.1,32.6,27.6,32.6c6.1,0,11-1.3,15.5-3.9l0,0c2.2-1.4,3.3-2.2,5.7-4.8l-7.5-10L190.5,82.9z"/>
	<path class="st0" d="M227.6,34.7c-17,0-28.4,13.2-28.4,33.2c0,19.9,11.2,32.8,28.4,32.8c9.8,0,16.1-3.3,20.9-8.8h0
		c5.4-6.2,7.9-13.6,8-24.5c0-10.2-2.2-17.2-7.3-23.1C243.7,37.8,236.6,34.7,227.6,34.7z M228.1,88.6c-3.3,0-7-1.7-8.4-5.2
		c-1.3-3.3-2.1-8.7-2.1-16c0-6.3,0.6-10.7,1.7-14.1c1.3-4,4.6-6.4,8.5-6.4c3,0,5.5,1.3,7.2,3.3h0c2.2,2.9,3.3,8.4,3.4,17
		C238.4,82.1,235.3,88.6,228.1,88.6z"/>
	<path class="st0" d="M311,34.5l-15.8,3.3v44.5c-1.3,3.1-6.2,6.1-10.3,6.1c-2.5,0-5-1.3-5.8-3c-0.8-1.7-1.3-4.7-1.3-10.4V34.3
		l-16.4,3.1V78c0,6.4,0.4,9.8,1.3,12.6c2.1,6.1,9.8,10.3,18.6,10.3c6.7,0,12.7-2.1,16.7-6.1c1.1,2.7,2.9,4.7,5,6.2l0,0l11.8-6.7
		c-2.5-3-3.9-7.2-3.9-11.5V34.5z"/>
	<path class="st0" d="M365,38.5c-3.5-2.4-8.1-3.8-12.5-3.8c-6.4,0-12.8,2.4-15.6,5.9c-0.2-2-0.5-3.7-1.1-5.9L321,37.3
		c0.8,5.3,1,7.7,1,16v73.2l16-4.2v-19.8c0-1.8,0-3.7-0.2-5.2c3.6,2.1,8.3,3.3,13.2,3.3c7,0,12.7-2.6,17-7.2c6.6-7.1,8.8-14,8.8-27.6
		C376.7,51.3,371.8,43.1,365,38.5z M347.3,87.5c-3.3,0-7-1.9-9.2-3.7V53c3-3.1,7-4.8,11-4.8s6.7,1.9,7.9,5.3v0
		c1.1,3.1,1.6,7.9,1.6,13.9C358.7,81.9,355.4,87.5,347.3,87.5z"/>
	<path class="st0" d="M430,78.4l0.4-21.2c0.2-6.8-0.2-8.8-1.1-11.4c-2.5-7.1-9.8-11-20.4-11c-5.9,0-11.1,1.1-17.3,3.7
		c-4.4,1.8-7,3.1-10.3,5.2l7,11.8c6.8-4.6,13-7.2,18.3-7.2c6.1,0,7.4,2.4,7.4,9.4v2.6c-1.3-0.1-2.4-0.1-3.7-0.1
		c-20.1,0-30.4,6.9-30.4,21.8c0,12.6,7.7,19.8,21.8,19.8c5.2,0,9.6-1.3,12.7-3.5c1.3-0.9,2.6-2.1,3.8-3.3c1.6,3.3,5,6.1,8.9,7.7l0,0
		l8.9-10.1C430.4,88.3,429.9,85.3,430,78.4z M413.5,85.2c-2.4,2.7-5.6,4.3-8.7,4.3c-4.2,0-7.3-3.3-7.3-8.3c0-7.5,4-9.6,15.5-9.6h0.7
		L413.5,85.2z"/>
	<path class="st0" d="M140.1,75c-3.4-4.5-14.9-10.6-14.9-10.6c5-0.4,10.6-2.2,10.6-2.2c5-1.7,5.2-4.2,5.2-4.2
		c0.3-2.7-4.5-4.9-4.5-4.9c-5.4-2.9-16.2-4.5-16.2-4.5c4.6-2.5,7.4-4.8,7.4-4.8c4.7-4.1,3.4-6.1,3.4-6.1c-0.7-2.4-5.7-3-5.7-3
		c-4.7-0.6-12.3,0.7-12.3,0.7c2.9-3.8,4-7.2,4-7.2c0.8-2.8-0.3-4.1-0.3-4.1c-1.3-2.2-5.8-1.2-5.8-1.2c-6.6,1.5-11.2,4.6-11.2,4.6
		c0.8-3,0.7-7.3,0.7-7.3c-0.2-1.7-0.5-3.8-2-4.9c-1.9-1.4-4.5-0.2-6.2,0.8c-1.7,1.1-3.2,2.6-4.6,4.1c-0.2,0.3-1.5,1.4-1.5,1.7
		c-0.4-1.6-1-3.2-1.6-4.7c-0.9-2.3-3.3-5.1-6-5.2c-2.7,0.1-5,2.9-6,5.2c-0.6,1.5-1.2,3.1-1.6,4.7c0-0.3-1.2-1.4-1.5-1.7
		c-1.3-1.5-2.8-3-4.6-4.1s-4.3-2.2-6.2-0.8c-1.4,1-1.8,3.2-2,4.9c0,0-0.1,4.3,0.7,7.3c0,0-4.5-3-11.2-4.6c0,0-4.5-0.9-5.8,1.2
		c0,0-1.1,1.3-0.3,4.1c0,0,1,3.5,4,7.2c0,0-7.7-1.3-12.3-0.7c0,0-5.1,0.6-5.7,3c0,0-1.3,2,3.4,6.1c0,0,2.8,2.3,7.4,4.8
		c0,0-10.8,1.6-16.2,4.5c0,0-4.9,2.2-4.5,4.9c0,0,0.2,2.5,5.2,4.2c0,0,5.6,1.8,10.6,2.2c0,0-11.6,6.1-14.9,10.6c0,0-2.7,2.7-2,5.2
		c0,0,0.6,3.1,8.8,2.6c0,0,6.4-0.4,14.2-2.7c0,0,0,0,0,0s-7.7,8.7-10,13.4c0,0-5,7.9-2,11c0,0,1.4,1.8,6.9,0.1c0,0,7.8-2.6,16-9.3
		c0,0-3.4,9.5-3.8,17c0,0-0.8,7.3,3,8.8c0,0,3.2,1.6,9.1-4.6c0,0,7.2-7.9,11.3-15.8c0.5,4.4,1.2,8.9,2.3,13.2
		c0.7,2.7,1.6,5.4,2.8,7.9c0.9,1.9,2.3,4.5,4.7,4.6c2.4-0.1,3.8-2.8,4.7-4.6c1.2-2.5,2.1-5.2,2.8-7.9c1.1-4.3,1.9-8.8,2.4-13.2
		c4.1,8,11.3,15.8,11.3,15.8c6,6.2,9.1,4.6,9.1,4.6c3.8-1.5,3-8.8,3-8.8c-0.4-7.5-3.8-17-3.8-17c8.2,6.7,16,9.3,16,9.3
		c5.5,1.7,6.9-0.1,6.9-0.1c3-3.1-2-11-2-11c-2.2-4.7-10-13.4-10-13.4s0,0,0,0c7.8,2.3,14.2,2.7,14.2,2.7c8.2,0.6,8.8-2.6,8.8-2.6
		C142.8,77.7,140.1,75,140.1,75L140.1,75z M126.6,74c0,0-1.2,4.7-19.2-0.6c0,0-10.1-3.2-14.5-5.7c0,0,9.2,15.7,10.1,28.2
		c0,0,0.6,6.1-2.3,7.2c0,0-3.2,1.4-9.7-6.8c0,0-7.8-9.5-12.4-23.5c-4.6,14-12.4,23.5-12.4,23.5c-6.5,8.2-9.7,6.8-9.7,6.8
		c-2.9-1.1-2.3-7.2-2.3-7.2c0.9-12.5,10.1-28.2,10.1-28.2C60.1,70.3,50,73.4,50,73.4c-17.9,5.3-19.1,0.6-19.1,0.6
		c-1.4-3.8,8.9-9.9,8.9-9.9c7.9-5.2,19.9-8.9,19.9-8.9c-14-4-19.2-8.8-19.2-8.8c-4.3-3.7-2.9-5.4-2.9-5.4c2.2-3.7,14.5-1.4,14.5-1.4
		c9.1,1.7,14,4.1,14,4.1c-3.8-7-4.7-13-4.7-13c-1.2-7.7,2.1-8.3,2.1-8.3c2.5-0.8,6,2.6,6,2.6c6.9,7.1,9.2,14.2,9.2,14.2
		S81.1,32.1,88,25c0,0,3.6-3.5,6-2.6c0,0,3.3,0.7,2.1,8.3c0,0-0.9,6-4.7,13c0,0,4.9-2.4,14-4.1c0,0,12.3-2.3,14.5,1.4
		c0,0,1.4,1.7-2.9,5.4c0,0-5.2,4.8-19.2,8.8c0,0,12,3.8,19.9,8.9C117.7,64.2,128,70.2,126.6,74L126.6,74z"/>
</g>
</svg>
