<svg id="Layer_1" data-name="Layer 1" xmlns="http://www.w3.org/2000/svg" width="692" height="343.48" viewBox="0 0 692 343.48"><defs><style>.cls-1{fill:#d82128;}</style></defs><title>delivery-hero-logo</title><path class="cls-1" d="M161,501.1H139.83l16.57-72.68,23.08-7.95Z" transform="translate(-4 -178.26)"/><path class="cls-1" d="M115.53,459.47c-5.06,0-8,3.93-9.16,8.49,10,0,13.06-2.94,13.06-5.37C119.43,460.88,117.79,459.47,115.53,459.47ZM104,480.69a10.36,10.36,0,0,0-.22,1.91c0,3.24,2.36,4.35,8.63,4.35a69.38,69.38,0,0,0,18.22-2.82V499c-5.93,2-15.21,3.13-22.66,3.13-17.47,0-25.88-4.45-25.88-19.3,0-14.57,7.22-37.3,35.07-37.3,17.68,0,23,7.49,23,15.37C140.12,471.08,130.74,479.77,104,480.69Z" transform="translate(-4 -178.26)"/><path class="cls-1" d="M199.44,442.9c-7.21,0-11.85-4.34-11.85-10.31,0-7.78,5.82-12.13,13-12.13s11.87,4.35,11.87,10.21C212.5,438.56,206.78,442.9,199.44,442.9Z" transform="translate(-4 -178.26)"/><path class="cls-1" d="M184.6,447.33h21.78l-11,53h-22l7.76-37.19" transform="translate(-4 -178.26)"/><path class="cls-1" d="M269.15,447.33a434.09,434.09,0,0,1-26.43,53h-27a235.56,235.56,0,0,1-4.53-53h22a231.79,231.79,0,0,0,.2,25.87c.12,2.23.34,4.35.55,6.48h.12c1-2.13,2-4.25,3-6.48,3.77-8.7,7.22-18.17,9.83-25.87Z" transform="translate(-4 -178.26)"/><path class="cls-1" d="M298.6,459.47c-5.06,0-8,3.93-9.19,8.49,10,0,13.07-2.94,13.07-5.37C302.48,460.88,300.87,459.47,298.6,459.47Zm-11.54,21.22a12.44,12.44,0,0,0-.23,1.91c0,3.24,2.39,4.35,8.64,4.35a69.39,69.39,0,0,0,18.23-2.82V499c-5.94,2-15.21,3.13-22.65,3.13-17.48,0-25.9-4.45-25.9-19.3,0-14.57,7.23-37.3,35.07-37.3,17.69,0,23,7.49,23,15.37C323.18,471.08,313.81,479.77,287.06,480.69Z" transform="translate(-4 -178.26)"/><path class="cls-1" d="M365.49,466a26.43,26.43,0,0,0-5.3-.62c-4.86,0-8.74,4.56-10.47,12.95l-4.51,21.94h-22l11-53h16.51l.53,7.06c5.07-5.85,9.07-8.89,15.21-8.89a21.67,21.67,0,0,1,5.06.4Z" transform="translate(-4 -178.26)"/><path class="cls-1" d="M434.29,447.33c-9.71,23.65-18.33,40.94-27,52.87-12.52,17.49-23.52,21.54-34.86,21.54a23.55,23.55,0,0,1-8.63-1.63l3.46-15.26h7.55c3.78,0,5.39-1.43,7.88-4.55-4.21-14.25-6.26-34.16-6.05-53H398.8a217.35,217.35,0,0,0,.22,25.58c.11,2.31.31,4.54.52,6.77h.12c1-2.13,2-4.25,3-6.58a246,246,0,0,0,9.59-25.77Z" transform="translate(-4 -178.26)"/><path class="cls-1" d="M518.89,500.3H495.68l5.5-26.7H481.54L476,500.3H452.86l14.66-70.56h23.2l-5.28,25.18h19.63l5.29-25.18h23.18Z" transform="translate(-4 -178.26)"/><path class="cls-1" d="M564.61,459.47c-5.08,0-8,3.93-9.16,8.49,10,0,13.06-2.94,13.06-5.37C568.51,460.88,566.87,459.47,564.61,459.47Zm-11.54,21.22a11.28,11.28,0,0,0-.21,1.91c0,3.24,2.37,4.35,8.62,4.35a69.32,69.32,0,0,0,18.23-2.82V499c-5.93,2-15.21,3.13-22.65,3.13-17.48,0-25.89-4.45-25.89-19.3,0-14.57,7.22-37.3,35.05-37.3,17.71,0,23,7.49,23,15.37C589.22,471.08,579.81,479.77,553.07,480.69Z" transform="translate(-4 -178.26)"/><path class="cls-1" d="M631.48,466a25.76,25.76,0,0,0-5.27-.62c-4.86,0-8.74,4.56-10.47,12.95l-4.53,21.94h-22l11-53h16.5l.54,7.06c5.07-5.85,9-8.89,15.2-8.89a21.9,21.9,0,0,1,5.08.4Z" transform="translate(-4 -178.26)"/><path class="cls-1" d="M667.63,461.78c-8.85,0-11.22,12.64-11.22,18.3,0,4.55,2.05,5.86,6.05,5.86,8.72,0,11-12.64,11-18.39C673.45,463.11,671.52,461.78,667.63,461.78Zm-8.21,40.33c-17.15,0-25.55-6.88-25.55-20.62,0-15.26,8.08-36,36.57-36,17,0,25.56,7.08,25.56,20.64C696,481.7,687.91,502.11,659.42,502.11Z" transform="translate(-4 -178.26)"/><path class="cls-1" d="M34.85,483.52H30.53l7.76-37.21h6.05c9.17,0,12.51,5.08,12.51,12C56.85,472.4,48.53,483.52,34.85,483.52Zm20.56-35.89,14.66-13.19c-5.72-3.22-13.57-4.7-23.37-4.7h-28L4,500.3H33.24c34,0,47.55-22.24,47.55-45.38,0-6-1.38-10.83-4.05-14.56Z" transform="translate(-4 -178.26)"/><path class="cls-1" d="M449.76,269.78l-.17.08-28.31,10.83-.87.37-6.9,29.55a1.72,1.72,0,0,1-2.77.4l-20.62-22.85-.11-.07L273.68,334.86a.72.72,0,0,1-.32.08.77.77,0,0,1-.79-.74.72.72,0,0,1,.32-.58l100.58-70.54-12.73-27.23c-.63-1.24.54-2.56,2.09-2.19h0l30.82,7.11,23.93-20h0a1.7,1.7,0,0,1,2.7,1l2.34,30,27.59,15.13A1.55,1.55,0,0,1,449.76,269.78Zm-14.06-85.7c-35.71-13.13-75-3.27-99.21,22L241.94,301c-1.28,1.28-.68,2.88.87,3.09L268,305.49c2,.12,2.27,1.75,1.25,2.86l-61.58,62.24c-1.07,1.08.22,2.77,1.69,2.34l87.92-26c1.86-.6,3.29,1,2.5,2.32L288,368.7c-.61,1.11.53,2.63,2,2.53l126.75-26.45c30.29-4.5,57.33-23.44,69.35-52.12C504.23,249.62,481.62,201,435.7,184.08Z" transform="translate(-4 -178.26)"/></svg>
