<svg width="97" height="21" fill="none" xmlns="http://www.w3.org/2000/svg"><path d="M89.876 16.73a2.465 2.465 0 114.929 0 2.465 2.465 0 01-4.929 0zM11.255 10.202c0-1.561-.301-2.72-.905-3.474-.604-.754-1.52-1.13-2.75-1.13H6.291v9.548h1.002c1.367 0 2.368-.405 3.006-1.219.637-.811.956-2.053.956-3.725zm4.668-.162c0 2.844-.764 5.036-2.294 6.575-1.529 1.54-3.679 2.31-6.45 2.31H1.794V1.877h5.76c2.673 0 4.736.7 6.19 2.099 1.453 1.399 2.18 3.42 2.18 6.063zM30.84 18.924h4.284V1.806H30.84v17.118zM41.144 12.539c0 1.091.142 1.923.427 2.495.285.573.763.86 1.435.86.665 0 1.135-.287 1.409-.86.274-.572.41-1.404.41-2.495 0-1.086-.138-1.905-.416-2.458-.278-.554-.752-.832-1.425-.832-.657 0-1.128.277-1.413.826-.285.55-.427 1.37-.427 2.464zm8.042 0c0 2.079-.545 3.701-1.638 4.864-1.092 1.163-2.62 1.745-4.585 1.745-1.885 0-3.385-.595-4.498-1.785-1.115-1.19-1.673-2.797-1.673-4.824 0-2.073.546-3.684 1.639-4.832 1.093-1.149 2.625-1.723 4.598-1.723 1.22 0 2.298.266 3.232.797.935.532 1.657 1.293 2.164 2.284.508.99.761 2.149.761 3.474zM50.888 18.923h4.286V6.21h-4.286v12.714zM50.888 4.67h4.286V1.806h-4.286v2.866zM63.856 15.68c.578 0 1.268-.147 2.071-.438v3.199a8.279 8.279 0 01-1.649.543 9.076 9.076 0 01-1.836.164c-1.439 0-2.476-.362-3.113-1.084-.634-.722-.952-1.83-.952-3.326V9.497h-1.5V6.21h1.5V2.963l4.319-.752V6.21h2.734v3.287h-2.735v4.949c0 .823.388 1.234 1.161 1.234zM73.775 15.68c.578 0 1.267-.147 2.071-.438v3.199a8.263 8.263 0 01-1.649.543 9.07 9.07 0 01-1.836.164c-1.439 0-2.476-.362-3.112-1.084-.635-.722-.953-1.83-.953-3.326V9.497h-1.502V6.21h1.502V2.913l4.317-.702V6.21h2.736v3.287h-2.736v4.949c0 .823.388 1.234 1.162 1.234zM81.253 10.99c.059-.697.258-1.207.597-1.532.341-.326.762-.488 1.266-.488.55 0 .986.182 1.31.55.325.366.495.856.509 1.47h-3.682zm6.044-3.507c-1.019-.999-2.464-1.499-4.334-1.499-1.965 0-3.477.575-4.537 1.723-1.06 1.148-1.59 2.796-1.59 4.943 0 2.08.573 3.683 1.716 4.809 1.143 1.125 2.75 1.689 4.817 1.689.993 0 1.848-.068 2.564-.203a7.418 7.418 0 002.07-.722l-.66-2.866c-.485.199-.947.351-1.384.452a9.19 9.19 0 01-2.076.22c-.826 0-1.478-.202-1.956-.606-.478-.405-.732-.962-.761-1.673h7.66v-1.952c0-1.878-.51-3.317-1.53-4.315zM21.61 10.99c.059-.697.258-1.207.597-1.532.34-.326.762-.488 1.267-.488.548 0 .984.182 1.309.55.326.366.495.856.51 1.47H21.61zm6.044-3.507c-1.019-.999-2.463-1.499-4.334-1.499-1.966 0-3.477.575-4.537 1.723-1.059 1.148-1.59 2.796-1.59 4.943 0 2.08.573 3.683 1.717 4.809 1.143 1.125 2.748 1.689 4.816 1.689.993 0 1.848-.068 2.564-.203a7.432 7.432 0 002.07-.722l-.66-2.866c-.485.199-.947.351-1.383.452a9.207 9.207 0 01-2.077.22c-.825 0-1.477-.202-1.955-.606-.479-.405-.733-.962-.762-1.673h7.66v-1.952c0-1.878-.51-3.317-1.529-4.315z" fill="#5A6978"/></svg>