<svg width="81" height="21" fill="none" xmlns="http://www.w3.org/2000/svg"><path d="M37.735 6.033a.763.763 0 00-.79.735v3.852a4.268 4.268 0 00-5.992.656 4.312 4.312 0 00-.936 2.675 4.26 4.26 0 004.187 4.334 4.259 4.259 0 004.334-4.187V6.821a.788.788 0 00-.228-.561.844.844 0 00-.575-.227zm-1.003 8.948a2.698 2.698 0 01-1.418 1.431 2.65 2.65 0 01-3.491-1.418 2.656 2.656 0 010-2.073 2.65 2.65 0 011.404-1.418 2.689 2.689 0 012.087 0c.642.281 1.15.79 1.418 1.431a2.59 2.59 0 010 2.047zM46.63 10.941a4.263 4.263 0 00-6.02 0 4.252 4.252 0 00-1.243 3.01 4.26 4.26 0 004.187 4.334 4.26 4.26 0 004.333-4.187v-.147c0-.562-.107-1.11-.32-1.632a4.063 4.063 0 00-.937-1.378zm-.549 4.026a2.623 2.623 0 01-.575.843c-.24.24-.535.441-.842.575a2.674 2.674 0 01-3.505-1.418 2.656 2.656 0 010-2.073 2.674 2.674 0 013.505-1.418c.32.134.602.335.842.575.241.241.442.535.575.843.281.682.281 1.431 0 2.073zM64.246 10.473a.795.795 0 00-.067-.307 1.074 1.074 0 00-.174-.254.856.856 0 00-.254-.174.793.793 0 00-.308-.067.83.83 0 00-.428.12l-4.548 2.956V6.835a.8.8 0 00-.79-.803.802.802 0 00-.801.79v10.58c0 .214.08.415.227.562.147.16.348.24.562.24.214 0 .414-.08.561-.24a.736.736 0 00.228-.562V14.66l.923-.602 3.518 3.946a.725.725 0 00.535.2.61.61 0 00.307-.066.783.783 0 00.254-.174c.067-.08.134-.16.174-.254.04-.094.067-.2.067-.308a.83.83 0 00-.214-.548l-3.264-3.679 3.184-2.073a.683.683 0 00.308-.629zM51.044 12.051c.24-.24.535-.441.856-.575a2.68 2.68 0 011.966-.053c.294.12.575.28.816.495.147.12.334.174.522.174a.72.72 0 00.575-.228.82.82 0 00.227-.575.76.76 0 00-.28-.602 4.014 4.014 0 00-2.783-1.03 4.27 4.27 0 00-4.267 4.267c0 2.354 1.9 4.253 4.24 4.267a4.27 4.27 0 002.796-1.03.798.798 0 00.254-.589.763.763 0 00-.736-.789h-.053a.851.851 0 00-.508.16 2.77 2.77 0 01-.803.496c-.294.107-.615.16-.923.16-.361 0-.709-.067-1.043-.214a2.834 2.834 0 01-.856-.575 2.676 2.676 0 01-.014-3.772c.014.027.014.027.014.013zM80.042 10.219a1.468 1.468 0 00-.535-.321 3.205 3.205 0 00-.709-.16 6.535 6.535 0 00-.722-.04c-.482 0-.976.08-1.431.253-.455.16-.87.402-1.244.696v-.16a.794.794 0 00-.83-.763.79.79 0 00-.762.762v6.942a.794.794 0 00.83.763.79.79 0 00.762-.762v-3.465c0-.361.067-.709.214-1.043.134-.321.32-.602.575-.843.24-.24.535-.441.843-.575a2.797 2.797 0 011.043-.214c.361 0 .709.067 1.043.187.107.054.214.08.335.08a.61.61 0 00.307-.066.783.783 0 00.254-.174.855.855 0 00.174-.254c.04-.094.067-.201.067-.308a.687.687 0 00-.214-.535zM72.659 12.319a4.344 4.344 0 00-3.946-2.622 4.267 4.267 0 00-4.267 4.254 4.27 4.27 0 007.05 3.237l.026-.027a.63.63 0 00.174-.2.81.81 0 00-.2-1.124.788.788 0 00-.977.093c-.027.027-.107.094-.107.107l-.014.014a2.422 2.422 0 01-.762.441c-.294.107-.602.16-.923.147a2.662 2.662 0 01-1.605-.521 2.459 2.459 0 01-.589-.589 2.386 2.386 0 01-.374-.762h6.02c.213 0 .414-.08.56-.228a.692.692 0 00.228-.562 4.338 4.338 0 00-.294-1.658zm-6.514.856c.08-.28.2-.535.374-.762.161-.228.362-.428.59-.589.227-.16.48-.294.748-.388.268-.094.562-.134.843-.134.28 0 .575.04.843.134a2.713 2.713 0 011.337.977c.174.227.294.495.388.762h-5.123zM77.327 17.054a.554.554 0 00-.548.562c0 .308.254.548.562.548a.55.55 0 00.548-.548.557.557 0 00-.562-.562zm0 .99a.434.434 0 11-.04-.87.434.434 0 01.455.415v.027a.409.409 0 01-.401.428h-.014z" fill="#80BFFF"/><path d="M77.461 17.616a.13.13 0 00.107-.134c0-.053-.013-.093-.053-.12a.428.428 0 00-.188-.04c-.067 0-.147 0-.214.013v.549h.12v-.215h.054c.067 0 .107.027.12.08.014.04.027.094.04.135h.134a.259.259 0 01-.04-.134c.014-.054-.026-.107-.08-.134zm-.16-.04h-.067v-.16h.067c.08 0 .12.04.12.08.013.053-.054.093-.12.08zM28.56 7.825c-.081-.067-.803-.616-2.355-.616-.401 0-.816.04-1.217.107-.294-2.046-1.993-3.036-2.06-3.09l-.415-.24-.267.388a5.721 5.721 0 00-.736 1.712c-.28 1.164-.107 2.26.482 3.197-.71.4-1.86.495-2.1.508H.898a.896.896 0 00-.896.896A13.535 13.535 0 00.83 15.57c.655 1.712 1.632 2.983 2.89 3.759 1.417.87 3.731 1.364 6.34 1.364 1.176 0 2.354-.107 3.517-.32a14.52 14.52 0 004.602-1.673 12.598 12.598 0 003.13-2.568c1.51-1.699 2.407-3.598 3.062-5.283h.268c1.645 0 2.662-.656 3.223-1.218.375-.347.656-.775.857-1.257l.12-.348-.28-.2z" fill="#80BFFF"/><path d="M2.663 9.243h2.542c.12 0 .227-.094.227-.228V6.742a.225.225 0 00-.227-.228H2.663a.225.225 0 00-.227.228v2.273c.013.134.107.228.227.228zM6.168 9.243H8.71c.12 0 .227-.094.227-.228V6.742a.225.225 0 00-.227-.228H6.168a.225.225 0 00-.227.228v2.273c.013.134.107.228.227.228zM9.74 9.243h2.541c.12 0 .227-.094.227-.228V6.742a.225.225 0 00-.227-.228H9.74a.225.225 0 00-.228.228v2.273c0 .134.094.228.228.228zM13.257 9.243H15.8c.12 0 .227-.094.227-.228V6.742a.225.225 0 00-.227-.228h-2.542a.225.225 0 00-.227.228v2.273c0 .134.107.228.227.228zM6.168 5.992H8.71c.12 0 .227-.107.227-.227V3.49a.225.225 0 00-.227-.227H6.168a.225.225 0 00-.227.227v2.274c.013.12.107.227.227.227zM9.74 5.992h2.541c.12 0 .227-.107.227-.227V3.49a.225.225 0 00-.227-.227H9.74a.225.225 0 00-.228.227v2.274c0 .12.094.227.228.227zM13.257 5.992H15.8c.12 0 .227-.107.227-.227V3.49a.234.234 0 00-.227-.227h-2.542a.225.225 0 00-.227.227v2.274c0 .12.107.227.227.227zM13.257 2.729H15.8c.12 0 .227-.094.227-.228V.227A.234.234 0 0015.799 0h-2.542a.225.225 0 00-.227.227v2.274c0 .12.107.228.227.228zM16.802 9.243h2.541c.12 0 .228-.094.228-.228V6.742a.225.225 0 00-.228-.228h-2.54a.225.225 0 00-.228.228v2.273c.013.134.107.228.227.228z" fill="#80BFFF"/></svg>