<svg xmlns="http://www.w3.org/2000/svg" xmlns:xlink="http://www.w3.org/1999/xlink" height="800" width="1200" viewBox="-21.81255 -24.17035 189.0421 145.0221"><defs><radialGradient gradientTransform="matrix(-.0478 -1.3249 -1.3581 .04901 139.59 42.0922)" gradientUnits="userSpaceOnUse" id="a" r="27.149" cy="46.591" cx="10.648"><stop offset="0" stop-color="#5aad35"/><stop offset=".6753" stop-color="#438e2f"/><stop offset="1" stop-color="#2c702a"/></radialGradient></defs><path d="M74.219.0002c11.311 0 22.835 2.4362 33.664 7.6738 3.8212 9.1562 5.5675 18.582 5.5675 27.781 0 9.1725-1.7238 18.492-5.5475 27.734-10.871 5.263-22.356 7.676-33.681 7.676-11.319 0-22.799-2.413-33.682-7.676-3.824-9.241-5.543-18.561-5.543-27.734 0-9.1988 1.7412-18.625 5.565-27.781C51.393 2.4362 62.92 0 74.222 0" fill="#247218"/><path d="M42.911 60.9842c-3.1612-7.9238-4.8925-16.536-4.8925-25.529 0-9.0138 1.7338-17.636 4.91-25.579 9.4088-4.4088 20.119-6.8812 31.29-6.8812 11.175 0 21.892 2.4725 31.294 6.8812 3.175 7.9425 4.9112 16.565 4.9112 25.579 0 8.9925-1.7262 17.605-4.8912 25.529-9.4075 4.415-20.129 6.8888-31.314 6.8888-11.179 0-21.9-2.4738-31.308-6.8888" fill="#fcdf17"/><path d="M103.74 59.3292c-1.9775-3.255-4.6338-5.8838-4.6625-5.9088-.0325-.0163-.5525-.1775-.5525-.1775-5.6375-1.7325-9.3325-3.035-10.966-3.8812-2.2475-1.1675-4.6088-4.0012-4.8688-4.32-2.635-.1988-4.815-.1563-6.9125.0975l-1.3362.1737c-2.5475.3288-5.1775.6763-7.755.2625-1.7162-.2812-3.3825-.8275-5.1488-1.4025-2.7212-.8912-5.5088-1.8062-8.6938-1.8012h-.1275l.055.1125c.7238 1.4075 3.5825 5.6788 7.1625 6.8525.79.19 1.3612.4 1.6088.5938 0 .0087 1.37 2.7962 1.7438 3.55-2.2275-1.0112-9.1175-4.515-14.676-11.279v-.01c0-.09-.1437-1.4062-.1737-1.6938 3.31-1.235 10.764-1.9512 11.604-2.0312l.0612-.005.0263-.0675c.445-3.9212 1.3738-7.0588 3.1138-10.495.05-.1038.08-.1988.08-.2813a.3842.3842 0 00-.0425-.17c-.0975-.185-.3363-.2212-.3463-.2212 0 0-4.8125-.84-5.0725-.885a710.6004 710.6004 0 00-.5475-1.6762c3.6562-1.36 8.1638-2.6325 10.744-3.1925.4363-.6963.5588-1.075.5588-1.53 0-.3863-.1863-.715-.5588-.9675-1.8288-1.24-7.5888-.4938-13.416 1.7412-.0125-.0238-.0125-.0288-.03-.0538 1.21-.905 3.3725-2.25 4.9762-2.995l.0625-.035-.0187-.06c-.435-1.4738-3.2812-2.6012-3.6012-2.7162.0062-.05.0112-.0837.0162-.1225 2.8938-.1975 4.8138 1.1562 5.4 2.1212l.03.0475.0575-.0187c.3713-.12 1.6788-.535 3.0938-.7025l.0825-.0038-.0225-.0863c-.465-2.4788-2.8312-4.1338-3.6375-4.6325.0225-.04.03-.055.0525-.0837 2.7938.2162 5.375 2.6225 5.9562 4.6562l.0163.055.0575.005c.75.0262 1.66.11 2.2688.2125l.0625.01.0225-.0525c.2275-.5338.3387-1.1038.3387-1.69 0-1.8312-1.035-3.795-2.3075-5.0362.025-.035.0363-.0675.0688-.0975 3.67 1.3925 4.6038 4.0375 4.6038 6.5 0 1.7238-.4575 3.365-.7525 4.4112l-.1238.4337s5.405-.6525 5.77-.6962c-.55.6962-1.735 1.9362-4.1012 3.2425 0-.0125-2.4388-.3113-2.4388-.3113l-.0637-.01-.0213.0625c-.1637.5038-1.5912 5.0138-1.5988 8.3288 0 1.2288.3475 2.1825 1.0338 2.84 1.2225 1.1762 3.2475 1.2412 4.6625 1.1862 6.0162-.22 10.711.15 13.969 1.1138l.1925.0525.03-.045c.2025-.3112.3613-.8887.3613-1.6538 0-1.4525-.5813-3.6175-2.5363-6.0662.0213-.0175.0213-.03.0463-.0487.3237.1787 5.6012 3.1762 6.3062 7.7012-.1237.0475-2.5288 1.0288-2.5288 1.0288l.0775.0787c2.23 2.335 3 5.1562 3.6175 7.415.4913 1.79 1.0775 2.9338 1.855 3.605.9013.7775 4.3163 2.4075 5.3412 2.8862.8525 1.2112 2.3175 3.4812 3.38 5.2388v-.0037c2.3075-6.8475 3.4875-13.985 3.4875-21.272 0-8.2362-1.5025-16.278-4.44-23.926-9.0937-4.1062-19.275-6.2888-29.499-6.2888-10.225 0-20.395 2.1825-29.491 6.2888-2.9412 7.6488-4.4425 15.69-4.4425 23.926 0 8.2162 1.4988 16.24 4.425 23.885 9.0975 4.1125 19.279 6.285 29.509 6.285 10.235 0 20.416-2.1725 29.512-6.285l.0125-.0112z" fill="url(#a)"/><g transform="translate(0 .0002)" fill="#247218"><path d="M0 93.154s1.7821.6366 3.7775.6366c2.1236 0 3.4499-.2904 4.1908-1.038.614-.6152.8591-1.6444.8253-3.1614v-10.095h3.1436v10.532c-.046 4.663-2.3136 6.653-7.5888 6.653-2.5615 0-4.3482-.404-4.3482-.404v-3.123zm21.845.766c-1.8339 0-4.9197-.5675-4.9197-4.3542 0-2.7157 1.794-4.2745 4.9197-4.2745 3.1256 0 4.9144 1.5588 4.9144 4.2745 0 3.7868-3.0765 4.3542-4.9144 4.3542m-8.052-4.21c0 3.214 2.1097 6.9702 8.052 6.9702 5.9449 0 8.0553-3.7562 8.0553-6.9702 0-4.4977-3.0113-7.1862-8.0553-7.1862-5.0406 0-8.052 2.6884-8.052 7.1862m29.268-6.865v5.3782h-8.1642V82.845h-3.1376v13.52h3.1376v-5.3775h8.1642v5.3775h3.1356v-13.52z"/><path id="b" d="M91.051 93.598v-2.61h7.238v-2.7648h-7.238v-2.61h9.357v-2.7681H87.915v13.52h12.493v-2.7675h-9.357z" fill="#247218"/><path d="M76.705 79.48c6.0101 0 9.6035 3.2074 9.6035 8.5643 0 3.8426-2.5163 8.3211-9.6035 8.3211h-7.5869v-16.885h7.5869m-4.4373 2.7921v11.308h4.4373c2.4073 0 6.4459-.7422 6.4459-5.7071 0-3.5628-2.3489-5.6008-6.4459-5.6008h-4.4373zM126.13 88.659c.6505 0 1.7362-.2053 1.7362-1.5422 0-.9582-.6319-1.5037-1.7362-1.5037h-5.7323v3.0386l5.7323.0072zm5.3582 7.7064h-3.7934l-3.7828-4.9482h-3.6844v4.9482H117.09v-13.52h8.8699c3.0539 0 4.8732 1.6233 4.8732 4.3389 0 1.6279-.9083 3.4572-3.2884 4.028l3.9436 5.1536zM60.047 96.365l-8.1603-9.2161v9.2161h-3.1356v-13.52h3.111l8.1848 9.1244V82.845h3.1409v13.52h-3.1409z"/></g><use xlink:href="#b" height="70.865" width="368.5038" transform="translate(14.589 .0002)"/><use xlink:href="#b" height="70.865" width="368.5038" transform="translate(45.009 .0002)"/></svg>