<svg width="61" height="20" fill="none" xmlns="http://www.w3.org/2000/svg"><path fill-rule="evenodd" clip-rule="evenodd" d="M22.417 15.156h7.253v-2.178h-4.972v-9.69h-2.281v11.868zM34.318 13.114c-1.356-.01-2.315-1.026-2.3-2.435.015-1.403.967-2.376 2.324-2.375 1.37.002 2.314.989 2.307 2.413-.006 1.419-.967 2.406-2.33 2.397zm.024-6.783c-2.533-.009-4.473 1.887-4.472 4.371 0 2.49 1.93 4.382 4.464 4.38 2.549-.001 4.466-1.878 4.466-4.371 0-2.504-1.9-4.371-4.458-4.38zM45.998 10.743c-.017 1.404-.973 2.38-2.328 2.37-1.356-.009-2.316-1.024-2.3-2.434.014-1.403.966-2.376 2.324-2.374 1.36.001 2.298.975 2.304 2.384v.054m-.002-3.817a4.68 4.68 0 00-2.304-.595c-2.533-.009-4.472 1.887-4.472 4.372 0 2.489 1.93 4.382 4.464 4.38.862 0 1.648-.22 2.316-.6v.945c-.006 1.419-.967 2.403-2.33 2.403-1.753 0-2.523-1.697-2.523-1.697l-1.605.974s.922 2.692 4.142 2.692c2.55-.002 4.467-1.878 4.467-4.372V6.325h-2.155v.601M55.349 10.743c-.018 1.405-.973 2.38-2.329 2.37-1.356-.009-2.315-1.024-2.3-2.434.015-1.403.967-2.376 2.324-2.374 1.36.001 2.298.975 2.305 2.383v.055m-.002-3.817a4.68 4.68 0 00-2.304-.595c-2.533-.009-4.472 1.887-4.472 4.372 0 2.489 1.93 4.382 4.464 4.38.862 0 1.649-.22 2.316-.6v.945c-.006 1.419-.966 2.403-2.33 2.403-1.752 0-2.523-1.697-2.523-1.697l-1.604.974s.922 2.692 4.141 2.692c2.55-.002 4.467-1.878 4.467-4.372V6.325h-2.155v.601M60.577 6.325H58.37v8.632h2.206V6.325zM59.474 5.491a1.103 1.103 0 100-2.205 1.103 1.103 0 000 2.205zM18.178 4.95a12.757 12.757 0 00-1.288-.57l-.123-.088s-2.92-2.09-4.208-2.632C11.27 1.118 9.03-.06 6.757.002 4.961.052 3.853.386 3.466.48c-.46.11-.766.24-.263.477.168.08.886.507 1.758 1.004 1.273.727 2.875 1.604 3.57 1.763.667.152 1.765.376 3.167.347 1.6-.034 2.379.649 2.536.898-.286-.407-1.377-.734-2.832-.644-1.4.087-2.525-.007-3.18-.202-1.284-.382-2.66-.955-3.817-1.497-.476.145-.77.267-.947.342-.404.171-.782.478-.215.638.404.114 4.19 1.468 5.292 1.534.626.038 1.654.075 2.919-.164 1.431-.27 2.177.318 2.352.545-.447.68-.74 1.47-.656 2.347-5.234-.923-6.904-1.4-8.086-1.604C2.997 5.908.373 7.658.05 9.826c-.183 1.232.131 2.382.88 3.447.828 1.179 1.918 2.195 2.077 2.411.101.184.068.67.075.998.008.368.47.698.74.722.16.015 3.259.983 3.259.983l4.59 1.413s.07-.317.084-.45c.036-.34-.223-1.178-1.299-1.491-1.583-.477-1.895-.567-2.232-.668-.181-.055-.054-.058.227-.28.48-.407.891-.956 1.101-1.402.937-1.992-.242-3.766-.242-3.766s.736.773 1.012 2.124c.346 1.688-.799 3.027-.799 3.027l.683.198s4.411-4.442 4.842-4.922c.364-.405.997-.66 1.318-.765 1.177-.341 2.648-1 3.022-1.237.374-.237.832-1.073.948-1.28.115-.206.265-.479.295-.786.01-.108-.619-.947-.619-.947s-1.006-1.701-1.835-2.206zM5.34 18.638c-.26.155-.35.567.03.79.337.177 1.47-.444 1.47-.444l-1.137-.358s-.178-.075-.362.012" fill="#80BFFF"/></svg>