<svg xmlns="http://www.w3.org/2000/svg" style="isolation:isolate" viewBox="0 0 176.51 51.47"><defs><clipPath id="a"><path d="M0 0h176.515v51.465H0z"/></clipPath></defs><g clip-path="url(#a)" fill="#24ABE2" fill-rule="evenodd"><path d="M0 46.153h10.787c1.114 0 2.025-.911 2.025-2.025v-18.69l20.135 22.425 20.136-22.425v18.69c0 1.114.911 2.025 2.025 2.025h10.786V6.105h-9.159c-2.647 0-4.62 1.275-5.686 2.461l-18.102 20.16-18.102-20.16C13.78 7.38 11.806 6.105 9.16 6.105H0zm121.126 0h53.364c1.114 0 2.025-.911 2.025-2.025V33.462h-25.947l25.872-27.32h-53.331c-1.113 0-2.025.912-2.025 2.025v10.666h25.914z"/><path d="M95.064 0c16.285 0 29.487 11.383 29.487 25.733 0 14.349-13.202 25.732-29.487 25.732-16.286 0-29.487-11.383-29.487-25.732C65.577 11.383 78.778 0 95.064 0zm0 12.859c7.941 0 14.751 5.764 14.751 12.874 0 7.109-6.604 12.873-14.751 12.873-8.147 0-14.752-5.764-14.752-12.873 0-7.11 6.811-12.874 14.752-12.874z"/></g></svg>