<svg width="55" height="45" fill="none" xmlns="http://www.w3.org/2000/svg"><circle cx="25.561" cy="22.5" r="22.5" fill="#5A6978"/><circle cx="24.233" cy="4.322" r=".252" fill="#fff"/><circle cx="26.822" cy="4.658" r=".252" fill="#fff"/><circle cx="30.219" cy="9.232" r=".252" fill="#fff"/><circle cx="11.587" cy="32.774" r=".252" fill="#fff"/><circle cx="12.243" cy="34.792" r=".252" fill="#fff"/><circle cx="9.115" cy="33.077" r=".189" fill="#fff"/><circle cx="19.373" cy="37.041" r=".189" fill="#fff"/><circle cx="35.461" cy="33.699" r=".189" fill="#fff"/><circle cx="40.137" cy="28.621" r=".189" fill="#fff"/><circle cx="17.22" cy="10.707" r=".189" fill="#fff"/><circle cx="22.366" cy="6.928" r=".189" fill="#fff"/><circle cx="21.807" cy="6.558" r=".189" fill="#fff"/><circle cx="21.303" cy="6.188" r=".189" fill="#fff"/><circle cx="18.027" cy="11.683" r=".189" fill="#fff"/><circle cx="25.607" cy="1.85" r=".189" fill="#fff"/><circle cx="26.852" cy="7.298" r=".189" fill="#fff"/><circle cx="24.888" cy="6.234" r=".189" fill="#fff"/><circle cx="21.525" cy="7.681" r=".189" fill="#fff"/><circle cx="36.357" cy="38.69" r=".189" fill="#fff"/><circle cx="11.267" cy="34.052" r=".189" fill="#fff"/><circle cx="24.418" cy="36.491" r=".189" fill="#fff"/><circle cx="15.181" cy="33.901" r=".189" fill="#fff"/><circle cx="16.817" cy="36.571" r=".189" fill="#fff"/><circle cx="28.857" cy="34.889" r=".189" fill="#fff"/><circle cx="35.495" cy="31.143" r=".189" fill="#fff"/><circle cx="40.527" cy="33.443" r=".189" fill="#fff"/><circle cx="42.243" cy="34.54" r=".189" fill="#fff"/><circle cx="42.525" cy="31.547" r=".189" fill="#fff"/><circle cx="17.502" cy="27.309" r=".189" fill="#fff"/><circle cx="17.573" cy="31.648" r=".252" fill="#fff"/><circle cx="19.087" cy="34.843" r=".252" fill="#fff"/><circle cx="37.215" cy="31.513" r=".252" fill="#fff"/><circle cx="43.739" cy="31.143" r=".252" fill="#fff"/><circle cx="40.511" cy="29.765" r=".252" fill="#fff"/><circle cx="37.215" cy="29.899" r=".252" fill="#fff"/><path d="M30.416 4.164l.627-.06-.626-.036a.278.278 0 00-.239-.231l-.06-.625-.035.63a.277.277 0 00-.214.238l-.642.058.646.035a.278.278 0 00.22.213l.06.643.033-.642a.281.281 0 00.23-.223zM19.83 11.147l.627-.06-.626-.035a.278.278 0 00-.24-.232l-.06-.624-.034.63a.277.277 0 00-.215.237l-.641.058.645.035a.278.278 0 00.221.213l.058.643.035-.642a.279.279 0 00.23-.223zM43.28 29.61l.627-.06-.626-.036a.278.278 0 00-.24-.231l-.06-.625-.035.63a.277.277 0 00-.214.237l-.64.059.645.034a.278.278 0 00.22.213l.059.644.035-.643a.28.28 0 00.228-.223zM17.71 39.263l.628-.06-.626-.035a.278.278 0 00-.239-.232l-.06-.623-.035.628a.277.277 0 00-.215.238l-.641.058.646.035a.277.277 0 00.22.213l.059.644.035-.643a.28.28 0 00.229-.223zM41.287 34.555l.627-.06-.626-.035a.278.278 0 00-.239-.232l-.06-.625-.035.63a.277.277 0 00-.214.237l-.641.058.645.035a.278.278 0 00.221.213l.058.644.035-.643a.278.278 0 00.229-.222z" fill="#fff"/><path fill-rule="evenodd" clip-rule="evenodd" d="M31.346 16.934c4.685-1.839 9.514-4.006 12.578-5.802 2.697-1.582 7.231-4.372 11.066-9.25-2.146 6.24-7.726 10.923-10.317 13.098l-.143.12c-1.829 1.536-4.968 3.834-9.633 6.955a33.326 33.326 0 00-.46-.774c3.079-2.103 8.128-5.877 9.656-7.325-3.206 2.204-7.247 4.024-10.93 5.38a40.87 40.87 0 00-1.817-2.401zm-.45.176c-2.615 1.017-5.167 1.924-7.32 2.598l-.21.066C18.83 21.194 7.118 24.859 0 29.462l.605.235c4.018-2.27 6.754-3.12 9.292-3.909l.73-.228c1.628-.512 5.23-1.415 8.883-2.33 3.067-.769 6.17-1.547 8.17-2.11a74.081 74.081 0 005.05-1.625 45.06 45.06 0 00-1.833-2.385zm3.197 4.405c-.633.428-1.164.77-1.536.985-2.152 1.244-12.646 8.408-15.034 10.056-2.153 1.486-7.758 6.724-10.266 9.068l-.698.651-.067.74c5.662-5.087 7.826-6.724 10.026-8.387l.736-.559c3.095-2.354 9.495-6.71 11.67-8.105a378.406 378.406 0 005.64-3.684 53.895 53.895 0 00-.47-.765z" fill="#5A6978"/><path fill-rule="evenodd" clip-rule="evenodd" d="M15.518 8.342C18.615 5.881 25.8 9.947 31.68 17.35c5.88 7.402 8.079 15.431 5.218 17.704-1.19.946-3.549.569-6.01-.421-.05-.033-.115-.168-.075-.218 2.852 1.284 5.03 1.036 5.742.406 2.328-2.058 1.294-7.102-2.076-12.68a42.616 42.616 0 00-3.101-4.436C25.668 10.517 18.783 6.435 15.93 8.7c-2.269 1.804-1.353 7.117 1.994 12.834l-.009.003-.5.171C14.1 15.84 13.112 10.254 15.518 8.342zm7.148 19.729c-.245-.309-.537-.67-.831-1.033-.302-.372-.606-.749-.867-1.077a39.242 39.242 0 01-1.91-2.618l-.57.143a39.791 39.791 0 003.183 4.297c.266.317.489.583.638.785.047.063.13.187.24.352l.093.138.55-.373c-.179-.195-.355-.4-.526-.614zm3.62 3.286c-.159-.15-.407-.34-.711-.574-.475-.364-1.086-.833-1.713-1.422l-.686.473c.665.936 1.57 2.086 2.278 2.421 1.067.506 1.354-.403.833-.898z" fill="#fff"/><path d="M6.458 18.229h3.767l3.161 5.364v-4.187c0-.471-.597-1.085-.807-1.177h2.606c-.16.042-.672.664-.672 1.177v6.154c0 .379.546.9.807 1.102h-3.632l-3.212-5.39v4.238c0 .42.412.824.84 1.169H6.543c.395-.168.773-.698.807-1.119.034-.42 0-5.843 0-6.079 0-.513-.496-.933-.891-1.253z" fill="#fff"/><path fill-rule="evenodd" clip-rule="evenodd" d="M40.914 26.662h5.011c-.277-.067-.588-.395-.756-.833-.169-.437-2.825-7.6-2.825-7.6h-1.906c-.54.389-1.12.799-1.738 1.231-.001.016-.003.031-.006.046-.083.505-1.574 5.905-1.664 6.172-.099.289-.515.603-.817.831-.085.064-.16.122-.218.17h2.7c-.27-.303-.488-.597-.438-.934.05-.336.202-1.009.202-1.009h2.791c.127.337.22.639.27.925.058.345-.295.732-.606 1zm-2.202-3.002l.941-3.077 1.245 3.077h-2.186zm-.009-5.431l-.416.307c-.103-.114-.206-.207-.279-.274l-.037-.033h.732zM19.322 24.736s-.151.673-.202 1.01c-.05.336.169.63.438.933h-2.7c.058-.048.134-.106.218-.17.302-.228.718-.542.817-.83.09-.268 1.582-5.668 1.665-6.172.088-.538-.459-1.037-.692-1.25l-.032-.029h4.373s2.657 7.164 2.825 7.601c.104.27.261.497.432.648l-.164.11-.11.075h-4.413c.311-.27.665-.656.606-1a5.116 5.116 0 00-.27-.926h-2.79zm2.439-1.076l-1.244-3.077-.942 3.077h2.186zM32.944 21.524c.206.098.422.208.635.334-.408.269-.756.488-1.022.641a50.56 50.56 0 00-1.926 1.213c-.114-.037-.219-.07-.31-.103l-.019-.006c-.894-.312-2.453-.856-2.395-2.819.042-1.413 1.287-2.53 2.733-2.54a14.767 14.767 0 013.01.304c.309.064.644-.286.763-.41l.027-.028v2.17c-.286-.244-1.345-.925-2.489-.942-1.143-.017-1.612.428-1.446.908.16.46.724.651 1.405.882.329.112.684.232 1.034.396zm1.417.891a347.38 347.38 0 01-2.606 1.718c.41.2.737.45.769.772.058.606-1.16.9-2.262.773a2.729 2.729 0 01-.643-.16 337 337 0 01-.694.446c-.238.153-.527.342-.858.56v.87c.219-.43.697-.813 1.068-.833a.492.492 0 01.164.053c.303.125 1.028.425 2.838.326 1.11-.061 3.254-1.245 3.22-2.607-.02-.805-.44-1.433-.996-1.918zm-6.294 2.103v.887l.598-.398a4.407 4.407 0 01-.598-.49z" fill="#fff"/></svg>