<svg width="45" height="37" fill="none" xmlns="http://www.w3.org/2000/svg">
  <path d="M20.917 36.825c10.17 0 18.413-8.244 18.413-18.413C39.33 8.245 31.086 0 20.917 0S2.505 8.244 2.505 18.413c0 10.168 8.243 18.412 18.412 18.412z" fill="#0B3D91"/>
  <path d="M19.83 3.743a.206.206 0 100-.413.206.206 0 000 .413zM21.95 4.018a.206.206 0 100-.412.206.206 0 000 .412zM24.73 7.761a.206.206 0 100-.413.206.206 0 000 .413zM9.482 27.027a.206.206 0 100-.413.206.206 0 000 .413zM10.018 28.678a.206.206 0 100-.413.206.206 0 000 .413zM7.459 27.223a.155.155 0 100-.31.155.155 0 000 .31zM15.854 30.467a.155.155 0 100-.31.155.155 0 000 .31zM29.02 27.732a.155.155 0 100-.31.155.155 0 000 .31zM32.845 23.576a.155.155 0 100-.31.155.155 0 000 .31zM14.092 8.917a.155.155 0 100-.31.155.155 0 000 .31zM18.302 5.824a.155.155 0 100-.31.155.155 0 000 .31zM17.846 5.521a.155.155 0 100-.31.155.155 0 000 .31zM17.432 5.218a.155.155 0 100-.309.155.155 0 000 .31zM14.752 9.715a.155.155 0 100-.309.155.155 0 000 .31zM20.955 1.668a.155.155 0 100-.31.155.155 0 000 .31zM21.974 6.127a.155.155 0 100-.31.155.155 0 000 .31zM20.367 5.256a.155.155 0 100-.31.155.155 0 000 .31zM17.615 6.44a.155.155 0 100-.31.155.155 0 000 .31zM29.752 31.816a.155.155 0 100-.31.155.155 0 000 .31zM9.22 28.021a.155.155 0 100-.31.155.155 0 000 .31zM19.982 30.016a.155.155 0 100-.31.155.155 0 000 .31zM12.423 27.898a.155.155 0 100-.31.155.155 0 000 .31zM13.762 30.082a.155.155 0 100-.31.155.155 0 000 .31zM23.614 28.706a.155.155 0 100-.31.155.155 0 000 .31zM29.046 25.64a.155.155 0 100-.31.155.155 0 000 .31zM33.165 27.522a.155.155 0 100-.31.155.155 0 000 .31zM34.569 28.42a.155.155 0 100-.31.155.155 0 000 .31zM34.8 25.97a.155.155 0 100-.309.155.155 0 000 .31zM14.322 22.503a.155.155 0 100-.31.155.155 0 000 .31zM14.381 26.105a.206.206 0 100-.413.206.206 0 000 .413zM15.62 28.72a.206.206 0 100-.413.206.206 0 000 .413zM30.454 25.995a.206.206 0 100-.413.206.206 0 000 .413zM35.793 25.692a.206.206 0 100-.413.206.206 0 000 .413zM33.15 24.564a.206.206 0 100-.413.206.206 0 000 .413zM30.454 24.674a.206.206 0 100-.413.206.206 0 000 .413zM24.89 3.407l.513-.05-.512-.028a.228.228 0 00-.196-.19l-.049-.51-.029.515a.226.226 0 00-.175.194l-.525.048.528.028c.02.089.091.158.181.174l.048.527.028-.526a.23.23 0 00.188-.182zM16.227 9.122l.514-.05-.513-.028a.227.227 0 00-.195-.19l-.05-.51-.028.514a.226.226 0 00-.176.195l-.525.048.529.028c.02.089.09.158.18.174l.048.527.029-.526a.228.228 0 00.187-.182zM35.417 24.23l.514-.049-.513-.028a.227.227 0 00-.195-.19l-.05-.51-.028.514a.227.227 0 00-.175.195l-.525.047.528.029c.02.088.091.158.181.174l.048.527.028-.526a.229.229 0 00.187-.182zM14.493 32.13l.513-.049-.512-.029a.228.228 0 00-.196-.189l-.049-.51-.029.514a.226.226 0 00-.175.195l-.525.047.528.029c.02.088.091.158.181.174l.048.527.028-.526a.229.229 0 00.188-.183zM33.786 28.277l.514-.05-.513-.028a.227.227 0 00-.195-.19l-.05-.51-.028.514a.227.227 0 00-.175.195l-.525.047.528.029c.02.088.091.158.181.174l.048.527.028-.526a.228.228 0 00.187-.182z" fill="#fff"/>
  <path d="M25.284 14.002c-2.14.832-4.229 1.574-5.99 2.126C15.712 17.248 5.916 20.284 0 24.109l.495.193c3.606-2.037 5.95-2.677 8.202-3.385 2.45-.77 10.368-2.624 13.954-3.633a60.63 60.63 0 004.133-1.33 36.946 36.946 0 00-1.5-1.952zm2.615 3.605c-.518.35-.952.63-1.256.805-1.762 1.018-10.35 6.88-12.303 8.23-1.954 1.348-7.376 6.467-8.972 7.953l-.055.605c5.146-4.623 6.761-5.764 8.807-7.32 2.532-1.927 7.77-5.49 9.55-6.633a309.538 309.538 0 004.614-3.015 44.08 44.08 0 00-.385-.626zm8.046-8.497c-2.508 1.47-6.46 3.243-10.293 4.748a32.472 32.472 0 011.486 1.966c3.014-1.11 6.321-2.6 8.945-4.403-1.25 1.184-5.383 4.273-7.902 5.994.13.212.255.423.377.634 3.817-2.555 6.386-4.435 7.883-5.692C38.505 10.623 43.21 6.742 45 1.54c-3.138 3.99-6.848 6.275-9.055 7.569z" fill="#FC3D21"/>
  <path d="M18.548 22.971c-.406-.51-.967-1.195-1.389-1.726a32.091 32.091 0 01-1.563-2.142l-.467.117c.577.9 1.218 1.8 1.916 2.678.51.642.974 1.16 1.211 1.48.049.066.144.21.273.402l.45-.306a9.18 9.18 0 01-.43-.503zm2.963 2.69c-.333-.315-1.142-.843-1.984-1.633l-.561.387c.543.766 1.284 1.707 1.864 1.981.873.414 1.108-.33.681-.735zm4.415-11.463C21.113 8.14 15.233 4.813 12.698 6.827c-1.97 1.564-1.16 6.135 1.553 10.938l.417-.143c-2.74-4.678-3.489-9.027-1.632-10.502 2.334-1.854 7.968 1.486 12.641 7.369a34.861 34.861 0 012.538 3.63c2.758 4.564 3.604 8.692 1.699 10.377-.583.515-2.365.717-4.699-.333-.032.04.02.151.06.178 2.015.81 3.945 1.12 4.92.345 2.34-1.86.542-8.43-4.27-14.488zM5.285 14.917h3.082l2.587 4.39V15.88c0-.385-.488-.887-.66-.963h2.133c-.131.034-.55.544-.55.963v5.037c0 .31.446.736.66.901H9.564l-2.628-4.41v3.468c0 .344.337.674.688.956h-2.27c.323-.138.632-.571.66-.915.028-.344 0-4.782 0-4.975 0-.42-.406-.764-.73-1.025z" fill="#fff"/>
  <path d="M33.481 21.818h4.101c-.227-.055-.482-.323-.62-.681-.137-.358-2.311-6.22-2.311-6.22h-1.56c-.441.318-.915.654-1.421 1.008l-.005.038c-.068.413-1.288 4.832-1.363 5.05-.103.303-.633.64-.846.819h2.209c-.22-.248-.4-.489-.358-.764.041-.275.165-.825.165-.825h2.284c.104.275.18.522.22.756.049.283-.24.599-.495.82zm-1.803-2.456l.771-2.518 1.018 2.518H31.68zm-.347-4.194l.34-.251h-.598c.06.055.158.142.258.251zM15.647 21.068c.041-.275.165-.825.165-.825h2.285c.103.275.18.522.22.756.048.283-.24.599-.495.82h3.61l.225-.152a1.375 1.375 0 01-.354-.53c-.137-.358-2.312-6.22-2.312-6.22h-3.578c.172.158.668.585.592 1.046-.067.413-1.288 4.832-1.362 5.05-.104.303-.633.64-.847.819h2.21c-.221-.248-.4-.489-.359-.764zm1.142-4.224l1.019 2.518h-1.79l.771-2.518zM28.119 18.343c-.674.448-1.384.917-2.133 1.406.336.163.604.367.63.631.047.497-.95.736-1.852.633a2.226 2.226 0 01-.526-.13l-.568.364c-.195.125-.431.28-.702.458v.712c.18-.351.57-.665.874-.681.131-.007.585.413 2.457.31.908-.05 2.662-1.019 2.635-2.134-.017-.658-.36-1.172-.815-1.57zm-5.151 1.72v.727l.489-.326a3.616 3.616 0 01-.489-.4zm4.51-2.176a6.262 6.262 0 00-.52-.273c-.88-.413-1.802-.489-1.995-1.046-.135-.393.248-.757 1.184-.743.936.014 1.803.571 2.037.77V14.82c-.07.07-.371.415-.647.358-.53-.11-1.431-.254-2.464-.248-1.183.007-2.201.922-2.236 2.078-.048 1.617 1.246 2.058 1.975 2.312.075.026.161.054.254.084.7-.455 1.253-.805 1.577-.992.217-.125.502-.305.836-.525z" fill="#fff"/>
</svg>