<svg width="80" height="22" fill="none" xmlns="http://www.w3.org/2000/svg">
  <g clip-path="url(#clip0)">
    <path d="M11 20.227c-1.203.211-2.428.275-3.695.443L3.441 9.353v11.803c-1.203.127-2.3.296-3.441.465V0h3.21L7.6 12.267V0H11v20.227zm6.651-12.31c1.31 0 3.315-.063 4.518-.063v3.378c-1.499 0-3.251 0-4.518.064v5.025c1.985-.127 3.97-.296 5.975-.36v3.252l-9.353.74V0h9.353v3.378h-5.975v4.54zM36.19 3.379h-3.505v15.54c-1.14 0-2.28 0-3.378.042V3.378h-3.505V0H36.19v3.378zm5.49 4.307h4.623v3.379h-4.624v7.664h-3.315V0h9.438v3.378h-6.123v4.307zm11.612 8.087c1.921.042 3.864.19 5.743.295v3.337c-3.02-.19-6.038-.38-9.121-.444V0h3.378v15.772zm8.593 3.864c1.077.063 2.217.127 3.315.253V0h-3.315v19.636zM80 0l-4.286 10.282L80 21.62c-1.267-.168-2.534-.4-3.8-.612l-2.429-6.25-2.47 5.744c-1.225-.212-2.407-.275-3.631-.444l4.35-9.902L68.091 0h3.631l2.217 5.68L76.305 0H80z" fill="#D81F26"/>
  </g>
  <defs>
    <clipPath id="clip0">
      <path fill="#fff" d="M0 0h80v21.62H0z"/>
    </clipPath>
  </defs>
</svg>