<svg width="78" height="21" fill="none" xmlns="http://www.w3.org/2000/svg"><path fill-rule="evenodd" clip-rule="evenodd" d="M10.598 19.646c-.693.123-1.393.194-2.105.267-.48.049-.964.098-1.455.164L3.316 9.085v11.464c-1.046.11-2.01.255-2.995.403L0 21V0h3.092l4.23 11.915V0h3.276v19.646zM17.005 7.69c.644 0 1.463-.016 2.264-.031.769-.015 1.522-.03 2.09-.03v3.281c-1.445 0-3.133 0-4.354.062v4.88c.542-.034 1.085-.072 1.627-.11 1.371-.097 2.745-.194 4.13-.238v3.158l-9.011.718V0h9.01v3.281h-5.756v4.41zm14.483-4.409h3.376V0H24.858v3.281h3.376v15.135c1.058-.04 2.156-.04 3.255-.04V3.28zm8.665 4.184h4.455v3.281h-4.455v7.444h-3.194V0h9.093v3.281h-5.9v4.184zm15.24 8.052c-1.34-.083-2.702-.168-4.053-.198V0h-3.254v18.416c2.97.062 5.879.246 8.787.43v-3.24c-.49-.027-.983-.058-1.48-.089zm4.226 3.555l.171.01c.987.059 2.023.12 3.023.236V0h-3.194v19.072zm13.323-9.085L77.072 0h-3.56l-2.278 5.517L69.098 0h-3.499l3.784 9.864-4.19 9.618c.487.068.968.119 1.448.169.68.07 1.358.142 2.05.262l2.38-5.578 2.34 6.07.914.156a75.46 75.46 0 002.747.439l-4.13-11.013z" fill="#96A3B0"/></svg>