<svg xmlns="http://www.w3.org/2000/svg" xmlns:xlink="http://www.w3.org/1999/xlink" viewBox="0 0 250 80"><path d="M60.6 28c-.3-2.3-1-4.5-2-6.5-.7-1.4-1.6-2.7-2.8-3.7-1.5-1.3-3.4-2-5.4-2-.9 0-1.8.1-2.7.4l2.6-5.6.3-.7-.6-.3L44.9 6l-.2-.2h-4.3c-.9-.2-1.8-.6-2.5-1.2-2.4-1.9-5.3-2.9-8.4-2.9-3.1-.1-6.1.9-8.5 3l-8.8 8.6-.2.2-5.1 5a9.45 9.45 0 0 0-2.1 3.1c-1 2.1-1.7 4.2-2 6.5-1 5.3-.8 10.7.5 15.9 1.5 5.5 4.1 10.6 7.6 15.1C15.8 65.3 22 70.5 29 74.5l2.2 1.3.5.3.5-.3 2.2-1.3c7-4 13.1-9.3 18.2-15.5 3.5-4.5 6.1-9.6 7.6-15.1 1.1-5.2 1.3-10.6.4-15.9z" fill="#fff"/><path d="M27.4 22.2h-7.9l-.7 11.9c.4.1.9.2 1.3.4l7.3-12.3zm-6.1 27l-.1 1 .4.2c.8.3 1.6.5 2.5.4.9 0 1.8-.1 2.6-.5v-1c-.8.4-1.7.6-2.6.6-.8 0-1.7-.2-2.5-.5l-.3-.2zm.3 3.7l-.3-.2h-.1v1l.4.2c.8.3 1.6.5 2.5.4.7 0 1.4-.1 2-.3v-.9c-.6.2-1.3.3-2 .3-.9.1-1.8-.1-2.5-.5zm0 3.5l-.3-.2h-.1v1l.4.2c.8.3 1.6.4 2.4.4.4 0 .8 0 1.2-.1v-.9c-.4.1-.8.1-1.2.1-.8.1-1.7-.1-2.4-.5zm8.9-50.6c.7.1 1.3.4 1.9.7s1.2.7 1.7 1.1c.8.7 1.7 1.3 2.6 1.8V7.9l-2-1.2c-.6-.4-1.3-.7-1.9-1a8.3 8.3 0 0 0-2.1-.6c-.7-.1-1.4-.1-2.2 0h-.1v.6h.1c.6-.1 1.3 0 2 .1zm29.2 22.4c-.3-2.2-1-4.3-1.9-6.3-.6-1.3-1.5-2.5-2.6-3.4-1.3-1.1-3.1-1.8-4.8-1.8-2.3 0-4.5.9-6.1 2.5l-2.6-2.8.4-.9h3.6l-.4.9h1.4l2.8-6.1-5.1-3.6h-4c-1.1-.2-2.2-.7-3-1.4-2.2-1.8-5-2.8-7.9-2.8-2.9-.2-5.7.8-7.9 2.7L7.4 19.1a11.02 11.02 0 0 0-2 2.8c-.9 2-1.6 4.1-1.9 6.3-1 5.1-.8 10.4.5 15.5 1.5 5.4 4 10.4 7.5 14.8 5 6.2 11.1 11.4 18 15.3l2.2 1.3 2.2-1.3a66.25 66.25 0 0 0 18-15.3c3.4-4.4 5.9-9.4 7.4-14.8 1.2-5.1 1.4-10.4.4-15.5zM22.4 6.1c.6-.6 2.6-2.4 7-2.4 2.6 0 5.2.9 7.2 2.6 1.3.9 2.4 1.6 3.8 1.6H44l4 2.8-1.6 3.5h-3.6c-.5 0-1-.2-1.4-.6a3.1 3.1 0 0 1-.9-1.8h-.6c0 .4 0 .9.2 1.3.1.4.4.8.7 1.2.1.2.3.3.5.4l-.9 1.9 2.4 2.6H41l-3.2-2.7h-.7l2.3 2.7h-4.7L32 16.5h-1.6c.3-.7.5-1.5.5-2.3V13l-.1-.4c-.1-.6-.3-1.1-.6-1.6s-.6-1-1-1.4l-.1-.1-.2-.1-.3-.3c-.2-.2-.5-.3-.7-.5-1-.6-1.9-.9-2.8-1h-.8v.6c1 0 2 .3 2.8.9.2.1.4.3.6.4l.5.5c.3.4.6.8.8 1.2s.4.9.5 1.4v1.6c-.1 1-.4 1.9-1 2.6l-.7 1h3.4l1.5 1.5h-14v-5.2h-4.5l8.2-8zm-6.3 18.1c-.5 1.9-2.1 3.3-4 3.5h-.5c-2.4 0-4.5-1.9-4.7-4.3v-.3c0-1.3.5-2.5 1.5-3.4l4.5-4.4h4.5v4.4l-1.3 4.5zM58 43.4c-.9 3.1-2.1 6.2-3.7 9l-.3.4-.2.3-.3.4-.2.5-.2.4-.5.7-.2.3-.4.5-.2.3-.4.5-.2.2-.6.8-.5.7C48 61 45.6 63.5 43 65.7c-2.1 1.8-4.2 3.4-6.5 4.9-1.1.7-2.3 1.5-3.5 2.2l-1.5.9-1.5-.9c-6.7-3.9-12.7-9-17.6-15l-.4-.5-.6-.9-.2-.4-.5-.7-.1-.1-.5-.8c-2.2-3.4-3.9-7.1-4.9-11-1.2-4.9-1.4-10-.5-15 .2-1.5.6-3 1.1-4.4.1.9.5 1.8 1 2.5-.2.7-.3 1.4-.5 2.2-.2 1.2-.4 2.5-.4 3.7l8.2 3.8c.1-.2.3-.4.5-.6l.4-.4-5-6.5c.9.2 1.8.3 2.7.1l3.4 5.6c.4-.2.8-.3 1.3-.4l-.5-8.4c.2-.4.3-.7.4-1.1l1.2-4v-.1h26.4l.2-.2c1.4-1.5 3.3-2.3 5.3-2.2 1.5 0 2.9.5 4 1.5 1 .8 1.7 1.9 2.3 3 .9 1.9 1.5 3.9 1.8 5.9.9 5 .7 10.1-.5 15z"/><circle cx="44.2" cy="10.4" r=".7"/><path d="M40.4 10.8c.1-.5.5-.9 1-1v-.7h-1.6v1.7h.6zm16.4 17.9c-.7-4.1-2.4-9-6.4-9-1.9-.1-3.7.9-4.6 2.5H31.2l-10 13a1.38 1.38 0 0 0 .4.3 3.04 3.04 0 0 1 .5.7l7.2-3.3-.6 2.6-6 1.9c.1.4.2.9.2 1.4-.2 0-.4-.1-.6-.2s-.4-.2-.6-.2l-.3-.1-.6-.3c-.5-.2-1-.4-1.5-.4h-2.4c-.5.1-1 .2-1.5.4l-.6.3-.3.1c-.2.1-.4.2-.6.2-.2.1-.4.1-.6.2 0-.5.1-1 .2-1.4l-7.7-2.5c0 .9 0 1.8.1 2.7v1.3h.8l.5.1c.5.1 1.1.3 1.5.6 1 .5 2.1.8 3.2.8s2.2-.2 3.2-.8c.2-.1.5-.2.7-.3.5-.2 1.1-.3 1.7-.3h.7a4.53 4.53 0 0 1 1.6.3c.3.1.5.2.8.3 1 .5 2.1.8 3.2.8s2.2-.2 3.2-.8l.5-.2-.3 1.2 1.1-.2-.3 1.3c-.6.1-1.1.3-1.6.6-.9.5-1.8.7-2.8.7s-1.9-.2-2.8-.7c-1-.5-2.1-.8-3.2-.8s-2.2.2-3.2.8c-.9.5-1.8.7-2.8.7s-1.9-.2-2.8-.7c-.5-.3-1-.5-1.6-.6-.3 0-.5-.1-.8-.1.1.3.1.6.2.9h.8l.6.2c.3.1.7.3 1 .4 1 .5 2.1.8 3.2.8s2.2-.2 3.2-.8c.9-.5 1.8-.7 2.8-.7s1.9.2 2.8.7c1 .5 2.1.8 3.2.8s2.2-.2 3.2-.8c.3-.2.7-.3 1-.4l-.6 2.6c-.3.1-.6.3-.9.4-.8.5-1.8.7-2.7.7s-1.9-.2-2.7-.7c-1-.5-2.1-.8-3.2-.8s-2.2.2-3.2.8c-1.1.3-2.1.5-3 .5s-1.9-.2-2.7-.7l-.6-.3c-.4-.2-.9-.3-1.3-.4.2.5.3.9.5 1.4.8 2 1.7 3.9 2.8 5.8l.1.3.2.4.2.3.2.4.2.3.2.4.4.6.3.4.2.3.3.4.2.2.5.7c4.8 5.8 10.6 10.8 17.2 14.5l.6.4.6-.4c6.6-3.8 12.4-8.7 17.1-14.6.3-.3.5-.7.8-1l.1-.1c.2-.3.5-.7.7-1l.1-.1c.5-.7 1-1.5 1.4-2.2 1.2-2 2.1-4 2.9-6.1.2-.4.3-.8.4-1.2-.5.1-.9.2-1.3.4h-.1l-.6.3c-1.7.9-3.7.9-5.4 0-2-1-4.4-1-6.5 0-1.7.9-3.7.9-5.4 0-.3-.1-.6-.3-.9-.4l-1-4.8 1.2.2-.7-3.2 3.8-3.7 2.5 1.8 3.9-3.9 3.8 4 2.5-1.8 5.6 5.6c0-.4.1-.8.1-1.2v-.4c.2-3.1.1-6.1-.4-9.1zm-7.3.6l.1-.2H51l.4-1.4h.2L52 29h1.4l.1.2-1.2.8.4 1.4-.2.1-1.2-.8-1.2.8-.2-.1.4-1.4-.8-.7zm-3-.2l-.2.1-1.2-.8-1.1.8-.2-.1.4-1.4-1.2-.8.1-.2h1.4l.5-1.4h.2l.4 1.4H47l.1.2-1.1.9.5 1.3zM40 31.5l-.2.1-1.2-.8-1.2.8-.2-.1.4-1.4-1.2-.8.1-.2h1.4l.4-1.4h.2l.4 1.3h1.4l.1.2-1.2.8.8 1.5zm-5.2 16l-1.4-.3 1.9 9.2-3.7-1.5-3.7 1.5 1.9-9.2-1.4.3 1.8-8.8-1.1.2 2.3-12.2h.2L34 38.9l-1.1-.2 1.9 8.8zm-2.5 10.1l.3 8.7h-2.1l.3-8.7v-1.4l.7-.3.7.3.1 1.4zm-2.5 2.5v.6c-.7 0-1.4.2-2 .5-1.1.6-2.4.9-3.7.9-1.2 0-2.5-.2-3.5-.8l-.1-.1-.5-.2h-.1c-.2-.1-.3-.1-.5-.2l.5-.4.1-.1c.3.1.5.2.8.3l.3.2a7.06 7.06 0 0 0 2.8.6c1.1 0 2.2-.2 3.2-.8.8-.4 1.7-.7 2.6-.7l.1.2zm12.2.6l.3-.2c.2-.1.5-.2.8-.3l.7.6c-.2.1-.4.1-.5.2l-.3.2-.1.1c-1.1.6-2.3.8-3.5.8-1.3 0-2.6-.3-3.7-.9-.6-.3-1.3-.5-2-.5v-.8c.9 0 1.8.2 2.6.7 1 .5 2.1.8 3.2.8.7-.1 1.6-.3 2.5-.7zM27.3 46.6l-.5 2.4 1.5-.3-2.1 9.8 3.9-1.9-.1 1.3-.1 1.1c-1.1 0-2.1.2-3 .8-.9.4-1.9.6-2.9.6-.9 0-1.8-.2-2.6-.6l-.2-.1c-.3-.1-.6-.3-.9-.4v-12l-.8.7v11.6l-.8.7V47.5l1.5-1.2h.1l.3.1.1.1c.2.1.5.2.8.3.8.3 1.6.4 2.5.4 1.2.2 2.3-.1 3.3-.6zm8.6 0c1 .5 2.1.8 3.2.8.8 0 1.7-.1 2.5-.4.3-.1.5-.2.8-.3l.4-.2h.1l1.5 1.2v12.7l-.8-.7V48l-.9-.7v12.1c-.3.1-.6.2-.9.4l-.2.1c-.8.4-1.7.6-2.6.6-1 0-1.9-.2-2.8-.7s-2-.8-3-.8l-.1-1.1-.1-1.3 3.9 1.9-.3-1.3-1.8-8.5 1.5.3-.4-2.4zm5.7 3.7l.4-.2v-1h-.1l-.3.2c-.8.4-1.6.5-2.5.5s-1.8-.2-2.6-.6v1c1.6.6 3.4.7 5.1.1zm0 2.6c-.8.4-1.6.5-2.5.5-.7 0-1.4-.1-2-.3v.9c.6.2 1.3.3 2 .3.8 0 1.7-.1 2.5-.4l.4-.2v-1h-.1l-.3.2zm0 3.5c-.8.4-1.6.5-2.5.5-.4 0-.8 0-1.2-.1v.9c.4.1.8.1 1.2.1.8 0 1.7-.1 2.5-.4l.4-.2v-1h-.1l-.3.2zM10.4 24.2l.5.4 5.1-7v-.9h-.8zm28.9 17.6v-3h-1.2v.8h.4v2.2zm2.5-.8c.2.6.8 1 1.4.9.4-.1.8-.4.9-.9 0-.3-.2-.6-.5-.8.2-.1.4-.4.4-.7-.1-.6-.6-1-1.2-.9-.4.1-.8.4-.9.9 0 .3.2.5.4.7-.3.2-.6.5-.5.8zm1.1-1.1c-.2 0-.3-.1-.3-.3s.1-.3.3-.3.3.1.3.3c0 .1-.1.3-.3.3zm0 1.3c-.2 0-.3-.1-.3-.3s.1-.3.3-.3.3.1.3.3-.1.3-.3.3c0 .1 0 .1 0 0zm4.4-2.4l-.6.8c-.3.3-.5.8-.5 1.2 0 .3.2.6.4.8.3.2.6.3.9.3.6.1 1.2-.4 1.3-1.1v-.1c0-.6-.4-1-.9-1.1h-.4l.8-1-1 .2zm.1 1.6c.2 0 .4.3.4.5s-.2.3-.4.4c-.2 0-.5-.1-.5-.4 0-.2.1-.5.5-.5-.1 0 0 0 0 0zm3.3.6c.1.6.8 1 1.4.9.4-.1.8-.4.9-.9 0-.3-.2-.6-.5-.8.2-.1.4-.4.4-.7-.1-.6-.6-1-1.2-.9-.4.1-.8.4-.9.9 0 .3.2.5.4.7-.3.1-.5.5-.5.8zm1.1-1.1c-.2 0-.3-.1-.3-.3s.1-.3.3-.3.3.1.3.3c0 .1-.1.3-.3.3zm0 1.3c-.2 0-.3-.1-.3-.3s.1-.3.3-.3.3.1.3.3c.1.2 0 .3-.3.3.1.1.1.1 0 0z"/><g fill="#d73f09"><path d="M67.3 30c0-6.9 3.7-11.1 10.3-11.1S87.8 23.1 87.8 30s-3.7 11.1-10.3 11.1S67.3 36.8 67.3 30zm15.1 0c0-6.8-1.5-9.4-4.8-9.4s-4.8 2.6-4.8 9.4 1.5 9.3 4.8 9.3 4.8-2.6 4.8-9.3zm15.8 9.6l-.5 1.1h-8.9v-1l1.5-.7V29l-1.5-2.4v-.4l5.5-1.8h.7l-.1 3.7h.1c.7-1.9 2.2-3.7 4.6-3.7 1.5-.2 2.9.9 3.1 2.5v.4c.1 1.4-.9 2.6-2.3 2.7h-.2c-1.3.1-2.4-.9-2.5-2.2v-.3c-1.1.5-2 1.3-2.7 2.3v9.1l3.2.7zm13.5-1.6c1.4 0 2.9-.5 3.9-1.4l.7.8c-1.2 2.6-3.4 3.7-6.5 3.7-4.2 0-7.4-2.7-7.4-8.1s3.7-8.5 8.2-8.5c3.6 0 6.1 2.1 6.1 5.9 0 .7-.1 1.4-.2 2.1H107c.1 3.2 1.6 5.5 4.7 5.5zm-4.6-7.3h5.2c.1-.4.1-.9.1-1.4 0-1.7-.5-3.2-2.2-3.2s-2.8 1.5-3.1 4.6zm21.1 6.8c3.5 0 5.7 1.7 5.7 5.2 0 4.5-4.4 6.1-9.2 6.1-4.5 0-7.7-1-7.7-3.8 0-2.1 1.6-3 4.1-3.4v-.1c-2.1-.2-3.3-1.4-3.3-3.3s1.4-3 3.4-3.4c-2.1-.5-3.5-2.4-3.4-4.6 0-3.2 2.4-5.7 7-5.7 2 0 4 .4 5.8 1.2-.2-.3-.2-.6-.2-.9 0-1 .8-1.9 1.8-1.9h.2c1.1 0 2 .8 2 1.9v.2c.1 1.1-.7 2.1-1.8 2.2h-.4c-1-.1-2-.3-2.9-.8v.4c1.4.6 2.2 2 2.2 3.5 0 3.5-3.5 5.1-6.7 5.1-.8 0-1.5-.1-2.2-.3-.8.3-1.3.7-1.3 1.5s.4 1.1 1.3 1.1l5.6-.2zm-7.3 6.8c0 1.9 1.4 2.8 3.9 2.8 2.9 0 5.1-.8 5.1-3.1 0-1.4-.7-2.2-2.9-2.2h-4.6c-.9.5-1.5 1.5-1.5 2.5zm3.8-18.3c-1.9 0-2.2 1.4-2.2 3.8s.3 3.8 2.2 3.8 2.2-1.4 2.2-3.8-.3-3.8-2.2-3.8zm16.5 15.1c-4.9 0-8.2-2.8-8.2-8.3s3.2-8.3 8.2-8.3 8.2 2.8 8.2 8.3-3.2 8.3-8.2 8.3zm0-1.7c2.4 0 3.1-2.4 3.1-6.7s-.7-6.6-3.1-6.6-3.1 2.4-3.1 6.6.7 6.7 3.1 6.7zm27.4.2l-.5 1.1h-8v-1l1.5-.7v-8c0-2.4-1.2-3.2-2.6-3.2-1.1 0-2.1.5-2.9 1.2v9.9l2.2.7-.5 1.1h-8v-1l1.5-.7V29l-1.5-2.4v-.4l5.5-1.8h.8l-.1 3.2h.1c1.1-2 3.3-3.2 5.6-3.2 2.7 0 4.7 1.9 4.7 5.6v8.9l2.2.7zm14.7-3.3c0-2-1-2.9-3.4-3.9l-2.6-1.1c-2.7-.9-4.5-3.5-4.3-6.3 0-4.4 3.4-6.2 6.9-6.2 1.6 0 3.1.3 4.6.8l1.8-.8.3 6.1-1 .2-1.8-2.3c-.8-1.5-2.4-2.4-4.1-2.3-1.5-.1-2.8 1-2.9 2.5v.3c0 1.7.8 2.7 3 3.5l2.7 1.1c3.4 1.4 4.9 3.3 4.9 6.7 0 4.4-3.3 6.5-7.2 6.5-1.7 0-3.5-.4-5-1.2l-2 1.2-.6-6.9 1.1-.2 1.8 2.6c1.2 1.9 2.6 2.8 4.6 2.8 1.5.1 2.9-1 3.1-2.5.1-.2.1-.4.1-.6z"/><use xlink:href="#B"/><path d="M213.9 37.2c0 1.6.6 2 2.3 1.8l.1.7a5.2 5.2 0 0 1-3.8 1.3c-1.6 0-2.9-.7-3.2-2.3h-.1c-.8 1.6-2.4 2.4-4.4 2.4-2.4 0-4.5-1.3-4.5-4.4 0-3.2 2.6-4.8 6.6-4.8a8.33 8.33 0 0 1 2.2.3v-1.4c0-2.1-1.4-3.2-3.5-3.2-1.5 0-3 .4-4.4 1.1l-.4-1.1c1.7-2.2 4.3-3.4 7.1-3.2 3 0 6 1.4 6 5.8v7zm-5.6-3.6c-2.2 0-3.4.5-3.4 2.5-.1 1.1.6 2.1 1.7 2.3h.4c.8 0 1.5-.2 2.1-.8v-4h-.8z"/><use xlink:href="#B" x="26.8"/><path d="M235.9 38c1.4 0 2.9-.5 3.9-1.4l.7.8c-1.2 2.6-3.4 3.7-6.5 3.7-4.2 0-7.4-2.7-7.4-8.1s3.7-8.5 8.1-8.5c3.6 0 6.1 2.1 6.1 5.9 0 .7-.1 1.4-.2 2.1h-9.4c.1 3.2 1.6 5.5 4.7 5.5zm-4.6-7.3h5.1c.1-.4.1-.9.1-1.4 0-1.7-.5-3.2-2.2-3.2s-2.7 1.5-3 4.6z"/></g><path d="M85.9 62.3c0 5.3-3.5 8-8.2 8-4.9 0-8.3-2-8.3-7.6V50.5l-2.7-.8.3-1.2h8.2l.3 1.2-2.7.8v11.7c0 4.2 1.8 6.1 5.3 6.1s5.7-1.9 5.7-6.4V50.5l-2.8-.8.3-1.2h7l.3 1.2-2.7.8v11.8zm19.1 6.6l-.4 1.1h-7v-1l1.7-.6v-9c0-2.3-1.5-2.8-2.7-2.8-1.4 0-2.7.5-3.8 1.4v10.2l2.6.7-.5 1.1h-7v-1l1.7-.6V57.8l-1.8-2v-.4l4.4-1.7h.6l-.1 3.1h.2c1.1-1.9 3.1-3.1 5.3-3.1 2.1 0 4.3 1.3 4.3 5v9.5l2.5.7zm7.9 0l-.5 1.1h-7v-1l1.7-.6V57.8l-1.8-2v-.4l4.4-1.7h.6v14.6l2.6.6zm-4.2-22.3c1.2 0 2.3 1 2.3 2.3 0 1.2-1 2.3-2.3 2.3-1.2 0-2.3-1-2.3-2.3 0-1.2 1-2.2 2.3-2.3zm15.3 9.3l-2.4-.8.2-1.1h5.9l.2 1.1-1.7.7-5.5 14.2h-1.8l-5.8-14-1.6-1 .3-1h6.7l.3 1.1-2.3.6 2.6 6.4c.6 1.4 1 2.9 1.3 4.4h.2c.3-1.5.8-3 1.3-4.5l2.1-6.1zM134.8 68c1.6 0 3.2-.5 4.5-1.5l.5.8c-1.3 2-3.6 3.2-6 3-3.9 0-7-2.7-7-8.2s3.4-8.5 7.5-8.5c3.3 0 5.7 2 5.7 5.7 0 .6-.1 1.3-.2 1.9h-9.9c0 4.3 1.9 6.8 4.9 6.8zm-4.8-8.2h6.7v-1c0-2.3-.9-3.5-2.8-3.5s-3.4 1.4-3.9 4.5zm18.8 9.1l-.5 1.1h-7.7v-1l1.7-.6V57.8l-1.8-2v-.4l4.4-1.7h.6l-.1 3.8h.1c.9-2 2.6-3.8 4.6-3.8 1.7 0 2.7 1 2.7 2.4.1 1.1-.7 2.1-1.9 2.2h-.2c-1.1.1-2-.8-2.1-1.9v-.3c-1.3.7-2.4 1.7-3.1 3v9.3l3.3.5zm5-4.1c1.5 3.3 3 4.1 4.9 4.1 1.6 0 2.7-.6 2.7-2.3 0-1.4-.8-2.2-2.6-2.8l-2.1-.7c-2.2-.8-3.6-2.1-3.6-4.8 0-3.1 2.3-4.6 5.3-4.6 1 0 2 .3 2.9.7l1.8-.6.3 4.7-.8.3c-1.6-2.7-2.9-3.5-4.4-3.5-1.2-.2-2.3.7-2.5 1.9v.3c0 1.3.7 2.2 2.4 2.8l2.1.7c2.4.8 3.9 2.1 3.9 4.9 0 3.2-2.4 4.6-5.7 4.6-1.3 0-2.5-.3-3.6-.8l-1.6.8-.3-5.3.9-.4zm18.7 4.1L172 70h-7v-1l1.7-.6V57.8l-1.8-2v-.4l4.4-1.7h.6v14.6l2.6.6zm-4.2-22.3c1.2 0 2.3 1 2.2 2.3 0 1.2-1 2.3-2.3 2.2a2.22 2.22 0 0 1-2.2-2.2c0-1.2 1-2.2 2.3-2.3-.1 0-.1 0 0 0zm3.1 8.2l4.6-5h.7v4.3h5.3l-.3 1.7h-5.1v9.5c0 2 .9 2.9 2.4 2.9 1 0 2.1-.3 3-.8l.4.9c-1.3 1.4-3.1 2.1-5 2-2.4 0-4-1.3-4-4.5v-10h-2.1l.1-1z"/><path d="M182 56l-1.6-1 .3-1h6.8l.3 1.1-2.3.6 2.6 6.9a19.53 19.53 0 0 1 1.2 4.6h.1l1.4-4.7 2.2-6.7-2.4-.8.2-1.1h5.8l.2 1.1-1.7.7-5.1 14c-2.3 6.2-4.2 8.2-7.2 8.2-1.9 0-2.9-1.1-2.9-2.5a1.95 1.95 0 0 1 1.9-2.1h.2a1.86 1.86 0 0 1 1.9 1.7v.2c0 .4-.1.9-.4 1.2 1.5 0 3.4-2.7 4.4-5.8L182 56z"/><defs ><path id="B" d="M187.8 25.5l5.8-5h1.1v4.3h4.8l-.3 1.9h-4.5v8.6c0 2.1.8 2.9 2.3 2.9 1 0 1.9-.3 2.7-.8l.4.9c-1.2 1.8-3.2 2.8-5.3 2.7-2.9 0-4.8-1.4-4.8-5.2v-9.2h-2.2v-1.1z"/></defs></svg>