<svg fill="none" height="24" viewBox="0 0 193 51" width="90.72" xmlns="http://www.w3.org/2000/svg" xmlns:xlink="http://www.w3.org/1999/xlink"><clipPath id="a"><path d="m0 0h193v50.4355h-193z"/></clipPath><g clip-path="url(#a)" fill="#fff"><g clip-rule="evenodd" fill-rule="evenodd"><path d="m47.0933 45.6112h6.4673v-13.3062h7.7359c3.0803 0 5.6755-.5533 7.711-1.6454 1.9545-1.0085 3.5628-2.5781 4.6184-4.5072 1.0368-1.9704 1.5634-4.169 1.5318-6.3951.031-2.2248-.4956-4.4219-1.5318-6.391-1.055-1.9234-2.6592-3.48891-4.608-4.49688-2.0273-1.10454-4.608-1.65784-7.6696-1.65784h-14.255zm13.6394-18.6942h-7.1783l.0062-14.2511h7.1452c1.8883 0 3.4347.3067 4.5975.9076 1.0861.5353 1.9697 1.4077 2.5186 2.4868.5498 1.1544.8237 2.4207.8001 3.699.0208 1.2781-.253 2.5438-.8001 3.6991-.5448 1.088-1.4228 1.9737-2.5061 2.5282-1.1525.6175-2.6947.9304-4.5831.9304z"/><path d="m82.3172 45.1781c1.6234.7232 3.3843 1.0859 5.1614 1.0631 1.6562 0 3.0969-.2466 4.2825-.7253 1.0867-.4241 2.0833-1.0499 2.9373-1.8443.524-.4952.9861-1.0518 1.3763-1.6579v3.5975h6.1663v-19.7635c0-2.1738-.383-3.9767-1.138-5.3589-.686-1.3098-1.7019-2.4182-2.9471-3.2162-1.1682-.7331-2.4576-1.2523-3.8078-1.5335-1.2452-.2656-2.514-.4045-3.7871-.4145-1.7343-.0056-3.4591.2558-5.1138.7751-1.6082.5039-3.0917 1.3422-4.353 2.4598-1.3241 1.2106-2.3221 2.735-2.902 4.4326l-.1077.2984 5.9283 1.3594.0891-.2238c.398-.9884 1.1588-1.9044 2.2056-2.6939 1.0467-.7896 2.5247-1.1916 4.3633-1.1916 1.7537 0 3.0927.4352 3.9675 1.2869.8747.8517 1.3204 2.0826 1.3204 3.6597v.1305c0 .5823-.2073.9885-.6219 1.2434-.4622.2756-1.2292.487-2.2656.6217-1.0862.1388-2.5248.3067-4.2805.4973-1.388.1726-2.7658.4202-4.127.7419-1.2987.2988-2.5462.7876-3.7021 1.4506-1.1081.6332-2.0357 1.5392-2.6947 2.6318-.6613 1.0983-.9992 2.5199-.9992 4.2275 0 1.9563.4581 3.641 1.3598 5.0129.9078 1.3732 2.1874 2.4599 3.6897 3.1333zm12.831-13.3912c.2803-.0821.554-.1853.8188-.3087l.0041 3.3032c-.0007 1.0874-.2958 2.1544-.854 3.0877-.5932.9936-1.4459 1.8067-2.4667 2.3521-1.0758.5947-2.3838.8973-3.9384.8973-1.5547 0-2.8606-.3689-3.8348-1.0362-.9743-.6672-1.451-1.6391-1.451-2.9716 0-.9409.255-1.7035.7566-2.2692.5663-.6147 1.2796-1.0753 2.0728-1.3387.9601-.3336 1.951-.571 2.958-.7087.4726-.0518 1.0592-.1264 1.7681-.2238.709-.0974 1.4303-.2073 2.16-.3295.6777-.1089 1.3479-.2605 2.0065-.4539z"/><path d="m107.312 45.6112h6.233v-18.1471c-.031-1.1323.258-2.2503.833-3.226.576-.9757 1.415-1.7695 2.421-2.2904 1.072-.5621 2.268-.8471 3.478-.8289.582.0002 1.164.0348 1.741.1036l.067-.5575c-.01-.0012-.021-.0024-.031-.0036l.045-4.9771.019-.372c-.485-.027-.91-.0415-1.262-.0415-1.698-.0201-3.361.478-4.768 1.4278-1.208.8083-2.155 1.9501-2.726 3.2867v-4.2938h-6.05z"/><path d="m131.784 43.7876c1.569 1.4713 3.683 2.2173 6.285 2.2173.702-.0013 1.402-.0567 2.095-.1657.656-.097 1.302-.2488 1.932-.4539l.193-.0642v-5.3403l-.336.0663c-.265.0539-1.243.1471-1.768.1969l-.319.0311c-1.646.1699-2.805-.0912-3.426-.7875-.51-.5658-.769-1.4962-.769-2.7665v-15.8718h6.04v-5.1579h-6.04v-6.98364h-6.263v6.98364h-4.28v5.1579h4.28v17.0219c0 2.4515.807 4.4451 2.376 5.9164z"/><path d="m147.318 45.6112h6.235v-29.9198h-6.235z"/><path d="m147.384 12.038h6.103v-6.10087h-6.103z"/><path d="m163.681 43.8892c1.936 1.0755 4.369 1.6205 7.238 1.6205 1.766.0275 3.523-.253 5.193-.8289 1.418-.4976 2.71-1.2997 3.785-2.35 1.022-1.0234 1.801-2.2635 2.28-3.6286.511-1.5012.762-3.0789.742-4.6647v-.2798h-5.993v.2798c.032 1.1865-.19 2.3661-.649 3.4607-.387.8895-1.044 1.6352-1.878 2.1324-.829.4911-1.94.7419-3.316.7419-1.588 0-2.906-.3419-3.908-1.003-1.001-.6611-1.749-1.6744-2.257-3.0877s-.763-3.2183-.763-5.3631v-.918c0-2.2485.274-4.1115.788-5.4668.514-1.3552 1.275-2.3769 2.261-3.04.987-.6632 2.212-1.0009 3.663-1.0009 1.381 0 2.513.2341 3.362.6921.836.4515 1.493 1.1724 1.866 2.0454.415.9283.622 2.1469.622 3.5975v.2797h6.206v-.2797c.025-1.6558-.225-3.3043-.74-4.8782-.463-1.3801-1.254-2.6274-2.305-3.6348-1.079-1.0021-2.362-1.7573-3.762-2.2132-1.664-.5218-3.402-.7717-5.145-.7398-2.834 0-5.249.5574-7.212 1.6578s-3.472 2.8038-4.45 4.9984c-.978 2.1945-1.476 5.0274-1.476 8.4218s.481 6.2148 1.451 8.4487c.97 2.234 2.461 3.925 4.397 5.0005z"/><path d="m186.911 45.6112h6.235v-39.68859h-6.235z"/></g><path d="m33.6237 0v33.6237h-16.8119v-16.8119h-16.8118v-16.8118z"/><path d="m16.8118 33.6237h-16.8118v16.8098h16.8118z"/></g></svg>