<svg width="103" height="52" fill="none" xmlns="http://www.w3.org/2000/svg">
  <path d="M102.551 34.632h-1.83V33.31c-.005-1.702 0-3.404-.017-5.107-.017-1.333-1.021-2.533-2.325-2.804-1.79-.375-3.607 1.073-3.613 2.908-.006 1.991.006 3.982.012 5.973v.357H93V24.066h1.76v.583a4.337 4.337 0 0 1 1.882-1.004c2.723-.687 5.574 1.315 5.851 4.108.006.081.035.168.052.248.006 2.205.006 4.42.006 6.63ZM33.408 33.449v5.274h-1.765c-.006-.075-.018-.15-.018-.225 0-3.07-.011-6.134.006-9.204a5.8 5.8 0 0 1 4.674-5.666c3.26-.658 6.452 1.633 6.879 4.933.421 3.255-1.818 6.175-5.084 6.567-1.714.202-3.191-.386-4.46-1.529-.058-.052-.087-.144-.133-.22-.035.024-.064.047-.099.07Zm4.034-.063a4.022 4.022 0 0 0 4.016-4.046c-.005-2.233-1.812-4.039-4.033-4.027a4.025 4.025 0 0 0-4.01 4.05 4.008 4.008 0 0 0 4.027 4.023ZM70.68 31.706c.854 1.304 2.66 1.95 4.259 1.523a3.93 3.93 0 0 0 2.314-1.656c.56-.836.767-1.771.646-2.793h1.766c.317 2.233-1.016 5.148-4.005 6.1a5.808 5.808 0 0 1-7.075-3.203 5.834 5.834 0 0 1 2.459-7.415c2.695-1.535 5.713-.53 7.12 1.148-2.492 2.095-4.98 4.19-7.484 6.296Zm-.75-1.702c1.795-1.506 3.537-2.972 5.297-4.455-1.344-.56-3.058-.185-4.149.906-.958.964-1.321 2.135-1.148 3.549ZM55.463 34.638H53.68v-1.091c-.092.075-.144.115-.19.156-3.307 2.862-8.402 1.27-9.476-2.96-.986-3.901 2.222-7.612 6.221-7.208a5.8 5.8 0 0 1 5.223 5.707c.017 1.731.005 3.463.005 5.194v.202Zm-9.839-5.315c-.005 2.216 1.79 4.033 3.994 4.045 2.227.006 4.056-1.777 4.062-3.97.006-2.29-1.771-4.103-4.016-4.103-2.228-.011-4.034 1.795-4.04 4.028ZM80.352 29.323c.005-3.208 2.614-5.817 5.81-5.817 3.209 0 5.829 2.637 5.811 5.846a5.82 5.82 0 0 1-5.828 5.8c-3.197-.007-5.8-2.62-5.793-5.829Zm5.805 4.04c2.227 0 4.04-1.801 4.04-4.028.005-2.222-1.807-4.046-4.023-4.051a4.046 4.046 0 0 0-4.045 4.027c0 2.234 1.806 4.051 4.028 4.051ZM56.029 24.031h1.021v-4.085h1.79v4.085h2.665v1.783h-2.66v8.818h-1.777v-.346c0-2.713-.006-5.425.005-8.137 0-.26-.063-.363-.334-.335-.225.023-.456.006-.704.006-.006-.6-.006-1.171-.006-1.789ZM64.206 25.578c.848-.762 1.817-1.287 2.937-1.483.392-.07.796-.075 1.223-.115v1.638c0 .202-.15.168-.265.168a3.79 3.79 0 0 0-2.372.842c-.998.79-1.54 1.83-1.558 3.11-.017 1.518-.006 3.041-.006 4.56v.334h-1.76V24.055h1.726v1.488c.028.012.052.023.075.035Z" fill="#fff"/>
  <path d="M14.637 14c.789.142 1.592.235 2.366.426 5.343 1.322 9.394 5.855 10.147 11.326 1.002 7.276-3.73 13.927-10.943 15.37-.518.106-1.051.163-1.577.241H7.382c0-4.583 0-9.166.008-13.742 0-.305.028-.618.078-.916.469-3.077 3.275-5.4 6.352-5.28 3.247.135 5.855 2.643 6.061 5.84.305 4.747-4.526 8.08-8.853 6.104a4.23 4.23 0 0 0-.32-.127c0 1.456-.007 2.863.014 4.27 0 .085.164.213.27.242 1.386.397 2.8.476 4.22.248 6.012-.966 9.892-6.672 8.591-12.598-1.2-5.485-6.686-9.073-12.15-7.958-4.945.995-8.399 5.215-8.413 10.275-.007 4.426 0 8.853 0 13.28 0 .12.014.234.028.355H0V26.648c.043-.277.092-.555.128-.839.753-5.52 4.782-10.04 10.19-11.39.767-.192 1.555-.284 2.33-.419h1.99Z" fill="#E6461A"/>
</svg>