<?xml version="1.0" encoding="UTF-8"?>
<svg id="Capa_2" data-name="Capa 2" xmlns="http://www.w3.org/2000/svg" viewBox="0 0 752 200">
  <defs>
    <style>
      .cls-1 {
        fill: #9e0d38;
      }

      .cls-2 {
        fill: #111824;
      }

      .cls-3 {
        fill: #dc244c;
      }

      .cls-4 {
        fill: #ff516b;
      }
    </style>
  </defs>
  <g id="Vectors">
    <g>
      <g>
        <g>
          <polygon class="cls-3" points="86.6 0 0 50 0 150 86.6 200 119.08 181.25 119.08 143.75 86.6 162.5 32.48 131.25 32.48 68.75 86.6 37.5 140.73 68.75 140.73 193.75 173.21 175 173.21 50 86.6 0"/>
          <polygon class="cls-3" points="54.13 81.25 54.13 118.75 86.6 137.5 119.08 118.75 119.08 81.25 86.6 62.5 54.13 81.25"/>
        </g>
        <g>
          <polygon class="cls-1" points="119.08 143.75 119.08 181.25 86.6 200 86.6 162.5 119.08 143.75"/>
          <polygon class="cls-1" points="173.21 50 173.21 175 140.73 193.75 140.73 68.75 173.21 50"/>
          <polygon class="cls-4" points="173.21 50 140.73 68.75 86.6 37.5 32.48 68.75 0 50 86.6 0 173.21 50"/>
          <polygon class="cls-3" points="86.6 162.5 86.6 200 0 150 0 50 32.48 68.75 32.48 131.25 86.6 162.5"/>
          <polygon class="cls-4" points="119.08 81.25 86.6 100 54.13 81.25 86.6 62.5 119.08 81.25"/>
          <polygon class="cls-3" points="86.6 100 86.6 137.5 54.13 118.75 54.13 81.25 86.6 100"/>
          <polygon class="cls-1" points="119.08 81.25 119.08 118.75 86.6 137.5 86.6 100 119.08 81.25"/>
        </g>
      </g>
      <g>
        <path class="cls-2" d="M333.47,125.54c2.59-7.19,3.89-15.54,3.89-25.05v-.49c0-13.08-2.35-24.08-7.05-33-4.7-8.92-11.33-15.65-19.86-20.19-8.54-4.54-18.6-6.81-30.16-6.81-8.65,0-16.52,1.27-23.59,3.81-7.08,2.54-13.08,6.35-18,11.43-4.92,5.08-8.73,11.35-11.43,18.81-2.7,7.46-4.05,16.11-4.05,25.95v.49c0,12.65,2.3,23.27,6.89,31.86,4.59,8.6,11.16,15.08,19.7,19.46,8.54,4.38,18.7,6.57,30.49,6.57h70.28v-18.49h-24.96c3.29-4.14,5.91-8.92,7.88-14.35ZM266.34,137.7c-4.11-1.46-7.62-3.59-10.54-6.41-2.92-2.81-5.11-6.19-6.57-10.14-1.46-3.95-2.19-8.46-2.19-13.54v-15.89c0-6.27,1.22-11.81,3.65-16.62,2.43-4.81,6.13-8.59,11.11-11.35,4.97-2.76,11.19-4.14,18.65-4.14,5.51,0,10.38.79,14.59,2.35,4.22,1.57,7.7,3.79,10.46,6.65,2.76,2.87,4.81,6.27,6.16,10.22,1.35,3.95,2.03,8.24,2.03,12.89v15.89c0,6.71-1.3,12.46-3.89,17.27-2.6,4.81-6.38,8.51-11.35,11.11-4.97,2.59-10.97,3.89-18,3.89-5.3,0-10-.73-14.11-2.19Z"/>
        <path class="cls-2" d="M415.82,85.57h-1.13c-2.06-4.65-5.43-8.35-10.14-11.11-4.7-2.76-9.97-4.14-15.81-4.14-5.08,0-9.68.87-13.78,2.59-4.11,1.73-7.62,4.35-10.54,7.87-2.92,3.51-5.14,8-6.65,13.46-1.52,5.46-2.27,11.87-2.27,19.22v3.08c0,8.87,1.19,16.57,3.57,23.11,2.38,6.54,6.03,11.57,10.95,15.08,4.92,3.51,11.21,5.27,18.89,5.27,5.84,0,11.08-1.35,15.73-4.05,4.65-2.7,8-6.43,10.05-11.19h1.13l1.14,13.62h20.11V40.16h-21.24v45.41ZM415.82,122.22c0,6.38-1.7,11.38-5.11,15-3.41,3.62-7.97,5.43-13.7,5.43-3.89,0-7.27-.75-10.14-2.27-2.87-1.51-5.06-3.76-6.57-6.73-1.52-2.97-2.27-6.57-2.27-10.78v-15.41c0-4.22.76-7.78,2.27-10.7,1.51-2.92,3.7-5.16,6.57-6.73,2.86-1.57,6.24-2.35,10.14-2.35s7.22.81,9.97,2.43c2.76,1.62,4.92,3.95,6.49,6.97,1.57,3.03,2.35,6.65,2.35,10.86v14.27Z"/>
        <path class="cls-2" d="M582.99,100.81c0-6.92-1.43-12.59-4.3-17.03-2.87-4.43-6.95-7.78-12.24-10.05-5.3-2.27-11.78-3.41-19.46-3.41-8.11,0-15.03,1.16-20.76,3.49-5.73,2.33-10.13,5.68-13.22,10.05-3.08,4.38-4.62,9.65-4.62,15.81h19.14c0-3.89,1.54-6.92,4.62-9.08,3.08-2.16,7.43-3.24,13.05-3.24,3.57,0,6.59.49,9.08,1.46,2.49.97,4.38,2.49,5.68,4.54,1.3,2.05,1.95,4.81,1.95,8.27v3.89l-25.14,3.24c-4.43.54-8.46,1.49-12.08,2.84-3.62,1.35-6.73,3.16-9.32,5.43-2.59,2.27-4.57,4.97-5.92,8.11-1.35,3.14-2.03,6.76-2.03,10.86v.49c0,7.14,2.51,12.84,7.54,17.11,5.03,4.27,11.54,6.41,19.54,6.41,4.87,0,9.22-.62,13.05-1.87,3.84-1.24,7.16-3.03,9.97-5.35,2.81-2.32,4.92-5.11,6.32-8.35h1.62l1.46,13.95h27.89v-15.08h-11.84v-42.49ZM561.91,130.49c-.32,2.81-1.3,5.27-2.92,7.38-1.62,2.11-3.79,3.76-6.49,4.95-2.7,1.19-5.78,1.78-9.24,1.78-4.65,0-8.22-.97-10.7-2.92-2.49-1.95-3.73-4.54-3.73-7.78v-2.43c0-3.57,1.32-6.19,3.97-7.87,2.65-1.67,6.24-2.78,10.78-3.32l18.32-2.59v12.81Z"/>
        <path class="cls-2" d="M669.57,74.14c-4.49-2.54-9.81-3.81-15.97-3.81s-11.92,1.54-16.62,4.62c-4.7,3.08-7.97,7.16-9.81,12.24h-1.46l-1.46-15.24h-19.78v86.43h21.24v-48.16c0-4.54.75-8.51,2.27-11.92,1.51-3.41,3.7-6.03,6.57-7.86,2.86-1.84,6.35-2.76,10.46-2.76,3.57,0,6.62.62,9.16,1.86,2.54,1.24,4.54,3.32,6,6.24,1.46,2.92,2.19,6.97,2.19,12.16v50.43h21.08v-53.19c0-7.89-1.19-14.41-3.57-19.54-2.38-5.13-5.81-8.97-10.3-11.51Z"/>
        <path class="cls-2" d="M752,89.13v-17.19h-22.22v-27.41h-21.24v27.41h-19.3v17.19h19.3v52.05c0,5.08,1.35,9.22,4.05,12.41,2.7,3.19,7.13,4.78,13.3,4.78h25.14v-16.7h-21.24v-52.54h22.22Z"/>
        <path class="cls-2" d="M494.81,70.97c-5.62,0-10.62,1.22-15,3.65-4.38,2.43-7.54,6.4-9.49,11.92h-.65l-.97-14.43h-18.32v86.27h20.27v-47.19c.22-4.54,1.22-8.38,3-11.51,1.78-3.13,4.4-5.54,7.86-7.22,3.46-1.68,7.78-2.51,12.97-2.51,1.08,0,2.08.03,3,.08.92.06,1.7.08,2.35.08v-19.14h-5.03Z"/>
      </g>
    </g>
  </g>
</svg>