<svg width="50" height="52" fill="none" xmlns="http://www.w3.org/2000/svg">
  <mask id="a" style="mask-type:alpha" maskUnits="userSpaceOnUse" x="0" y="9" width="50" height="35">
    <path d="M0 9h50v34.926H0V9Z" fill="#fff"/>
  </mask>
  <g mask="url(#a)" fill-rule="evenodd" clip-rule="evenodd">
    <path d="M20.761 12.823c1.614-1.68 3.86-2.72 6.342-2.72 3.309 0 6.176 1.838 7.72 4.577a10.66 10.66 0 0 1 4.357-.928c5.956 0 10.79 4.87 10.79 10.882 0 6.01-4.834 10.882-10.79 10.882-.728 0-1.437-.073-2.132-.211-1.351 2.408-3.934 4.044-6.875 4.044a7.85 7.85 0 0 1-3.456-.794c-1.37 3.217-4.559 5.478-8.272 5.478a8.984 8.984 0 0 1-8.438-5.883c-.564.12-1.14.18-1.717.18-4.614 0-8.345-3.788-8.345-8.438a8.48 8.48 0 0 1 4.173-7.316 9.67 9.67 0 0 1-.8-3.86c0-5.369 4.357-9.707 9.724-9.707a9.681 9.681 0 0 1 7.72 3.824" fill="#00A1E0"/>
    <path d="M7.232 27.161c-.032.082.01.1.02.114.095.068.19.117.286.173.51.27.992.349 1.496.349 1.026 0 1.664-.546 1.664-1.425v-.017c0-.813-.72-1.108-1.394-1.32l-.088-.028c-.509-.166-.948-.31-.948-.644v-.017c0-.287.257-.498.654-.498.441 0 .967.147 1.303.333 0 0 .1.064.136-.032l.21-.563c.02-.053-.015-.094-.05-.115a2.905 2.905 0 0 0-1.47-.395h-.103c-.94 0-1.595.568-1.595 1.38v.018c0 .857.724 1.136 1.4 1.33l.11.033c.492.151.918.283.918.629v.017c0 .318-.277.555-.722.555-.173 0-.724-.003-1.322-.38-.072-.043-.113-.073-.169-.107-.03-.018-.103-.05-.135.046l-.202.563v.001Zm15.017-.001c-.031.082.011.099.022.113.093.069.19.118.285.173.51.27.992.35 1.496.35 1.026 0 1.664-.547 1.664-1.425v-.018c0-.812-.719-1.108-1.394-1.32l-.088-.028c-.509-.165-.948-.309-.948-.643v-.017c0-.287.257-.498.654-.498.441 0 .965.146 1.303.332 0 0 .1.065.137-.032.019-.052.19-.51.207-.562.02-.054-.014-.095-.05-.116a2.905 2.905 0 0 0-1.47-.395h-.102c-.94 0-1.596.569-1.596 1.381v.018c0 .856.724 1.136 1.4 1.329l.11.033c.494.152.918.284.918.63v.016c0 .318-.277.555-.722.555-.173 0-.726-.002-1.322-.38-.072-.042-.114-.071-.169-.106-.019-.012-.105-.046-.135.046l-.202.562.002.002Zm10.255-1.722c0 .496-.092.888-.273 1.165-.181.274-.455.408-.835.408-.38 0-.653-.133-.831-.406-.18-.276-.27-.669-.27-1.165 0-.497.091-.886.27-1.16.178-.272.449-.403.83-.403.383 0 .655.132.835.403.183.274.274.663.274 1.16v-.002Zm.857-.92a2.07 2.07 0 0 0-.39-.744 1.866 1.866 0 0 0-.658-.5 2.156 2.156 0 0 0-.919-.184c-.35 0-.656.062-.919.184a1.89 1.89 0 0 0-.658.5c-.174.21-.305.46-.39.745a3.245 3.245 0 0 0-.126.92c0 .33.043.639.126.922.084.284.215.534.39.744.175.21.397.377.658.496.263.12.572.18.92.18.346 0 .655-.06.916-.18.261-.119.484-.286.658-.496.175-.21.306-.46.39-.744.084-.284.126-.592.126-.921 0-.328-.042-.638-.126-.921h.002Zm7.039 2.354c-.029-.084-.11-.052-.11-.052a1.966 1.966 0 0 1-.399.114 3.053 3.053 0 0 1-.468.033c-.414 0-.745-.123-.98-.367-.237-.245-.37-.638-.368-1.171.001-.486.119-.85.33-1.129.207-.276.527-.42.95-.42.353 0 .623.042.906.13 0 0 .067.03.1-.059.074-.207.13-.356.21-.584.023-.066-.033-.093-.053-.101a3.338 3.338 0 0 0-.572-.144 4.314 4.314 0 0 0-.643-.044c-.36 0-.68.062-.954.184a1.974 1.974 0 0 0-1.107 1.245 2.96 2.96 0 0 0-.14.922c0 .71.192 1.285.57 1.706.38.423.949.636 1.692.636.439 0 .89-.088 1.213-.217 0 0 .062-.03.035-.101l-.212-.581Zm1.498-1.912c.041-.276.117-.506.236-.684.178-.272.448-.42.829-.42.38 0 .632.149.812.42.12.18.172.417.192.684h-2.078.01Zm2.886-.607a1.814 1.814 0 0 0-.37-.678c-.188-.2-.37-.342-.552-.42a2.114 2.114 0 0 0-.831-.168c-.362 0-.691.061-.958.186a1.91 1.91 0 0 0-.667.51 2.094 2.094 0 0 0-.393.753 3.256 3.256 0 0 0-.128.924c0 .335.045.646.132.927a1.9 1.9 0 0 0 .42.737c.192.208.436.37.73.484.293.113.648.171 1.054.17.838-.003 1.28-.19 1.46-.29.032-.019.062-.05.024-.14l-.19-.53c-.028-.08-.109-.051-.109-.051-.207.078-.501.217-1.19.215-.451 0-.784-.133-.993-.342-.214-.213-.32-.524-.337-.965l2.905.002s.076 0 .084-.075c.003-.03.1-.596-.087-1.248h-.003Zm-26.102.607c.04-.276.116-.506.235-.684.178-.272.448-.42.829-.42.38 0 .632.149.812.42.12.18.172.417.192.684h-2.078.01Zm2.886-.607a1.814 1.814 0 0 0-.372-.678c-.187-.2-.37-.342-.551-.42a2.114 2.114 0 0 0-.831-.168 2.28 2.28 0 0 0-.958.186 1.91 1.91 0 0 0-.667.51 2.1 2.1 0 0 0-.393.753 3.264 3.264 0 0 0-.127.924c0 .335.044.646.131.927.088.283.23.531.42.737.19.208.435.37.73.484.291.113.645.171 1.053.17.838-.003 1.279-.19 1.46-.29.031-.019.062-.05.023-.14l-.189-.53c-.029-.08-.11-.051-.11-.051-.207.078-.501.217-1.19.215-.449 0-.783-.133-.993-.342-.213-.213-.32-.524-.336-.965l2.904.002s.076 0 .084-.075c.004-.03.1-.596-.086-1.248h-.002Zm-9.155 2.5a.566.566 0 0 1-.167-.172.694.694 0 0 1-.087-.377c0-.253.084-.437.26-.56-.003 0 .25-.217.841-.21.264.005.526.027.787.067v1.318s-.367.08-.783.104c-.59.036-.851-.17-.85-.169Zm1.155-2.04a6.475 6.475 0 0 0-.453-.013c-.248 0-.489.03-.713.091-.226.062-.43.156-.605.282-.175.125-.319.288-.42.478a1.397 1.397 0 0 0-.156.669c0 .257.045.48.133.662.087.18.217.336.379.454.161.117.36.204.59.255.228.052.485.078.768.078.298 0 .594-.025.88-.073.245-.042.488-.09.73-.142.097-.022.205-.051.205-.051.071-.018.066-.095.066-.095l-.002-2.647c0-.581-.155-1.013-.461-1.28-.305-.266-.752-.4-1.331-.4-.217 0-.568.03-.778.071 0 0-.632.123-.893.327 0 0-.057.036-.026.116l.206.551c.025.072.095.047.095.047s.022-.009.048-.024c.556-.303 1.262-.294 1.262-.294.313 0 .556.064.717.188.159.121.24.305.24.69v.123a10.119 10.119 0 0 0-.479-.056l-.002-.007Zm23.345-1.495a.077.077 0 0 0 0-.061.08.08 0 0 0-.043-.043 2.559 2.559 0 0 0-.486-.083c-.364-.022-.566.039-.748.12-.18.082-.379.212-.489.363v-.353c0-.049-.035-.088-.083-.088h-.743c-.048 0-.083.04-.083.088v4.32a.089.089 0 0 0 .088.088h.76a.088.088 0 0 0 .089-.088v-2.17c0-.29.032-.579.096-.76.062-.18.148-.324.253-.427a.88.88 0 0 1 .359-.215c.126-.036.258-.055.39-.055.151 0 .317.04.317.04.056.005.087-.029.106-.08.05-.132.192-.529.219-.608" fill="#FFFFFE"/>
    <path d="M29.806 21.325a2.252 2.252 0 0 0-.68-.099c-.525 0-.939.148-1.23.441-.288.29-.484.733-.582 1.315l-.035.197h-.659s-.08-.004-.097.084l-.108.603c-.008.058.017.094.095.093h.64l-.65 3.63c-.05.292-.11.532-.174.714-.063.18-.125.315-.202.413a.537.537 0 0 1-.265.205c-.1.033-.215.049-.342.049-.07 0-.163-.012-.232-.026-.069-.013-.105-.029-.156-.05 0 0-.076-.03-.105.046-.024.062-.195.531-.215.59-.02.057.008.102.044.115.086.03.15.05.265.078.162.038.298.04.425.04.267 0 .51-.038.712-.11.203-.074.38-.201.536-.374.169-.187.275-.382.377-.649.1-.264.186-.592.254-.974l.654-3.697h.955s.08.003.097-.084l.108-.603c.008-.058-.017-.094-.095-.093h-.927c.005-.021.047-.348.154-.654a.84.84 0 0 1 .203-.31.6.6 0 0 1 .243-.15c.1-.032.206-.047.31-.046.088 0 .174.01.24.024.089.02.124.03.148.037.094.028.107 0 .125-.045l.222-.61c.023-.065-.033-.092-.053-.1ZM16.85 27.596c0 .049-.035.088-.083.088h-.77c-.048 0-.082-.04-.082-.088v-6.189c0-.048.034-.087.083-.087h.769c.048 0 .083.039.083.087v6.19" fill="#FFFFFE"/>
  </g>
</svg>