<svg width="88" height="52" fill="none" xmlns="http://www.w3.org/2000/svg">
  <path d="M87.288 20.905c1.19 6.819-17.373 15.748-41.465 19.944C21.734 45.044 1.242 42.916.054 36.093c-1.188-6.818 17.38-15.746 41.469-19.94 24.09-4.199 44.579-2.068 45.765 4.752Z" fill="#034EA2"/>
  <path d="m64.615 31.026-.123-7.09h2.235v8.937h-3.214l-2.231-7.333h-.049l.125 7.333h-2.223v-8.936h3.355l2.076 7.09h.049ZM23.976 24.774l-1.236 8.193H20.3l1.674-9.03h4.017l1.668 9.03h-2.43l-1.202-8.193h-.05ZM34.507 30.84l1.116-6.904h3.683l.195 9.03h-2.257l-.06-8.118h-.046l-1.51 8.119h-2.29l-1.512-8.119h-.049l-.055 8.119h-2.263l.2-9.03h3.686l1.113 6.903h.05ZM16.499 30.42c.088.217.061.5.02.669-.076.3-.28.607-.88.607-.566 0-.91-.326-.91-.82v-.874h-2.422l-.002.699c0 2.013 1.585 2.621 3.284 2.621 1.634 0 2.979-.558 3.192-2.063.11-.78.027-1.291-.01-1.484-.38-1.89-3.808-2.456-4.063-3.512a1.186 1.186 0 0 1-.009-.476c.063-.287.26-.605.825-.605.527 0 .84.327.84.82v.557h2.25v-.633c0-1.968-1.765-2.275-3.043-2.275-1.607 0-2.92.53-3.16 2a3.17 3.17 0 0 0 .02 1.22c.396 1.844 3.602 2.378 4.068 3.548ZM45.863 30.403c.088.217.06.491.02.66-.075.3-.277.602-.873.602-.557 0-.899-.325-.899-.809l-.001-.867h-2.398l-.004.69c0 1.993 1.571 2.594 3.252 2.594 1.616 0 2.948-.55 3.16-2.041.11-.775.032-1.279-.008-1.468-.38-1.872-3.771-2.432-4.024-3.479-.043-.18-.03-.37-.01-.468.066-.29.26-.599.819-.599.523 0 .828.318.828.809v.552h2.235v-.628c0-1.946-1.75-2.251-3.018-2.251-1.589 0-2.89.523-3.125 1.984-.065.4-.072.754.022 1.206.388 1.825 3.563 2.356 4.024 3.513ZM53.447 31.616c.626 0 .821-.433.864-.655.018-.098.024-.228.022-.345v-6.683h2.284v6.477c.005.166-.011.508-.02.592-.16 1.686-1.493 2.234-3.152 2.234-1.661 0-2.995-.547-3.154-2.234a8.605 8.605 0 0 1-.02-.592v-6.477h2.282v6.681c0 .117.004.25.022.345.05.222.24.657.872.657ZM72.285 31.52c.654 0 .883-.413.925-.653.016-.103.022-.23.02-.343v-1.31h-.927v-1.319h3.203v2.425c-.002.17-.005.294-.032.596-.15 1.643-1.576 2.23-3.176 2.23-1.603 0-3.026-.587-3.18-2.23a7.966 7.966 0 0 1-.032-.596l.002-3.802c0-.16.02-.444.038-.596.2-1.688 1.569-2.231 3.172-2.231 1.602 0 3.004.54 3.17 2.231.03.287.02.596.02.596v.302h-2.276v-.506a2.255 2.255 0 0 0-.03-.343c-.037-.2-.21-.659-.9-.659-.66 0-.85.433-.9.66-.026.118-.037.279-.037.425v4.13c-.002.114.005.24.023.344.037.236.264.65.918.65Z" fill="#fff"/>
</svg>