<svg width="100" height="15" fill="none" xmlns="http://www.w3.org/2000/svg">
  <g clip-path="url(#clip0)">
    <path d="M59.682 8.213c-.151-.027-.659-.111-.808-.139-.802-.144-1.488-.331-1.488-1.138 0-.693.726-1.016 1.63-1.016 1.345 0 2.524.61 2.659.677l.737-1.945c-.284-.147-1.484-.788-3.373-.788-1.731 0-3.845.908-3.845 3.17 0 2.023 1.446 2.673 2.84 2.918.192.035.797.139.97.169.937.158 1.452.507 1.452 1.12 0 .779-.731 1.144-1.838 1.144-1.773 0-2.812-.528-3.113-.652l-.817 1.903c.254.13 1.464.813 3.825.813 2.29 0 4.13-1.135 4.13-3.247-.019-1.965-1.34-2.711-2.961-2.99zM66.677.322l-2.168 1.2v2.54h-1.141v2.073h1.141v4.482c0 1.915.787 3.634 3.563 3.634h.868v-2.075h-.325c-1.365 0-1.938-.787-1.938-1.857V6.135h2.49V4.06h-2.49V.322M83.616 5.972c.846 0 1.713.384 1.973 1.316l1.967-.749c-.551-1.947-2.36-2.675-3.956-2.675-2.86 0-4.012 1.775-4.012 3.501v3.582c0 1.725 1.153 3.502 4.012 3.502 1.596 0 3.405-.73 3.956-2.677l-1.967-.748c-.26.93-1.127 1.317-1.973 1.317-1.473 0-1.864-.806-1.864-1.726v-2.92c0-.918.39-1.723 1.864-1.723zM92.886 8.638l4.054-4.577h-2.666l-3.487 3.99V.323h-2.17v13.929h2.17v-3.244l.712-.804 3.105 4.047h2.601l-4.319-5.613z" fill="#4E4E55"/>
    <path d="M75.232 6.285h-2.254a.65.65 0 00-.65.648v2.446h-2.224V6.933a2.872 2.872 0 012.874-2.872h2.254v2.224M73.397 12.028h2.256a.65.65 0 00.649-.65V8.934h2.224v2.446a2.873 2.873 0 01-2.873 2.873h-2.256v-2.224zM36.63 4.061h2.49v2.074h-2.49v4.184c0 1.07.573 1.857 1.936 1.857h.326v2.075h-.869c-2.776 0-3.561-1.719-3.561-3.634V6.135h-3.65v4.184c0 1.07.575 1.857 1.938 1.857h.324v2.075h-.868c-2.776 0-3.563-1.719-3.563-3.634V6.135h-1.099V4.06h1.1v-2.54L30.813.323v3.74h3.649v-2.54l2.168-1.2v3.74M13.224 3.864a5.19 5.19 0 00-2.008.398V.322H9.047v13.93h2.169V6.288c.436-.274 1.063-.437 1.676-.437 1.363 0 2.004.757 2.004 1.875v6.524h2.167v-6.82c0-2.057-1.49-3.567-3.84-3.567M24.214 12.225c-.412.222-.934.35-1.452.35-1.619 0-2.227-.825-2.227-1.962V4.061h-2.168v6.592c0 2.563 1.48 3.796 4.128 3.796 1.267 0 2.67-.32 3.886-.847v-9.54h-2.167v8.163zM4.993 8.213c-.15-.027-.658-.111-.808-.139-.8-.144-1.488-.331-1.488-1.138 0-.693.725-1.016 1.63-1.016 1.345 0 2.524.61 2.659.677l.737-1.945c-.282-.147-1.483-.788-3.374-.788-1.73 0-3.844.908-3.844 3.17 0 2.023 1.444 2.673 2.84 2.918.192.035.797.139.971.169.937.158 1.45.507 1.45 1.12 0 .779-.73 1.144-1.836 1.144-1.773 0-2.813-.528-3.114-.652L0 13.636c.254.13 1.464.813 3.825.813 2.29 0 4.129-1.135 4.129-3.247-.02-1.965-1.34-2.711-2.96-2.99zM45.916 8.384h-3.655v-.742c0-.827.415-1.714 1.839-1.714 1.372 0 1.816.864 1.816 1.674v.782zm2.169-1.019c0-1.864-1.42-3.502-3.975-3.502-2.9 0-4.013 1.81-4.013 3.502v3.384c0 2.342 1.496 3.7 4.013 3.7 2.22 0 3.373-1.284 3.715-2.055l-1.83-1.1c-.157.453-.881 1.089-1.87 1.089-1.341 0-1.857-.748-1.857-1.686l-.007-.558h5.824V7.365zM49.473 7.369v6.883h2.166V7.553c0-.585.332-1.584 1.923-1.584.25 0 .815.07.995.105V3.973a5.449 5.449 0 00-1.106-.11c-2.755 0-3.978 1.728-3.978 3.506" fill="#E32124"/>
    <path d="M99.124 4.64c0-.081-.05-.157-.187-.157h-.136v.344h.136c.147 0 .187-.066.187-.172V4.64zm-.02.727a.028.028 0 01-.025-.014l-.162-.354H98.8v.348c0 .01-.006.02-.015.02h-.203c-.01 0-.02-.01-.02-.02V4.301h.405c.272 0 .394.172.394.334v.02a.358.358 0 01-.213.334l.203.358c.005.01 0 .02-.01.02h-.238zm-.167-1.334c-.46 0-.793.36-.793.82 0 .429.338.793.793.793.46 0 .789-.364.789-.794 0-.455-.36-.819-.789-.819zm0 1.85c-.586 0-1.061-.445-1.061-1.03a1.06 1.06 0 012.117 0c0 .585-.47 1.03-1.056 1.03z" fill="#4E4E55"/>
  </g>
  <defs>
    <clipPath id="clip0">
      <path fill="#fff" d="M0 0h100v14.449H0z"/>
    </clipPath>
  </defs>
</svg>
