<svg width="142" height="20" fill="none" xmlns="http://www.w3.org/2000/svg"><path d="M84.712 11.171c-.215-.038-.935-.157-1.146-.196-1.138-.204-2.113-.47-2.113-1.612 0-.98 1.03-1.438 2.314-1.438 1.909 0 3.583.863 3.774.958l1.046-2.753c-.402-.209-2.106-1.116-4.788-1.116-2.457 0-5.457 1.287-5.457 4.488 0 2.865 2.052 3.784 4.03 4.131.273.05 1.132.197 1.377.24 1.33.224 2.062.718 2.062 1.586 0 1.102-1.038 1.619-2.61 1.619-2.515 0-3.99-.748-4.417-.923l-1.16 2.694c.36.185 2.078 1.151 5.429 1.151 3.251 0 5.86-1.606 5.86-4.596-.025-2.783-1.9-3.839-4.2-4.233zM94.641 0l-3.077 1.698v3.595h-1.62V8.23h1.62v6.346c0 2.711 1.117 5.145 5.057 5.145h1.232v-2.938h-.462c-1.937 0-2.75-1.115-2.75-2.629V8.23h3.534V5.293h-3.534V0zM118.684 7.998c1.201 0 2.431.545 2.8 1.863l2.792-1.059c-.782-2.757-3.35-3.788-5.615-3.788-4.058 0-5.694 2.514-5.694 4.957v5.07c0 2.443 1.636 4.959 5.694 4.959 2.265 0 4.833-1.032 5.615-3.79l-2.792-1.059c-.369 1.317-1.599 1.865-2.8 1.865-2.091 0-2.646-1.142-2.646-2.443v-4.134c0-1.3.555-2.44 2.646-2.44zM131.842 11.773l5.753-6.48h-3.784l-4.948 5.648V.002h-3.081v19.72h3.081v-4.592l1.01-1.138 4.406 5.73h3.694l-6.131-7.948zM106.784 8.441h-3.2a.92.92 0 00-.921.918v3.464h-3.157V9.359a4.071 4.071 0 014.078-4.066h3.2v3.148zM104.179 16.572h3.202a.921.921 0 00.921-.92V12.19h3.156v3.463a4.072 4.072 0 01-4.077 4.067h-3.202v-3.148zM51.993 5.293h3.533V8.23h-3.533v5.924c0 1.514.813 2.63 2.748 2.63h.462v2.937H53.97c-3.941 0-5.055-2.434-5.055-5.145V8.23h-5.18v5.924c0 1.514.815 2.63 2.75 2.63h.46v2.937h-1.232c-3.94 0-5.056-2.434-5.056-5.145V8.23h-1.56V5.293h1.56V1.698L43.736 0v5.293h5.18V1.698L51.992 0v5.293zM18.77 5.014c-.974 0-1.962.188-2.85.563V0h-3.078v19.72h3.078V8.447c.618-.388 1.508-.62 2.378-.62 1.935 0 2.845 1.074 2.845 2.656v9.237h3.076v-9.656c0-2.912-2.115-5.05-5.45-5.05zM34.37 16.852c-.586.314-1.326.495-2.063.495-2.297 0-3.16-1.167-3.16-2.777V5.294h-3.078v9.332c0 3.628 2.102 5.374 5.86 5.374 1.799 0 3.791-.454 5.517-1.199V5.294h-3.077v11.558zM7.087 11.171c-.213-.038-.934-.157-1.146-.196-1.136-.204-2.113-.47-2.113-1.612 0-.98 1.03-1.438 2.314-1.438 1.909 0 3.583.863 3.774.958l1.046-2.753c-.4-.209-2.105-1.116-4.789-1.116C3.718 5.014.717 6.3.717 9.502c0 2.865 2.05 3.784 4.03 4.131.273.05 1.132.197 1.38.24 1.33.224 2.057.718 2.057 1.586 0 1.102-1.035 1.619-2.605 1.619-2.518 0-3.994-.748-4.42-.923L0 18.85C.361 19.034 2.078 20 5.429 20c3.251 0 5.86-1.606 5.86-4.596-.027-2.783-1.902-3.839-4.202-4.233z" fill="#5A6978"/><path fill-rule="evenodd" clip-rule="evenodd" d="M62.61 5.013c3.625 0 5.641 2.32 5.641 4.958V13.9h-8.267l.011.79c0 1.327.732 2.386 2.635 2.386 1.404 0 2.432-.9 2.654-1.54l2.598 1.556C67.396 18.183 65.76 20 62.61 20c-3.572 0-5.696-1.922-5.696-5.237V9.97c0-2.395 1.58-4.958 5.696-4.958zm-2.626 6.4h5.19v-1.106c0-1.147-.631-2.37-2.58-2.37-2.02 0-2.61 1.256-2.61 2.426v1.05z" fill="#5A6978"/><path d="M70.22 9.976v9.744h3.076V10.24c0-.829.471-2.244 2.73-2.244.354 0 1.156.101 1.412.149V5.168c-.277-.067-.913-.155-1.57-.155-3.912 0-5.647 2.447-5.647 4.963z" fill="#5A6978"/><path fill-rule="evenodd" clip-rule="evenodd" d="M138.924 6.413c0 .83.674 1.46 1.507 1.46.832 0 1.499-.63 1.499-1.46 0-.823-.675-1.496-1.499-1.496-.833 0-1.507.666-1.507 1.496zm1.507-1.16c-.653 0-1.127.51-1.127 1.16 0 .609.481 1.124 1.127 1.124.652 0 1.119-.515 1.119-1.124 0-.644-.509-1.16-1.119-1.16zm.2 1.869a.041.041 0 00.037.02h.336c.015 0 .022-.013.015-.028l-.287-.507a.507.507 0 00.301-.473v-.028c0-.229-.172-.473-.559-.473h-.574v1.481c0 .015.014.029.028.029h.288c.013 0 .021-.014.021-.029v-.493h.165l.229.5zm-.2-1.23c.193 0 .265.106.265.22v.022c0 .15-.057.243-.265.243h-.194v-.486h.194z" fill="#5A6978"/></svg>