<svg width="105" height="52" fill="none" xmlns="http://www.w3.org/2000/svg">
  <path fill-rule="evenodd" clip-rule="evenodd" d="M100.06 18.173v2.915c-1.51-.57-2.854-.858-4.03-.858-.697 0-1.252.129-1.67.378-.417.252-.63.561-.63.927 0 .486.471.919 1.42 1.306l2.74 1.333c2.216 1.056 3.315 2.459 3.315 4.22 0 1.465-.583 2.633-1.76 3.498-1.168.873-2.74 1.305-4.697 1.305-.904 0-1.715-.038-2.435-.12-.72-.078-1.549-.237-2.467-.465v-3.05c1.684.57 3.218.858 4.599.858 1.647 0 2.467-.477 2.467-1.44 0-.48-.336-.867-1.018-1.17l-3.043-1.298c-1.123-.507-1.958-1.122-2.504-1.852-.538-.735-.81-1.578-.81-2.542 0-1.349.567-2.435 1.69-3.26 1.131-.82 2.632-1.231 4.5-1.231.606 0 1.305.054 2.08.153.78.105 1.53.234 2.253.393zM13.861 18.173v2.915c-1.51-.57-2.852-.858-4.028-.858-.7 0-1.252.129-1.67.378-.417.252-.63.561-.63.927 0 .486.478.919 1.426 1.306l2.74 1.333c2.207 1.056 3.309 2.459 3.309 4.22 0 1.465-.585 2.633-1.753 3.498-1.177.873-2.74 1.305-4.704 1.305a21.85 21.85 0 01-2.437-.12c-.72-.078-1.54-.237-2.465-.465v-3.05c1.69.57 3.224.858 4.596.858 1.648 0 2.467-.477 2.467-1.44 0-.48-.333-.867-1.009-1.17L6.66 26.511c-1.131-.507-1.966-1.122-2.504-1.852-.546-.735-.813-1.578-.813-2.542 0-1.349.564-2.435 1.693-3.26 1.123-.82 2.626-1.231 4.493-1.231.613 0 1.304.054 2.087.153.774.105 1.525.234 2.245.393zM17.002 17.9h4.463v15.024h-4.463V17.9zM35.843 17.9v2.777h-6.63v3.332h5.75v2.503h-5.75v3.497h6.766v2.915H24.917V17.9h10.926zM56.679 17.9v15.024h-4.167v-9.91L48.19 33.063h-2.572l-4.158-10.047v9.909h-3.013V17.9h5.448l3.719 9.197 3.89-9.197h5.176zM71.052 17.9v2.777h-6.596v3.332h5.752v2.503h-5.751v3.497h6.73v2.915H60.125V17.9h10.927zM86.712 17.9v15.024h-4.734l-5.312-9.636v9.636h-3.012V17.9h4.872l5.175 9.47V17.9h3.011z" fill="#009A9A"/>
</svg>
