<svg width="125" height="52" fill="none" xmlns="http://www.w3.org/2000/svg">
  <path d="M32.97 29.088a8.288 8.288 0 01-1.732.168c-1.788 0-2.18-.615-2.18-1.788v-6.762h-3.352v7.153c0 3.185 1.788 4.638 5.365 4.638 1.732 0 3.353-.335 5.308-.782v-11.01h-3.408v8.383zm10.898.336c-1.23 0-1.397-.56-1.397-1.51v-4.358h2.794v-2.85H42.47v-3.353h-3.353v3.353H37.44V23.5h1.677v4.582c0 2.012.39 4.36 3.744 4.36 1.006 0 1.844-.224 2.794-.504l-.335-2.794c-.503.168-.95.28-1.453.28zM8.606 23.109a45.498 45.498 0 00-2.068-.67c-1.956-.56-2.57-.839-2.57-1.733 0-1.006.726-1.509 2.514-1.509 1.453 0 2.739.391 4.024.838l.726-3.24c-1.508-.56-2.905-1.063-4.638-1.063-4.023 0-6.259 2.292-6.259 5.03 0 2.067.895 3.409 2.906 4.247.56.223 1.286.447 2.012.67 2.18.671 2.85 1.006 2.85 1.845 0 1.005-.838 1.564-2.57 1.564-1.565 0-3.018-.447-4.527-1.117l-.782 3.353c1.676.67 3.297 1.117 5.308 1.117 4.136 0 6.26-2.291 6.26-5.085 0-2.235-1.286-3.52-3.186-4.247zm44.035-2.962c-1.117 0-2.18.28-2.906.503v-5.532h-3.352V32.44h3.352V23.78c.615-.223 1.286-.447 2.124-.447 1.285 0 1.788.503 1.788 1.733v7.376H57v-7.767c0-3.074-1.397-4.527-4.359-4.527zm-33.976-.056c-3.409 0-6.147 2.403-6.147 6.147s2.738 6.26 6.147 6.26c3.409 0 6.147-2.46 6.147-6.26s-2.738-6.147-6.147-6.147zm0 9.053c-1.453 0-2.627-1.062-2.627-2.962 0-1.9 1.118-2.905 2.627-2.905 1.509 0 2.626 1.005 2.626 2.905 0 1.956-1.173 2.962-2.626 2.962zm75.273-3.856a28.898 28.898 0 00-1.62-.503c-1.174-.335-1.62-.503-1.62-1.006s.446-.838 1.508-.838c1.118 0 2.123.224 3.241.559l.559-2.906c-1.23-.28-2.403-.503-3.744-.503-3.185 0-4.918 1.62-4.918 3.856 0 1.565.783 2.57 2.347 3.241.447.168.95.391 1.565.56 1.23.334 1.844.502 1.844 1.06 0 .56-.726.783-1.732.783-1.23 0-2.347-.223-3.52-.67l-.504 2.905c1.453.392 2.794.671 4.303.671 3.353 0 4.862-1.732 4.862-3.912-.056-1.509-.67-2.626-2.57-3.297zm-12.573-5.197c-3.52 0-6.035 2.459-6.035 6.37 0 3.633 2.179 6.036 6.09 6.036 1.733 0 3.13-.503 4.583-1.118l-.503-2.794c-1.118.503-2.235.894-3.576.894-2.012 0-2.85-.838-2.962-2.067h7.544s.112-1.341.112-1.62c0-3.186-1.733-5.7-5.253-5.7zm-2.347 5.085c.223-1.005.726-2.29 2.18-2.29 1.452 0 1.9 1.452 1.9 2.29h-4.08zm24.085 4.248c-1.229 0-1.397-.56-1.397-1.51v-4.358h2.794v-2.85h-2.794v-3.353h-3.353v3.353h-1.732v2.85h1.732v4.582c0 2.012.503 4.36 3.856 4.36 1.006 0 1.844-.224 2.794-.504l-.391-2.794c-.559.112-1.006.224-1.509.224zm2.235-13.636c-.838 0-1.453.67-1.508 1.51-.056.837.67 1.508 1.452 1.508.839 0 1.509-.67 1.509-1.509 0-.838-.614-1.509-1.453-1.509zm0 2.738c-.67 0-1.173-.502-1.173-1.229 0-.726.503-1.23 1.229-1.23.671 0 1.23.504 1.174 1.23-.056.727-.559 1.23-1.23 1.23zm.168-1.173c.279-.056.447-.168.447-.447 0-.28-.223-.503-.559-.503h-.559v1.732h.336v-.726c.111 0 .167.056.223.168l.391.558h.392l-.336-.559c-.223-.111-.279-.167-.335-.223zm-.224-.168h-.167v-.503h.223c.224 0 .28.112.28.224 0 .223-.168.28-.336.28zM72.2 20.705l-2.123 6.427-2.124-6.426h-2.906l-2.18 6.426-2.123-6.426h-3.632l4.191 11.735h3.074l2.123-6.37 2.124 6.37h3.073l4.191-11.735H72.2z" fill="#fff"/>
  <path d="M115.677 20.035c-1.118 0-2.068.391-2.795.782-.726-.39-1.62-.782-2.794-.782-2.291 0-3.744 1.453-3.744 4.024 0 3.073 2.962 6.09 6.538 8.55 3.577-2.403 6.539-5.42 6.539-8.55 0-2.57-1.509-4.024-3.744-4.024z" fill="#CCD7D7"/>
  <path d="M106.679 24.115c0 3.129 3.353 6.09 6.148 8.047.838-.56 1.676-1.23 2.458-1.9-3.744-3.13-7.32-5.98-8.55-6.986 0 .224-.056.503-.056.839z" fill="#104AB5"/>
  <path d="M118.806 25.568c-2.738-2.236-4.359-3.41-6.147-4.47-.503-.28-1.453-.727-2.515-.727-1.006 0-1.9.335-2.514.95a2.804 2.804 0 00-.783 1.508c1.397 1.006 5.253 3.744 9.109 6.818 1.285-1.23 2.347-2.626 2.85-4.08z" fill="#FF161E"/>
  <path d="M118.08 21.32c-.615-.614-1.453-.95-2.459-.95-1.062 0-1.844.336-2.459.671 1.062.615 3.353 1.9 5.756 3.688.056-.223.056-.502.056-.726.055-1.118-.28-2.068-.894-2.682z" fill="#FFAF00"/>
</svg>