<svg width="100" height="52" fill="none" xmlns="http://www.w3.org/2000/svg">
  <path fill="none" d="M0 0h100v52H0z"/>
  <path d="M14.996 12C6.714 12 0 18.714 0 26.996s6.714 14.996 14.996 14.996c8.283 0 14.997-6.714 14.997-14.996 0-8.281-6.714-14.995-14.997-14.995V12zm6.877 21.629a.933.933 0 01-1.285.31c-3.521-2.151-7.954-2.638-13.174-1.446a.935.935 0 01-.416-1.823c5.713-1.305 10.613-.743 14.566 1.673.44.27.58.845.31 1.286zm1.836-4.084a1.17 1.17 0 01-1.608.386c-4.031-2.478-10.176-3.196-14.944-1.748a1.17 1.17 0 01-1.37-1.67 1.17 1.17 0 01.691-.567c5.446-1.653 12.217-.852 16.846 1.992.55.339.723 1.059.385 1.608zm.157-4.252c-4.833-2.87-12.807-3.134-17.421-1.734a1.403 1.403 0 11-.815-2.684c5.298-1.608 14.104-1.297 19.668 2.006a1.401 1.401 0 01.49 1.922 1.401 1.401 0 01-1.92.49h-.002zm16.934.55c-2.59-.617-3.05-1.05-3.05-1.96 0-.861.81-1.44 2.015-1.44 1.167 0 2.324.44 3.538 1.345a.167.167 0 00.127.03.166.166 0 00.113-.068l1.264-1.782a.17.17 0 00-.032-.231c-1.445-1.16-3.07-1.723-4.973-1.723-2.795 0-4.749 1.678-4.749 4.078 0 2.575 1.685 3.486 4.597 4.19 2.477.57 2.896 1.049 2.896 1.903 0 .947-.846 1.537-2.206 1.537-1.512 0-2.746-.51-4.125-1.704a.168.168 0 00-.24.018l-1.418 1.687a.17.17 0 00.016.237c1.605 1.432 3.578 2.188 5.71 2.188 3.011 0 4.958-1.646 4.958-4.194.005-2.15-1.282-3.341-4.436-4.108l-.005-.003zm11.256-2.553c-1.305 0-2.376.514-3.26 1.568v-1.186a.17.17 0 00-.169-.17h-2.319a.17.17 0 00-.168.17v13.18c0 .093.075.17.168.17h2.32a.17.17 0 00.167-.17v-4.16c.885.99 1.956 1.476 3.261 1.476 2.427 0 4.884-1.868 4.884-5.439.003-3.571-2.454-5.44-4.882-5.44h-.002zm2.187 5.44c0 1.817-1.12 3.086-2.724 3.086-1.585 0-2.78-1.327-2.78-3.087 0-1.76 1.195-3.087 2.78-3.087 1.578 0 2.724 1.298 2.724 3.087zm8.991-5.44c-3.125 0-5.573 2.406-5.573 5.478 0 3.04 2.432 5.42 5.536 5.42 3.135 0 5.59-2.399 5.59-5.459 0-3.05-2.439-5.439-5.553-5.439zm0 8.544c-1.662 0-2.915-1.336-2.915-3.106 0-1.778 1.21-3.068 2.878-3.068 1.672 0 2.933 1.335 2.933 3.107 0 1.778-1.218 3.067-2.896 3.067zm12.226-8.332h-2.552v-2.608a.17.17 0 00-.168-.17h-2.32a.17.17 0 00-.17.17v2.608h-1.114a.17.17 0 00-.168.17v1.992c0 .094.075.17.168.17h1.114v5.157c0 2.083 1.037 3.139 3.084 3.139.83 0 1.52-.172 2.17-.54a.166.166 0 00.086-.148v-1.898a.17.17 0 00-.245-.15 2.927 2.927 0 01-1.36.328c-.744 0-1.077-.339-1.077-1.095v-4.792h2.552a.17.17 0 00.168-.17v-1.992a.165.165 0 00-.167-.17l-.001-.001zm8.889.01v-.32c0-.943.362-1.363 1.171-1.363.484 0 .872.096 1.307.241a.168.168 0 00.204-.084.168.168 0 00.018-.078v-1.953a.167.167 0 00-.12-.163 6.35 6.35 0 00-1.927-.277c-2.14 0-3.273 1.206-3.273 3.486v.49h-1.114a.17.17 0 00-.17.17v2.003c0 .094.077.17.17.17h1.114v7.952c0 .095.077.17.17.17h2.317c.095 0 .17-.075.17-.17v-7.951h2.166l3.316 7.951c-.376.835-.747 1.001-1.252 1.001-.408 0-.84-.122-1.278-.363a.184.184 0 00-.135-.013.169.169 0 00-.1.091l-.786 1.725a.17.17 0 00.073.22c.82.444 1.56.634 2.475.634 1.712 0 2.66-.799 3.492-2.944l4.022-10.393a.165.165 0 00-.018-.157.164.164 0 00-.138-.074H93.81a.17.17 0 00-.16.114l-2.474 7.061-2.707-7.066a.17.17 0 00-.158-.11h-3.961zm-5.154-.01h-2.319a.17.17 0 00-.17.17v10.114c0 .095.077.17.17.17h2.32a.17.17 0 00.17-.17V23.673a.171.171 0 00-.106-.157.168.168 0 00-.065-.013v-.001zm-1.146-4.606a1.663 1.663 0 10-.002 3.325 1.663 1.663 0 00.002-3.325zm20.31 7.858a1.625 1.625 0 01-1.63-1.632c0-.894.723-1.64 1.64-1.64.916 0 1.631.737 1.631 1.631 0 .895-.724 1.641-1.64 1.641zm.01-3.11c-.837 0-1.469.665-1.469 1.478 0 .814.629 1.469 1.46 1.469.836 0 1.468-.664 1.468-1.478 0-.813-.629-1.468-1.46-1.468zm.361 1.637l.462.646h-.39l-.416-.593h-.356v.593h-.326v-1.713h.763c.4 0 .66.204.66.547.003.28-.16.452-.395.52h-.002zm-.275-.773h-.425v.542h.425c.21 0 .338-.104.338-.271 0-.177-.127-.27-.338-.27z" fill="#1ED760"/>
</svg>