<svg width="101" height="30" fill="none" xmlns="http://www.w3.org/2000/svg"><path d="M15 0C6.716 0 0 6.716 0 15c0 8.285 6.716 15 15 15 8.285 0 15-6.715 15-15 0-8.284-6.715-15-15-15zm6.88 21.634a.934.934 0 01-1.287.31c-3.522-2.15-7.955-2.638-13.177-1.445A.935.935 0 017 18.675c5.714-1.305 10.616-.743 14.57 1.673.44.27.58.846.31 1.286zm1.835-4.084a1.17 1.17 0 01-1.608.386c-4.032-2.479-10.178-3.197-14.948-1.749a1.171 1.171 0 01-1.37-1.67 1.17 1.17 0 01.69-.568c5.448-1.653 12.22-.852 16.851 1.994a1.17 1.17 0 01.385 1.607zm.158-4.253c-4.835-2.872-12.81-3.136-17.427-1.735a1.403 1.403 0 11-.814-2.685C10.93 7.27 19.739 7.58 25.305 10.884a1.4 1.4 0 01.49 1.922 1.402 1.402 0 01-1.921.491h-.001zm16.938.55c-2.59-.617-3.05-1.05-3.05-1.962 0-.86.809-1.44 2.014-1.44 1.168 0 2.325.44 3.54 1.346a.166.166 0 00.127.03.166.166 0 00.113-.068l1.264-1.783a.17.17 0 00-.032-.23c-1.445-1.16-3.072-1.724-4.974-1.724-2.796 0-4.75 1.678-4.75 4.08 0 2.575 1.685 3.486 4.598 4.19 2.477.57 2.896 1.05 2.896 1.904 0 .947-.845 1.537-2.207 1.537-1.511 0-2.745-.51-4.125-1.704a.168.168 0 00-.24.018l-1.418 1.688a.17.17 0 00.016.236c1.605 1.433 3.578 2.189 5.71 2.189 3.013 0 4.96-1.646 4.96-4.195.005-2.15-1.282-3.342-4.437-4.11l-.005-.002zm11.26-2.554c-1.306 0-2.377.514-3.262 1.569v-1.187a.17.17 0 00-.169-.17h-2.32a.17.17 0 00-.168.17v13.184c0 .093.075.17.169.17h2.32a.17.17 0 00.168-.17v-4.161c.885.99 1.956 1.476 3.261 1.476 2.428 0 4.885-1.869 4.885-5.44.004-3.572-2.454-5.441-4.883-5.441h-.002zm2.187 5.44c0 1.819-1.12 3.089-2.725 3.089-1.585 0-2.782-1.328-2.782-3.088 0-1.761 1.197-3.088 2.782-3.088 1.578 0 2.724 1.298 2.724 3.088zm8.993-5.44c-3.125 0-5.574 2.407-5.574 5.48 0 3.04 2.432 5.42 5.537 5.42 3.136 0 5.592-2.398 5.592-5.46 0-3.05-2.44-5.44-5.555-5.44zm0 8.547c-1.662 0-2.916-1.337-2.916-3.107 0-1.779 1.211-3.07 2.879-3.07 1.673 0 2.934 1.337 2.934 3.109 0 1.778-1.218 3.068-2.897 3.068zm12.229-8.335h-2.553v-2.61a.17.17 0 00-.168-.169h-2.32a.17.17 0 00-.17.17v2.609h-1.114a.17.17 0 00-.168.17v1.993c0 .094.075.17.168.17h1.114v5.158c0 2.083 1.037 3.14 3.085 3.14.83 0 1.52-.172 2.17-.541a.166.166 0 00.087-.147V19.55a.169.169 0 00-.08-.143.165.165 0 00-.166-.007 2.928 2.928 0 01-1.361.328c-.743 0-1.077-.339-1.077-1.095V13.84h2.553a.17.17 0 00.168-.17v-1.993a.164.164 0 00-.166-.17l-.002-.001zm8.892.01v-.32c0-.943.361-1.363 1.171-1.363.484 0 .872.096 1.308.24a.168.168 0 00.204-.083.168.168 0 00.018-.078V7.957a.168.168 0 00-.12-.163 6.354 6.354 0 00-1.928-.277c-2.14 0-3.274 1.206-3.274 3.487v.491h-1.114a.17.17 0 00-.17.17v2.003c0 .094.077.17.17.17h1.114v7.954c0 .095.077.17.17.17h2.318c.095 0 .17-.075.17-.17V13.84h2.166l3.317 7.953c-.376.835-.747 1.001-1.252 1.001-.408 0-.84-.121-1.279-.363a.185.185 0 00-.134-.013.169.169 0 00-.1.092l-.787 1.724a.17.17 0 00.074.22c.82.445 1.56.635 2.475.635 1.713 0 2.66-.799 3.493-2.945l4.023-10.396a.166.166 0 00-.018-.157.166.166 0 00-.138-.074h-2.414a.17.17 0 00-.162.114L91.2 18.693l-2.709-7.068a.168.168 0 00-.157-.11h-3.962zm-5.156-.01h-2.32a.17.17 0 00-.17.17v10.117c0 .095.078.17.17.17h2.32a.17.17 0 00.17-.17V11.676a.17.17 0 00-.17-.17v-.001zM78.07 6.898a1.663 1.663 0 10-.002 3.326 1.663 1.663 0 00.002-3.326zm20.316 7.86a1.626 1.626 0 01-1.632-1.632c0-.895.724-1.64 1.641-1.64s1.632.736 1.632 1.63c0 .896-.724 1.642-1.64 1.642zm.01-3.11a1.46 1.46 0 00-1.47 1.478c0 .813.629 1.469 1.46 1.469.837 0 1.469-.664 1.469-1.478s-.629-1.47-1.46-1.47zm.36 1.636l.463.647h-.39l-.416-.593h-.356v.593h-.326v-1.713h.763c.4 0 .66.203.66.546.002.281-.16.453-.395.52h-.002zm-.275-.773h-.424v.542h.424c.212 0 .339-.103.339-.27 0-.177-.127-.271-.339-.271z" fill="#96A3B0"/></svg>