<svg width="101" height="31" fill="none" xmlns="http://www.w3.org/2000/svg">
  <path d="M15.458.576C7.176.576.46 7.29.46 15.572s6.715 14.996 14.997 14.996c8.283 0 14.996-6.714 14.996-14.996S23.741.576 15.457.576zm6.877 21.628a.933.933 0 01-1.286.31c-3.52-2.15-7.953-2.638-13.173-1.445a.935.935 0 01-.416-1.823c5.712-1.305 10.612-.743 14.565 1.673.44.27.58.845.31 1.285zm1.835-4.083a1.169 1.169 0 01-1.608.385c-4.03-2.477-10.175-3.195-14.943-1.747a1.17 1.17 0 01-1.46-.78 1.17 1.17 0 01.78-1.458c5.447-1.652 12.217-.852 16.846 1.993.55.338.724 1.058.385 1.607zm.158-4.252C19.495 11 11.52 10.734 6.906 12.135a1.402 1.402 0 11-.814-2.684c5.297-1.608 14.103-1.298 19.667 2.006a1.4 1.4 0 01.491 1.922 1.402 1.402 0 01-1.921.49h-.001zm16.933.55c-2.59-.617-3.05-1.05-3.05-1.961 0-.86.81-1.44 2.015-1.44 1.168 0 2.325.44 3.539 1.345a.166.166 0 00.127.031.167.167 0 00.113-.069l1.264-1.782a.17.17 0 00-.032-.23c-1.446-1.16-3.072-1.723-4.973-1.723-2.796 0-4.75 1.678-4.75 4.078 0 2.574 1.686 3.486 4.598 4.19 2.476.57 2.895 1.048 2.895 1.903 0 .947-.845 1.536-2.206 1.536-1.511 0-2.745-.51-4.124-1.703a.175.175 0 00-.124-.041.167.167 0 00-.116.06l-1.418 1.686a.17.17 0 00.016.236c1.604 1.433 3.578 2.189 5.709 2.189 3.012 0 4.958-1.646 4.958-4.194.006-2.15-1.282-3.341-4.435-4.109l-.006-.002zm11.257-2.553c-1.306 0-2.377.514-3.261 1.568v-1.186a.169.169 0 00-.168-.17h-2.32a.17.17 0 00-.168.17v13.18c0 .093.075.17.169.17h2.319a.17.17 0 00.168-.17v-4.16c.885.99 1.955 1.475 3.26 1.475 2.427 0 4.884-1.867 4.884-5.438.004-3.571-2.453-5.44-4.881-5.44h-.002zm2.186 5.439c0 1.817-1.119 3.087-2.723 3.087-1.585 0-2.781-1.327-2.781-3.087 0-1.76 1.196-3.087 2.78-3.087 1.578 0 2.724 1.298 2.724 3.087zm8.992-5.44c-3.125 0-5.573 2.407-5.573 5.479 0 3.04 2.432 5.419 5.535 5.419 3.136 0 5.59-2.398 5.59-5.458 0-3.05-2.438-5.439-5.552-5.439zm0 8.545c-1.662 0-2.916-1.336-2.916-3.106 0-1.778 1.21-3.068 2.878-3.068 1.673 0 2.933 1.335 2.933 3.107 0 1.778-1.217 3.067-2.895 3.067zm12.225-8.332H73.37V9.469a.171.171 0 00-.103-.156.17.17 0 00-.065-.014h-2.32a.17.17 0 00-.17.17v2.609h-1.113a.17.17 0 00-.168.17v1.992c0 .094.075.17.168.17h1.114v5.157c0 2.082 1.037 3.139 3.084 3.139.83 0 1.52-.172 2.17-.541a.166.166 0 00.086-.147V20.12a.17.17 0 00-.246-.15 2.927 2.927 0 01-1.36.327c-.744 0-1.077-.338-1.077-1.094v-4.792h2.552a.17.17 0 00.168-.17v-1.992a.165.165 0 00-.166-.17l-.002-.001zm8.89.01v-.32c0-.943.361-1.363 1.17-1.363.484 0 .873.096 1.308.24a.168.168 0 00.204-.083.168.168 0 00.018-.078V8.531a.168.168 0 00-.12-.163 6.352 6.352 0 00-1.927-.277c-2.14 0-3.273 1.206-3.273 3.486v.49h-1.114a.17.17 0 00-.17.17v2.003c0 .094.077.17.17.17h1.114v7.952c0 .095.076.17.17.17h2.317c.095 0 .17-.075.17-.17V14.41h2.165l3.316 7.95c-.376.835-.746 1.002-1.251 1.002-.409 0-.84-.122-1.279-.364a.185.185 0 00-.134-.012.169.169 0 00-.1.091l-.787 1.725a.17.17 0 00.074.22c.82.444 1.56.634 2.475.634 1.712 0 2.659-.799 3.492-2.944L96.84 12.32a.165.165 0 00-.018-.158.165.165 0 00-.138-.074H94.27a.17.17 0 00-.161.114l-2.473 7.062-2.708-7.066a.169.169 0 00-.158-.11h-3.96zm-5.154-.01h-2.32a.17.17 0 00-.17.17v10.114c0 .095.077.17.17.17h2.32a.17.17 0 00.17-.17V12.248a.169.169 0 00-.17-.17zM78.51 7.472a1.662 1.662 0 10-.002 3.325 1.662 1.662 0 00.002-3.325zm20.311 7.858a1.625 1.625 0 01-1.631-1.632c0-.895.723-1.64 1.64-1.64.917 0 1.631.737 1.631 1.63a1.64 1.64 0 01-1.64 1.642zm.01-3.11c-.837 0-1.47.664-1.47 1.478 0 .813.63 1.469 1.46 1.469.836 0 1.469-.664 1.469-1.478 0-.813-.629-1.469-1.46-1.469zm.36 1.637l.463.646h-.39l-.416-.593h-.356v.593h-.326V12.79h.763c.399 0 .66.204.66.546.002.281-.16.453-.395.52h-.002zm-.275-.773h-.424v.542h.424c.211 0 .338-.104.338-.272 0-.176-.127-.27-.338-.27z" fill="#1ED760"/>
</svg>
