<svg width="116" height="27" viewBox="0 0 116 27" fill="none" xmlns="http://www.w3.org/2000/svg">
<path d="M17.8182 12.8745H28.2259C28.3035 12.8742 28.3792 12.8515 28.4437 12.8094C28.5081 12.7672 28.5584 12.7074 28.5881 12.6375C28.6178 12.5677 28.6258 12.4908 28.6109 12.4165C28.596 12.3422 28.5589 12.2739 28.5044 12.2201L26.1832 9.95776C26.1431 9.91861 26.0948 9.8884 26.0416 9.86919C25.9884 9.84999 25.9316 9.84225 25.875 9.84652L25.6869 9.86097L19.4195 10.4461L23.105 7.56686C23.1492 7.533 23.1854 7.49032 23.2113 7.44167C23.2372 7.39303 23.2521 7.33954 23.2551 7.28481C23.258 7.23008 23.2489 7.17537 23.2284 7.12435C23.2079 7.07333 23.1764 7.02718 23.1361 6.989L21.4444 5.34642C21.4051 5.30861 21.3582 5.27924 21.3065 5.2602C21.2549 5.24116 21.1998 5.23287 21.1447 5.23587C21.0895 5.23886 21.0357 5.25307 20.9865 5.27759C20.9374 5.3021 20.8941 5.33637 20.8593 5.3782L17.9115 8.97395L18.504 2.86306L18.5188 2.68103C18.5235 2.62586 18.5157 2.57036 18.496 2.51844C18.4763 2.46652 18.4452 2.41945 18.4048 2.38054L16.091 0.11099C16.0358 0.057793 15.9657 0.0216675 15.8896 0.0071443C15.8134 -0.0073789 15.7346 0.000346372 15.6629 0.0293517C15.5912 0.058357 15.53 0.107351 15.4867 0.17019C15.4435 0.233029 15.4203 0.306916 15.4199 0.382585V10.5327L17.8182 12.8745Z" fill="#004952"/>
<path d="M0.392294 12.8745H10.8L13.1983 10.5356V0.382585C13.1979 0.306916 13.1747 0.233029 13.1315 0.17019C13.0882 0.107351 13.0269 0.058357 12.9553 0.0293517C12.8836 0.000346372 12.8048 -0.0073789 12.7286 0.0071443C12.6525 0.0216675 12.5824 0.057793 12.5272 0.11099L10.2075 2.37477C10.166 2.41314 10.1338 2.45998 10.113 2.51192C10.0923 2.56387 10.0836 2.61964 10.0875 2.67525L10.1023 2.85728L10.6948 8.96817L7.74703 5.3782C7.71228 5.33521 7.66855 5.29992 7.61873 5.27468C7.56892 5.24945 7.51417 5.23484 7.45812 5.23183C7.40207 5.22883 7.34601 5.23749 7.29366 5.25725C7.24131 5.277 7.19387 5.3074 7.1545 5.34642L5.48358 6.99622C5.44326 7.0344 5.41179 7.08055 5.39127 7.13157C5.37075 7.18259 5.36166 7.23731 5.3646 7.29204C5.36755 7.34677 5.38247 7.40025 5.40835 7.4489C5.43424 7.49754 5.47049 7.54022 5.51468 7.57408L9.19872 10.4461L2.92979 9.86097L2.74166 9.84652C2.68511 9.84225 2.62829 9.84999 2.5751 9.86919C2.52191 9.8884 2.47362 9.91861 2.43355 9.95776L0.113806 12.2201C0.0592591 12.2739 0.0222173 12.3422 0.00732559 12.4165C-0.00756615 12.4908 0.000355162 12.5677 0.0300965 12.6375C0.0598378 12.7074 0.110075 12.7672 0.174509 12.8094C0.238942 12.8515 0.314704 12.8742 0.392294 12.8745Z" fill="#004952"/>
<path d="M28.2529 15.0416H0.490066C0.412287 15.0416 0.336241 15.064 0.271577 15.1062C0.206913 15.1483 0.156547 15.2083 0.126869 15.2784C0.0971904 15.3485 0.0895387 15.4256 0.104884 15.5C0.12023 15.5744 0.157881 15.6426 0.21306 15.6961L2.52391 17.9497C2.56398 17.9889 2.61227 18.0191 2.66546 18.0383C2.71865 18.0575 2.77548 18.0652 2.83203 18.061L3.01867 18.0465L13.3183 17.0858L12.622 26.3316C12.618 26.3841 12.625 26.4369 12.6428 26.4867C12.6607 26.5364 12.6888 26.582 12.7255 26.6207C12.7622 26.6593 12.8067 26.6902 12.8562 26.7113C12.9057 26.7324 12.9591 26.7433 13.0131 26.7433H15.4277C15.4817 26.7433 15.5351 26.7324 15.5846 26.7113C15.6341 26.6902 15.6786 26.6593 15.7153 26.6207C15.752 26.582 15.7801 26.5364 15.7979 26.4867C15.8157 26.4369 15.8228 26.3841 15.8187 26.3316L15.1225 17.0858L25.7243 18.048L25.9109 18.0624C25.9675 18.0667 26.0243 18.0589 26.0775 18.0397C26.1307 18.0205 26.179 17.9903 26.219 17.9512L28.5299 15.6975C28.5856 15.6441 28.6237 15.5758 28.6393 15.5011C28.655 15.4265 28.6474 15.3491 28.6177 15.2787C28.588 15.2082 28.5374 15.1481 28.4724 15.1059C28.4074 15.0636 28.331 15.0413 28.2529 15.0416Z" fill="#004952"/>
<path d="M62.3617 10.8522C61.1737 10.023 59.7874 9.50522 58.3355 9.34827C56.4171 9.11279 54.567 9.31793 52.8161 10.1674C51.0652 11.0168 49.8949 12.3445 49.135 14.055C48.6165 15.2193 48.4299 16.4545 48.3943 17.7143C48.3484 19.2543 48.5158 20.7654 49.135 22.1927C49.7823 23.6807 50.7748 24.9014 52.2028 25.7465C54.2307 26.9442 56.4379 27.2129 58.7413 26.8503C60.4219 26.6054 61.9938 25.8908 63.2668 24.7931C64.0642 24.0851 64.6966 23.2186 65.1214 22.2519C65.1352 22.2223 65.1412 22.1898 65.1389 22.1573C65.1365 22.1249 65.1259 22.0935 65.1079 22.066C65.09 22.0386 65.0652 22.016 65.036 22.0003C65.0068 21.9845 64.974 21.9762 64.9406 21.976H61.6373C61.6038 21.9762 61.5709 21.984 61.541 21.9988C61.5112 22.0136 61.4853 22.035 61.4655 22.0612C61.1864 22.4333 60.8507 22.7617 60.47 23.0349C59.4418 23.763 58.1986 24.1448 56.9282 24.1228C55.8123 24.1481 54.719 23.814 53.8174 23.1722C52.9951 22.5737 52.3959 21.7296 52.111 20.7683C52.0073 20.449 51.9391 20.1196 51.8621 19.7758C51.8553 19.7451 51.8555 19.7133 51.8629 19.6827C51.8703 19.6521 51.8846 19.6235 51.9048 19.599C51.9249 19.5745 51.9504 19.5547 51.9794 19.541C52.0085 19.5274 52.0402 19.5202 52.0725 19.5201H65.3584C65.4105 19.5203 65.4609 19.5021 65.5003 19.4689C65.5398 19.4357 65.5657 19.3898 65.5732 19.3395C65.8191 17.6059 65.5732 15.5661 64.871 13.9769C64.3392 12.7335 63.4721 11.6537 62.3617 10.8522ZM61.8254 16.7752H52.2265C52.1949 16.7751 52.1637 16.7682 52.1351 16.755C52.1065 16.7419 52.0811 16.7229 52.0608 16.6992C52.0405 16.6756 52.0257 16.6479 52.0175 16.6181C52.0093 16.5883 52.0078 16.5572 52.0132 16.5268C52.3998 14.2572 54.0233 12.5597 56.4912 12.4095C59.5575 12.2231 61.5558 13.883 62.0387 16.5239C62.0446 16.5545 62.0435 16.586 62.0355 16.6161C62.0275 16.6462 62.0128 16.6743 61.9925 16.6983C61.9721 16.7223 61.9466 16.7416 61.9177 16.7549C61.8889 16.7682 61.8574 16.7751 61.8254 16.7752Z" fill="#004952"/>
<path d="M97.5636 9.53016C95.032 9.56627 93.0159 10.4432 91.856 12.7835V12.8153L91.4694 10.0228C91.4625 9.97369 91.4381 9.92853 91.4004 9.89525C91.3628 9.86196 91.3143 9.84267 91.2635 9.84076H88.3749C88.3467 9.84076 88.3188 9.84618 88.2928 9.8567C88.2667 9.86723 88.243 9.88266 88.2231 9.90211C88.2031 9.92156 88.1873 9.94466 88.1765 9.97007C88.1657 9.99548 88.1602 10.0227 88.1602 10.0502V26.5338C88.1602 26.5613 88.1657 26.5885 88.1765 26.6139C88.1873 26.6393 88.2031 26.6624 88.2231 26.6819C88.243 26.7013 88.2667 26.7168 88.2928 26.7273C88.3188 26.7378 88.3467 26.7432 88.3749 26.7432H91.6487C91.7056 26.7432 91.7603 26.7212 91.8005 26.6819C91.8408 26.6426 91.8634 26.5893 91.8634 26.5338V18.6922C91.8799 17.6949 92.0584 16.7065 92.3923 15.7638C92.6663 14.9996 93.0441 14.2917 93.6677 13.7269C94.4246 13.0421 95.3623 12.7662 96.3548 12.6217C96.7607 12.5625 97.171 12.5394 97.5843 12.5061C97.6381 12.5018 97.6883 12.4778 97.7248 12.439C97.7613 12.4002 97.7815 12.3494 97.7813 12.2967V9.74108C97.7813 9.71326 97.7757 9.68571 97.7647 9.66003C97.7537 9.63434 97.7377 9.61103 97.7174 9.59142C97.6972 9.57182 97.6732 9.55631 97.6468 9.5458C97.6204 9.53528 97.5921 9.52997 97.5636 9.53016Z" fill="#004952"/>
<path d="M41.9239 26.6147C41.9652 26.6554 42.0143 26.6877 42.0685 26.7098C42.1226 26.7319 42.1807 26.7432 42.2394 26.7433H46.7115C46.7807 26.7433 46.847 26.7165 46.8959 26.6688C46.9448 26.6211 46.9722 26.5565 46.9722 26.489V23.8193C46.9722 23.7519 46.9448 23.6872 46.8959 23.6395C46.847 23.5918 46.7807 23.565 46.7115 23.565H43.1208C43.0422 23.565 42.9669 23.5346 42.9113 23.4804C42.8558 23.4262 42.8245 23.3527 42.8245 23.2761V12.1523H46.4152C46.4844 12.1523 46.5507 12.1255 46.5996 12.0778C46.6485 12.0301 46.676 11.9654 46.676 11.898V9.22829C46.676 9.16086 46.6485 9.09619 46.5996 9.0485C46.5507 9.00082 46.4844 8.97403 46.4152 8.97403H42.8245V4.04342C42.8238 4.00001 42.8118 3.95748 42.7897 3.91976C42.7677 3.88204 42.7362 3.85035 42.6983 3.82761C42.6604 3.80487 42.6172 3.79181 42.5727 3.78963C42.5282 3.78746 42.4839 3.79624 42.4438 3.81517L39.5671 5.11536C39.5228 5.13585 39.4854 5.16817 39.4592 5.20857C39.433 5.24897 39.419 5.2958 39.419 5.34361V8.97403H38.0503C37.9811 8.97403 37.9148 9.00082 37.8659 9.0485C37.817 9.09619 37.7896 9.16086 37.7896 9.22829V11.898C37.7896 11.9654 37.817 12.0301 37.8659 12.0778C37.9148 12.1255 37.9811 12.1523 38.0503 12.1523H39.4175V23.9638C39.4176 24.078 39.4639 24.1875 39.5464 24.2686L41.9239 26.6147Z" fill="#004952"/>
<path d="M81.8439 10.6411C80.5493 9.93339 79.0853 9.57346 77.6014 9.59803C75.2313 9.59803 73.355 10.5029 71.9724 12.3125L71.5043 4.12712C71.5024 4.08387 71.4892 4.0418 71.4659 4.00496C71.4426 3.96812 71.41 3.93773 71.3712 3.9167C71.3324 3.89568 71.2887 3.88472 71.2443 3.88489C71.1999 3.88505 71.1563 3.89633 71.1177 3.91765L68.4394 5.19617C68.3994 5.21802 68.3661 5.24989 68.3429 5.28849C68.3198 5.32709 68.3076 5.37102 68.3076 5.41575V26.4904C68.3076 26.5574 68.3349 26.6217 68.3835 26.6692C68.4322 26.7166 68.4981 26.7432 68.5668 26.7432H71.2806C71.3416 26.7431 71.4005 26.722 71.4471 26.6837C71.4937 26.6454 71.525 26.5923 71.5354 26.5337L71.9398 24.2945C72.5328 25.1157 73.3252 25.7808 74.2462 26.2303C75.1972 26.7061 76.3171 26.9435 77.6058 26.9426C79.0963 26.9664 80.5645 26.5879 81.8483 25.849C83.0972 25.1164 84.1091 24.0554 84.768 22.7877C85.4692 21.476 85.8197 19.9702 85.8197 18.2703C85.8197 16.4828 85.4692 14.9384 84.768 13.6373C84.1124 12.3827 83.0963 11.3416 81.8439 10.6411ZM80.5655 22.7848C79.5957 23.9175 78.3282 24.4838 76.763 24.4838C75.1977 24.4838 73.9361 23.9112 72.9782 22.7661C72.0183 21.6219 71.5389 20.1435 71.5398 18.331C71.5398 16.5425 72.0193 15.0882 72.9782 13.9681C73.9371 12.848 75.1987 12.2875 76.763 12.2865C78.3272 12.2865 79.5947 12.8528 80.5655 13.9855C81.5363 15.1181 82.0211 16.5776 82.0201 18.3642C82.0201 20.1787 81.5353 21.6522 80.5655 22.7848Z" fill="#004952"/>
<path d="M115.742 9.84064H113.039C112.978 9.84049 112.919 9.86146 112.872 9.89982C112.825 9.93817 112.794 9.99143 112.784 10.0501L112.381 12.3168C111.796 11.482 111.003 10.806 110.076 10.352C109.128 9.88012 108.011 9.64368 106.725 9.64272C105.252 9.62136 103.8 9.99248 102.527 10.7161C101.278 11.4389 100.263 12.4904 99.5988 13.7499C98.8897 15.0587 98.5347 16.5718 98.5337 18.289C98.5337 20.0495 98.8833 21.5847 99.5825 22.8945C100.231 24.1514 101.243 25.1955 102.493 25.898C103.785 26.604 105.245 26.963 106.725 26.9381C107.988 26.9381 109.094 26.6853 110.042 26.1797C110.969 25.6918 111.768 25.0028 112.378 24.1658L112.75 26.5264C112.759 26.586 112.79 26.6403 112.837 26.6795C112.884 26.7187 112.944 26.7402 113.006 26.7402H115.741C115.809 26.7402 115.875 26.7136 115.924 26.6662C115.973 26.6188 116 26.5544 116 26.4874V10.0935C116 10.0266 115.973 9.96256 115.924 9.91519C115.876 9.86782 115.811 9.84102 115.742 9.84064ZM111.079 22.766C110.12 23.9121 108.858 24.4846 107.294 24.4837C105.73 24.4827 104.462 23.9164 103.492 22.7847C102.522 21.6521 102.037 20.1796 102.037 18.367C102.037 16.5785 102.522 15.118 103.492 13.9854C104.461 12.8527 105.729 12.2864 107.294 12.2864C108.859 12.2864 110.121 12.847 111.079 13.968C112.037 15.0891 112.516 16.5434 112.516 18.3309C112.516 20.1434 112.037 21.6218 111.079 22.766Z" fill="#004952"/>
</svg>
