<svg width="31" height="52" fill="none" xmlns="http://www.w3.org/2000/svg">
  <path d="M27.617 20.224c.019.27.019.542.019.816 0 8.34-6.35 17.96-17.96 17.96v-.005A17.87 17.87 0 0 1 0 36.165a12.675 12.675 0 0 0 9.342-2.616 6.32 6.32 0 0 1-5.897-4.383 6.292 6.292 0 0 0 2.85-.11A6.313 6.313 0 0 1 1.23 22.87v-.08c.878.489 1.86.76 2.865.79a6.32 6.32 0 0 1-1.954-8.428 17.915 17.915 0 0 0 13.01 6.594 6.32 6.32 0 0 1 10.757-5.757 12.668 12.668 0 0 0 4.008-1.533 6.336 6.336 0 0 1-2.775 3.492 12.555 12.555 0 0 0 3.625-.994 12.824 12.824 0 0 1-3.15 3.27Z" fill="#1D9BF0"/>
</svg>