<svg width="59" height="21" fill="none" xmlns="http://www.w3.org/2000/svg"><g clip-path="url(#clip0)"><path d="M17.558 16.767l-3.791-6.314 3.791-6.314 1.828 6.314-1.828 6.314zM9.12 16.15l-4.765-4.678h7.584l3.791 6.314-6.61-1.636zm0-11.415l6.591-1.637-3.792 6.314H4.336L9.12 4.735zM18.803 0l-8.614 2.214-1.284 2.175-2.585-.02L0 10.454l6.32 6.083 2.585-.02 1.284 2.176 8.614 2.233 2.314-8.297-1.303-2.156 1.303-2.156L18.803 0zm19.56 6.14c-1.146 0-1.924.482-2.508 1.368h-.038V6.372h-2.023v8.354h2.062V9.991c0-1.136.719-1.925 1.71-1.925.934 0 1.634.558 1.634 1.54v5.14h2.061V9.278c.02-1.828-1.147-3.137-2.897-3.137zm-7.7 5.064c0 1.116-.64 1.886-1.69 1.886-.953 0-1.556-.539-1.556-1.52V6.371h-2.062v5.582c0 1.829 1.05 3.023 2.937 3.023 1.186 0 1.847-.443 2.41-1.213h.06v.982h1.983V6.372h-2.062v4.832h-.02zM42.37 6.372h2.06v8.354h-2.06V6.372zm0-2.599h2.06v1.675h-2.06V3.773zm13.747 2.599l-1.225 3.773c-.273.77-.486 1.829-.486 1.829h-.059s-.272-1.06-.544-1.83l-1.38-3.772h-2.218l2.276 5.948c.486 1.27.641 1.81.641 2.271 0 .693-.37 1.136-1.244 1.136h-.797v1.752h1.322c1.71 0 2.314-.674 2.955-2.522l2.975-8.566h-2.216v-.02zm-7.836 5.91V7.853h1.322V6.391H48.28V3.773h-2.062v2.599h-1.166v1.463h1.166v4.908c0 1.579 1.206 2.003 2.295 2.003.894 0 1.128-.04 1.128-.04V13.09h-.525c-.486.02-.836-.192-.836-.809z" fill="#80BFFF"/></g><defs><clipPath id="clip0"><path fill="#fff" d="M0 0h58.333v21H0z"/></clipPath></defs></svg>