<svg width="69" height="52" fill="none" xmlns="http://www.w3.org/2000/svg">
  <path fill="none" d="M0 0h69v52H0z"/>
  <path fill-rule="evenodd" clip-rule="evenodd" d="M12.051 18.645L22.241 16l2.736 9.936-1.541 2.576 1.54 2.575L22.24 41l-10.189-2.668-1.518-2.599-3.058.023L0 28.488l7.475-7.267 3.059.023 1.517-2.599zm-1.264 3.013l7.796-1.955-4.485 7.544h-8.97l5.659-5.59zm5.496 6.83l4.485 7.544 2.162-7.543-2.162-7.544-4.485 7.543zm-11.131 1.22l5.635 5.588 7.82 1.955-4.486-7.544h-8.97zm40.225-6.371c-1.357 0-2.277.575-2.967 1.633h-.046v-1.357h-2.392v9.981h2.438v-5.658c0-1.356.851-2.3 2.024-2.3 1.104 0 1.932.668 1.932 1.84v6.141h2.438v-6.532c.023-2.184-1.357-3.748-3.427-3.748zm-11.109 8.302c1.242 0 2.001-.92 2.001-2.254h.023v-5.772h2.438v10.004h-2.346v-1.173h-.069c-.667.92-1.449 1.45-2.852 1.45-2.23 0-3.473-1.427-3.473-3.612v-6.67h2.439v6.21c0 1.173.712 1.817 1.84 1.817zm15.847-8.026h2.438v9.981h-2.438v-9.981zm2.438-3.105h-2.438v2h2.438v-2zm13.822 3.105l-1.449 4.507c-.322.92-.575 2.185-.575 2.185h-.069s-.322-1.265-.644-2.185l-1.633-4.507h-2.622l2.691 7.106c.575 1.518.76 2.162.76 2.714 0 .828-.438 1.357-1.473 1.357h-.943v2.093h1.565c2.023 0 2.736-.805 3.495-3.013l3.52-10.234h-2.623v-.023zm-9.268 1.77v5.29c0 .737.414.99.989.966h.62v1.932s-.275.047-1.333.047c-1.288 0-2.714-.507-2.714-2.393v-5.864h-1.38v-1.748h1.38v-3.105h2.438v3.128h1.564v1.748h-1.564z" fill="#1D1D1D"/>
</svg>