<svg width="91" height="52" fill="none" xmlns="http://www.w3.org/2000/svg">
  <path d="m88.222 15-4.928 10.542-1.853-3.994h-2.005l3.048 6.534h1.62L90.212 15h-1.99Z" fill="#D52B1E"/>
  <path d="M67.082 34.575h3.968v-7.262c0-1.66.96-2.828 2.388-2.828 1.373 0 2.086.961 2.086 2.348v7.742h3.967v-8.497c0-2.883-1.73-4.915-4.53-4.915-1.784 0-3.033.77-3.966 2.17h-.083v-1.785H67.07l.013 13.027ZM59.286 21.19c-4.146 0-6.919 2.979-6.919 6.905 0 3.898 2.773 6.904 6.919 6.904 4.145 0 6.918-3.006 6.918-6.904.014-3.926-2.773-6.905-6.918-6.905Zm-.028 10.872c-1.88 0-2.882-1.58-2.882-3.968 0-2.415.988-3.966 2.882-3.966 1.88 0 2.924 1.55 2.924 3.966.014 2.389-1.03 3.968-2.924 3.968Zm-18.201 2.511h11.146v-3.13h-6.315v-.082l6.04-6.767v-3.06H41.057v3.142h6.108v.083l-6.108 6.822v2.992Zm-5.093 0h3.995V21.549h-3.995v13.027Zm-9.265 0h3.98V28.59c0-2.718 1.634-3.926 4.118-3.583h.083v-3.432c-.206-.082-.44-.096-.81-.096-1.551 0-2.595.714-3.487 2.238h-.082v-2.17h-3.803v13.027Zm-7.303-2.498c-1.757 0-2.828-1.14-3.034-2.896h9.39c.027-2.8-.714-5.038-2.266-6.438-1.098-1.016-2.539-1.579-4.378-1.579-3.926 0-6.644 2.98-6.644 6.878 0 3.925 2.594 6.918 6.904 6.918 1.634 0 2.924-.44 3.995-1.167 1.14-.782 1.963-1.935 2.182-3.075H21.73c-.37.851-1.166 1.36-2.333 1.36Zm-.206-8.071c1.4 0 2.36 1.043 2.526 2.567H16.39c.315-1.538 1.153-2.567 2.8-2.567ZM4.53 34.575h4.173l4.53-13.027H9.238l-2.54 8.373h-.054l-2.54-8.373H0l4.53 13.027Zm31.434-17.667h3.995v3.542h-3.995v-3.542Z" fill="#fff"/>
</svg>