<svg fill="none" height="52" width="131" xmlns="http://www.w3.org/2000/svg" xmlns:xlink="http://www.w3.org/1999/xlink"><clipPath id="a"><path d="m0 0h130.831v18h-130.831z" transform="translate(0 15)"/></clipPath><g clip-path="url(#a)" clip-rule="evenodd" fill="#0d3896" fill-rule="evenodd"><path d="m0 15.773v2.388h3.918l7.668 14.38h9.436l7.668-14.404 3.917-.024.009-2.34h-11.722v2.348h3.121l-5.414 10.223-5.856-10.188 4.271-.019-.007-2.364zm75.621 0v2.388h3.917l7.668 14.38h9.436l7.668-14.404 3.918-.024.007-2.34h-11.72v2.348h3.12l-5.414 10.223-5.856-10.188 4.272-.019-.008-2.364zm-19.28-.001v2.389h3.918l.006 11.74h-4.13v2.617l4.133.023h19.562v-7.805h-2.548c-.14 4.132-3.725 5.17-5.235 5.17-1.383 0-4.064-.005-4.064-.005v-11.745l3.858-.02-.005-2.364zm-13.361 14.622c-2.348 0-4.25-2.812-4.25-6.283s1.902-6.285 4.25-6.285c2.346 0 4.249 2.814 4.249 6.285 0 3.47-1.903 6.283-4.25 6.283zm.172-15.103c-6.66 0-12.058 3.965-12.058 8.854 0 4.89 5.398 8.855 12.058 8.855 6.658 0 12.058-3.965 12.058-8.855s-5.4-8.854-12.058-8.854zm75.449 15.059c-2.347 0-4.249-2.86-4.249-6.387s1.902-6.387 4.249-6.387 4.248 2.86 4.248 6.387c.001 3.527-1.901 6.386-4.248 6.386zm.173-15.35c-6.661 0-12.057 4.03-12.057 9 0 4.968 5.396 8.997 12.057 8.997 6.658 0 12.057-4.029 12.057-8.998 0-4.97-5.399-8.999-12.057-8.999z"/></g></svg>