<svg width="131" height="52" fill="none" xmlns="http://www.w3.org/2000/svg">
  <g clip-path="url(#clip0_4731:25813)" fill-rule="evenodd" clip-rule="evenodd" fill="#ffffff">
    <path d="M0 15.773v2.388h3.918l7.668 14.38h9.436l7.668-14.404 3.917-.024.009-2.34H20.894v2.348h3.121l-5.414 10.223-5.856-10.188 4.271-.019-.007-2.364H0zM75.621 15.773v2.388h3.917l7.668 14.38h9.436l7.668-14.404 3.918-.024.007-2.34h-11.72v2.348h3.12l-5.414 10.223-5.856-10.188 4.272-.019-.008-2.364H75.621zM56.341 15.772v2.389h3.918l.006 11.74h-4.13v2.617l4.133.023H79.83v-7.805h-2.548c-.14 4.132-3.725 5.17-5.235 5.17-1.383 0-4.064-.005-4.064-.005V18.156l3.858-.02-.005-2.364H56.341zM42.98 30.394c-2.348 0-4.25-2.812-4.25-6.283 0-3.471 1.902-6.285 4.25-6.285 2.346 0 4.249 2.814 4.249 6.285 0 3.47-1.903 6.283-4.25 6.283zm.172-15.103c-6.66 0-12.058 3.965-12.058 8.854 0 4.89 5.398 8.855 12.058 8.855 6.658 0 12.058-3.965 12.058-8.855 0-4.89-5.4-8.854-12.058-8.854zM118.601 30.35c-2.347 0-4.249-2.86-4.249-6.387 0-3.527 1.902-6.387 4.249-6.387 2.347 0 4.248 2.86 4.248 6.387.001 3.527-1.901 6.386-4.248 6.386zm.173-15.35c-6.661 0-12.057 4.03-12.057 9 0 4.968 5.396 8.997 12.057 8.997 6.658 0 12.057-4.029 12.057-8.998 0-4.97-5.399-8.999-12.057-8.999z"/>
  </g>
  <defs>
    <clipPath id="clip0_4731:25813">
      <path fill="#fff" transform="translate(0 15)" d="M0 0h130.831v18H0z"/>
    </clipPath>
  </defs>
</svg>