<svg width="131" height="18" fill="none" xmlns="http://www.w3.org/2000/svg"><g clip-path="url(#clip0)" fill-rule="evenodd" clip-rule="evenodd" fill="#96A3B0"><path d="M0 .772v2.39h3.918l7.668 14.38h9.436L28.69 3.136l3.917-.024.009-2.34H20.894V3.12h3.121l-5.414 10.223-5.856-10.187 4.271-.02L17.01.772H0zM75.62.772v2.39h3.918l7.668 14.38h9.436l7.668-14.405 3.918-.024.007-2.34h-11.72V3.12h3.12l-5.414 10.223-5.856-10.187 4.272-.02-.008-2.365H75.621zM56.341.772v2.389h3.918l.006 11.74h-4.13v2.617l4.133.023H79.83V9.735h-2.548c-.14 4.133-3.725 5.172-5.235 5.172-1.383 0-4.064-.006-4.064-.006V3.156l3.858-.02-.005-2.364H56.341zM42.98 15.394c-2.348 0-4.25-2.812-4.25-6.283 0-3.471 1.902-6.285 4.25-6.285 2.346 0 4.249 2.814 4.249 6.285 0 3.47-1.903 6.283-4.25 6.283zM43.151.29c-6.66 0-12.058 3.965-12.058 8.854 0 4.89 5.399 8.855 12.058 8.855S55.21 14.035 55.21 9.145c0-4.89-5.4-8.854-12.058-8.854zM118.6 15.35c-2.346 0-4.248-2.86-4.248-6.387 0-3.527 1.902-6.386 4.248-6.386 2.347 0 4.249 2.859 4.249 6.386s-1.902 6.386-4.249 6.386zM118.774 0c-6.661 0-12.057 4.03-12.057 9 0 4.968 5.396 8.997 12.057 8.997 6.658 0 12.057-4.029 12.057-8.998 0-4.97-5.399-8.999-12.057-8.999z"/></g><defs><clipPath id="clip0"><path fill="#fff" d="M0 0h130.831v18H0z"/></clipPath></defs></svg>