<svg width="264" height="272" fill="none" xmlns="http://www.w3.org/2000/svg"><path fill-rule="evenodd" clip-rule="evenodd" d="M.65 7.2A7.2 7.2 0 017.85 0h247.98a7.2 7.2 0 017.21 7.2v257.03a7.2 7.2 0 01-7.2 7.21H7.85a7.2 7.2 0 01-7.21-7.2V7.2z" fill="#1A344F"/><g clip-path="url(#clip0)"><path fill="#1A344F" d="M.65 54.29h262.39v36.19H.65z"/><path d="M18.9 69.03h2.03l2.74 6.67h.1l2.74-6.67h2.04v9.21h-1.6v-6.33h-.08l-2.55 6.3h-1.2l-2.54-6.31h-.09v6.34h-1.6v-9.21zM56.24 70.43v-1.4h7.35v1.4h-2.85v7.81h-1.66v-7.81h-2.84zM92.58 78.24l-2.6-9.21h1.8l1.65 6.77h.09l1.77-6.77h1.63l1.78 6.77h.08l1.66-6.77h1.8l-2.6 9.21h-1.65l-1.85-6.46h-.07l-1.85 6.46h-1.64zM128.62 70.43v-1.4h7.35v1.4h-2.85v7.81h-1.65v-7.81h-2.85zM165.69 78.24v-9.21h5.9v1.4h-4.23v2.5h3.83v1.4h-3.83v3.91h-1.67zM206.49 71.56c-.05-.4-.22-.7-.53-.92-.31-.22-.72-.33-1.21-.33-.35 0-.65.06-.9.16s-.44.25-.57.43a1.04 1.04 0 00-.07 1.12c.1.14.21.26.36.35.16.1.33.18.51.25.19.06.38.12.57.16l.86.22c.35.08.68.2 1 .33.33.14.62.31.87.52.26.21.46.46.61.76.15.3.23.65.23 1.04a2.5 2.5 0 01-1.61 2.39c-.52.23-1.15.34-1.89.34a4.8 4.8 0 01-1.87-.33 2.78 2.78 0 01-1.23-.97c-.3-.43-.45-.95-.47-1.56h1.64c.02.32.12.59.3.8.17.21.4.37.67.48.29.1.6.15.95.15.36 0 .68-.05.95-.16.28-.1.5-.26.65-.46.16-.2.23-.43.24-.69a.88.88 0 00-.21-.6c-.14-.15-.33-.28-.58-.39a5.6 5.6 0 00-.87-.29l-1.04-.27a4.21 4.21 0 01-1.8-.88c-.44-.4-.66-.93-.66-1.6 0-.53.15-1 .44-1.42.3-.4.7-.72 1.21-.95a4.2 4.2 0 011.73-.34c.66 0 1.23.12 1.72.34.5.23.88.54 1.16.94.29.4.43.86.44 1.38h-1.6zM242.68 71.55c-.05-.4-.22-.7-.53-.92-.31-.22-.71-.33-1.2-.33-.36 0-.66.06-.9.16-.25.1-.44.25-.58.43a1.04 1.04 0 00-.07 1.11c.1.15.21.27.37.36.15.1.32.18.5.25.2.06.38.12.57.16l.86.22c.35.08.68.19 1 .33.33.14.62.31.87.52.26.21.46.46.61.76.15.3.23.65.23 1.04a2.5 2.5 0 01-1.61 2.39c-.52.23-1.15.34-1.89.34a4.8 4.8 0 01-1.86-.33 2.77 2.77 0 01-1.24-.97c-.29-.43-.45-.95-.47-1.56h1.64a1.4 1.4 0 00.98 1.28c.28.1.6.15.94.15.36 0 .68-.05.95-.16.28-.1.5-.26.65-.46.16-.2.24-.43.24-.69a.88.88 0 00-.21-.6c-.14-.15-.33-.28-.58-.39-.25-.1-.53-.2-.86-.29l-1.05-.27a4.22 4.22 0 01-1.8-.88c-.44-.4-.66-.93-.66-1.6 0-.53.15-1 .44-1.42.3-.4.7-.72 1.21-.95a4.2 4.2 0 011.73-.34c.66 0 1.23.12 1.72.34.5.23.88.54 1.17.94.28.4.42.86.43 1.38h-1.6z" fill="#007FFF"/></g><g clip-path="url(#clip1)"><path fill="#1A344F" d="M.65 90.48h262.39v36.19H.65z"/><path d="M61.62 105.22v9.21H60.5v-8.04h-.05l-2.25 1.5v-1.14l2.3-1.53h1.12zM93.23 114.43v-.8l3.04-3.33c.35-.4.65-.73.88-1.02.23-.3.4-.57.51-.82.12-.26.17-.53.17-.81a1.5 1.5 0 00-.86-1.39c-.27-.13-.57-.2-.9-.2-.36 0-.66.08-.93.23-.26.14-.46.34-.6.6a1.9 1.9 0 00-.22.92h-1.06a2.6 2.6 0 011.39-2.38c.43-.22.92-.34 1.45-.34.54 0 1.02.12 1.44.35.42.22.74.53.98.92s.36.82.36 1.29c0 .34-.07.67-.19 1a4.4 4.4 0 01-.63 1.07c-.3.4-.7.87-1.24 1.44l-2.06 2.21v.07h4.28v1h-5.81zM132.33 114.56c-.6 0-1.12-.1-1.59-.3-.46-.21-.82-.5-1.1-.86a2.28 2.28 0 01-.44-1.27h1.14c.02.3.12.55.3.77.18.21.42.38.7.5.3.11.62.17.97.17.4 0 .75-.07 1.06-.2.3-.15.54-.34.72-.58.17-.25.26-.53.26-.86 0-.34-.09-.64-.25-.9a1.67 1.67 0 00-.74-.6 2.87 2.87 0 00-1.19-.23h-.74v-.98h.74c.37 0 .69-.07.96-.2a1.5 1.5 0 00.89-1.4c0-.32-.06-.59-.2-.82a1.42 1.42 0 00-.59-.54 1.9 1.9 0 00-.88-.2c-.32 0-.62.06-.9.18s-.5.28-.68.5a1.3 1.3 0 00-.29.78h-1.08c.02-.48.16-.9.44-1.27.27-.36.63-.65 1.07-.85a3.46 3.46 0 012.93.04 2.43 2.43 0 011.26 2.12c0 .52-.13.96-.4 1.33-.27.36-.64.62-1.1.76v.07c.57.1 1.03.34 1.36.74.32.4.49.89.49 1.47 0 .5-.14.95-.41 1.35-.27.4-.64.7-1.11.94-.47.22-1 .34-1.6.34zM165.16 112.54v-.91l4.05-6.4h.67v1.41h-.45l-3.06 4.84v.07h5.45v1h-6.66zm4.34 1.9v-9.22h1.06v9.21h-1.06z" fill="#F3F6F9"/><path d="M204.66 114.56c-.53 0-1-.1-1.42-.32-.43-.2-.77-.5-1.02-.86s-.4-.78-.42-1.25h1.08c.04.42.23.76.57 1.04.34.26.74.4 1.21.4a1.92 1.92 0 001.7-1c.18-.3.26-.66.26-1.05 0-.4-.09-.76-.26-1.08a1.95 1.95 0 00-1.77-1.03 2.88 2.88 0 00-1.6.47l-1.05-.13.56-4.53h4.79v.99h-3.85l-.32 2.72h.05a2.69 2.69 0 011.6-.52 2.83 2.83 0 012.55 1.5c.26.46.38 1 .38 1.59 0 .59-.13 1.11-.4 1.58a2.9 2.9 0 01-2.64 1.48zM240.94 114.55c-.38 0-.76-.08-1.14-.22a2.71 2.71 0 01-1.03-.7 3.58 3.58 0 01-.75-1.33 9.3 9.3 0 01-.05-4.3c.15-.64.37-1.17.66-1.6a3 3 0 011.05-1c.41-.22.88-.33 1.4-.33.51 0 .97.1 1.38.3.4.21.73.5.99.87a3 3 0 01.49 1.27h-1.1c-.1-.42-.3-.77-.6-1.04-.28-.28-.68-.41-1.16-.41-.71 0-1.28.3-1.69.93a4.8 4.8 0 00-.61 2.63h.07a2.7 2.7 0 012.27-1.23 2.92 2.92 0 012.5 1.48c.26.46.4.99.4 1.58 0 .57-.14 1.1-.39 1.57a2.9 2.9 0 01-2.7 1.53zm0-1c.37 0 .71-.09 1.01-.27a2.15 2.15 0 00.98-1.82 2.13 2.13 0 00-.95-1.8c-.3-.18-.63-.28-1-.28a2.04 2.04 0 00-1.88 1.3 2.13 2.13 0 00.8 2.58c.3.2.65.3 1.03.3z" fill="#8796A5"/></g><g clip-path="url(#clip2)"><path fill="#1A344F" d="M.65 123.96h262.39v36.19H.65z"/><path fill="#C4C4C4" d="M131.85 126.87h131.2v31.72h-131.2z"/><path fill="#2B5682" d="M131.85 126.87h131.2v32.44h-131.2z"/><path d="M21.35 147.91l4.12-8.15v-.07h-4.75v-1h5.9v1.05l-4.1 8.17h-1.17zM59.92 148.04c-.62 0-1.17-.11-1.64-.33a2.68 2.68 0 01-1.1-.92 2.3 2.3 0 01-.4-1.33 2.45 2.45 0 01.87-1.9c.28-.23.58-.38.92-.44v-.05c-.44-.11-.8-.36-1.06-.74a2.25 2.25 0 01-.38-1.31c0-.47.11-.89.35-1.26.24-.36.57-.66 1-.87.42-.21.9-.32 1.44-.32.53 0 1 .1 1.43.32.42.21.75.5.99.87s.36.8.37 1.26c0 .49-.14.92-.4 1.3-.27.39-.61.64-1.04.75v.05c.33.06.63.2.9.43a2.5 2.5 0 01.88 1.91c0 .5-.14.94-.4 1.33-.27.4-.64.7-1.11.92-.47.22-1 .33-1.62.33zm0-1c.41 0 .77-.06 1.08-.2.3-.13.53-.32.7-.57a1.66 1.66 0 00-.02-1.79 1.84 1.84 0 00-.72-.62c-.3-.16-.65-.23-1.04-.23-.4 0-.75.08-1.06.23-.3.15-.54.36-.72.63-.17.26-.26.57-.26.92 0 .33.08.62.24.86.17.25.4.44.7.57.31.14.68.2 1.1.2zm0-4.36c.33 0 .62-.07.87-.2a1.5 1.5 0 00.84-1.39c0-.31-.08-.58-.22-.81a1.43 1.43 0 00-.6-.54c-.26-.13-.55-.2-.9-.2a2 2 0 00-.9.2c-.26.12-.45.3-.6.54-.14.23-.2.5-.2.81 0 .32.06.6.2.83.16.24.36.43.62.56.25.13.55.2.89.2zM95.59 138.55c.38 0 .75.08 1.13.22.38.14.73.38 1.04.7.3.33.56.77.75 1.34a9.2 9.2 0 01.05 4.3 4.95 4.95 0 01-.67 1.6c-.29.43-.64.76-1.05.99-.41.22-.88.34-1.4.34a2.72 2.72 0 01-2.86-2.45h1.1c.1.42.3.77.6 1.05.29.27.68.4 1.16.4.72 0 1.28-.3 1.69-.92.41-.63.62-1.5.62-2.64h-.07a2.83 2.83 0 01-1.37 1.08 2.8 2.8 0 01-3.4-1.33c-.27-.46-.4-.99-.4-1.58 0-.57.13-1.1.38-1.56a2.91 2.91 0 012.7-1.54zm0 1c-.38 0-.72.09-1.02.28a2.08 2.08 0 00-.98 1.82c0 .38.09.73.25 1.05a1.89 1.89 0 001.7 1.02 1.91 1.91 0 001.45-.63c.19-.2.33-.42.44-.67a2.1 2.1 0 00-.81-2.58c-.3-.2-.65-.3-1.03-.3z" fill="#F3F6F9"/><path d="M148 142.9a16.22 16.22 0 11-32.44 0 16.22 16.22 0 0132.44 0z" fill="#007FFF"/><path d="M129.6 138.7v9.21h-1.67v-7.59h-.06l-2.15 1.38v-1.53l2.29-1.47h1.59zm5.74 9.39c-.74 0-1.38-.2-1.9-.57a3.58 3.58 0 01-1.22-1.63 7.02 7.02 0 01-.43-2.58c0-1 .15-1.86.43-2.56s.7-1.25 1.22-1.62a3.23 3.23 0 011.9-.56c.74 0 1.37.19 1.9.56.53.37.94.91 1.22 1.62.29.7.43 1.56.43 2.56 0 1.01-.14 1.87-.43 2.59a3.51 3.51 0 01-1.22 1.62 3.2 3.2 0 01-1.9.57zm0-1.41c.58 0 1.03-.28 1.37-.85.33-.57.5-1.41.5-2.52 0-.73-.08-1.34-.23-1.84-.15-.5-.37-.87-.65-1.13-.28-.25-.6-.38-.99-.38-.57 0-1.02.29-1.36.86-.33.56-.5 1.4-.5 2.5 0 .73.07 1.35.22 1.85s.37.88.65 1.13c.28.25.6.38 1 .38z" fill="#fff"/><path d="M166.8 138.7v9.21h-1.12v-8.04h-.05l-2.25 1.5v-1.14l2.3-1.53h1.11zm5.88 0v9.21h-1.11v-8.04h-.06l-2.25 1.5v-1.14l2.3-1.53h1.12z" fill="#F3F6F9"/><path d="M202.55 138.7v9.21h-1.12v-8.04h-.05l-2.25 1.5v-1.14l2.3-1.53h1.12zm2.65 9.21v-.8l3.04-3.34c.36-.39.65-.73.88-1.01.23-.3.4-.57.51-.82.12-.26.18-.53.18-.81a1.5 1.5 0 00-.87-1.4c-.27-.12-.56-.19-.9-.19-.35 0-.66.08-.92.22-.27.15-.47.35-.61.61a1.9 1.9 0 00-.21.92h-1.06a2.6 2.6 0 011.39-2.38c.43-.22.91-.34 1.45-.34.54 0 1.02.12 1.43.34.42.23.75.54.98.93.24.38.36.81.36 1.29 0 .34-.06.67-.19 1-.12.31-.33.67-.63 1.07-.3.39-.7.87-1.23 1.44l-2.07 2.2v.08H211v1h-5.81zM238.1 138.69v9.21h-1.13v-8.04h-.05l-2.25 1.5v-1.14l2.3-1.53h1.12zm5.75 9.34c-.6 0-1.12-.1-1.59-.31-.46-.2-.82-.49-1.1-.85a2.28 2.28 0 01-.44-1.27h1.14c.02.3.12.55.3.77.18.2.42.37.7.5.3.1.62.17.97.17.4 0 .75-.07 1.06-.21.3-.14.54-.33.72-.58.17-.24.26-.53.26-.85 0-.34-.09-.64-.25-.9a1.67 1.67 0 00-.74-.6 2.87 2.87 0 00-1.19-.23h-.74v-.99h.74c.37 0 .69-.06.96-.2.28-.13.5-.31.66-.55.16-.24.23-.53.23-.85a1.42 1.42 0 00-.8-1.35 2.32 2.32 0 00-1.78-.02c-.27.11-.5.28-.67.5a1.3 1.3 0 00-.29.78h-1.08c.02-.48.16-.9.44-1.27.27-.36.63-.65 1.07-.85a3.46 3.46 0 012.93.04 2.37 2.37 0 011.27 2.12c0 .52-.14.96-.42 1.32-.27.37-.63.62-1.1.76v.08c.58.1 1.04.34 1.37.74.32.4.49.88.49 1.47 0 .5-.14.95-.41 1.35-.27.4-.64.7-1.11.93-.47.23-1 .35-1.6.35z" fill="#8796A5"/></g><g clip-path="url(#clip3)"><path fill="#2B5682" d="M.65 160.03h96.6v32.44H.65z"/><path d="M20.9 172.18v9.2h-1.1v-8.03h-.06l-2.25 1.49v-1.13l2.3-1.53h1.12zm2.44 7.32v-.92l4.05-6.4h.66v1.42h-.44l-3.06 4.84v.07H30v.99h-6.66zm4.34 1.89v-9.21h1.06v9.2h-1.06zM57.31 172.18v9.2h-1.12v-8.03h-.05l-2.25 1.49v-1.13l2.3-1.53h1.12zm5.53 9.33c-.53 0-1-.1-1.43-.31-.42-.21-.76-.5-1.01-.86-.26-.37-.4-.79-.42-1.25h1.08c.04.41.23.76.56 1.03.34.27.75.4 1.22.4a1.91 1.91 0 001.7-.99c.17-.31.26-.66.26-1.06s-.09-.76-.27-1.07a1.95 1.95 0 00-1.76-1.03 2.88 2.88 0 00-1.6.47l-1.05-.13.56-4.53h4.79v.99H61.6l-.32 2.71h.05a2.7 2.7 0 011.6-.52 2.83 2.83 0 012.56 1.5c.25.47.38 1 .38 1.6 0 .58-.13 1.1-.4 1.57a2.9 2.9 0 01-2.64 1.48zM130.38 172.18v9.2h-1.11v-8.03h-.06l-2.25 1.49v-1.13l2.3-1.53h1.12zm2.94 9.2l4.12-8.14v-.07h-4.75v-1h5.9v1.05l-4.1 8.17h-1.17zM165.84 172.18v9.2h-1.12v-8.03h-.05l-2.25 1.49v-1.13l2.3-1.53h1.12zm5.6 9.33c-.62 0-1.17-.1-1.64-.32a2.69 2.69 0 01-1.1-.92 2.3 2.3 0 01-.4-1.33 2.45 2.45 0 01.87-1.91c.28-.22.58-.37.92-.43v-.05c-.44-.12-.8-.36-1.06-.74a2.25 2.25 0 01-.38-1.31c0-.47.11-.89.35-1.26s.57-.66 1-.87c.42-.21.9-.32 1.44-.32.53 0 1 .1 1.43.32.42.21.75.5.99.87s.36.79.37 1.26c0 .49-.14.92-.4 1.3-.27.39-.61.63-1.04.75v.05c.33.06.63.2.9.43a2.5 2.5 0 01.88 1.91c0 .5-.14.94-.4 1.33-.27.39-.64.7-1.1.92-.48.22-1.02.32-1.63.32zm0-.98c.41 0 .77-.07 1.08-.2a1.54 1.54 0 00.95-1.44c0-.35-.1-.66-.27-.92a1.84 1.84 0 00-.72-.63c-.3-.16-.65-.23-1.04-.23-.4 0-.75.07-1.06.23-.3.15-.54.36-.72.63-.17.26-.26.57-.26.92 0 .33.08.62.24.86.17.25.4.44.7.57.31.14.68.2 1.1.2zm0-4.38c.33 0 .62-.06.87-.2a1.5 1.5 0 00.84-1.38c0-.31-.08-.58-.22-.81a1.43 1.43 0 00-.6-.54c-.26-.13-.55-.2-.9-.2a2 2 0 00-.9.2c-.25.12-.46.3-.6.53-.14.24-.2.5-.2.82 0 .32.06.6.2.83.16.24.36.42.62.56.25.13.55.2.89.2z" fill="#F3F6F9"/><path d="M201.98 172.18v9.2h-1.12v-8.03h-.05l-2.25 1.49v-1.13l2.3-1.53h1.12zm5.58-.15c.38 0 .76.08 1.13.22.38.14.73.37 1.04.7.31.33.56.77.75 1.34a9.2 9.2 0 01.05 4.3 4.93 4.93 0 01-.66 1.6 2.86 2.86 0 01-2.45 1.33c-.52 0-.98-.1-1.38-.31a2.72 2.72 0 01-1.48-2.14h1.1c.1.42.29.77.58 1.05.3.27.7.4 1.18.4.7 0 1.27-.3 1.68-.93.41-.62.62-1.5.62-2.63h-.07a2.64 2.64 0 01-2.27 1.22 2.8 2.8 0 01-2.5-1.47c-.26-.46-.4-.99-.4-1.58 0-.57.13-1.1.38-1.56a2.91 2.91 0 012.7-1.54zm0 1c-.38 0-.72.09-1.02.28a2.09 2.09 0 00-.98 1.82c0 .38.09.73.26 1.05a1.9 1.9 0 001.71 1.02 1.91 1.91 0 001.44-.63c.18-.2.33-.42.43-.67a2.1 2.1 0 00-.81-2.58c-.3-.2-.65-.3-1.03-.3zM234.04 181.38v-.81l3.04-3.33c.35-.39.65-.73.88-1.02.23-.29.4-.56.51-.82.12-.25.17-.52.17-.8a1.5 1.5 0 00-.86-1.4c-.27-.12-.57-.19-.9-.19-.35 0-.66.08-.93.22-.26.15-.46.35-.6.6a1.9 1.9 0 00-.22.93h-1.06a2.6 2.6 0 011.39-2.38c.43-.23.92-.34 1.46-.34.53 0 1.01.11 1.43.34.42.23.74.54.98.92.24.39.35.82.35 1.3 0 .33-.06.66-.18.99-.12.32-.33.68-.63 1.07-.3.4-.7.88-1.24 1.44l-2.06 2.22v.07h4.28v.99h-5.81zm10.67.12c-.68 0-1.25-.18-1.73-.55a3.46 3.46 0 01-1.1-1.61 7.68 7.68 0 01-.37-2.57c0-1 .12-1.84.38-2.55.25-.7.62-1.25 1.1-1.62a2.72 2.72 0 011.72-.56c.67 0 1.25.19 1.72.56.48.37.85.91 1.1 1.62.25.7.38 1.56.38 2.55 0 1-.12 1.86-.38 2.57-.25.7-.61 1.24-1.09 1.61-.47.37-1.05.55-1.73.55zm0-.99c.67 0 1.2-.32 1.56-.97.38-.64.56-1.57.56-2.77 0-.8-.08-1.48-.25-2.04a2.8 2.8 0 00-.73-1.28 1.6 1.6 0 00-1.14-.44c-.67 0-1.19.33-1.56.99a5.64 5.64 0 00-.56 2.77c0 .8.08 1.48.25 2.03.17.56.4.99.72 1.28.32.29.7.43 1.15.43z" fill="#8796A5"/><path d="M112.38 176.25a16.22 16.22 0 11-32.43 0 16.22 16.22 0 0132.43 0z" fill="#007FFF"/><path d="M94.1 172.06v9.21h-1.67v-7.59h-.05l-2.16 1.38v-1.53l2.3-1.47h1.58zm5.71 9.34c-.44 0-.87-.08-1.29-.23-.42-.16-.8-.4-1.13-.75-.33-.34-.6-.8-.8-1.37-.2-.57-.3-1.28-.3-2.13 0-.8.09-1.5.26-2.12.16-.62.4-1.15.72-1.57a3.18 3.18 0 012.64-1.33c.58 0 1.09.12 1.53.35a2.88 2.88 0 011.6 2.29h-1.64a1.52 1.52 0 00-.51-.87 1.47 1.47 0 00-.98-.32c-.64 0-1.13.28-1.48.84a4.43 4.43 0 00-.52 2.3h.07c.14-.26.33-.49.57-.68a2.8 2.8 0 011.73-.6 2.76 2.76 0 012.48 1.46c.25.45.38.97.37 1.55a3 3 0 01-1.58 2.77 3.5 3.5 0 01-1.74.4zm0-1.35c.32 0 .61-.08.87-.24a1.8 1.8 0 00.83-1.55c0-.33-.07-.63-.21-.9a1.65 1.65 0 00-2.15-.73 1.81 1.81 0 00-.22 3.17c.25.16.55.25.87.25z" fill="#fff"/></g><g clip-path="url(#clip4)"><path d="M18.35 214.87v-.81l3.04-3.33c.36-.4.65-.73.88-1.02.23-.29.4-.56.52-.82.1-.25.17-.52.17-.8a1.5 1.5 0 00-.87-1.4c-.26-.13-.56-.2-.9-.2-.35 0-.66.08-.92.23-.26.14-.47.35-.61.6a1.9 1.9 0 00-.21.93h-1.06a2.6 2.6 0 011.39-2.38c.43-.23.91-.34 1.45-.34.54 0 1.02.11 1.43.34.42.23.75.53.98.92.24.39.36.82.36 1.3 0 .33-.06.66-.18.99a4.4 4.4 0 01-.63 1.07c-.3.4-.71.88-1.24 1.44l-2.07 2.22v.07h4.28v.99h-5.81zm10.9-9.22v9.22h-1.1v-8.05h-.06l-2.25 1.5v-1.14l2.3-1.53h1.12zM53.2 214.87v-.81l3.04-3.33c.36-.4.65-.73.88-1.02.23-.29.4-.56.51-.82.12-.25.18-.52.18-.8a1.5 1.5 0 00-.87-1.4c-.27-.13-.57-.2-.9-.2-.35 0-.66.08-.92.23-.27.14-.47.35-.61.6a1.9 1.9 0 00-.21.93h-1.06a2.6 2.6 0 011.39-2.38c.43-.23.91-.34 1.45-.34.54 0 1.02.11 1.43.34.42.23.75.53.98.92.24.39.36.82.36 1.3 0 .33-.06.66-.19.99a4.4 4.4 0 01-.63 1.07c-.3.4-.7.88-1.23 1.44l-2.07 2.22v.07H59v.99H53.2zm7.67 0v-.81l3.04-3.33c.36-.4.65-.73.88-1.02.23-.29.4-.56.51-.82.12-.25.17-.52.17-.8a1.5 1.5 0 00-.86-1.4c-.27-.13-.57-.2-.9-.2-.35 0-.66.08-.93.23-.26.14-.46.35-.6.6a1.9 1.9 0 00-.21.93H60.9a2.6 2.6 0 011.39-2.38c.44-.23.92-.34 1.46-.34.54 0 1.02.11 1.43.34.42.23.75.53.98.92.24.39.36.82.36 1.3 0 .33-.06.66-.19.99a4.4 4.4 0 01-.63 1.07c-.3.4-.7.88-1.23 1.44l-2.07 2.22v.07h4.28v.99h-5.81zM89.2 214.87v-.81l3.03-3.33.89-1.02c.23-.29.4-.56.5-.82.12-.25.18-.52.18-.8a1.5 1.5 0 00-.86-1.4c-.27-.13-.57-.2-.9-.2-.36 0-.67.08-.93.23-.26.14-.46.35-.6.6a1.9 1.9 0 00-.22.93h-1.06a2.6 2.6 0 011.39-2.38c.43-.23.92-.34 1.45-.34.54 0 1.02.11 1.44.34.41.23.74.53.98.92.23.39.35.82.35 1.3 0 .33-.06.66-.18.99a4.4 4.4 0 01-.63 1.07c-.3.4-.71.88-1.24 1.44l-2.07 2.22v.07H95v.99h-5.8zm10.78.12c-.6 0-1.13-.1-1.6-.3-.45-.2-.82-.5-1.1-.85a2.29 2.29 0 01-.44-1.28h1.14c.02.3.12.56.3.77.18.21.42.38.71.5.3.11.61.17.97.17.4 0 .74-.07 1.05-.2.3-.14.55-.33.72-.58a1.6 1.6 0 000-1.75 1.67 1.67 0 00-.73-.61 2.87 2.87 0 00-1.19-.22h-.73v-1h.73c.37 0 .69-.06.97-.19s.5-.32.65-.56c.16-.24.24-.52.24-.84 0-.31-.07-.59-.21-.82a1.42 1.42 0 00-.58-.54 1.9 1.9 0 00-.89-.2c-.31 0-.61.07-.9.19-.28.1-.5.28-.68.5a1.3 1.3 0 00-.29.78h-1.08c.02-.49.17-.9.44-1.27s.63-.65 1.07-.86a3.46 3.46 0 012.93.04 2.44 2.44 0 011.27 2.12 2.07 2.07 0 01-1.51 2.09v.07c.58.1 1.03.34 1.36.74.33.4.49.89.49 1.48 0 .5-.14.95-.41 1.34-.27.4-.64.71-1.1.94-.48.23-1 .34-1.6.34zM125.45 214.87v-.81l3.04-3.33c.36-.4.66-.73.89-1.02.23-.29.4-.56.5-.82.12-.25.18-.52.18-.8a1.5 1.5 0 00-.86-1.4c-.27-.13-.57-.2-.9-.2-.36 0-.67.08-.93.23-.26.14-.46.35-.6.6a1.9 1.9 0 00-.22.93h-1.06a2.6 2.6 0 011.39-2.38c.43-.23.92-.34 1.45-.34.54 0 1.02.11 1.44.34.41.23.74.53.98.92s.35.82.35 1.3c0 .33-.06.66-.18.99a4.4 4.4 0 01-.63 1.07c-.3.4-.71.88-1.24 1.44l-2.07 2.22v.07h4.28v.99h-5.8zm7.26-1.9v-.91l4.05-6.4h.66v1.41h-.45l-3.06 4.84v.08h5.46v.99h-6.66zm4.33 1.9v-9.22h1.07v9.22h-1.07zM161.76 214.87v-.81l3.04-3.33c.35-.4.65-.73.88-1.02.23-.29.4-.56.51-.82.12-.25.17-.52.17-.8a1.5 1.5 0 00-.86-1.4c-.27-.13-.57-.2-.9-.2-.35 0-.66.08-.93.23-.26.14-.46.35-.6.6a1.9 1.9 0 00-.22.93h-1.06a2.6 2.6 0 011.39-2.38c.43-.23.92-.34 1.46-.34.54 0 1.01.11 1.43.34.42.23.74.53.98.92s.36.82.36 1.3c0 .33-.06.66-.19.99a4.4 4.4 0 01-.63 1.07c-.3.4-.7.88-1.24 1.44l-2.06 2.22v.07h4.28v.99h-5.81zm10.55.12c-.53 0-1-.1-1.43-.31-.42-.21-.76-.5-1.02-.87-.25-.36-.4-.78-.42-1.25h1.08c.05.42.23.76.57 1.04.34.27.74.4 1.22.4a1.92 1.92 0 001.7-1c.17-.3.26-.66.26-1.05 0-.4-.1-.76-.27-1.07a1.95 1.95 0 00-1.77-1.03 2.88 2.88 0 00-1.6.46l-1.04-.12.56-4.54h4.78v1h-3.85l-.32 2.71h.05a2.7 2.7 0 011.6-.52 2.83 2.83 0 012.55 1.5c.26.47.39 1 .39 1.6 0 .58-.14 1.1-.4 1.57a2.9 2.9 0 01-2.64 1.48z" fill="#F3F6F9"/><path d="M197.85 214.87v-.81l3.04-3.33c.36-.4.65-.73.88-1.02.23-.29.4-.56.51-.82.12-.25.18-.52.18-.8a1.5 1.5 0 00-.87-1.4c-.27-.13-.56-.2-.9-.2-.35 0-.66.08-.92.23a1.5 1.5 0 00-.61.6 1.9 1.9 0 00-.21.93h-1.06a2.6 2.6 0 011.39-2.38c.43-.23.91-.34 1.45-.34.54 0 1.02.11 1.43.34.42.23.75.53.98.92.24.39.36.82.36 1.3 0 .33-.06.66-.19.99a4.4 4.4 0 01-.63 1.07c-.3.4-.7.88-1.23 1.44l-2.07 2.22v.07h4.28v.99h-5.81zm10.73.12c-.38 0-.76-.08-1.14-.21a2.72 2.72 0 01-1.03-.7 3.58 3.58 0 01-.75-1.34 9.3 9.3 0 01-.05-4.3c.15-.63.37-1.17.66-1.6a3 3 0 011.05-1c.42-.22.88-.33 1.4-.33.52 0 .98.1 1.38.31.4.2.73.5.99.86a3 3 0 01.5 1.28h-1.1c-.1-.43-.3-.77-.6-1.05-.3-.27-.68-.41-1.17-.41-.71 0-1.27.31-1.69.94-.4.62-.6 1.5-.61 2.62h.07a2.7 2.7 0 012.27-1.22c.53 0 1 .13 1.45.4.43.25.78.62 1.05 1.08.26.46.4.98.4 1.58 0 .57-.13 1.09-.39 1.56a2.9 2.9 0 01-2.7 1.53zm0-.99c.38 0 .71-.1 1.01-.28a2.15 2.15 0 00.98-1.82 2.12 2.12 0 00-.95-1.8c-.3-.18-.63-.27-1-.27a2.06 2.06 0 00-1.88 1.3 2.13 2.13 0 00.81 2.58c.3.2.64.3 1.03.3zM234.04 214.85v-.8l3.04-3.33c.36-.4.65-.73.88-1.02.23-.29.4-.56.52-.82.11-.26.17-.53.17-.8a1.5 1.5 0 00-.87-1.4c-.26-.13-.56-.2-.9-.2-.35 0-.66.08-.92.23-.26.14-.47.34-.6.6a1.9 1.9 0 00-.22.92h-1.06a2.6 2.6 0 011.39-2.38c.43-.22.91-.33 1.45-.33.54 0 1.02.11 1.44.34.41.23.74.53.98.92.23.39.35.82.35 1.3 0 .33-.06.66-.18.99a4.4 4.4 0 01-.63 1.07c-.3.4-.71.87-1.24 1.44l-2.07 2.21v.08h4.28v.98h-5.8zm10.73.13c-.38 0-.76-.08-1.13-.21a2.72 2.72 0 01-1.04-.7 3.58 3.58 0 01-.75-1.34 9.3 9.3 0 01-.05-4.3c.15-.63.37-1.17.66-1.6a3 3 0 011.05-1c.42-.22.89-.33 1.4-.33.52 0 .98.1 1.38.3.4.22.74.5.99.87a3 3 0 01.5 1.28h-1.1c-.1-.43-.3-.77-.6-1.05-.29-.27-.68-.41-1.17-.41-.71 0-1.27.31-1.68.93a4.8 4.8 0 00-.62 2.63h.07a2.7 2.7 0 012.27-1.22 2.92 2.92 0 012.5 1.48c.26.46.4.98.4 1.58 0 .57-.13 1.09-.38 1.56a2.92 2.92 0 01-2.7 1.53zm0-.99c.38 0 .72-.1 1.02-.28a2.14 2.14 0 00.98-1.82 2.13 2.13 0 00-.96-1.8c-.29-.18-.63-.27-1-.27a2.06 2.06 0 00-1.88 1.3 2.13 2.13 0 00.81 2.58c.3.2.65.3 1.03.3z" fill="#8796A5"/></g><g clip-path="url(#clip5)" fill="#F3F6F9"><path d="M17.22 248.34v-.8l3.04-3.33.89-1.02c.23-.3.4-.56.5-.82.12-.26.18-.53.18-.81a1.5 1.5 0 00-.86-1.39c-.27-.13-.57-.2-.9-.2-.36 0-.67.08-.93.23-.26.14-.46.34-.6.6a1.9 1.9 0 00-.22.92h-1.06a2.6 2.6 0 011.39-2.38c.43-.22.92-.34 1.45-.34.54 0 1.02.12 1.44.35.41.22.74.53.98.92.23.39.35.82.35 1.29 0 .34-.06.67-.18 1a4.4 4.4 0 01-.63 1.07c-.3.4-.71.87-1.24 1.44l-2.07 2.21v.07h4.29v1h-5.82zm7.96 0l4.12-8.15v-.07h-4.75v-.99h5.9v1.05l-4.1 8.16h-1.17zM53.13 248.34v-.8l3.04-3.33c.36-.4.65-.73.88-1.02.23-.3.4-.56.52-.82.11-.26.17-.53.17-.81a1.5 1.5 0 00-.87-1.39c-.26-.13-.56-.2-.9-.2-.35 0-.66.08-.92.23-.26.14-.47.34-.61.6a1.9 1.9 0 00-.21.92h-1.06a2.6 2.6 0 011.39-2.38c.43-.22.91-.34 1.45-.34.54 0 1.02.12 1.43.35a2.42 2.42 0 011.34 2.21c0 .34-.06.67-.18 1a4.4 4.4 0 01-.63 1.07c-.3.4-.71.87-1.24 1.44l-2.07 2.21v.07h4.28v1h-5.8zm10.62.13c-.62 0-1.16-.11-1.64-.33a2.68 2.68 0 01-1.1-.91 2.3 2.3 0 01-.39-1.33 2.45 2.45 0 01.87-1.91c.27-.23.58-.37.91-.43v-.06c-.44-.11-.79-.36-1.05-.74a2.25 2.25 0 01-.39-1.3c0-.47.12-.9.36-1.26.24-.37.57-.66.99-.88.42-.2.9-.31 1.44-.31.54 0 1.01.1 1.43.31.42.22.75.5 1 .88.23.37.36.79.36 1.25 0 .5-.14.93-.4 1.31s-.6.63-1.04.74v.06c.33.06.63.2.9.43a2.5 2.5 0 01.88 1.91c0 .5-.14.94-.4 1.33-.27.39-.63.69-1.1.91-.47.22-1.01.33-1.63.33zm0-.99c.42 0 .78-.07 1.08-.2.3-.14.54-.33.7-.57.17-.25.25-.54.25-.87 0-.34-.09-.65-.27-.92a1.83 1.83 0 00-.72-.63c-.3-.15-.65-.23-1.04-.23-.4 0-.74.08-1.05.23-.3.15-.55.36-.73.63-.17.27-.25.58-.25.92 0 .33.07.62.24.87.16.24.4.43.7.57.3.13.67.2 1.1.2zm0-4.37c.33 0 .62-.07.88-.2a1.51 1.51 0 00.83-1.39c0-.3-.08-.58-.22-.81a1.43 1.43 0 00-.6-.54c-.25-.13-.55-.2-.89-.2a2 2 0 00-.9.2c-.26.13-.46.3-.6.54-.14.23-.21.5-.2.81-.01.32.06.6.2.84.15.23.35.42.61.55.26.13.56.2.9.2zM89.27 248.34v-.8l3.04-3.33c.36-.4.66-.73.89-1.02.23-.3.4-.56.5-.82.12-.26.18-.53.18-.81a1.5 1.5 0 00-.86-1.39c-.27-.13-.57-.2-.9-.2-.36 0-.67.08-.93.23-.26.14-.46.34-.6.6a1.9 1.9 0 00-.22.92h-1.06a2.6 2.6 0 011.39-2.38c.43-.22.92-.34 1.45-.34.54 0 1.02.12 1.44.35.41.22.74.53.98.92.23.39.35.82.35 1.29 0 .34-.06.67-.18 1a4.4 4.4 0 01-.63 1.07c-.3.4-.71.87-1.24 1.44l-2.07 2.21v.07h4.29v1h-5.82zm10.6-9.35c.38 0 .76.07 1.14.21.38.14.72.38 1.03.7.32.33.57.78.75 1.34a9.19 9.19 0 01.05 4.3 4.95 4.95 0 01-.66 1.6c-.29.44-.64.77-1.05 1-.41.22-.88.33-1.4.33a2.71 2.71 0 01-2.86-2.45h1.1c.1.42.3.77.59 1.05.3.27.69.41 1.17.41.71 0 1.27-.31 1.68-.93.42-.62.63-1.5.63-2.63h-.08a2.83 2.83 0 01-1.36 1.07 2.8 2.8 0 01-3.4-1.33c-.27-.46-.4-.98-.4-1.58 0-.57.13-1.09.38-1.56a2.92 2.92 0 012.7-1.53zm0 .99c-.37 0-.71.1-1.02.28a2.08 2.08 0 00-.97 1.82c0 .39.08.73.25 1.05a1.89 1.89 0 001.7 1.02 1.91 1.91 0 001.45-.63c.19-.2.33-.42.44-.67a2.1 2.1 0 00-.81-2.58c-.3-.2-.65-.3-1.03-.3zM128.37 248.47c-.59 0-1.12-.1-1.58-.3-.47-.21-.83-.5-1.1-.86-.28-.36-.42-.79-.45-1.27h1.14c.02.3.12.55.3.77.18.21.42.38.7.5.3.11.62.17.98.17.4 0 .74-.07 1.05-.2.3-.15.55-.34.72-.58.17-.25.26-.53.26-.86 0-.34-.08-.63-.25-.9a1.67 1.67 0 00-.74-.6 2.87 2.87 0 00-1.19-.22h-.74v-1h.74c.37 0 .69-.06.97-.2a1.5 1.5 0 00.9-1.4c-.01-.3-.08-.58-.22-.81a1.42 1.42 0 00-.59-.54 2.32 2.32 0 00-1.78-.02c-.28.12-.5.28-.68.5a1.3 1.3 0 00-.29.78h-1.08c.02-.48.17-.9.44-1.26.27-.37.63-.66 1.07-.86a3.46 3.46 0 012.93.04 2.37 2.37 0 011.27 2.12 2.07 2.07 0 01-1.51 2.09v.07c.58.1 1.03.34 1.36.74.32.4.49.89.49 1.47 0 .5-.14.95-.41 1.35-.27.4-.64.71-1.1.94-.48.23-1 .34-1.6.34zm7.96 0c-.68 0-1.25-.19-1.73-.55a3.45 3.45 0 01-1.1-1.62 7.68 7.68 0 01-.37-2.56c0-1 .13-1.85.38-2.55.25-.71.62-1.25 1.1-1.62a2.72 2.72 0 011.72-.56c.67 0 1.25.18 1.72.56.48.37.85.9 1.1 1.62.26.7.38 1.55.38 2.55 0 1-.12 1.85-.37 2.56-.25.7-.62 1.24-1.1 1.62-.47.37-1.05.55-1.73.55zm0-.99c.67 0 1.2-.32 1.57-.97.37-.65.56-1.57.56-2.77 0-.8-.1-1.48-.26-2.04a2.8 2.8 0 00-.73-1.28 1.6 1.6 0 00-1.14-.44c-.66 0-1.18.33-1.56.98a5.63 5.63 0 00-.56 2.78c0 .8.08 1.47.25 2.03.17.56.41.98.72 1.27.32.3.7.44 1.15.44zM165.58 248.47c-.6 0-1.12-.1-1.59-.3-.46-.21-.83-.5-1.1-.86-.27-.36-.42-.79-.44-1.27h1.13c.03.3.13.55.3.77.19.21.43.38.72.5.29.11.6.17.96.17.4 0 .75-.07 1.06-.2.3-.15.54-.34.72-.58.17-.25.26-.53.26-.86 0-.34-.09-.63-.26-.9a1.67 1.67 0 00-.73-.6 2.87 2.87 0 00-1.2-.22h-.73v-1h.74c.37 0 .69-.06.96-.2.28-.12.5-.31.65-.55.16-.24.24-.52.24-.85 0-.3-.07-.58-.2-.81a1.42 1.42 0 00-.59-.54 1.9 1.9 0 00-.88-.2c-.32 0-.62.06-.9.18s-.5.28-.69.5a1.3 1.3 0 00-.28.78h-1.08c.02-.48.16-.9.43-1.26.28-.37.63-.66 1.07-.86a3.46 3.46 0 012.93.04 2.44 2.44 0 011.27 2.12c0 .52-.13.96-.4 1.33-.28.36-.64.62-1.11.76v.07c.58.1 1.04.34 1.36.74.33.4.5.89.5 1.47 0 .5-.14.95-.42 1.35-.27.4-.63.71-1.1.94-.47.23-1 .34-1.6.34zm8.2-9.34v9.21h-1.12v-8.04h-.06l-2.25 1.5v-1.14l2.3-1.53h1.12z"/></g><g filter="url(#filter0_i)"><path d="M.65 7.2A7.2 7.2 0 017.85 0h247.98a7.2 7.2 0 017.21 7.2V54.3H.65V7.2z" fill="#1A344F"/></g><g clip-path="url(#clip6)"><path d="M23.27 32.29h-3.25V21.76h3.4c1.02 0 1.89.2 2.62.63a4.14 4.14 0 011.67 1.8c.38.79.58 1.72.58 2.81 0 1.1-.2 2.04-.59 2.83-.39.8-.96 1.4-1.7 1.82-.75.43-1.66.64-2.73.64zm-1.97-1.13h1.89c.87 0 1.59-.17 2.16-.5.57-.34 1-.82 1.28-1.44s.42-1.36.42-2.22a5.3 5.3 0 00-.41-2.2 3.07 3.07 0 00-1.25-1.41 3.93 3.93 0 00-2.06-.5H21.3v8.27zm12.27 1.3a3.38 3.38 0 01-3.24-1.92 4.84 4.84 0 01-.44-2.14c0-.8.15-1.52.44-2.14a3.34 3.34 0 013.12-1.97c.41 0 .82.07 1.22.2a3.02 3.02 0 011.88 1.88c.2.5.3 1.13.3 1.87v.5h-6.1V27.7h4.86c0-.45-.09-.84-.27-1.2a2.02 2.02 0 00-1.9-1.12c-.47 0-.9.12-1.24.36-.35.23-.62.54-.81.92-.2.38-.28.79-.28 1.23v.7c0 .6.1 1.1.3 1.51.21.41.5.73.87.94.37.21.8.32 1.3.32.31 0 .6-.04.86-.13.26-.1.48-.23.67-.41.19-.19.33-.42.44-.7l1.17.34c-.12.4-.33.74-.62 1.04-.3.3-.65.54-1.08.7a4 4 0 01-1.45.25zm8.33 0c-.74 0-1.38-.18-1.92-.53a3.42 3.42 0 01-1.23-1.45 4.9 4.9 0 01-.43-2.1c0-.8.15-1.51.44-2.12a3.34 3.34 0 013.12-1.97c.55 0 1.05.1 1.5.3.44.21.8.5 1.1.87.28.37.45.8.52 1.3H43.8c-.1-.37-.3-.68-.62-.96a1.85 1.85 0 00-1.27-.42c-.48 0-.9.12-1.25.37-.35.24-.63.58-.83 1.03-.2.44-.29.96-.29 1.56 0 .6.1 1.14.29 1.6.2.44.47.8.82 1.05.36.25.78.37 1.26.37.31 0 .6-.05.85-.16a1.77 1.77 0 001.04-1.22H45a2.81 2.81 0 01-1.57 2.15c-.44.21-.95.32-1.53.32zm8.19 0a3.38 3.38 0 01-3.24-1.92 4.84 4.84 0 01-.45-2.14c0-.8.15-1.52.45-2.14a3.34 3.34 0 013.12-1.97c.4 0 .8.07 1.21.2a3.02 3.02 0 011.88 1.88c.2.5.3 1.13.3 1.87v.5h-6.1V27.7h4.86c0-.45-.09-.84-.27-1.2a2.02 2.02 0 00-1.89-1.12c-.48 0-.9.12-1.25.36-.35.23-.62.54-.8.92-.2.38-.3.79-.3 1.23v.7c0 .6.11 1.1.32 1.51.2.41.5.73.87.94.37.21.8.32 1.29.32.31 0 .6-.04.86-.13.26-.1.48-.23.67-.41.2-.19.34-.42.44-.7l1.17.34c-.12.4-.33.74-.62 1.04-.3.3-.65.54-1.08.7a4 4 0 01-1.44.25zm5.11-.17v-7.9h1.17v1.23h.1c.17-.42.44-.75.8-.98.37-.23.8-.35 1.32-.35s.96.12 1.3.35c.35.23.63.56.82.98h.08c.2-.4.51-.73.91-.97s.9-.36 1.46-.36c.7 0 1.28.22 1.73.66.45.44.67 1.12.67 2.05v5.29h-1.2V27c0-.58-.17-1-.49-1.25-.32-.25-.7-.37-1.12-.37-.56 0-.99.16-1.3.5-.3.33-.45.75-.45 1.27v5.14h-1.23v-5.41c0-.45-.15-.81-.44-1.09-.3-.27-.67-.41-1.13-.41-.31 0-.6.08-.88.25-.27.17-.5.4-.66.7-.16.3-.25.63-.25 1.02v4.94h-1.2zm12.75 0V21.76h1.21v3.88h.1l.37-.52c.16-.22.4-.4.7-.58.3-.17.7-.25 1.22-.25a3.13 3.13 0 012.94 1.9c.29.62.43 1.34.43 2.17 0 .83-.14 1.56-.43 2.17a3.1 3.1 0 01-2.93 1.92c-.5 0-.9-.08-1.21-.25-.3-.17-.54-.37-.7-.58-.17-.22-.3-.4-.39-.55h-.14v1.22h-1.17zm1.19-3.95c0 .6.09 1.12.26 1.58.18.45.43.8.77 1.06.33.25.75.38 1.23.38.5 0 .93-.13 1.27-.4.34-.27.6-.63.77-1.09.18-.46.27-.97.27-1.53s-.09-1.06-.26-1.5c-.17-.45-.42-.8-.77-1.07-.34-.26-.76-.4-1.28-.4a2.02 2.02 0 00-2 1.42c-.17.44-.26.96-.26 1.55zm10.95 4.11c-.77 0-1.42-.17-1.97-.5a3.38 3.38 0 01-1.27-1.42 4.84 4.84 0 01-.45-2.13c0-.8.15-1.52.45-2.14a3.34 3.34 0 013.12-1.97c.4 0 .8.07 1.21.2a3.02 3.02 0 011.88 1.88c.2.5.3 1.13.3 1.87v.5h-6.1V27.7h4.86c0-.45-.09-.84-.27-1.2a2.02 2.02 0 00-1.89-1.12c-.48 0-.9.12-1.25.36-.35.23-.62.54-.81.92-.19.38-.28.79-.28 1.23v.7c0 .6.1 1.1.3 1.51.22.41.5.73.87.94.38.21.8.32 1.3.32.31 0 .6-.04.86-.13.26-.1.48-.23.67-.41.2-.19.34-.42.44-.7l1.17.34c-.12.4-.33.74-.62 1.04-.3.3-.65.54-1.08.7a4 4 0 01-1.44.25zm5.11-.16v-7.9h1.17v1.2h.08c.15-.4.4-.72.79-.96.37-.24.8-.36 1.27-.36a13.56 13.56 0 01.64.02v1.23a3.6 3.6 0 00-.74-.08c-.39 0-.73.08-1.03.24a1.77 1.77 0 00-.97 1.6v5h-1.2zm9.44 0v-.93l3.47-3.8c.41-.45.75-.84 1.01-1.17.26-.33.46-.64.59-.93.13-.3.2-.6.2-.93a1.7 1.7 0 00-1-1.58c-.3-.15-.64-.23-1.02-.23-.4 0-.76.09-1.06.26-.3.16-.53.4-.7.69-.16.3-.24.65-.24 1.05h-1.21A2.97 2.97 0 0196.27 22a3.5 3.5 0 011.66-.4c.61 0 1.16.13 1.64.4.47.25.85.6 1.12 1.05.27.44.4.93.4 1.47 0 .4-.06.77-.2 1.14-.14.37-.38.78-.73 1.23-.33.45-.8 1-1.4 1.64l-2.37 2.53v.09h4.89v1.13h-6.64zm12.2.14c-.78 0-1.44-.21-1.98-.63a3.95 3.95 0 01-1.25-1.85 8.78 8.78 0 01-.43-2.93c0-1.14.14-2.1.43-2.91s.7-1.43 1.25-1.85c.55-.43 1.21-.65 1.98-.65s1.42.22 1.97.65c.55.42.96 1.04 1.25 1.85.3.8.44 1.77.44 2.91 0 1.15-.15 2.12-.43 2.93-.3.8-.7 1.42-1.25 1.85-.55.42-1.2.63-1.98.63zm0-1.13c.77 0 1.36-.37 1.79-1.11.42-.74.63-1.8.63-3.17 0-.91-.1-1.69-.29-2.33a3.2 3.2 0 00-.83-1.46c-.36-.34-.8-.5-1.3-.5-.76 0-1.36.37-1.79 1.12-.42.75-.64 1.8-.64 3.17 0 .91.1 1.69.29 2.33.2.63.47 1.12.83 1.45.36.33.8.5 1.3.5zm5.61.99v-.93l3.48-3.8c.4-.45.74-.84 1-1.17.27-.33.46-.64.59-.93.13-.3.2-.6.2-.93a1.71 1.71 0 00-1-1.58c-.3-.15-.64-.23-1.02-.23-.4 0-.76.09-1.06.26-.3.16-.53.4-.7.69-.15.3-.23.65-.23 1.05h-1.22a2.96 2.96 0 011.59-2.71 3.5 3.5 0 011.66-.4c.62 0 1.17.13 1.64.4.48.25.85.6 1.12 1.05.27.44.4.93.4 1.47 0 .4-.06.77-.2 1.14-.14.37-.38.78-.72 1.23-.34.45-.81 1-1.42 1.64l-2.36 2.53v.09h4.9v1.13h-6.65zm12.2.14c-.77 0-1.43-.21-1.98-.63a3.95 3.95 0 01-1.25-1.85 8.78 8.78 0 01-.43-2.93c0-1.14.14-2.1.43-2.91.3-.81.71-1.43 1.26-1.85a3.1 3.1 0 011.97-.65c.77 0 1.42.22 1.97.65.55.42.97 1.04 1.25 1.85.3.8.44 1.77.44 2.91 0 1.15-.14 2.12-.43 2.93-.29.8-.7 1.42-1.25 1.85-.55.42-1.2.63-1.98.63zm0-1.13c.77 0 1.36-.37 1.79-1.11.42-.74.64-1.8.64-3.17 0-.91-.1-1.69-.3-2.33a3.19 3.19 0 00-.83-1.46c-.36-.34-.8-.5-1.3-.5-.76 0-1.36.37-1.78 1.12-.43.75-.65 1.8-.65 3.17 0 .91.1 1.69.3 2.33.18.63.46 1.12.82 1.45.36.33.8.5 1.31.5z" fill="#fff"/><path fill-rule="evenodd" clip-rule="evenodd" d="M236.8 21.65l-1.35 1.36 4.13 4.13-4.13 4.14 1.35 1.36 5.5-5.5-5.5-5.49zM224.14 21.65l1.35 1.36-4.13 4.13 4.13 4.14-1.35 1.36-5.5-5.5 5.5-5.49z" fill="#AAB4BE"/></g><defs><clipPath id="clip0"><path fill="#fff" transform="translate(.65 54.29)" d="M0 0h262.39v36.19H0z"/></clipPath><clipPath id="clip1"><path fill="#fff" transform="translate(.65 90.48)" d="M0 0h262.39v36.19H0z"/></clipPath><clipPath id="clip2"><path fill="#fff" transform="translate(.65 123.96)" d="M0 0h262.39v36.19H0z"/></clipPath><clipPath id="clip3"><path fill="#fff" transform="translate(.65 157.44)" d="M0 0h262.39v36.19H0z"/></clipPath><clipPath id="clip4"><path fill="#fff" transform="translate(.65 190.91)" d="M0 0h262.39v36.19H0z"/></clipPath><clipPath id="clip5"><path fill="#fff" transform="translate(.65 224.4)" d="M0 0h262.39v36.19H0z"/></clipPath><clipPath id="clip6"><path d="M18.75 23.5a7.2 7.2 0 017.2-7.21h217.22a7.2 7.2 0 017.2 7.2V38H18.76V23.5z" fill="#fff"/></clipPath><filter id="filter0_i" x=".65" y="0" width="262.39" height="54.29" filterUnits="userSpaceOnUse" color-interpolation-filters="sRGB"><feFlood flood-opacity="0" result="BackgroundImageFix"/><feBlend in="SourceGraphic" in2="BackgroundImageFix" result="shape"/><feColorMatrix in="SourceAlpha" values="0 0 0 0 0 0 0 0 0 0 0 0 0 0 0 0 0 0 127 0" result="hardAlpha"/><feOffset dy="-.9"/><feComposite in2="hardAlpha" operator="arithmetic" k2="-1" k3="1"/><feColorMatrix values="0 0 0 0 0 0 0 0 0 0.118 0 0 0 0 0.235 0 0 0 1 0"/><feBlend in2="shape" result="effect1_innerShadow"/></filter></defs></svg>