<svg width="18" height="21" fill="none" xmlns="http://www.w3.org/2000/svg"><path fill-rule="evenodd" clip-rule="evenodd" d="M3 .904v2.01H2c-1.1 0-2 .904-2 2.01V18.99c0 1.105.9 2.009 2 2.009h14c1.1 0 2-.904 2-2.01V4.924c0-1.105-.9-2.01-2-2.01h-1V.905h-2v2.01H5V.904H3zM2 7.937h14V18.99H2V7.937zm3.5 2.01c-1.37 0-2.5 1.136-2.5 2.512v.502h2v-.502c0-.288.213-.503.5-.503.287 0 .5.215.5.503 0 .259-.347 1.062-.918 1.807-.57.745-1.29 1.47-1.768 1.921L3 16.486v1.499h5v-2.01H6.223c.158-.186.292-.285.445-.484C7.348 14.603 8 13.648 8 12.459c0-1.376-1.13-2.512-2.5-2.512zm4.5 0v2.01h1.598L11 12.53v1.266l.695.224s.348.118.7.386c.352.269.605.565.605 1.066a.488.488 0 01-.5.502.488.488 0 01-.5-.502v-.502h-2v.502c0 1.376 1.13 2.512 2.5 2.512s2.5-1.136 2.5-2.512c0-1.263-.747-2.17-1.395-2.665L15 11.466v-1.52h-5z" fill="#007FFF"/></svg>