<svg width="21" height="21" fill="none" xmlns="http://www.w3.org/2000/svg"><path fill-rule="evenodd" clip-rule="evenodd" d="M10 .123C4.486.123 0 4.63 0 10.17c0 5.54 4.486 10.048 10 10.048S20 15.71 20 10.17c0-1.132-.196-2.217-.541-3.232l-1.62 1.626c.106.519.161 1.056.161 1.606 0 4.431-3.589 8.037-8 8.037s-8-3.606-8-8.037c0-4.432 3.589-8.038 8-8.038 1.633 0 3.152.496 4.42 1.344l1.432-1.439A9.91 9.91 0 0010 .123zm9.293 1.3L9 11.763 5.707 8.455 4.293 9.876 9 14.606 20.707 2.842l-1.414-1.42z" fill="#007FFF"/></svg>