<svg width="32" height="32" fill="none" xmlns="http://www.w3.org/2000/svg"><path fill-rule="evenodd" clip-rule="evenodd" d="M13.333 2.667a3.988 3.988 0 00-3.755 2.666H6.667A2.666 2.666 0 004 8v14.667a2.666 2.666 0 002.667 2.666H12v5.334h5.333V28h-2.666v-2.667H20a2.666 2.666 0 002.667-2.666v-5.334h2.666V20H28v-5.333h-5.333V8A2.666 2.666 0 0020 5.333h-2.912a3.988 3.988 0 00-3.755-2.666zm0 2.666a1.334 1.334 0 110 2.668 1.334 1.334 0 010-2.668zM12 14.667h5.333v2.666h-2.666V20H12v-5.333zm13.333 10.666V28h-2.666v2.667H28v-5.334h-2.667z" fill="#fff"/></svg>