<svg width="220" height="218" fill="none" xmlns="http://www.w3.org/2000/svg"><path d="M33.788 62.912v92.176a6.632 6.632 0 003.304 5.736l79.741 46.088a6.608 6.608 0 006.607 0l79.741-46.088a6.633 6.633 0 003.304-5.736V62.912a6.633 6.633 0 00-3.304-5.736L123.44 11.088a6.608 6.608 0 00-6.607 0l-79.74 46.088a6.632 6.632 0 00-3.305 5.736z" fill="#D0D6DB"/><rect x="127.645" y="26.311" width="60.068" height="75.172" rx="2" fill="#B4BDC5"/><rect y="82.69" width="90.102" height="18.793" rx="2" fill="#B4BDC5"/><rect x="30.034" y="135.311" width="123.891" height="60.138" rx="2" fill="#B4BDC5"/><rect x="191.468" y="157.862" width="22.526" height="15.034" rx="2" fill="#B4BDC5"/><rect x="191.468" y="180.414" width="22.526" height="15.034" rx="2" fill="#B4BDC5"/><rect x="191.468" y="202.966" width="22.526" height="15.034" rx="2" fill="#B4BDC5"/><ellipse cx="95.734" cy="46.983" rx="9.386" ry="9.397" fill="#B4BDC5"/><ellipse cx="69.454" cy="46.983" rx="9.386" ry="9.397" fill="#B4BDC5"/><ellipse cx="43.174" cy="46.983" rx="9.386" ry="9.397" fill="#B4BDC5"/><ellipse cx="99.488" cy="43.224" rx="9.386" ry="9.397" fill="#007DFF"/><path fill="#99CBFF" d="M98.444 38.007h2.087v10.441h-2.087z"/><path d="M94.277 44.269v-2.09h10.429v2.09H94.277z" fill="#99CBFF"/><ellipse cx="73.208" cy="43.224" rx="9.386" ry="9.397" fill="#99CBFF"/><path fill="#007DFF" d="M72.165 38.007h2.087v10.441h-2.087z"/><path d="M67.997 44.269v-2.09h10.43v2.09h-10.43z" fill="#007DFF"/><ellipse cx="46.928" cy="43.224" rx="9.386" ry="9.397" fill="#99CBFF"/><path fill-rule="evenodd" clip-rule="evenodd" d="M38.257 39.628a9.386 9.386 0 018.671-5.8c5.184 0 9.386 4.207 9.386 9.396 0 3.8-2.287 7.227-5.794 8.682a9.378 9.378 0 01-10.228-2.037 9.405 9.405 0 01-2.035-10.24zm16.555 3.596c0-4.36-3.53-7.893-7.884-7.893-4.352.004-7.88 3.536-7.883 7.893 0 4.36 3.53 7.893 7.883 7.893 4.355 0 7.884-3.534 7.884-7.893z" fill="#007DFF"/><path fill="#007DFF" d="M45.885 38.007h2.087v10.441h-2.087z"/><path d="M41.718 44.269v-2.09h10.429v2.09h-10.43z" fill="#007DFF"/><path d="M209.098 184.924a3.967 3.967 0 01-5.256 0l-8.222-7.201a2.25 2.25 0 00-.428 1.315v11.276a2.253 2.253 0 002.252 2.255h18.021a2.253 2.253 0 002.252-2.255v-11.276a2.256 2.256 0 00-.427-1.315l-8.192 7.201z" fill="#fff"/><path d="M209.098 184.924l8.222-7.201a2.253 2.253 0 00-1.825-.94h-18.021a2.251 2.251 0 00-1.824.94l8.222 7.201a3.968 3.968 0 005.226 0z" fill="#E0E4E8"/><path d="M209.098 207.476a3.97 3.97 0 01-5.256 0l-8.222-7.202a2.253 2.253 0 00-.428 1.316v11.276a2.254 2.254 0 002.252 2.255h18.021a2.254 2.254 0 002.252-2.255V201.59a2.26 2.26 0 00-.427-1.316l-8.192 7.202z" fill="#fff"/><path d="M209.098 207.476l8.222-7.201a2.253 2.253 0 00-1.825-.94h-18.021a2.251 2.251 0 00-1.824.94l8.222 7.201a3.968 3.968 0 005.226 0z" fill="#E0E4E8"/><ellipse cx="215.495" cy="179.038" rx="4.505" ry="4.51" fill="#3CCD78"/><path d="M209.098 162.244a3.952 3.952 0 01-5.256 0l-8.222-7.201a2.259 2.259 0 00-.398 1.315v11.276a2.254 2.254 0 002.253 2.256h18.02a2.255 2.255 0 002.253-2.256v-11.276a2.267 2.267 0 00-.428-1.315l-8.222 7.201z" fill="#fff"/><path d="M209.098 162.245l8.222-7.202a2.252 2.252 0 00-1.825-.939h-18.021a2.25 2.25 0 00-1.824.939l8.222 7.202a3.955 3.955 0 005.226 0z" fill="#E0E4E8"/><ellipse cx="215.495" cy="156.358" rx="4.505" ry="4.51" fill="#FF505F"/><path d="M35.788 191.689a2 2 0 01-2-2v-56.137a2 2 0 012-2H155.68a2 2 0 012 2v56.137a2 2 0 01-2 2H35.789z" fill="#D3B7EF"/><rect x="93.856" y="97.724" width="90.102" height="18.793" rx="2" transform="rotate(180 93.856 97.724)" fill="#99CBFF"/><rect x="131.399" y="22.552" width="60.068" height="75.172" rx="2" fill="#FFB9BF"/><path d="M47.051 180.414a2 2 0 01-2-2v-56.138a2 2 0 012-2h119.891a2 2 0 012 2v56.138a2 2 0 01-2 2H47.051z" fill="#A76FDF"/><path d="M58.314 169.138a2 2 0 01-2-2V111a2 2 0 012-2h119.891a2 2 0 012 2v56.138a2 2 0 01-2 2H58.314z" fill="#fff"/><path d="M124.161 161.621v-45.104h48.272v45.104h-48.272z" fill="#D3B7EF"/><path fill="#E0E4E8" d="M63.822 116.517h41.297v11.276H63.822zM63.822 131.552h48.806v7.517H63.822z"/><rect x="63.822" y="150.345" width="48.806" height="11.276" rx="2" fill="#914BD7"/><rect x="142.662" y="11.276" width="60.068" height="75.172" rx="2" fill="#FF969F"/><rect x="153.925" width="60.068" height="75.172" rx="2" fill="#fff"/><path fill="#E0E4E8" d="M161.433 7.517h28.532v11.276h-28.532zM161.433 60.138h45.051v7.517h-45.051z"/><path d="M183.959 22.552c-9.331 0-16.894 7.572-16.894 16.914 0 9.34 7.563 16.913 16.894 16.913 9.33 0 16.894-7.572 16.894-16.913h-16.894V22.552z" fill="#FFB9BF"/><path d="M183.959 22.552v16.914h16.894c0-9.342-7.564-16.914-16.894-16.914zM202.73 7.517h7.509v7.517h-7.509z" fill="#FF505F"/><rect x="101.365" y="90.207" width="90.102" height="18.793" rx="2" transform="rotate(180 101.365 90.207)" fill="#66B1FF"/><rect x="108.874" y="82.689" width="90.102" height="18.793" rx="2" transform="rotate(180 108.874 82.69)" fill="#007DFF"/><ellipse cx="99.488" cy="73.293" rx="5.631" ry="5.638" fill="#99CBFF"/><path fill="#F2F2F2" d="M22.525 67.655h15.017v1.503H22.525zM22.525 77.428h15.017v1.503H22.525zM22.525 72.541h15.017v1.503H22.525z"/><path fill="#66B1FF" d="M45.051 67.655h37.543v11.276H45.051z"/></svg>