<svg width="220" height="222" fill="none" xmlns="http://www.w3.org/2000/svg"><path d="M20.37 57.696v100.079a7.199 7.199 0 003.585 6.227l86.534 50.04a7.164 7.164 0 007.17 0l86.534-50.04a7.2 7.2 0 003.585-6.227V57.695a7.202 7.202 0 00-3.585-6.227l-86.534-50.04a7.167 7.167 0 00-7.17 0l-86.534 50.04a7.2 7.2 0 00-3.585 6.227z" fill="#D0D6DB"/><rect x="4.074" y="17.956" width="40.741" height="126.507" rx="2" fill="#B4BDC5"/><rect x="57.037" y="87.331" width="40.741" height="12.243" rx="2" fill="#B4BDC5"/><rect x="57.037" y="66.927" width="40.741" height="12.243" rx="2" fill="#B4BDC5"/><rect x="57.037" y="107.735" width="85.556" height="81.618" rx="2" fill="#B4BDC5"/><rect x="122.222" y="62.846" width="77.407" height="81.618" rx="2" fill="#B4BDC5"/><rect x="154.815" y="156.706" width="65.185" height="65.294" rx="2" fill="#B4BDC5"/><rect x="118.148" y="38.36" width="97.778" height="4.081" rx="2.04" fill="#B4BDC5"/><ellipse cx="187.407" cy="38.36" rx="10.185" ry="10.202" fill="#CCE5FF"/><path d="M116.111 36.32h71.296v4.08h-71.296a2.039 2.039 0 01-2.037-2.04c0-1.127.912-2.04 2.037-2.04z" fill="#007DFF"/><path d="M187.407 36.32h22.408c1.125 0 2.037.913 2.037 2.04s-.912 2.04-2.037 2.04h-22.408v-4.08z" fill="#99CBFF"/><ellipse cx="187.407" cy="38.36" rx="6.111" ry="6.121" fill="#007DFF"/><rect x="118.148" y="58.765" width="77.407" height="81.618" rx="2" fill="#fff"/><path fill="#E0E4E8" d="M122.222 62.846h50.111v12.243h-50.111z"/><path fill="#007DFF" d="M187.407 95.492h-32.593V87.33h32.593zM187.407 107.735h-44.815v-8.162h44.815zM187.407 119.978h-24.444v-8.162h24.444z"/><path fill="#66B1FF" d="M158.889 95.492h-32.593V87.33h32.593zM146.667 107.735h-20.37v-8.162h20.37zM167.037 119.978h-40.741v-8.162h40.741z"/><path fill="#007DFF" d="M187.407 132.221h-40.741v-8.162h40.741z"/><path fill="#66B1FF" d="M150.741 132.221h-24.444v-8.162h24.444z"/><ellipse cx="187.407" cy="66.927" rx="4.074" ry="4.081" fill="#CCD2D8"/><path fill="#CCD2D8" d="M118.148 78.353h77.407v1.632h-77.407z"/><path d="M72.6 28.868a5.487 5.487 0 00-7.496-2.016l-10.088 5.836-.92-1.632-4.783 2.766 1.295 2.245-13.501 7.81a4.725 4.725 0 00-2.151 2.694 2.127 2.127 0 01-2.103 1.526 4.777 4.777 0 00-2.648.645 4.009 4.009 0 00-.27 7.217c1.36.719 3.01.595 4.247-.32a4.755 4.755 0 001.882-1.975 2.117 2.117 0 012.37-1.061 4.71 4.71 0 003.407-.515l13.501-7.81 1.296 2.244 4.783-2.759-.92-1.632 10.087-5.836a5.498 5.498 0 002.012-7.427z" fill="#B4BDC5"/><path d="M40.74 26.118V138.75a1.63 1.63 0 01-1.629 1.632H1.63c-.9 0-1.63-.73-1.63-1.632V26.118h40.74z" fill="#fff"/><path d="M36.667 30.198v32.648H4.074V30.197h32.593z" fill="#007DFF"/><path d="M36.667 66.927v32.647H4.074V66.927h32.593z" fill="#1ED2FF"/><path d="M36.667 103.654v32.647H4.074v-32.647h32.593z" fill="#FFC846"/><path d="M1.63 13.875H39.11c.9 0 1.63.73 1.63 1.632v10.61H0v-10.61c0-.901.73-1.632 1.63-1.632z" fill="#007DFF"/><ellipse cx="34.63" cy="19.996" rx="2.037" ry="2.04" fill="#66B1FF"/><ellipse cx="26.481" cy="19.996" rx="2.037" ry="2.04" fill="#66B1FF"/><ellipse cx="18.333" cy="19.996" rx="2.037" ry="2.04" fill="#66B1FF"/><path d="M142.593 140.382h-24.445v-32.647h22.815c.9 0 1.63.731 1.63 1.633v31.014z" fill="#001E3C" opacity=".15"/><path d="M54.593 103.654h82.296c.9 0 1.629.731 1.629 1.633v14.691H52.963v-14.691c0-.902.73-1.633 1.63-1.633z" fill="#007DFF"/><path fill="#66B1FF" d="M57.037 107.735h57.037v8.162H57.037z"/><path d="M52.963 119.978h85.555v63.662a1.63 1.63 0 01-1.629 1.632H54.592c-.9 0-1.63-.731-1.63-1.632v-63.662z" fill="#fff"/><path fill="#E0E4E8" d="M57.037 140.382h57.037v8.162H57.037zM57.037 124.059h57.037v8.162H57.037zM57.037 173.029h57.037v8.162H57.037z"/><path fill="#CCE5FF" d="M52.963 152.625h85.556v16.323H52.963z"/><path fill="#99CBFF" d="M57.037 156.706h57.037v8.162H57.037z"/><path d="M134.444 107.735l-6.111 8.162-6.111-8.162h12.222z" fill="#66B1FF"/><rect x="150.741" y="152.625" width="65.185" height="65.294" rx="2" fill="#007DFF"/><path fill-rule="evenodd" clip-rule="evenodd" d="M170.247 169.308l-11.505 31.373h3.976l3.154-8.88h12.662l3.17 8.88h3.96l-11.506-31.373h-3.911zm2.078 4.978l5.019 14.153-10.307-.017 5.044-14.136h.244zM198.155 187.084c-4.359.563-9.118 1.526-9.118 6.921 0 4.595 3.504 7.231 8.01 7.248 4.098 0 6.249-2.204 6.983-3.738h.179v3.175h3.61v-15.508c0-7.476-5.688-8.333-8.686-8.333-3.553 0-7.586 1.224-9.42 5.509l3.423 1.233c.798-1.722 2.672-3.559 6.119-3.559 3.324 0 4.954 1.763 4.954 4.783v.122c0 1.453-1.171 1.585-4.072 1.911-.588.067-1.247.141-1.982.236zm6.054 1.771v3.314h-.041c0 2.938-2.322 5.819-6.567 5.819-2.876 0-4.954-1.281-4.954-3.795 0-2.759 2.509-3.616 5.32-3.991l.293-.034c1.705-.197 5.373-.621 5.949-1.313z" fill="#fff"/><rect x="52.963" y="83.25" width="40.741" height="12.243" rx="2" fill="#007DFF"/><path fill="#66B1FF" d="M57.037 87.331H89.63v4.081H57.037z"/><rect x="52.963" y="62.846" width="40.741" height="12.243" rx="2" fill="#66B1FF"/><path fill="#007DFF" d="M57.037 66.927H89.63v4.081H57.037z"/><path d="M40.74 45.208h-1.58a4.706 4.706 0 00-3.21 1.257c-.701.667-1.764.775-2.583.261a4.753 4.753 0 00-2.616-.759c-2.444 0-4.449 1.78-4.449 3.975a4.232 4.232 0 004.45 3.983 4.762 4.762 0 002.615-.767 2.116 2.116 0 012.583.269c.873.81 2.02 1.26 3.21 1.257h1.58v-9.476z" fill="#001E3C" opacity=".15"/><path d="M48.97 31.627l-14.194 8.21a4.724 4.724 0 00-2.15 2.694 2.127 2.127 0 01-2.103 1.526 4.775 4.775 0 00-2.648.645 4.25 4.25 0 00-1.866 5.713l25.324-14.683-2.363-4.105z" fill="#E0E4E8"/><path d="M31.851 51.599a4.755 4.755 0 001.882-1.976 2.117 2.117 0 012.371-1.06 4.711 4.711 0 003.406-.515l14.186-8.21-2.363-4.081-25.324 14.65a4.233 4.233 0 005.842 1.192z" fill="#CCD2D8"/><path d="M51.766 27.016l7.32 12.702-4.776 2.763-7.322-12.702 4.778-2.763z" fill="#007DFF"/><path d="M70.27 24.784a5.498 5.498 0 01-2.007 7.504l-11.516 6.66-5.484-9.514 11.516-6.66a5.479 5.479 0 017.491 2.01z" fill="#007DFF"/><path fill="#99CBFF" d="M70.188 2.848h1.63v14.789h-1.63zM76.34 20.26l12.787-7.392.815 1.414-12.788 7.392-.815-1.414zM76.337 28.305l.814-1.414 12.787 7.395-.815 1.414-12.786-7.395z"/></svg>