<svg width="220" height="211" fill="none" xmlns="http://www.w3.org/2000/svg"><path d="M20 56.498v98.003a7.049 7.049 0 003.52 6.099l84.96 49.001a7.053 7.053 0 007.04 0l84.96-49.001a7.05 7.05 0 003.52-6.099V56.498a7.049 7.049 0 00-3.52-6.098L115.52 1.4a7.054 7.054 0 00-7.04 0L23.52 50.4A7.048 7.048 0 0020 56.498z" fill="#D0D6DB"/><rect x="36" y="61.541" width="108" height="143.864" rx="2" fill="#B4BDC5"/><rect x="4" y="17.583" width="72" height="31.97" rx="2" fill="#B4BDC5"/><rect x="88" y="13.587" width="108" height="143.864" rx="2" fill="#B4BDC5"/><rect x="156" y="169.439" width="64" height="15.985" rx="7.992" fill="#B4BDC5"/><rect x="156" y="193.417" width="64" height="15.985" rx="7.992" fill="#B4BDC5"/><rect x="152" y="165.443" width="64" height="15.985" rx="7.992" fill="#CCE5FF"/><ellipse cx="160" cy="173.435" rx="4" ry="3.996" fill="#007DFF"/><path fill="#99CBFF" d="M168.8 169.439H208v7.992h-39.2z"/><rect x="152" y="189.42" width="64" height="15.985" rx="7.992" fill="#007DFF"/><ellipse cx="160" cy="197.413" rx="4" ry="3.996" fill="#CCE5FF"/><path fill="#66B1FF" d="M168.8 193.417H208v7.992h-39.2z"/><path d="M84 151.856V21.579h108v130.277c0 .883-.716 1.598-1.6 1.598H85.6c-.884 0-1.6-.715-1.6-1.598z" fill="#001E3C"/><path fill="#3CCD78" d="M92 29.572h56v7.992H92zM92 69.534h68v7.992H92z"/><path fill="#FFC846" d="M92 109.496h92v7.992H92z"/><path fill="#334B63" d="M92 121.485h80v23.977H92z"/><path fill="#FF505F" d="M92 81.523h84V105.5H92z"/><path fill="#334B63" d="M92 41.56h92v23.977H92z"/><path d="M85.6 9.59h104.8c.884 0 1.6.716 1.6 1.6v10.39H84V11.19a1.6 1.6 0 011.6-1.6z" fill="#007DFF"/><ellipse cx="186" cy="15.585" rx="2" ry="1.998" fill="#66B1FF"/><ellipse cx="178" cy="15.585" rx="2" ry="1.998" fill="#66B1FF"/><ellipse cx="170" cy="15.585" rx="2" ry="1.998" fill="#66B1FF"/><rect y="13.587" width="72" height="31.97" rx="2" fill="#fff"/><rect x="48" y="33.568" width="20" height="7.992" rx="1" fill="#007DFF"/><rect x="24" y="33.568" width="20" height="7.992" rx="1" fill="#66B1FF"/><path fill="#E0E4E8" d="M4 17.583h64v11.989H4z"/><path d="M144 153.454H84V61.541h58.4c.884 0 1.6.716 1.6 1.599v90.314z" fill="#001E3C" opacity=".15"/><path d="M60 201.409V57.545h78.4c.884 0 1.6.716 1.6 1.599V199.81a1.6 1.6 0 01-1.6 1.599H60z" fill="#fff"/><path d="M33.6 57.545H60V201.41H33.6a1.6 1.6 0 01-1.6-1.598V59.144a1.6 1.6 0 011.6-1.599z" fill="#007DFF"/><path fill="#E0E4E8" d="M68 65.538h28v7.992H68z"/><path fill="#66B1FF" d="M36 65.538h20v7.992H36zM36 113.492h20v7.992H36zM36 125.481h20v7.992H36zM40 77.526h16v31.97H40zM40 137.47h16v31.97H40z"/><path fill="#E0E4E8" d="M68 113.492h28v7.992H68zM68 77.526h60V105.5H68zM68 125.481h60v27.974H68zM68 157.451h60v39.962H68z"/><rect x="132" y="77.526" width="4" height="55.947" rx="2" fill="#CCD2D8"/><path fill="#CCD2D8" d="M72 129.477h52v19.981H72z"/></svg>