<svg width="32" height="32" fill="none" xmlns="http://www.w3.org/2000/svg"><path fill-rule="evenodd" clip-rule="evenodd" d="M16 4L2.667 6.667v18.666L16 28V4zm2.667 2.667v2.666h2.666V12h-2.666v2.667h2.666v2.666h-2.666V20h2.666v2.667h-2.666v2.666H28c.736 0 1.333-.597 1.333-1.333V8c0-.736-.597-1.333-1.333-1.333h-9.333zM24 9.333h2.667V12H24V9.333zm-18.432 1.73h2.37l1.231 2.953c.1.241.175.52.253.838h.034c.044-.19.133-.482.268-.862l1.372-2.93h2.162l-2.581 4.894 2.656 4.982H11.03l-1.485-3.22c-.056-.113-.122-.34-.177-.658h-.02c-.034.152-.101.38-.201.685l-1.498 3.192H5.333l2.748-4.942-2.513-4.932zM24 14.666h2.667v2.666H24v-2.666zM24 20h2.667v2.667H24V20z" fill="#fff"/></svg>