<svg width="261" height="136" fill="none" xmlns="http://www.w3.org/2000/svg"><g clip-path="url(#clip0)"><path fill-rule="evenodd" clip-rule="evenodd" d="M.65 8A7.2 7.2 0 017.85.78h245.1a7.2 7.2 0 017.21 7.2v165.8c0 3.98-3.23 7.21-7.2 7.21H7.85a7.2 7.2 0 01-7.21-7.2V8z" fill="#1A344F"/><path fill="#001E3C" d="M.65 51.67h259.51v1.06H.65z"/><path fill-rule="evenodd" clip-rule="evenodd" d="M34.57 19.87H26.1l-2.12-2.12h-6.36c-1.16 0-2.12.95-2.12 2.12v12.72c0 1.16.96 2.12 2.12 2.12h16.96c1.17 0 2.12-.96 2.12-2.12v-10.6c0-1.17-.95-2.12-2.12-2.12z" fill="#007FFF"/><path d="M45.85 23.1v-1.87h9.84v1.87h-3.81v10.47h-2.22V23.1h-3.81zm10.68 10.47V24.3h2.11v1.55h.1a2.3 2.3 0 012.28-1.68 5.06 5.06 0 01.79.06v2a4.05 4.05 0 00-1.01-.13c-.4.01-.76.1-1.08.27a1.9 1.9 0 00-1 1.75v5.44h-2.19zm10.44.18c-.93 0-1.73-.2-2.4-.58a3.92 3.92 0 01-1.55-1.65 5.53 5.53 0 01-.54-2.53c0-.95.18-1.78.54-2.5a4.1 4.1 0 013.84-2.3c.57 0 1.1.1 1.61.28.51.18.96.46 1.35.84.4.39.7.87.93 1.46.22.59.33 1.29.33 2.1v.67H63.5v-1.47H69c-.01-.42-.1-.8-.28-1.12a1.97 1.97 0 00-.74-.77 2.08 2.08 0 00-1.1-.29 2.24 2.24 0 00-1.96 1.17c-.18.35-.28.73-.28 1.14v1.28c0 .54.1 1 .3 1.39.2.38.47.67.82.88.35.2.77.3 1.24.3.32 0 .6-.05.86-.13.26-.1.48-.23.67-.4.19-.18.33-.4.43-.66l2.03.22c-.12.54-.37 1.01-.73 1.41-.36.4-.82.71-1.37.93-.56.22-1.2.33-1.92.33zm10.05 0c-.92 0-1.72-.2-2.4-.58a3.92 3.92 0 01-1.55-1.65 5.53 5.53 0 01-.54-2.53c0-.95.18-1.78.54-2.5a4.1 4.1 0 013.84-2.3c.57 0 1.1.1 1.61.28.51.18.96.46 1.35.84.4.39.7.87.93 1.46.23.59.34 1.29.34 2.1v.67h-7.58v-1.47h5.49c0-.42-.1-.8-.27-1.12a1.97 1.97 0 00-.74-.77 2.08 2.08 0 00-1.1-.29 2.24 2.24 0 00-1.96 1.17c-.19.35-.28.73-.29 1.14v1.28c0 .54.1 1 .3 1.39.2.38.47.67.82.88.36.2.77.3 1.24.3.32 0 .6-.05.87-.13.25-.1.48-.23.66-.4.2-.18.34-.4.43-.66l2.04.22c-.13.54-.38 1.01-.74 1.41-.35.4-.81.71-1.37.93-.56.22-1.2.33-1.92.33z" fill="#AAB4BE"/><path fill-rule="evenodd" clip-rule="evenodd" d="M241.15 23.05l-1.59-1.6-4.84 4.85-4.85-4.84-1.59 1.59 6.44 6.43 6.43-6.43z" fill="#AAB4BE"/><g clip-path="url(#clip1)"><path d="M45.44 131.7v4.88h-1.25v-8.1h1.2v1.27h.1c.2-.42.49-.75.87-1 .39-.25.89-.38 1.5-.38.55 0 1.03.12 1.44.34.41.22.73.56.96 1.01.23.45.34 1.02.34 1.71v5.14h-1.24v-5.05a2.1 2.1 0 00-.5-1.5 1.76 1.76 0 00-1.36-.53c-.4 0-.75.09-1.06.26-.31.17-.56.42-.74.75-.17.33-.26.74-.26 1.2zm9.82 5.06c-.52 0-.98-.1-1.4-.28a2.4 2.4 0 01-1-.85 2.4 2.4 0 01-.37-1.35c0-.47.1-.84.28-1.13.18-.3.42-.52.73-.69.3-.16.64-.28 1.01-.37.37-.08.75-.15 1.13-.2l1.2-.14c.3-.03.53-.09.67-.17.14-.08.21-.22.21-.42v-.04c0-.53-.14-.93-.42-1.22-.29-.28-.71-.43-1.29-.43-.59 0-1.05.13-1.4.4a2.3 2.3 0 00-.7.82l-1.18-.42c.2-.49.49-.87.84-1.15.35-.28.74-.47 1.16-.58a4.83 4.83 0 012.14-.07c.34.06.67.18.98.37.32.2.59.48.8.86.21.39.32.9.32 1.54v5.33h-1.25v-1.1h-.06c-.09.19-.23.37-.42.57-.2.2-.46.37-.79.51-.32.14-.72.21-1.2.21zm.19-1.11c.49 0 .9-.1 1.24-.3a1.97 1.97 0 001.03-1.7v-1.14c-.05.06-.17.12-.35.17-.17.05-.38.1-.6.13a27.93 27.93 0 01-1.2.16c-.32.04-.62.11-.9.2-.28.1-.5.24-.68.42-.17.19-.25.43-.25.75 0 .43.16.76.48.98.32.22.73.33 1.23.33zm12.12-7.17l-3 8.1h-1.26l-3-8.1h1.35l2.24 6.45h.08l2.24-6.45h1.35zm2.04 8.18a.91.91 0 01-.67-.28.91.91 0 01-.28-.67c0-.26.1-.48.28-.67.18-.19.4-.28.67-.28.26 0 .48.1.67.28.18.19.28.41.28.67a.99.99 0 01-.47.82.9.9 0 01-.48.13zm3.18 2.95v-11.13h1.2v1.29h.15c.09-.15.21-.32.38-.54.16-.22.4-.42.7-.6.31-.17.73-.25 1.26-.25a3.21 3.21 0 013.02 1.96c.29.62.43 1.36.43 2.2 0 .87-.14 1.6-.43 2.24a3.18 3.18 0 01-3 1.97 2.6 2.6 0 01-1.25-.26 2.32 2.32 0 01-.72-.6c-.17-.22-.3-.41-.4-.56h-.1v4.28H72.8zm1.22-7.08c0 .6.09 1.15.27 1.62.18.46.44.82.78 1.09.35.26.77.39 1.27.39.52 0 .95-.14 1.3-.41.35-.28.62-.66.8-1.12.17-.47.26-1 .26-1.57 0-.57-.09-1.09-.26-1.54a2.37 2.37 0 00-.79-1.1c-.35-.26-.78-.4-1.31-.4a2.07 2.07 0 00-2.06 1.45c-.17.45-.26.98-.26 1.59zm9.06-.82v4.86h-1.24v-10.79h1.24v3.97h.11c.19-.42.47-.75.85-1 .39-.25.9-.38 1.53-.38.55 0 1.04.12 1.45.34.42.21.74.55.97 1 .23.45.34 1.03.34 1.72v5.14h-1.24v-5.05c0-.65-.17-1.14-.5-1.5a1.79 1.79 0 00-1.38-.53c-.4 0-.77.09-1.1.26-.31.17-.56.42-.75.75-.18.33-.28.74-.28 1.2zm7.53 7.9v-11.13h1.2v1.29h.15c.09-.15.22-.32.38-.54.16-.22.4-.42.7-.6.31-.17.73-.25 1.26-.25a3.21 3.21 0 013.02 1.96c.29.62.44 1.36.44 2.2 0 .87-.15 1.6-.44 2.24-.3.62-.7 1.1-1.21 1.45-.52.34-1.12.51-1.79.51a2.6 2.6 0 01-1.25-.25 2.33 2.33 0 01-.72-.6c-.17-.22-.3-.41-.4-.56h-.1v4.28H90.6zm1.22-7.08c0 .6.1 1.15.27 1.62.18.46.44.82.79 1.09.34.26.76.39 1.26.39.52 0 .96-.14 1.3-.41.35-.28.62-.66.8-1.12.17-.47.26-1 .26-1.57 0-.57-.09-1.09-.26-1.54a2.37 2.37 0 00-.79-1.1c-.34-.26-.78-.4-1.3-.4a2.07 2.07 0 00-2.06 1.45c-.18.45-.27.98-.27 1.59zM49.93 102.73l-1.12.32a2.09 2.09 0 00-.31-.55 1.51 1.51 0 00-.55-.44 1.99 1.99 0 00-.9-.17c-.49 0-.9.11-1.23.34-.33.22-.49.51-.49.86 0 .3.11.55.34.73.22.18.57.33 1.05.45l1.2.3c.73.17 1.27.44 1.62.8.36.36.53.82.53 1.39 0 .46-.13.88-.4 1.24-.26.37-.63.66-1.1.87-.48.2-1.03.31-1.66.31-.82 0-1.5-.18-2.05-.54a2.38 2.38 0 01-1.03-1.57l1.18-.3c.12.44.33.77.64.99.32.22.73.33 1.24.33.58 0 1.04-.13 1.38-.37.35-.25.52-.55.52-.9 0-.28-.1-.52-.3-.7-.2-.2-.5-.34-.9-.44l-1.35-.31a3.22 3.22 0 01-1.64-.82 1.98 1.98 0 01-.51-1.4 2 2 0 01.38-1.21c.26-.35.61-.63 1.06-.83.45-.2.96-.3 1.53-.3.8 0 1.43.18 1.89.53.46.35.78.81.98 1.4zm5.54-1.81v1.05h-4.2v-1.05h4.2zm-2.98-1.94h1.25v7.71c0 .36.05.62.15.8.1.17.24.28.4.34.17.06.34.09.52.09a2.21 2.21 0 00.55-.07l.25 1.12a2.53 2.53 0 01-.92.15c-.35 0-.7-.08-1.04-.23a2.05 2.05 0 01-.83-.69c-.22-.3-.33-.7-.33-1.17v-8.05zm5.65 13.05a2.73 2.73 0 01-.9-.15l.3-1.1c.46.12.84.12 1.14 0 .3-.13.57-.49.79-1.1l.23-.63-3-8.13h1.35l2.24 6.45h.08l2.24-6.45 1.36.02-3.45 9.25c-.15.42-.35.76-.57 1.03a2.18 2.18 0 01-1.81.8zm8.72-13.81v10.8H65.6v-10.8h1.25zm5.67 10.96a3.46 3.46 0 01-3.32-1.97 4.96 4.96 0 01-.45-2.18c0-.83.15-1.56.45-2.2a3.43 3.43 0 013.2-2.02c.41 0 .83.07 1.24.21a3.1 3.1 0 011.93 1.93c.2.52.3 1.16.3 1.91v.53h-6.24v-1.08h4.98c0-.45-.1-.86-.28-1.22a2.06 2.06 0 00-1.94-1.16c-.5 0-.92.12-1.28.37-.36.24-.64.56-.83.95-.2.39-.3.8-.3 1.25v.72c0 .61.11 1.13.33 1.55.21.42.5.75.89.97.38.22.82.33 1.32.33.33 0 .62-.05.88-.14.27-.1.5-.24.7-.42.19-.2.34-.43.44-.71l1.2.34c-.12.4-.33.76-.63 1.07-.3.3-.67.55-1.11.72a4.1 4.1 0 01-1.48.25zm6.15-.08a.91.91 0 01-.67-.28.91.91 0 01-.28-.67c0-.26.1-.48.28-.67.19-.19.4-.28.67-.28.26 0 .48.1.67.28.19.19.28.4.28.67a.99.99 0 01-.47.82.9.9 0 01-.48.13zm6.47.08a3.5 3.5 0 01-1.96-.54 3.5 3.5 0 01-1.27-1.48 5.01 5.01 0 01-.44-2.15c0-.82.15-1.55.45-2.18a3.43 3.43 0 013.2-2.02c.57 0 1.08.1 1.54.32a2.76 2.76 0 011.67 2.21h-1.25a1.9 1.9 0 00-1.94-1.41c-.49 0-.91.13-1.28.38-.36.25-.64.6-.85 1.06-.2.45-.3.98-.3 1.6 0 .62.1 1.17.3 1.63.2.46.48.82.84 1.08.37.26.8.38 1.29.38.32 0 .62-.05.88-.16a1.82 1.82 0 001.06-1.25h1.24a2.88 2.88 0 01-1.61 2.2c-.45.22-.97.33-1.57.33zm10.73-6.45l-1.11.32a2.08 2.08 0 00-.31-.55 1.51 1.51 0 00-.55-.44 1.99 1.99 0 00-.9-.17c-.49 0-.9.11-1.23.34-.33.22-.5.51-.5.86 0 .3.12.55.35.73.22.18.57.33 1.05.45l1.2.3c.73.17 1.26.44 1.62.8.35.36.53.82.53 1.39 0 .46-.13.88-.4 1.24-.26.37-.63.66-1.1.87-.48.2-1.03.31-1.66.31-.83 0-1.5-.18-2.05-.54a2.38 2.38 0 01-1.03-1.57l1.18-.3c.11.44.33.77.64.99.32.22.73.33 1.24.33.58 0 1.04-.13 1.38-.37.34-.25.52-.55.52-.9 0-.28-.1-.52-.3-.7-.2-.2-.5-.34-.9-.44l-1.35-.31a3.22 3.22 0 01-1.64-.82 1.98 1.98 0 01-.52-1.4 2 2 0 01.39-1.21c.26-.35.61-.63 1.06-.83.45-.2.96-.3 1.53-.3.8 0 1.43.18 1.88.53.46.35.8.81.98 1.4zm7.76 0l-1.12.32a2.08 2.08 0 00-.31-.55 1.5 1.5 0 00-.55-.44 2 2 0 00-.89-.17c-.5 0-.9.11-1.24.34-.32.22-.49.51-.49.86 0 .3.12.55.34.73.22.18.58.33 1.05.45l1.2.3c.73.17 1.27.44 1.62.8.36.36.54.82.54 1.39 0 .46-.14.88-.4 1.24-.27.37-.64.66-1.11.87-.48.2-1.03.31-1.66.31-.82 0-1.5-.18-2.05-.54a2.38 2.38 0 01-1.02-1.57l1.18-.3c.1.44.32.77.63.99.32.22.73.33 1.24.33.58 0 1.04-.13 1.38-.37.35-.25.52-.55.52-.9 0-.28-.1-.52-.3-.7-.2-.2-.5-.34-.9-.44l-1.35-.31a3.22 3.22 0 01-1.63-.82 1.98 1.98 0 01-.52-1.4 2 2 0 01.38-1.21c.26-.35.62-.63 1.06-.83.45-.2.96-.3 1.53-.3.8 0 1.43.18 1.89.53.46.35.78.81.98 1.4zM49.93 75.17l-1.12.31a2.08 2.08 0 00-.31-.54 1.51 1.51 0 00-.55-.44 2 2 0 00-.9-.17c-.49 0-.9.1-1.23.34-.33.22-.49.5-.49.86 0 .3.11.55.34.73.22.18.57.33 1.05.45l1.2.3c.73.17 1.27.44 1.62.8.36.36.53.82.53 1.38 0 .47-.13.88-.4 1.25-.26.36-.63.65-1.1.86-.48.21-1.03.32-1.66.32-.82 0-1.5-.18-2.05-.54a2.38 2.38 0 01-1.03-1.57l1.18-.3c.12.44.33.77.64.99.32.21.73.32 1.24.32.58 0 1.04-.12 1.38-.37.35-.25.52-.54.52-.9 0-.27-.1-.5-.3-.7-.2-.2-.5-.34-.9-.43l-1.35-.32A3.22 3.22 0 0144.6 77a1.98 1.98 0 01-.51-1.4 2 2 0 01.38-1.21c.26-.35.61-.63 1.06-.83.45-.2.96-.3 1.53-.3.8 0 1.43.18 1.89.53.46.35.78.81.98 1.39zm5.3 6.45a3.5 3.5 0 01-1.96-.54 3.5 3.5 0 01-1.26-1.48 5.02 5.02 0 01-.44-2.15c0-.83.15-1.55.45-2.18a3.43 3.43 0 013.2-2.02c.56 0 1.08.1 1.53.32a2.76 2.76 0 011.67 2.21h-1.25a1.9 1.9 0 00-1.94-1.41c-.48 0-.9.12-1.27.38-.36.25-.65.6-.85 1.06-.2.45-.3.98-.3 1.6 0 .62.1 1.16.3 1.63.2.46.48.82.84 1.08.36.25.8.38 1.28.38.33 0 .62-.05.88-.17a1.82 1.82 0 001.06-1.24h1.25a2.88 2.88 0 01-1.62 2.2c-.44.22-.97.33-1.57.33zm5-.17v-8.1h1.2v1.23h.1c.14-.4.4-.73.8-.98.38-.25.82-.37 1.3-.37a13.4 13.4 0 01.65.02v1.26a3.73 3.73 0 00-.76-.08c-.39 0-.74.08-1.05.25a1.82 1.82 0 00-1 1.65v5.12h-1.23zm5.53 0v-8.1H67v8.1h-1.24zm.63-9.44a.88.88 0 01-.63-.25.8.8 0 01-.26-.6.8.8 0 01.26-.6.88.88 0 01.63-.24c.24 0 .45.08.62.25.18.16.27.36.27.6 0 .22-.1.42-.27.59a.87.87 0 01-.62.25zm2.89 12.48V73.36h1.2v1.28h.15l.38-.54c.16-.22.4-.41.7-.59.31-.17.73-.26 1.26-.26a3.21 3.21 0 013.02 1.96c.3.63.44 1.36.44 2.21 0 .86-.15 1.6-.44 2.23-.3.63-.7 1.11-1.21 1.46-.52.34-1.12.5-1.79.5-.52 0-.94-.08-1.25-.25a2.31 2.31 0 01-.72-.6l-.4-.55h-.1v4.28h-1.24zm1.22-7.09c0 .61.1 1.15.27 1.62.18.46.44.83.79 1.1.34.25.76.38 1.26.38.52 0 .96-.14 1.3-.4.35-.29.62-.66.8-1.13.17-.47.26-1 .26-1.57 0-.57-.09-1.08-.26-1.54a2.38 2.38 0 00-.79-1.09c-.34-.27-.78-.4-1.3-.4a2.08 2.08 0 00-2.06 1.45c-.18.45-.27.98-.27 1.58zm11.34-4.04v1.05h-4.2v-1.05h4.2zm-2.97-1.94h1.25v7.71c0 .35.05.62.15.8.1.16.24.28.4.34a2.21 2.21 0 00.86.06l.2-.04.26 1.12a2.53 2.53 0 01-.93.15c-.35 0-.7-.08-1.03-.23a2.05 2.05 0 01-.83-.7c-.22-.3-.33-.69-.33-1.16v-8.05zm5.75 10.11a.91.91 0 01-.67-.27.91.91 0 01-.28-.67c0-.26.1-.49.28-.67.19-.19.41-.28.67-.28.26 0 .48.1.67.28.19.18.28.4.28.67a.98.98 0 01-.47.82.9.9 0 01-.48.13zm3.18-8.17h1.25v8.68c0 .5-.09.93-.26 1.3-.17.36-.43.65-.77.85-.34.2-.77.3-1.3.3h-.25v-1.16h.24c.38 0 .65-.12.83-.34.17-.22.26-.54.26-.95v-8.68zm.61-1.35a.88.88 0 01-.62-.25.8.8 0 01-.26-.6.8.8 0 01.26-.6.88.88 0 01.62-.24c.25 0 .45.08.63.25.17.16.26.36.26.6 0 .22-.09.42-.26.59a.87.87 0 01-.63.25zm8.65 3.16l-1.12.31a2.08 2.08 0 00-.31-.54 1.51 1.51 0 00-.55-.44 2 2 0 00-.89-.17c-.5 0-.9.1-1.24.34-.32.22-.49.5-.49.86 0 .3.12.55.34.73.22.18.58.33 1.05.45l1.2.3c.73.17 1.27.44 1.62.8.36.36.54.82.54 1.38 0 .47-.14.88-.4 1.25-.27.36-.64.65-1.11.86-.48.21-1.03.32-1.66.32-.82 0-1.5-.18-2.05-.54a2.38 2.38 0 01-1.02-1.57l1.18-.3c.1.44.32.77.63.99.32.21.73.32 1.24.32.58 0 1.04-.12 1.38-.37.35-.25.52-.54.52-.9 0-.27-.1-.5-.3-.7-.2-.2-.5-.34-.9-.43l-1.35-.32a3.22 3.22 0 01-1.63-.81 1.98 1.98 0 01-.52-1.4 2 2 0 01.38-1.21c.26-.35.62-.63 1.06-.83.45-.2.96-.3 1.53-.3.8 0 1.43.18 1.89.53.46.35.79.81.98 1.39z" fill="#AAB4BE"/><path fill-rule="evenodd" clip-rule="evenodd" d="M25.74 67.22h-7.07c-.97 0-1.77.8-1.77 1.76v14.14c0 .97.8 1.77 1.77 1.77h10.6c.97 0 1.77-.8 1.77-1.77v-10.6l-5.3-5.3zm3.97 6.18h-4.85v-4.86l4.85 4.86zM25.74 94.78h-7.07c-.97 0-1.77.8-1.77 1.77v14.13c0 .97.8 1.77 1.77 1.77h10.6c.97 0 1.77-.8 1.77-1.77v-10.6l-5.3-5.3zm3.97 6.18h-4.85V96.1l4.85 4.86zM25.74 122.34h-7.07c-.97 0-1.77.8-1.77 1.77v14.13c0 .97.8 1.77 1.77 1.77h10.6c.97 0 1.77-.8 1.77-1.77v-10.6l-5.3-5.3zm3.97 6.19h-4.85v-4.86l4.85 4.86z" fill="#D7DCE1"/></g></g><defs><clipPath id="clip0"><path fill="#fff" transform="translate(.65 .79)" d="M0 0h259.51v180.22H0z"/></clipPath><clipPath id="clip1"><path fill="#fff" transform="translate(13.37 65.45)" d="M0 0h134.63v103.89H0z"/></clipPath></defs></svg>