<svg width="24" height="25" fill="none" xmlns="http://www.w3.org/2000/svg"><path fill-rule="evenodd" clip-rule="evenodd" d="M12 2.123c-5.176 0-9.446 3.973-9.95 9.043h2.018C4.563 7.207 7.928 4.133 12 4.133c4.072 0 7.437 3.074 7.932 7.033h2.017c-.504-5.07-4.773-9.043-9.949-9.043zM2.05 13.175a10.01 10.01 0 002.218 5.344l1.42-1.427a8.035 8.035 0 01-1.62-3.917H2.051zm16.221 3.949a8.094 8.094 0 01-1.416 1.417l1.012 1.742a10.131 10.131 0 002.135-2.117l-1.73-1.042zM7.104 18.51L5.682 19.94a9.976 9.976 0 004.613 2.129l.143-2.021a7.95 7.95 0 01-3.334-1.537zm8.027 1.046a7.942 7.942 0 01-2.7.632l-.142 2.015a9.89 9.89 0 003.852-.908l-1.01-1.739z" fill="#007FFF"/></svg>