<svg width="19" height="19" fill="none" xmlns="http://www.w3.org/2000/svg"><path fill-rule="evenodd" clip-rule="evenodd" d="M11.182.247L9.768 1.661l.707.707-9.192 9.193a3.999 3.999 0 000 5.657 3.999 3.999 0 005.656 0l9.193-9.193.707.707 1.414-1.414-7.071-7.07zM3.404 13.682a1.003 1.003 0 010-1.414 1.003 1.003 0 011.414 0 1.003 1.003 0 010 1.414 1.003 1.003 0 01-1.414 0zm4.242-1.414a1.003 1.003 0 010-1.414 1.003 1.003 0 011.415 0 1.003 1.003 0 010 1.414 1.003 1.003 0 01-1.415 0zm4.243-2.829L9.061 6.611l2.828-2.828 2.829 2.828-2.829 2.828z" fill="#fff"/></svg>