<svg width="220" height="213" fill="none" xmlns="http://www.w3.org/2000/svg"><path d="M20.356 61.621v96.022a6.906 6.906 0 003.445 5.975l83.146 48.011a6.892 6.892 0 006.889 0l83.146-48.011a6.906 6.906 0 003.445-5.975V61.621a6.907 6.907 0 00-3.445-5.975L113.836 7.635a6.895 6.895 0 00-6.889 0L23.801 55.646a6.907 6.907 0 00-3.445 5.975z" fill="#D0D6DB"/><rect x="133.879" y="156.618" width="23.488" height="15.662" rx="3" fill="#B4BDC5"/><rect x="169.11" y="156.618" width="23.488" height="15.662" rx="3" fill="#B4BDC5"/><rect x="28.185" y="66.563" width="58.719" height="70.478" rx="2" fill="#B4BDC5"/><path d="M2.075 154.088h114.58c.864 0 1.566.702 1.566 1.567v12.709H.509v-12.709c0-.865.7-1.567 1.566-1.567zM2.075 176.195h114.58c.864 0 1.566.701 1.566 1.566v24.323H.509v-24.323c0-.865.7-1.566 1.566-1.566z" fill="#B4BDC5"/><rect x="98.648" y="43.07" width="117.438" height="31.323" rx="2" fill="#B4BDC5"/><rect x="161.767" y="15.662" width="15.658" height="15.662" rx="2" fill="#B4BDC5"/><rect x="134.365" y="11.747" width="19.573" height="19.577" rx="2" fill="#B4BDC5"/><rect x="99.133" y="3.916" width="27.402" height="27.408" rx="2" fill="#B4BDC5"/><ellipse cx="184.769" cy="109.632" rx="19.573" ry="19.577" fill="#B4BDC5"/><ellipse cx="198.47" cy="123.337" rx="5.872" ry="5.873" fill="#B4BDC5"/><path d="M5.676 146.829h115.481c.54 0 .978.438.978.979v16.641H4.698v-16.641c0-.541.438-.979.978-.979z" fill="#3CCD78"/><circle cx="24.27" cy="154.66" fill="#F2F2F2" r="3.915"/><circle cx="63.416" cy="154.66" fill="#8AE1AE" r="3.915"/><circle cx="102.562" cy="154.66" fill="#8AE1AE" r="3.915"/><path fill="#F2F2F2" d="M4.698 162.491h39.146v1.958H4.698z"/><path d="M5.676 172.279h115.481c.54 0 .978.439.978.979v24.472H4.698v-24.472a.98.98 0 01.978-.979z" fill="#3CCD78"/><circle cx="24.27" cy="180.11" fill="#F2F2F2" r="3.915"/><circle cx="63.416" cy="180.11" fill="#8AE1AE" r="3.915"/><circle cx="102.562" cy="180.11" fill="#8AE1AE" r="3.915"/><path fill="#F2F2F2" d="M4.698 195.772h39.146v1.958H4.698zM12.253 187.534h24.028v3.289H12.253z"/><path fill="#8AE1AE" d="M51.399 187.534h24.028v3.289H51.399zM90.544 187.534h24.028v3.289H90.544z"/><path d="M102.562 50.9H220v18.011c0 .865-.701 1.567-1.566 1.567H104.128a1.566 1.566 0 01-1.566-1.567v-18.01z" fill="#fff"/><path d="M104.128 39.154h114.306c.865 0 1.566.701 1.566 1.566V50.9H102.562V40.72c0-.864.701-1.566 1.566-1.566z" fill="#3CCD78"/><path fill="#E0E4E8" d="M126.05 54.816h46.975v11.746H126.05z"/><ellipse cx="214.128" cy="45.028" rx="1.957" ry="1.958" fill="#8AE1AE"/><ellipse cx="206.299" cy="45.028" rx="1.957" ry="1.958" fill="#8AE1AE"/><ellipse cx="198.47" cy="45.028" rx="1.957" ry="1.958" fill="#8AE1AE"/><path fill="#CCD2D8" d="M106.477 54.816h15.658v1.566h-15.658zM106.477 59.906h15.658v1.566h-15.658zM106.477 64.996h15.658v1.566h-15.658z"/><circle cx="200.427" cy="60.689" fill="#CCD2D8" r="3.915"/><circle cx="188.683" cy="60.689" fill="#CCD2D8" r="3.915"/><circle cx="212.171" cy="60.689" fill="#CCD2D8" r="3.915"/><path d="M187.493 160.4a4.124 4.124 0 01-5.48 0l-8.573-7.502a2.34 2.34 0 00-.415 1.37v11.747a2.35 2.35 0 002.349 2.349h18.79a2.349 2.349 0 002.348-2.349v-11.747a2.343 2.343 0 00-.446-1.37l-8.573 7.502z" fill="#fff"/><path d="M187.493 160.4l8.573-7.502a2.35 2.35 0 00-1.902-.979h-18.79a2.35 2.35 0 00-1.903.979l8.573 7.502a4.126 4.126 0 005.449 0z" fill="#E0E4E8"/><path d="M152.262 160.4a4.126 4.126 0 01-5.481 0l-8.573-7.502a2.355 2.355 0 00-.415 1.37v11.747a2.35 2.35 0 002.349 2.349h18.79a2.35 2.35 0 002.349-2.349v-11.747a2.35 2.35 0 00-.446-1.37l-8.573 7.502z" fill="#fff"/><path d="M152.262 160.4l8.573-7.502a2.35 2.35 0 00-1.903-.979h-18.79a2.35 2.35 0 00-1.902.979l8.573 7.502a4.126 4.126 0 005.449 0z" fill="#E0E4E8"/><ellipse cx="160.498" cy="153.485" rx="4.698" ry="4.699" fill="#FF505F"/><rect x="32.1" y="62.647" width="58.719" height="70.478" rx="2" fill="#66B1FF"/><path fill="#007DFF" d="M36.014 70.478h50.89v12.2h-50.89zM75.16 90.055h3.915v35.239H75.16z"/><ellipse cx="77.118" cy="107.674" rx="5.872" ry="5.873" fill="#fff"/><path fill="#007DFF" d="M59.502 90.055h3.915v35.239h-3.915z"/><ellipse cx="61.459" cy="99.844" rx="5.872" ry="5.873" fill="#fff"/><path fill="#007DFF" d="M43.843 90.055h3.915v35.239h-3.915z"/><ellipse cx="45.801" cy="115.505" rx="5.872" ry="5.873" fill="#fff"/><ellipse cx="188.683" cy="105.717" rx="19.573" ry="19.577" fill="#007DFF"/><path d="M194.508 114.331l-.235-2.553a5.48 5.48 0 001.934-4.057v-2.271a3.909 3.909 0 001.394-2.036c.516-1.621.07-3.21-.979-3.547a1.26 1.26 0 00-.415-.055v-.462a7.525 7.525 0 10-15.048 0v.462c-.14-.005-.28.014-.415.055-1.049.337-1.495 1.926-.978 3.547a3.913 3.913 0 001.393 2.036v2.271a5.488 5.488 0 001.934 4.057l-.235 2.553c-7.829 1.472-13.45 5.834-13.45 10.963h38.551c0-5.153-5.645-9.515-13.451-10.963z" fill="#66B1FF"/><ellipse cx="202.384" cy="119.421" rx="5.872" ry="5.873" fill="#F2F2F2"/><ellipse cx="202.384" cy="119.421" rx="3.523" ry="3.524" fill="#3CCD78"/><rect x="98.648" y="86.14" width="50.89" height="11.746" rx="2" fill="#B4BDC5"/><rect x="102.562" y="82.224" width="50.89" height="11.746" rx="2" fill="#007DFF"/><path fill="#66B1FF" d="M114.306 86.14h27.402v3.915h-27.402z"/><rect x="98.648" y="105.717" width="50.89" height="11.746" rx="2" fill="#B4BDC5"/><rect x="102.562" y="101.801" width="50.89" height="11.746" rx="2" fill="#66B1FF"/><path fill="#007DFF" d="M114.306 105.717h27.402v3.915h-27.402z"/><rect x="98.648" y="125.294" width="50.89" height="11.746" rx="2" fill="#B4BDC5"/><rect x="102.562" y="121.379" width="50.89" height="11.746" rx="2" fill="#3CCD78"/><path fill="#8AE1AE" d="M114.306 125.294h27.402v3.915h-27.402z"/><rect x="102.562" width="27.402" height="27.408" rx="2" fill="#007DFF"/><path d="M107.98 7.729h1.801v5.192h5.958V7.729h1.8v11.95h-1.8V14.47h-5.958v5.208h-1.801V7.729zM124.547 19.679h-1.809V9.538h-.07l-2.882 1.864V9.679l2.983-1.95h1.754l.024 11.95z" fill="#fff"/><rect x="137.794" y="7.604" width="19.8" height="19.804" rx="2" fill="#007DFF"/><path d="M140.502 13.25h1.3v3.751h4.306V13.25h1.308v8.614h-1.308v-3.759h-4.306v3.759h-1.3V13.25zM149.201 20.94l2.92-3.03c.932-.98 1.386-1.567 1.386-2.295a1.412 1.412 0 00-1.566-1.394 1.425 1.425 0 00-1.566 1.566h-1.245a2.591 2.591 0 012.795-2.616 2.528 2.528 0 012.756 2.444c0 .97-.446 1.73-2.028 3.328l-1.714 1.793v.07h3.914v1.113h-5.684l.032-.98z" fill="#fff"/><rect x="165.196" y="11.746" width="15.658" height="15.662" rx="2" fill="#007DFF"/><path d="M167.192 16.163h1.026v2.968h3.405v-2.968h1.034v6.829h-1.034v-2.976h-3.405v2.976h-1.026v-6.829zM174.035 21.214h1.049c.039.603.619.987 1.354.987.736 0 1.378-.455 1.378-1.12 0-.666-.54-1.167-1.487-1.167h-.579v-.838h.579a1.144 1.144 0 001.284-1.096 1.041 1.041 0 00-1.151-1.05 1.159 1.159 0 00-1.284 1.01h-.994a2.081 2.081 0 012.286-1.872 1.948 1.948 0 012.137 1.865 1.503 1.503 0 01-1.174 1.511v.047a1.566 1.566 0 011.425 1.652c0 1.128-1.018 1.966-2.412 1.966-1.393 0-2.364-.783-2.411-1.895z" fill="#fff"/></svg>