<svg width="221" height="204" fill="none" xmlns="http://www.w3.org/2000/svg"><path d="M23.158 54.624v94.752a6.818 6.818 0 003.396 5.896l81.979 47.376a6.795 6.795 0 006.793 0l81.979-47.376a6.818 6.818 0 003.397-5.896V54.624a6.817 6.817 0 00-3.397-5.896L115.326 1.352a6.795 6.795 0 00-6.793 0L26.555 48.728a6.817 6.817 0 00-3.397 5.896z" fill="#D0D6DB"/><rect x="142.807" y="136.773" width="73.333" height="65.682" rx="2" fill="#B4BDC5"/><rect x="30.877" y="136.773" width="46.316" height="65.682" rx="2" fill="#B4BDC5"/><rect y="32.455" width="81.053" height="30.909" rx="2" fill="#B4BDC5"/><rect x="154.386" y="9.273" width="30.877" height="15.454" rx="7.727" fill="#B4BDC5"/><rect x="154.386" y="28.591" width="30.877" height="15.454" rx="7.727" fill="#B4BDC5"/><rect x="54.035" y="47.909" width="111.93" height="112.045" rx="10" fill="#B4BDC5"/><rect x="189.123" y="20.864" width="30.877" height="15.454" rx="7.727" transform="rotate(180 189.123 20.864)" fill="#fff"/><ellipse cx="181.403" cy="13.136" rx="5.512" ry="5.517" fill="#914BD7"/><rect x="158.246" y="24.727" width="30.877" height="15.454" rx="7.727" fill="#fff"/><ellipse cx="165.965" cy="32.455" rx="5.512" ry="5.517" fill="#CCD2D8"/><path d="M34.737 179.273h46.316v17.773c0 .853-.692 1.545-1.544 1.545H36.28a1.545 1.545 0 01-1.544-1.545v-17.773z" fill="#fff"/><path d="M36.28 132.909H79.51c.852 0 1.544.692 1.544 1.546v44.818H34.737v-44.818c0-.854.691-1.546 1.544-1.546z" fill="#914BD7"/><path fill="#E0E4E8" d="M38.596 183.136h30.877v7.727H38.596z"/><path d="M54.035 152.227v-19.318h27.018v27.046H61.755c-4.264 0-7.72-3.46-7.72-7.728z" fill="#001E3C" opacity=".15"/><rect x="57.895" y="47.909" width="108.07" height="108.182" rx="10" fill="#1ED2FF"/><path fill-rule="evenodd" clip-rule="evenodd" d="M135.558 88.292c10.375 3.176 17.137 8.299 17.137 13.708 0 5.409-6.731 10.524-17.036 13.7 2.408 10.54 1.328 18.94-3.304 21.637a7.403 7.403 0 01-3.759.927c-4.57 0-10.553-3.222-16.597-8.848-6.052 5.657-12.034 8.918-16.604 8.918a7.267 7.267 0 01-3.736-.935c-4.694-2.69-5.751-11.112-3.358-21.691-10.375-3.176-17.137-8.299-17.137-13.708 0-5.41 6.731-10.486 17.067-13.7-2.408-10.54-1.366-18.94 3.304-21.637a7.496 7.496 0 013.76-.927c4.57 0 10.552 3.222 16.604 8.848 6.044-5.657 12.026-8.918 16.596-8.918a7.274 7.274 0 013.706.935c4.693 2.697 5.75 11.112 3.357 21.69zm-5.179-18.5a3.92 3.92 0 00-1.899-.432v.008c-3.428.007-8.53 2.774-13.972 7.781a80.794 80.794 0 016.947 8.315 81.4 81.4 0 0110.553 1.816c.362-1.677.663-3.346.841-4.892.764-6.352-.216-11.297-2.47-12.595zM97.209 110.5c.772 1.337 1.544 2.627 2.393 3.864-2.362-.348-4.632-.773-6.816-1.314a75.235 75.235 0 012.246-6.568 55.73 55.73 0 002.177 4.018zm2.37-20.925c-2.37.347-4.67.795-6.847 1.313v.023c.671 2.164 1.397 4.39 2.3 6.6.68-1.33 1.39-2.651 2.154-3.996a98.903 98.903 0 012.393-3.94zm-2.61 12.464a88.918 88.918 0 013.443-6.638 83.851 83.851 0 014.007-6.36 86.365 86.365 0 017.511-.332c2.524 0 5.017.116 7.48.317a94.206 94.206 0 014.021 6.32 83.656 83.656 0 013.459 6.623 96.858 96.858 0 01-3.443 6.638 84.177 84.177 0 01-4.006 6.352 86.541 86.541 0 01-7.511.332c-2.525 0-5.018-.116-7.48-.317a92.702 92.702 0 01-4.022-6.321 85.586 85.586 0 01-3.458-6.591v-.023zm31.843 4.45a84.971 84.971 0 01-2.162 4.011c-.432.747-.886 1.492-1.339 2.234-.348.57-.695 1.139-1.03 1.707a73.822 73.822 0 006.847-1.329 68.317 68.317 0 00-2.316-6.623zm-2.162-12.99c-.772-1.328-1.543-2.626-2.393-3.863 2.363.348 4.632.773 6.817 1.314a75.192 75.192 0 01-2.247 6.568 67.29 67.29 0 00-2.192-4.018h.015zM111.93 85c1.544 0 3.087.055 4.585.132l-.015-.007a69.215 69.215 0 00-4.632-5.332 62.806 62.806 0 00-4.57 5.324C108.842 85 110.386 85 111.93 85zM93.403 69.886a3.694 3.694 0 011.915-.432c3.443 0 8.545 2.743 13.956 7.727a79.434 79.434 0 00-6.862 8.299c-3.555.372-7.08.987-10.553 1.84a51.853 51.853 0 01-.864-4.823c-.818-6.36.147-11.297 2.408-12.61zm-4.205 42.231l.022.007h-.024l.002-.007zm3.742-10.085a78.286 78.286 0 00-3.742 10.085c-1.636-.516-3.196-1.078-4.61-1.693-5.928-2.512-9.711-5.804-9.711-8.423 0-2.62 3.806-5.92 9.688-8.415 1.428-.618 2.995-1.167 4.631-1.685a80.621 80.621 0 003.744 10.131zm2.455 32.617a4.033 4.033 0 01-1.884-.449c-2.254-1.298-3.234-6.235-2.47-12.595.178-1.545.479-3.207.842-4.891a80.22 80.22 0 0010.552 1.816 80.787 80.787 0 006.947 8.314c-5.48 5.046-10.575 7.805-14.018 7.805h.03zm16.566-10.464l.03.032h-.061l.031-.032zm0 0a69.08 69.08 0 01-4.601-5.292c1.482.108 3.026.108 4.57.108 1.544 0 3.087 0 4.631-.116a64.206 64.206 0 01-4.6 5.3zm18.557 9.946a3.699 3.699 0 01-1.915.433c-3.442 0-8.545-2.744-13.956-7.728a79.329 79.329 0 006.862-8.299 78.565 78.565 0 0010.529-1.854c.371 1.596.659 3.211.865 4.837.78 6.36-.185 11.297-2.447 12.611h.062zm4.191-22.023c1.637-.518 3.204-1.066 4.632-1.684h-.039c5.882-2.496 9.68-5.819 9.68-8.423s-3.782-5.896-9.703-8.384a49.475 49.475 0 00-4.631-1.7 79.567 79.567 0 01-3.69 10.084 79.391 79.391 0 013.751 10.107z" fill="#fff"/><ellipse cx="111.914" cy="102.008" rx="7.596" ry="7.604" fill="#fff"/><path d="M79.509 63.364H57.895V47.909h23.157v13.91c0 .853-.69 1.545-1.543 1.545z" fill="#001E3C" opacity=".15"/><path d="M5.018 28.59h49.017V59.5H5.018c-.64 0-1.158-.519-1.158-1.16V29.75c0-.64.518-1.16 1.158-1.16z" fill="#fff"/><path d="M54.035 28.59h29.72c.639 0 1.157.52 1.157 1.16v28.59c0 .641-.518 1.16-1.158 1.16H54.035V28.59z" fill="#007DFF"/><path fill="#CCD2D8" d="M7.719 32.455h23.158v7.727H7.719z"/><path fill="#E0E4E8" d="M7.719 44.045h42.456v11.591H7.719z"/><path d="M144.351 136.773h21.614v19.318h-23.158v-17.773c0-.853.691-1.545 1.544-1.545z" fill="#001E3C" opacity=".15"/><rect x="146.667" y="132.909" width="73.333" height="65.682" rx="2" fill="#fff"/><path fill="#E0E4E8" d="M150.526 136.773H198v11.591h-47.474z"/><path fill="#007DFF" d="M212.281 167.682h-30.877v-7.727h30.877zM212.281 179.273h-42.456v-7.727h42.456zM212.281 190.864h-23.158v-7.727h23.158z"/><path fill="#66B1FF" d="M185.263 167.682h-30.877v-7.727h30.877zM173.684 179.273h-19.298v-7.727h19.298zM192.982 190.864h-38.596v-7.727h38.596z"/><ellipse cx="212.281" cy="140.637" rx="3.86" ry="3.864" fill="#CCD2D8"/><path fill="#CCD2D8" d="M146.667 151.455H220V153h-73.333z"/><path d="M135.86 40.182h-1.544c0-8.962 7.257-16.227 16.21-16.227V25.5a14.66 14.66 0 00-10.371 4.3 14.691 14.691 0 00-4.295 10.382zM209.193 125.182h-1.544c-.021-18.769-15.215-33.979-33.965-34v-1.546c19.6.026 35.483 15.925 35.509 35.546zM88.772 180.046V178.5c3.89 0 7.62-1.547 10.37-4.3a14.692 14.692 0 004.297-10.382h1.543c0 8.962-7.257 16.228-16.21 16.228zM50.175 87.318c-11.084 0-20.07-8.995-20.07-20.09h1.544c0 10.242 8.295 18.545 18.526 18.545v1.545z" fill="#66788A"/></svg>