<svg width="32" height="32" fill="none" xmlns="http://www.w3.org/2000/svg"><path fill-rule="evenodd" clip-rule="evenodd" d="M16 2.667c-6.901 0-12.595 5.272-13.266 12h2.69C6.084 9.413 10.571 5.333 16 5.333c5.43 0 9.916 4.08 10.576 9.334h2.69c-.672-6.728-6.365-12-13.266-12zM2.734 17.333a13.25 13.25 0 002.956 7.091l1.893-1.893a10.636 10.636 0 01-2.159-5.198h-2.69zm21.628 5.24c-.552.7-1.181 1.337-1.888 1.88l1.349 2.313a13.476 13.476 0 002.846-2.81l-2.307-1.383zm-14.89 1.841L7.575 26.31a13.33 13.33 0 006.15 2.825l.19-2.682a10.624 10.624 0 01-4.445-2.039zm10.702 1.388c-1.114.476-2.328.77-3.598.839l-.19 2.674a13.24 13.24 0 005.135-1.206l-1.347-2.307z" fill="#fff"/></svg>