<svg width="32" height="32" fill="none" xmlns="http://www.w3.org/2000/svg"><path fill-rule="evenodd" clip-rule="evenodd" d="M21.333 4C20.597 4 20 4.597 20 5.333v1.904l-8.003 6.078A1.332 1.332 0 0010.667 12H5.333C4.597 12 4 12.597 4 13.333v5.334C4 19.403 4.597 20 5.333 20h5.334c.736 0 1.333-.597 1.333-1.333l8 6v2c0 .736.597 1.333 1.333 1.333h5.334c.736 0 1.333-.597 1.333-1.333v-5.334c0-.736-.597-1.333-1.333-1.333h-5.334c-.736 0-1.333.597-1.333 1.333l-7.12-5.338 7.12-5.41v.082c0 .736.597 1.333 1.333 1.333h5.334c.736 0 1.333-.597 1.333-1.333V5.333C28 4.597 27.403 4 26.667 4h-5.334z" fill="#fff"/></svg>