<svg width="28" height="22" fill="none" xmlns="http://www.w3.org/2000/svg"><path fill-rule="evenodd" clip-rule="evenodd" d="M27.333.332c-1.04.617-3.126 1.459-4.353 1.701-.036.01-.065.022-.1.031A5.979 5.979 0 0018.667.332a6 6 0 00-6 6c0 .175-.015.496 0 .667-4.47 0-7.874-2.342-10.314-5.334-.265.667-.38 1.72-.38 2.71 0 1.868 1.46 3.702 3.732 4.84-.418.108-.88.185-1.36.185-.774 0-1.594-.204-2.345-.823v.068c0 2.611 2.77 4.388 5.235 4.883-.5.295-1.508.324-2 .324-.347 0-1.574-.159-1.902-.22.686 2.14 3.158 3.343 5.514 3.385C7.004 18.463 5.725 19 1.952 19H.667c2.384 1.528 5.42 2.668 8.462 2.668 9.907 0 15.538-7.551 15.538-14.668 0-.115-.003-.355-.007-.596 0-.024.007-.047.007-.071 0-.036-.01-.07-.01-.107-.005-.181-.009-.35-.013-.438a10.957 10.957 0 002.69-2.788 10.76 10.76 0 01-3.094.848c1.112-.667 2.692-2.256 3.093-3.515z" fill="#00C8FF"/></svg>