<svg width="220" height="211" fill="none" xmlns="http://www.w3.org/2000/svg"><path d="M16 56.498v98.003a7.049 7.049 0 003.52 6.099l84.96 49.001a7.053 7.053 0 007.04 0l84.96-49.001a7.05 7.05 0 003.52-6.099V56.498a7.049 7.049 0 00-3.52-6.098L111.52 1.4a7.054 7.054 0 00-7.04 0L19.52 50.4A7.048 7.048 0 0016 56.498z" fill="#D0D6DB"/><rect x="48" y="53.549" width="112" height="111.894" rx="10" fill="#B4BDC5"/><rect x="108" y="17.584" width="108" height="71.932" rx="2" fill="#B4BDC5"/><rect x="24" y="33.568" width="60" height="31.97" rx="2" fill="#B4BDC5"/><rect y="133.474" width="100" height="59.943" rx="2" fill="#B4BDC5"/><rect x="144" y="177.432" width="60" height="15.985" rx="7.992" fill="#B4BDC5"/><rect x="148" y="173.436" width="60" height="15.985" rx="7.992" fill="#007DFF"/><ellipse cx="156" cy="181.428" rx="4" ry="3.996" fill="#CCE5FF"/><path fill="#66B1FF" d="M164.8 177.432H200v7.992h-35.2z"/><path d="M4 187.822v-46.356h100v46.356c0 .883-.716 1.598-1.6 1.598H5.6c-.884 0-1.6-.715-1.6-1.598z" fill="#001E3C"/><path fill="#FFC846" d="M12 149.458h52v7.992H12z"/><path fill="#334B63" d="M12 173.436h28v7.992H12z"/><path fill="#FF505F" d="M44 173.436h32v7.992H44z"/><path fill="#3CCD78" d="M12 161.447h84v7.992H12z"/><path d="M5.6 129.477h96.8a1.6 1.6 0 011.6 1.599v10.39H4v-10.39a1.6 1.6 0 011.6-1.599z" fill="#007DFF"/><ellipse cx="98" cy="135.471" rx="2" ry="1.998" fill="#66B1FF"/><ellipse cx="90" cy="135.471" rx="2" ry="1.998" fill="#66B1FF"/><ellipse cx="82" cy="135.471" rx="2" ry="1.998" fill="#66B1FF"/><path d="M112 83.92V25.575h108V83.92c0 .883-.716 1.599-1.6 1.599H113.6c-.884 0-1.6-.716-1.6-1.599z" fill="#001E3C"/><path fill="#3CCD78" d="M120 33.568h56v7.992h-56zM120 57.545h56v7.992h-56z"/><path fill="#FFC846" d="M180 57.545h32v7.992h-32z"/><path fill="#FF505F" d="M120 69.534h84v7.992h-84z"/><path fill="#334B63" d="M120 45.557h92v7.992h-92z"/><path d="M113.6 13.587h104.8c.884 0 1.6.716 1.6 1.598v10.39H112v-10.39c0-.882.716-1.598 1.6-1.598z" fill="#007DFF"/><ellipse cx="214" cy="19.581" rx="2" ry="1.998" fill="#66B1FF"/><ellipse cx="206" cy="19.581" rx="2" ry="1.998" fill="#66B1FF"/><ellipse cx="198" cy="19.581" rx="2" ry="1.998" fill="#66B1FF"/><path d="M48 157.45v-27.973h56v35.966H56c-4.418 0-8-3.578-8-7.993z" fill="#001E3C" opacity=".15"/><rect x="52" y="49.553" width="112" height="111.894" rx="10" fill="#007DFF"/><path fill-rule="evenodd" clip-rule="evenodd" d="M120.856 137.414v10.55a22.313 22.313 0 006.088 1.974c2.446.45 4.929.672 7.416.663a34.895 34.895 0 007.2-.727 17.68 17.68 0 005.992-2.398 12.165 12.165 0 004.08-4.356 15.264 15.264 0 00.64-11.669 11.614 11.614 0 00-2.472-3.836 17.985 17.985 0 00-3.88-3.021 42.33 42.33 0 00-5.104-2.518 65.093 65.093 0 01-3.728-1.67 19.302 19.302 0 01-2.808-1.647 7.243 7.243 0 01-1.784-1.782 3.746 3.746 0 01-.624-2.126 3.52 3.52 0 01.56-1.958 4.864 4.864 0 011.6-1.503 8.661 8.661 0 012.512-.975 14.975 14.975 0 013.304-.343c.931.002 1.862.069 2.784.199 2.018.267 3.987.822 5.848 1.647.908.401 1.776.888 2.592 1.455v-9.855a25.856 25.856 0 00-5.272-1.367 43.004 43.004 0 00-6.552-.447 30.644 30.644 0 00-7.128.799 18.218 18.218 0 00-5.928 2.525 12.6 12.6 0 00-4 4.372 12.783 12.783 0 00-1.488 6.346 12.336 12.336 0 002.72 8.041c1.819 2.222 4.576 4.1 8.272 5.634 1.456.602 2.811 1.186 4.064 1.751a22.803 22.803 0 013.248 1.782 8.789 8.789 0 012.168 2.006 4.11 4.11 0 01.8 2.478 3.798 3.798 0 01-.496 1.894 4.467 4.467 0 01-1.504 1.518 8.381 8.381 0 01-2.512 1 14.714 14.714 0 01-3.512.367 19.939 19.939 0 01-6.8-1.207 20.272 20.272 0 01-6.24-3.604l-.056.008zm-17.752-26h13.544v-8.655h-37.76v8.655h13.48v38.548h10.736v-38.548z" fill="#fff"/><path d="M52 65.538V49.553h40v14.386a1.6 1.6 0 01-1.6 1.599H52z" fill="#001E3C" opacity=".15"/><rect x="28" y="29.572" width="68" height="31.97" rx="2" fill="#fff"/><rect x="72" y="49.553" width="20" height="7.992" rx="1" fill="#007DFF"/><rect x="48" y="49.553" width="20" height="7.992" rx="1" fill="#66B1FF"/><path fill="#E0E4E8" d="M32 33.568h60v11.989H32z"/></svg>