<svg width="19" height="18" fill="none" xmlns="http://www.w3.org/2000/svg"><path fill-rule="evenodd" clip-rule="evenodd" d="M2 0L0 2l1.406 2.11A2 2 0 003.07 5h.516l2.707 2.707 1.414-1.414L5 3.586V3.07a2 2 0 00-.89-1.664L2 0zm13 0a4 4 0 00-4 4c0 .586.133 1.139.36 1.64L1.292 15.708a.999.999 0 000 1.414l.586.586a.999.999 0 001.414 0l5.836-5.836 5.726 5.727a1.37 1.37 0 001.94 0l.803-.803a1.37 1.37 0 000-1.94L11.87 9.13 13.36 7.64A3.97 3.97 0 0015 8a4 4 0 004-4c0-.586-.132-1.14-.36-1.64L16 5l-2-2L16.64.36A3.963 3.963 0 0015 0z" fill="#fff"/></svg>