<svg width="137" height="30" fill="none" xmlns="http://www.w3.org/2000/svg"><path d="M28 16.1a8.46 8.46 0 1 1 16.92 0 8.46 8.46 0 0 1-16.92 0Zm13.3 0a4.83 4.83 0 1 0-9.67 0 4.83 4.83 0 0 0 9.67 0ZM50.6 4.83a2.84 2.84 0 1 0-5.67.01 2.84 2.84 0 0 0 5.67 0Z" fill="#FF603D"/><path d="M73.96 18.02a3.98 3.98 0 0 0-2.39-2.36c-1-.36-2.28-.39-3.58-.13-.57.11-1.1.27-1.57.45a.31.31 0 0 0-.2.22l-.02.12a.3.3 0 0 0 0 .14c.03.16.06.4.07.69a27.6 27.6 0 0 1 .04 1.66v8.76c0 .17.15.3.32.3h1.44c.17 0 .32-.13.32-.3v-3.13l.43.07a5.85 5.85 0 0 0 2.65-.27c.59-.2 1.1-.52 1.52-.92.41-.4.73-.9.96-1.47.22-.57.33-1.22.33-1.92 0-.71-.1-1.35-.32-1.9Zm-2.45 4c-.43.47-1.11.7-2.01.7a5.08 5.08 0 0 1-1.11-.11v-4.53c0-.23-.01-.47-.03-.7v-.02l.26-.07c.3-.07.62-.1.94-.1.86 0 1.5.21 1.94.66.45.45.68 1.15.68 2.08 0 .92-.23 1.63-.67 2.1ZM81.87 22.74v1.17a.3.3 0 0 1-.18.28 3.77 3.77 0 0 1-1.5.3c-.79 0-1.43-.12-1.91-.37a2.4 2.4 0 0 1-1.09-1.1 3.55 3.55 0 0 1-.33-1.55v-4.1h-.99a.31.31 0 0 1-.31-.31v-1.21c0-.17.14-.31.31-.31h1V13.6c0-.17.14-.3.31-.3h1.44c.18 0 .32.13.32.3v1.93h2.11c.18 0 .32.14.32.3v1.22c0 .17-.14.3-.32.3h-2.11v3.99c0 .48.1.83.3 1.02.2.2.53.3 1 .3a2.7 2.7 0 0 0 1.05-.22.33.33 0 0 1 .14-.02h.12c.18 0 .32.13.32.3ZM91.04 23.66l-.03.12c-.02.1-.1.17-.2.21-.28.1-.64.2-1.07.29a17.32 17.32 0 0 1-2.31.28c-.56 0-1.1-.06-1.6-.17a3.43 3.43 0 0 1-1.35-.62c-.4-.3-.7-.7-.92-1.22a4.81 4.81 0 0 1-.32-1.87v-2.23a59.65 59.65 0 0 0-.04-1.73c-.01-.29-.04-.52-.08-.68a.3.3 0 0 1 0-.15l.04-.12a.32.32 0 0 1 .3-.23H85c.17 0 .32.14.32.3v4.72c0 .6.08 1.07.26 1.38.17.3.4.5.72.6.35.13.79.19 1.3.19a6.08 6.08 0 0 0 1.27-.13l-.01-.65v-3.5a59.65 59.65 0 0 0-.04-1.73c-.02-.29-.04-.52-.08-.68a.3.3 0 0 1 0-.15l.03-.12a.32.32 0 0 1 .31-.23h1.53c.18 0 .32.14.32.3v5.26a45.76 45.76 0 0 0 .04 1.73c.01.29.04.52.08.68v.15ZM100.4 16.26l-.04-.12a.31.31 0 0 0-.2-.22c-.41-.15-.9-.29-1.43-.4a6.78 6.78 0 0 0-3.57.15c-.6.21-1.12.52-1.55.91-.43.4-.76.89-.97 1.45a5.1 5.1 0 0 0-.33 1.87c0 .96.2 1.77.6 2.43.41.66.99 1.16 1.72 1.5a6 6 0 0 0 3.56.38c-.03.39-.1.72-.23.98-.15.33-.39.57-.73.73-.36.17-.86.25-1.48.25-.31 0-.67-.03-1.06-.1a4.3 4.3 0 0 1-1.05-.3.32.32 0 0 0-.13-.02h-.13a.31.31 0 0 0-.32.3v1.25c0 .12.08.23.2.28.33.14.74.25 1.21.32.46.07.9.1 1.28.1.94 0 1.76-.17 2.43-.5a3.55 3.55 0 0 0 1.57-1.45c.35-.62.53-1.37.53-2.23v-5.01a51.2 51.2 0 0 1 .04-1.72c.01-.3.04-.53.08-.7a.3.3 0 0 0 0-.13Zm-2.17 1.06c-.02.22-.02.46-.02.7v4.36l-.25.05c-.24.04-.5.06-.78.06-.93 0-1.64-.22-2.09-.64-.45-.42-.67-1.08-.67-1.95 0-.62.1-1.13.3-1.54.2-.39.5-.67.9-.87.4-.2.93-.3 1.56-.3a4.17 4.17 0 0 1 1.05.12v.01ZM109.59 17.5a3.8 3.8 0 0 0-1.5-1.6 4.35 4.35 0 0 0-2.2-.54c-.82 0-1.56.18-2.2.55a3.8 3.8 0 0 0-1.49 1.58c-.34.68-.52 1.5-.52 2.44s.17 1.75.51 2.43c.35.68.85 1.22 1.48 1.59.63.36 1.38.55 2.23.55.82 0 1.56-.19 2.2-.55a3.8 3.8 0 0 0 1.49-1.59c.35-.67.52-1.5.52-2.43 0-.94-.17-1.76-.52-2.44ZM104.35 22c-.38-.45-.57-1.15-.57-2.08 0-.94.2-1.65.56-2.1.36-.43.87-.65 1.56-.65.68 0 1.19.22 1.55.65.37.45.56 1.16.56 2.1 0 .93-.19 1.63-.56 2.08-.36.44-.87.66-1.55.66-.69 0-1.2-.22-1.55-.66ZM63.72 11.13c-.02-.15-.19-.31-.33-.34-.5-.12-.86-.2-1.33-.24a14.4 14.4 0 0 0-1.38-.07c-.96 0-1.79.1-2.46.31a4.21 4.21 0 0 0-2.78 2.52 9.04 9.04 0 0 0-.57 2.03l-1.48 8.8c-.02.1.01.22.08.3.08.09.18.14.3.14h1.8c.2 0 .35-.14.38-.32l.63-3.72h4.61v3.66c0 .2.17.38.38.38h1.78c.2 0 .37-.17.37-.38V11.13Zm-2.53 2.22v4.9h-4.23l.47-2.78c.12-.64.29-1.17.5-1.57.2-.38.5-.65.9-.83.42-.2 1.02-.3 1.78-.3l.59.02v.56Z" fill="#fff"/></svg>