<?xml version="1.0" encoding="UTF-8"?>
<svg version="1.1" xmlns="http://www.w3.org/2000/svg" width="128" height="128">
<path d="M0 0 C0.81992432 0.44690186 1.63984863 0.89380371 2.48461914 1.35424805 C3.3226709 1.78745361 4.16072266 2.22065918 5.02416992 2.66699219 C5.90057129 3.15288818 6.77697266 3.63878418 7.67993164 4.1394043 C8.64286133 4.66985352 9.60579102 5.20030273 10.59790039 5.74682617 C11.59176758 6.29790039 12.58563477 6.84897461 13.60961914 7.41674805 C15.59013812 8.51406262 17.57185626 9.60921645 19.55493164 10.7019043 C20.42907715 11.18667236 21.30322266 11.67144043 22.20385742 12.17089844 C24.54617614 13.46155178 24.54617614 13.46155178 27.48461914 14.35424805 C28.4091111 15.06510811 28.4091111 15.06510811 29.35227966 15.79032898 C31.70035874 17.51247767 33.87558642 18.3690706 36.60205078 19.37695312 C51.61914582 25.76121801 51.61914582 25.76121801 54.78753662 33.56219482 C56.65595384 42.28408892 56.36221647 51.0113889 55.98614502 59.8684082 C55.90064936 62.77053367 55.96103937 65.66257375 56.01848698 68.56480503 C56.35205752 89.36509197 56.35205752 89.36509197 51.89645386 95.56369019 C47.9987178 99.05916813 43.57826618 100.89672996 38.66708374 102.56686401 C35.44371359 103.72978331 32.71920672 105.38932882 29.77758789 107.1472168 C27.7435212 108.2806847 25.70838959 109.41224398 23.67211914 110.54174805 C21.62332757 111.67996559 19.57514869 112.81928669 17.52758789 113.9597168 C16.53678223 114.5067627 15.54597656 115.05380859 14.52514648 115.61743164 C12.39815084 116.83241856 10.30112138 118.10070194 8.22924805 119.4074707 C6.64829346 120.39626221 6.64829346 120.39626221 5.03540039 121.4050293 C3.61674683 122.32215698 3.61674683 122.32215698 2.16943359 123.2578125 C-0.51538086 124.35424805 -0.51538086 124.35424805 -3.03759766 123.71264648 C-3.85526611 123.264375 -4.67293457 122.81610352 -5.51538086 122.35424805 C-6.35343262 121.92104248 -7.19148438 121.48783691 -8.05493164 121.04150391 C-8.93133301 120.55560791 -9.80773438 120.06971191 -10.71069336 119.5690918 C-11.67362305 119.03864258 -12.63655273 118.50819336 -13.62866211 117.96166992 C-15.11946289 117.13505859 -15.11946289 117.13505859 -16.64038086 116.29174805 C-18.62089984 115.19443348 -20.60261798 114.09927964 -22.58569336 113.0065918 C-23.45983887 112.52182373 -24.33398438 112.03705566 -25.23461914 111.53759766 C-27.57693786 110.24694431 -27.57693786 110.24694431 -30.51538086 109.35424805 C-31.62333008 108.44739258 -31.62333008 108.44739258 -32.75366211 107.5222168 C-35.869272 105.076441 -39.15236632 103.36965941 -42.70288086 101.66674805 C-43.33129883 101.35930664 -43.9597168 101.05186523 -44.60717773 100.73510742 C-46.24086938 99.93660787 -47.87790892 99.14496644 -49.51538086 98.35424805 C-52.27447585 96.97470055 -54.2806174 95.49759109 -56.51538086 93.35424805 C-57.1839447 90.5218811 -57.1839447 90.5218811 -57.24169922 87.2121582 C-57.27359848 85.9705191 -57.30549774 84.72888 -57.33836365 83.44961548 C-57.34600801 82.09752376 -57.35157729 80.74541895 -57.35522461 79.39331055 C-57.37130097 78.00091703 -57.38812236 76.60853194 -57.40565491 75.21615601 C-57.43556748 72.29909705 -57.44485951 69.38277763 -57.44189453 66.46557617 C-57.44138655 62.73586202 -57.5096099 59.01091236 -57.59575558 55.28232765 C-57.65149974 52.40640739 -57.66148688 49.53162892 -57.6588459 46.65522385 C-57.66472679 45.28121896 -57.68673903 43.90718091 -57.72550774 42.53371048 C-57.83406453 38.29045086 -57.79558977 34.41833786 -56.51538086 30.35424805 C-54.02391244 28.03745798 -51.76659488 26.73283967 -48.66236877 25.36190796 C-47.95386276 25.02938019 -47.24535675 24.69685242 -46.51538086 24.35424805 C-46.51538086 23.69424805 -46.51538086 23.03424805 -46.51538086 22.35424805 C-45.81356689 22.2538623 -45.11175293 22.15347656 -44.38867188 22.05004883 C-41.04703782 21.24083334 -38.5391735 19.90707007 -35.54272461 18.22143555 C-34.39481445 17.57948242 -33.2469043 16.9375293 -32.06420898 16.27612305 C-30.86038876 15.59390934 -29.65661287 14.91161739 -28.45288086 14.22924805 C-27.2767859 13.56979191 -26.10035602 12.9109327 -24.92358398 12.25268555 C-23.754881 11.59658371 -22.58626092 10.94033419 -21.41772461 10.28393555 C-20.26900879 9.63908203 -19.12029297 8.99422852 -17.93676758 8.32983398 C-15.64667999 7.00748571 -13.38205829 5.64007259 -11.14477539 4.23022461 C-10.09273926 3.57248047 -9.04070313 2.91473633 -7.95678711 2.23706055 C-7.02680908 1.63522949 -6.09683105 1.03339844 -5.13867188 0.41333008 C-2.51538086 -0.64575195 -2.51538086 -0.64575195 0 0 Z " fill="#EB5B1D" transform="translate(65.515380859375,0.645751953125)"/>
<path d="M0 0 C0.81992432 0.44690186 1.63984863 0.89380371 2.48461914 1.35424805 C3.3226709 1.78745361 4.16072266 2.22065918 5.02416992 2.66699219 C5.90057129 3.15288818 6.77697266 3.63878418 7.67993164 4.1394043 C8.64286133 4.66985352 9.60579102 5.20030273 10.59790039 5.74682617 C11.59176758 6.29790039 12.58563477 6.84897461 13.60961914 7.41674805 C15.59013812 8.51406262 17.57185626 9.60921645 19.55493164 10.7019043 C20.42907715 11.18667236 21.30322266 11.67144043 22.20385742 12.17089844 C24.54617614 13.46155178 24.54617614 13.46155178 27.48461914 14.35424805 C28.4091111 15.06510811 28.4091111 15.06510811 29.35227966 15.79032898 C31.70035874 17.51247767 33.87558642 18.3690706 36.60205078 19.37695312 C51.61914582 25.76121801 51.61914582 25.76121801 54.78753662 33.56219482 C56.65595384 42.28408892 56.36221647 51.0113889 55.98614502 59.8684082 C55.90064936 62.77053367 55.96103937 65.66257375 56.01848698 68.56480503 C56.35205752 89.36509197 56.35205752 89.36509197 51.89645386 95.56369019 C47.9987178 99.05916813 43.57826618 100.89672996 38.66708374 102.56686401 C35.44371359 103.72978331 32.71920672 105.38932882 29.77758789 107.1472168 C27.7435212 108.2806847 25.70838959 109.41224398 23.67211914 110.54174805 C21.62332757 111.67996559 19.57514869 112.81928669 17.52758789 113.9597168 C16.53678223 114.5067627 15.54597656 115.05380859 14.52514648 115.61743164 C12.39815084 116.83241856 10.30112138 118.10070194 8.22924805 119.4074707 C6.64829346 120.39626221 6.64829346 120.39626221 5.03540039 121.4050293 C3.61674683 122.32215698 3.61674683 122.32215698 2.16943359 123.2578125 C-0.51538086 124.35424805 -0.51538086 124.35424805 -3.03759766 123.71264648 C-3.85526611 123.264375 -4.67293457 122.81610352 -5.51538086 122.35424805 C-6.35343262 121.92104248 -7.19148438 121.48783691 -8.05493164 121.04150391 C-8.93133301 120.55560791 -9.80773438 120.06971191 -10.71069336 119.5690918 C-11.67362305 119.03864258 -12.63655273 118.50819336 -13.62866211 117.96166992 C-15.11946289 117.13505859 -15.11946289 117.13505859 -16.64038086 116.29174805 C-18.62089984 115.19443348 -20.60261798 114.09927964 -22.58569336 113.0065918 C-23.45983887 112.52182373 -24.33398438 112.03705566 -25.23461914 111.53759766 C-27.57693786 110.24694431 -27.57693786 110.24694431 -30.51538086 109.35424805 C-31.62333008 108.44739258 -31.62333008 108.44739258 -32.75366211 107.5222168 C-35.869272 105.076441 -39.15236632 103.36965941 -42.70288086 101.66674805 C-43.33129883 101.35930664 -43.9597168 101.05186523 -44.60717773 100.73510742 C-46.24086938 99.93660787 -47.87790892 99.14496644 -49.51538086 98.35424805 C-52.27447585 96.97470055 -54.2806174 95.49759109 -56.51538086 93.35424805 C-57.1839447 90.5218811 -57.1839447 90.5218811 -57.24169922 87.2121582 C-57.27359848 85.9705191 -57.30549774 84.72888 -57.33836365 83.44961548 C-57.34600801 82.09752376 -57.35157729 80.74541895 -57.35522461 79.39331055 C-57.37130097 78.00091703 -57.38812236 76.60853194 -57.40565491 75.21615601 C-57.43556748 72.29909705 -57.44485951 69.38277763 -57.44189453 66.46557617 C-57.44138655 62.73586202 -57.5096099 59.01091236 -57.59575558 55.28232765 C-57.65149974 52.40640739 -57.66148688 49.53162892 -57.6588459 46.65522385 C-57.66472679 45.28121896 -57.68673903 43.90718091 -57.72550774 42.53371048 C-57.83406453 38.29045086 -57.79558977 34.41833786 -56.51538086 30.35424805 C-54.02391244 28.03745798 -51.76659488 26.73283967 -48.66236877 25.36190796 C-47.95386276 25.02938019 -47.24535675 24.69685242 -46.51538086 24.35424805 C-46.51538086 23.69424805 -46.51538086 23.03424805 -46.51538086 22.35424805 C-45.81356689 22.2538623 -45.11175293 22.15347656 -44.38867188 22.05004883 C-41.04703782 21.24083334 -38.5391735 19.90707007 -35.54272461 18.22143555 C-34.39481445 17.57948242 -33.2469043 16.9375293 -32.06420898 16.27612305 C-30.86038876 15.59390934 -29.65661287 14.91161739 -28.45288086 14.22924805 C-27.2767859 13.56979191 -26.10035602 12.9109327 -24.92358398 12.25268555 C-23.754881 11.59658371 -22.58626092 10.94033419 -21.41772461 10.28393555 C-20.26900879 9.63908203 -19.12029297 8.99422852 -17.93676758 8.32983398 C-15.64667999 7.00748571 -13.38205829 5.64007259 -11.14477539 4.23022461 C-10.09273926 3.57248047 -9.04070313 2.91473633 -7.95678711 2.23706055 C-7.02680908 1.63522949 -6.09683105 1.03339844 -5.13867188 0.41333008 C-2.51538086 -0.64575195 -2.51538086 -0.64575195 0 0 Z M-8.15991211 18.35424805 C-9.31297852 18.99491211 -10.46604492 19.63557617 -11.65405273 20.2956543 C-12.25918701 20.63483887 -12.86432129 20.97402344 -13.48779297 21.32348633 C-15.86772584 22.65665292 -18.25467094 23.97704035 -20.64149475 25.29782104 C-21.82782951 25.96459246 -23.00725854 26.64379117 -24.17967224 27.33474731 C-27.1730886 29.09643517 -29.97179703 30.53558754 -33.22070312 31.82641602 C-37.22613145 33.61858737 -39.62452403 35.02944545 -42.51538086 38.35424805 C-45.21556911 45.71453126 -44.93246785 53.74842919 -44.82788086 61.47924805 C-44.82876709 62.55249329 -44.82965332 63.62573853 -44.83056641 64.73150635 C-45.02922199 77.38914801 -45.02922199 77.38914801 -40.3605957 88.77416992 C-34.93209262 93.7838773 -28.57769855 96.14683217 -21.60229492 98.30249023 C-17.09902735 99.83682088 -13.3597554 102.27975342 -9.39038086 104.85424805 C-7.06951495 106.33561324 -5.11344552 107.32754298 -2.51538086 108.35424805 C1.6828932 107.28177725 5.18506401 105.5413029 8.89868164 103.3425293 C9.90801758 102.74891602 10.91735352 102.15530273 11.95727539 101.54370117 C12.99754883 100.92430664 14.03782227 100.30491211 15.10961914 99.66674805 C17.16430664 98.45450846 19.21899414 97.24226888 21.27368164 96.0300293 C22.28825439 95.40008057 23.30282715 94.77013184 24.34814453 94.12109375 C27.48461914 92.35424805 27.48461914 92.35424805 30.86914062 91.15576172 C34.6970133 89.63482639 36.78819167 88.49868789 39.48461914 85.35424805 C41.59597045 78.89571841 41.41890051 72.01840518 41.32373047 65.29492188 C41.29719816 62.05140844 41.42481079 58.83847524 41.56469727 55.59838867 C41.95924419 45.42776388 41.95924419 45.42776388 37.92276001 36.46813965 C33.93099618 33.18896114 29.43245374 31.17799324 24.66653442 29.26565552 C21.53880143 27.95917069 18.76685401 26.28352073 15.86352539 24.53393555 C13.92555037 23.43091866 11.98677268 22.32931059 10.04711914 21.22924805 C9.04358398 20.65432617 8.04004883 20.0794043 7.00610352 19.48706055 C5.57427734 18.67495117 5.57427734 18.67495117 4.11352539 17.84643555 C3.26862549 17.3654541 2.42372559 16.88447266 1.55322266 16.38891602 C-2.44482567 14.38918407 -4.45982552 16.29554893 -8.15991211 18.35424805 Z " fill="#282D33" transform="translate(65.515380859375,0.645751953125)"/>
<path d="M0 0 C2.8141488 0.84543093 5.07317078 1.96823791 7.61791992 3.43530273 C9.00140625 4.22904297 9.00140625 4.22904297 10.4128418 5.03881836 C11.36352539 5.59375977 12.31420898 6.14870117 13.29370117 6.72045898 C14.25598633 7.2715332 15.21827148 7.82260742 16.2097168 8.39038086 C23.32029222 12.49705004 23.32029222 12.49705004 25.60620117 14.78295898 C27.07277041 24.02196026 29.21237548 39.64592538 24.28637695 48.02905273 C20.91712918 51.24029035 16.92220232 52.73882992 12.53442383 54.1105957 C9.698785 55.09937126 7.38805929 56.72346432 4.91870117 58.40795898 C1.15802807 60.86311345 1.15802807 60.86311345 -1.19897461 60.52075195 C-3.89298675 59.61515633 -6.11966266 58.3321604 -8.56176758 56.87670898 C-9.53694336 56.29791992 -10.51211914 55.71913086 -11.5168457 55.12280273 C-12.52811523 54.5156543 -13.53938477 53.90850586 -14.58129883 53.28295898 C-16.11560547 52.37223633 -16.11560547 52.37223633 -17.6809082 51.44311523 C-25.23504729 46.94171052 -25.23504729 46.94171052 -26.39379883 45.78295898 C-26.48219553 43.40727379 -26.50910188 41.06087224 -26.49145508 38.68530273 C-26.49004013 37.97644424 -26.48862518 37.26758575 -26.48716736 36.5372467 C-26.48155325 34.26494186 -26.46899846 31.99273423 -26.45629883 29.72045898 C-26.45128564 28.18335103 -26.44672242 26.64624153 -26.44262695 25.10913086 C-26.43157925 21.33370257 -26.41430524 17.55834728 -26.39379883 13.78295898 C-25.33161133 13.1912793 -24.26942383 12.59959961 -23.17504883 11.98999023 C-21.7478811 11.19196407 -20.32080351 10.39377668 -18.89379883 9.59545898 C-18.1592749 9.18634277 -17.42475098 8.77722656 -16.66796875 8.35571289 C-12.91105287 6.250239 -9.26563923 4.08822429 -5.70629883 1.65795898 C-2.39379883 -0.21704102 -2.39379883 -0.21704102 0 0 Z " fill="#FE5C00" transform="translate(63.393798828125,35.217041015625)"/>
<path d="M0 0 C0.66 0 1.32 0 2 0 C2 16.17 2 32.34 2 49 C1.01 48.67 0.02 48.34 -1 48 C-1.02526945 41.3247966 -1.04283268 34.64960543 -1.05493164 27.97436523 C-1.05997325 25.70157409 -1.06680637 23.4287862 -1.07543945 21.15600586 C-1.08751261 17.89696449 -1.09322987 14.63796583 -1.09765625 11.37890625 C-1.10281754 10.35599991 -1.10797882 9.33309357 -1.11329651 8.27919006 C-1.11337204 7.33829025 -1.11344757 6.39739044 -1.11352539 5.42797852 C-1.115746 4.59524918 -1.11796661 3.76251984 -1.12025452 2.90455627 C-1 1 -1 1 0 0 Z " fill="#BA4A22" transform="translate(24,38)"/>
<path d="M0 0 C0.33 0 0.66 0 1 0 C1 20.79 1 41.58 1 63 C0.67 63 0.34 63 0 63 C0 42.21 0 21.42 0 0 Z " fill="#3D3D3F" transform="translate(120,31)"/>
<path d="M0 0 C0.33 0 0.66 0 1 0 C1 20.79 1 41.58 1 63 C0.67 63 0.34 63 0 63 C0 42.21 0 21.42 0 0 Z " fill="#515151" transform="translate(7,31)"/>
<path d="M0 0 C2 1 2 1 2 1 Z " fill="#000000" transform="translate(63,126)"/>
<path d="M0 0 C2 1 2 1 2 1 Z " fill="#2A2A2A" transform="translate(65,125)"/>
<path d="M0 0 C2 1 2 1 2 1 Z " fill="#002A2A" transform="translate(61,125)"/>
<path d="M0 0 C2 1 2 1 2 1 Z " fill="#00002A" transform="translate(68,123)"/>
<path d="M0 0 C2 1 2 1 2 1 Z " fill="#00002A" transform="translate(58,123)"/>
<path d="M0 0 C2 1 2 1 2 1 Z " fill="#002A2A" transform="translate(70,122)"/>
<path d="M0 0 C2 1 2 1 2 1 Z " fill="#2A2A2A" transform="translate(56,122)"/>
<path d="M0 0 C2 1 2 1 2 1 Z " fill="#202020" transform="translate(72,121)"/>
<path d="M0 0 C2 1 2 1 2 1 Z " fill="#000000" transform="translate(54,121)"/>
<path d="M0 0 C2 1 2 1 2 1 Z " fill="#00002A" transform="translate(75,119)"/>
<path d="M0 0 C2 1 2 1 2 1 Z " fill="#000000" transform="translate(77,118)"/>
<path d="M0 0 C2 1 2 1 2 1 Z " fill="#2A2A2A" transform="translate(49,118)"/>
<path d="M0 0 C2 1 2 1 2 1 Z " fill="#202020" transform="translate(79,117)"/>
<path d="M0 0 C2 1 2 1 2 1 Z " fill="#2A2A2A" transform="translate(47,117)"/>
<path d="M0 0 C2 1 2 1 2 1 Z " fill="#2A2A2A" transform="translate(45,116)"/>
<path d="M0 0 C2 1 2 1 2 1 Z " fill="#000000" transform="translate(84,114)"/>
<path d="M0 0 C2 1 2 1 2 1 Z " fill="#00002A" transform="translate(42,114)"/>
<path d="M0 0 C2 1 2 1 2 1 Z " fill="#2A2A2A" transform="translate(86,113)"/>
<path d="M0 0 C2 1 2 1 2 1 Z " fill="#2A2A2A" transform="translate(40,113)"/>
<path d="M0 0 C2 1 2 1 2 1 Z " fill="#202020" transform="translate(88,112)"/>
<path d="M0 0 C2 1 2 1 2 1 Z " fill="#2A2A2A" transform="translate(38,112)"/>
<path d="M0 0 C2 1 2 1 2 1 Z " fill="#002A2A" transform="translate(91,110)"/>
<path d="M0 0 C2 1 2 1 2 1 Z " fill="#2A2A2A" transform="translate(93,109)"/>
<path d="M0 0 C2 1 2 1 2 1 Z " fill="#2A2A2A" transform="translate(33,109)"/>
<path d="M0 0 C2 1 2 1 2 1 Z " fill="#202020" transform="translate(95,108)"/>
<path d="M0 0 C2 1 2 1 2 1 Z " fill="#002A2A" transform="translate(31,108)"/>
<path d="M0 0 C2 1 2 1 2 1 Z " fill="#00002A" transform="translate(98,106)"/>
<path d="M0 0 C2 1 2 1 2 1 Z " fill="#000040" transform="translate(28,106)"/>
<path d="M0 0 C2 1 2 1 2 1 Z " fill="#2A2A2A" transform="translate(100,105)"/>
<path d="M0 0 C2 1 2 1 2 1 Z " fill="#2A2A2A" transform="translate(26,105)"/>
<path d="M0 0 C2 1 2 1 2 1 Z " fill="#202020" transform="translate(102,104)"/>
<path d="M0 0 C2 1 2 1 2 1 Z " fill="#2A2A2A" transform="translate(24,104)"/>
<path d="M0 0 C2 1 2 1 2 1 Z " fill="#202020" transform="translate(104,103)"/>
<path d="M0 0 C2 1 2 1 2 1 Z " fill="#00002A" transform="translate(21,102)"/>
<path d="M0 0 C2 1 2 1 2 1 Z " fill="#00002A" transform="translate(107,101)"/>
<path d="M0 0 C2 1 2 1 2 1 Z " fill="#000000" transform="translate(19,101)"/>
<path d="M0 0 C2 1 2 1 2 1 Z " fill="#2A2A2A" transform="translate(109,100)"/>
<path d="M0 0 C2 1 2 1 2 1 Z " fill="#202020" transform="translate(17,100)"/>
<path d="M0 0 C2 1 2 1 2 1 Z " fill="#202020" transform="translate(111,99)"/>
<path d="M0 0 C2 1 2 1 2 1 Z " fill="#00002A" transform="translate(114,97)"/>
<path d="M0 0 C2 1 2 1 2 1 Z " fill="#000000" transform="translate(12,97)"/>
<path d="M0 0 C2 1 2 1 2 1 Z " fill="#2A2A2A" transform="translate(116,96)"/>
<path d="M0 0 C2 1 2 1 2 1 Z " fill="#2A2A2A" transform="translate(10,96)"/>
<path d="M0 0 C2 1 2 1 2 1 Z " fill="#202020" transform="translate(116,28)"/>
<path d="M0 0 C2 1 2 1 2 1 Z " fill="#004040" transform="translate(10,28)"/>
<path d="M0 0 C2 1 2 1 2 1 Z " fill="#002A2A" transform="translate(114,27)"/>
<path d="M0 0 C2 1 2 1 2 1 Z " fill="#2A2A2A" transform="translate(111,25)"/>
<path d="M0 0 C2 1 2 1 2 1 Z " fill="#202020" transform="translate(15,25)"/>
<path d="M0 0 C2 1 2 1 2 1 Z " fill="#000000" transform="translate(109,24)"/>
<path d="M0 0 C2 1 2 1 2 1 Z " fill="#2A2A2A" transform="translate(17,24)"/>
<path d="M0 0 C2 1 2 1 2 1 Z " fill="#00006A" transform="translate(107,23)"/>
<path d="M0 0 C2 1 2 1 2 1 Z " fill="#202020" transform="translate(104,21)"/>
<path d="M0 0 C2 1 2 1 2 1 Z " fill="#202020" transform="translate(22,21)"/>
<path d="M0 0 C2 1 2 1 2 1 Z " fill="#000040" transform="translate(102,20)"/>
<path d="M0 0 C2 1 2 1 2 1 Z " fill="#202020" transform="translate(24,20)"/>
<path d="M0 0 C2 1 2 1 2 1 Z " fill="#000040" transform="translate(100,19)"/>
<path d="M0 0 C2 1 2 1 2 1 Z " fill="#000000" transform="translate(26,19)"/>
<path d="M0 0 C2 1 2 1 2 1 Z " fill="#2A2A2A" transform="translate(97,17)"/>
<path d="M0 0 C2 1 2 1 2 1 Z " fill="#202020" transform="translate(29,17)"/>
<path d="M0 0 C2 1 2 1 2 1 Z " fill="#2A2A2A" transform="translate(95,16)"/>
<path d="M0 0 C2 1 2 1 2 1 Z " fill="#202020" transform="translate(31,16)"/>
<path d="M0 0 C2 1 2 1 2 1 Z " fill="#000000" transform="translate(93,15)"/>
<path d="M0 0 C2 1 2 1 2 1 Z " fill="#000000" transform="translate(33,15)"/>
<path d="M0 0 C2 1 2 1 2 1 Z " fill="#202020" transform="translate(88,12)"/>
<path d="M0 0 C2 1 2 1 2 1 Z " fill="#202020" transform="translate(38,12)"/>
<path d="M0 0 C2 1 2 1 2 1 Z " fill="#002A2A" transform="translate(86,11)"/>
<path d="M0 0 C2 1 2 1 2 1 Z " fill="#2A2A2A" transform="translate(40,11)"/>
<path d="M0 0 C2 1 2 1 2 1 Z " fill="#002A2A" transform="translate(84,10)"/>
<path d="M0 0 C2 1 2 1 2 1 Z " fill="#000000" transform="translate(42,10)"/>
<path d="M0 0 C2 1 2 1 2 1 Z " fill="#202020" transform="translate(81,8)"/>
<path d="M0 0 C2 1 2 1 2 1 Z " fill="#202020" transform="translate(45,8)"/>
<path d="M0 0 C2 1 2 1 2 1 Z " fill="#202020" transform="translate(79,7)"/>
<path d="M0 0 C2 1 2 1 2 1 Z " fill="#002A2A" transform="translate(47,7)"/>
<path d="M0 0 C2 1 2 1 2 1 Z " fill="#00002A" transform="translate(77,6)"/>
<path d="M0 0 C2 1 2 1 2 1 Z " fill="#000000" transform="translate(49,6)"/>
<path d="M0 0 C2 1 2 1 2 1 Z " fill="#002A2A" transform="translate(74,4)"/>
<path d="M0 0 C2 1 2 1 2 1 Z " fill="#202020" transform="translate(52,4)"/>
<path d="M0 0 C2 1 2 1 2 1 Z " fill="#202020" transform="translate(72,3)"/>
<path d="M0 0 C2 1 2 1 2 1 Z " fill="#002A2A" transform="translate(54,3)"/>
<path d="M0 0 C2 1 2 1 2 1 Z " fill="#000000" transform="translate(70,2)"/>
<path d="M0 0 C2 1 2 1 2 1 Z " fill="#002A2A" transform="translate(56,2)"/>
<path d="M0 0 C2 1 2 1 2 1 Z " fill="#2A2A2A" transform="translate(68,1)"/>
<path d="M0 0 C2 1 2 1 2 1 Z " fill="#202020" transform="translate(59,0)"/>
<path d="" fill="#005555" transform="translate(0,0)"/>
<path d="" fill="#404040" transform="translate(0,0)"/>
<path d="" fill="#404040" transform="translate(0,0)"/>
<path d="" fill="#404040" transform="translate(0,0)"/>
<path d="" fill="#005555" transform="translate(0,0)"/>
<path d="" fill="#404040" transform="translate(0,0)"/>
<path d="" fill="#005555" transform="translate(0,0)"/>
<path d="" fill="#555555" transform="translate(0,0)"/>
<path d="" fill="#000055" transform="translate(0,0)"/>
<path d="" fill="#404040" transform="translate(0,0)"/>
<path d="" fill="#555555" transform="translate(0,0)"/>
<path d="" fill="#404040" transform="translate(0,0)"/>
<path d="" fill="#404040" transform="translate(0,0)"/>
<path d="" fill="#000000" transform="translate(0,0)"/>
<path d="" fill="#005555" transform="translate(0,0)"/>
<path d="" fill="#000055" transform="translate(0,0)"/>
<path d="" fill="#000000" transform="translate(0,0)"/>
<path d="" fill="#555500" transform="translate(0,0)"/>
<path d="" fill="#000000" transform="translate(0,0)"/>
<path d="" fill="#000000" transform="translate(0,0)"/>
<path d="" fill="#000000" transform="translate(0,0)"/>
<path d="" fill="#000000" transform="translate(0,0)"/>
<path d="" fill="#000000" transform="translate(0,0)"/>
<path d="" fill="#000000" transform="translate(0,0)"/>
<path d="" fill="#000055" transform="translate(0,0)"/>
<path d="" fill="#404040" transform="translate(0,0)"/>
<path d="" fill="#555555" transform="translate(0,0)"/>
<path d="" fill="#005555" transform="translate(0,0)"/>
<path d="" fill="#005555" transform="translate(0,0)"/>
<path d="" fill="#555555" transform="translate(0,0)"/>
<path d="" fill="#555555" transform="translate(0,0)"/>
<path d="" fill="#000055" transform="translate(0,0)"/>
<path d="" fill="#005555" transform="translate(0,0)"/>
<path d="" fill="#404040" transform="translate(0,0)"/>
<path d="" fill="#000055" transform="translate(0,0)"/>
<path d="" fill="#404040" transform="translate(0,0)"/>
<path d="" fill="#555555" transform="translate(0,0)"/>
<path d="" fill="#555555" transform="translate(0,0)"/>
<path d="" fill="#555555" transform="translate(0,0)"/>
<path d="" fill="#005555" transform="translate(0,0)"/>
</svg>
