<svg width="64" height="64" fill="none" xmlns="http://www.w3.org/2000/svg"><path d="M60.32 25.91c2.26 2.32 2.2 6-.17 8.32a5.97 5.97 0 0 1-8.38-.06 6.03 6.03 0 0 1 .18-8.37 5.86 5.86 0 0 1 8.37.11ZM44.4 41.3c.12-11.05.07-22.04 0-33.09 0-3.8-2.49-6.47-5.93-6.47-3.45 0-5.88 2.67-5.88 6.47 0 4.76 0 9.57.05 14.56-.83-.3-1.42-.54-1.96-.72A20.6 20.6 0 0 0 5.32 32.57a20.38 20.38 0 0 0 7.43 26.25c6.83 4.28 13.96 4.57 20.96.71 7.01-3.86 10.58-10.15 10.7-18.23Zm-27.02 6.3c-3.2-3.51-3.09-9.27.3-12.42a8.95 8.95 0 0 1 12.53.36 8.79 8.79 0 0 1-.42 12.35c-3.56 3.27-9.2 3.15-12.41-.3Z" fill="#FC3165"/></svg>
