<svg width="64" height="64" fill="none" xmlns="http://www.w3.org/2000/svg">
  <path fill-rule="evenodd" clip-rule="evenodd" d="M52.191 44.866c-.577-.204-1.12-.631-1.36-1.129-.213-.453-.169-1.44-.178-5.957V19.028H53.1s7.041-.063 7.344 0c1.058.23 2 1.44 2 2.516 0 .587-.391 1.387-.871 1.779-.72.595-.89.657-2.979.72H55.57V37.85c0 4.632.045 5.628-.16 6.02-.195.364-.667.755-1.12.924-.516.24-1.52.276-2.099.071zm-6.748-.097a2.793 2.793 0 01-.809-.587c-.65-.738-.622-1.654-.622-8.216 0-6.402-.018-7.3.542-8.03.142-.186.471-.462.72-.612.41-.24.57-.276 1.262-.276.72 0 .845.027 1.281.302.649.4 1.022.97 1.138 1.752.062.373.071.64.071 7.308 0 6.127.009 7.034-.622 7.79-.65.773-1.974 1.022-2.96.569zM35.21 40.02c1.005-.337 1.92-1.076 2.401-1.92.542-.96.694-2.374.364-3.379-.889-2.694-4.116-3.797-6.437-2.196-1.058.72-1.69 1.885-1.778 3.237-.125 1.956 1.076 3.68 2.987 4.285.578.178 1.903.169 2.463-.027zm-2.658 4.864c-2.418-.418-4.428-1.636-5.85-3.556-1.156-1.565-1.717-3.29-1.717-5.335 0-4.126 2.543-7.443 6.633-8.66.827-.25 2.756-.339 3.752-.187 3.352.524 6.162 2.978 7.175 6.277.516 1.832.534 3.414 0 5.13-.951 3.095-3.334 5.38-6.428 6.171-.996.258-2.578.33-3.565.16zm16.466-25.838H47.88s-1.547-.018-1.849.044c-1.058.231-2 1.44-2 2.516 0 .587.168 1.903 2 2.481.009.009 1.85 0 1.85 0h1.137v-5.041zM12.138 39.904c2.971-.249 5.275-1.706 6.494-4.114 1.21-2.398 1.12-5.775-.205-8.165-.534-.968-1.832-2.22-2.838-2.736-1.467-.764-1.877-.889-4.963-.88l-4.6-.044v15.983c.098.08 4.795.062 6.112-.044zM2.762 44.86c-.258-.097-.65-.364-.943-.666-.872-.88-.818-.07-.818-12.02 0-11.382-.01-11.08.55-11.87.366-.507 1.033-.934 1.682-1.076.658-.142 7.855-.15 9.323-.008 5.578.523 10.141 4.397 11.493 9.764 1.602 6.326-1.966 12.953-8.192 15.246-1.806.657-4.208.72-8.639.746-1.6-.018-3.487.116-4.456-.115z" fill="#34A5DD"/>
</svg>
