<svg width="64" height="64" viewBox="0 0 64 64" fill="none" xmlns="http://www.w3.org/2000/svg">
<path d="M55.7043 26.9265C57.5852 28.8569 57.5357 31.9258 55.5558 33.8562C53.6254 35.7371 50.4576 35.7371 48.5767 33.8067C46.7453 31.8763 46.7948 28.6589 48.7252 26.8275C50.705 24.8972 53.7739 24.9466 55.7043 26.9265Z" fill="#FC3165"/>
<path d="M42.4387 39.7465C42.5377 30.54 42.4882 21.383 42.4387 12.1765C42.4387 9.00863 40.3598 6.78125 37.4889 6.78125C34.6181 6.78125 32.5887 9.00863 32.5887 12.1765C32.5887 16.1362 32.5887 20.1455 32.6382 24.3033C31.9452 24.0558 31.4503 23.8578 31.0048 23.7093C22.7387 20.8385 13.6312 24.6003 9.86944 32.4703C6.05815 40.2909 8.68151 49.7449 16.0566 54.3482C21.7488 57.912 27.6885 58.1594 33.5292 54.9421C39.3698 51.7248 42.3397 46.4781 42.4387 39.7465ZM19.9174 44.9932C17.2445 42.0728 17.3435 37.2716 20.1649 34.6482C23.1347 31.8764 27.8865 32.0249 30.6088 34.9452C33.3312 37.915 33.1827 42.5183 30.2623 45.2407C27.2925 47.963 22.5902 47.864 19.9174 44.9932Z" fill="#FC3165"/>
</svg>
