<svg width="60" height="25" fill="none" xmlns="http://www.w3.org/2000/svg">
  <path fill-rule="evenodd" clip-rule="evenodd" d="M49.222 24.872c-.555-.197-1.077-.608-1.307-1.086-.205-.436-.163-1.385-.171-5.728V.027h2.35s6.772-.06 7.062 0c1.018.222 1.924 1.385 1.924 2.42 0 .563-.376 1.333-.838 1.71-.692.572-.855.632-2.864.691h-2.907v13.278c0 4.454.043 5.412-.153 5.788-.189.35-.642.726-1.078.89-.495.23-1.462.264-2.018.068zm-6.488-.094a2.683 2.683 0 01-.778-.565c-.624-.71-.599-1.59-.599-7.9 0-6.155-.017-7.019.522-7.72.137-.18.453-.444.692-.59.394-.23.547-.265 1.214-.265.693 0 .813.026 1.232.29.623.386.982.933 1.094 1.685.06.36.068.616.068 7.028 0 5.89.009 6.763-.598 7.49-.624.743-1.898.982-2.847.547zm-9.84-4.566c.966-.325 1.846-1.035 2.308-1.847.521-.923.667-2.282.35-3.248-.854-2.59-3.958-3.651-6.19-2.112-1.017.692-1.624 1.812-1.71 3.112-.119 1.88 1.035 3.54 2.873 4.12.556.172 1.83.163 2.369-.025zm-2.557 4.677c-2.325-.402-4.257-1.573-5.625-3.42-1.111-1.505-1.65-3.164-1.65-5.13 0-3.967 2.445-7.156 6.378-8.327.795-.24 2.65-.325 3.607-.18 3.224.505 5.925 2.864 6.9 6.036.496 1.761.513 3.283 0 4.933-.915 2.976-3.206 5.173-6.181 5.934-.958.248-2.48.316-3.429.154zM46.17.044h-1.094S43.59.027 43.298.087c-1.017.222-1.923 1.385-1.923 2.42 0 .563.162 1.829 1.923 2.384.008.009 1.778 0 1.778 0h1.094V.044zM10.71 20.1c2.857-.24 5.072-1.64 6.244-3.955 1.163-2.307 1.077-5.553-.197-7.851-.513-.931-1.762-2.136-2.729-2.632-1.41-.734-1.805-.854-4.773-.845l-4.422-.043v15.369c.094.077 4.61.06 5.877-.043zm-9.016 4.767c-.248-.094-.624-.35-.907-.64-.838-.846-.786-.069-.786-11.56C0 1.725-.01 2.016.53 1.255.88.767 1.523.357 2.147.22 2.78.084 9.7.075 11.112.212c5.363.504 9.75 4.229 11.05 9.389 1.54 6.082-1.89 12.455-7.877 14.66-1.736.632-4.046.691-8.306.717-1.54-.017-3.353.111-4.285-.111z" fill="#34A5DD"/>
</svg>