<svg fill="none" height="25" viewBox="0 0 60 25" width="60" xmlns="http://www.w3.org/2000/svg"><path d="m24.2375 16.8221c-1.3212 0-2.3691-1.0706-2.3691-2.369s1.0707-2.369 2.3691-2.369 2.369 1.0706 2.369 2.369-1.0479 2.369-2.369 2.369zm0-7.92708c-3.0524 0-5.5354 2.48288-5.5354 5.53528s2.483 5.5581 5.5354 5.5581c3.0523 0 5.5353-2.4829 5.5353-5.5353 0-3.0752-2.483-5.55808-5.5353-5.55808z" fill="#000433"/><path d="m49.6815 12.8589c-.8656 0-1.5717.7062-1.5717 1.5718 0 1.3212-1.0706 2.369-2.369 2.369-1.3212 0-2.3691-1.0706-2.3691-2.369v-2.369h2.7563c.8656 0 1.5718-.7062 1.5718-1.5718 0-.86558-.7062-1.57173-1.5718-1.57173h-2.7563v-2.32347c0-.8656-.7061-1.57175-1.5717-1.57175s-1.5718.70615-1.5718 1.57175v7.836c0 1.3212-1.0706 2.369-2.369 2.369s-2.369-1.0706-2.369-2.369v-3.9408c0-.86558-.7062-1.57173-1.5718-1.57173s-1.5717.70615-1.5717 1.57173v3.9636c0 3.0524 2.4829 5.5353 5.5353 5.5353 1.549 0 2.9613-.6378 3.9635-1.6629 1.0023 1.0251 2.4146 1.6629 3.9636 1.6629 3.0524 0 5.5353-2.4829 5.5353-5.5353-.0911-.8884-.7973-1.5946-1.6629-1.5946z" fill="#fc3165"/><path d="m32.3919 7.20944c.0456.09112.0911.18223.1367.27335.0455.09112.1139.15945.205.25057.0911.09111.1594.13667.2506.20501.0911.04556.1822.1139.2733.13667.0911.04556.205.06834.2961.09112s.205.02278.3189.02278c.4101 0 .8201-.15945 1.1162-.45558.0683-.06834.1367-.15945.205-.25057.0456-.09112.1139-.18223.1367-.27335.0456-.09112.0683-.20501.0911-.29613.0228-.09111.0228-.20501.0228-.29612 0-.1139 0-.20502-.0228-.31891-.0228-.09112-.0455-.20501-.0911-.29613-.0456-.09111-.0911-.18223-.1367-.27335-.0683-.09111-.1367-.15945-.205-.25057-.3645-.36446-.9112-.54669-1.4123-.4328-.0911.02278-.205.04556-.2961.09112s-.1823.09111-.2734.13667-.1594.1139-.2505.20501c-.0684.06834-.1367.15946-.2051.25057-.0455.09112-.1138.18224-.1366.27335-.0228.09112-.0684.20501-.0911.29613-.0228.11389-.0228.20501-.0228.31891 0 .11389.0228.20501.0228.29612 0 .09112.0227.18224.0683.29613z" fill="#fc3165"/><path d="m17.7906 14.3166c.0228-2.984.0228-4.57856 0-7.56261 0-1.02506-.6606-1.75399-1.5945-1.75399-.934 0-1.5945.72893-1.5945 1.75399v2.55125c-.2278-.09112-.3873-.13668-.5467-.20501-2.6652-.91116-5.60369.29613-6.83375 2.84737-1.23007 2.5513-.38725 5.6037 2.00455 7.1071 1.8451 1.1617 3.7585 1.23 5.672.205 1.9134-1.0706 2.8929-2.7563 2.8929-4.9431zm-7.2893 1.7085c-.86558-.934-.8428-2.5057.0684-3.3713.9567-.9112 2.5057-.8656 3.394.1139.8884.9567.8429 2.4601-.1139 3.3485-.9567.8656-2.4829.8428-3.3485-.0911z" fill="#000433"/></svg>