<?xml version="1.0" standalone="no"?>
<!DOCTYPE svg PUBLIC "-//W3C//DTD SVG 20010904//EN"
 "http://www.w3.org/TR/2001/REC-SVG-20010904/DTD/svg10.dtd">
<svg version="1.0" xmlns="http://www.w3.org/2000/svg"
 width="180.000000pt" height="180.000000pt" viewBox="0 0 180.000000 180.000000"
 preserveAspectRatio="xMidYMid meet">
<metadata>
Created by potrace 1.10, written by Peter Selinger 2001-2011
</metadata>
<g transform="translate(0.000000,180.000000) scale(0.100000,-0.100000)"
fill="#000000" stroke="none">
<path d="M0 900 l0 -900 900 0 900 0 0 900 0 900 -900 0 -900 0 0 -900z m993
741 c26 -14 97 -55 158 -91 61 -36 134 -78 163 -95 29 -16 89 -50 132 -75 91
-52 171 -130 180 -174 3 -17 4 -179 2 -361 -3 -360 -3 -360 -65 -416 -32 -30
-153 -109 -166 -109 -4 0 -23 -11 -41 -25 -18 -14 -37 -25 -43 -25 -5 0 -32
-16 -59 -35 -27 -19 -54 -35 -61 -35 -6 0 -24 -11 -40 -24 -15 -13 -38 -26
-50 -30 -12 -4 -50 -26 -84 -48 -100 -67 -180 -63 -299 16 -30 20 -60 36 -66
36 -6 0 -18 7 -25 16 -8 9 -32 25 -54 35 -22 11 -71 39 -110 64 -38 24 -83 51
-100 60 -86 44 -162 98 -187 131 l-28 38 0 369 0 370 34 42 c21 26 70 62 128
95 51 30 96 59 100 66 4 6 20 15 35 19 16 3 44 17 63 29 19 13 69 42 110 66
41 24 95 58 120 74 89 60 166 65 253 17z"/>
<path d="M385 1220 c-4 -6 -4 -24 0 -40 5 -21 13 -30 26 -30 56 0 81 52 33 70
-33 13 -51 13 -59 0z"/>
<path d="M592 1208 c-17 -17 -15 -54 3 -71 19 -20 50 -11 63 18 9 18 7 27 -9
44 -22 24 -39 27 -57 9z"/>
<path d="M507 1043 c-11 -11 -8 -58 5 -71 16 -16 29 -15 57 7 24 18 24 20 8
45 -17 25 -55 35 -70 19z"/>
<path d="M767 1043 c-11 -10 -8 -82 3 -103 6 -11 29 -29 53 -40 23 -11 78 -41
122 -67 44 -25 100 -56 125 -68 60 -30 68 -41 72 -99 4 -62 24 -78 63 -50 14
10 52 33 83 50 87 46 83 58 -50 132 -62 35 -120 67 -128 72 -8 5 -51 29 -95
53 -44 24 -112 63 -152 86 -74 42 -85 46 -96 34z"/>
<path d="M642 818 c-7 -7 -12 -23 -12 -35 0 -48 27 -78 105 -119 136 -71 154
-99 81 -129 -42 -18 -56 -41 -56 -93 0 -57 18 -68 64 -37 21 14 61 37 89 51
70 35 87 58 87 121 0 47 -3 54 -34 80 -19 15 -70 46 -113 68 -43 22 -101 54
-130 72 -58 37 -64 38 -81 21z"/>
</g>
</svg>
