<svg width="344" height="57.3232" viewBox="2 8 344 57.3232" fill="none" xmlns="http://www.w3.org/2000/svg">
<path d="M345.951 40.4524C346.045 41.2074 345.998 42.0097 345.856 42.6703H324.243C324.243 47.6726 329.009 50.6928 332.831 50.6928C335.993 50.6928 338.919 49.3243 340.429 46.4456H345.196C343.261 52.0141 338.022 54.7984 332.784 54.7984C326.225 54.7984 319.618 50.3625 319.618 41.5849C319.618 32.8074 326.13 28.4187 332.879 28.4187C339.202 28.4187 345.431 32.4299 345.951 40.4524ZM324.432 38.8479H341.09C340.193 34.2703 336.56 32.4771 332.879 32.4771C329.151 32.4771 325.375 34.3175 324.432 38.8479Z" fill="black"/>
<path d="M290.66 28.7962H295.285V31.958C297.173 29.2209 299.91 28.4187 303.119 28.4187C310.905 28.4187 314.209 33.2793 314.209 40.5939V54.3265H309.631V40.6411C309.631 35.8748 308.404 32.6187 302.977 32.5243C298.022 32.4299 295.285 35.9692 295.285 40.4524V54.3265H290.66V28.7962Z" fill="black"/>
<path d="M282.895 54.3265H278.27V28.513H282.895V54.3265ZM277.704 22.2366C277.704 25.8232 283.461 25.8232 283.461 22.2366C283.461 18.6501 277.704 18.7445 277.704 22.2366Z" fill="black"/>
<path d="M270.798 53.3827C270.798 61.3108 264.003 64.3782 257.679 64.3782C251.261 64.3782 245.268 61.8299 245.268 56.0254H249.845C249.845 59.2816 254.281 60.3198 257.632 60.2726C261.69 60.2254 266.174 58.2905 266.174 53.3827V50.6928C263.956 53.6186 260.747 54.2793 257.585 54.2793C248.996 54.2793 244.041 48.5692 244.041 41.6321C244.041 34.6007 248.76 28.3243 257.679 28.3715C260.841 28.3715 264.333 29.4569 266.221 32.1939V28.7962H270.798V53.3827ZM257.538 50.2209C263.295 50.2209 266.174 45.6434 266.174 40.9243C266.174 36.3939 263.389 32.5715 257.868 32.4299C252.016 32.2883 248.666 37.0074 248.666 41.6321C248.713 46.1153 251.922 50.2209 257.538 50.2209Z" fill="black"/>
<path d="M214.62 28.7962H219.245V31.958C221.133 29.2209 223.87 28.4187 227.079 28.4187C234.865 28.4187 238.169 33.2793 238.169 40.5939V54.3265H233.591V40.6411C233.591 35.8748 232.364 32.6187 226.937 32.5243C221.982 32.4299 219.245 35.9692 219.245 40.4524V54.3265H214.62V28.7962Z" fill="black"/>
<path d="M208.525 40.4524C208.62 41.2074 208.573 42.0097 208.431 42.6703H186.818C186.818 47.6726 191.584 50.6928 195.406 50.6928C198.568 50.6928 201.494 49.3243 203.004 46.4456H207.77C205.836 52.0141 200.597 54.7984 195.359 54.7984C188.8 54.7984 182.193 50.3625 182.193 41.5849C182.193 32.8074 188.705 28.4187 195.454 28.4187C201.777 28.4187 208.006 32.4299 208.525 40.4524ZM187.006 38.8479H203.665C202.768 34.2703 199.134 32.4771 195.454 32.4771C191.725 32.4771 187.95 34.3175 187.006 38.8479Z" fill="black"/>
<path d="M138.491 28.7962H145.994V31.3445C147.788 29.0793 150.808 28.3715 153.545 28.4187C156.471 28.5602 158.358 29.8816 159.538 31.8164C161.284 29.4097 165.012 28.3243 167.985 28.4658C172.799 28.6546 176.669 31.8636 176.574 39.9333V54.3265H169.071V39.9804C169.071 36.913 167.608 35.7805 165.909 35.7333C164.069 35.6861 161.332 36.9602 161.284 39.7917V54.3265H153.781V39.9804C153.781 36.913 152.318 35.7805 150.619 35.7333C148.779 35.6861 146.372 37.0074 146.372 39.8861V54.3265H138.491C138.491 43.331 138.491 39.7917 138.491 28.7962Z" fill="black"/>
<path d="M126.261 40.1692V54.3265H118.852V28.7962H125.553L125.837 30.4951C127.488 28.9378 129.329 28.2771 131.405 28.2771C132.302 28.2771 133.293 28.4187 134.284 28.6546L134.189 35.6389C133.434 35.4029 132.538 35.2613 131.688 35.2613C128.998 35.3085 126.261 36.7243 126.261 40.1692Z" fill="black"/>
<path d="M115.36 41.5849C115.36 59.7535 88.131 59.6591 88.131 41.5849C88.131 23.3692 115.36 23.4164 115.36 41.5849ZM95.5872 41.5849C95.5872 50.1265 107.904 50.1737 107.904 41.5849C107.904 32.9018 95.5872 32.949 95.5872 41.5849Z" fill="black"/>
<path d="M69.9658 29.0793H73.8827C73.3636 21.1512 80.631 19.5939 86.8602 20.9153L86.6242 26.4838C84.4062 25.9175 81.1501 25.9175 81.2916 29.0793H86.577V35.5445H81.1973V54.3265H73.7883V35.5445H69.9658V29.0793Z" fill="black"/>
<path d="M43.6894 8C43.6894 16.634 36.2239 23.6334 27.0145 23.6337H17.6337V65.3232H2V23.6337C2 15.034 8.94356 8.05704 17.5301 8.0014V8.03639C17.7271 8.02386 17.9248 8.01445 18.1235 8.0084H18.1389C18.3172 8.00311 18.4967 8 18.6763 8H43.6894Z" fill="url(#paint0_linear_3480_1699)"/>
<path d="M2 46.6673C2 38.0331 8.9994 31.0337 17.6336 31.0337H43.6895C43.6895 39.6679 36.6901 46.6673 28.0559 46.6673H2Z" fill="#4286F4"/>
<defs>
<linearGradient id="paint0_linear_3480_1699" x1="7.10696" y1="17.2435" x2="43.3033" y2="41.2538" gradientUnits="userSpaceOnUse">
<stop stop-color="#4286F4"/>
<stop offset="1" stop-color="#373B44"/>
</linearGradient>
</defs>
</svg>
