<svg xmlns="http://www.w3.org/2000/svg" width="192" height="192" fill="none"><path stroke="#000" stroke-width="6.1" d="M96 4.05c32.006 0 57.95 25.936 57.95 57.928 0 31.99-25.944 57.926-57.95 57.926S38.05 93.969 38.05 61.978C38.05 29.985 63.994 4.05 96 4.05Z"/><path fill="#000" d="M91.64 101.305c-20.159 2.897-38.803.716-43.018-.913 13.216 15.854 28.263 19.919 36.193 21.545 29.483 5.488 51.037-11.585 58.56-21.545-6.744-1.66-31.575-1.983-51.734.913ZM62.932 53.151c1.056-2.747 4.287-2.737 7.092-2.043 1.332.33 2.309-.779 1.17-1.544-3.368-2.265-9.337-2.35-11.59 1.924-2.728 5.178-.327 8.87 1.498 11.38l6.445 7.206.392 1.992 4.7-4.5-7.317-6.367c-1.463-1.49-3.94-4.014-2.39-8.047Z"/><path fill="#000" d="M126.726 28.537c1.215-.425 2.139-.48 2.313-.156.52.462 1.1 1.679 1.428 2.49.011.023.021.05.033.08l.08.206a.073.073 0 0 0-.014-.009c.067.213.148.509.253.902.913 3.407-.072 5.195-4.472 8.12-2.161 1.437-4.148 3.742-5.015 5.821-1.363 3.265-1.377 3.52-.723 12.638-.003.8.008 1.586.018 2.357.062 4.502.116 8.547-2.586 12.542l.421 3.082c.073.48.171 1.192.281 2.047l.424 3.1-.036.096c.881 7.428 1.732 13.468 1.963 13.913.12.23.681.48 1.294.578 1.328.21 2.22 1.038 2.865 2.66.262.657.484 1.284.494 1.392.008.107-1.747.351-3.901.542l-3.918.347-1.075-.93c-.592-.51-1.273-1.245-1.514-1.632-.249-.401-.627-1.78-1.065-3.829l-.016.044-4.646-13.734-.415-3.008a23.034 23.034 0 0 1-.298-1.659c-.155-1.047-.373-1.896-.484-1.886-.328.03-.767 1.31-.94 2.745-.225 1.867.944 17.767 1.389 18.876.29.725.547.916 1.804 1.34 1.245.42 1.555.648 2.054 1.505.323.556.682 1.354.797 1.775l.21.765-7.907.699-.923-.767c-1.846-1.537-2.14-2.364-3.563-10.042a183.65 183.65 0 0 1-1.162-7.188l-.46-3.394-1.826.16c-2.664.233-4.72.022-7.115-.73l-.766-.24a13.5 13.5 0 0 1-.338 1.808c-.115.927-1.03 3.117-1.792 4.215-.37.533-1.466 1.69-2.436 2.57-3.067 2.779-3.535 4.078-2.266 6.295.91 1.59 2.648 3.176 4.131 3.77 1.397.56 2.39 1.419 3.004 2.597.256.491.47.933.474.983-.002.05-1.76.246-3.913.437l-3.92.347-.817-.711c-1.826-1.59-3.944-5.258-5.355-9.276-.071-.201-.14-.392-.203-.574l-.004-.011c-.736-2.087-1.008-2.857-.827-3.5.105-.374.364-.707.774-1.233h.001l.197-.254c.663-.858 1.433-2.126 1.711-2.816l.011-.028.014-.033h-.007c.778-2.076 1.967-4.486 3.201-6.13-2.488.232-3.35.83-4.571 3.02-2.774 4.978-5.636 7.669-10.91 10.257-4.382 2.15-5.19 3.84-3.878 8.101.356 1.159.552 1.419 1.49 1.975 1.21.717 2.19 2.083 2.288 3.187l.065.734-6.865.473-.64-1.04c-1.127-1.833-1.642-3.969-2.274-9.433l-.594-5.137.77-.804c.425-.442 1.582-1.4 2.571-2.129.99-.728 2.176-1.746 2.636-2.261 1.504-1.683 2.252-4.568 2.741-10.57.277-3.4 1.658-7.45 1.658-7.45.017-.046 1.384-3.621 9.09-6.009 1.056-.327 2.489-.77 4.56-1.221 2.717-.592 5.08-1.063 7.17-1.48 6.843-1.364 10.766-2.146 14.623-4.658.211-.137.418-.268.62-.394 2.185-1.373 3.761-2.363 3.168-8.2-.011-.219-.069-.55-.142-.967-.127-.72-.298-1.698-.349-2.8.055.04.11.077.166.116l.387.273c.856.605 1.731 1.224 2.608 1.694.532.285 1.157.58 1.888.88 1.701.699 2.886.789 3.69.507.838-.293 1.181-.959 1.231-1.525a.875.875 0 0 0-.081-.44c-1.41-3.092-2.475-6.097-3.038-9.471-.641 3.328.919 6.828 2.281 9.815.006.013.008.021.009.026-.027.291-.195.643-.677.811-.518.182-1.469.177-3.098-.492a19.768 19.768 0 0 1-1.813-.845c-.828-.443-1.656-1.027-2.516-1.635l-.393-.278c-.989-.695-2.023-1.394-3.092-1.85l-.153-.066a.469.469 0 0 1 .018-.089c1.745-6.093 9.96-12.372 16.67-10.588.422.113.816.333 1.466.698l1.242.696 1.845-.514a62.912 62.912 0 0 0 3.212-.99Zm3.768 5.015c-.415-.85-.674-.716-1.032.535-.787 2.755-2.262 4.08-5.104 4.584-2.412.428-2.622.523-2.483 1.115.151.643 1.039.743 1.743.194.273-.212 1.075-.635 1.781-.937 1.803-.772 2.856-1.633 3.782-3.094.44-.693.928-1.277 1.085-1.299.458-.062.54-.457.228-1.098Zm-12.992-2.064c-.264-1.13-1.023-.117-.906 1.21.046.513.181.722.452.699.246-.022.324-.162.215-.384-.133-.272-.041-.329.413-.257.322.05.827-.071 1.121-.27.531-.36.527-.364-.317-.415-.65-.039-.883-.178-.978-.583Zm11.095-2.738a3.477 3.477 0 0 1-.383.088c-1.019.178-1.482.82-1.031 1.431.161.218.793.59 1.404.825l1.114.427.349-.54c-.405-.505-1.11-1.651-1.453-2.231ZM4.205 178v-38.545h6.983v17.71h.47l15.038-17.71h8.526l-14.906 17.296L35.354 178H26.96l-11.5-16.525-4.272 5.044V178H4.205Zm46.055.565c-2.823 0-5.27-.621-7.34-1.864-2.07-1.242-3.676-2.98-4.818-5.213-1.13-2.234-1.694-4.843-1.694-7.83 0-2.986.565-5.602 1.694-7.848 1.142-2.246 2.748-3.99 4.818-5.232 2.07-1.242 4.517-1.864 7.34-1.864 2.823 0 5.27.622 7.34 1.864 2.07 1.242 3.67 2.986 4.8 5.232 1.142 2.246 1.712 4.862 1.712 7.848 0 2.987-.57 5.596-1.712 7.83-1.13 2.233-2.73 3.971-4.8 5.213-2.07 1.243-4.517 1.864-7.34 1.864Zm.038-5.458c1.53 0 2.81-.421 3.84-1.261 1.028-.854 1.794-1.996 2.296-3.426.514-1.43.771-3.024.771-4.78 0-1.77-.257-3.369-.771-4.8-.502-1.443-1.268-2.591-2.297-3.444-1.029-.853-2.308-1.28-3.84-1.28-1.568 0-2.872.427-3.914 1.28-1.029.853-1.8 2.001-2.315 3.444-.502 1.431-.753 3.03-.753 4.8 0 1.756.251 3.35.753 4.78.515 1.43 1.286 2.572 2.315 3.426 1.041.84 2.346 1.261 3.915 1.261ZM69.895 178v-28.909h6.512v4.912h.34c.601-1.656 1.599-2.948 2.992-3.877 1.392-.941 3.055-1.412 4.987-1.412 1.958 0 3.608.477 4.95 1.431 1.355.941 2.309 2.227 2.86 3.858h.302c.64-1.606 1.72-2.886 3.237-3.839 1.531-.966 3.344-1.45 5.44-1.45 2.66 0 4.83.841 6.512 2.523 1.681 1.681 2.522 4.134 2.522 7.359V178h-6.832v-18.35c0-1.795-.477-3.106-1.431-3.934-.953-.841-2.12-1.261-3.5-1.261-1.644 0-2.93.514-3.859 1.543-.916 1.017-1.374 2.34-1.374 3.971V178h-6.681v-18.633c0-1.493-.452-2.685-1.355-3.576-.891-.891-2.058-1.336-3.501-1.336a4.94 4.94 0 0 0-2.673.753c-.803.489-1.443 1.185-1.92 2.089-.476.891-.715 1.932-.715 3.124V178h-6.813Zm47.867 0v-38.545h6.813v14.416h.282c.352-.702.847-1.449 1.487-2.239.64-.803 1.506-1.487 2.597-2.052 1.092-.577 2.485-.866 4.179-.866 2.233 0 4.247.571 6.041 1.713 1.807 1.129 3.238 2.805 4.292 5.025 1.066 2.209 1.599 4.919 1.599 8.131 0 3.175-.52 5.872-1.562 8.093-1.041 2.221-2.459 3.915-4.253 5.082-1.795 1.167-3.827 1.75-6.098 1.75-1.657 0-3.031-.276-4.122-.828-1.092-.552-1.97-1.217-2.635-1.995-.653-.79-1.161-1.537-1.525-2.24h-.395V178h-6.7Zm6.681-14.455c0 1.87.264 3.507.791 4.913.539 1.405 1.311 2.503 2.315 3.293 1.016.778 2.246 1.167 3.689 1.167 1.505 0 2.766-.401 3.783-1.204 1.016-.816 1.781-1.926 2.296-3.332.527-1.417.79-3.03.79-4.837 0-1.794-.257-3.387-.771-4.78-.515-1.393-1.28-2.484-2.296-3.275-1.017-.79-2.284-1.186-3.802-1.186-1.456 0-2.692.383-3.708 1.148-1.016.766-1.788 1.839-2.315 3.219-.515 1.38-.772 3.005-.772 4.874Zm34.72 15.038c-1.832 0-3.482-.326-4.95-.978-1.455-.665-2.609-1.644-3.463-2.936-.84-1.293-1.261-2.886-1.261-4.781 0-1.631.301-2.98.904-4.046a6.99 6.99 0 0 1 2.465-2.56c1.042-.64 2.215-1.123 3.52-1.449a28.506 28.506 0 0 1 4.084-.734c1.694-.176 3.068-.333 4.122-.471 1.054-.15 1.819-.376 2.296-.677.489-.314.734-.797.734-1.45v-.113c0-1.417-.42-2.515-1.261-3.293s-2.052-1.167-3.632-1.167c-1.669 0-2.993.364-3.972 1.092-.966.727-1.618 1.587-1.957 2.578l-6.362-.903c.502-1.757 1.33-3.225 2.485-4.405 1.154-1.192 2.566-2.082 4.235-2.672 1.668-.602 3.513-.904 5.533-.904 1.393 0 2.779.164 4.159.49a11.7 11.7 0 0 1 3.783 1.618c1.142.741 2.058 1.751 2.748 3.031.703 1.279 1.054 2.879 1.054 4.799V178h-6.55v-3.971h-.225c-.414.803-.998 1.556-1.751 2.258-.74.69-1.675 1.249-2.804 1.675-1.117.414-2.428.621-3.934.621Zm1.77-5.006c1.367 0 2.553-.27 3.557-.809 1.003-.552 1.775-1.28 2.315-2.183a5.565 5.565 0 0 0 .828-2.955v-3.407c-.213.176-.577.339-1.092.489-.502.151-1.066.283-1.694.396-.627.113-1.248.213-1.863.301s-1.148.163-1.6.226c-1.016.138-1.926.363-2.729.677-.803.314-1.436.753-1.901 1.318-.464.552-.696 1.267-.696 2.145 0 1.255.458 2.202 1.374 2.842.916.64 2.083.96 3.501.96ZM181.278 178v-28.909h6.813V178h-6.813Zm3.425-33.012c-1.079 0-2.007-.358-2.785-1.073-.778-.728-1.167-1.6-1.167-2.616 0-1.029.389-1.901 1.167-2.616.778-.728 1.706-1.092 2.785-1.092 1.092 0 2.021.364 2.786 1.092.778.715 1.167 1.587 1.167 2.616 0 1.016-.389 1.888-1.167 2.616-.765.715-1.694 1.073-2.786 1.073Z"/></svg>