<svg xmlns="http://www.w3.org/2000/svg" width="350" height="75" fill="none"><path fill="#fff" d="m.875 54.5 5.796-34.91h7.38l-2.54 15.393h.461l15.102-15.392h8.847L20.427 35.22 30.279 54.5h-8.83l-7.125-14.352-4.397 4.466-1.67 9.886H.874Zm42.9.511c-2.67 0-4.881-.568-6.631-1.704-1.75-1.148-2.983-2.739-3.699-4.773-.705-2.045-.835-4.426-.392-7.142.432-2.682 1.33-5.028 2.693-7.04 1.364-2.011 3.097-3.574 5.199-4.687 2.102-1.125 4.472-1.688 7.108-1.688 2.66 0 4.864.574 6.614 1.722 1.75 1.136 2.983 2.727 3.698 4.773.716 2.045.853 4.426.41 7.142-.444 2.67-1.353 5.011-2.728 7.022-1.375 2.012-3.108 3.58-5.199 4.705-2.09 1.114-4.448 1.67-7.073 1.67Zm.715-5.625c1.228 0 2.313-.346 3.256-1.04.955-.704 1.744-1.658 2.37-2.863.636-1.216 1.079-2.591 1.329-4.125.25-1.511.267-2.852.051-4.023-.216-1.182-.67-2.113-1.364-2.795-.681-.682-1.619-1.023-2.812-1.023-1.227 0-2.318.352-3.273 1.057-.954.693-1.744 1.648-2.369 2.864-.625 1.215-1.063 2.596-1.313 4.142-.238 1.5-.255 2.84-.05 4.022.204 1.17.653 2.097 1.346 2.779.693.67 1.636 1.005 2.83 1.005ZM61.4 54.5l4.363-26.182h6.904l-.75 4.62h.29c.795-1.535 1.903-2.745 3.323-3.631 1.432-.886 3.04-1.33 4.824-1.33 1.773 0 3.216.45 4.33 1.347 1.125.886 1.772 2.09 1.943 3.613h.273c.772-1.5 1.937-2.698 3.494-3.596 1.557-.91 3.295-1.364 5.216-1.364 2.42 0 4.272.779 5.557 2.335 1.284 1.557 1.687 3.75 1.21 6.58L99.445 54.5h-7.261l2.727-16.176c.216-1.466 0-2.557-.648-3.273-.648-.727-1.55-1.09-2.71-1.09-1.318 0-2.415.42-3.29 1.26-.875.83-1.415 1.927-1.62 3.29L83.934 54.5h-7.04l2.762-16.33c.193-1.295-.017-2.318-.63-3.068-.603-.761-1.506-1.142-2.71-1.142-.796 0-1.552.205-2.268.614-.704.398-1.3.96-1.79 1.687-.488.716-.806 1.557-.954 2.523L68.643 54.5H61.4Zm43.866 0 5.795-34.91h7.262l-2.148 13.126h.205c.431-.705 1.011-1.42 1.738-2.148.739-.739 1.642-1.352 2.711-1.84 1.068-.5 2.335-.75 3.801-.75 1.909 0 3.585.5 5.028 1.5 1.443.988 2.483 2.482 3.119 4.482.637 1.989.705 4.483.205 7.483-.477 2.92-1.358 5.387-2.642 7.398-1.273 2-2.801 3.517-4.585 4.551-1.773 1.023-3.654 1.534-5.642 1.534-1.409 0-2.569-.233-3.478-.699-.897-.466-1.596-1.05-2.096-1.755-.5-.716-.858-1.438-1.074-2.165h-.358l-.682 4.193h-7.159Zm9.29-13.09c-.25 1.556-.256 2.914-.017 4.073.25 1.159.727 2.063 1.432 2.71.715.637 1.653.955 2.812.955 1.193 0 2.25-.324 3.171-.972.931-.659 1.704-1.568 2.318-2.727.613-1.17 1.045-2.517 1.295-4.04.239-1.511.244-2.84.017-3.989-.227-1.147-.693-2.045-1.398-2.693-.704-.647-1.659-.971-2.863-.971-1.171 0-2.222.312-3.154.937-.92.625-1.693 1.512-2.318 2.66-.613 1.147-1.045 2.5-1.295 4.056Zm28.487 13.584c-1.659 0-3.097-.29-4.312-.869-1.205-.59-2.091-1.466-2.66-2.625-.568-1.16-.71-2.597-.426-4.313.25-1.454.722-2.67 1.415-3.647a8.449 8.449 0 0 1 2.574-2.387 12.8 12.8 0 0 1 3.358-1.38 23.502 23.502 0 0 1 3.835-.648 78.882 78.882 0 0 0 3.716-.46c.966-.148 1.688-.358 2.165-.63.477-.285.767-.705.869-1.262v-.103c.171-1.068-.028-1.897-.596-2.488-.557-.602-1.449-.904-2.677-.904-1.295 0-2.397.285-3.306.853-.898.568-1.54 1.29-1.927 2.164l-6.613-.545a11.028 11.028 0 0 1 2.676-4.125c1.204-1.17 2.653-2.068 4.347-2.693 1.693-.636 3.59-.955 5.693-.955 1.454 0 2.812.17 4.074.512 1.272.34 2.369.869 3.289 1.585a5.988 5.988 0 0 1 2.012 2.761c.42 1.114.505 2.45.255 4.006L157.856 54.5h-6.887l.614-3.63h-.205a9.46 9.46 0 0 1-2.045 2.164 9.628 9.628 0 0 1-2.779 1.449c-1.045.34-2.216.511-3.511.511Zm2.915-5.011c1.057 0 2.028-.21 2.915-.63.897-.433 1.636-1.012 2.215-1.74a5.283 5.283 0 0 0 1.125-2.471l.444-2.778c-.228.147-.557.278-.989.392-.42.113-.881.221-1.381.324-.488.09-.983.176-1.483.255-.5.068-.948.137-1.346.205-.875.125-1.659.324-2.352.596-.694.273-1.256.642-1.688 1.108-.432.455-.699 1.023-.801 1.705-.159.989.074 1.744.699 2.267.636.511 1.517.767 2.642.767Zm17.531 4.517 4.364-26.182h7.261L170.75 54.5h-7.261Zm8.744-29.59c-1.079 0-1.971-.359-2.676-1.075-.693-.727-.977-1.59-.852-2.59.125-1.023.614-1.887 1.466-2.592.852-.715 1.818-1.073 2.898-1.073 1.079 0 1.96.358 2.642 1.073.681.705.966 1.569.852 2.591-.114 1-.597 1.864-1.449 2.591-.841.716-1.801 1.074-2.881 1.074Z"/><rect width="165.954" height="63" x="184.023" y="6" fill="#F50057" rx="7.431"/><path fill="#fff" d="m208.807 31.546-.602 3.636h-10.773l.602-3.637h10.773ZM197.58 49l3.125-18.716c.204-1.265.621-2.314 1.25-3.148a6.004 6.004 0 0 1 2.352-1.875 7.43 7.43 0 0 1 3.046-.625c.742 0 1.413.057 2.011.17.606.114 1.045.217 1.318.308l-1.443 3.636a5.707 5.707 0 0 0-.67-.17 4.295 4.295 0 0 0-.841-.08c-.705 0-1.224.167-1.557.5-.326.326-.546.784-.659 1.375L202.409 49h-4.829Zm18.548.34c-1.78 0-3.254-.378-4.42-1.136-1.167-.765-1.989-1.825-2.466-3.181-.47-1.364-.557-2.951-.261-4.762.287-1.788.886-3.352 1.795-4.693a9.517 9.517 0 0 1 3.466-3.125c1.401-.75 2.981-1.125 4.739-1.125 1.772 0 3.242.383 4.409 1.148 1.166.758 1.988 1.818 2.466 3.182.477 1.363.568 2.95.272 4.761-.295 1.78-.901 3.341-1.818 4.682a9.748 9.748 0 0 1-3.466 3.136c-1.394.743-2.966 1.114-4.716 1.114Zm.478-3.75c.818 0 1.541-.23 2.17-.692.636-.47 1.163-1.106 1.58-1.91.424-.81.719-1.727.886-2.75.167-1.007.178-1.9.034-2.681-.144-.788-.447-1.41-.909-1.864-.455-.454-1.08-.682-1.875-.682-.818 0-1.546.235-2.182.705-.636.462-1.163 1.098-1.579 1.909-.417.81-.709 1.731-.875 2.761-.16 1-.171 1.894-.035 2.682.137.78.436 1.398.898 1.852.462.447 1.091.67 1.887.67ZM227.844 49l2.909-17.454h4.693l-.511 3.045h.182c.5-1.083 1.17-1.902 2.011-2.455.849-.56 1.762-.84 2.739-.84.242 0 .496.015.761.045.273.023.515.06.728.113l-.728 4.307c-.212-.075-.515-.136-.909-.181a8.12 8.12 0 0 0-1.102-.08c-.705 0-1.36.155-1.966.466a4.368 4.368 0 0 0-1.534 1.273 4.404 4.404 0 0 0-.807 1.886L232.685 49h-4.841Zm24.455-23.273h6.068l3.829 15.637h.273l8.989-15.637h6.068L273.662 49h-4.772l2.522-15.148h-.204l-8.5 15.034h-3.262l-3.5-15.09h-.193L253.208 49h-4.773l3.864-23.273Zm43.656 0h4.92l-2.5 15.114c-.28 1.697-.928 3.182-1.943 4.454-1.015 1.273-2.307 2.266-3.875 2.978-1.568.704-3.318 1.056-5.25 1.056s-3.56-.352-4.886-1.056c-1.326-.712-2.284-1.705-2.875-2.978-.591-1.272-.746-2.757-.466-4.454l2.5-15.114h4.92l-2.443 14.693c-.136.887-.068 1.675.205 2.364.28.69.742 1.231 1.386 1.625.644.394 1.44.591 2.386.591.955 0 1.819-.197 2.591-.59a5.26 5.26 0 0 0 1.921-1.626 5.29 5.29 0 0 0 .966-2.364l2.443-14.693Zm13.889 0L305.981 49h-4.921l3.864-23.273h4.92ZM327.565 46.315l-1.534-1.517 5.327-5.326h-13.381v-2.216h13.381l-5.327-5.319 1.534-1.525 7.952 7.952-7.952 7.951Z"/></svg>