<?xml version="1.0" standalone="no"?>
<!DOCTYPE svg PUBLIC "-//W3C//DTD SVG 20010904//EN"
 "http://www.w3.org/TR/2001/REC-SVG-20010904/DTD/svg10.dtd">
<svg version="1.0" xmlns="http://www.w3.org/2000/svg"
 width="83.000000pt" height="25.000000pt" viewBox="0 0 83.000000 25.000000"
 preserveAspectRatio="xMidYMid meet">

<g transform="translate(0.000000,25.000000) scale(0.100000,-0.100000)"
fill="#000000" stroke="none">
<path d="M500 124 l0 -55 33 3 c29 3 32 6 32 38 0 29 -4 36 -22 38 -13 2 -23
10 -23 18 0 8 -4 14 -10 14 -5 0 -10 -25 -10 -56z m58 -11 c5 -17 -26 -29 -40
-15 -6 6 -7 15 -3 22 9 14 37 9 43 -7z"/>
<path d="M580 125 c0 -30 5 -55 10 -55 6 0 10 25 10 55 0 30 -4 55 -10 55 -5
0 -10 -25 -10 -55z"/>
<path d="M240 108 c0 -21 5 -38 10 -38 6 0 10 14 10 31 0 38 24 35 28 -4 4
-34 22 -25 22 9 0 35 23 26 32 -12 5 -25 6 -23 5 11 l-2 40 -52 1 -53 1 0 -39z"/>
<path d="M375 141 c-3 -6 -4 -15 0 -20 3 -5 1 -12 -4 -16 -19 -11 1 -35 31
-35 28 0 29 2 26 38 -2 29 -8 38 -25 40 -11 2 -24 -2 -28 -7z m30 -11 c3 -5
-1 -10 -10 -10 -9 0 -13 5 -10 10 3 6 8 10 10 10 2 0 7 -4 10 -10z m5 -34 c0
-11 -19 -15 -25 -6 -3 5 1 10 9 10 9 0 16 -2 16 -4z"/>
<path d="M440 109 c0 -22 5 -39 10 -39 6 0 10 14 10 30 0 20 5 30 15 30 8 0
15 4 15 9 0 5 -11 9 -25 9 -22 0 -25 -5 -25 -39z"/>
<path d="M623 110 c0 -25 2 -35 4 -22 2 12 2 32 0 45 -2 12 -4 2 -4 -23z"/>
<path d="M652 137 c-7 -8 -9 -17 -5 -21 4 -4 8 -15 8 -24 0 -23 39 -22 43 1 3
12 -4 20 -17 24 -11 3 -18 9 -15 15 3 5 12 3 22 -4 13 -11 14 -11 10 2 -6 20
-32 24 -46 7z m38 -41 c0 -11 -19 -15 -25 -6 -3 5 1 10 9 10 9 0 16 -2 16 -4z"/>
<path d="M710 109 c0 -22 5 -39 10 -39 6 0 10 14 10 30 0 20 5 30 15 30 10 0
15 -10 15 -30 0 -16 5 -30 10 -30 6 0 10 14 10 30 0 20 5 30 15 30 10 0 15
-10 15 -30 0 -16 5 -30 11 -30 6 0 9 16 7 38 l-3 37 -57 1 -58 1 0 -38z"/>
<path d="M78 27 c11 -11 25 -15 35 -11 30 11 18 29 -18 29 -33 0 -34 -1 -17
-18z"/>
</g>
</svg>
