<?xml version="1.0" standalone="no"?>
<!DOCTYPE svg PUBLIC "-//W3C//DTD SVG 20010904//EN"
 "http://www.w3.org/TR/2001/REC-SVG-20010904/DTD/svg10.dtd">
<svg version="1.0" xmlns="http://www.w3.org/2000/svg"
 width="192.000000pt" height="192.000000pt" viewBox="0 0 192.000000 192.000000"
 preserveAspectRatio="xMidYMid meet">

<g transform="translate(0.000000,192.000000) scale(0.100000,-0.100000)"
fill="#000000" stroke="none">
<path d="M825 1812 c-22 -10 -46 -26 -53 -34 -10 -13 -26 -15 -72 -11 -101 10
-188 -39 -204 -115 -5 -19 -16 -31 -36 -39 -17 -7 -41 -30 -57 -56 -16 -25
-40 -53 -55 -63 -18 -12 -40 -48 -63 -101 -39 -91 -45 -159 -20 -218 9 -23 12
-52 8 -83 -4 -34 0 -59 13 -87 10 -22 18 -61 19 -86 2 -51 32 -104 64 -114 11
-3 28 -29 41 -63 13 -34 38 -71 60 -92 60 -56 70 -92 70 -246 l0 -134 58 -57
c69 -70 150 -114 256 -142 105 -28 158 -26 258 5 112 35 192 79 253 139 49 47
52 54 58 114 4 35 7 85 7 110 0 26 16 100 35 165 19 66 35 120 35 122 0 1 16
12 36 24 19 13 53 45 75 72 l39 50 0 112 0 113 -45 59 -44 59 -1 111 c0 103
-2 115 -31 172 -60 120 -195 239 -334 293 -71 28 -94 32 -205 36 -107 3 -131
1 -165 -15z m135 -17 c-8 -2 -32 -6 -52 -10 -21 -3 -51 -17 -68 -31 -91 -77
-37 -234 82 -234 44 0 52 -9 38 -44 -8 -22 -16 -26 -49 -26 -53 0 -80 12 -119
51 -64 65 -68 169 -9 236 40 46 79 62 142 61 28 0 43 -2 35 -3z m142 -14 c42
-11 100 -32 128 -46 l52 -27 -5 -41 c-3 -23 -11 -88 -18 -145 l-13 -103 -48
-45 c-26 -24 -57 -44 -70 -45 -13 0 -47 -4 -75 -8 l-53 -7 0 243 c0 196 3 243
13 243 8 0 48 -9 89 -19z m-142 -36 c17 -20 6 -43 -22 -47 -14 -2 -26 -13 -32
-31 -11 -32 1 -49 36 -52 18 -1 23 -7 23 -31 -1 -26 -5 -29 -37 -32 -52 -4
-88 30 -95 88 -4 36 -1 51 17 73 35 45 87 60 110 32z m-237 -22 c3 -5 1 -17
-3 -28 -5 -15 -15 -19 -41 -17 -19 2 -43 -4 -54 -12 -19 -15 -19 -15 13 -16
41 0 72 -16 72 -37 0 -11 -7 -14 -26 -10 -38 7 -87 -9 -114 -38 -13 -14 -27
-25 -32 -25 -4 0 -8 25 -8 56 0 52 3 59 39 95 36 36 43 39 94 39 31 0 58 -3
60 -7z m647 -78 l34 -35 -15 -138 -15 -137 28 -52 27 -51 -16 -76 c-16 -73
-24 -88 -38 -66 -4 6 -57 10 -125 10 l-119 0 -41 -59 -40 -60 0 -135 c0 -109
-3 -138 -16 -150 -8 -9 -19 -16 -24 -16 -5 0 -9 98 -10 225 l0 225 24 0 c13 0
30 8 37 18 11 14 11 15 -1 5 -8 -7 -24 -13 -37 -13 -18 0 -23 6 -23 25 0 14 5
25 12 25 16 0 48 31 48 47 0 20 -21 16 -27 -6 -3 -11 -11 -22 -19 -25 -11 -4
-14 4 -14 33 0 43 -5 40 115 57 39 5 61 17 102 51 31 27 54 55 57 71 2 15 13
80 22 145 11 69 22 117 29 117 6 0 26 -16 45 -35z m-410 15 c0 -5 -5 -10 -11
-10 -5 0 -7 5 -4 10 3 6 8 10 11 10 2 0 4 -4 4 -10z m-470 -99 c0 -10 -51 -33
-58 -27 -7 8 41 45 50 39 5 -2 8 -8 8 -12z m221 -13 c11 -13 36 -42 55 -65 24
-28 53 -49 87 -62 l52 -19 -30 -12 c-81 -32 -140 -13 -172 55 -14 29 -22 35
-42 33 -18 -2 -27 -11 -32 -32 -18 -67 -92 -92 -125 -41 -22 34 -12 57 21 49
22 -5 27 -1 44 39 32 75 100 101 142 55z m777 -49 l33 -64 -3 -134 -3 -135
-56 90 -57 89 16 113 c9 73 19 111 26 109 6 -2 26 -32 44 -68z m-968 1 c0 -5
-8 -10 -18 -10 -27 0 -42 -20 -42 -56 0 -75 89 -108 168 -64 42 24 68 22 79
-6 4 -12 -6 -29 -35 -56 -38 -35 -46 -38 -97 -38 -64 0 -105 18 -133 57 -38
55 -36 120 5 165 17 19 73 25 73 8z m-138 -72 c-4 -48 -26 -97 -44 -98 -12 0
-19 57 -9 82 8 20 47 68 56 68 1 0 0 -24 -3 -52z m587 -420 c1 -346 2 -337
-44 -319 -11 5 -28 4 -37 -1 -15 -7 -18 -4 -18 20 0 16 7 35 15 42 9 7 13 15
10 18 -14 14 -45 -34 -45 -68 0 -42 11 -55 56 -64 20 -5 35 -16 43 -32 16 -36
15 -39 -21 -40 -28 -1 -107 -10 -116 -13 -1 -1 2 -10 8 -20 9 -18 12 -19 38
-5 51 26 112 10 112 -32 0 -17 -40 -28 -72 -19 -20 5 -21 4 -7 -7 9 -7 14 -19
11 -26 -2 -9 6 -12 30 -10 30 3 33 0 36 -27 2 -16 1 -59 -3 -94 l-7 -63 -46 6
c-71 10 -143 48 -214 115 -88 82 -130 163 -158 305 -26 128 -32 299 -12 335
l14 23 26 -25 c23 -20 86 -57 99 -57 2 0 1 5 -3 12 -5 8 -2 9 12 4 10 -4 33
-10 49 -12 l30 -5 -32 15 c-39 18 -41 29 -11 50 29 21 67 20 96 -2 22 -17 22
-19 5 -34 -10 -9 -27 -18 -38 -22 -11 -3 -6 -4 10 -2 17 2 39 7 49 11 16 7 18
5 13 -8 -7 -19 8 -23 19 -6 4 8 9 8 17 0 18 -18 27 -13 27 14 0 14 5 25 10 25
19 0 10 59 -14 87 -30 36 -85 53 -162 52 l-59 -1 44 -10 c50 -11 45 -20 -21
-38 -26 -7 -58 -25 -74 -41 -26 -27 -29 -28 -46 -12 -25 22 -24 106 1 153 11
21 49 57 97 91 63 44 94 59 155 73 42 9 85 23 95 31 17 12 20 11 25 -13 4 -15
7 -174 8 -354z m-544 277 c20 -38 25 -40 78 -45 66 -6 73 -11 55 -39 -18 -29
-69 -42 -114 -30 -55 16 -89 88 -68 144 9 23 24 14 49 -30z m-99 -25 c15 -33
33 -65 40 -71 39 -32 -10 -54 -53 -24 -24 17 -47 82 -38 109 3 9 7 23 10 31 7
24 12 18 41 -45z m1159 -107 c22 -34 25 -47 25 -133 l0 -96 -95 -94 c-53 -51
-97 -103 -100 -114 -2 -12 -9 -51 -15 -87 -13 -76 -11 -73 -71 -127 -55 -50
-71 -48 -98 13 -18 41 -21 43 -75 49 -56 7 -56 8 -56 42 0 29 5 36 40 54 l40
20 0 135 c0 134 0 135 23 135 13 0 36 -13 52 -30 25 -26 36 -30 85 -30 52 0
59 3 91 38 68 71 89 108 106 186 9 42 18 76 19 76 2 0 15 -17 29 -37z m100
-30 c23 -34 25 -47 25 -139 0 -97 -1 -103 -29 -138 -16 -20 -31 -33 -34 -29
-10 19 -8 343 2 343 6 0 22 -17 36 -37z m-1056 -12 c-16 -44 -45 -66 -91 -66
-28 0 -44 6 -54 20 -22 30 -13 50 21 50 17 1 37 4 45 7 14 6 45 13 77 17 9 1
9 -6 2 -28z m-189 -22 c0 -41 47 -85 101 -94 45 -8 47 -23 6 -43 -36 -17 -71
-6 -107 34 -23 27 -30 44 -30 78 0 23 3 46 7 49 14 15 23 6 23 -24z m490 -39
c17 -12 30 -26 30 -31 0 -6 -11 -1 -25 10 -41 31 -78 35 -129 13 -52 -23 -55
-5 -3 21 39 20 87 15 127 -13z m458 4 c16 -11 22 -25 22 -52 0 -43 -7 -55 -37
-71 -33 -17 -51 -14 -78 14 -66 66 16 163 93 109z m-884 -179 c31 -37 34 -45
19 -45 -37 0 -92 57 -78 80 11 17 22 11 59 -35z m1106 -51 c0 -25 -8 -46 -27
-68 -20 -22 -35 -60 -52 -130 -14 -56 -31 -100 -39 -103 -8 -3 -27 7 -43 23
l-28 29 12 69 c11 67 14 71 84 142 40 41 78 74 83 74 6 0 10 -16 10 -36z
m-1037 -51 c18 -22 34 -93 19 -93 -14 0 -26 19 -45 68 -14 33 -14 42 -3 42 7
0 20 -8 29 -17z m629 -270 c7 -16 19 -37 27 -48 16 -19 15 -19 -11 -2 -15 10
-47 17 -73 17 -43 0 -45 1 -45 30 0 29 2 30 45 30 40 0 47 -3 57 -27z m198
-105 c-46 -43 -87 -78 -91 -78 -5 0 -9 24 -9 53 0 51 1 53 57 103 l58 51 34
-26 34 -26 -83 -77z m-672 -26 c68 -104 122 -164 198 -218 35 -25 64 -47 64
-49 0 -2 -17 1 -37 7 -79 21 -161 67 -218 120 l-60 56 -3 81 c-2 44 -2 81 1
81 2 0 27 -35 55 -78z m505 20 c51 -50 50 -76 -7 -120 -21 -16 -42 -22 -77
-22 l-49 0 0 88 c0 49 3 92 8 96 17 18 88 -6 125 -42z m257 -35 c0 -61 -1 -64
-45 -107 l-45 -44 0 69 c0 66 2 71 37 107 20 21 41 38 45 38 4 0 8 -28 8 -63z
m-128 -109 c-2 -29 -7 -56 -10 -60 -4 -4 -5 20 -4 52 2 33 7 60 10 60 4 0 5
-24 4 -52z"/>
<path d="M1119 1479 l-24 -20 28 17 c15 9 27 18 27 20 0 8 -8 4 -31 -17z"/>
<path d="M1241 1264 c-12 -27 -11 -28 4 -12 10 9 16 21 13 28 -2 7 -10 -1 -17
-16z"/>
<path d="M1146 1237 c-14 -11 -13 -12 9 -13 14 -1 25 2 25 6 0 16 -17 19 -34
7z"/>
<path d="M1095 1180 c-3 -5 -1 -10 4 -10 6 0 11 5 11 10 0 6 -2 10 -4 10 -3 0
-8 -4 -11 -10z"/>
<path d="M1030 989 c-7 -11 -10 -23 -7 -25 2 -2 9 7 15 21 14 30 7 33 -8 4z"/>
<path d="M640 1110 c-18 -12 -2 -12 25 0 13 6 15 9 5 9 -8 0 -22 -4 -30 -9z"/>
<path d="M1461 1073 c-13 -13 -20 -23 -14 -23 11 0 49 38 42 43 -2 2 -15 -7
-28 -20z"/>
<path d="M1090 810 c0 -5 4 -10 9 -10 6 0 13 5 16 10 3 6 -1 10 -9 10 -9 0
-16 -4 -16 -10z"/>
<path d="M1144 729 c-7 -11 27 -11 45 0 9 6 5 9 -13 9 -15 0 -29 -4 -32 -9z"/>
<path d="M1377 702 c-10 -10 -17 -27 -16 -38 0 -14 4 -12 13 9 7 16 19 33 27
38 8 5 9 9 3 9 -6 0 -18 -8 -27 -18z"/>
<path d="M1090 375 c-10 -12 -9 -16 4 -21 9 -3 23 -3 32 0 13 5 14 9 4 21 -16
19 -24 19 -40 0z"/>
</g>
</svg>
