<?xml version="1.0" standalone="no"?>
<!DOCTYPE svg PUBLIC "-//W3C//DTD SVG 20010904//EN"
 "http://www.w3.org/TR/2001/REC-SVG-20010904/DTD/svg10.dtd">
<svg version="1.0" xmlns="http://www.w3.org/2000/svg"
 width="703.000000pt" height="211.000000pt" viewBox="0 0 703.000000 211.000000"
 preserveAspectRatio="xMidYMid meet">

<g transform="translate(0.000000,211.000000) scale(0.100000,-0.100000)"
fill="#000000" stroke="none">
<path d="M665 2001 c-22 -10 -49 -27 -59 -37 -16 -15 -35 -19 -106 -19 -78 0
-91 -3 -129 -28 -31 -21 -49 -43 -64 -78 -12 -27 -29 -51 -38 -54 -10 -3 -34
-25 -53 -48 -20 -23 -54 -60 -76 -82 -58 -59 -100 -165 -100 -252 1 -39 7 -79
15 -93 9 -17 12 -43 8 -85 -4 -50 -2 -69 16 -103 13 -26 21 -60 21 -93 0 -48
3 -54 49 -98 30 -30 55 -66 66 -97 21 -56 39 -81 76 -99 31 -16 49 -70 49
-146 0 -30 3 -98 7 -151 l6 -98 59 -59 c73 -73 168 -124 279 -151 117 -28 162
-25 287 15 122 39 184 75 259 147 l51 51 7 116 c9 151 66 365 104 390 14 9 49
41 78 71 l53 55 0 133 0 132 -45 58 -45 57 0 120 0 120 -41 75 c-61 113 -174
219 -300 281 -125 62 -351 88 -434 50z m135 -21 c0 -5 -17 -10 -37 -10 -75 0
-143 -68 -143 -143 0 -86 57 -147 138 -147 43 0 43 0 40 -32 -3 -32 -4 -33
-58 -36 -48 -2 -61 1 -96 26 -51 37 -78 92 -77 157 0 58 18 97 62 139 40 39
171 74 171 46z m146 -18 c75 -20 194 -70 194 -82 0 -4 -9 -75 -20 -156 l-19
-149 -49 -46 c-44 -43 -53 -47 -112 -54 -36 -3 -73 -9 -82 -11 -17 -5 -18 12
-18 255 0 299 -11 274 106 243z m-146 -57 c0 -18 -5 -25 -20 -25 -11 0 -27
-11 -36 -25 -23 -35 -6 -75 31 -75 24 0 26 -3 23 -32 -3 -31 -5 -33 -42 -32
-55 2 -87 37 -94 103 -4 46 -2 53 26 81 24 24 39 30 71 30 37 0 41 -2 41 -25z
m-261 -4 c10 -7 11 -13 1 -31 -9 -17 -17 -20 -36 -16 -15 4 -37 -1 -57 -11
l-32 -18 30 -3 c56 -5 73 -12 78 -32 5 -18 0 -20 -41 -20 -49 0 -108 -27 -118
-55 -11 -27 -23 -15 -29 30 -14 88 54 165 144 165 25 0 52 -4 60 -9z m731
-130 c0 -9 -7 -76 -16 -150 l-15 -133 27 -54 c27 -54 27 -54 14 -139 -13 -80
-21 -98 -35 -75 -4 6 -61 10 -138 10 l-132 -1 -42 -63 -43 -63 0 -144 c0 -145
-5 -169 -37 -169 -10 0 -13 24 -13 96 0 89 1 95 17 83 15 -13 15 -12 0 12 -15
22 -17 52 -16 188 0 132 3 161 15 161 8 0 14 5 14 11 0 6 -7 9 -15 5 -12 -4
-15 3 -15 34 0 44 -4 42 113 59 62 9 74 15 120 57 29 26 53 49 55 50 2 1 12
62 23 135 29 201 22 186 74 143 25 -20 45 -44 45 -53z m-470 59 c0 -5 -7 -10
-16 -10 -8 0 -12 5 -9 10 3 6 10 10 16 10 5 0 9 -4 9 -10z m-510 -105 c0 -8
-8 -15 -18 -15 -10 0 -23 -5 -30 -12 -18 -18 -14 3 5 24 20 22 43 24 43 3z
m1080 -78 c29 -59 30 -64 30 -206 l0 -146 -65 100 c-44 66 -64 107 -60 120 2
11 10 66 17 122 11 99 12 102 30 86 10 -9 31 -43 48 -76z m-839 73 c10 -6 19
-17 19 -24 0 -28 78 -102 122 -116 24 -7 47 -17 51 -20 12 -11 -50 -30 -94
-30 -44 0 -103 44 -113 84 -12 48 -76 41 -76 -8 0 -56 -68 -92 -115 -62 -17
12 -25 26 -25 46 0 27 2 30 25 24 31 -8 51 8 58 45 12 60 90 92 148 61z m-218
-58 c-29 -4 -53 -38 -53 -75 0 -76 112 -117 182 -66 32 23 61 24 77 5 17 -20
1 -47 -46 -83 -71 -54 -192 -31 -237 46 -49 84 3 204 79 182 19 -5 19 -6 -2
-9z m-132 -73 c-3 -49 -41 -126 -55 -112 -3 4 -6 28 -6 54 0 40 5 52 31 78 17
17 31 31 32 31 1 0 0 -23 -2 -51z m619 -429 l0 -381 -21 12 c-12 6 -34 8 -50
5 -25 -5 -29 -3 -29 18 0 13 7 29 15 36 8 7 15 19 15 28 0 12 -6 10 -25 -8
-19 -17 -25 -34 -25 -63 0 -49 23 -77 61 -77 21 0 32 -7 44 -30 20 -38 20 -36
-17 -38 -103 -3 -123 -8 -123 -28 0 -20 8 -21 72 -8 51 10 83 -2 83 -32 0 -31
-22 -40 -68 -26 -36 11 -36 10 -17 -6 11 -9 19 -24 17 -33 -2 -12 5 -14 33
-11 l35 4 0 -96 0 -96 -48 0 c-73 0 -162 48 -247 134 -89 90 -120 148 -152
288 -32 143 -39 366 -11 394 15 15 17 15 27 -5 12 -22 109 -73 113 -59 2 5 18
3 36 -3 33 -11 111 -8 146 6 17 7 17 6 6 -16 l-13 -23 28 18 c27 18 29 18 42
0 12 -16 13 -14 13 20 0 22 4 35 10 31 6 -4 10 10 10 35 0 62 -36 94 -125 109
-48 9 -82 10 -110 3 l-40 -10 45 -1 c69 -2 78 -15 19 -30 -32 -9 -67 -27 -91
-49 -37 -34 -39 -34 -58 -17 -15 14 -20 31 -20 75 0 75 30 120 127 189 59 42
90 57 142 68 36 8 82 22 101 32 19 10 38 19 43 20 4 0 7 -170 7 -379z m-589
298 c10 -13 18 -30 19 -38 0 -28 23 -40 75 -40 69 0 81 -10 56 -42 -39 -49
-132 -42 -171 11 -26 38 -28 131 -2 131 2 0 12 -10 23 -22z m-41 -143 c16 -10
2 -25 -23 -25 -60 0 -100 76 -77 146 l13 38 38 -76 c21 -42 43 -79 49 -83z
m1189 -29 c18 -28 21 -49 21 -137 l0 -104 -100 -100 -99 -100 -19 -98 c-19
-96 -20 -100 -72 -152 -50 -51 -54 -53 -75 -39 -13 8 -26 27 -30 42 -12 48
-33 62 -92 62 l-53 0 0 41 c0 38 3 42 39 57 48 21 51 31 51 198 0 142 4 147
69 89 35 -32 43 -35 102 -35 l64 0 45 52 c77 89 80 95 97 177 9 45 19 81 24
81 4 0 17 -15 28 -34z m104 -25 c26 -37 27 -45 27 -151 0 -105 -2 -113 -26
-146 -15 -19 -30 -34 -35 -34 -5 0 -9 83 -9 185 0 102 3 185 8 185 4 0 19 -18
35 -39z m-1129 -13 c-15 -52 -63 -82 -115 -71 -33 6 -56 40 -46 67 5 11 12 13
28 8 13 -5 36 -4 58 4 20 7 46 13 59 14 20 0 22 -4 16 -22z m-204 -18 c0 -53
61 -110 118 -110 29 0 37 -19 16 -35 -45 -34 -117 -7 -149 55 -15 30 -20 91
-8 103 12 13 23 7 23 -13z m493 -34 c18 -7 41 -24 52 -37 l20 -23 -34 24 c-42
29 -116 32 -155 7 -14 -10 -26 -13 -26 -8 0 11 39 37 65 44 34 8 45 7 78 -7z
m510 -7 c30 -16 37 -28 37 -71 0 -28 -6 -42 -26 -57 -36 -28 -60 -26 -95 8
-34 35 -37 68 -8 105 22 28 56 34 92 15z m-502 -49 l24 -20 -24 -20 c-26 -23
-58 -25 -96 -8 -31 14 -32 31 -2 51 31 22 70 21 98 -3z m-432 -143 c28 -36 31
-43 16 -45 -26 -6 -70 31 -73 61 -5 39 17 33 57 -16z m1181 -62 c0 -34 -6 -52
-28 -77 -16 -18 -32 -46 -36 -63 -26 -112 -50 -185 -60 -185 -7 0 -26 15 -43
33 l-31 32 16 75 c16 73 19 77 93 153 43 42 80 77 83 77 3 0 6 -20 6 -45z
m-1113 -43 c16 -10 33 -57 33 -90 0 -23 -2 -24 -14 -12 -24 24 -57 110 -43
110 7 0 17 -4 24 -8z m671 -284 c7 -7 12 -19 12 -27 0 -8 10 -26 23 -40 l22
-26 -26 23 c-19 17 -38 22 -77 22 -51 0 -52 1 -52 30 0 29 2 30 43 30 24 0 48
-5 55 -12z m299 -45 c2 -5 -36 -45 -84 -87 l-88 -78 -3 58 -3 58 57 53 58 52
30 -23 c16 -12 31 -27 33 -33z m-787 -122 c67 -103 142 -181 223 -236 57 -39
55 -42 -16 -20 -79 24 -160 73 -217 130 l-54 54 -4 88 c-2 48 -2 86 1 83 3 -3
33 -47 67 -99z m521 48 c35 -27 39 -36 39 -74 0 -59 -35 -85 -114 -85 l-56 0
0 95 0 95 46 0 c36 0 54 -6 85 -31z m288 -72 c1 -33 -6 -45 -50 -90 l-50 -52
3 77 c3 75 5 79 43 118 l40 41 6 -28 c4 -15 7 -45 8 -66z m-149 -154 c-9 -14
-10 -7 -6 31 3 27 7 58 8 70 1 12 3 -3 5 -31 2 -29 -1 -61 -7 -70z"/>
<path d="M973 1644 l-28 -26 33 22 c29 20 39 30 28 30 -3 0 -18 -12 -33 -26z"/>
<path d="M1102 1418 c-7 -7 -12 -16 -12 -22 0 -5 -10 -20 -22 -33 -12 -13 -19
-25 -16 -28 2 -3 19 16 37 41 31 43 39 68 13 42z"/>
<path d="M874 1375 c-8 -21 6 -41 17 -24 12 19 11 39 -1 39 -6 0 -13 -7 -16
-15z"/>
<path d="M984 1368 c-15 -18 -16 -20 -2 -9 10 7 25 11 33 7 9 -3 15 0 15 9 0
22 -24 18 -46 -7z"/>
<path d="M945 1319 c-4 -6 -5 -12 -2 -15 2 -3 7 2 10 11 7 17 1 20 -8 4z"/>
<path d="M899 1283 c-13 -16 -12 -17 4 -4 9 7 17 15 17 17 0 8 -8 3 -21 -13z"/>
<path d="M870 1115 c-7 -9 -8 -15 -2 -15 5 0 12 7 16 15 3 8 4 15 2 15 -2 0
-9 -7 -16 -15z"/>
<path d="M440 1240 c-13 -9 -13 -10 0 -10 8 0 22 5 30 10 13 9 13 10 0 10 -8
0 -22 -5 -30 -10z"/>
<path d="M1331 1204 c-13 -13 -20 -24 -14 -24 5 0 20 11 33 25 30 32 13 31
-19 -1z"/>
<path d="M1085 869 c-27 -16 -46 -29 -42 -29 13 0 85 39 92 50 8 13 10 13 -50
-21z"/>
<path d="M992 837 c-9 -11 -8 -13 6 -12 19 1 29 18 14 23 -5 1 -14 -3 -20 -11z"/>
<path d="M1258 819 c-24 -13 -46 -53 -26 -47 7 3 13 10 13 16 0 6 9 18 20 26
23 17 19 20 -7 5z"/>
<path d="M942 459 c-10 -16 -10 -21 4 -26 8 -3 22 1 30 8 12 12 11 16 -4 26
-15 9 -21 7 -30 -8z"/>
<path d="M4210 1065 l0 -465 80 0 80 0 0 36 0 36 33 -29 c91 -80 269 -66 367
29 57 56 84 129 88 235 5 124 -14 187 -80 259 -99 108 -276 128 -373 42 l-35
-30 0 176 0 176 -80 0 -80 0 0 -465z m410 33 c47 -32 68 -66 79 -123 26 -140
-47 -245 -169 -245 -69 0 -113 26 -148 85 -19 34 -22 51 -20 120 3 89 24 130
82 166 45 28 133 26 176 -3z"/>
<path d="M4940 1065 l0 -465 80 0 80 0 0 465 0 465 -80 0 -80 0 0 -465z"/>
<path d="M5224 1509 c-29 -32 -26 -115 5 -140 34 -28 96 -25 126 6 32 31 34
91 4 129 -17 22 -29 26 -68 26 -36 0 -53 -5 -67 -21z"/>
<path d="M2265 1241 c-23 -10 -53 -33 -68 -50 l-27 -33 0 46 0 46 -80 0 -80 0
0 -325 0 -325 80 0 80 0 0 208 c0 227 6 254 62 295 40 30 110 27 144 -4 49
-45 54 -72 54 -294 l0 -205 79 0 80 0 3 224 3 225 29 30 c52 54 125 61 175 17
46 -41 51 -71 51 -291 l0 -205 80 0 80 0 0 223 c0 250 -9 302 -61 361 -16 19
-50 45 -75 57 -90 43 -234 9 -293 -68 -20 -27 -21 -27 -33 -8 -50 85 -184 121
-283 76z"/>
<path d="M3252 1241 c-72 -25 -138 -90 -157 -155 -8 -27 -15 -51 -15 -53 0 -2
31 -3 70 -3 l70 0 14 35 c20 46 69 75 129 75 84 0 127 -35 127 -103 0 -44 -8
-47 -125 -47 -115 0 -189 -24 -234 -75 -81 -92 -56 -242 50 -295 88 -46 212
-34 274 25 l35 32 0 -38 0 -39 80 0 80 0 0 228 c0 133 -5 244 -11 267 -16 57
-93 129 -160 149 -70 21 -162 20 -227 -3z m238 -386 c0 -42 -18 -81 -54 -114
-20 -19 -40 -26 -85 -29 -54 -4 -62 -2 -85 21 -31 31 -35 84 -8 117 22 27 66
38 160 39 l72 1 0 -35z"/>
<path d="M5610 1251 c-52 -17 -90 -42 -117 -77 -22 -30 -28 -49 -31 -103 -6
-119 45 -169 202 -198 104 -19 146 -42 146 -80 0 -50 -33 -73 -102 -73 -58 0
-89 18 -111 63 l-19 37 -70 0 -70 0 6 -37 c12 -64 55 -123 116 -157 51 -29 62
-31 150 -31 77 0 102 4 135 22 78 41 115 98 115 176 0 90 -37 151 -109 179
-22 8 -180 38 -203 38 -5 0 -17 9 -28 20 -73 73 68 153 149 85 16 -14 33 -35
36 -45 6 -17 16 -20 77 -20 l71 0 -6 36 c-16 98 -110 166 -237 171 -41 1 -86
-1 -100 -6z"/>
<path d="M6291 1245 c-18 -8 -49 -32 -67 -52 l-34 -37 0 47 0 47 -80 0 -80 0
0 -325 0 -325 80 0 80 0 0 203 c0 177 3 207 19 244 11 23 31 49 45 58 34 22
108 23 141 1 49 -32 55 -66 55 -296 l0 -210 80 0 80 0 0 208 c0 226 6 254 61
295 34 25 109 26 144 3 49 -32 55 -66 55 -296 l0 -210 80 0 80 0 0 234 c0 260
-6 295 -63 355 -91 96 -240 96 -339 1 -27 -26 -48 -43 -48 -39 0 18 -58 74
-95 90 -49 23 -146 24 -194 4z"/>
<path d="M3740 925 l0 -325 79 0 79 0 4 198 c3 172 6 202 23 237 31 61 74 85
156 85 l69 0 0 65 0 65 -65 0 c-77 0 -111 -15 -154 -67 l-31 -38 0 53 0 52
-80 0 -80 0 0 -325z"/>
<path d="M5210 925 l0 -325 80 0 80 0 0 325 0 325 -80 0 -80 0 0 -325z"/>
</g>
</svg>
