<svg width="256" height="256" fill="none" xmlns="http://www.w3.org/2000/svg"><path d="m117.1 59.2 12.2-.8c.4 0 .6-.2.6-.7l.2-4.7" stroke="#656567" stroke-width="2.4"/><path d="m130.2 53-.2-2.3c0-.5-.2-.7-.7-.7-7.7 1.2-15.1-.8-19.4-7.8-4.3-7-4.1-14.2.6-21.3 4.4-6.7 11.6-8.2 19.1-7.7a.4.4 0 0 0 .4-.4l.2-1a.4.4 0 0 0 0-.2.4.4 0 0 0-.3-.1c-10.6-1.1-18.8 2-24.6 9.4-1.9 2.3-3.2 3.7-4 6.8-3.7 15 1.6 25.5 16 31.5" stroke="#787878" stroke-width="2.4"/><path d="M130.2 53c-11.6 2.4-20.2-1.3-25.6-11l-2.1-3.8c-.3-.5-.4-.5-.4 0 0 3.6.8 6.8 2.5 9.4 3 5 7 8.3 12.2 10 .4.2.6.8.3 1.6" stroke="#DDDDDF" stroke-width="2.4"/><path d="M135 66v2.2" stroke="#656567" stroke-width="2.4"/><path d="M135 68.2v9c0 .4.3.6.8.6l18-2.4c1.3-.2 2.5-.7 3.5-1.7 4-3.1 7.5-6.3 10.6-9.4.3-.4.5-.8.5-1.2l5-38.4c0-.4-.2-.7-.5-1-9.5-5-19.5-8.7-30.1-10.8-2.4-.5-4.8-.7-7.1-.8-.4 0-.6.2-.6.6V66" stroke="#7F7F7F" stroke-width="2.4"/><path d="M135 68.2c2.8.2 5.6 0 8.7-.8.4-.2.7-.4.8-.7l1.7-3.2" stroke="#E3E4E6" stroke-width="2.4"/><path d="m146 63.4 1.5-2c3.1-3.2 6.5-6.5 10.1-9.6" stroke="#BEBCBD" stroke-width="2.4"/><path d="m157.8 51.8 1.1 1.9c.4.4.7.4 1.1 0 2.4-2 4.7-1 6.4-4.4.2-.5.6-.8 1.2-.8.4 0 .7-.1 1-.4.2-.2.4-.5.5-1l.5-5.4v-.4c0-.2-.1-.3-.4-.4-.3-.1-.5 0-.7.2-.7 1.6-1.4 3.2-2.8 4-2 1-3.6 2.3-5 3.8-.8.9-1.8 1.2-2.7 1.7" stroke="#E3E4E6" stroke-width="2.4"/><path d="M158 50.6c-3.6 1-6.1 2.3-7.7 3.9-1.2 1.3-2.7 4-4.7 8.3" stroke="#BEBCBD" stroke-width="2.4"/><path d="M145.6 62.8c-1.7.7-3.3 1.6-4.6 2.8-.3.2-.6.3-1 .2-1.7-.1-3.4 0-5 .3" stroke="#E3E4E6" stroke-width="2.4"/><path d="M157.8 51.8c.3.2.4-.2.2-1.2m-12 12.8c-.4.1-.6 0-.5-.5" stroke="#A4A3A6" stroke-width="2.4"/><path d="M123.7 45.9c2 .3 3.9.2 5.6-.3.4 0 .6-.2.7-.7v-4.7" stroke="#656567" stroke-width="2.4"/><path d="M130.1 40.3v-2.7c0-.4-.2-.5-.6-.5H127c-2.5.1-4.2-.7-5-2.4" stroke="#7F7F7F" stroke-width="2.4"/><path d="M122 34.7c-1.1-6.1 1-9.4 6.6-10" stroke="#656567" stroke-width="2.4"/><path d="M128.6 24.7c1.6.3 2-1.6 1.4-5.5 0-.4-.3-.7-.7-.7-12.3-2.7-20 7-16.2 18.6 1.8 5.3 5.4 8.2 10.6 8.8" stroke="#7F7F7F" stroke-width="2.4"/><path d="M128.6 24.7c-3.6-1.5-7.6.5-9 4.2-1 2.4-.2 4.3 2.4 5.8m8.1 5.6c-7.9.5-14-1-16-9.4a.2.2 0 0 0-.1-.1.2.2 0 0 0-.2 0c-.6 5.3 1.7 11.9 7.3 13l2.4.4c.4.1.6.4.7.8 0 .4-.1.6-.5.9" stroke="#E3E4E6" stroke-width="2.4"/><path d="M70.7 36.4a28 28 0 0 0 1.6 11.4.6.6 0 0 0 .8 0l2.6-3.1c4.5-5.5 10.7-7.5 18.4-5.8" stroke="#656567" stroke-width="2.4"/><path d="M94 38.9c.3.2.6.2.8.1.3 0 .5-.2.5-.6.1-3.2-1.4-5.2-4.8-5.9-3-.6-5.7-.8-8.1-.4-.7 0-.8-.2-.2-.6 4.3-4.1 8.7-5 13.3-2.4.4.2.6.1.7-.4.3-2 1-4 2.3-5.6.3-.6.1-.9-.5-1-.5 0-1.3-.2-2.4-.7-1-.4-4-.5-9-.3-2.3 0-4.4.5-6.1 1.6-5.3 3.2-9 7.3-9.8 13.7" stroke="#7F7F7F" stroke-width="2.4"/><path d="M94 38.9c0-2-2-3-6-2.7-4.5.2-8.3 1.9-11.3 5a1 1 0 0 1-1.4-.3L73 36.4c-.3-.6-.6-.6-.9 0l-.4.6c-.3.3-.5.3-.8 0v-.6" stroke="#E3E4E6" stroke-width="2.4"/><path d="M135.3 92.8c.2.3.2.7 0 1.1" stroke="#2B2B2B" stroke-width="2.4"/><path d="M135.2 94c-.3 2.7-.3 5.4 0 8 0 .3.1.4.4.3" stroke="#656567" stroke-width="2.4"/><path d="M135.6 102.3v.6" stroke="#2B2B2B" stroke-width="2.4"/><path d="m135.6 103-.5 21.5" stroke="#787878" stroke-width="2.4"/><path d="M135 124.5v12.3" stroke="#656567" stroke-width="2.4"/><path d="M135 136.8c.4.9.5 1.3.2 1.3" stroke="#2B2B2B" stroke-width="2.4"/><path d="m135.2 138.1-.1 10.2" stroke="#656567" stroke-width="2.4"/><path d="m135 148.3.6 15.8v.1a38.4 38.4 0 0 0 5.6-3.2l.8-37.8c0-.4.2-.8.4-1.1l9.8-14.3c.2-.4.6-.6 1-.6 9.8-.3 19.8-.4 30-.4 2 0 3.3 1.6 4.6 2.9a1.2 1.2 0 0 0 1.7-.8c.7-6 1.7-12 3.1-17.9.6-2.1.2-4-1-5.8-2.5-3.5-6.2-9.3-5.5-13.8a369.6 369.6 0 0 0 3.5-34.7c0-.2-.2-.4-.3-.5a340.8 340.8 0 0 0-11.2-9 .3.3 0 0 0 0 .1v.1l-6 38.7c0 .4-.1.8-.5 1.2L158.2 79a200.3 200.3 0 0 1-22.4 3.4c-.5 0-.7.2-.6.7l.1 9.6" stroke="#787878" stroke-width="2.4"/><path d="M135 148.3c.7.5 1.5.6 2.3.5.7 0 1 .2 1.2.7l.2 1.1c0 .3.2.4.5.3.2 0 .3 0 .4-.3.4-2.6.4-5.5-.2-8.5" stroke="#DDDDDF" stroke-width="2.4"/><path d="M139.4 142.1c-.2-.6-.3-1.1-.2-1.6" stroke="#A3A3A3" stroke-width="2.4"/><path d="M139.2 140.5c.8-4.8.8-9.7.1-14.5" stroke="#DDDDDF" stroke-width="2.4"/><path d="m139.3 126 6.2-11.5c.1-.3 0-.4-.3-.4a5.6 5.6 0 0 0-2.7 2.3 42.7 42.7 0 0 1-6.6 7.8" stroke="#B7B6B7" stroke-width="2.4"/><path d="M135.9 124.2c-.2.2-.5.3-.8.3" stroke="#DDDDDF" stroke-width="2.4"/><path d="M135.6 103h4.8a2 2 0 0 0 1.2-.4l5.2-4.3a.7.7 0 0 1 .6-.1c.2 0 .4.1.4.4.3.5.7.5 1.2 0l.6-1" stroke="#A3A3A3" stroke-width="2.4"/><path d="m149.5 97.6 5.7.8.6.3c.2 0 .4.3.5.4a9.7 9.7 0 0 1 1.2 5.2.7.7 0 0 0 .6.8c1.4 0 2.4-.7 2.8-2.2 1-2.9 1.5-5.5 1.2-7.8" stroke="#DDDDDF" stroke-width="2.4"/><path d="m162.1 95.1 8.4-10.6a1.4 1.4 0 0 0 .3-1.5c-.6-1.1-.5-2.1.2-3V80l-.4-.1a.5.5 0 0 0-.4 0l-3.7 6.5" stroke="#A3A3A3" stroke-width="2.4"/><path d="m166.5 86.4-4.7-1c-.4 0-.7-.3-1-.7l-.2-.4c0-.6-.3-.7-.8-.5-.8.4-1.5.9-2 1.5-.6 1-2.2 1.2-3.1 2a5.3 5.3 0 0 1-4 1.3c-1.3-.1-1.4-.6-.5-1.5a5 5 0 0 0 1.8-3.4.7.7 0 0 0-.3-.5l-.3-.1c-2.5-.3-4.8-.3-7.1.2" stroke="#DDDDDF" stroke-width="2.4"/><path d="M144.2 83.4c-.8 0-1.6.2-2.3.6" stroke="#A3A3A3" stroke-width="2.4"/><path d="M142 84a4 4 0 0 0-.9 1.7c0 .4-.3.6-.7.6h-.8c-.4 0-.7.1-1 .4a9.8 9.8 0 0 0-1.8 5.4" stroke="#DDDDDF" stroke-width="2.4"/><path d="M136.8 92c-.4.5-.9.8-1.4.8" stroke="#A3A3A3" stroke-width="2.4"/><path d="M139.4 142.1c-1 0-1.6-.2-1.7-.8a5.6 5.6 0 0 0-2.6-3.2m1.7-46c1.5-.6 2.5-2 3.1-4.2 0-.4.3-.6.7-.8l1.2-.4c.3-.1.6-.4.7-.7 0-.4-.1-.6-.3-.8a.8.8 0 0 1-.4-.7l.1-.5m20.2 11.1c-.8-1.5 0-3.2 2.3-5a5.9 5.9 0 0 0 2.1-3.8m-17 11.3c1-3.4 3-6 5.9-7.8a1 1 0 0 1 1 0c1 .7 2.2 1.2 3.5 1.5 1 .3 1.2 0 .7-.9a8.9 8.9 0 0 1-1.5-3.7.7.7 0 0 0-1-.4c-2.2 1-4.2 1.9-5.5 4.1-1.3 2-2.8 3.6-4.4 5-.3.2-.5.5-.6 1-.2 1-.8 1.6-1.9 1.6-.4 0-.7.1-1 .4l-2.7 2.9c-.3.2-.7.4-1.1.4-1.1.4-2.4.4-3.8.2-.6 0-1 .1-1.5.4" stroke="#909092" stroke-width="2.4"/><path d="m135.2 94 2.1 1c.3.2.7.1 1-.1.7-.8.9-1.7.6-2.7-.2-.5 0-.7.5-.6.7 0 1 .3 1.2 1a.4.4 0 0 0 .6 0c1.2-1 1.8-1.8 2-2.5.1-2.3.5-4.5 1-6.8" stroke="#909092" stroke-width="2.4"/><path d="M139.3 126c-.4.6-.8.8-1.2.7-.5-.3-.6-1-.2-2.4m0 0Zm0 0-1 .6a.6.6 0 0 1-.5.2c-.5 0-.7-.3-.5-.8" stroke="#A4A3A6" stroke-width="2.4"/><path d="M139.2 140.5c-1-.6-1.9-1.7-2.4-3.4 0-.6-.3-.7-.8-.4-.2.2-.5.2-1 .1" stroke="#909092" stroke-width="2.4"/><path d="m126.7 32.5 3.5-.8a.4.4 0 0 0 .2-.5V31l-.3-.6-.6-.4a2 2 0 0 0-.7-.2l-.8.1-.4.1-.6.3a2 2 0 0 0-.6.5l-.2.6V32.3a.3.3 0 0 0 .2.2.4.4 0 0 0 .3 0Z" stroke="#656567" stroke-width="2.4"/><path d="M206.2 65.4c-.2-7.6-6.3-17.2-11.4-22.6a.4.4 0 0 0-.3-.1.4.4 0 0 0-.2.2L190 73.2c0 .4.1.8.3 1.1l15 24c.4.6.7.6.7-.2.4-10.6.4-21.6 0-32.7M57.7 49a11 11 0 0 1 7.6-3.2c.5 0 .8-.3.7-.9l-.4-2.3c0-.3-.2-.4-.5-.5-.9-.1-1.7-.2-2.4.4-2.2 1.5-4 3.4-5.5 5.5-.2.2-.2.4 0 .6v.4a.2.2 0 1 0 .5 0Z" stroke="#787878" stroke-width="2.4"/><path d="M116.7 67.7c1.7.2 3.3-.6 5-2.3.1-.4 0-.5-.3-.6l-11-3" stroke="#656567" stroke-width="2.4"/><path d="M110.4 61.8a28.6 28.6 0 0 1-11.8-12.6c-1-3.4-3.4-5.3-7.1-5.6-9-.8-14.1 3.1-15.4 11.6-.4 3.5-4.6 5-7.5 3.2a1.5 1.5 0 0 0-2.4 1.2c-.1 5.5 2.1 8.6 6.9 9.4 6.7 1 11.2-3.9 11.3-10.4.2-4.2 5-5.4 8-3 .3.3.5.7.6 1 2.8 7.1 7.1 11.4 13 13 3.2.8 6.7.2 10.7-1.9" stroke="#7F7F7F" stroke-width="2.4"/><path d="M110.4 61.8c-3 1.8-6.3 1.3-9.6-1.5-3.2-2.7-4.7-8-8.7-9.2-4.7-1.6-8.2-.4-10.3 3.5-1.2 2-1.2 4.5-2.7 6.3-3 3.4-6.7 3.5-10.9.3-.4-.3-.6-.2-.6.4.3 3.7 2.2 5.7 6 5.9 5.7.3 8.8-2.7 9.3-9.1a6.1 6.1 0 0 1 5.4-5.6c2.4-.2 5.4 1.5 6.3 4A15.4 15.4 0 0 0 104 67c2.8 1 7 1.2 12.7.6" stroke="#E3E4E6" stroke-width="2.4"/><path d="m94.2 74.8 1.9-2.8a1 1 0 0 0 0-1.2 8.2 8.2 0 0 0-4.7-3.3" stroke="#656567" stroke-width="2.4"/><path d="M91.4 67.5c-2.7-.5-5 1.5-6.8 3-3.2 2.9-8.5 3.4-12.5 2.8a11.8 11.8 0 0 1-9.8-16.6c1.2-3.1 3.8-4.3 7.8-3.5 1.1.2 1.2 0 .4-.7-2.5-2-5.1-2.4-8-1-4.7 2.4-7 9-6.8 13.9.4 13 12.3 20.4 24.7 18.5 5.7-.8 10.3-3.8 13.8-9" stroke="#787878" stroke-width="2.4"/><path d="M91.4 67.5C84.6 84 64 80.7 58.3 65.7c-1-2.6-1.4-2.5-1.2.4A18 18 0 0 0 76 82.6a23 23 0 0 0 17.1-8c.3-.1.5-.2.9-.1.2 0 .3 0 .3.3" stroke="#DDDDDF" stroke-width="2.4"/><path d="M52.2 56.9c.7-1.7.4-2-1.1-1-7.9 5-10 12-6.3 21 .3.7.5.7.7 0 .8-2.5 2.4-4.6 4.6-6.5a1.7 1.7 0 0 0 .6-1.1c.3-3.7-.3-9.4 1.5-12.6" stroke="#787878" stroke-width="2.4"/><path d="M82.3 107.4a42.3 42.3 0 0 1 33-2.8 13 13 0 0 1 10 12.5l.6 9.2" stroke="#7F7F7F" stroke-width="2.4"/><path d="M125.9 126.3c-.7-.3-1-1.3-.9-3 0-.8-.2-1.4-.7-1.8l-.3-.3a.6.6 0 0 0-.5 0 .6.6 0 0 0-.4.3c-.5 2.7-.9 5.5-1.1 8.2 0 .7-.2 1.2-.6 1.7-.4.5-.5.4-.4-.1.6-2 .1-3.5-1.4-4.4-1.2-.6-2.2-.3-3.2.8" stroke="#787878" stroke-width="2.4"/><path d="M116.4 127.7a10 10 0 0 1-3.9 2.2" stroke="#7F7F7F" stroke-width="2.4"/><path d="m112.5 129.9 1.4-2.5c2.2-3 1.6-3.6-1.6-2-6.9 3.6-14 3.5-21.3-.4-2-1-2.5-.5-1.5 1.6l1.2 2.3" stroke="#787878" stroke-width="2.4"/><path d="M90.7 129c-2.3-2-3.9-3.1-4.8-3.3" stroke="#7F7F7F" stroke-width="2.4"/><path d="M85.8 125.7a34.8 34.8 0 0 0-5.2-3c-1.8-.9-3.1-1.8-4-2.8a23.2 23.2 0 0 1-3-4.2.7.7 0 0 0-1 .2c-2.4 4-3.6 8.6-3.6 13.6 0 15.5 1.9 30.3 5.5 44.4 5 19.5 16.5 34 34.4 43.5 7.4 4 14.5 5.3 21.2 4" stroke="#787878" stroke-width="2.4"/><path d="M130 221.4V214" stroke="#656567" stroke-width="2.4"/><path d="M130.1 214v-15.7c0-.4-.2-.7-.7-.8-2.8-.3-5.6.2-8.3 1.5" stroke="#7F7F7F" stroke-width="2.4"/><path d="M121.3 199a5 5 0 0 1 .9-4.4c.2-.3.2-.6-.1-.7l-4.7-2.6" stroke="#656567" stroke-width="2.4"/><path d="m117.4 191.3-.4-.5a.4.4 0 0 1 0-.5.4.4 0 0 1 .6 0c3.8 1.6 7.8 2 12 1.3a.7.7 0 0 0 .6-.7l-.2-4.7a1.3 1.3 0 0 0-.6-1c-1-.7-2-1.2-3.4-1.5-6-.7-10.4.3-13.2 3-.4.4-.8.4-1 0l-2-3.2c-.2-.4-.3-.8-.1-1.2.4-1.6 1.4-2.4 3-2.6.2 0 .5 0 .8.2.4.4.6.8.6 1.2 0 .5.2.7.7.6.2 0 .4-.3.7-.6" stroke="#7F7F7F" stroke-width="2.4"/><path d="M115.5 181.2a107 107 0 0 0 7.2-1.8c2.5-.8 4.2-.2 6.5.4.4.2.7 0 .8-.4.2-.6 0-1.1-.2-1.6" stroke="#656567" stroke-width="2.4"/><path d="m129.8 177.8-3.3-6.7c-.2-.4-.5-.6-.9-.6h-7" stroke="#787878" stroke-width="2.4"/><path d="M118.7 170.5c-6.5-6.5-6-13.2 1.3-20" stroke="#7F7F7F" stroke-width="2.4"/><path d="M120 150.5c1.2.5 1.4 1.7.5 3.6" stroke="#787878" stroke-width="2.4"/><path d="M120.5 154c-3.1 1.8-4.2 5-3.3 9.6" stroke="#7F7F7F" stroke-width="2.4"/><path d="M117.2 163.6c1.8-.7 3.3-1.3 4.8-1.5 3-.5 5 1.3 7.4 2.7.4.2.6 0 .7-.3.2-.7.2-1.3 0-1.8" stroke="#656567" stroke-width="2.4"/><path d="M130.2 162.7V75.2" stroke="#7F7F7F" stroke-width="2.4"/><path d="m130.1 75.2-.3-7.5c-.1-.6-.4-.7-.9-.2a18.3 18.3 0 0 1-6.5 4.1c-5 1.6-9.9 2.8-14.8 3.6-7.3 1.1-10 5.4-16 9C81.3 90.3 75.1 98 76.3 111c.3 3.9 2.2 6.5 5.6 7.8a1 1 0 0 0 1-.3c2.7-3 5.2-6.5 9.2-7.9 4.5-1.7 9-3 13.6-3.9.6 0 .6-.2 0-.5-4-1.5-8-2.1-12.2-1.7-1.1.1-3 .6-5.6 1.5-1.8.7-3.7 1.2-5.6 1.4" stroke="#656567" stroke-width="2.4"/><path d="M130.1 75.2c-9.6 2.7-19 5.9-28.2 9.4a46 46 0 0 0-12.7 7.8 33.7 33.7 0 0 0-10.1 14 1.4 1.4 0 0 0 .3 1.5c1 1 2 .9 2.9-.6m48 55.4c-6-3.8-10.4-3.5-13 1" stroke="#E3E4E6" stroke-width="2.4"/><path d="m120.5 154 2.3.2c.4 0 .6.2.7.6.3 1 .7 2.1 1.2 3 .2.8.4.8.5 0 .7-10.6 1-21 .7-31.5m-6 24.2c1.6-5.8 1.7-11.8.5-18-.2-1-.7-2-1.5-2.8l-2.4-2M90.7 129c.4 1.4 1.2 2.2 2.2 2.4l1 .6c1 .7 1.4 1.1 2.7 1.3 4.7.5 8.4.5 11 0 1.8-.3 3.4-1.4 4.8-3.3m6.3 40.6 5.5 6" stroke="#F7F7F7" stroke-width="2.4"/><path d="M124.2 176.5c-4 1-6.8 2.6-8.7 4.7m1.9 10c-.5.6-.8 1-.8 1.3.3 2.5 1.8 4.6 4.7 6.5m8.8 15a28.6 28.6 0 0 1-24.4-10.4" stroke="#E3E4E6" stroke-width="2.4"/><path d="M129.8 177.8a11 11 0 0 0-5.6-1.3" stroke="#DDDDDF" stroke-width="2.4"/><path d="M85.8 125.7c-3.4-.3-6.6-1.6-9.8-3.8-.3-.2-.6-.2-.8 0a7.9 7.9 0 0 0-1.8 5.5c.5 4.6 1.7 10 3.6 16 2.8 9 7.2 20.5 13.3 34.4 3.6 8.4 8.7 17 15.4 25.8" stroke="#F7F7F7" stroke-width="2.4"/><path d="M105.7 203.6h-.9l-1.3-.7c-8-7-14.2-14.6-18.5-22.8a281 281 0 0 1-11.2-24.6c-1-2.4-1.4-2.4-1.2.2 1 12.9 4.8 25 11.4 36.6 4 6.8 9 12.5 15.2 17.2 8.6 6.5 19 10.5 31 11.9" stroke="#DDDDDF" stroke-width="2.4"/><path d="M54 94.2c7.3 5.8 19.3 5.5 23-4.4.1-.4 0-.6-.4-.7l-5.7-1" stroke="#656567" stroke-width="2.4"/><path d="M71 88.2c-1.5-.3-3.6-.2-6.3.3-3 .6-5.2-.6-6.5-3.4-1.2-2.3-.3-4.1-2.6-6a6.5 6.5 0 0 1-2-2.5c-.8-2-1.7-2-2.6 0-3 6.1-2 12 3 17.7" stroke="#787878" stroke-width="2.4"/><path d="M71 88.2c-1.3 3.6-4.4 5-9.3 4-4.2-.8-7.5-3.1-9.8-7-.5-.8-.7-.7-.7.2a11 11 0 0 0 3.6 7.8c.3.4.3.6 0 .9l-.9.2" stroke="#DDDDDF" stroke-width="2.4"/><path d="M46 100c2 .5 3.6 0 5-1 .3-.3.3-.6 0-1l-4.5-6.2" stroke="#656567" stroke-width="2.4"/><path d="m46.5 91.8-7.1-14.5c-.2-.4-.3-.4-.5 0C34.2 85.6 36 97 46 100" stroke="#787878" stroke-width="2.4"/><path d="M46.5 91.8c-3 1.3-5.4-.1-7.1-4.2-.9-2.3-1.3-2.2-1.4.2-.2 5.4 2.7 9 8.6 11 .2 0 .2.1.2.3v.4a.6.6 0 0 1-.3.5H46" stroke="#DDDDDF" stroke-width="2.4"/><path d="M147.2 127h-.5c-.5-.2-.8 0-.8.5v29" stroke="#656567" stroke-width="2.4"/><path d="m146 156.4-.3 6.9a1.9 1.9 0 0 1-1 1.6l-8.7 4.4a1.4 1.4 0 0 0-.7 1.2l-.5 8c0 .6.3.9.9.9h2.6" stroke="#787878" stroke-width="2.4"/><path d="M138.3 179.4h4.8" stroke="#656567" stroke-width="2.4"/><path d="m143.2 179.5 4.8.3c.3 0 .7.2 1 .5a13 13 0 0 1 4.7 9c.2.5.5 1 .9 1.3l4.7 4c.4.3.7.3 1 0 4.2-4.7 8.4-8.8 12.7-12.4.3-.3.5-.7.6-1.2l5-24.8c0-.4.2-.8.5-1.2l24.1-23.1c.4-.3.5-.7.5-1.2v-26a3 3 0 0 0-.5-1.7l-5.6-8.2a.4.4 0 0 0-.4-.4.4.4 0 0 0-.3.4l-4.5 20.6c-.3 1.1-1 2.1-2.3 3-.3.2-.5.4-.7.8-.3 1-.7 2-1.4 2.7a133.3 133.3 0 0 0-11.5 13.2H160c-.5 0-.9 0-1.2-.4l-4.6-5.5c-1.6-2-4-2.7-7-2.3" stroke="#787878" stroke-width="2.4"/><path d="M143.2 179.5c-.3-.7 0-1.5.6-2.4" stroke="#DDDDDF" stroke-width="2.4"/><path d="M143.8 177.1a45 45 0 0 0 9.1-9.4" stroke="#B7B6B7" stroke-width="2.4"/><path d="m153 167.7.9.4c.2.2.3.4.3.7l-.1.5a.4.4 0 0 0 0 .4l.3.2c.3 0 .5 0 .6-.2 1.3-2 1.7-4.2 1.2-6.5" stroke="#DDDDDF" stroke-width="2.4"/><path d="M156.2 163.2a6 6 0 0 1 1.7-3.3" stroke="#A3A3A3" stroke-width="2.4"/><path d="M157.9 159.9h3.8a.2.2 0 0 1 .2.3l.3 3.3h.3c.1-1.4.4-2.7.7-3.8.7-2.6 2.4-3.2 5-1.8a.7.7 0 0 0 .5 0 .7.7 0 0 0 .4-.4 5 5 0 0 1 2.8-2.6c.8-.3.8-.4 0-.4-1.9.3-2.7-.2-2.6-1.4" stroke="#DDDDDF" stroke-width="2.4"/><path d="M169.2 153.1c2.5-1.2 4-2.6 4.7-4.2" stroke="#A3A3A3" stroke-width="2.4"/><path d="M174 148.9c.6.6 1.6.8 2.7.6.4-.1.7 0 .8.6 0 .5 0 1-.4 1.5s-.2.7.5.5c1-.4 1.7-1.2 2-2.4.5-2 1.5-3.7 3-5 .4-.4.4-.6 0-.8a.6.6 0 0 0-.7 0c-.8.3-1 .1-.6-.6l2-3.5c.2-.2.2-.3 0-.5h-.3l-5.5 6.3c-.3.3-.7.4-1 .3H175c-.4.2-.5.5-.5.8 0 .8-.1 1.5-.5 2-.4.3-.7.4-1.1.2l-4-2.4c-.4-.2-.5-.6-.4-1l2-6.5v-.6c-.2-.6-.6-.8-1.3-.7-.1 0-.3 0-.4.2-.4.3-.4.6 0 .8.3.3.4.5.2.8l-.8 1.8-.3.6c0 3.4-.6 7.3-3 10-.2.2-.6.5-1 .5-2 .3-4 .3-5.9 0a1 1 0 0 0-1 .5c-.2.3-.2.7 0 1" stroke="#DDDDDF" stroke-width="2.4"/><path d="m157 154-1.1 1.1" stroke="#A3A3A3" stroke-width="2.4"/><path d="m155.9 155.3-5.6 3.1a1 1 0 0 1-.6.2.8.8 0 0 1-.6-.3l-.4-.6c-.5-.4-.8-.3-.9.4 0 1 .4 1.8 1.2 2.4.4.2.5.6.4 1.1-.9 2-2.6 3.1-3.6 5.2-1.2 2.6-2.3 5.5-4.7 7-1.2.8-2.2 1.7-3.2 2.6-.4.3-.4.6 0 .8 1 .8 1.1 1.5.5 2m7.5-22.8c2.4-1.6 3.7-4.3 4-8" stroke="#DDDDDF" stroke-width="2.4"/><path d="m150 148.4 4.4-4.7" stroke="#B7B6B7" stroke-width="2.4"/><path d="M154.4 143.6c1.6-.5 2-2.4 3.8-2.2.3 0 .6 0 .7-.2.7-.8 1-1.7.7-2.8a1.2 1.2 0 0 0-1.8-.5c-.4.3-.8.3-1.1 0-.2-.2-.3-.6-.2-1a4 4 0 0 0-1.1-3.7" stroke="#DDDDDF" stroke-width="2.4"/><path d="m155.4 133.2-1-1.2" stroke="#A3A3A3" stroke-width="2.4"/><path d="M154.4 132.1c-.9-3-3.7-3.2-6.2-3.8a.8.8 0 0 1-.7-.7l-.3-.7" stroke="#DDDDDF" stroke-width="2.4"/><path d="M154.4 132.1c-.3 1.5-.9 2.9-1.7 4.1a.6.6 0 0 0 0 .6l.2.4a.2.2 0 0 0 .4.1v-.1l2-4" stroke="#909092" stroke-width="2.4"/><path d="M154.4 143.6c-.3-.7-.4-1.6-.2-2.8a1 1 0 0 0-.6-1.1l-.4-.3a.6.6 0 0 0-.9.5l-.4 3.3c0 .4-.3.6-.8.7-1.2.4-2.4.3-3.5-.2-.5-.3-.8-.1-1 .3-.7 1.4-.6 2.6.2 3.8.6 1 1.7 1.2 3.2.6m3 19.3a23.4 23.4 0 0 0-7 5 8 8 0 0 0-2.2 4.4" stroke="#A4A3A6" stroke-width="2.4"/><path d="M174 148.9c-5 3.7-10.1 6.3-15.7 7.8-.3.1-.6 0-.7-.4l-.7-2.3M169.2 153.1a111 111 0 0 1-10.6 5.1c-.5.3-.7.9-.6 1.7m-1.8 3.3c-.4.6-.8 1-1.2 1.3-.4.4-.6.3-.4-.3.5-1.8 1.3-3.4 2.3-4.7.2-.4.1-.7 0-1a2 2 0 0 0-2.1 0l-2.4 1.2c0 .2-.1.2-.2 0l-.1-.4v-.3l3.4-2.3c.3-.4.4-.9.4-1.4" stroke="#909092" stroke-width="2.4"/><path d="m209.4 99-.5 10.7" stroke="#656567" stroke-width="2.4"/><path d="M209 109.7v20" stroke="#7F7F7F" stroke-width="2.4"/><path d="m209 129.6.4 14.6" stroke="#656567" stroke-width="2.4"/><path d="M209.4 144.2c-.3.6-.3 1.2 0 1.8.1.5.4.5.7 0l6.8-8.1a3 3 0 0 0 .7-1.9v-26.5c0-.8-.3-1.6-.8-2.3l-7-9.7c-.4-.4-.6-.4-.8.1 0 .5 0 1 .3 1.4" stroke="#7F7F7F" stroke-width="2.4"/><path d="M209.4 144.2c2.1-1.9 4-3.8 5.4-6a6.6 6.6 0 0 0 1.2-4 40.8 40.8 0 0 1 .2-4.9.8.8 0 0 0-1.2-.4c-2.3 1-4.4 1.3-6 .7m0-20c.7-3.4.8-7 .3-10.6" stroke="#E3E4E6" stroke-width="2.4"/><path d="m71 101.4-8.7 1.5" stroke="#656567" stroke-width="2.4"/><path d="m62.3 103-4.7 2.3c-.4.3-.8.3-1.2.1l-3.5-1.3a2.1 2.1 0 0 0-3 1.8c-.5 5.2 2.5 8.1 7.6 8.6a12 12 0 0 0 12.5-6.6c1.6-3 2-5 1-6.5" stroke="#7F7F7F" stroke-width="2.4"/><path d="M62.3 103c1.2 0 2 .4 2.4 1 .4.5.5 1 .2 1.5a7.6 7.6 0 0 1-8.3 4c-1.8-.3-3.3-1.3-4.7-2a.6.6 0 0 0-1 .6 4.7 4.7 0 0 0 3.6 4c8.6 2.7 14.1-.9 16.6-10.7" stroke="#E3E4E6" stroke-width="2.4"/><path d="M60.7 126.2c1.6 0 2.9-1.2 3.7-3.5.2-.4 0-.7-.4-.8l-6.9-.8" stroke="#656567" stroke-width="2.4"/><path d="M57.1 121.1c-8.3-2.5-12.4-7.9-12.3-16 0-.5-.2-.8-.7-.8-.7 0-1.3.2-1.9.5-.3.3-.5.6-.6 1-1.8 8.5.5 15.1 6.8 20 4 3 8 3 12.3.4" stroke="#787878" stroke-width="2.4"/><path d="M57.1 121.1c-5.5 1.3-9.8-1-13-6.7-.1-.3-.3-.3-.6 0-.3.5-.4 1-.2 1.5 1.8 7.7 7.6 11 17.4 10.3" stroke="#DDDDDF" stroke-width="2.4"/><path d="M93.1 115.3c8.3-4.2 15.8-3 22.5 3.8h.1l.4-.3a.6.6 0 0 0 0-.8c-6.2-8.2-13.6-10.2-22.4-5.9a11 11 0 0 0-5.3 6.3c-.2.8 0 .9.5.2 1.3-1.4 2.7-2.5 4.2-3.3Z" stroke="#787878" stroke-width="2.4"/><path d="m95.4 118.9-2 1.7c-1.1 1-1 2 .2 2.8 5 3.1 9.6 3.7 13.8 1.7 3.2-1.4 4.3-3 3.5-4.7m60 10.3a9.6 9.6 0 0 0 5.7-4.9 10.4 10.4 0 0 0-4.2-13.6 9.6 9.6 0 0 0-7.4-.9 9.6 9.6 0 0 0-5.8 4.9 10.3 10.3 0 0 0 4.2 13.6c2.3 1.3 5 1.6 7.5.9Z" stroke="#7F7F7F" stroke-width="2.4"/><path d="M110.9 120.4c-5.3-5.3-10.4-5.8-15.4-1.5" stroke="#656567" stroke-width="2.4"/><path d="M110.9 120.4c-1.3-.1-2.9-.7-4.8-1.8-1.2-.6-3.1-.8-5.6-.4l-5.1.7" stroke="#E3E4E6" stroke-width="2.4"/><path d="M45.9 134.6c1.1 4.6 4.2 7.6 9.4 9" stroke="#787878" stroke-width="2.4"/><path d="M55.3 143.6h3.4a.5.5 0 0 0 .6-.7l-.3-.3a82.6 82.6 0 0 1-8.6-9.8 5 5 0 0 0-3.7-2.1c-.5 0-.7.2-.8.6-.2 1-.2 2.1 0 3.3" stroke="#656567" stroke-width="2.4"/><path d="M55.3 143.6c.3-.3.4-.6.4-.9 0-.4-.2-.6-.6-.7-4-1.2-6.8-3.8-8.1-7.9-.1-.4-.4-.5-.8-.2l-.3.7" stroke="#DDDDDF" stroke-width="2.4"/><path d="m197.6 157.3 5.3-5.8c.6-.7 1-1.4 1-2.4v-9.4c0-1.1-.5-1.3-1.3-.6-6.1 5.6-12.4 12-18.9 18.9-.8 1-1.4 2-1.6 3.2l-3.4 16v.7a33.1 33.1 0 0 0 9.8 8.6 1 1 0 0 0 1-.8c2.6-8.3 5-17.4 7.2-27.1.2-.5.4-1 .7-1.3" stroke="#787878" stroke-width="2.4"/><path d="m67 163.3-1.3-9.2c-.3-2.4-2.7-4.4-7.2-6" stroke="#656567" stroke-width="2.4"/><path d="M58.5 148.3c.5 4 1.5 7.5 2.9 10.6a13.8 13.8 0 0 0 5.2 6 .5.5 0 0 0 .6-.4c.1-.3 0-.7-.2-1.2" stroke="#787878" stroke-width="2.4"/><path d="M58.5 148.3c2 3.8 3.6 7.8 5.1 12a4.4 4.4 0 0 0 3.4 3" stroke="#DDDDDF" stroke-width="2.4"/><path d="m77.2 207.5.1 6c.2 1.7.8 3.3 1.8 4.6 5 6.5 11 11.8 18.4 16m59.5-34.9c-2-2.1-4.2-4.3-6.7-6.5a3.6 3.6 0 0 1-1.2-2.6c.2-2.7-1.6-5.5-4.6-5.7l-9.2-.2c-.2 0-.3.1-.3.4v7c0 .4.1.5.4.5h9c2.1 0 3.8 0 5.4 1.5l6.7 6.3a.5.5 0 0 0 .5-.1.5.5 0 0 0 0-.6Zm6.2-1.2c-.2.2-.4.5-.4.8l-.2 13a1.2 1.2 0 0 0 1.9.9L186 193a1.2 1.2 0 0 0 0-1.7l-7.6-6.3a1.2 1.2 0 0 0-1.5 0l-13.7 13Z" stroke="#787878" stroke-width="2.4"/><path d="M97.5 234c7.2 4.2 14.9 7 23.2 8.5 1.5.4 1.6 0 .2-.8-14-7.8-25.7-19-34.3-32.5l-7-11c-.9-1.2-1-2.4-1.6-3.6-.4-.9-.6-.8-.6.1l-.2 12.8" stroke="#656567" stroke-width="2.4"/><path d="M97.5 234c.4-2 .3-3.5-.3-4.4-6.3-9.5-12.2-19-17.8-28.5-.7-1.2-1.1-1.1-1.3.2l-.9 6.2" stroke="#DDDDDF" stroke-width="2.4"/><path d="m135.6 209.1-.3 7.7" stroke="#656567" stroke-width="2.4"/><path d="M135.3 216.8v5c0 .4.3.7.7.7 3.2 0 6.5-.2 10-.4 4.2-.2 7.7-3.4 10.7-5.9l.5-1.2c.3-2.7.3-5.3 0-7.8l-.6-1.2-5.7-5.4" stroke="#787878" stroke-width="2.4"/><path d="M151 200.6c-1.6-1.6-2.8-2.7-5.2-3h-3.3" stroke="#656567" stroke-width="2.4"/><path d="m142.5 197.7-6.2-.2c-.4 0-.6.2-.6.6v11" stroke="#787878" stroke-width="2.4"/><path d="m142.5 197.7-3 3.5c-.2.4-.2.7.2 1 1 .5 1.4 1.8 1 3-.7 2.3-2.5 3.6-5.1 4m15.3-8.6c-.3-.1-.6-.1-.8.1-.3.3-.3.6 0 .7" stroke="#DDDDDF" stroke-width="2.4"/><path d="M150 201.4h-.3l-.3.1-.3.3a25.3 25.3 0 0 1-12.3 11" stroke="#A4A3A6" stroke-width="2.4"/><path d="M136.8 212.8c.8.8 1.2 1.5 1.2 2.2 0 .4-.2.6-.7.6-1 0-1.7.4-2 1.2" stroke="#DDDDDF" stroke-width="2.4"/><path d="M153.3 205.3c-.9 0-1.7.2-2.4.6-.4.3-.5.6-.5 1 .3 1.2 1 1.7 2 1.4" stroke="#6A6869" stroke-width="2.4"/><path d="M152.4 208.3c-.4.8-.4 1 0 .7" stroke="#A4A3A6" stroke-width="2.4"/><path d="M136.8 212.8a21 21 0 0 0 9-3.8 1.2 1.2 0 0 1 1-.2c1.7.5 3.6.6 5.6.2" stroke="#B7B6B7" stroke-width="2.4"/><path d="M152.4 209c1.2 1.3 1.3 3.4.4 6.1v.3a.6.6 0 0 0 .5.6h.3c.7 0 1-.2 1.3-.7a9.8 9.8 0 0 0 0-8.4" stroke="#DDDDDF" stroke-width="2.4"/><path d="M155 206.9a4.2 4.2 0 0 0-1.7-1.6" stroke="#A3A3A3" stroke-width="2.4"/><path d="M153.3 205.3a11 11 0 0 0-3.2-3.9" stroke="#B7B6B7" stroke-width="2.4"/><path d="M155 206.9c-1.3-.4-2 0-2.6 1.4" stroke="#909092" stroke-width="2.4"/><path d="M182 203.8c-3.7 2.4-5.7 4.8-5.8 7.4" stroke="#656567" stroke-width="2.4"/><path d="m176.3 211.2-.7 16.5a.5.5 0 0 0 .3.4h.5c2.9-2.4 11.5-10 11.7-13.9.2-5.4 0-10.4-.6-15.1 0-.7-.2-.7-.7-.3l-4.7 5" stroke="#787878" stroke-width="2.4"/><path d="m176.3 211.2.4.5c.3.3.4.7.4 1.2l.4 10.4c0 1.1.4 1.3 1.2.5l1.1-1.2a4 4 0 0 0 1.7-3l.6-15.8" stroke="#DDDDDF" stroke-width="2.4"/><path d="M171.2 215.1a.7.7 0 0 0-.7-.7h-.3a.7.7 0 0 0-.5.7l-1.4 17a.7.7 0 0 0 .7.8.7.7 0 0 0 .8-.7l1.4-17Z" stroke="#787878" stroke-width="2.4"/><path d="M156.6 21.4c.8-.3 1.6-.8 2.3-1.4a.7.7 0 0 0 0-1c-.4-.3-.9-.4-1.5-.4-.4 0-.6.2-.7.7 0 .5-.4.9-.8 1.2a10 10 0 0 0-4.4 5.9c-.2.8 0 1 .7.5 1.7-1.3 3-2.9 3.7-4.8.1-.4.4-.6.7-.7Zm-12.8 5.2 8-3.9a.5.5 0 0 0 .2-.4.5.5 0 0 0-.1-.4l-.3-.4c-.4-.5-.9-.6-1.5-.3-2.7 1.5-6 2.7-8 5.4a50.8 50.8 0 0 1-4.7 5.7l.3.2a40.4 40.4 0 0 0 6.1-5.9Z" stroke="#E3E4E6" stroke-width="2.4"/><path d="M178.4 54.7v1" stroke="#B7B6B7" stroke-width="2.4"/><path d="M178.3 55.7c-.8.3-1.5.8-2.1 1.4-.5.5-.4.7.3.8h1.1c.8.4 1 .8.5 1.2-.3.3-.4.6-.1 1 .4.8.4 1.7 0 2.5A16.8 16.8 0 0 0 177 71" stroke="#DDDDDF" stroke-width="2.4"/><path d="M177 71a64.4 64.4 0 0 1-4.1 5.3c-.4.4-.3.6.2.5.6-.5 1.1-.6 1.7-.5.7.2.8.6.2 1.1l-3.3 3.6.1.4c.2.2.4.2.6 0 2.3-1.5 4.2-3.4 5.7-5.6" stroke="#B7B6B7" stroke-width="2.4"/><path d="M178 75.8c2.2-1.6 3-3.6 5.7-4 .4 0 .7-.2.8-.6.1-1 0-1.9-.3-2.6" stroke="#DDDDDF" stroke-width="2.4"/><path d="M184.2 68.6c.3-.3.4-.6.4-.9" stroke="#B7B6B7" stroke-width="2.4"/><path d="M184.6 67.7c.4 0 .6 0 .8-.3a.4.4 0 0 0-.1-.6h-.8c-.5 0-.8-.2-1-.6a9 9 0 0 1-.8-5.8 2 2 0 0 1 1.2-1.4c1.6-.7 2.8-2.6 2.4-4.4-.1-.9 0-1.7.4-2.5.2-.4.2-1 0-1.4-.6-1-.5-2 .4-3a.6.6 0 0 0-.1-.7l-.2-.2-.2-.1c-.4-.2-.7-.2-.8.2-.6 1-1.3 1.8-2 2.4l-1 .5c-1.8.2-3.5.8-5.2 1.6a.8.8 0 0 0-.5.7c0 .6.3 1 .9 1.2a1.2 1.2 0 0 1 .5 1v.4" stroke="#DDDDDF" stroke-width="2.4"/><path d="m184.6 67.7-.4-.3a1 1 0 0 0-1-.1c-.9.3-2.2.2-2.6-.8-.3-.3-.4-.8-.5-1.3 0-.3-.2-.4-.6-.3h-.5c-.2 0-.3.2-.3.5.4 2.3-.2 4.2-1.7 5.5m1.3-15.2c.2.5.5.9 1 1a1.2 1.2 0 0 0 1.5-1.1l-.1-.9a1 1 0 0 0-.9-.6c-.6 0-1 .2-1.3.6" stroke="#A4A3A6" stroke-width="2.4"/><path d="M184.2 68.6h-3.6c-.4 0-.7.1-.8.4l-1.7 6.8" stroke="#A4A3A6" stroke-width="2.4"/><path d="m179.4 103.9-.3.3c-.4.3-.3.6.2.7h.8c.4-.1.6-.4.7-.8l.6-2.7c.1-.6 0-.7-.5-.2-.7.7-1.2 1.6-1.4 2.4v.3" stroke="#B7B6B7" stroke-width="2.4"/><path d="M185.4 54c.3-.2.3-.5 0-.8a.8.8 0 0 0-1-.1l-.2.2-1.8 2.1c-.3.4-.2.6.3.6 1.2 0 2-.6 2.5-1.7 0-.1 0-.2.2-.3Z" stroke="#A4A3A6" stroke-width="2.4"/><path d="M194.8 113.6c-.4 1-.4 2.4 0 4.3.5 2.5.2 5.1-.9 8a1 1 0 0 1-.7.5l-3 1.1c-.5 0-.7.3-.7.8 0 1 .4 3-.4 4-.3.3-.6.4-.9.5a2 2 0 0 0-1 .8l-.5 1.8c-.8 2-.2 2.5 1.7 1.7l2-1.3.5-1c.5-1.6.8-3.2 1.8-4.5 2.5-3.1 3.9-6.8 4-11 0-.5.2-.8.5-1.1l1.7-1.3c.3-.3.5-.6.6-1l1.1-5.9" stroke="#DDDDDF" stroke-width="2.4"/><path d="M200.6 110c1-.8 1.5-1.8 1.5-3 0-.4-.3-.6-.8-.4-.8.4-1.4 1.2-1.7 2.6a1 1 0 0 1-.7.6 1 1 0 0 1-1-.1l-1-1c-.4-.4-.6-.3-.8.3l-1.3 4.6" stroke="#A3A3A3" stroke-width="2.4"/><path d="M200.6 110c-2.4 3-4.4 4.3-5.9 3.6" stroke="#909092" stroke-width="2.4"/><path d="M156.5 187.6a1.9 1.9 0 0 1 0-1.6 8 8 0 0 0 1.1-4.2c.2-1.8-.2-1.9-1-.3-1 2-1.4 4.4-1 7 0 1 .6 1.6 1.4 2 .6 0 1 .3 1.2.8l1 1h1c1.3-1 2.4-2 3.2-3.1 1.6-2.2.3-4.4-.4-6.5-.3-.7-.5-.7-.8 0-.4 1.4-.5 3.5-2.3 3.9-.4 0-.6.3-.8.5-.3.4-.4.7-.4 1 0 .3-.2.5-.5.7-.6.3-1.2 0-1.7-1.2Z" stroke="#DDDDDF" stroke-width="2.4"/><path d="M149.1 139c.3-2.4 1.1-4.6 2.3-6.7a1 1 0 0 0 0-1v-.3c-.3-.3-.6-.3-1 0-1.6 1.3-1 2.5-1.3 4.3l-1.1 5.3a.5.5 0 0 0 .3.6c.2 0 .4 0 .6-.2.2-.2.4-.4.4-.6l-.2-.6v-.8Z" stroke="#A4A3A6" stroke-width="2.4"/><path d="M190.1 154.3a29.5 29.5 0 0 1-3.6 3.3c-1.1.8-1.8 1.5-2 2.1-.5 1-.5 2.1 0 3.2" stroke="#DDDDDF" stroke-width="2.4"/><path d="M184.5 163c-1.1 1.1-1.3 2.2-.4 3.1.2.3.2.7 0 1l-1.4 2" stroke="#A3A3A3" stroke-width="2.4"/><path d="M182.7 169c-1 1.1-1.4 2.4-1.2 3.9 0 .3.3.6.7.7 1.1 0 2.2-.2 3.2-.5" stroke="#DDDDDF" stroke-width="2.4"/><path d="M185.4 173c.9.7 1.6 1 2.2 1" stroke="#B7B6B7" stroke-width="2.4"/><path d="M187.6 174c2.6-.9 4.1-2.4 4.6-4.6.1-.5 0-.8-.5-.8-.8-.2-1.6-.6-2.3-1.3-.2-.2-.3-.5-.2-1a9 9 0 0 1 4.8-7 .7.7 0 0 0 .3-.8l-.3-.3a4.3 4.3 0 0 1-2.3-2.6" stroke="#DDDDDF" stroke-width="2.4"/><path d="M191.7 155.6c.2-1.6 1-3 2.4-4.4 1-.8 1-1-.3-.7-1.7.6-3 1.8-3.8 3.8" stroke="#B7B6B7" stroke-width="2.4"/><path d="M191.7 155.6c-.8.4-1.4 0-1.7-1.3m-2.4 19.6c-.5-1-.7-1.9-.4-2.6.1-.5.4-.7.8-.6.8 0 1.3-.3 1.7-1v-.3a.6.6 0 0 0-.3-.4h-.2c-2.6.1-3.9 1.5-3.8 4" stroke="#A4A3A6" stroke-width="2.4"/><path d="M182.7 169c1 0 1.8-.3 2.3-1 .4-.3.5-.7.5-1.2 0-1 .6-1.9 1.7-2.5.8-.3.8-.7 0-1h-.5c-.6-.2-.6-.6-.2-1l4.7-3h.1c.2-.3 0-.5-.2-.6a1 1 0 0 0-.7-.1 12 12 0 0 0-6 4.3" stroke="#909092" stroke-width="2.4"/><path d="M165 199a1 1 0 0 0-.4.8l-.6 8.6a1 1 0 0 0 1.7.8l17.5-16a1 1 0 0 0 .2-1.2 1 1 0 0 0-.2-.4l-5.2-4a1 1 0 0 0-1.2 0L165 199.1Z" stroke="#DDDDDF" stroke-width="2.4"/><path d="M67.7 171.7c-4.3-2-9-5.5-10.6-10.2a70.8 70.8 0 0 0-5.7-13.2c-9-4.7-12.4-11.9-10.2-21.6 0-.5 0-1-.4-1.4-5.3-7.1-6.3-15-3-23.6.1-.3 0-.7-.3-1-5.4-5.8-5-16-3.7-23.9.6-4.5 3.6-7.5 4.8-11.8a21.7 21.7 0 0 1 11.7-14.2c.4-.3.6-.7.8-1.1 1.2-4 4-7.8 8.6-11.5 1.6-1.2 3.3-1.3 5-2 .4-.2.6-.4.7-.8 3.5-17.4 20-22.7 35.7-18.2a1.4 1.4 0 0 0 1.5-.4c2.6-3 5.7-6 9.4-7.3 2.9-1 5.6-2.4 8.5-2.4 19.8-.8 39.4 2.3 55 12.5 5.3 3.6 11.2 8.2 17.7 13.9 3.9 3.4 7 7.2 9.7 11.5 3.9 6.7 8.6 14.1 8.7 21.4.2 7.9.2 16 .1 24.2a4 4 0 0 0 1 2.5l9.8 12.5.5 1.2a348 348 0 0 1 0 31.4c0 .5-.2 1-.6 1.2L212 152.3a3 3 0 0 1-1.2.7c-2.2.8-4.3 2.1-6.4 4a11 11 0 0 0-2.8 5.3c-2 7.7-4.3 15.8-6.9 24.3-.7 2.2-1.4 4.7-1.5 7 0 8.4-.3 16.5-.7 24.3 0 .5-.2 1-.6 1.5a67 67 0 0 1-28.6 22.2c-8.7 3.5-16.8 6-24.3 7.6A63.3 63.3 0 0 1 111 246a68.7 68.7 0 0 1-38-26.7c-.3-.5-.5-1-.5-1.6-.4-10.7-.6-21.6-.7-32.4 0-2.2-.4-4.3-1.2-6.3-.8-2-1.4-4-1.9-6-.1-.7-.5-1-1-1.2v-.1Zm49.5-112.5 12.2-.8c.4 0 .6-.2.6-.7l.2-4.7v-2.4c0-.4-.3-.6-.8-.5-7.7 1-15.1-1-19.4-7.9-4.3-7-4.1-14.2.6-21.3 4.4-6.7 11.6-8.2 19.2-7.7a.4.4 0 0 0 .3-.4l.3-.8a.3.3 0 0 0-.1-.4.4.4 0 0 0-.3-.1c-10.6-1.1-18.7 2-24.6 9.4-1.9 2.3-3.2 3.7-4 6.8-3.8 15 1.5 25.5 15.8 31.5Zm17.9 6.9v11.1c0 .4.3.6.8.6l18-2.4c1.3-.2 2.5-.7 3.5-1.7 4-3.1 7.6-6.3 10.6-9.4.3-.4.5-.8.5-1.2l5-38.4c0-.4-.2-.7-.5-1-9.5-5-19.5-8.7-30.1-10.8-2.4-.5-4.8-.7-7.1-.8-.4 0-.6.2-.6.6L135 66Zm-11.2-20.2c2 .3 3.8.2 5.5-.1.4-.2.6-.5.7-.9v-4.7l.1-2.6c0-.3-.2-.5-.6-.5h-2.4c-2.6.1-4.3-.7-5.2-2.4-1-6.1 1.2-9.4 6.7-10 1.6.3 2-1.6 1.4-5.5 0-.4-.3-.7-.7-.7-12.3-2.7-20 7-16.2 18.6 1.8 5.3 5.4 8.2 10.7 8.8Zm-53-9.5a28 28 0 0 0 1.5 11.4.6.6 0 0 0 .8 0l2.6-3.1c4.5-5.5 10.7-7.5 18.4-5.8.2.2.5.2.7.1.3 0 .5-.2.5-.6.1-3.2-1.4-5.2-4.7-5.9-3-.6-5.7-.8-8.2-.4-.7 0-.8-.2-.2-.6 4.3-4 8.8-4.8 13.3-2.4.4.2.7.1.7-.4.3-2 1.1-4 2.3-5.6.4-.6.2-.9-.5-1-.4 0-1.2-.2-2.4-.7-1-.4-4-.5-9-.3-2.3 0-4.3.5-6 1.6-5.4 3.2-9.2 7.3-9.9 13.7Zm64.7 56.4-.3 1.1c-.3 2.8-.3 5.5 0 8.2 0 .2.1.3.4.2v.7l-.5 21.5v12.3c.4.9.4 1.3 0 1.3v10.2l.5 15.8v.1a38.4 38.4 0 0 0 5.6-3.2l.9-37.8c0-.4 0-.8.3-1.1l9.8-14.3c.3-.4.6-.6 1-.6 9.9-.3 19.8-.4 30-.4 2 0 3.3 1.6 4.6 2.9a1.2 1.2 0 0 0 1.8-.8c.6-6 1.6-12 3-17.9.6-2.1.3-4-1-5.8-2.5-3.5-6.2-9.3-5.5-13.8a370 370 0 0 0 3.5-34.7 340.8 340.8 0 0 0-11.5-9.6.3.3 0 0 0 0 .2v.1l-6 38.7c0 .4-.1.8-.5 1.2L158.3 79a200.3 200.3 0 0 1-22.4 3.4c-.5 0-.7.2-.6.7l.3 9.6Zm-8.8-60.3 3.6-.8a.4.4 0 0 0 0-.5V31c0-.2 0-.4-.2-.6l-.6-.4a2 2 0 0 0-.7-.2l-.8.1-.3.1-.7.3a2 2 0 0 0-.5.5l-.3.6V32.3a.3.3 0 0 0 .2.2.3.3 0 0 0 .3 0Zm-69 16.6c2.2-2 4.7-3.1 7.6-3.2.5 0 .8-.3.7-.9l-.4-2.3c0-.3-.2-.4-.4-.5-1-.1-1.8-.2-2.5.4-2.1 1.5-4 3.4-5.4 5.5-.3.2-.3.4 0 .6v.4a.2.2 0 1 0 .4 0Zm148.5 16.3c-.2-7.6-6.3-17.2-11.3-22.6a.4.4 0 0 0-.6.1l-4.2 30.3c0 .4.1.8.3 1.1l15 24c.5.6.7.6.7-.2a453 453 0 0 0 0-32.7h.1Zm-89.5 2.3c1.7.2 3.4-.6 5-2.3.2-.4 0-.5-.3-.6l-11-3a30.4 30.4 0 0 1-11.7-12.6 7.5 7.5 0 0 0-7-5.6c-9.1-.8-14.2 3.1-15.4 11.6-.6 3.5-4.8 5-7.7 3.2a1.5 1.5 0 0 0-2.4 1.2c-.1 5.5 2.2 8.6 6.9 9.4 6.7 1 11.2-3.9 11.3-10.4.3-4.2 5-5.4 8-3 .3.3.5.7.6 1 2.8 7.1 7.1 11.4 13 13 3.2.8 6.7.2 10.7-1.9Zm-22.5 7.1 2-2.8a1 1 0 0 0 0-1.2 8.2 8.2 0 0 0-4.8-3.3c-2.7-.5-5 1.5-6.7 3-3.2 2.9-8.5 3.4-12.6 2.8a11.8 11.8 0 0 1-9.8-16.6c1.2-3.1 3.8-4.3 7.8-3.5 1.1.2 1.2 0 .4-.7-2.5-2-5.1-2.4-8-1-4.7 2.4-7 9-6.8 13.9.4 13 12.3 20.4 24.7 18.5 5.7-.8 10.3-3.8 13.8-9Zm-42-18c.8-1.6.4-2-1-.9-8 5-10 12-6.4 21 .3.7.5.7.8 0 .7-2.5 2.3-4.6 4.6-6.5a1.7 1.7 0 0 0 .6-1.1c.2-3.7-.4-9.4 1.4-12.6Zm30 50.5a42.6 42.6 0 0 1 33.2-2.7 13 13 0 0 1 9.9 12.5l.6 9.2c-.7-.3-1-1.3-.8-3 0-.8-.3-1.4-.8-1.8l-.3-.3a.6.6 0 0 0-.7 0l-.1.3c-.6 2.7-1 5.5-1.2 8.2 0 .7-.2 1.2-.6 1.7-.4.5-.5.4-.4-.1.6-2 .1-3.5-1.4-4.4-1.2-.6-2.2-.3-3.2.8a10 10 0 0 1-3.9 2.2l1.5-2.5c2-3 1.5-3.6-1.7-2-6.9 3.6-14 3.5-21.3-.4-2-1-2.5-.5-1.5 1.6l1.2 2.3c-2.3-2-3.9-3-4.7-3.2a40.3 40.3 0 0 0-5.4-3 12 12 0 0 1-4-2.8 23.2 23.2 0 0 1-3-4.2.7.7 0 0 0-1 .2c-2.4 4-3.5 8.6-3.5 13.6 0 15.5 1.8 30.3 5.4 44.4 5 19.5 16.5 34 34.4 43.5 7.5 4 14.5 5.3 21.2 4.1v-23.2c0-.4-.2-.6-.7-.6a15 15 0 0 0-8.2 1.1 5 5 0 0 1 1-4.2c.3-.3.2-.6-.1-.7l-4.7-2.6-.4-.5a.4.4 0 0 1 .4-.6l.2.1c3.8 1.6 7.8 2 12 1.3a.7.7 0 0 0 .7-.7l-.3-4.7a1.3 1.3 0 0 0-.6-1c-1-.7-2-1.2-3.4-1.5-6-.7-10.4.3-13.2 3-.4.4-.7.4-1 0l-2-3.2c-.2-.4-.3-.8-.1-1.2.4-1.6 1.4-2.4 3-2.6.3 0 .5 0 .8.2.4.4.6.8.6 1.2 0 .5.2.7.7.6l.7-.5 7.2-1.8c2.5-.8 4.2-.2 6.5.4.5.2.7 0 .8-.4.2-.6 0-1.1-.2-1.6l-3.3-6.7c-.2-.4-.5-.6-.9-.6h-7c-6.4-6.5-6-13.2 1.4-20 1.2.5 1.4 1.7.6 3.6-3.2 1.7-4.3 4.9-3.3 9.5 1.7-.7 3.3-1.3 4.7-1.5 3-.5 5 1.4 7.4 2.7.4.2.7 0 .7-.3.2-.7.2-1.3 0-1.8V75.2l-.4-7.5c0-.6-.3-.7-.7-.2a18.3 18.3 0 0 1-6.5 4.1c-5 1.6-10 2.8-15 3.6-7.1 1.1-10 5.4-15.9 9C81.3 90.3 75.2 98 76.4 111c.4 3.9 2.3 6.5 5.6 7.8a1 1 0 0 0 1-.3c2.7-3 5.2-6.5 9.2-7.9 4.6-1.7 9-3 13.6-3.9.6 0 .6-.2 0-.5-4-1.5-8-2.1-12.2-1.7-1 .1-3 .6-5.5 1.5-2 .7-3.8 1.2-5.7 1.4v-.1ZM54 94.3c7.4 5.7 19.4 5.4 23-4.5.2-.4.1-.6-.3-.7l-5.6-1c-1.5-.2-3.5 0-6.3.4-3 .6-5.2-.6-6.5-3.4-1.2-2.3-.2-4.1-2.6-6a6.5 6.5 0 0 1-1.9-2.5c-.9-2-1.8-2-2.7 0-3 6.1-2 12 3 17.7Zm-7.9 5.8c2 .4 3.7 0 5-1.2.3-.2.3-.5 0-1l-4.5-6-7-14.6c-.2-.4-.4-.4-.6 0-4.7 8.3-3 19.7 7.1 22.8Zm101.3 27-.6-.3c-.5 0-.7.2-.7.6v29l-.3 6.9a1.9 1.9 0 0 1-1 1.6l-8.7 4.4a1.4 1.4 0 0 0-.7 1.2l-.4 8c0 .6.2.9.8.9h7.4l4.8.4c.4 0 .8.2 1.1.5a13 13 0 0 1 4.8 9c.1.5.4 1 .8 1.3l4.7 4c.4.3.8.3 1 0 4.2-4.7 8.4-8.8 12.7-12.4.3-.3.5-.7.6-1.2l5-24.8c0-.4.2-.8.6-1.2l24-23.1c.4-.3.5-.7.5-1.2v-26a3 3 0 0 0-.4-1.7l-5.7-8.2a.4.4 0 0 0-.4-.4.4.4 0 0 0-.3.4l-4.5 20.6c-.3 1.1-1 2.1-2.3 3-.3.2-.5.4-.7.8-.3 1-.7 2-1.4 2.7a133.3 133.3 0 0 0-11.5 13.2h-16.5c-.5 0-.8 0-1.2-.4l-4.6-5.5c-1.6-2-4-2.7-7-2.3v.1Zm62-28-.4 10.6v20l.5 14.5c-.2.6-.2 1.2 0 1.8.2.5.4.5.7 0l6.9-8.1a3 3 0 0 0 .7-1.9v-26.5c0-.8-.3-1.6-.9-2.3l-7-9.7c-.4-.4-.6-.4-.8.1 0 .5 0 1 .3 1.4Zm-138.2 2.3-8.8 1.5-4.7 2.4c-.4.3-.8.3-1.2.1l-3.5-1.3a2.1 2.1 0 0 0-3 1.8c-.4 5.2 2.5 8.1 7.6 8.6a12 12 0 0 0 12.5-6.6c1.6-3 2-5 1-6.5Zm-10.4 24.8c1.6 0 2.9-1.2 3.8-3.5.1-.4 0-.7-.5-.8l-6.9-.8c-8.3-2.5-12.4-7.9-12.3-16 0-.5-.2-.8-.7-.8-.7 0-1.3.2-1.8.5-.4.3-.6.6-.6 1-1.9 8.5.4 15.1 6.8 20 4 3 8 3 12.2.4Zm32.5-10.9c8.2-4.2 15.7-3 22.4 3.8h.1l.4-.3a.6.6 0 0 0 0-.8c-6.2-8.2-13.6-10.2-22.2-5.9a11 11 0 0 0-5.5 6.3c-.2.8 0 .9.5.2 1.3-1.4 2.7-2.5 4.3-3.3Zm77.7 15.4a9.6 9.6 0 0 0 5.7-4.9 10.4 10.4 0 0 0-4.2-13.6 9.6 9.6 0 0 0-7.4-.9 9.6 9.6 0 0 0-5.7 4.9 10.4 10.4 0 0 0 4.1 13.6c2.3 1.3 5 1.6 7.5.9Zm-75.5-11.8-2 1.7c-1.1 1-1 2 .2 2.8 5 3.1 9.6 3.7 13.9 1.7 3.1-1.4 4.2-3 3.4-4.7-5.3-5.3-10.4-5.8-15.4-1.5ZM46 134.6c1.1 4.6 4.3 7.6 9.5 9h3.3a.5.5 0 0 0 .6-.7l-.3-.3a82.6 82.6 0 0 1-8.6-9.8 5 5 0 0 0-3.7-2.1c-.4 0-.7.2-.8.6-.2 1-.2 2.1 0 3.3Zm151.6 22.7 5.4-5.8c.6-.7 1-1.4 1-2.4v-9.4c0-1.1-.4-1.3-1.2-.6-6.2 5.6-12.5 12-19 18.9-.8 1-1.4 2-1.6 3.2l-3.4 16v.7a31.6 31.6 0 0 0 9.7 8.5 1 1 0 0 0 1-.7c2.7-8.3 5.2-17.4 7.4-27.1.1-.5.3-1 .7-1.3Zm-130.4 6-1.3-9.2c-.4-2.4-2.8-4.4-7.2-6 .4 4 1.4 7.6 2.8 11a14.1 14.1 0 0 0 5.2 5.8h.2a.5.5 0 0 0 .4-.4c.1-.3 0-.7-.1-1.2Zm90 35.9c-2-2.1-4.3-4.3-6.8-6.5a3.6 3.6 0 0 1-1.1-2.6c.2-2.7-1.6-5.5-4.7-5.7l-9.2-.2c-.2 0-.3.1-.3.4v7c0 .4.1.5.5.5h9c2 0 3.7 0 5.4 1.5l6.6 6.3a.5.5 0 0 0 .6-.1.5.5 0 0 0 0-.6Zm6.1-1.2c-.2.2-.3.5-.3.8l-.3 13a1.2 1.2 0 0 0 1.3 1l.6-.1 21.5-19.6a1.2 1.2 0 0 0 0-1.7l-7.6-6.3a1.2 1.2 0 0 0-1.5 0l-13.7 13Zm-86 9.5.1 6c.2 1.7.8 3.3 1.8 4.6 5 6.5 11.1 11.8 18.4 16 7.2 4.2 15 7 23.2 8.3 1.6.4 1.6.2.2-.7-13.9-7.8-25.7-19-34.2-32.5l-7.1-11c-.8-1.2-1-2.4-1.6-3.6-.4-.9-.5-.8-.5.1l-.3 12.8Zm58.4 1.6-.3 7.7v5c0 .4.3.7.7.7 3.2 0 6.5-.2 10-.4 4.2-.2 7.8-3.4 10.7-5.9l.5-1.2c.3-2.7.3-5.3 0-7.8 0-.4-.3-.8-.6-1.2l-5.7-5.4c-1.5-1.6-2.7-2.7-5-3h-9.6c-.4 0-.6.1-.6.5l-.1 11Zm46.5-5.3c-3.8 2.4-5.7 4.8-5.9 7.4l-.6 16.5a.5.5 0 0 0 .3.4h.5c2.9-2.4 11.5-10 11.7-13.9.2-5.4 0-10.4-.6-15.1 0-.7-.2-.7-.7-.3l-4.7 5Zm-10.9 11.5a.7.7 0 0 0-.1-.6.7.7 0 0 0-.6-.3.7.7 0 0 0-.5.2.7.7 0 0 0-.3.5l-1.4 17a.7.7 0 0 0 .7.8.7.7 0 0 0 .8-.4v-.3l1.4-17Z" fill="#000"/><path d="M130.2 53c-11.6 2.4-20.2-1.3-25.6-11l-2.1-3.8c-.3-.5-.4-.5-.4 0 0 3.6.8 6.8 2.5 9.4 3 5 7 8.3 12.2 10 .4.2.6.8.3 1.6-14.2-6-19.4-16.5-15.8-31.5.8-3 2.1-4.5 4-6.9 5.8-7.3 14-10.4 24.6-9.4a.4.4 0 0 1 .3.5v.9a.4.4 0 0 1-.6.4c-7.5-.5-14.7 1.1-19 7.6-4.8 7.1-5 14.2-.7 21.4 4.3 7 11.7 9 19.4 7.8.5 0 .7.2.7.7l.2 2.4Z" fill="#F0F0F0"/><path d="M135 68.2c2.8.2 5.6 0 8.7-.8.4-.2.7-.4.8-.7l1.7-3.2c.3-.8.7-1.5 1.3-2a135 135 0 0 1 10.3-9.7l1.1 1.9c.4.4.7.4 1.1 0 2.4-2 4.7-1 6.4-4.4.2-.5.6-.8 1.2-.8.4 0 .7-.1 1-.4.2-.2.4-.5.5-1l.5-5.4v-.4c0-.2-.1-.3-.4-.4-.3-.1-.5 0-.7.2-.7 1.6-1.4 3.2-2.8 4-2 1-3.6 2.3-5 3.8-.8.9-1.8 1.2-2.7 1.7-3.6 1-6.1 2.3-7.7 3.9-1.2 1.3-2.7 4-4.7 8.3-1.7.7-3.3 1.6-4.6 2.8-.3.2-.6.3-1 .2-1.7-.1-3.4 0-5 .3V12.7c0-.4.2-.6.7-.6 2.3 0 4.7.3 7 .8 10.8 2.1 20.8 5.8 30.2 10.9.3.2.4.5.4 1l-5 38.2c0 .5-.1.9-.5 1.2-3 3.1-6.5 6.3-10.4 9.5a6.8 6.8 0 0 1-3.7 1.7l-18 2.4c-.4 0-.6-.2-.6-.6v-9Zm21.6-46.8c.8-.3 1.6-.8 2.3-1.4a.7.7 0 0 0 0-1c-.4-.3-.9-.4-1.5-.4-.4 0-.6.2-.7.7 0 .5-.4.9-.8 1.2a10 10 0 0 0-4.4 5.9c-.2.8 0 1 .7.5 1.7-1.3 3-2.9 3.7-4.8.1-.4.4-.6.7-.7Zm-12.8 5.2 8-3.9a.5.5 0 0 0 .2-.4.5.5 0 0 0-.1-.4l-.3-.4c-.4-.5-.9-.6-1.5-.3-2.7 1.5-6 2.7-8 5.4a39 39 0 0 1-4.7 5.7l.3.2c2.2-1.7 4.2-3.6 5.9-5.6l.2-.3Zm-15.2-1.9c-3.6-1.5-7.6.5-9 4.2-1 2.4-.2 4.3 2.4 5.8.8 1.7 2.4 2.5 5 2.4h2.5c.4 0 .6.2.6.5v2.7c-7.9.5-14-1-16-9.4a.2.2 0 0 0-.1-.1.2.2 0 0 0-.2 0c-.6 5.3 1.7 11.9 7.3 13l2.4.4c.4.1.6.4.7.8 0 .4-.1.6-.5.9-5.2-.6-8.8-3.5-10.6-8.9-3.9-11.6 3.9-21.2 16.2-18.7.4.1.6.4.7.8.6 4 .2 5.9-1.4 5.6Z" fill="#FDFDFD"/><path d="M155.9 22c-.7 2-2 3.6-3.7 4.7-.8.6-1 .4-.7-.4a11 11 0 0 1 4.4-6c.4-.2.7-.6.8-1.1 0-.3.3-.5.7-.6.6 0 1.1.1 1.4.5a.7.7 0 0 1 0 .9c-.7.6-1.4 1.1-2.2 1.4a1 1 0 0 0-.7.6Z" fill="#C9CACE"/><path d="M94 38.9c0-2-2-3-6-2.7-4.5.2-8.3 1.9-11.3 5a1 1 0 0 1-1.4-.3L73 36.4c-.3-.6-.6-.6-.9 0l-.4.6c-.3.3-.5.3-.8 0v-.6c.6-6.4 4.4-10.5 9.7-13.7 1.8-1 3.9-1.6 6.1-1.6 5-.2 8 0 9.1.3l2.3.7c.7.1.9.4.5 1-1.2 1.6-2 3.5-2.3 5.6 0 .5-.2.6-.7.4-4.6-2.4-9-1.7-13.3 2.4-.6.4-.5.6.2.6 2.4-.4 5.1-.2 8.3.4 3.2.7 4.8 2.7 4.7 6 0 .2-.2.4-.6.5l-.7-.1Z" fill="#FDFDFD"/><path d="m143.8 26.6-.2.3c-1.8 2-3.7 3.9-6 5.6l-.2-.2V32c1.8-1.8 3.3-3.6 4.8-5.5 2-2.7 5.2-3.9 8-5.4.5-.3 1-.2 1.4.3l.3.4a.5.5 0 0 1-.2.8l-7.9 4Zm-15.2-1.9c-5.5.6-7.7 3.9-6.6 10-2.5-1.5-3.3-3.4-2.4-6 1.4-3.5 5.3-5.5 9-4Z" fill="#C9CACE"/><path d="M135 148.3c.7.5 1.5.6 2.3.5.7 0 1 .2 1.2.7l.2 1.1c0 .3.2.4.5.3.2 0 .3 0 .4-.3.4-2.6.4-5.5-.2-8.5-.2-.6-.3-1.1-.2-1.6.8-4.8.8-9.7.1-14.5l6.2-11.5c.1-.3 0-.4-.3-.4a6.3 6.3 0 0 0-2.8 2.3 43 43 0 0 1-6.5 8l-.8.1.5-21.5h4.8c.5 0 .9-.1 1.2-.4l5.2-4.3a.7.7 0 0 1 .6-.1c.2 0 .4.1.4.4.3.5.7.5 1.2 0 .3-.3.5-.6.5-1l5.7.8.6.3c.2 0 .4.3.5.4a9.7 9.7 0 0 1 1.2 5.2.7.7 0 0 0 .6.8c1.4 0 2.4-.7 2.8-2.2 1-2.9 1.5-5.5 1.2-7.8l8.4-10.6a1.4 1.4 0 0 0 .3-1.5c-.6-1.1-.5-2.1.2-3V80l-.4-.1a.5.5 0 0 0-.4 0l-3.7 6.5-4.7-.9c-.4 0-.7-.3-1-.7l-.2-.4c0-.6-.3-.7-.8-.5-.8.4-1.5.9-2 1.5-.6 1-2.2 1.2-3.1 2a5.3 5.3 0 0 1-4 1.3c-1.3 0-1.4-.6-.5-1.5a5 5 0 0 0 1.8-3.4.7.7 0 0 0-.3-.5l-.3-.1c-2.5-.3-4.8-.2-7.1.3-.9 0-1.7.2-2.4.6a4 4 0 0 0-.8 1.7c0 .4-.3.6-.7.6h-.8c-.4 0-.7.1-1 .4a9.3 9.3 0 0 0-1.9 5.4c-.4.4-.8.7-1.4.7l-.1-9.5c0-.5.2-.7.6-.8 7.3-.6 14.4-1.6 21.2-3 .5 0 1-.2 1.2-.6l13.4-11.4c.3-.4.5-.8.6-1.3l5.9-38.6v-.1a.3.3 0 0 1 0-.2.3.3 0 0 1 .3-.1l.1.1a218 218 0 0 1 11 9.6l.2.6c-.8 11.9-2 23.2-3.6 34-.7 4.5 3 10.3 5.4 13.8 1.2 1.8 1.7 3.7 1.2 6a126.8 126.8 0 0 0-3.4 18.2 1.2 1.2 0 0 1-1.5.3c-1.3-1.2-2.6-2.9-4.6-2.9-10.3 0-20.2.2-30 .4-.4 0-.8.2-1.1.6l-9.7 14.2c-.2.4-.4.8-.4 1.1l-.8 37.8c0 .3 0 .4-.2.5a38.4 38.4 0 0 1-5.4 2.8l-.6-16Zm43.7-93.6-.3 1c-.8.3-1.5.7-2.1 1.3-.5.4-.4.8.4 1h.4c.2-.2.4-.2.6 0 .8.3 1 .7.5 1.1-.3.3-.4.6-.1 1 .4.8.4 1.7 0 2.5a16.8 16.8 0 0 0-1 8.3 69 69 0 0 1-4.1 5.4c-.4.4-.3.6.2.5.6-.5 1.1-.6 1.7-.5.7.2.8.6.2 1.1l-3.3 3.6.1.4c.2.2.4.2.6 0 2.3-1.5 4.2-3.4 5.7-5.6 2-1.6 3-3.6 5.7-4 .4 0 .6-.2.7-.6.1-1 0-1.9-.3-2.6.3-.3.4-.6.4-.9.4 0 .7 0 .8-.3a.4.4 0 0 0-.1-.6h-.8c-.5 0-.8-.2-1-.6a9 9 0 0 1-.8-5.8A2 2 0 0 1 184 59c1.6-.7 2.8-2.6 2.5-4.4-.2-.9 0-1.7.3-2.5.2-.4.2-1 0-1.4-.6-1-.5-2 .4-3a.6.6 0 0 0 0-.7l-.3-.2-.2-.1c-.4-.2-.7-.2-.8.2-.6 1-1.3 1.8-2 2.4l-1 .5c-1.8.2-3.5.8-5.2 1.6a.8.8 0 0 0-.5.7c0 .6.3 1 .9 1.2a1.2 1.2 0 0 1 .6 1v.4Zm.8 49.2-.2.3c-.4.3-.4.6 0 .7h.9c.4-.1.6-.4.7-.8l.6-2.7c.2-.6 0-.7-.5-.2-.7.7-1.2 1.6-1.4 2.4v.3h-.1Z" fill="#F0F0F0"/><path d="M126.7 32.5a.4.4 0 0 1-.5-.2V31.4l.2-.6.6-.5.6-.3h.5l1.4.1c.4.2.7.5.9.9v.2a.3.3 0 0 1 0 .3.4.4 0 0 1-.3.2l-3.4.8Zm3.4 7.8L130 45c0 .4-.2.6-.7.6a13 13 0 0 1-5.6.3c.4-.3.5-.5.5-.9s-.2-.7-.7-.8l-2.4-.3c-5.6-1.2-7.9-7.8-7.3-13a.2.2 0 0 1 .2-.1h.2c2 8.5 8 10 16 9.5Zm-36-1.4c-7.7-1.7-13.9.3-18.4 6L73 47.7a.6.6 0 0 1-1-.2 28 28 0 0 1-1.4-11.2v.5c.3.4.6.4 1 .1l.3-.5c.3-.7.6-.7 1 0l2.3 4.4a1 1 0 0 0 1.4.2c3-3 6.8-4.7 11.4-5 3.9-.1 6 .8 6 2.8Zm36.1 14.2-.3 4.7c0 .4-.2.6-.6.6l-12.2.8c.2-.8 0-1.3-.3-1.5a22.4 22.4 0 0 1-12.2-10 18.3 18.3 0 0 1-2.4-9.5c0-.5.1-.5.3 0l2.1 3.8c5.5 9.8 14 13.5 25.5 11h.1Zm27.6-1.3c.3.2.4-.2.2-1.2 1-.6 1.9-.8 2.7-1.7 1.4-1.5 3-2.8 5-3.9 1.4-.7 2.1-2.3 2.8-3.9.2-.3.4-.3.7-.2l.4.4v.4l-.5 5.5c0 .4-.2.7-.6 1-.2.2-.5.3-1 .3s-.9.2-1.1.8c-1.7 3.5-4 2.5-6.4 4.5-.4.3-.7.3-1-.1l-1.2-2Z" fill="#C9CACE"/><path d="M65.3 45.9a10.7 10.7 0 0 0-7.7 3.2.2.2 0 0 1-.2 0l-.3-.4v-.6c1.6-2.1 3.4-4 5.6-5.5.7-.6 1.5-.5 2.3-.4.3 0 .5.2.6.5L66 45c0 .6-.3.9-.7.9Zm129.5-3.2c5.1 5.5 11.2 15.1 11.4 22.7.3 11.1.3 22-.1 32.7 0 .8-.3.8-.7.2l-15-23.8c-.2-.4-.2-.8-.2-1.2l4.2-30.4a.4.4 0 0 1 .2-.2.4.4 0 0 1 .4.1l-.2-.1Z" fill="#F0F0F0"/><path d="M110.4 61.8c-3 1.8-6.3 1.3-9.6-1.5-3.2-2.7-4.7-8-8.7-9.2-4.7-1.6-8.2-.4-10.3 3.5-1.2 2-1.2 4.5-2.7 6.3-3 3.4-6.7 3.5-10.9.3-.4-.3-.6-.2-.6.4.3 3.7 2.2 5.7 6 5.9 5.7.3 8.8-2.7 9.3-9.1a6.1 6.1 0 0 1 5.4-5.6c2.4-.2 5.4 1.5 6.3 4A15.4 15.4 0 0 0 104 67c2.8 1 7 1.2 12.7.6-4 2-7.5 2.7-10.7 1.8-5.9-1.6-10.2-6-13-13-.1-.3-.3-.6-.6-.8-3-2.5-7.8-1.3-8 3-.1 6.4-4.7 11.3-11.3 10.2-4.8-.7-7-3.8-6.9-9.3a1.5 1.5 0 0 1 2.4-1.2c3 1.8 7 .5 7.7-3.2 1.1-8.6 6.3-12.4 15.3-11.6 3.6.3 6 2.2 7.1 5.6a27.5 27.5 0 0 0 11.7 12.5v.1Z" fill="#FDFDFD"/><path d="m184.6 67.7-.4-.3a1 1 0 0 0-1-.1c-.9.3-2.2.2-2.6-.8-.3-.3-.4-.8-.5-1.3 0-.3-.2-.4-.6-.3h-.5c-.2 0-.3.2-.3.5.4 2.3-.2 4.2-1.7 5.5-.4-2.7 0-5.5 1.2-8.3.2-.8.2-1.7-.2-2.4-.3-.4-.3-.8 0-1.1.4-.4.3-.8-.4-1.2h-1.1c-.7 0-.8-.3-.3-.8a5 5 0 0 1 2.1-1.3c.2.5.5.8 1 1a1.2 1.2 0 0 0 1.5-1.2l-.1-.9a1 1 0 0 0-.9-.6c-.6 0-1 .2-1.3.6v-.4a1.2 1.2 0 0 0-.5-.9c-.6-.3-.9-.7-.9-1.3a.8.8 0 0 1 .5-.7c1.7-.8 3.4-1.4 5.2-1.6.3 0 .7-.2 1-.4l2-2.3c.1-.5.4-.6.8-.4l.2.1a.6.6 0 0 1 .3.8c-.8 1-1 2-.5 3.1.2.5.2 1 0 1.4a6 6 0 0 0-.3 2.4c.4 1.9-.8 3.8-2.3 4.5a2 2 0 0 0-1.2 1.4c-.4 1.8-.2 3.7.7 5.8.2.4.5.6 1 .6h.5a.4.4 0 0 1 .5.1.4.4 0 0 1-.1.5l-.8.3Zm.8-13.7c.3-.2.3-.5 0-.8a.8.8 0 0 0-1-.1l-.2.2-1.8 2.1c-.3.4-.2.6.3.6 1.2 0 2-.6 2.5-1.7 0-.1 0-.2.2-.3Zm-75 7.8 11 3c.4 0 .4.2.2.6-1.6 1.7-3.2 2.5-5 2.3-5.5.6-9.8.4-12.6-.6a15.4 15.4 0 0 1-9.4-10.4c-.9-2.3-4-4-6.3-3.9a6.1 6.1 0 0 0-5.4 5.7c-.5 6.3-3.7 9.3-9.5 9-3.6-.2-5.6-2.2-5.9-6 0-.5.2-.6.7-.3 4.2 3.2 7.8 3.1 10.9-.2 1.6-1.8 1.5-4.4 2.7-6.5 2.1-4 5.6-5.1 10.3-3.5 4 1.4 5.5 6.4 8.7 9.2 3.3 2.9 6.5 3.4 9.6 1.5v.1Z" fill="#C9CACE"/><path d="M91.4 67.5C84.6 84 64 80.7 58.3 65.7c-1-2.6-1.4-2.5-1.2.4A18 18 0 0 0 76 82.6a23 23 0 0 0 17.1-8c.3-.1.5-.2.9-.1.2 0 .3 0 .3.3A20 20 0 0 1 80.4 84C68 85.7 56.2 78.5 55.6 65.4c0-4.8 2.3-11.5 7-13.9 2.8-1.4 5.4-1 7.9 1 .8.8.7 1-.4.7-4-.8-6.5.4-7.8 3.5a11.8 11.8 0 0 0 9.8 16.6c4 .6 9.5 0 12.5-2.7 1.8-1.6 4-3.6 6.8-3.1Z" fill="#F0F0F0"/><path d="M158 50.6c.2 1 0 1.4-.2 1.2a135 135 0 0 0-10.3 9.7c-.6.5-1 1.1-1.3 1.9-.6.1-.8 0-.7-.5 2-4.3 3.6-7.1 4.8-8.4 1.6-1.6 4.1-2.9 7.7-3.9Zm27.2 3.7c-.5 1-1.3 1.7-2.4 1.7-.6 0-.7-.2-.4-.6l1.8-2a.8.8 0 0 1 1.2 0c.3.2.3.4 0 .6l-.2.3Zm-6.9 1.4.2-1c.3-.4.7-.6 1.2-.6a1 1 0 0 1 1 .6v.7a1.2 1.2 0 0 1-1.4 1.2c-.5 0-.8-.3-1-.8v-.1Z" fill="#7E7B7D"/><path d="M52.2 56.9c-1.8 3-1.2 8.7-1.5 12.2a1.7 1.7 0 0 1-.7 1.2c-2.2 1.8-3.7 4-4.5 6.6-.2.7-.4.7-.7 0-3.7-9-1.6-16 6.3-21 1.6-1 2-.7 1 .8v.2Z" fill="#F0F0F0"/><path d="M145.6 62.8c-.2.5 0 .8.6.7l-1.7 3.2c-.1.3-.4.5-.8.7-3 .8-6 1-8.6.8v-2.1c1.6-.3 3.2-.4 5-.1.3 0 .6-.2.9-.4 1.3-1.2 2.8-2 4.5-2.7v-.1Zm-54.2 4.7a8 8 0 0 1 4.7 3.4c.2.3.2.7 0 1l-1.9 3c0-.3-.1-.4-.3-.4-.4-.1-.6 0-.9.2a23.7 23.7 0 0 1-17.1 8 17.9 17.9 0 0 1-18.7-16.6c-.3-2.9 0-3 1.1-.4 5.7 15.1 26.3 18.3 33 1.8Z" fill="#C9CACE"/><path d="M184.6 67.7c0 .3-.1.6-.4.9h-3.6c-.4 0-.7.1-.8.4l-1.7 6.8c-1.5 2.2-3.4 4-5.7 5.6-.2.2-.4.2-.6 0l-.1-.3V81l3.3-3.6c.6-.5.5-1-.2-1.2-.6 0-1.1.1-1.6.5-.6.2-.7 0-.3-.4A55 55 0 0 0 177 71c1.5-1.3 2-3.2 1.7-5.5 0-.3 0-.4.3-.4l.5-.1c.3 0 .5 0 .6.3l.5 1.3c.4 1 1.7 1.2 2.6.8.3-.3.7-.2 1 0l.4.4Z" fill="#7E7B7D"/><path d="M130.1 75.2c-9.6 2.7-19 5.9-28.2 9.4a46 46 0 0 0-12.7 7.8 33.7 33.7 0 0 0-10.1 14 1.4 1.4 0 0 0 .3 1.5c1 1 2 .9 2.9-.6 1.9-.2 3.8-.6 5.6-1.2 2.6-1 4.5-1.5 5.6-1.6 4-.4 8.2.2 12.3 1.7.5.3.5.4 0 .5a69 69 0 0 0-13.7 3.9c-4 1.4-6.5 4.8-9.2 8a1 1 0 0 1-1 .2c-3.4-1.2-5.2-3.8-5.5-7.8-1.2-13 4.8-20.6 15.3-26.9 5.8-3.5 8.6-7.9 15.9-9 5-.8 9.9-2 14.8-3.5 1.8-.5 4-2 6.5-4.2.5-.4.7-.3.7.3l.5 7.5Zm54.1-6.6c.3.7.4 1.6.3 2.6-.1.3-.4.6-.8.7-2.7.3-3.5 2.3-5.6 3.9l1.7-6.8c.1-.3.4-.4.8-.4h3.6Z" fill="#C9CACE"/><path d="M71 88.2c-1.3 3.6-4.4 5-9.3 4-4.2-.8-7.5-3.1-9.8-7-.5-.8-.7-.7-.7.2a11 11 0 0 0 3.6 7.8c.3.4.3.6 0 .9l-.9.2c-5-5.5-6-11.4-3-17.7 1-2 2-2 2.8.1.5 1.1 1 2 1.9 2.6 2.3 1.8 1.4 3.7 2.6 6 1.3 2.7 3.5 4 6.5 3.5 2.7-.6 4.8-.8 6.2-.5v-.1Z" fill="#F0F0F0"/><path d="M130.1 75.2v87.4c-5.9-3.7-10.2-3.3-13 1.2-.8-4.8.4-8 3.4-9.7h2.3c.4 0 .6.3.7.7.3 1 .7 2.1 1.2 3 .2.8.4.8.5 0 .7-10.6 1-21 .7-31.5l-.6-9.2a12.9 12.9 0 0 0-10-12.5 42.3 42.3 0 0 0-33 2.8c-.8 1.4-1.8 1.6-2.9.5a1.4 1.4 0 0 1-.3-1.5 33.7 33.7 0 0 1 10.1-14 46 46 0 0 1 12.7-7.7 313 313 0 0 1 28.2-9.5Z" fill="#FDFDFD"/><path d="M46.5 91.8c-3 1.3-5.4-.1-7.1-4.2-.9-2.3-1.3-2.2-1.4.2-.2 5.4 2.7 9 8.6 11 .2 0 .2.1.2.3v.4a.6.6 0 0 1-.3.5H46c-10-3-11.8-14.3-7-22.7 0-.4.2-.4.4 0l7 14.5Z" fill="#F0F0F0"/><path d="M162.1 95.1c-.8-1.5 0-3.2 2.3-5a5.9 5.9 0 0 0 2.1-3.8l3.5-6.4a.5.5 0 0 1 .6-.1h.4c-.8 1-.9 2-.2 3.2a1.4 1.4 0 0 1-.3 1.5l-8.4 10.6Z" fill="#565555"/><path d="M166.5 86.4a5.5 5.5 0 0 1-2.1 3.8c-2.2 1.7-3 3.4-2.2 5 .2 2.3-.2 4.9-1.1 7.7-.6 1.6-1.6 2.3-3 2.2a.7.7 0 0 1-.7-.8c.2-1.8-.2-3.6-1.2-5.2l-.4-.4-.6-.3-5.6-.8c1-3.4 3-6 5.8-7.8a1 1 0 0 1 1 0c1 .7 2.2 1.2 3.5 1.5 1 .3 1.2 0 .7-.9a8.9 8.9 0 0 1-1.5-3.7.7.7 0 0 0-1-.4c-2.2 1-4.2 1.9-5.5 4.1-1.3 2-2.8 3.6-4.4 5-.3.2-.5.5-.6 1-.2 1-.8 1.6-1.9 1.6-.4 0-.7.1-1 .4l-2.7 2.9c-.3.2-.7.4-1.1.4-1.1.4-2.4.4-3.8.2-.6 0-1 .1-1.5.4-.2 0-.3 0-.4-.3-.3-2.6-.3-5.3 0-8l2.1 1c.3.2.7.1 1-.1.7-.8.9-1.7.6-2.7-.1-.5 0-.7.5-.6.7 0 1 .3 1.2 1a.4.4 0 0 0 .6 0c1.2-1 1.8-1.8 2-2.5.1-2.3.5-4.5 1-6.8a21.3 21.3 0 0 1 7.5-.2.7.7 0 0 1 .4 1c-.3 1.1-1 2.1-1.8 3-1 .9-.9 1.4.5 1.5 1.4 0 2.7-.4 3.9-1.4 1-.8 2.5-1 3.2-1.9.4-.6 1-1.1 1.9-1.5.5-.2.8 0 .8.5l.2.4c.3.4.6.5 1 .6l4.7 1Z" fill="#C9CACE"/><path d="m144.2 83.4-1.2 6.7c0 .7-.6 1.6-1.8 2.7a.4.4 0 0 1-.3 0 .4.4 0 0 1-.3-.2c-.1-.6-.5-1-1.2-1.1-.5 0-.7.2-.5.7.3 1 0 2-.6 2.7-.3.2-.7.2-1 0l-2.1-1c.2-.4.3-.8.2-1.1.5 0 1-.3 1.4-.7 1.5-.6 2.5-2 3.1-4.2 0-.4.3-.6.7-.8l1.2-.4c.3-.1.6-.4.7-.7 0-.4-.1-.6-.3-.8a.8.8 0 0 1-.4-.7l.1-.5c.7-.4 1.5-.7 2.4-.7l-.1.1Z" fill="#565555"/><path d="M142 84v.5c-.2.3 0 .6.2.7.3.2.4.4.3.8-.1.3-.4.6-.7.7l-1.2.4c-.4.2-.6.4-.8.8-.5 2.2-1.6 3.6-3 4.2 0-2 .6-3.8 1.8-5.4.3-.3.6-.4 1-.4h.8c.4 0 .6-.2.7-.6a4 4 0 0 1 .8-1.7Zm-71 4.2 5.6 1c.4 0 .5.2.4.6-3.6 10-15.7 10.2-23 4.4l.6-.3c.5-.2.5-.5.2-.8a11 11 0 0 1-3.6-7.8c0-.8.2-.9.7 0 2.3 3.7 5.6 6 9.8 6.9 5 1 8-.4 9.2-4Zm-24.5 3.6L51 98c.2.4.2.7-.1 1a5.5 5.5 0 0 1-5 1h.5a.6.6 0 0 0 .3-.5v-.4c0-.1 0-.2-.2-.3-5.9-2-8.8-5.6-8.6-11 0-2.4.5-2.4 1.5-.2 1.7 4 4 5.5 7 4.2Z" fill="#C9CACE"/><path d="M149.5 97.6c0 .3-.2.7-.5 1-.5.5-.8.5-1.2 0l-.4-.5a.7.7 0 0 0-.6.1l-5.2 4.4c-.3.3-.7.4-1.2.4h-4.7l-.1-.7c.4-.4.9-.5 1.4-.4 1.5.2 2.8.2 4 0l1-.6 2.6-2.9c.4-.3.7-.4 1.1-.4 1.1 0 1.7-.5 1.9-1.7 0-.4.2-.7.6-1 1.6-1.3 3.1-3 4.4-4.9 1.3-2.2 3.3-3.2 5.5-4.1a.7.7 0 0 1 1 .4c.2 1.4.7 2.6 1.5 3.8.5.8.2 1-.7.8-1.3-.3-2.5-.8-3.6-1.5a1 1 0 0 0-1 0 14.1 14.1 0 0 0-5.8 7.8Z" fill="#565555"/><path d="M143.2 179.5c-.3-.7 0-1.5.6-2.4a45 45 0 0 0 9.1-9.4l1 .4c.2.2.3.4.3.7l-.1.5a.4.4 0 0 0 0 .4l.3.2c.3 0 .5 0 .6-.2 1.3-2 1.7-4.2 1.2-6.5a6 6 0 0 1 1.7-3.3h3.8a.2.2 0 0 1 .1.1v.2l.4 3.3h.3c.1-1.4.4-2.7.7-3.8.7-2.6 2.4-3.2 5-1.8a.7.7 0 0 0 .5 0 .7.7 0 0 0 .4-.4 5 5 0 0 1 2.8-2.6c.8-.3.8-.4 0-.4-1.9.3-2.7-.2-2.6-1.4 2.4-1.2 3.9-2.6 4.5-4.2.8.6 1.8.8 2.9.6.4-.1.7 0 .8.6 0 .5 0 1-.4 1.5s-.2.7.5.5c1-.4 1.7-1.2 2-2.4.5-2 1.5-3.7 3-5 .4-.4.4-.6 0-.8a.6.6 0 0 0-.7 0c-.8.3-1 .1-.6-.6l2-3.5c.2-.2.2-.3 0-.5h-.3l-5.5 6.3c-.3.3-.7.4-1 .3H175c-.4.2-.5.5-.5.8 0 .8-.1 1.5-.5 2-.4.3-.7.4-1.1.2l-4-2.4c-.4-.2-.5-.6-.4-1l2-6.5v-.6c-.2-.6-.6-.8-1.3-.7-.1 0-.3 0-.4.2-.4.3-.4.6 0 .8.3.3.4.5.2.8l-.8 1.8-.3.6c0 3.4-.6 7.3-3 10-.2.2-.6.5-1 .5-2 .3-4 .3-5.9 0a1 1 0 0 0-1 .5c-.2.3-.2.7 0 1l-1.1 1.2-5.7 3.5a1 1 0 0 1-.6.1.8.8 0 0 1-.6-.3l-.4-.5c-.5-.5-.8-.4-.9.3 0 1 .4 1.8 1.2 2.4.4.2.5.6.3 1.2-.8 2-2.4 3-3.5 5.1-1.2 2.6-2.3 5.5-4.7 7-1.2.8-2.2 1.7-3.2 2.6-.4.3-.4.6 0 .8 1 .8 1.1 1.5.5 2h-2.6c-.6 0-1-.2-.8-.8l.4-8.1a1.4 1.4 0 0 1 .7-1.2l8.7-4.3a1.9 1.9 0 0 0 1.1-1.6v-6.9c2.4-1.6 3.8-4.3 4.2-8l4.5-4.7c1.5-.6 1.9-2.4 3.7-2.3.4 0 .6 0 .8-.2.7-.8.9-1.7.7-2.8a1.2 1.2 0 0 0-2-.6c-.3.4-.7.4-1 0-.2-.1-.3-.5-.2-.9a4 4 0 0 0-1-3.7l-1-1.2c-1-2.8-3.8-3-6.2-3.7-.4 0-.7-.3-.8-.7l-.2-.7c3-.4 5.3.4 7 2.3l4.7 5.5c.2.3.5.5 1 .5h16a1.3 1.3 0 0 0 1-.5c3.5-4.5 7.2-8.7 11-12.8.7-.8 1.2-1.7 1.4-2.7.2-.4.4-.6.7-.8a5 5 0 0 0 2.4-3L197 95a.4.4 0 1 1 .7-.1l5.7 8.2c.3.5.5 1 .5 1.7v26c0 .5-.2.9-.5 1.2L179.3 155c-.4.4-.6.8-.6 1.2l-5 24.8c0 .4-.2.8-.6 1-4.3 3.7-8.5 7.8-12.6 12.5-.3.3-.7.3-1 0l-4.8-4a2 2 0 0 1-.7-1.3c-.4-3.6-2-6.6-4.9-9l-1.1-.5-4.8-.3Zm51.6-66c-.4 1-.4 2.5 0 4.4.5 2.5.2 5.1-.9 8a1 1 0 0 1-.7.5l-3 1.1c-.5 0-.7.3-.7.8 0 1 .4 3-.4 4-.3.3-.6.4-.9.5a2 2 0 0 0-1 .8l-.5 1.8c-.8 2-.2 2.5 1.7 1.7l2-1.3.5-1c.5-1.6.8-3.2 1.8-4.5 2.5-3.1 3.9-6.8 4-11 0-.5.2-.8.5-1.1l1.7-1.3c.3-.3.5-.6.6-1l1.1-5.9c1-.8 1.5-1.8 1.5-3 0-.4-.3-.6-.8-.4-.8.4-1.4 1.2-1.7 2.5a1 1 0 0 1-1.2.8 1 1 0 0 1-.5-.2l-1-1c-.4-.4-.6-.3-.8.3l-1.3 4.6Zm-38.3 74.1a1.9 1.9 0 0 1 0-1.6 8 8 0 0 0 1.1-4.2c.2-1.8-.2-1.9-1-.3-1 2-1.4 4.4-1 7 0 1 .6 1.6 1.4 2 .6 0 1 .3 1.2.8l1 1h1c1.3-1 2.4-2 3.2-3.1 1.6-2.2.3-4.4-.4-6.5-.3-.7-.5-.7-.8 0-.4 1.4-.5 3.5-2.3 3.9-.4 0-.6.3-.8.5-.3.4-.4.7-.4 1 0 .3-.2.5-.5.7-.6.3-1.2 0-1.7-1.2Z" fill="#F0F0F0"/><path d="M209.4 144.2c2.1-1.9 4-3.8 5.4-6a6.6 6.6 0 0 0 1.2-4 40.8 40.8 0 0 1 .2-4.9.8.8 0 0 0-1.2-.4c-2.3 1-4.4 1.3-6 .7v-20a28.2 28.2 0 0 0 .1-12c.1-.5.3-.5.6-.1l7.1 9.7c.5.7.8 1.5.8 2.3V136a3 3 0 0 1-.7 1.9l-6.8 8.3c-.3.4-.6.3-.8-.2-.2-.6-.2-1.2 0-1.8Z" fill="#FDFDFD"/><path d="M209.4 99a30 30 0 0 1-.5 10.7l.5-10.7Z" fill="#C9CACE"/><path d="M179.5 103.8c.2-1 .7-2 1.4-2.6.5-.5.6-.4.5.2l-.6 2.7c0 .4-.2.7-.7.8h-.8c-.5-.1-.6-.4-.2-.7l.3-.3v-.1Z" fill="#7E7B7D"/><path d="M62.3 103c1.2 0 2 .4 2.4 1 .4.5.5 1 .2 1.5a7.6 7.6 0 0 1-8.3 4c-1.8-.3-3.3-1.3-4.7-2a.6.6 0 0 0-1 .6 4.7 4.7 0 0 0 3.6 4c8.6 2.7 14.1-.9 16.6-10.7.9 1.4.5 3.6-1.2 6.5-2.8 5-7 7.2-12.4 6.6-5.1-.5-8-3.5-7.6-8.6a2.1 2.1 0 0 1 3-1.8l3.5 1.3c.4.2.8.2 1.2 0l4.7-2.5Z" fill="#FDFDFD"/><path d="M71 101.4c-2.4 9.8-7.9 13.4-16.5 10.7a4.7 4.7 0 0 1-3.5-4.3.6.6 0 0 1 .8-.4c1.5.7 3 1.8 4.7 2 3.7.6 6.5-.7 8.3-3.9.4-.5.4-1 0-1.5-.5-.6-1.3-1-2.5-1.2l8.8-1.4Z" fill="#C9CACE"/><path d="M57.1 121.1c-5.5 1.3-9.8-1-13-6.7-.1-.3-.3-.3-.6 0-.3.5-.4 1-.2 1.5 1.8 7.7 7.6 11 17.4 10.3a10 10 0 0 1-12.3-.5c-6.3-4.8-8.6-11.5-6.8-20 0-.4.2-.6.6-.9.6-.3 1.2-.5 2-.5.4 0 .6.3.6.8-.1 8.1 4 13.5 12.3 16Z" fill="#F0F0F0"/><path d="M200.6 110c-2.4 3-4.4 4.3-5.9 3.6l1.4-4.8c.2-.4.4-.4.8 0l1 .9a1 1 0 0 0 1 .1 1 1 0 0 0 .7-.6c.3-1.4.9-2.2 1.7-2.6.5-.2.8 0 .8.5 0 1.2-.4 2.2-1.5 3Z" fill="#565555"/><path d="M93.1 115.3c-1.5.8-3 2-4.2 3.3-.6.7-.7.6-.5-.2 1-2.8 2.9-4.9 5.5-6.1 8.6-4.5 16-2.5 22.2 5.9a.6.6 0 0 1 0 .6l-.4.3h-.1c-6.7-6.8-14.2-8-22.5-3.8Z" fill="#F0F0F0"/><path d="m200.6 110-1.1 6c0 .3-.3.6-.5.9l-1.8 1.4c-.3.2-.5.5-.5 1-.1 4.2-1.5 7.9-4 11-1.2 1.4-1.3 2.9-1.8 4.5a2 2 0 0 1-.5 1l-2 1.1c-2 1-2.5.5-1.7-1.4l.6-1.9a2 2 0 0 1 1-.8c.3 0 .6-.1.8-.5.8-1 .4-3 .4-4 0-.5.2-.7.6-.8l3-1c.4-.1.6-.3.8-.7 1.1-2.8 1.4-5.4.8-7.8-.4-2-.4-3.4 0-4.4 1.5.7 3.5-.5 6-3.6Z" fill="#C9CACE"/><path d="M158.5 123.9a10 10 0 0 0 12.3 6.9 10 10 0 0 0 6.5-12.5 10 10 0 0 0-12.3-7 10 10 0 0 0-6.5 12.6Z" fill="#FDFDFD"/><path d="m57.1 121.1 6.9.8c.4 0 .6.3.4.8-.7 2.3-2 3.5-3.7 3.5-9.8.8-15.6-2.6-17.4-10.3-.2-.5 0-1 .2-1.5.3-.3.5-.3.6 0 3.2 5.7 7.5 8 13 6.7Z" fill="#C9CACE"/><path d="M139.3 126c-.4.6-.8.8-1.2.7-.5-.3-.6-1-.2-2.4l-1 .6a.6.6 0 0 1-.5.2c-.5 0-.7-.3-.5-.8a43 43 0 0 0 6.5-8c.6-.9 1.6-1.6 2.8-2.2.4 0 .4 0 .3.4l-6.2 11.5Z" fill="#7E7B7D"/><path d="M85.8 125.7c-3.4-.3-6.6-1.6-9.8-3.8-.3-.2-.6-.2-.8 0a7.9 7.9 0 0 0-1.8 5.5c.5 4.6 1.7 10 3.6 16 2.8 9 7.2 20.5 13.3 34.4 3.6 8.4 8.7 17 15.4 25.8h-.9l-1.3-.7c-8-7-14.2-14.6-18.5-22.8a281 281 0 0 1-11.2-24.6c-1-2.4-1.4-2.4-1.2.2 1 12.9 4.8 25 11.4 36.6 4 6.8 9 12.5 15.2 17.2 8.6 6.5 19 10.5 31 11.9-6.8 1.3-13.9 0-21.3-4a65.8 65.8 0 0 1-34.4-43.5 170.8 170.8 0 0 1-5.5-44.4 26.3 26.3 0 0 1 3.8-13.8.7.7 0 0 1 1 .2c.8 1.4 1.7 2.8 2.8 4 .9 1 2.2 2 4 2.9 1.8.8 3.5 1.7 5.2 2.8v.1Z" fill="#F0F0F0"/><path d="M110.9 120.4c-1.3-.1-2.9-.7-4.8-1.8-1.2-.6-3.1-.8-5.6-.4l-5.1.7c5-4.3 10.1-3.8 15.3 1.5h.2Z" fill="#C9CACE"/><path d="M110.9 120.4c1 1.7-.3 3.3-3.6 4.7-4.2 2-8.7 1.4-13.7-1.7-1.2-.8-1.3-1.7-.2-2.8l2-1.8c1.7-.1 3.4-.3 5-.6 2.6-.4 4.4-.3 5.6.4 2 1 3.6 1.7 4.7 1.8h.2Z" fill="#FDFDFD"/><path d="M125.9 126.3c.3 10.4 0 21-.7 31.6 0 .7-.2.7-.6 0l-1.1-3.1c0-.4-.3-.6-.7-.6h-2.4c1-2 .8-3.2-.4-3.7 1.5-5.8 1.6-11.8.4-18-.2-1-.7-2-1.5-2.8l-2.4-2c.8-1.1 1.8-1.4 3.1-.8 1.6.8 2 2.2 1.4 4.3-.1.6 0 .7.4.2.4-.6.6-1.1.6-1.7a74.6 74.6 0 0 1 1.3-8.4.6.6 0 0 1 .4-.1h.3l.3.3c.6.4.8 1 .7 1.6-.1 1.8.2 2.9.9 3.2Z" fill="#F0F0F0"/><path d="M85.8 125.7c1 .2 2.6 1.2 4.9 3 .4 1.6 1.2 2.5 2.2 2.7.3 0 .6.2 1 .5 1 .7 1.4 1.1 2.7 1.3 4.7.5 8.4.5 11 0 1.8-.3 3.4-1.4 4.8-3.3a9 9 0 0 0 4-2.2l2.5 2.2a5 5 0 0 1 1.5 2.7c1.2 6.1 1 12.1-.4 18-7.4 6.8-7.8 13.5-1.2 20l5.4 6c-4 1-6.8 2.5-8.7 4.6l-.7.5c-.6 0-.8-.2-.7-.6 0-.4-.2-.8-.6-1.2l-.9-.2a3.3 3.3 0 0 0-3 2.6c0 .4 0 .8.3 1.2l2 3.2c.1.4.5.4.9 0 2.8-2.7 7.2-3.7 13.2-3 1.3.2 2.5.7 3.5 1.6a1.3 1.3 0 0 1 .5.9l.2 4.7a.7.7 0 0 1-.6.7 20.2 20.2 0 0 1-12.3-1.4.4.4 0 0 0-.4.3l.1.3c0 .2.1.3.4.5-.5.5-.8.8-.8 1.2.3 2.5 1.8 4.6 4.7 6.5 2.6-1.3 5.3-1.7 8.2-1.3.3 0 .5.2.5.6V214a28.5 28.5 0 0 1-24.3-10.4 124.6 124.6 0 0 1-15.4-25.8c-6-14-10.5-25.4-13.3-34.5-2-6-3.1-11.3-3.6-16-.1-1.7.4-3.5 1.8-5.2.2-.4.5-.4.8-.2 3.2 2.2 6.4 3.5 9.8 3.8Z" fill="#FDFDFD"/><path d="M135.9 124.2c-.2.5 0 .8.5 1l.3-.1.3-.2.8-.7.1.1c-.4 1.3-.3 2.1.4 2.4.2.1.6-.1 1.1-.7a56 56 0 0 1-.2 14.5c-1-.6-1.9-1.7-2.4-3.4 0-.6-.3-.7-.8-.4-.2.2-.5.2-1 .1v-12.3c.4 0 .7 0 .9-.3Z" fill="#C9CACE"/><path d="M112.5 129.9a8.8 8.8 0 0 1-4.8 3.4c-2.7.5-6.4.5-11.1 0-1.3-.3-1.7-.7-2.7-1.4-.4-.3-.7-.4-1.1-.5-1-.2-1.7-1.1-2.1-2.6l-1.2-2.4c-1-2-.5-2.4 1.5-1.4 7.3 3.9 14.4 4 21.3.4 3.2-1.6 3.8-1 1.6 2l-1.4 2.5Z" fill="#F0F0F0"/><path d="m147.2 127 .3.6c0 .4.3.6.8.7 2.4.6 5.2.8 6.1 3.7-.3 1.6-.9 3-1.7 4.1a.6.6 0 0 0 0 .7l.2.4a.2.2 0 1 0 .5 0l2-4a4 4 0 0 1 1 3.7c0 .4 0 .8.3 1 .3.3.7.3 1.2 0a1.2 1.2 0 0 1 1.4 0c.2.2.3.3.3.5.3 1 0 2-.7 2.8-.1.2-.4.3-.7.2-1.9-.2-2.3 1.7-3.8 2.2-.3-.7-.4-1.6-.2-2.8a1 1 0 0 0-.6-1.1l-.4-.3a.6.6 0 0 0-.9.5l-.4 3.3c0 .4-.3.6-.8.7-1.2.4-2.4.3-3.5-.2-.5-.3-.8-.1-1 .3-.7 1.4-.6 2.6.2 3.8.5 1 1.6 1.2 3.2.6-.4 3.7-1.8 6.4-4 8v-29c0-.4.2-.6.7-.6l.5.1Zm1.8 12c.4-2.4 1.2-4.6 2.4-6.7a1 1 0 0 0 0-1v-.3c-.3-.3-.6-.3-1 0-1.6 1.3-1 2.5-1.3 4.3l-1.1 5.3a.5.5 0 0 0 .3.6c.2 0 .4 0 .6-.2.2-.2.4-.4.4-.6l-.2-.6v-.8Zm60.4 5.2-.5-14.6c1.7.6 3.8.3 6.3-.7a.8.8 0 0 1 1 .4c.1.1.2.3.1.4-.2 1.5-.3 3-.2 4.5 0 1.4-.4 2.7-1.3 4-1.5 2.2-3.3 4.1-5.4 6Zm-154-.6.3-.9c0-.4-.2-.6-.6-.7-4-1.2-6.8-3.8-8.1-7.9-.1-.4-.4-.5-.8-.2l-.3.7a7.8 7.8 0 0 1 0-3.3c0-.4.3-.6.8-.6 1.5.1 2.7.9 3.6 2.1a91.7 91.7 0 0 0 9 10 .5.5 0 0 1-.6.8h-3.4Z" fill="#C9CACE"/><path d="M149.1 139.8v.6a.8.8 0 0 1-.8.8.5.5 0 0 1-.5-.4v-.2c.5-1.6.9-3.4 1.2-5.3.5-1.8-.2-3 1.4-4.4.4-.2.7-.2 1 .1v1.4c-1.2 2-2 4.3-2.4 6.6v.8h.1Z" fill="#7E7B7D"/><path d="m154.4 132.1 1 1-2 4v.2a.2.2 0 0 1-.4 0v-.1l-.3-.4a.6.6 0 0 1 0-.7c.8-1.2 1.4-2.5 1.8-4.1v.1Z" fill="#565555"/><path d="M55.3 143.6c-5.2-1.4-8.3-4.4-9.4-9l.3-.7c.4-.3.7-.2.8.2 1.3 4.1 4 6.7 8.2 8 .3 0 .5.2.5.6 0 .3-.1.6-.4.9Z" fill="#F0F0F0"/><path d="M139.2 140.5c0 .5 0 1 .2 1.6-1 0-1.6-.2-1.7-.8a5.6 5.6 0 0 0-2.6-3.2c.4 0 .4-.4 0-1.2.4 0 .7 0 1-.2.4-.3.7-.2.9.4.4 1.7 1.1 2.8 2.3 3.4Z" fill="#565555"/><path d="M174 148.9c-5 3.7-10.1 6.3-15.7 7.8-.3.1-.6 0-.7-.4l-.7-2.3a1 1 0 0 1 0-1.2 1 1 0 0 1 1-.4c2 .3 4 .3 6 0 .4 0 .8-.3 1-.6a15 15 0 0 0 3-9.9l.3-.6.8-1.8c.1-.3 0-.5-.3-.8-.3-.2-.3-.5 0-.8l.5-.2c.7 0 1.1.2 1.2.7v.6c-.8 2.2-1.4 4.4-1.9 6.5-.2.4 0 .8.4 1l4 2.4c.4.2.7.1 1-.3.4-.5.6-1.1.6-1.8 0-.4.2-.7.5-.8a3 3 0 0 1 1.4 0c.4 0 .8-.2 1-.4l5.6-6.2c.1-.1.2-.1.4 0v.4l-2.1 3.5c-.4.8-.2 1 .6.6h.7c.4.2.4.4 0 .7a9.5 9.5 0 0 0-3 5.1c-.3 1.2-1 2-2 2.4-.7.2-.9 0-.5-.5.3-.5.5-1 .4-1.5 0-.5-.3-.7-.8-.6-1.1.2-2 0-2.9-.6h.1ZM135.1 138c1.1.7 1.9 1.7 2.4 3.2.3.6.9 1 1.8.8.6 3 .6 5.9 0 8.5 0 .2 0 .3-.2.3s-.4-.1-.5-.4l-.2-1c-.2-.6-.5-.8-1.2-.7-.8.1-1.6 0-2.3-.5l.2-10.2Z" fill="#C9CACE"/><path d="M196.7 158.6a319.5 319.5 0 0 1-7.5 27.5 1 1 0 0 1-.8.3 31.6 31.6 0 0 1-9.7-8.5v-.7l3.4-16c.2-1.2.8-2.3 1.6-3.3 6.5-6.9 12.8-13.2 19-18.8.7-.7 1.1-.5 1.1.6v9.4c0 1-.3 1.7-1 2.4l-5.4 5.8-.7 1.3Zm-6.6-4.3a29.5 29.5 0 0 1-3.6 3.3c-1.1.8-1.8 1.5-2 2.1-.5 1-.5 2.1 0 3.2-1.1 1.2-1.3 2.3-.4 3.2.2.3.2.7 0 1l-1.4 2c-1 1-1.4 2.3-1.2 3.8 0 .3.3.6.7.7 1.1 0 2.2-.2 3.2-.5.9.6 1.6.9 2.2.8 2.6-.8 4.1-2.3 4.6-4.5.1-.5 0-.8-.5-.8-.8-.2-1.6-.6-2.3-1.3-.2-.2-.3-.5-.2-1a9 9 0 0 1 4.8-7 .7.7 0 0 0 .3-.8l-.3-.3a4.3 4.3 0 0 1-2.3-2.6c.2-1.6 1-3 2.4-4.4 1-.8 1-1-.3-.7-1.7.6-2.9 1.8-3.7 3.8Z" fill="#F0F0F0"/><path d="m154.4 143.6-4.4 4.7c-1.6.7-2.7.5-3.2-.5a3.6 3.6 0 0 1-.3-3.8c.3-.4.7-.6 1.2-.3 1 .5 2.2.6 3.6.2.3 0 .5-.3.6-.7l.4-3.3a.6.6 0 0 1 .6-.5h.3l.4.3a1 1 0 0 1 .6 1.1c-.2 1.2-.1 2.1.3 2.8Z" fill="#7E7B7D"/><path d="M58.5 148.3c2 3.8 3.6 7.8 5.1 12a4.4 4.4 0 0 0 3.4 3c.3.5.3.9.2 1.2a.5.5 0 0 1-.9.2c-2.3-1.6-4-3.5-5-5.7a37.8 37.8 0 0 1-2.8-10.7Z" fill="#F0F0F0"/><path d="M58.5 148.3c4.5 1.4 7 3.3 7.2 5.8l1.2 9.2a4.6 4.6 0 0 1-3.3-3c-1.6-4.2-3.3-8.2-5-12Z" fill="#C9CACE"/><path d="M174 148.9c-.8 1.6-2.3 3-4.8 4.2a111 111 0 0 1-10.6 5.1c-.5.3-.7.9-.6 1.7-.8.7-1.4 1.9-1.9 3.3-.2.6-.6 1-1 1.4-.5.3-.7.2-.5-.4.5-1.8 1.3-3.4 2.3-4.7.2-.4.1-.7 0-1a2 2 0 0 0-2.1 0l-2.4 1.2c0 .2-.1.2-.2 0l-.1-.4v-.3l3.4-2.3c.3-.4.4-.9.4-1.4l1-1.3.7 2.3c.1.4.4.5.7.4 5.6-1.5 10.7-4.1 15.5-7.8h.1Z" fill="#565555"/><path d="M191.7 155.6c-.8.4-1.4 0-1.7-1.3.9-2 2.1-3.2 3.8-3.8 1.2-.4 1.4-.2.3.7a7.7 7.7 0 0 0-2.6 4.4h.2Z" fill="#7E7B7D"/><path d="M169.2 153.1c0 1.2.8 1.7 2.6 1.4.8 0 .8.2.1.4a5 5 0 0 0-2.8 2.6.7.7 0 0 1-.7.4h-.2c-2.6-1.4-4.3-.8-5 1.8-.3 1.1-.6 2.4-.7 3.7v.1h-.3l-.3-3.3v-.2h-.2l-3.7-.1c0-.8.2-1.4.7-1.7 3.7-1.6 7.2-3.3 10.6-5Zm-63.5 50.5c5.9 7.2 14 10.7 24.4 10.4v7.4a59.4 59.4 0 0 1-46-29 84.8 84.8 0 0 1-11.5-36.7c-.2-2.6.1-2.6 1.2-.2 3.1 8.1 6.9 16.3 11.2 24.6a78.1 78.1 0 0 0 18.5 22.8c.4.3.9.5 1.3.5l.9.2Zm84.4-49.3c.3 1.3.7 1.7 1.4 1.3a4.8 4.8 0 0 0 2.4 2.6.7.7 0 0 1 .3 1l-.2.2a8.9 8.9 0 0 0-4.8 7c0 .4 0 .7.2.9a3 3 0 0 0 2.4 1.2c.4 0 .5.4.4 1-.5 2.1-2 3.6-4.7 4.4-.4-1-.6-2-.3-2.7.1-.4.4-.5.8-.5.8 0 1.3-.3 1.7-1v-.3a.6.6 0 0 0-.3-.4h-.2c-2.6.1-3.9 1.5-3.8 4-1 .4-2 .5-3.2.4-.4 0-.6-.2-.7-.5-.2-1.5.2-2.8 1.2-3.8 1 0 1.8-.4 2.3-1 .4-.4.5-.8.5-1.3 0-1 .6-1.9 1.7-2.5.8-.3.8-.7 0-1h-.5c-.6-.2-.6-.6-.2-1l4.7-3h.1c.2-.3 0-.5-.2-.6a1 1 0 0 0-.7-.1 12 12 0 0 0-6 4.3 3.8 3.8 0 0 1 0-3.2c.3-.6 1-1.3 2-2 1.4-1.1 2.6-2.2 3.6-3.4h.1Zm-34.2 1c0 .5 0 1-.4 1.3l-3.3 2.4c-.2.1-.2.2-.1.3l.1.4c0 .2.1.2.4 0 .6-.5 1.4-1 2.3-1.3.7-.3 1.2-.2 1.8.2.3.2.4.5.2 1-1 1.3-1.8 2.9-2.3 4.6-.2.6 0 .7.4.4.5-.3 1-.8 1.2-1.4.5 2.3.1 4.5-1.2 6.5-.1.2-.4.3-.7.2l-.2-.1a.4.4 0 0 1 0-.5l.1-.5c0-.3-.1-.5-.3-.7l-1-.4a22.6 22.6 0 0 0-6.8 5.2 7.5 7.5 0 0 0-2.3 4.2c-.7.9-1 1.7-.7 2.4l-4.7-.1c.5-.7.3-1.3-.6-2-.4-.3-.4-.6 0-.9 1-1 2-1.9 3-2.6 2.5-1.5 3.7-4.4 5-7 .9-2 2.6-3 3.5-5.3.1-.4 0-.8-.4-1.1-.8-.5-1.2-1.3-1.2-2.4 0-.6.4-.7.8-.2l.6.5c.2.2.4.2.5.2.2 0 .4 0 .6-.2l5.7-3.1Z" fill="#C9CACE"/><path d="m182.7 169 1.4-1.8c.2-.4.2-.7 0-1-.8-1-.7-2 .4-3.3a11 11 0 0 1 5.9-4.3h.7c.3.2.4.4.2.7h-.1c-1.7.9-3.3 1.9-4.7 3-.4.4-.4.7.2.9h.4c.8.4.8.8 0 1.2a3 3 0 0 0-1.6 2.5l-.3 1.2c-.7.7-1.5 1-2.4 1h-.1Z" fill="#565555"/><path d="M130.2 162.7v1.8c-.2.4-.4.5-.8.3-2.4-1.4-4.5-3.2-7.3-2.7-1.6.2-3.2.7-4.9 1.5 2.7-4.4 7-4.7 13-.9Z" fill="#C9CACE"/><path d="M153 167.7a45 45 0 0 1-9.2 9.4 8 8 0 0 1 2.3-4.4c2.2-2.2 4.5-4 6.8-5Zm34.6 6.2c-.6.2-1.3-.1-2.2-.8 0-2.6 1.3-4 3.8-4.1a.6.6 0 0 1 .4.2.6.6 0 0 1 0 .5c-.3.8-.8 1.1-1.6 1-.4 0-.7.2-.8.6-.3.7-.1 1.6.4 2.6Z" fill="#7E7B7D"/><path d="M118.7 170.5h7c.3 0 .6.2.8.6l3.3 6.7a11 11 0 0 0-5.6-1.3l-5.5-6Z" fill="#F0F0F0"/><path d="M129.8 177.8c.3.5.4 1 .2 1.6 0 .4-.3.6-.7.4-2.4-.6-4.1-1.2-6.5-.4-2.4.7-4.8 1.3-7.3 1.7 1.9-2 4.8-3.6 8.7-4.6a11 11 0 0 1 5.6 1.3Zm26.7 9.8c.5 1.1 1.1 1.5 1.7 1.2.3-.2.4-.4.5-.7 0-.3.1-.6.4-1 .2-.3.5-.5.9-.5 1.7-.4 1.8-2.5 2.4-4 .1-.6.3-.6.6 0 .7 2.2 2 4.4.4 6.4-.8 1.3-1.9 2.4-3.2 3.2-.3.2-.6.2-1 0s-.7-.5-1-1c-.3-.4-.7-.7-1.2-.7-.8-.4-1.3-1-1.5-2-.3-2.6 0-5 1.2-7 .8-1.6 1.1-1.5 1 .3a10 10 0 0 1-1.1 4.2 1.9 1.9 0 0 0-.1 1.6Z" fill="#C9CACE"/><path d="m156.5 199.8-6.7-6.2c-1.6-1.5-3.3-1.5-5.4-1.5h-9c-.3 0-.4-.1-.4-.5v-7c0-.3 0-.4.3-.4l9.2.2c3 0 4.8 3 4.8 5.7a3 3 0 0 0 1 2.6l6.7 6.5a.5.5 0 0 1-.2.7h-.3v-.1Zm6.7-1.8 13.7-12.9a1.2 1.2 0 0 1 1.5 0l7.5 6.3a1.2 1.2 0 0 1 0 1.7l-21.4 19.7a1.2 1.2 0 0 1-1.9-.8l.2-13c0-.4.2-.6.4-.9Zm1.8 1.2a1 1 0 0 0-.4.6l-.6 8.6a1 1 0 0 0 1.7.8l17.5-16a1 1 0 0 0 .2-1.2 1 1 0 0 0-.2-.4l-5.2-4a1 1 0 0 0-1.2 0L165 199.2Z" fill="#F0F0F0"/><path d="m165 199 11.8-11.4a1 1 0 0 1 1.2 0l5.2 4a1 1 0 0 1 0 1.6l-17.5 16a1 1 0 0 1-1.7-.8l.6-8.6c0-.3.2-.5.4-.7Zm-47.6-7.7 4.7 2.6c.3.1.3.4 0 .7a5.1 5.1 0 0 0-.8 4.4c-2.9-1.9-4.4-4-4.6-6.7 0-.2.2-.6.7-1.1ZM97.5 234c.4-2 .3-3.5-.3-4.4-6.3-9.5-12.2-19-17.8-28.5-.7-1.2-1.1-1.1-1.3.2l-.9 6.2.2-12.8c0-1 .2-1 .6 0 .6 1.2.7 2.4 1.6 3.4l7 11.1a96.9 96.9 0 0 0 34.3 32.5c1.4.8 1.3 1-.2.8-8.3-1.4-16-4.2-23.2-8.3v-.2Z" fill="#C9CACE"/><path d="m142.5 197.7-3 3.5c-.2.4-.2.7.2 1 1 .5 1.4 1.8 1 3-.7 2.3-2.5 3.6-5.1 4v-11c0-.5.2-.7.7-.7l6.2.2Z" fill="#F0F0F0"/><path d="M142.5 197.7h3.3c2.4.2 3.6 1.3 5.1 3-.3-.2-.6-.2-.8 0-.3.3-.3.6 0 .7h-.4l-.3.1-.3.3a25.3 25.3 0 0 1-12.3 11c.8.8 1.2 1.5 1.2 2.2 0 .4-.2.6-.7.6-1 0-1.7.4-2 1.2l.3-7.7c2.6-.3 4.4-1.6 5.1-3.9.4-1.2 0-2.3-1-3-.4-.3-.4-.6-.1-1l3-3.5Z" fill="#C9CACE"/><path d="m176.3 211.2.4.5c.3.3.4.7.4 1.2l.4 10.4c0 1.1.4 1.3 1.2.5l1.1-1.2a4 4 0 0 0 1.7-3l.6-15.8 4.7-5c.4-.4.6-.4.7.3.6 4.7.8 9.7.6 15.1-.2 3.9-8.8 11.3-11.8 13.8a.5.5 0 0 1-.4 0 .5.5 0 0 1-.3-.3l.7-16.5ZM97.5 234a61 61 0 0 1-18.4-15.9 8.7 8.7 0 0 1-1.8-4.6v-6l.8-6.2c.2-1.3.6-1.4 1.2-.2 5.5 9.5 11.4 19 17.7 28.5.7.9.8 2.4.5 4.6v-.2Zm53.4-33.4 5.7 5.4c.3.4.4.8.4 1.2.4 2.5.5 5.1.2 7.8 0 .4-.2.8-.6 1.2-2.9 2.5-6.4 5.7-10.7 6l-9.9.3c-.4 0-.7-.3-.7-.7v-5c.3-.8 1-1.2 2-1.2.4 0 .7-.2.7-.6 0-.8-.4-1.5-1.2-2.2a21 21 0 0 0 9-3.8 1.2 1.2 0 0 1 1-.2c1.7.5 3.6.6 5.6.2 1.2 1.3 1.3 3.4.4 6.1v.3a.6.6 0 0 0 .5.6h.3c.7 0 1-.2 1.3-.7a9.8 9.8 0 0 0 0-8.4 4.2 4.2 0 0 0-1.6-1.6 11 11 0 0 0-3.2-3.9c-.3-.1-.3-.4 0-.7.2-.2.5-.2.8 0Z" fill="#F0F0F0"/><path d="M150 201.4a13 13 0 0 1 3.3 4c-.9 0-1.7.1-2.4.5-.4.3-.5.6-.5 1 .3 1.2 1 1.7 2 1.4-.4.8-.4 1 0 .7-2 .4-3.9.4-5.6-.1a1.2 1.2 0 0 0-1 .1 21 21 0 0 1-9 3.8 24.7 24.7 0 0 0 12.6-11.3h.7Z" fill="#7E7B7D"/><path d="m182 203.8-.6 15.7c0 1.3-.5 2.3-1.4 3.2l-1.2 1.2c-.9.7-1.3.5-1.3-.6l-.4-10.5c0-.4-.1-.8-.4-1.2l-.4-.4c0-2.5 2-5 5.8-7.4Z" fill="#C9CACE"/><path d="m153.3 205.3 1.6 1.6c-1.2-.4-2 0-2.5 1.4-1 .3-1.7-.2-2-1.4 0-.4.2-.7.5-1 .7-.4 1.5-.6 2.4-.6Z" fill="#565555"/><path d="M155 206.9a9.8 9.8 0 0 1 0 8.4c-.3.5-.7.7-1.3.7h-.4a.6.6 0 0 1-.5-.3.6.6 0 0 1 0-.6c1-2.7.8-4.8-.4-6.1-.3.3-.3 0 0-.7.5-1.3 1.3-1.8 2.4-1.4h.1Z" fill="#C9CACE"/><path d="M170.5 214.5c-.5 0-.8.2-.9.6l-1.4 17c0 .5.3.8.7.8.5 0 .8-.2.8-.6l1.5-17c0-.5-.3-.8-.7-.8Z" fill="#F0F0F0"/></svg>
