<svg width="938" height="282" fill="none" xmlns="http://www.w3.org/2000/svg"><g clip-path="url(#a)"><path d="m93.08 67.67 12.77-.84c.42 0 .63-.2.63-.73l.2-4.92" stroke="#656567" stroke-width="2.51"/><path d="m106.8 61.18-.22-2.4c0-.53-.2-.74-.73-.74-8.06 1.26-15.81-.84-20.31-8.17-4.5-7.32-4.3-14.86.63-22.3 4.6-7.01 12.14-8.58 20-8.06a.42.42 0 0 0 .41-.42l.21-1.04a.41.41 0 0 0 0-.21.41.41 0 0 0-.31-.1c-11.1-1.16-19.69 2.09-25.76 9.83-1.99 2.41-3.35 3.88-4.19 7.12-3.87 15.7 1.68 26.7 16.76 32.98" stroke="#787878" stroke-width="2.51"/><path d="M106.8 61.18c-12.15 2.51-21.16-1.36-26.81-11.52l-2.2-3.97c-.31-.53-.42-.53-.42 0 0 3.76.84 7.12 2.62 9.84 3.14 5.23 7.33 8.69 12.77 10.47.42.2.63.83.32 1.67" stroke="#DDDDDF" stroke-width="2.51"/><path d="M111.82 74.8v2.3" stroke="#656567" stroke-width="2.51"/><path d="M111.82 77.1v9.42c0 .42.31.63.83.63l18.85-2.52a6.38 6.38 0 0 0 3.66-1.78 117.3 117.3 0 0 0 11.1-9.84c.32-.42.53-.84.53-1.25l5.23-40.2c0-.43-.21-.74-.52-1.05a115.69 115.69 0 0 0-31.52-11.31 46.2 46.2 0 0 0-7.43-.84c-.42 0-.63.21-.63.63v55.8" stroke="#7F7F7F" stroke-width="2.51"/><path d="M111.82 77.1c2.93.2 5.86 0 9.1-.84.42-.21.74-.42.84-.74l1.78-3.35" stroke="#E3E4E6" stroke-width="2.51"/><path d="m123.33 72.07 1.57-2.1c3.25-3.34 6.8-6.8 10.58-10.05" stroke="#BEBCBD" stroke-width="2.51"/><path d="m135.69 59.92 1.15 2c.42.41.73.41 1.15 0 2.51-2.1 4.92-1.05 6.7-4.61.21-.53.63-.84 1.26-.84.42 0 .73-.1 1.04-.42.21-.2.42-.52.53-1.05l.52-5.65v-.42c0-.2-.1-.31-.42-.42-.31-.1-.52 0-.73.21-.73 1.68-1.47 3.35-2.93 4.19a18.23 18.23 0 0 0-5.24 3.98c-.83.94-1.88 1.25-2.82 1.78" stroke="#E3E4E6" stroke-width="2.51"/><path d="M135.9 58.67c-3.77 1.05-6.39 2.4-8.07 4.08-1.25 1.36-2.82 4.19-4.92 8.7" stroke="#BEBCBD" stroke-width="2.51"/><path d="M122.91 71.44a16.07 16.07 0 0 0-4.81 2.93c-.32.21-.63.32-1.05.21-1.78-.1-3.56 0-5.23.32" stroke="#E3E4E6" stroke-width="2.51"/><path d="M135.69 59.92c.31.21.42-.2.2-1.25m-12.56 13.4c-.42.1-.63 0-.52-.52" stroke="#A4A3A6" stroke-width="2.51"/><path d="M99.99 53.75c2.09.31 4.08.2 5.86-.32.42 0 .63-.2.73-.73v-4.92" stroke="#656567" stroke-width="2.51"/><path d="M106.69 47.88v-2.82c0-.42-.21-.53-.63-.53h-2.62c-2.62.1-4.4-.73-5.23-2.5" stroke="#7F7F7F" stroke-width="2.51"/><path d="M98.2 42.02c-1.15-6.38 1.05-9.84 6.92-10.47" stroke="#656567" stroke-width="2.51"/><path d="M105.12 31.55c1.67.32 2.09-1.67 1.46-5.76a.72.72 0 0 0-.73-.73C92.97 22.23 84.9 32.4 88.89 44.53c1.88 5.55 5.65 8.59 11.1 9.22" stroke="#7F7F7F" stroke-width="2.51"/><path d="M105.12 31.55c-3.77-1.57-7.96.53-9.43 4.4-1.04 2.51-.2 4.5 2.52 6.07m8.48 5.86c-8.27.53-14.66-1.04-16.75-9.84a.2.2 0 0 0-.1-.1.21.21 0 0 0-.22 0c-.63 5.55 1.78 12.46 7.64 13.6l2.52.43c.41.1.63.42.73.84 0 .41-.1.62-.52.94" stroke="#E3E4E6" stroke-width="2.51"/><path d="M44.5 43.8c-.28 4.05.3 8.12 1.67 11.94a.63.63 0 0 0 .84 0l2.72-3.25c4.71-5.76 11.2-7.85 19.27-6.07" stroke="#656567" stroke-width="2.51"/><path d="M68.9 46.42c.3.2.62.2.83.1.31 0 .52-.2.52-.62.1-3.35-1.46-5.45-5.02-6.18-3.14-.63-5.97-.84-8.48-.42-.74 0-.84-.21-.21-.63 4.5-4.3 9.1-5.23 13.92-2.51.42.2.63.1.73-.42.32-2.1 1.05-4.19 2.41-5.86.32-.63.1-.95-.52-1.05-.52 0-1.36-.21-2.51-.73-1.05-.42-4.2-.53-9.43-.32-2.4 0-4.6.53-6.38 1.68C49.2 32.8 45.33 37.1 44.5 43.8" stroke="#7F7F7F" stroke-width="2.51"/><path d="M68.9 46.42c0-2.1-2.1-3.14-6.3-2.83-4.7.21-8.68 2-11.82 5.24a1.05 1.05 0 0 1-1.47-.32l-2.4-4.7c-.32-.64-.63-.64-.95 0l-.42.62c-.31.31-.52.31-.83 0v-.63" stroke="#E3E4E6" stroke-width="2.51"/><path d="M112.13 102.85c.21.31.21.73 0 1.15" stroke="#2B2B2B" stroke-width="2.51"/><path d="M112.03 104.1a37.35 37.35 0 0 0 0 8.38c0 .32.1.42.41.32" stroke="#656567" stroke-width="2.51"/><path d="M112.44 112.8v.62" stroke="#2B2B2B" stroke-width="2.51"/><path d="m112.44 113.53-.52 22.5" stroke="#787878" stroke-width="2.51"/><path d="M111.82 136.04v12.88" stroke="#656567" stroke-width="2.51"/><path d="M111.82 148.92c.42.94.52 1.36.2 1.36" stroke="#2B2B2B" stroke-width="2.51"/><path d="m112.03 150.28-.1 10.68" stroke="#656567" stroke-width="2.51"/><path d="m111.82 160.96.63 16.54v.1c2.04-.95 4-2.07 5.86-3.35l.83-39.57c0-.42.22-.84.42-1.15l10.26-14.98c.21-.41.63-.62 1.05-.62 10.26-.32 20.73-.42 31.41-.42 2.1 0 3.46 1.67 4.82 3.03a1.26 1.26 0 0 0 1.78-.83c.73-6.29 1.78-12.57 3.24-18.74.63-2.2.21-4.2-1.05-6.08-2.61-3.66-6.49-9.73-5.75-14.45a386.73 386.73 0 0 0 3.66-36.32c0-.21-.2-.42-.31-.53a357.27 357.27 0 0 0-11.73-9.42.3.3 0 0 0 0 .1v.1l-6.28 40.53c0 .41-.1.83-.53 1.25L136.11 88.4a209.7 209.7 0 0 1-23.46 3.56c-.52 0-.73.21-.62.73l.1 10.06" stroke="#787878" stroke-width="2.51"/><path d="M111.82 160.96a3.3 3.3 0 0 0 2.4.52c.74 0 1.05.2 1.26.73l.21 1.15c0 .32.21.42.52.32.21 0 .32 0 .42-.32.42-2.72.42-5.75-.2-8.9" stroke="#DDDDDF" stroke-width="2.51"/><path d="M116.42 154.47c-.2-.63-.31-1.16-.2-1.68" stroke="#A3A3A3" stroke-width="2.51"/><path d="M116.21 152.79c.84-5.03.84-10.16.1-15.18" stroke="#DDDDDF" stroke-width="2.51"/><path d="m116.32 137.6 6.49-12.03c.1-.31 0-.42-.31-.42a5.86 5.86 0 0 0-2.83 2.4 44.66 44.66 0 0 1-6.91 8.17" stroke="#B7B6B7" stroke-width="2.51"/><path d="M112.76 135.72c-.21.21-.53.32-.84.32" stroke="#DDDDDF" stroke-width="2.51"/><path d="M112.44 113.53h5.03c.45 0 .9-.15 1.26-.42l5.44-4.5a.74.74 0 0 1 .63-.1c.2 0 .42.1.42.41.31.53.73.53 1.25 0l.63-1.05" stroke="#A3A3A3" stroke-width="2.51"/><path d="m127 107.88 5.97.83.62.32c.21 0 .42.31.53.42a10.15 10.15 0 0 1 1.25 5.44.72.72 0 0 0 .14.55.73.73 0 0 0 .5.29c1.46 0 2.5-.73 2.92-2.3 1.05-3.04 1.57-5.76 1.26-8.17" stroke="#DDDDDF" stroke-width="2.51"/><path d="m140.19 105.26 8.8-11.1a1.47 1.47 0 0 0 .3-1.57c-.62-1.15-.52-2.2.22-3.14l-.42-.1a.52.52 0 0 0-.42 0l-3.87 6.8" stroke="#A3A3A3" stroke-width="2.51"/><path d="m144.8 96.15-4.93-1.05c-.41 0-.73-.31-1.04-.73l-.21-.42c0-.63-.31-.73-.84-.52-.84.42-1.57.94-2.1 1.57-.62 1.04-2.3 1.25-3.24 2.1a5.56 5.56 0 0 1-4.19 1.35c-1.36-.1-1.46-.63-.52-1.57a5.24 5.24 0 0 0 1.89-3.56.74.74 0 0 0-.32-.52l-.31-.1a22.02 22.02 0 0 0-7.44.2" stroke="#DDDDDF" stroke-width="2.51"/><path d="M121.45 93c-.84 0-1.68.22-2.4.64" stroke="#A3A3A3" stroke-width="2.51"/><path d="M119.14 93.64a4.2 4.2 0 0 0-.94 1.78c0 .42-.31.62-.73.62h-.84c-.42 0-.73.1-1.04.42a10.26 10.26 0 0 0-1.89 5.66" stroke="#DDDDDF" stroke-width="2.51"/><path d="M113.7 102.01c-.42.53-.94.84-1.47.84" stroke="#A3A3A3" stroke-width="2.51"/><path d="M116.42 154.47c-1.04 0-1.67-.21-1.78-.84a5.86 5.86 0 0 0-2.72-3.35m1.78-48.16c1.57-.63 2.62-2.1 3.25-4.4 0-.42.31-.63.73-.84l1.26-.42c.31-.1.62-.42.73-.73 0-.42-.1-.63-.31-.84a.84.84 0 0 1-.42-.73l.1-.52m21.15 11.62c-.84-1.57 0-3.35 2.4-5.24 1.22-1 2-2.42 2.2-3.98M127 107.87a13.94 13.94 0 0 1 6.19-8.16 1.04 1.04 0 0 1 1.04 0 10.5 10.5 0 0 0 3.67 1.57c1.04.31 1.25 0 .73-.94a9.33 9.33 0 0 1-1.57-3.88.73.73 0 0 0-.43-.45.73.73 0 0 0-.62.03c-2.3 1.05-4.4 2-5.76 4.3a24.99 24.99 0 0 1-4.6 5.23c-.32.21-.53.53-.63 1.05-.21 1.05-.84 1.67-2 1.67-.41 0-.72.1-1.04.42l-2.83 3.04c-.3.2-.73.42-1.15.42a8.3 8.3 0 0 1-3.97.2c-.63 0-1.05.11-1.58.43" stroke="#909092" stroke-width="2.51"/><path d="m112.03 104.1 2.2 1.05c.3.21.73.1 1.04-.1.73-.84.94-1.78.63-2.83-.21-.52 0-.73.52-.63.74 0 1.05.32 1.26 1.05a.4.4 0 0 0 .31.14.41.41 0 0 0 .32-.14c1.25-1.05 1.88-1.88 2.1-2.62.1-2.4.52-4.7 1.04-7.12" stroke="#909092" stroke-width="2.51"/><path d="M116.32 137.6c-.42.64-.84.85-1.26.74-.52-.31-.63-1.05-.2-2.51l-1.05.63a.62.62 0 0 1-.53.2c-.52 0-.73-.3-.52-.83" stroke="#A4A3A6" stroke-width="2.51"/><path d="M116.21 152.79a5.94 5.94 0 0 1-2.5-3.56c0-.63-.32-.73-.85-.42-.2.21-.52.21-1.04.1" stroke="#909092" stroke-width="2.51"/><path d="m103.13 39.72 3.66-.84a.42.42 0 0 0 .21-.52v-.21l-.31-.63-.63-.42a2.09 2.09 0 0 0-.73-.2l-.84.1-.42.1-.63.31c-.24.14-.45.31-.63.53l-.2.63v.94a.31.31 0 0 0 .2.2c.1.05.22.05.32 0Z" stroke="#656567" stroke-width="2.51"/><path d="M186.36 74.16c-.2-7.95-6.6-18-11.94-23.66a.42.42 0 0 0-.3-.1.42.42 0 0 0-.22.2l-4.5 31.73c0 .42.1.84.31 1.15l15.7 25.13c.43.63.74.63.74-.21.42-11.1.42-22.62 0-34.24M30.9 57c2.11-2.1 4.97-3.3 7.95-3.35.53 0 .84-.31.74-.94l-.42-2.4c0-.32-.21-.43-.53-.53-.94-.1-1.78-.21-2.5.42a23.15 23.15 0 0 0-5.77 5.76c-.2.2-.2.41 0 .62V57a.26.26 0 1 0 .53 0Z" stroke="#787878" stroke-width="2.51"/><path d="M92.66 76.57c1.78.21 3.45-.63 5.23-2.4.1-.43 0-.53-.31-.64L86.06 70.4" stroke="#656567" stroke-width="2.51"/><path d="M86.06 70.4a29.94 29.94 0 0 1-12.35-13.2c-1.05-3.56-3.56-5.55-7.44-5.86-9.42-.84-14.76 3.24-16.12 12.14-.42 3.67-4.82 5.24-7.85 3.35a1.57 1.57 0 0 0-2.51 1.26c-.1 5.76 2.2 9 7.22 9.84 7.01 1.05 11.73-4.08 11.83-10.89.21-4.4 5.24-5.65 8.38-3.14.31.32.52.74.62 1.05 2.94 7.43 7.44 11.94 13.61 13.61 3.36.84 7.02.21 11.2-1.99" stroke="#7F7F7F" stroke-width="2.51"/><path d="M86.06 70.4c-3.14 1.88-6.6 1.36-10.05-1.58-3.35-2.82-4.92-8.37-9.1-9.63-4.93-1.67-8.6-.42-10.8 3.67-1.25 2.09-1.25 4.7-2.82 6.6-3.14 3.55-7.01 3.66-11.41.3-.42-.3-.63-.2-.63.42.32 3.88 2.3 5.97 6.28 6.18 5.97.32 9.22-2.83 9.74-9.53a6.39 6.39 0 0 1 5.65-5.86c2.52-.2 5.66 1.57 6.6 4.19a16.12 16.12 0 0 0 9.84 10.68c2.93 1.05 7.33 1.25 13.3.63" stroke="#E3E4E6" stroke-width="2.51"/><path d="m69.1 84 1.99-2.93a1.05 1.05 0 0 0 0-1.25 8.59 8.59 0 0 0-4.92-3.46" stroke="#656567" stroke-width="2.51"/><path d="M66.17 76.36c-2.83-.52-5.24 1.57-7.12 3.14-3.35 3.04-8.9 3.56-13.09 2.93A12.36 12.36 0 0 1 35.7 65.05c1.26-3.24 3.98-4.5 8.17-3.66 1.15.21 1.26 0 .42-.73-2.62-2.1-5.34-2.52-8.38-1.05-4.92 2.51-7.33 9.42-7.12 14.55.42 13.61 12.88 21.36 25.86 19.37 5.97-.84 10.79-3.98 14.45-9.42" stroke="#787878" stroke-width="2.51"/><path d="M66.17 76.36c-7.12 17.28-28.69 13.82-34.66-1.88-1.04-2.72-1.46-2.62-1.25.42a18.84 18.84 0 0 0 19.79 17.27 24.08 24.08 0 0 0 17.9-8.37c.31-.1.52-.21.94-.1.21-.01.32-.01.32.3" stroke="#DDDDDF" stroke-width="2.51"/><path d="M25.13 65.26c.73-1.78.42-2.09-1.15-1.04-8.27 5.23-10.47 12.56-6.6 21.98.31.74.52.74.73 0 .84-2.61 2.52-4.81 4.82-6.8.35-.3.57-.7.63-1.15.31-3.88-.32-9.85 1.57-13.2" stroke="#787878" stroke-width="2.51"/><path d="M56.64 118.14a44.3 44.3 0 0 1 34.55-2.94 13.61 13.61 0 0 1 10.47 13.1l.63 9.62" stroke="#7F7F7F" stroke-width="2.51"/><path d="M102.29 137.92c-.73-.31-1.05-1.36-.94-3.14 0-.84-.21-1.46-.74-1.88l-.31-.32a.62.62 0 0 0-.52 0 .63.63 0 0 0-.42.32 80.36 80.36 0 0 0-1.15 8.58c0 .74-.21 1.26-.63 1.78-.42.53-.53.42-.42-.1.63-2.1.1-3.67-1.47-4.6-1.25-.64-2.3-.32-3.35.83" stroke="#787878" stroke-width="2.51"/><path d="M92.34 139.39a10.47 10.47 0 0 1-4.08 2.3" stroke="#7F7F7F" stroke-width="2.51"/><path d="m88.26 141.7 1.47-2.63c2.3-3.14 1.67-3.76-1.68-2.09-7.22 3.77-14.66 3.67-22.3-.42-2.1-1.05-2.62-.52-1.57 1.68l1.26 2.4" stroke="#787878" stroke-width="2.51"/><path d="M65.44 140.75c-2.41-2.1-4.09-3.25-5.03-3.46" stroke="#7F7F7F" stroke-width="2.51"/><path d="M60.3 137.3a36.4 36.4 0 0 0-5.44-3.15 13.87 13.87 0 0 1-4.19-2.93 24.27 24.27 0 0 1-3.14-4.4.73.73 0 0 0-1.04.22 27.3 27.3 0 0 0-3.77 14.23c0 16.23 1.99 31.73 5.76 46.49 5.23 20.41 17.27 35.6 36.01 45.54 7.75 4.19 15.18 5.55 22.2 4.19" stroke="#787878" stroke-width="2.51"/><path d="M106.58 237.49v-7.75" stroke="#656567" stroke-width="2.51"/><path d="M106.69 229.74V213.3c0-.42-.21-.73-.74-.83a15.9 15.9 0 0 0-8.69 1.57" stroke="#7F7F7F" stroke-width="2.51"/><path d="M97.47 214.04a5.23 5.23 0 0 1 .95-4.61c.2-.31.2-.63-.1-.73l-4.93-2.72" stroke="#656567" stroke-width="2.51"/><path d="m93.39 205.97-.42-.52a.42.42 0 0 1 0-.52.42.42 0 0 1 .63 0 22.27 22.27 0 0 0 12.56 1.36.73.73 0 0 0 .63-.73l-.2-4.92a1.37 1.37 0 0 0-.64-1.05 9.24 9.24 0 0 0-3.56-1.57c-6.28-.73-10.88.31-13.82 3.14-.41.42-.83.42-1.04 0l-2.1-3.35c-.2-.42-.31-.84-.1-1.26.42-1.67 1.46-2.51 3.14-2.72.2 0 .52 0 .84.21.42.42.63.84.63 1.26 0 .52.2.73.73.63.2 0 .42-.32.73-.63" stroke="#7F7F7F" stroke-width="2.51"/><path d="M91.4 195.4c2.53-.54 5.05-1.17 7.54-1.88 2.62-.84 4.4-.21 6.8.41.42.22.74 0 .84-.41.21-.63 0-1.16-.2-1.68" stroke="#656567" stroke-width="2.51"/><path d="m106.37 191.84-3.45-7.01c-.21-.42-.53-.63-.95-.63h-7.32" stroke="#787878" stroke-width="2.51"/><path d="M94.75 184.2c-6.8-6.8-6.28-13.82 1.36-20.94" stroke="#7F7F7F" stroke-width="2.51"/><path d="M96.11 163.26c1.26.52 1.47 1.78.53 3.77" stroke="#787878" stroke-width="2.51"/><path d="M96.64 166.92c-3.25 1.89-4.4 5.24-3.46 10.06" stroke="#7F7F7F" stroke-width="2.51"/><path d="M93.18 176.97c1.89-.73 3.46-1.36 5.03-1.57 3.14-.52 5.23 1.36 7.74 2.83.42.21.63 0 .74-.31.2-.74.2-1.36 0-1.89" stroke="#656567" stroke-width="2.51"/><path d="M106.8 176.03v-91.6" stroke="#7F7F7F" stroke-width="2.51"/><path d="m106.69 84.42-.32-7.85c-.1-.63-.42-.73-.94-.2a19.15 19.15 0 0 1-6.8 4.28 107.55 107.55 0 0 1-15.5 3.77c-7.64 1.16-10.47 5.66-16.75 9.43-10.79 6.38-17.28 14.44-16.02 28.06.31 4.08 2.3 6.8 5.86 8.16a1.04 1.04 0 0 0 1.05-.31c2.83-3.14 5.44-6.8 9.63-8.27a87.8 87.8 0 0 1 14.24-4.09c.63 0 .63-.2 0-.52a28.12 28.12 0 0 0-12.77-1.78c-1.15.1-3.14.63-5.87 1.57a22.9 22.9 0 0 1-5.86 1.47" stroke="#656567" stroke-width="2.51"/><path d="M106.69 84.42a348.4 348.4 0 0 0-29.53 9.84 48.16 48.16 0 0 0-13.3 8.17A35.28 35.28 0 0 0 53.3 117.1a1.46 1.46 0 0 0 .32 1.57c1.04 1.05 2.09.94 3.03-.63m50.26 58c-6.29-3.98-10.9-3.66-13.61 1.05" stroke="#E3E4E6" stroke-width="2.51"/><path d="m96.64 166.92 2.4.21c.42 0 .63.21.74.63.31 1.05.73 2.2 1.25 3.14.21.84.42.84.53 0 .73-11.1 1.04-21.98.73-32.98M96 163.26a40.81 40.81 0 0 0 .52-18.85 5.76 5.76 0 0 0-1.57-2.93l-2.51-2.1m-27.01 1.37c.42 1.47 1.25 2.3 2.3 2.51l1.05.63c1.04.73 1.46 1.15 2.82 1.36 4.92.53 8.8.53 11.52 0 1.88-.31 3.56-1.46 5.03-3.45m6.6 42.5 5.75 6.28" stroke="#F7F7F7" stroke-width="2.51"/><path d="M100.5 190.48c-4.18 1.05-7.11 2.72-9.1 4.92m1.99 10.47c-.52.63-.84 1.05-.84 1.36.32 2.62 1.89 4.82 4.92 6.8m9.22 15.71a29.95 29.95 0 0 1-25.55-10.89" stroke="#E3E4E6" stroke-width="2.51"/><path d="M106.37 191.84a11.52 11.52 0 0 0-5.86-1.36" stroke="#DDDDDF" stroke-width="2.51"/><path d="M60.3 137.3c-3.55-.32-6.9-1.68-10.25-3.98-.32-.21-.63-.21-.84 0a8.27 8.27 0 0 0-1.89 5.75 88.37 88.37 0 0 0 3.77 16.76c2.93 9.42 7.54 21.46 13.93 36.01 3.77 8.8 9.1 17.8 16.12 27.01" stroke="#F7F7F7" stroke-width="2.51"/><path d="M81.14 218.85h-.94l-1.36-.73c-8.38-7.33-14.87-15.28-19.37-23.87a294.21 294.21 0 0 1-11.73-25.76c-1.04-2.5-1.46-2.5-1.25.21a90.57 90.57 0 0 0 11.93 38.32 61.1 61.1 0 0 0 15.92 18.01c9 6.8 19.89 11 32.45 12.46" stroke="#DDDDDF" stroke-width="2.51"/><path d="M27.01 104.32c7.65 6.07 20.2 5.75 24.08-4.61.1-.42 0-.63-.42-.73l-5.96-1.05" stroke="#656567" stroke-width="2.51"/><path d="M44.81 98.03c-1.57-.31-3.77-.2-6.6.32-3.14.63-5.44-.63-6.8-3.56-1.26-2.41-.31-4.3-2.72-6.28a6.8 6.8 0 0 1-2.1-2.62c-.83-2.1-1.78-2.1-2.72 0-3.14 6.39-2.1 12.56 3.14 18.53" stroke="#787878" stroke-width="2.51"/><path d="M44.81 98.03c-1.36 3.77-4.6 5.24-9.74 4.2a14.67 14.67 0 0 1-10.26-7.34c-.52-.83-.73-.73-.73.21a11.52 11.52 0 0 0 3.77 8.17c.31.42.31.63 0 .94l-.94.21" stroke="#DDDDDF" stroke-width="2.51"/><path d="M18.64 110.39c2.1.52 3.77 0 5.23-1.05.32-.31.32-.63 0-1.05l-4.7-6.49" stroke="#656567" stroke-width="2.51"/><path d="m19.16 101.8-7.43-15.18c-.21-.42-.32-.42-.53 0-4.92 8.7-3.03 20.63 7.44 23.77" stroke="#787878" stroke-width="2.51"/><path d="M19.16 101.8c-3.14 1.36-5.65-.1-7.43-4.4-.95-2.4-1.36-2.3-1.47.22-.2 5.65 2.83 9.42 9 11.51.21 0 .21.1.21.32v.41a.63.63 0 0 1-.3.53h-.53" stroke="#DDDDDF" stroke-width="2.51"/><path d="M124.59 138.66h-.52c-.53-.21-.84 0-.84.52v30.36" stroke="#656567" stroke-width="2.51"/><path d="m123.33 169.44-.31 7.22a1.98 1.98 0 0 1-1.05 1.68l-9.1 4.6a1.48 1.48 0 0 0-.74 1.26l-.52 8.37c0 .63.31.95.94.95h2.72" stroke="#787878" stroke-width="2.51"/><path d="M115.27 193.52h5.03" stroke="#656567" stroke-width="2.51"/><path d="m120.4 193.62 5.03.31c.31 0 .73.22 1.04.53a13.6 13.6 0 0 1 4.93 9.42c.2.53.52 1.05.94 1.36l4.92 4.19c.42.31.73.31 1.05 0 4.4-4.92 8.79-9.21 13.3-12.98.3-.32.51-.73.62-1.26l5.23-25.96c0-.42.21-.84.53-1.26l25.23-24.18c.42-.32.52-.74.52-1.26v-27.22c.01-.63-.17-1.25-.52-1.78l-5.86-8.59a.42.42 0 0 0-.42-.41.42.42 0 0 0-.32.41l-4.7 21.57a5.59 5.59 0 0 1-2.42 3.14c-.31.21-.52.42-.73.84a6.63 6.63 0 0 1-1.47 2.83 139.85 139.85 0 0 0-12.04 13.82H138c-.52 0-.94 0-1.26-.42l-4.81-5.76c-1.68-2.1-4.19-2.83-7.33-2.4" stroke="#787878" stroke-width="2.51"/><path d="M120.4 193.62c-.31-.73 0-1.57.63-2.51" stroke="#DDDDDF" stroke-width="2.51"/><path d="M121.03 191.1a47.12 47.12 0 0 0 9.53-9.83" stroke="#B7B6B7" stroke-width="2.51"/><path d="m130.66 181.27.94.42c.21.2.32.41.32.73l-.1.52a.42.42 0 0 0 0 .42l.3.21c.32 0 .53 0 .64-.2a8.71 8.71 0 0 0 1.25-6.81" stroke="#DDDDDF" stroke-width="2.51"/><path d="M134.01 176.56a6.28 6.28 0 0 1 1.78-3.46" stroke="#A3A3A3" stroke-width="2.51"/><path d="M135.8 173.1h3.97a.2.2 0 0 1 .21.31l.31 3.46h.32c.1-1.47.42-2.83.73-3.98.73-2.72 2.51-3.35 5.24-1.88a.74.74 0 0 0 .77-.17.74.74 0 0 0 .17-.25 5.23 5.23 0 0 1 2.93-2.72c.84-.32.84-.42 0-.42-1.99.31-2.83-.21-2.72-1.47" stroke="#DDDDDF" stroke-width="2.51"/><path d="M147.62 165.98c2.62-1.25 4.19-2.72 4.92-4.4" stroke="#A3A3A3" stroke-width="2.51"/><path d="M152.65 161.58c.63.63 1.67.84 2.82.63.42-.1.74 0 .84.63 0 .52 0 1.05-.42 1.57-.41.53-.2.73.53.53a3.45 3.45 0 0 0 2.1-2.52 9.98 9.98 0 0 1 3.13-5.23c.42-.42.42-.63 0-.84a.63.63 0 0 0-.73 0c-.84.31-1.05.1-.63-.63l2.1-3.66c.2-.21.2-.32 0-.53h-.32l-5.76 6.6c-.31.31-.73.42-1.05.31h-1.56a.86.86 0 0 0-.53.84c0 .84-.1 1.57-.52 2.1-.42.3-.74.41-1.15.2l-4.2-2.5c-.41-.22-.52-.64-.41-1.06l2.1-6.8v-.63c-.22-.63-.64-.84-1.37-.73-.1 0-.31 0-.42.2-.41.32-.41.64 0 .84.32.32.42.53.21.84l-.83 1.89-.32.63c0 3.56-.63 7.64-3.14 10.47-.2.2-.63.52-1.05.52-2.09.31-4.18.31-6.17 0a1.05 1.05 0 0 0-1.05.52.95.95 0 0 0 0 1.05" stroke="#DDDDDF" stroke-width="2.51"/><path d="m134.85 166.92-1.15 1.16" stroke="#A3A3A3" stroke-width="2.51"/><path d="m133.7 168.28-5.86 3.25c-.19.14-.4.21-.63.21a.85.85 0 0 1-.63-.31l-.42-.63c-.52-.42-.84-.32-.94.42 0 1.04.42 1.88 1.25 2.5.42.22.53.64.42 1.16-.94 2.1-2.72 3.25-3.77 5.44-1.25 2.73-2.4 5.76-4.92 7.33-1.25.84-2.3 1.78-3.35 2.73-.42.31-.42.62 0 .83 1.05.84 1.15 1.57.53 2.1m7.85-23.87c2.51-1.68 3.87-4.5 4.19-8.38" stroke="#DDDDDF" stroke-width="2.51"/><path d="m127.52 161.06 4.6-4.92" stroke="#B7B6B7" stroke-width="2.51"/><path d="M132.13 156.03c1.67-.52 2.1-2.5 3.98-2.3.31 0 .62 0 .73-.2a3 3 0 0 0 .73-2.94 1.28 1.28 0 0 0-.81-.71 1.27 1.27 0 0 0-1.07.19c-.42.31-.84.31-1.15 0-.21-.21-.32-.63-.21-1.05a4.19 4.19 0 0 0-1.16-3.87" stroke="#DDDDDF" stroke-width="2.51"/><path d="m133.18 145.15-1.05-1.26" stroke="#A3A3A3" stroke-width="2.51"/><path d="M132.13 144c-.94-3.15-3.88-3.35-6.5-3.98a.84.84 0 0 1-.73-.74l-.31-.73" stroke="#DDDDDF" stroke-width="2.51"/><path d="M132.13 144a12.03 12.03 0 0 1-1.78 4.29.63.63 0 0 0 0 .63l.2.42c0 .05 0 .1.03.16.03.05.08.08.13.1a.22.22 0 0 0 .27-.16v-.1l2.09-4.2" stroke="#909092" stroke-width="2.51"/><path d="M132.13 156.03a5.18 5.18 0 0 1-.21-2.93 1.05 1.05 0 0 0-.63-1.15l-.42-.31a.63.63 0 0 0-.94.52l-.42 3.46c0 .41-.31.63-.84.73a4.92 4.92 0 0 1-3.66-.21c-.53-.31-.84-.1-1.05.31a3.64 3.64 0 0 0 .21 3.98c.63 1.05 1.78 1.26 3.35.63m3.14 20.2a24.5 24.5 0 0 0-7.33 5.24 8.38 8.38 0 0 0-2.3 4.6" stroke="#A4A3A6" stroke-width="2.51"/><path d="M152.65 161.58a48.37 48.37 0 0 1-16.44 8.17c-.31.1-.63 0-.73-.42l-.73-2.4m12.87-.95c-3.6 1.98-7.3 3.76-11.1 5.34-.52.31-.73.94-.62 1.78m-1.89 3.46a5.36 5.36 0 0 1-1.25 1.36c-.42.42-.63.31-.42-.32a14.39 14.39 0 0 1 2.4-4.92c.21-.42.11-.73 0-1.05a2.1 2.1 0 0 0-2.2 0l-2.5 1.26c0 .21-.11.21-.22 0l-.1-.42v-.31l3.56-2.4c.31-.43.42-.95.42-1.47" stroke="#909092" stroke-width="2.51"/><path d="m189.71 109.34-.52 11.2" stroke="#656567" stroke-width="2.51"/><path d="M189.3 120.54v20.94" stroke="#7F7F7F" stroke-width="2.51"/><path d="m189.3 141.38.41 15.28" stroke="#656567" stroke-width="2.51"/><path d="M189.71 156.66a2 2 0 0 0 0 1.89c.1.52.42.52.73 0l7.12-8.48c.47-.56.73-1.26.74-2v-27.74a4.2 4.2 0 0 0-.84-2.4l-7.33-10.16c-.42-.42-.63-.42-.84.1 0 .53 0 1.05.32 1.47" stroke="#7F7F7F" stroke-width="2.51"/><path d="M189.71 156.66c2.2-1.99 4.19-3.97 5.65-6.28a6.9 6.9 0 0 0 1.26-4.19c-.03-1.7.04-3.42.21-5.13a.85.85 0 0 0-.53-.51.83.83 0 0 0-.73.1c-2.4 1.04-4.6 1.36-6.28.73m0-20.94c.74-3.56.84-7.33.32-11.1" stroke="#E3E4E6" stroke-width="2.51"/><path d="m44.81 111.85-9.1 1.57" stroke="#656567" stroke-width="2.51"/><path d="m35.7 113.53-4.92 2.4c-.42.32-.84.32-1.25.11l-3.67-1.36a2.19 2.19 0 0 0-3.14 1.88c-.52 5.45 2.62 8.48 7.96 9a12.56 12.56 0 0 0 13.08-6.9c1.68-3.14 2.1-5.24 1.05-6.8" stroke="#7F7F7F" stroke-width="2.51"/><path d="M35.7 113.53c1.26 0 2.1.42 2.52 1.05.41.52.52 1.04.2 1.57a7.95 7.95 0 0 1-8.69 4.18c-1.88-.31-3.45-1.36-4.92-2.09a.63.63 0 0 0-.77-.1.62.62 0 0 0-.27.73 4.92 4.92 0 0 0 3.77 4.19c9 2.82 14.76-.95 17.38-11.2" stroke="#E3E4E6" stroke-width="2.51"/><path d="M34.03 137.82c1.67 0 3.03-1.26 3.87-3.67.21-.41 0-.73-.42-.83l-7.22-.84" stroke="#656567" stroke-width="2.51"/><path d="M30.26 132.48c-8.7-2.62-12.98-8.27-12.88-16.75 0-.53-.2-.84-.73-.84-.73 0-1.36.2-2 .52-.3.32-.51.63-.62 1.05-1.88 8.9.52 15.8 7.12 20.94 4.19 3.14 8.38 3.14 12.88.42" stroke="#787878" stroke-width="2.51"/><path d="M30.26 132.48c-5.76 1.36-10.26-1.05-13.61-7.02-.1-.31-.32-.31-.63 0-.31.53-.42 1.05-.21 1.58 1.88 8.06 7.96 11.51 18.22 10.78" stroke="#DDDDDF" stroke-width="2.51"/><path d="M67.95 126.4c8.69-4.4 16.54-3.13 23.56 3.98h.1l.42-.3a.63.63 0 0 0 0-.85c-6.5-8.58-14.24-10.68-23.45-6.17a11.52 11.52 0 0 0-5.55 6.6c-.21.83 0 .93.52.2a16.85 16.85 0 0 1 4.4-3.45Z" stroke="#787878" stroke-width="2.51"/><path d="m70.36 130.18-2.1 1.78c-1.15 1.04-1.04 2.09.21 2.93 5.24 3.24 10.05 3.87 14.45 1.78 3.35-1.47 4.5-3.14 3.66-4.92m62.82 10.78a10.06 10.06 0 0 0 5.97-5.13 10.89 10.89 0 0 0-4.4-14.24 10.05 10.05 0 0 0-7.75-.94 10.05 10.05 0 0 0-6.07 5.13 10.78 10.78 0 0 0 4.4 14.24 10.3 10.3 0 0 0 7.85.94Z" stroke="#7F7F7F" stroke-width="2.51"/><path d="M86.58 131.75c-5.54-5.55-10.88-6.08-16.12-1.57" stroke="#656567" stroke-width="2.51"/><path d="M86.58 131.75c-1.36-.1-3.03-.74-5.02-1.89-1.26-.63-3.25-.84-5.86-.42l-5.34.74" stroke="#E3E4E6" stroke-width="2.51"/><path d="M18.53 146.61c1.15 4.82 4.4 7.96 9.84 9.42" stroke="#787878" stroke-width="2.51"/><path d="M28.37 156.03h3.56a.52.52 0 0 0 .68-.43c.02-.1 0-.2-.05-.3l-.31-.31a86.44 86.44 0 0 1-9-10.26 5.23 5.23 0 0 0-3.88-2.2c-.52 0-.73.2-.84.63-.2 1.05-.2 2.2 0 3.45" stroke="#656567" stroke-width="2.51"/><path d="M28.37 156.03c.32-.3.42-.62.42-.94 0-.42-.2-.63-.63-.73a12.05 12.05 0 0 1-8.48-8.27c-.1-.42-.41-.52-.83-.21l-.32.73" stroke="#DDDDDF" stroke-width="2.51"/><path d="m177.36 170.38 5.54-6.07a3.65 3.65 0 0 0 1.05-2.52v-9.84c0-1.15-.52-1.36-1.36-.63a391.58 391.58 0 0 0-19.79 19.8 7.26 7.26 0 0 0-1.67 3.34l-3.56 16.75v.74a34.65 34.65 0 0 0 10.26 9 1.05 1.05 0 0 0 1.05-.84 367.37 367.37 0 0 0 7.53-28.37c.21-.52.42-1.05.74-1.36" stroke="#787878" stroke-width="2.51"/><path d="m40.62 176.66-1.36-9.63c-.31-2.51-2.82-4.6-7.54-6.28" stroke="#656567" stroke-width="2.51"/><path d="M31.72 160.96a38.27 38.27 0 0 0 3.04 11.1 14.45 14.45 0 0 0 5.44 6.28.53.53 0 0 0 .63-.42c.1-.32 0-.74-.2-1.26" stroke="#787878" stroke-width="2.51"/><path d="M31.72 160.96a96.34 96.34 0 0 1 5.34 12.56 4.6 4.6 0 0 0 3.56 3.14" stroke="#DDDDDF" stroke-width="2.51"/><path d="m51.3 222.94.1 6.28c.22 1.78.84 3.45 1.9 4.81a63.32 63.32 0 0 0 19.26 16.75m62.29-36.53c-2.1-2.2-4.4-4.5-7.02-6.8a3.77 3.77 0 0 1-1.25-2.73c.2-2.83-1.68-5.76-4.82-5.97l-9.63-.2c-.2 0-.31.1-.31.41v7.33c0 .42.1.52.42.52h9.42c2.2 0 3.98 0 5.65 1.57l7.02 6.6a.53.53 0 0 0 .52-.1.52.52 0 0 0 0-.63Zm6.5-1.26c-.22.2-.43.52-.43.84l-.2 13.6a1.25 1.25 0 0 0 .7 1.07 1.26 1.26 0 0 0 1.28-.12l22.51-20.63a1.24 1.24 0 0 0 .37-.88 1.26 1.26 0 0 0-.37-.9l-7.96-6.59a1.25 1.25 0 0 0-1.57 0l-14.34 13.61Z" stroke="#787878" stroke-width="2.51"/><path d="M72.56 250.68a73.71 73.71 0 0 0 24.29 8.9c1.57.42 1.67 0 .2-.84a100.78 100.78 0 0 1-35.9-34.02l-7.33-11.52c-.95-1.26-1.05-2.51-1.68-3.77-.42-.94-.63-.84-.63.1l-.2 13.4" stroke="#656567" stroke-width="2.51"/><path d="M72.56 250.68c.41-2.1.31-3.66-.32-4.6a663.72 663.72 0 0 1-18.63-29.84c-.74-1.26-1.16-1.16-1.37.2l-.94 6.5" stroke="#DDDDDF" stroke-width="2.51"/><path d="m112.44 224.61-.3 8.06" stroke="#656567" stroke-width="2.51"/><path d="M112.13 232.67v5.24c0 .42.31.73.73.73 3.35 0 6.8-.2 10.47-.42 4.4-.2 8.07-3.56 11.2-6.18l.53-1.25a35.5 35.5 0 0 0 0-8.17l-.63-1.25-5.97-5.66" stroke="#787878" stroke-width="2.51"/><path d="M128.57 215.71c-1.68-1.67-2.93-2.83-5.45-3.14h-3.45" stroke="#656567" stroke-width="2.51"/><path d="m119.67 212.68-6.5-.21c-.41 0-.62.2-.62.63v11.51" stroke="#787878" stroke-width="2.51"/><path d="m119.67 212.68-3.14 3.66c-.21.42-.21.73.2 1.05 1.05.52 1.47 1.88 1.05 3.14-.73 2.4-2.61 3.77-5.34 4.19m16.02-9c-.31-.11-.63-.11-.83.1-.32.31-.32.63 0 .73" stroke="#DDDDDF" stroke-width="2.51"/><path d="M127.52 216.55h-.31l-.32.1-.31.32a26.49 26.49 0 0 1-12.88 11.52" stroke="#A4A3A6" stroke-width="2.51"/><path d="M113.7 228.49c.84.83 1.26 1.56 1.26 2.3 0 .42-.21.63-.73.63-1.05 0-1.79.42-2.1 1.25" stroke="#DDDDDF" stroke-width="2.51"/><path d="M130.98 220.63c-.95 0-1.78.21-2.52.63-.42.31-.52.63-.52 1.05.31 1.25 1.05 1.78 2.1 1.46" stroke="#6A6869" stroke-width="2.51"/><path d="M130.03 223.77c-.41.84-.41 1.05 0 .74" stroke="#A4A3A6" stroke-width="2.51"/><path d="M113.7 228.49a22 22 0 0 0 9.42-3.98 1.25 1.25 0 0 1 1.05-.21c1.78.52 3.77.63 5.86.2" stroke="#B7B6B7" stroke-width="2.51"/><path d="M130.03 224.5c1.26 1.37 1.37 3.57.42 6.4v.3a.62.62 0 0 0 .53.64h.31c.73 0 1.05-.21 1.36-.74a10.26 10.26 0 0 0 0-8.8" stroke="#DDDDDF" stroke-width="2.51"/><path d="M132.76 222.3a4.4 4.4 0 0 0-1.78-1.67" stroke="#A3A3A3" stroke-width="2.51"/><path d="M130.98 220.63c-.79-1.6-1.94-3-3.35-4.08" stroke="#B7B6B7" stroke-width="2.51"/><path d="M132.76 222.3c-1.36-.41-2.1 0-2.73 1.47" stroke="#909092" stroke-width="2.51"/><path d="M161.02 219.06c-3.87 2.51-5.96 5.03-6.07 7.75" stroke="#656567" stroke-width="2.51"/><path d="m155.06 226.81-.74 17.28a.52.52 0 0 0 .32.41h.52c3.04-2.5 12.04-10.47 12.25-14.55.21-5.65 0-10.89-.63-15.8 0-.74-.2-.74-.73-.32l-4.92 5.23" stroke="#787878" stroke-width="2.51"/><path d="m155.06 226.81.41.52c.32.32.42.74.42 1.26l.42 10.89c0 1.15.42 1.36 1.26.52l1.15-1.25a4.17 4.17 0 0 0 1.78-3.15l.63-16.54" stroke="#DDDDDF" stroke-width="2.51"/><path d="M149.72 230.9a.73.73 0 0 0-.74-.74h-.31a.73.73 0 0 0-.52.73l-1.47 17.8a.74.74 0 0 0 .73.84.74.74 0 0 0 .84-.73l1.47-17.8v-.1Z" stroke="#787878" stroke-width="2.51"/><path d="M134.43 28.1a8.26 8.26 0 0 0 2.4-1.47.73.73 0 0 0 0-1.05 2.52 2.52 0 0 0-1.56-.41c-.42 0-.63.2-.73.73 0 .52-.42.94-.84 1.25a10.47 10.47 0 0 0-4.6 6.18c-.22.84 0 1.05.72.53a11.3 11.3 0 0 0 3.88-5.03c.1-.42.42-.63.73-.73Zm-13.4 5.44 8.38-4.08a.53.53 0 0 0 .2-.42.53.53 0 0 0-.1-.42l-.31-.42c-.42-.52-.95-.63-1.57-.31-2.83 1.57-6.29 2.82-8.38 5.65-1.5 2.1-3.14 4.1-4.92 5.97l.31.2a42.28 42.28 0 0 0 6.39-6.17Z" stroke="#E3E4E6" stroke-width="2.51"/><path d="M157.25 62.96v1.05" stroke="#B7B6B7" stroke-width="2.51"/><path d="M157.15 64c-.84.32-1.57.85-2.2 1.47-.52.53-.42.74.31.84h1.16c.84.42 1.04.84.52 1.26-.31.31-.42.63-.1 1.04.41.84.41 1.78 0 2.62a17.6 17.6 0 0 0-1.05 8.8" stroke="#DDDDDF" stroke-width="2.51"/><path d="M155.79 80.03a67.33 67.33 0 0 1-4.3 5.55c-.41.41-.3.62.22.52.62-.52 1.15-.63 1.78-.52.73.2.83.62.2 1.15l-3.45 3.77.1.41c.21.21.42.21.63 0 2.41-1.57 4.4-3.56 5.97-5.86" stroke="#B7B6B7" stroke-width="2.51"/><path d="M156.84 85.05c2.3-1.67 3.14-3.77 5.96-4.19.42 0 .74-.2.84-.62a5.6 5.6 0 0 0-.31-2.73" stroke="#DDDDDF" stroke-width="2.51"/><path d="M163.33 77.51c.31-.31.42-.62.42-.94" stroke="#B7B6B7" stroke-width="2.51"/><path d="M163.75 76.57c.41 0 .62 0 .83-.31a.42.42 0 0 0-.1-.63h-.84c-.52 0-.84-.21-1.05-.63a9.42 9.42 0 0 1-.83-6.07 2.08 2.08 0 0 1 1.25-1.47c1.68-.73 2.93-2.72 2.52-4.6-.1-.95 0-1.78.41-2.62.21-.42.21-1.05 0-1.47-.62-1.04-.52-2.1.42-3.14a.62.62 0 0 0-.1-.73l-.21-.21-.21-.1c-.42-.21-.73-.21-.84.2a10.25 10.25 0 0 1-2.1 2.52l-1.04.52c-1.88.21-3.66.84-5.44 1.68a.84.84 0 0 0-.53.73c0 .63.32 1.05.95 1.25a1.25 1.25 0 0 1 .52 1.05v.42" stroke="#DDDDDF" stroke-width="2.51"/><path d="m163.75 76.57-.42-.31a1.05 1.05 0 0 0-1.05-.1c-.94.3-2.3.2-2.72-.85-.32-.3-.42-.83-.53-1.36 0-.31-.2-.42-.62-.31h-.53c-.2 0-.31.2-.31.52.42 2.41-.21 4.4-1.78 5.76m1.36-15.91c.2.52.52.94 1.05 1.04a1.25 1.25 0 0 0 1.57-1.15l-.1-.94a1.05 1.05 0 0 0-.95-.63c-.63 0-1.05.21-1.36.63" stroke="#A4A3A6" stroke-width="2.51"/><path d="M163.33 77.51h-3.77c-.42 0-.74.1-.84.42l-1.78 7.12" stroke="#A4A3A6" stroke-width="2.51"/><path d="m158.3 114.47-.31.31c-.42.32-.32.63.2.74h.84c.42-.1.63-.42.74-.84l.63-2.83c.1-.62 0-.73-.53-.2a5.67 5.67 0 0 0-1.46 2.5v.32" stroke="#B7B6B7" stroke-width="2.51"/><path d="M164.58 62.23c.32-.21.32-.53 0-.84a.84.84 0 0 0-1.04-.1l-.21.2-1.89 2.2c-.31.42-.2.63.32.63 1.25 0 2.1-.63 2.61-1.78 0-.1 0-.2.21-.31Z" stroke="#A4A3A6" stroke-width="2.51"/><path d="M174.43 124.63c-.42 1.04-.42 2.5 0 4.5.52 2.62.2 5.34-.95 8.37a1.04 1.04 0 0 1-.73.53l-3.14 1.15c-.53 0-.73.31-.73.84 0 1.04.41 3.14-.42 4.19-.32.3-.63.41-.95.52-.43.16-.8.45-1.04.84l-.53 1.88c-.83 2.1-.2 2.62 1.78 1.78l2.1-1.36.52-1.05c.53-1.67.84-3.35 1.89-4.7a18.68 18.68 0 0 0 4.18-11.53c0-.52.21-.83.53-1.15l1.78-1.36c.31-.31.52-.63.63-1.05l1.15-6.17" stroke="#DDDDDF" stroke-width="2.51"/><path d="M180.5 120.86a3.87 3.87 0 0 0 1.57-3.14c0-.42-.32-.63-.84-.42-.84.42-1.47 1.25-1.78 2.72a1.05 1.05 0 0 1-.73.63 1.04 1.04 0 0 1-1.05-.1l-1.05-1.05c-.41-.42-.63-.32-.83.31l-1.36 4.82" stroke="#A3A3A3" stroke-width="2.51"/><path d="M180.5 120.86c-2.52 3.14-4.6 4.5-6.18 3.77" stroke="#909092" stroke-width="2.51"/><path d="M134.33 202.1a2 2 0 0 1 0-1.67 8.38 8.38 0 0 0 1.15-4.4c.2-1.88-.21-1.99-1.05-.31a12.13 12.13 0 0 0-1.05 7.32c0 1.05.63 1.68 1.47 2.1.63 0 1.05.31 1.26.84l1.04 1.04h1.05a16.55 16.55 0 0 0 3.35-3.24c1.67-2.3.31-4.61-.42-6.8-.31-.74-.52-.74-.84 0-.41 1.46-.52 3.66-2.4 4.08-.42 0-.63.3-.84.52-.32.42-.42.73-.42 1.04 0 .32-.21.53-.52.74-.63.31-1.26 0-1.78-1.26Z" stroke="#DDDDDF" stroke-width="2.51"/><path d="M126.58 151.22a18.63 18.63 0 0 1 2.4-7.01 1.05 1.05 0 0 0 0-1.05v-.32c-.3-.31-.62-.31-1.04 0-1.67 1.37-1.05 2.62-1.36 4.5l-1.15 5.56a.52.52 0 0 0 .31.62c.21 0 .42 0 .63-.2.2-.22.42-.42.42-.63l-.21-.63v-.84Z" stroke="#A4A3A6" stroke-width="2.51"/><path d="M169.5 167.24a30.91 30.91 0 0 1-3.76 3.45c-1.16.84-1.89 1.57-2.1 2.2a3.77 3.77 0 0 0 0 3.35" stroke="#DDDDDF" stroke-width="2.51"/><path d="M163.64 176.35c-1.15 1.15-1.36 2.3-.42 3.24.21.32.21.73 0 1.05l-1.46 2.1" stroke="#A3A3A3" stroke-width="2.51"/><path d="M161.76 182.63a4.85 4.85 0 0 0-1.26 4.08c0 .31.31.63.73.73 1.16 0 2.3-.2 3.35-.52" stroke="#DDDDDF" stroke-width="2.51"/><path d="M164.58 186.82c.95.73 1.68 1.04 2.3 1.04" stroke="#B7B6B7" stroke-width="2.51"/><path d="M166.89 187.86c2.72-.94 4.29-2.51 4.81-4.81.1-.53 0-.84-.52-.84a5.11 5.11 0 0 1-2.4-1.36c-.22-.21-.32-.53-.22-1.05a9.43 9.43 0 0 1 5.03-7.33.73.73 0 0 0 .31-.84l-.31-.3a4.51 4.51 0 0 1-2.41-2.73" stroke="#DDDDDF" stroke-width="2.51"/><path d="M171.18 168.6c.2-1.68 1.05-3.14 2.51-4.6 1.05-.84 1.05-1.06-.31-.74a6.5 6.5 0 0 0-3.98 3.98" stroke="#B7B6B7" stroke-width="2.51"/><path d="M171.18 168.6c-.84.42-1.47 0-1.78-1.36m-2.51 20.52c-.53-1.05-.74-2-.42-2.72.1-.53.42-.74.84-.63.83 0 1.36-.32 1.78-1.05v-.31a.64.64 0 0 0-.32-.42h-.2c-2.73.1-4.1 1.57-3.99 4.19" stroke="#A4A3A6" stroke-width="2.51"/><path d="M161.76 182.63c1.04 0 1.88-.32 2.4-1.05.42-.31.53-.73.53-1.26 0-1.04.63-1.98 1.78-2.61.84-.32.84-.74 0-1.05h-.53c-.62-.2-.62-.63-.2-1.05l4.92-3.14h.1c.21-.31 0-.52-.2-.63a1.04 1.04 0 0 0-.74-.1c-2.52.8-4.72 2.38-6.28 4.5" stroke="#909092" stroke-width="2.51"/><path d="M143.22 214.04a1.05 1.05 0 0 0-.41.84l-.63 9a1.05 1.05 0 0 0 1.78.84l18.32-16.75a1.05 1.05 0 0 0 .2-1.26c-.03-.16-.1-.3-.2-.42l-5.44-4.19a1.05 1.05 0 0 0-1.26 0l-12.36 12.04v-.1Z" stroke="#DDDDDF" stroke-width="2.51"/><path d="M41.36 185.46c-4.5-2.1-9.43-5.76-11.1-10.68a74.13 74.13 0 0 0-5.97-13.82c-9.42-4.93-12.98-12.46-10.68-22.62 0-.52 0-1.05-.42-1.46-5.55-7.44-6.6-15.7-3.14-24.71.1-.32 0-.73-.31-1.05-5.66-6.07-5.24-16.75-3.88-25.02.63-4.71 3.77-7.85 5.03-12.36a22.72 22.72 0 0 1 12.25-14.86c.42-.32.63-.74.84-1.15 1.25-4.2 4.18-8.17 9-12.04 1.68-1.26 3.46-1.37 5.24-2.1.41-.2.62-.42.73-.84C42.6 24.54 59.89 19 76.32 23.7a1.47 1.47 0 0 0 1.58-.42c2.72-3.14 5.96-6.28 9.84-7.64 3.03-1.05 5.86-2.51 8.9-2.51 20.72-.84 41.25 2.4 57.58 13.08a193.33 193.33 0 0 1 18.53 14.56 53.04 53.04 0 0 1 10.16 12.04c4.08 7.01 9 14.76 9.1 22.4.21 8.27.21 16.75.1 25.34.04.96.41 1.89 1.05 2.61l10.27 13.1.52 1.25c.5 10.95.5 21.92 0 32.87 0 .53-.21 1.05-.63 1.26l-10.89 13.5c-.35.34-.78.6-1.25.74-2.3.83-4.5 2.2-6.7 4.19a11.52 11.52 0 0 0-2.94 5.54c-2.09 8.06-4.5 16.55-7.22 25.44-.73 2.3-1.47 4.92-1.57 7.33 0 8.8-.31 17.28-.73 25.44 0 .53-.21 1.05-.63 1.58a70.15 70.15 0 0 1-29.94 23.24 155.28 155.28 0 0 1-25.45 7.95 66.25 66.25 0 0 1-29.31-3.35 71.93 71.93 0 0 1-39.78-27.95 3.16 3.16 0 0 1-.53-1.67c-.42-11.2-.63-22.62-.73-33.93 0-2.3-.42-4.5-1.26-6.6a48.4 48.4 0 0 1-1.99-6.27c-.1-.74-.52-1.05-1.04-1.26v-.1ZM93.18 67.67l12.77-.84c.42 0 .63-.2.63-.73l.21-4.92v-2.51c0-.42-.31-.63-.84-.53-8.06 1.05-15.8-1.04-20.3-8.27-4.5-7.32-4.3-14.86.62-22.3 4.6-7.01 12.15-8.58 20.1-8.06a.42.42 0 0 0 .32-.42l.31-.83a.32.32 0 0 0-.1-.42.42.42 0 0 0-.32-.1c-11.1-1.16-19.58 2.09-25.75 9.83-2 2.41-3.35 3.88-4.2 7.12-3.97 15.7 1.58 26.7 16.55 32.98Zm18.74 7.23v11.62c0 .42.31.63.84.63l18.84-2.52a6.38 6.38 0 0 0 3.67-1.78c4.19-3.24 7.95-6.6 11.1-9.84.31-.42.52-.84.52-1.25l5.24-40.2c0-.43-.22-.74-.53-1.05A115.7 115.7 0 0 0 120.1 19.2a46.18 46.18 0 0 0-7.44-.84c-.42 0-.62.21-.62.63l-.21 55.8.1.1ZM100.2 53.75c2.1.31 3.98.2 5.76-.1.42-.22.63-.53.74-.95v-4.92l.1-2.72c0-.32-.2-.53-.63-.53h-2.51c-2.72.1-4.5-.73-5.44-2.5-1.05-6.4 1.25-9.85 7.01-10.48 1.68.32 2.1-1.67 1.47-5.76a.72.72 0 0 0-.74-.73C93.08 22.23 85.01 32.4 89 44.53c1.89 5.55 5.66 8.59 11.2 9.22ZM44.71 43.8c-.31 4.05.22 8.11 1.57 11.94a.63.63 0 0 0 .83 0l2.73-3.25c4.7-5.76 11.2-7.85 19.26-6.07.21.2.52.2.73.1.32 0 .53-.2.53-.62.1-3.35-1.47-5.45-4.92-6.18-3.14-.63-5.97-.84-8.59-.42-.73 0-.84-.21-.2-.63 4.5-4.19 9.2-5.02 13.92-2.51.42.2.73.1.73-.42.31-2.1 1.15-4.19 2.4-5.86.43-.63.22-.95-.52-1.05-.42 0-1.25-.2-2.5-.73-1.06-.42-4.2-.53-9.43-.32-2.41 0-4.5.53-6.28 1.68C49.3 32.8 45.33 37.1 44.6 43.8h.1Zm67.73 59.05-.3 1.15a39.23 39.23 0 0 0 0 8.59c0 .2.1.31.4.2v.74l-.51 22.5v12.89c.41.94.41 1.36 0 1.36v10.68l.52 16.54v.1c2.04-.95 4-2.07 5.86-3.35l.95-39.57c0-.42 0-.84.3-1.15l10.27-14.98c.31-.41.63-.62 1.05-.62 10.36-.32 20.73-.42 31.4-.42 2.1 0 3.46 1.67 4.82 3.03a1.26 1.26 0 0 0 1.89-.83 142.8 142.8 0 0 1 3.14-18.74c.62-2.2.31-4.2-1.05-6.08-2.62-3.66-6.5-9.73-5.76-14.45a387.07 387.07 0 0 0 3.67-36.32 356.13 356.13 0 0 0-12.05-10.06.31.31 0 0 0 0 .21v.1l-6.28 40.53c0 .41-.1.83-.52 1.25L136.21 88.4a209.7 209.7 0 0 1-23.45 3.56c-.53 0-.73.21-.63.73l.31 10.06v.1Zm-9.2-63.13 3.76-.84a.42.42 0 0 0 0-.52v-.21c0-.21 0-.42-.2-.63l-.64-.42a2.1 2.1 0 0 0-.73-.2l-.84.1-.31.1-.73.31c-.2.15-.39.32-.53.53l-.31.63v.94a.31.31 0 0 0 .2.2.32.32 0 0 0 .32 0ZM30.98 57.1c2.3-2.1 4.92-3.25 7.96-3.35.52 0 .84-.32.73-.94l-.42-2.41c0-.32-.2-.42-.42-.53-1.04-.1-1.88-.2-2.61.42a22.72 22.72 0 0 0-5.66 5.76c-.31.21-.31.42 0 .63v.42a.21.21 0 0 0 .36.15.2.2 0 0 0 .06-.15Zm155.47 17.06c-.2-7.95-6.6-18-11.83-23.66a.41.41 0 0 0-.33-.09.42.42 0 0 0-.3.2l-4.4 31.72c0 .42.11.84.32 1.15l15.7 25.13c.53.63.74.63.74-.21.41-11.4.41-22.83 0-34.24h.1Zm-93.7 2.41c1.78.21 3.56-.63 5.24-2.4.2-.43 0-.53-.32-.64L86.17 70.4A31.83 31.83 0 0 1 73.92 57.2a7.85 7.85 0 0 0-7.33-5.86c-9.53-.84-14.87 3.24-16.13 12.14-.62 3.67-5.02 5.24-8.06 3.35a1.57 1.57 0 0 0-2.5 1.26c-.11 5.76 2.3 9 7.21 9.84 7.02 1.05 11.73-4.08 11.84-10.89.3-4.4 5.23-5.65 8.37-3.14.31.32.52.74.63 1.05 2.93 7.43 7.43 11.94 13.6 13.61 3.36.84 7.02.21 11.21-1.99ZM69.21 84l2.09-2.93a1.05 1.05 0 0 0 0-1.25 8.59 8.59 0 0 0-5.03-3.46c-2.82-.52-5.23 1.57-7.01 3.14-3.35 3.04-8.9 3.56-13.2 2.93a12.35 12.35 0 0 1-10.25-17.38c1.25-3.24 3.98-4.5 8.16-3.66 1.16.21 1.26 0 .42-.73-2.62-2.1-5.34-2.52-8.37-1.05-4.92 2.51-7.33 9.42-7.12 14.55.42 13.61 12.88 21.36 25.86 19.37 5.97-.84 10.78-3.98 14.45-9.42V84ZM25.23 65.16c.84-1.68.42-2.1-1.04-.94-8.38 5.23-10.47 12.56-6.7 21.98.31.74.52.74.83 0 .74-2.61 2.41-4.81 4.82-6.8.35-.3.57-.7.63-1.15.2-3.88-.42-9.85 1.46-13.2v.1Zm31.41 52.87a44.6 44.6 0 0 1 34.76-2.83 13.61 13.61 0 0 1 10.37 13.1l.62 9.62c-.73-.31-1.04-1.36-.83-3.14a2.3 2.3 0 0 0-.84-1.88l-.31-.32a.63.63 0 0 0-.74 0l-.1.32a60.61 60.61 0 0 0-1.26 8.58c0 .74-.2 1.26-.63 1.78-.42.53-.52.42-.42-.1.63-2.1.1-3.67-1.46-4.6-1.26-.64-2.3-.32-3.35.83a10.47 10.47 0 0 1-4.09 2.3l1.58-2.62c2.09-3.14 1.57-3.76-1.78-2.09-7.23 3.77-14.66 3.67-22.3-.42-2.1-1.05-2.62-.52-1.58 1.68l1.26 2.4c-2.4-2.09-4.08-3.14-4.92-3.34a42.23 42.23 0 0 0-5.65-3.15c-1.59-.68-3.01-1.67-4.2-2.93a24.27 24.27 0 0 1-3.13-4.4.73.73 0 0 0-1.05.22c-2.51 4.18-3.66 9-3.66 14.23 0 16.23 1.88 31.73 5.65 46.49 5.24 20.41 17.28 35.6 36.02 45.54 7.85 4.19 15.18 5.55 22.2 4.3v-24.3c0-.42-.22-.62-.74-.62a15.69 15.69 0 0 0-8.59 1.15 5.24 5.24 0 0 1 1.05-4.4c.31-.31.21-.63-.1-.73l-4.93-2.72-.41-.53a.42.42 0 0 1 .41-.63l.21.1a22.27 22.27 0 0 0 12.57 1.37.73.73 0 0 0 .73-.73l-.31-4.92a1.37 1.37 0 0 0-.63-1.05 9.24 9.24 0 0 0-3.56-1.57c-6.28-.73-10.89.31-13.82 3.14-.42.42-.73.42-1.05 0l-2.1-3.35c-.2-.42-.3-.84-.1-1.26.42-1.67 1.47-2.51 3.14-2.72.32 0 .53 0 .84.21.42.42.63.84.63 1.26 0 .52.2.73.73.63l.74-.53 7.53-1.88c2.62-.84 4.4-.21 6.8.41.53.22.74 0 .85-.41.2-.63 0-1.16-.21-1.68l-3.46-7.01c-.2-.42-.52-.63-.94-.63h-7.33c-6.7-6.8-6.28-13.82 1.47-20.94 1.25.52 1.46 1.78.63 3.77-3.36 1.78-4.5 5.13-3.46 9.94a22.07 22.07 0 0 1 4.92-1.57c3.14-.52 5.24 1.47 7.75 2.83.42.21.73 0 .73-.31.21-.74.21-1.36 0-1.89v-91.6l-.42-7.86c0-.63-.31-.73-.73-.2a19.16 19.16 0 0 1-6.8 4.28 106.9 106.9 0 0 1-15.71 3.77c-7.43 1.16-10.47 5.66-16.65 9.43-10.89 6.38-17.27 14.44-16.02 28.06.42 4.08 2.41 6.8 5.87 8.16a1.04 1.04 0 0 0 1.04-.31c2.83-3.14 5.45-6.8 9.64-8.27a90.93 90.93 0 0 1 14.24-4.09c.62 0 .62-.2 0-.52a28.12 28.12 0 0 0-12.78-1.78c-1.04.1-3.14.63-5.76 1.57-2.09.73-3.97 1.26-5.96 1.47v-.1h-.1Zm-29.63-13.61c7.75 5.97 20.31 5.65 24.08-4.71.21-.42.1-.63-.31-.73l-5.86-1.05c-1.57-.21-3.67 0-6.6.42-3.14.63-5.44-.63-6.8-3.56-1.26-2.41-.21-4.3-2.73-6.28a6.8 6.8 0 0 1-1.99-2.62c-.94-2.1-1.88-2.1-2.82 0-3.14 6.39-2.1 12.56 3.14 18.53h-.1Zm-8.27 6.07c2.1.42 3.88 0 5.24-1.25.31-.21.31-.53 0-1.05l-4.71-6.28-7.33-15.29c-.21-.42-.42-.42-.63 0-4.92 8.7-3.14 20.63 7.43 23.87Zm106.06 28.27-.63-.31c-.52 0-.73.2-.73.63v30.36l-.32 7.22a1.99 1.99 0 0 1-1.04 1.68l-9.11 4.6a1.47 1.47 0 0 0-.73 1.26l-.42 8.37c0 .63.2.95.83.95h7.75l5.03.41c.42 0 .83.22 1.15.53a13.6 13.6 0 0 1 5.02 9.42c.1.53.42 1.05.84 1.36l4.92 4.19c.42.31.84.31 1.05 0 4.4-4.92 8.8-9.21 13.3-12.98.31-.32.52-.73.62-1.26l5.24-25.96c0-.42.2-.84.63-1.26l25.12-24.18c.42-.32.53-.74.53-1.26v-27.22c.04-.62-.1-1.24-.42-1.78l-5.97-8.59a.42.42 0 0 0-.26-.38.42.42 0 0 0-.16-.03.42.42 0 0 0-.31.41l-4.71 21.57a5.59 5.59 0 0 1-2.41 3.14c-.32.21-.53.42-.73.84a6.63 6.63 0 0 1-1.47 2.83 139.6 139.6 0 0 0-12.04 13.82h-17.28c-.52 0-.83 0-1.25-.42l-4.82-5.76c-1.67-2.1-4.19-2.83-7.33-2.4v.1l.1.1Zm64.91-29.31-.42 11.1v20.93l.53 15.18a2.9 2.9 0 0 0 0 1.89c.2.52.41.52.73 0l7.22-8.48c.47-.56.73-1.26.73-2v-27.74a3.7 3.7 0 0 0-.94-2.4l-7.33-10.16c-.41-.42-.62-.42-.83.1 0 .53 0 1.05.31 1.47v.1Zm-144.69 2.4-9.21 1.57-4.92 2.52c-.42.31-.84.31-1.26.1l-3.66-1.36a2.19 2.19 0 0 0-3.14 1.88c-.42 5.45 2.61 8.48 7.95 9a12.56 12.56 0 0 0 13.09-6.9c1.67-3.14 2.1-5.24 1.05-6.8h.1Zm-10.89 25.97c1.68 0 3.04-1.26 3.98-3.67.1-.41 0-.73-.52-.83l-7.23-.84c-8.69-2.62-12.98-8.27-12.87-16.75 0-.53-.21-.84-.74-.84-.73 0-1.36.2-1.88.52-.42.32-.63.63-.63 1.05-1.99 8.9.42 15.8 7.12 20.94 4.19 3.14 8.38 3.14 12.77.42Zm34.03-11.41c8.58-4.4 16.44-3.14 23.45 3.97h.1l.42-.3a.63.63 0 0 0 0-.85c-6.49-8.58-14.23-10.68-23.24-6.17a11.52 11.52 0 0 0-5.76 6.6c-.2.83 0 .93.53.2a15.71 15.71 0 0 1 4.5-3.45Zm81.35 16.12a10.06 10.06 0 0 0 5.97-5.13 10.9 10.9 0 0 0-4.4-14.24 10.05 10.05 0 0 0-7.75-.94 10.05 10.05 0 0 0-5.97 5.13 10.89 10.89 0 0 0 4.3 14.24 10.3 10.3 0 0 0 7.85.94Zm-79.05-12.35-2.1 1.78c-1.14 1.04-1.04 2.09.22 2.93 5.23 3.24 10.05 3.87 14.55 1.78 3.25-1.47 4.4-3.14 3.56-4.92-5.55-5.55-10.89-6.08-16.12-1.57h-.1ZM18.64 146.6c1.15 4.82 4.5 7.96 9.94 9.42h3.46a.52.52 0 0 0 .68-.43c.01-.1 0-.2-.05-.3l-.32-.31a86.44 86.44 0 0 1-9-10.26 5.23 5.23 0 0 0-3.88-2.2c-.41 0-.73.2-.83.63-.21 1.05-.21 2.2 0 3.45Zm158.72 23.77 5.65-6.07a3.65 3.65 0 0 0 1.05-2.52v-9.84c0-1.15-.42-1.36-1.26-.63a352.77 352.77 0 0 0-19.9 19.8 7.26 7.26 0 0 0-1.67 3.34l-3.56 16.75v.74a33.08 33.08 0 0 0 10.16 8.9 1.04 1.04 0 0 0 1.05-.74 323.19 323.19 0 0 0 7.74-28.37c.1-.52.32-1.05.74-1.36Zm-136.53 6.28-1.36-9.63c-.42-2.51-2.93-4.6-7.54-6.28a40.44 40.44 0 0 0 2.94 11.51c1.2 2.5 3.09 4.6 5.44 6.08h.2a.53.53 0 0 0 .43-.42c.1-.32 0-.74-.1-1.26Zm94.23 37.59c-2.1-2.2-4.5-4.5-7.12-6.8a3.77 3.77 0 0 1-1.15-2.73c.2-2.83-1.68-5.76-4.92-5.97l-9.64-.2c-.2 0-.3.1-.3.41v7.33c0 .42.1.52.51.52h9.43c2.1 0 3.87 0 5.65 1.57l6.91 6.6c.1.05.22.07.33.05a.53.53 0 0 0 .3-.16.53.53 0 0 0 0-.62Zm6.39-1.26c-.21.2-.32.52-.32.84l-.31 13.6a1.25 1.25 0 0 0 1.36 1.06l.63-.11 22.5-20.52a1.27 1.27 0 0 0 .28-1.37c-.06-.16-.16-.3-.27-.41l-7.96-6.6a1.25 1.25 0 0 0-1.57 0l-14.34 13.62v-.11Zm-90.04 9.95.1 6.28c.21 1.78.84 3.45 1.89 4.81a64.58 64.58 0 0 0 19.26 16.75 69.68 69.68 0 0 0 24.29 8.7c1.67.41 1.67.2.2-.74a100.47 100.47 0 0 1-35.8-34.02l-7.43-11.52c-.84-1.26-1.05-2.51-1.68-3.77-.41-.94-.52-.84-.52.1l-.31 13.4Zm61.14 1.67-.31 8.06v5.24c0 .42.3.73.73.73 3.35 0 6.8-.2 10.47-.42 4.4-.2 8.16-3.56 11.2-6.18l.52-1.25a35.5 35.5 0 0 0 0-8.17c0-.42-.31-.84-.62-1.25l-5.97-5.66c-1.57-1.67-2.83-2.83-5.24-3.14h-10.05c-.42 0-.63.1-.63.53l-.1 11.51Zm48.68-5.55c-3.97 2.51-5.97 5.03-6.17 7.75l-.63 17.28a.52.52 0 0 0 .31.41h.52c3.04-2.5 12.05-10.47 12.25-14.55.21-5.65 0-10.89-.62-15.8 0-.74-.21-.74-.74-.32l-4.92 5.23Zm-11.4 12.04a.73.73 0 0 0-.74-.94.74.74 0 0 0-.53.21.73.73 0 0 0-.3.52l-1.47 17.8a.74.74 0 0 0 .73.84.73.73 0 0 0 .83-.42v-.31l1.47-17.8v.1Z" fill="#000"/><path d="M106.8 61.18c-12.15 2.51-21.16-1.36-26.81-11.52l-2.2-3.97c-.31-.53-.42-.53-.42 0 0 3.76.84 7.12 2.62 9.84 3.14 5.23 7.33 8.69 12.77 10.47.42.2.63.83.32 1.67C78.2 61.4 72.77 50.4 76.53 34.7c.84-3.14 2.2-4.7 4.2-7.22 6.06-7.64 14.65-10.89 25.75-9.84a.41.41 0 0 1 .27.2c.03.04.05.1.05.15a.4.4 0 0 1 0 .17v.94a.42.42 0 0 1-.2.41.42.42 0 0 1-.44.01c-7.85-.52-15.39 1.15-19.89 7.96-5.02 7.43-5.23 14.87-.73 22.4 4.5 7.33 12.25 9.43 20.3 8.17.53 0 .74.2.74.73l.21 2.52v-.1Z" fill="#F0F0F0"/><path d="M111.82 77.1c2.93.2 5.86 0 9.1-.84.42-.21.74-.42.84-.74l1.78-3.35c.32-.83.73-1.57 1.36-2.09 3.42-3.57 7.02-6.96 10.79-10.16l1.15 2c.42.41.73.41 1.15 0 2.51-2.1 4.92-1.05 6.7-4.61.21-.53.63-.84 1.26-.84.42 0 .73-.1 1.04-.42.21-.2.42-.52.53-1.05l.52-5.65v-.42c0-.2-.1-.31-.42-.42-.31-.1-.52 0-.73.21-.73 1.68-1.47 3.35-2.93 4.19a18.23 18.23 0 0 0-5.24 3.98c-.83.94-1.88 1.25-2.82 1.78-3.77 1.05-6.39 2.4-8.07 4.08-1.25 1.36-2.82 4.19-4.92 8.7a16.07 16.07 0 0 0-4.81 2.92c-.32.21-.63.32-1.05.21-1.78-.1-3.56 0-5.23.32V18.99c0-.42.2-.63.73-.63 2.4 0 4.92.31 7.33.84 11.3 2.2 21.78 6.07 31.62 11.41.31.2.41.52.41 1.05l-5.23 39.99c0 .52-.1.94-.52 1.26a129.8 129.8 0 0 1-10.9 9.94 7.12 7.12 0 0 1-3.86 1.78l-18.85 2.52c-.42 0-.63-.21-.63-.63v-9.43h-.1Zm22.61-49a8.26 8.26 0 0 0 2.4-1.47.73.73 0 0 0 0-1.05 2.52 2.52 0 0 0-1.56-.41c-.42 0-.63.2-.73.73 0 .52-.42.94-.84 1.25a10.47 10.47 0 0 0-4.6 6.18c-.22.84 0 1.05.72.53a11.3 11.3 0 0 0 3.88-5.03c.1-.42.42-.63.73-.73Zm-13.4 5.44 8.38-4.08a.53.53 0 0 0 .2-.42.53.53 0 0 0-.1-.42l-.31-.42c-.42-.52-.95-.63-1.57-.31-2.83 1.57-6.29 2.82-8.38 5.65a40.8 40.8 0 0 1-4.92 5.97l.31.2c2.3-1.77 4.4-3.76 6.18-5.85l.21-.32Zm-15.91-1.99c-3.77-1.57-7.96.53-9.43 4.4-1.04 2.51-.2 4.5 2.52 6.07.83 1.78 2.5 2.62 5.23 2.51h2.62c.42 0 .63.21.63.53v2.82c-8.27.53-14.66-1.04-16.75-9.84a.2.2 0 0 0-.1-.1.21.21 0 0 0-.22 0c-.63 5.55 1.78 12.46 7.64 13.6l2.52.43c.41.1.63.42.73.84 0 .41-.1.62-.52.94-5.45-.63-9.22-3.67-11.1-9.32-4.08-12.15 4.08-22.2 16.96-19.58.42.1.63.42.73.84.63 4.19.21 6.18-1.46 5.86Z" fill="#FDFDFD"/><path d="M133.7 28.73a9.56 9.56 0 0 1-3.88 4.92c-.83.62-1.04.41-.73-.42a11.52 11.52 0 0 1 4.6-6.28c.43-.21.74-.63.85-1.16 0-.31.31-.52.73-.62.63 0 1.15.1 1.46.52a.73.73 0 0 1 0 .94 7.8 7.8 0 0 1-2.3 1.47 1.04 1.04 0 0 0-.73.63Z" fill="#C9CACE"/><path d="M68.9 46.42c0-2.1-2.1-3.14-6.3-2.83-4.7.21-8.68 2-11.82 5.24a1.05 1.05 0 0 1-1.47-.32l-2.4-4.7c-.32-.64-.63-.64-.95 0l-.42.62c-.31.31-.52.31-.83 0v-.63c.62-6.7 4.6-11 10.15-14.34a13.2 13.2 0 0 1 6.39-1.68c5.23-.2 8.37 0 9.53.32l2.4.73c.74.1.95.42.53 1.05a12.7 12.7 0 0 0-2.41 5.86c0 .52-.21.63-.73.42-4.82-2.51-9.43-1.78-13.93 2.51-.63.42-.52.63.21.63 2.51-.42 5.34-.21 8.7.42 3.34.73 5.02 2.83 4.91 6.28 0 .2-.2.42-.63.52l-.73-.1h-.2Z" fill="#FDFDFD"/><path d="m121.03 33.54-.21.32a42.01 42.01 0 0 1-6.28 5.86l-.21-.21v-.32a63.82 63.82 0 0 0 5.03-5.75c2.09-2.83 5.44-4.09 8.37-5.66.52-.31 1.05-.2 1.47.32l.31.42a.51.51 0 0 1 .12.47.52.52 0 0 1-.33.36l-8.27 4.2Zm-15.91-1.99c-5.76.63-8.07 4.09-6.91 10.47-2.62-1.57-3.46-3.56-2.52-6.28 1.47-3.66 5.55-5.76 9.43-4.19Z" fill="#C9CACE"/><path d="M111.82 160.96a3.3 3.3 0 0 0 2.4.52c.74 0 1.05.2 1.26.73l.21 1.15c0 .32.21.42.52.32.21 0 .32 0 .42-.32.42-2.72.42-5.75-.2-8.9-.22-.62-.32-1.15-.22-1.67.84-5.03.84-10.16.1-15.18l6.5-12.04c.1-.31 0-.42-.31-.42a6.6 6.6 0 0 0-2.94 2.4 45 45 0 0 1-6.8 8.38l-.84.1.52-22.5h5.03c.52 0 .94-.1 1.26-.42l5.44-4.5a.74.74 0 0 1 .63-.1c.2 0 .42.1.42.41.31.53.73.53 1.25 0 .32-.31.53-.63.53-1.05l5.97.84.62.32c.21 0 .42.31.53.42a10.15 10.15 0 0 1 1.25 5.44.72.72 0 0 0 .14.55.73.73 0 0 0 .5.29c1.46 0 2.5-.73 2.92-2.3 1.05-3.04 1.57-5.76 1.26-8.17l8.8-11.1a1.47 1.47 0 0 0 .3-1.57c-.62-1.15-.52-2.2.22-3.14l-.42-.1a.52.52 0 0 0-.42 0l-3.87 6.8-4.93-.94c-.41 0-.73-.32-1.04-.74l-.21-.41c0-.63-.31-.74-.84-.53-.84.42-1.57.94-2.1 1.57-.62 1.05-2.3 1.26-3.24 2.1a5.56 5.56 0 0 1-4.19 1.36c-1.36 0-1.46-.63-.52-1.57a5.24 5.24 0 0 0 1.89-3.56.74.74 0 0 0-.32-.53l-.31-.1c-2.62-.31-5.03-.21-7.44.31-.94 0-1.78.21-2.5.63-.43.52-.71 1.13-.85 1.78 0 .42-.31.63-.73.63h-.84c-.42 0-.73.1-1.04.42a9.74 9.74 0 0 0-2 5.65c-.41.42-.83.73-1.46.73l-.1-9.94c0-.53.2-.73.62-.84 7.65-.63 15.08-1.67 22.2-3.14.52 0 1.05-.2 1.26-.63l14.02-11.93c.32-.42.53-.84.63-1.36l6.18-40.42v-.1a.31.31 0 0 1 0-.21.3.3 0 0 1 .31-.1l.1.1c3.96 3.22 7.8 6.57 11.53 10.05l.2.63a447.38 447.38 0 0 1-3.76 35.6c-.74 4.7 3.14 10.78 5.65 14.44 1.26 1.89 1.78 3.88 1.26 6.28a132.7 132.7 0 0 0-3.56 19.06 1.26 1.26 0 0 1-1.57.31c-1.36-1.25-2.73-3.03-4.82-3.03-10.78 0-21.15.2-31.4.42-.43 0-.85.2-1.16.62l-10.16 14.87c-.2.42-.42.84-.42 1.15l-.83 39.58c0 .31 0 .42-.21.52a40.2 40.2 0 0 1-5.66 2.93l-.62-16.75v-.1Zm45.75-98-.31 1.05c-.84.31-1.58.73-2.2 1.36-.53.42-.42.84.41 1.05h.42c.21-.21.42-.21.63 0 .84.31 1.05.73.52 1.15-.3.31-.41.63-.1 1.04.42.84.42 1.78 0 2.62a17.58 17.58 0 0 0-1.05 8.7 72.33 72.33 0 0 1-4.29 5.65c-.42.41-.31.62.21.52.63-.52 1.15-.63 1.78-.52.73.2.84.62.21 1.15l-3.46 3.77.1.41c.22.21.43.21.64 0 2.4-1.57 4.4-3.56 5.96-5.86 2.1-1.67 3.15-3.77 5.97-4.19.42 0 .63-.2.74-.62a5.6 5.6 0 0 0-.32-2.73c.32-.31.42-.62.42-.94.42 0 .73 0 .84-.31a.42.42 0 0 0-.1-.63h-.84c-.53 0-.84-.21-1.05-.63a9.43 9.43 0 0 1-.84-6.07 2.1 2.1 0 0 1 1.26-1.47 4.5 4.5 0 0 0 2.62-4.6c-.21-.95 0-1.78.3-2.62.22-.42.22-1.05 0-1.47-.62-1.04-.51-2.1.43-3.14a.63.63 0 0 0 0-.73l-.32-.21-.2-.1c-.42-.21-.74-.21-.84.2a10.25 10.25 0 0 1-2.1 2.52l-1.04.52c-1.89.21-3.67.84-5.45 1.68a.84.84 0 0 0-.52.73c0 .63.31 1.05.94 1.25a1.26 1.26 0 0 1 .63 1.05v.42Zm.84 51.51-.21.31c-.42.32-.42.63 0 .74h.94c.42-.1.63-.42.73-.84l.63-2.83c.21-.62 0-.73-.52-.2a5.67 5.67 0 0 0-1.47 2.5v.32h-.1Z" fill="#F0F0F0"/><path d="M103.13 39.72a.42.42 0 0 1-.53-.21v-.94l.21-.63.63-.53.63-.3h.52l1.47.1c.42.2.73.52.94.94v.2a.32.32 0 0 1 0 .32.42.42 0 0 1-.31.21l-3.56.84Zm3.56 8.16-.1 4.93c0 .41-.22.62-.74.62-1.9.53-3.91.64-5.86.32.42-.32.52-.53.52-.94 0-.42-.21-.74-.73-.84l-2.52-.32C91.4 50.4 89 43.5 89.62 38.05a.21.21 0 0 1 .21-.11h.21c2.1 8.9 8.38 10.47 16.75 9.94h-.1Zm-37.7-1.46c-8.06-1.78-14.55.31-19.26 6.28l-2.82 2.93a.63.63 0 0 1-1.05-.2 29.31 29.31 0 0 1-1.47-11.73v.52c.32.42.63.42 1.05.1l.31-.52c.32-.73.63-.73 1.05 0l2.4 4.6a1.05 1.05 0 0 0 1.47.22 17.96 17.96 0 0 1 11.94-5.24c4.08-.1 6.28.84 6.28 2.93l.1.1Zm37.8 14.87-.31 4.92c0 .42-.21.62-.63.62l-12.77.84c.2-.84 0-1.36-.32-1.57A23.45 23.45 0 0 1 80 55.63a19.16 19.16 0 0 1-2.51-9.94c0-.53.1-.53.31 0l2.2 3.97c5.76 10.26 14.66 14.14 26.7 11.52h.1v.1Zm28.9-1.37c.31.21.42-.2.2-1.25 1.05-.63 2-.84 2.83-1.78a20.63 20.63 0 0 1 5.24-4.08c1.46-.74 2.2-2.41 2.93-4.09.2-.31.42-.31.73-.2l.42.41v.42l-.52 5.76c0 .42-.21.73-.63 1.05-.21.2-.52.31-1.05.31-.52 0-.94.2-1.15.84-1.78 3.66-4.19 2.61-6.7 4.7-.42.32-.73.32-1.05-.1l-1.25-2.09v.1Z" fill="#C9CACE"/><path d="M38.84 53.75a11.2 11.2 0 0 0-8.06 3.35.21.21 0 0 1-.2 0l-.32-.42v-.63a25.5 25.5 0 0 1 5.86-5.76c.73-.63 1.57-.52 2.41-.42.31 0 .52.21.63.53l.42 2.4c0 .63-.32.95-.74.95Zm135.59-3.35c5.33 5.76 11.72 15.8 11.93 23.76.31 11.62.31 23.04-.1 34.24 0 .84-.32.84-.74.2l-15.7-24.9c-.21-.43-.21-.85-.21-1.27l4.4-31.82c.04-.1.11-.17.2-.21a.42.42 0 0 1 .42.1l-.2-.1Z" fill="#F0F0F0"/><path d="M86.06 70.4c-3.14 1.88-6.6 1.36-10.05-1.58-3.35-2.82-4.92-8.37-9.1-9.63-4.93-1.67-8.6-.42-10.8 3.67-1.25 2.09-1.25 4.7-2.82 6.6-3.14 3.55-7.01 3.66-11.41.3-.42-.3-.63-.2-.63.42.32 3.88 2.3 5.97 6.28 6.18 5.97.32 9.22-2.83 9.74-9.53a6.39 6.39 0 0 1 5.65-5.86c2.52-.2 5.66 1.57 6.6 4.19a16.12 16.12 0 0 0 9.84 10.68c2.93 1.05 7.33 1.25 13.3.63-4.2 2.09-7.85 2.82-11.2 1.88-6.18-1.67-10.68-6.28-13.62-13.6-.1-.32-.31-.64-.62-.85-3.14-2.61-8.17-1.36-8.38 3.14-.1 6.7-4.92 11.83-11.83 10.68-5.03-.73-7.33-3.98-7.22-9.73a1.57 1.57 0 0 1 2.5-1.26c3.15 1.88 7.34.52 8.07-3.35 1.15-9 6.6-12.98 16.02-12.15 3.77.32 6.28 2.3 7.43 5.87a28.8 28.8 0 0 0 12.25 13.08V70.4Z" fill="#FDFDFD"/><path d="m163.75 76.57-.42-.31a1.05 1.05 0 0 0-1.05-.1c-.94.3-2.3.2-2.72-.85-.32-.3-.42-.83-.53-1.36 0-.31-.2-.42-.62-.31h-.53c-.2 0-.31.2-.31.52.42 2.41-.21 4.4-1.78 5.76-.42-2.83 0-5.76 1.25-8.69.22-.84.22-1.78-.2-2.51-.32-.42-.32-.84 0-1.15.41-.42.31-.84-.42-1.26h-1.16c-.73 0-.83-.31-.3-.84.6-.63 1.35-1.1 2.19-1.36.2.53.52.84 1.05 1.05a1.25 1.25 0 0 0 1.57-1.26l-.1-.94a1.05 1.05 0 0 0-.95-.63c-.63 0-1.05.21-1.36.63v-.42a1.27 1.27 0 0 0-.52-.94c-.63-.31-.95-.73-.95-1.36a.84.84 0 0 1 .53-.73 17.25 17.25 0 0 1 5.44-1.68c.31 0 .73-.2 1.05-.42l2.1-2.4c.1-.53.41-.63.83-.42l.2.1a.63.63 0 0 1 .32.84c-.83 1.04-1.04 2.1-.52 3.24.2.53.2 1.05 0 1.47-.27.8-.38 1.66-.31 2.51a4.42 4.42 0 0 1-2.41 4.71 2.1 2.1 0 0 0-1.26 1.47 9.7 9.7 0 0 0 .73 6.07c.21.42.53.63 1.05.63h.53a.42.42 0 0 1 .52.1.42.42 0 0 1-.1.53l-.84.31Zm.83-14.34c.32-.21.32-.53 0-.84a.84.84 0 0 0-1.04-.1l-.21.2-1.89 2.2c-.31.42-.2.63.32.63 1.25 0 2.09-.63 2.61-1.78 0-.1 0-.2.21-.31Zm-78.52 8.16 11.52 3.14c.42 0 .42.21.2.63-1.67 1.78-3.34 2.62-5.23 2.41-5.76.63-10.26.42-13.19-.63a16.12 16.12 0 0 1-9.84-10.89c-.94-2.4-4.19-4.18-6.6-4.08a6.39 6.39 0 0 0-5.65 5.97c-.52 6.6-3.87 9.74-9.95 9.42-3.77-.2-5.86-2.3-6.17-6.28 0-.52.2-.63.73-.31 4.4 3.35 8.17 3.24 11.41-.21 1.68-1.89 1.57-4.61 2.83-6.8 2.2-4.2 5.86-5.35 10.78-3.67 4.19 1.46 5.76 6.7 9.11 9.63 3.46 3.04 6.8 3.56 10.05 1.57v.1Z" fill="#C9CACE"/><path d="M66.17 76.36c-7.12 17.28-28.69 13.82-34.66-1.88-1.04-2.72-1.46-2.62-1.25.42a18.84 18.84 0 0 0 19.79 17.27 24.08 24.08 0 0 0 17.9-8.37c.31-.1.52-.21.94-.1.21-.01.32-.01.32.3a20.94 20.94 0 0 1-14.56 9.64c-12.98 1.78-25.33-5.76-25.96-19.48 0-5.02 2.4-12.04 7.33-14.55 2.93-1.47 5.65-1.05 8.27 1.05.84.84.73 1.04-.42.73-4.19-.84-6.8.42-8.17 3.66a12.36 12.36 0 0 0 10.26 17.38c4.2.63 9.95 0 13.09-2.82 1.88-1.68 4.19-3.77 7.12-3.25Z" fill="#F0F0F0"/><path d="M135.9 58.67c.2 1.05 0 1.46-.21 1.25-3.77 3.2-7.37 6.59-10.79 10.16a4.5 4.5 0 0 0-1.36 1.99c-.63.1-.84 0-.73-.52 2.1-4.5 3.77-7.44 5.02-8.8 1.68-1.67 4.3-3.03 8.07-4.08Zm28.47 3.87c-.52 1.05-1.36 1.78-2.5 1.78-.64 0-.74-.2-.43-.63l1.89-2.09a.84.84 0 0 1 1.25 0c.32.2.32.42 0 .63l-.2.31Zm-7.22 1.47.2-1.05a1.5 1.5 0 0 1 1.27-.63 1.05 1.05 0 0 1 1.04.63v.73a1.28 1.28 0 0 1-.44.98 1.25 1.25 0 0 1-1.02.28c-.53 0-.84-.31-1.05-.84v-.1Z" fill="#7E7B7D"/><path d="M25.13 65.26c-1.89 3.14-1.26 9.11-1.57 12.78a1.78 1.78 0 0 1-.73 1.25 14.17 14.17 0 0 0-4.72 6.91c-.2.74-.42.74-.73 0-3.87-9.42-1.67-16.75 6.6-21.98 1.67-1.05 2.1-.74 1.04.83v.21h.1Z" fill="#F0F0F0"/><path d="M122.91 71.44c-.2.52 0 .84.63.73l-1.78 3.35c-.1.32-.42.53-.84.74a27.3 27.3 0 0 1-9 .83v-2.2c1.68-.3 3.35-.41 5.24-.1.31 0 .62-.2.94-.42a15.27 15.27 0 0 1 4.71-2.82v-.1h.1Zm-56.74 4.92a8.38 8.38 0 0 1 4.92 3.56c.2.32.2.73 0 1.05L69.1 84.1c0-.31-.1-.42-.31-.42-.42-.1-.63 0-.95.21a24.81 24.81 0 0 1-17.9 8.38A18.74 18.74 0 0 1 30.36 74.9c-.31-3.04 0-3.14 1.15-.42 5.97 15.8 27.54 19.16 34.55 1.88h.1Z" fill="#C9CACE"/><path d="M163.75 76.57c0 .32-.1.63-.42.94h-3.77c-.42 0-.74.1-.84.42l-1.78 7.12a22.74 22.74 0 0 1-5.97 5.86c-.2.21-.42.21-.63 0l-.1-.31v-.1l3.45-3.77c.63-.53.53-1.05-.2-1.26-.63 0-1.16.1-1.68.52-.63.21-.73 0-.31-.41a57.51 57.51 0 0 0 4.29-5.55c1.57-1.36 2.1-3.35 1.78-5.76 0-.32 0-.42.31-.42l.53-.1c.31 0 .52 0 .63.3l.52 1.37c.42 1.05 1.78 1.26 2.72.84.31-.32.73-.21 1.05 0l.42.42v-.1Z" fill="#7E7B7D"/><path d="M106.69 84.42a348.5 348.5 0 0 0-29.53 9.84 48.16 48.16 0 0 0-13.3 8.17A35.28 35.28 0 0 0 53.3 117.1a1.46 1.46 0 0 0 .32 1.57c1.04 1.05 2.09.94 3.03-.63 2-.2 3.98-.63 5.86-1.26 2.73-1.04 4.72-1.57 5.87-1.67 4.19-.42 8.58.2 12.88 1.78.52.31.52.42 0 .52-4.91.86-9.72 2.23-14.35 4.09-4.19 1.46-6.8 5.02-9.63 8.37a1.05 1.05 0 0 1-1.05.21c-3.56-1.26-5.44-3.98-5.76-8.16-1.25-13.62 5.03-21.57 16.02-28.17 6.08-3.66 9-8.27 16.65-9.42 5.23-.84 10.36-2.1 15.5-3.67 1.88-.52 4.18-2.09 6.8-4.4.52-.41.73-.3.73.32l.53 7.85Zm56.64-6.9c.31.73.42 1.67.31 2.72-.1.31-.42.62-.84.73-2.82.31-3.66 2.4-5.86 4.08l1.78-7.12c.1-.31.42-.42.84-.42h3.77Z" fill="#C9CACE"/><path d="M44.81 98.03c-1.36 3.77-4.6 5.24-9.74 4.2a14.67 14.67 0 0 1-10.26-7.34c-.52-.83-.73-.73-.73.21a11.52 11.52 0 0 0 3.77 8.17c.31.42.31.63 0 .94l-.94.21c-5.24-5.76-6.28-11.94-3.14-18.53 1.04-2.1 2.1-2.1 2.93.1.52 1.16 1.05 2.1 1.99 2.73 2.4 1.88 1.46 3.87 2.72 6.28 1.36 2.82 3.66 4.19 6.8 3.66 2.83-.63 5.03-.84 6.5-.52v-.1h.1Z" fill="#F0F0F0"/><path d="M106.69 84.42v91.5c-6.18-3.87-10.68-3.45-13.61 1.26-.84-5.02.41-8.37 3.56-10.15h2.4c.42 0 .63.31.74.73.31 1.05.73 2.2 1.25 3.14.21.84.42.84.53 0 .73-11.1 1.04-21.98.73-32.98l-.63-9.63A13.5 13.5 0 0 0 91.2 115.2a44.29 44.29 0 0 0-34.55 2.94c-.84 1.46-1.88 1.67-3.03.52a1.47 1.47 0 0 1-.32-1.57 35.28 35.28 0 0 1 10.58-14.66 48.16 48.16 0 0 1 13.3-8.06c9.67-3.78 19.52-7.1 29.52-9.95Z" fill="#FDFDFD"/><path d="M19.16 101.8c-3.14 1.36-5.65-.1-7.43-4.4-.95-2.4-1.36-2.3-1.47.22-.2 5.65 2.83 9.42 9 11.51.21 0 .21.1.21.32v.41a.63.63 0 0 1-.3.53h-.53C8.17 107.25 6.28 95.42 11.3 86.62c0-.42.2-.42.42 0l7.33 15.18h.1Z" fill="#F0F0F0"/><path d="M140.19 105.26c-.84-1.57 0-3.35 2.4-5.24 1.22-1 2-2.42 2.2-3.98l3.67-6.7a.53.53 0 0 1 .63-.1h.42c-.84 1.05-.94 2.1-.21 3.35a1.47 1.47 0 0 1-.32 1.57l-8.8 11.1Z" fill="#565555"/><path d="M144.8 96.15a5.77 5.77 0 0 1-2.2 3.98c-2.3 1.78-3.14 3.56-2.3 5.23.2 2.41-.22 5.13-1.16 8.06-.63 1.68-1.67 2.41-3.14 2.3a.73.73 0 0 1-.7-.52.74.74 0 0 1-.03-.31 8.42 8.42 0 0 0-1.26-5.44l-.42-.42-.63-.32-5.86-.83a14.21 14.21 0 0 1 6.08-8.17 1.04 1.04 0 0 1 1.04 0 10.5 10.5 0 0 0 3.67 1.57c1.04.31 1.25 0 .73-.94a9.33 9.33 0 0 1-1.57-3.88.73.73 0 0 0-.43-.45.73.73 0 0 0-.62.03c-2.3 1.05-4.4 2-5.76 4.3a24.99 24.99 0 0 1-4.6 5.23c-.32.21-.53.53-.63 1.05-.21 1.05-.84 1.67-2 1.67-.41 0-.72.1-1.04.42l-2.83 3.04c-.3.2-.73.42-1.15.42a8.3 8.3 0 0 1-3.97.2c-.63 0-1.05.11-1.58.43-.2 0-.3 0-.41-.32a37.35 37.35 0 0 1 0-8.37l2.2 1.04c.3.21.73.1 1.04-.1.73-.84.94-1.78.63-2.83-.1-.52 0-.73.52-.63.74 0 1.05.32 1.26 1.05a.4.4 0 0 0 .31.14.41.41 0 0 0 .32-.14c1.25-1.05 1.88-1.88 2.1-2.62.1-2.4.52-4.7 1.04-7.12a22.3 22.3 0 0 1 7.85-.2.74.74 0 0 1 .5.73 8.13 8.13 0 0 1-1.97 3.45c-1.04.94-.94 1.47.53 1.57 1.46 0 2.82-.42 4.08-1.46 1.05-.84 2.62-1.05 3.35-2a4.45 4.45 0 0 1 2-1.56c.52-.21.83 0 .83.52l.2.42c.32.42.64.52 1.06.63l4.92 1.04v.1Z" fill="#C9CACE"/><path d="m121.45 93-1.26 7.02c0 .74-.63 1.68-1.88 2.83a.42.42 0 0 1-.32 0 .42.42 0 0 1-.31-.21c-.1-.63-.52-1.05-1.26-1.15-.52 0-.73.2-.52.73.31 1.05 0 2.1-.63 2.83-.31.2-.73.2-1.05 0l-2.2-1.05c.22-.42.32-.84.22-1.15.52 0 1.04-.31 1.46-.73 1.57-.63 2.62-2.1 3.25-4.4 0-.42.31-.63.73-.84l1.26-.42c.31-.1.62-.42.73-.73 0-.42-.1-.63-.31-.84a.84.84 0 0 1-.42-.73l.1-.52a5.04 5.04 0 0 1 2.51-.74l-.1.1Z" fill="#565555"/><path d="M119.14 93.64v.52c-.2.31 0 .63.22.73.3.21.41.42.3.84-.1.31-.41.63-.72.73l-1.26.42c-.42.21-.63.42-.84.84-.52 2.3-1.67 3.77-3.14 4.4 0-2.1.63-3.98 1.89-5.66.31-.31.62-.42 1.04-.42h.84c.42 0 .63-.2.73-.62.14-.65.42-1.27.84-1.78h.1Zm-74.33 4.4 5.86 1.04c.42 0 .53.21.42.63-3.77 10.47-16.43 10.68-24.08 4.6l.63-.3c.52-.22.52-.53.21-.85A11.52 11.52 0 0 1 24.08 95c0-.84.21-.94.73 0a15.48 15.48 0 0 0 10.26 7.22c5.24 1.05 8.38-.42 9.64-4.19h.1Zm-25.65 3.76 4.71 6.5c.21.41.21.73-.1 1.04a5.77 5.77 0 0 1-5.24 1.05h.53a.62.62 0 0 0 .31-.53v-.41c0-.1 0-.21-.2-.32-6.19-2.1-9.22-5.86-9.01-11.51 0-2.52.52-2.52 1.57-.21 1.78 4.18 4.19 5.75 7.33 4.4h.1Z" fill="#C9CACE"/><path d="M127 107.88c0 .3-.21.73-.53 1.04-.52.53-.83.53-1.25 0l-.42-.52a.73.73 0 0 0-.63.1l-5.44 4.61c-.32.31-.74.42-1.26.42h-4.92l-.1-.73c.41-.42.94-.53 1.46-.42 1.57.2 2.93.2 4.19 0l1.05-.63 2.72-3.04c.42-.31.73-.42 1.15-.42 1.15 0 1.78-.52 1.99-1.78 0-.42.2-.73.63-1.04a24.34 24.34 0 0 0 4.6-5.13c1.36-2.3 3.46-3.35 5.76-4.3a.74.74 0 0 1 .89.15c.07.08.13.17.16.27a9.35 9.35 0 0 0 1.57 3.98c.52.84.2 1.05-.73.84a11.97 11.97 0 0 1-3.77-1.57 1.05 1.05 0 0 0-1.05 0 14.76 14.76 0 0 0-6.07 8.17Z" fill="#565555"/><path d="M120.4 193.62c-.31-.73 0-1.57.63-2.51a47.12 47.12 0 0 0 9.53-9.84l1.04.42c.21.2.32.41.32.73l-.1.52a.42.42 0 0 0 0 .42l.3.21c.32 0 .53 0 .64-.2a8.71 8.71 0 0 0 1.25-6.81 6.28 6.28 0 0 1 1.78-3.46h3.98a.2.2 0 0 1 .1.1v.22l.42 3.45h.32c.1-1.47.42-2.83.73-3.98.73-2.72 2.51-3.35 5.24-1.88a.74.74 0 0 0 .77-.17.74.74 0 0 0 .17-.25 5.23 5.23 0 0 1 2.93-2.72c.84-.32.84-.42 0-.42-1.99.31-2.83-.21-2.72-1.47 2.51-1.25 4.08-2.72 4.7-4.4.85.63 1.9.84 3.04.63.42-.1.74 0 .84.63 0 .52 0 1.05-.42 1.57-.41.53-.2.73.53.53a3.45 3.45 0 0 0 2.1-2.52 9.98 9.98 0 0 1 3.13-5.23c.42-.42.42-.63 0-.84a.63.63 0 0 0-.73 0c-.84.31-1.05.1-.63-.63l2.1-3.66c.2-.21.2-.32 0-.53h-.32l-5.76 6.6c-.31.31-.73.42-1.05.31h-1.56a.86.86 0 0 0-.53.84c0 .84-.1 1.57-.52 2.1-.42.3-.74.41-1.15.2l-4.2-2.5c-.41-.22-.52-.64-.41-1.06l2.1-6.8v-.63c-.22-.63-.64-.84-1.37-.73-.1 0-.31 0-.42.2-.41.32-.41.64 0 .84.32.32.42.53.21.84l-.83 1.89-.32.63c0 3.56-.63 7.64-3.14 10.47-.2.2-.63.52-1.05.52-2.09.31-4.18.31-6.17 0a1.05 1.05 0 0 0-1.05.52.95.95 0 0 0 0 1.05l-1.15 1.25-5.97 3.67c-.2.1-.41.14-.63.1a.83.83 0 0 1-.63-.31l-.41-.52c-.53-.53-.84-.42-.95.31 0 1.05.42 1.89 1.26 2.51.42.21.52.63.31 1.26-.83 2.1-2.5 3.14-3.66 5.34-1.26 2.72-2.4 5.76-4.92 7.33-1.26.84-2.3 1.78-3.35 2.72-.42.31-.42.63 0 .84 1.05.84 1.15 1.57.52 2.1h-2.72c-.63 0-1.05-.22-.84-.85l.42-8.48a1.47 1.47 0 0 1 .73-1.25l9.11-4.5a2 2 0 0 0 1.15-1.68v-7.22c2.52-1.68 3.98-4.5 4.4-8.38l4.71-4.92c1.57-.63 2-2.51 3.88-2.4.41 0 .62 0 .83-.22.74-.84.95-1.78.74-2.93a1.27 1.27 0 0 0-.87-.92 1.26 1.26 0 0 0-1.23.3c-.31.41-.73.41-1.04 0-.21-.11-.32-.53-.21-.95a4.19 4.19 0 0 0-1.05-3.87l-1.05-1.26c-1.04-2.93-3.98-3.14-6.49-3.87-.42 0-.73-.32-.84-.74l-.2-.73c3.13-.42 5.54.42 7.32 2.4l4.92 5.77c.21.31.53.52 1.05.52h16.75a1.38 1.38 0 0 0 1.05-.52c3.66-4.71 7.54-9.11 11.52-13.4a6.12 6.12 0 0 0 1.46-2.83c.21-.42.42-.63.73-.84a5.23 5.23 0 0 0 2.52-3.14l4.7-21.36a.42.42 0 0 1 .29-.66.42.42 0 0 1 .47.35c.01.07 0 .14-.02.2l5.97 8.6c.31.52.52 1.04.52 1.77v27.22c0 .53-.2.95-.52 1.26l-25.23 24.08c-.42.42-.63.84-.63 1.26l-5.24 25.96c0 .42-.2.84-.62 1.05-4.5 3.87-8.9 8.16-13.2 13.09-.31.31-.73.31-1.04 0l-5.03-4.2a2.1 2.1 0 0 1-.73-1.35 13.78 13.78 0 0 0-5.13-9.43l-1.15-.52-5.03-.31v.1Zm54.03-69.1c-.42 1.05-.42 2.62 0 4.6.52 2.63.2 5.35-.95 8.38a1.05 1.05 0 0 1-.73.53l-3.14 1.15c-.53 0-.73.31-.73.84 0 1.04.41 3.14-.42 4.19-.32.3-.63.41-.95.52-.43.16-.8.45-1.04.84l-.53 1.88c-.83 2.1-.2 2.62 1.78 1.78l2.1-1.36.52-1.05c.53-1.67.84-3.35 1.89-4.7a18.68 18.68 0 0 0 4.18-11.53c0-.52.21-.83.53-1.15l1.78-1.36c.31-.31.52-.63.63-1.05l1.15-6.17a3.87 3.87 0 0 0 1.57-3.14c0-.42-.32-.63-.84-.42-.84.42-1.47 1.25-1.78 2.62a1.04 1.04 0 0 1-.45.68 1.05 1.05 0 0 1-.8.15c-.2-.02-.38-.09-.53-.2l-1.05-1.05c-.41-.42-.63-.32-.83.31l-1.36 4.82v-.1Zm-40.1 77.58a2 2 0 0 1 0-1.67 8.38 8.38 0 0 0 1.15-4.4c.2-1.88-.21-1.99-1.05-.31a12.13 12.13 0 0 0-1.05 7.32c0 1.05.63 1.68 1.47 2.1.63 0 1.05.31 1.26.84l1.04 1.04h1.05a16.55 16.55 0 0 0 3.35-3.24c1.67-2.3.31-4.61-.42-6.8-.31-.74-.52-.74-.84 0-.41 1.46-.52 3.66-2.4 4.08-.42 0-.63.3-.84.52-.32.42-.42.73-.42 1.04 0 .32-.21.53-.52.74-.63.31-1.26 0-1.78-1.26Z" fill="#F0F0F0"/><path d="M189.71 156.66c2.2-1.99 4.19-3.97 5.65-6.28a6.9 6.9 0 0 0 1.26-4.19c-.03-1.7.04-3.42.21-5.13a.85.85 0 0 0-.53-.51.83.83 0 0 0-.73.1c-2.4 1.04-4.6 1.36-6.28.73v-20.94c.94-4.13.97-8.42.1-12.56.11-.53.32-.53.64-.1l7.43 10.15c.52.73.84 1.57.84 2.4v27.75c-.01.73-.27 1.43-.74 1.99l-7.12 8.69c-.31.42-.63.31-.83-.21a2.9 2.9 0 0 1 0-1.89h.1Z" fill="#FDFDFD"/><path d="M189.71 109.34c.5 3.74.32 7.53-.52 11.2l.52-11.2Z" fill="#C9CACE"/><path d="M158.4 114.37c.22-1.05.74-2.1 1.47-2.73.53-.52.63-.41.53.21l-.63 2.83c0 .42-.21.73-.74.84h-.83c-.53-.1-.63-.42-.21-.73l.31-.32v-.1h.1Z" fill="#7E7B7D"/><path d="M35.7 113.53c1.26 0 2.1.42 2.52 1.05.41.52.52 1.04.2 1.57a7.95 7.95 0 0 1-8.69 4.18c-1.88-.31-3.45-1.36-4.92-2.09a.63.63 0 0 0-.77-.1.62.62 0 0 0-.27.73 4.92 4.92 0 0 0 3.77 4.19c9 2.82 14.76-.95 17.38-11.2.94 1.46.52 3.76-1.26 6.8-2.93 5.23-7.33 7.54-12.98 6.9-5.34-.52-8.38-3.66-7.96-9a2.2 2.2 0 0 1 3.14-1.88l3.67 1.36c.41.21.83.21 1.25 0l4.92-2.62v.1Z" fill="#FDFDFD"/><path d="M44.81 111.85c-2.51 10.26-8.27 14.03-17.27 11.2a4.92 4.92 0 0 1-3.67-4.5.63.63 0 0 1 .58-.46c.09 0 .18.01.26.05 1.57.73 3.14 1.88 4.92 2.09 3.87.63 6.8-.73 8.69-4.08.42-.53.42-1.05 0-1.57-.52-.63-1.36-1.05-2.62-1.26l9.22-1.47h-.1Z" fill="#C9CACE"/><path d="M30.26 132.48c-5.76 1.36-10.26-1.05-13.61-7.02-.1-.31-.32-.31-.63 0-.31.53-.42 1.05-.21 1.58 1.88 8.06 7.96 11.51 18.22 10.78a10.47 10.47 0 0 1-12.88-.53c-6.6-5.02-9-12.03-7.12-20.93 0-.42.21-.63.63-.95a4.43 4.43 0 0 1 2.1-.52c.41 0 .62.31.62.84-.1 8.48 4.19 14.13 12.88 16.75Z" fill="#F0F0F0"/><path d="M180.5 120.86c-2.52 3.14-4.6 4.5-6.18 3.77l1.47-5.03c.2-.42.42-.42.83 0l1.05.94a1.04 1.04 0 0 0 1.05.1 1.05 1.05 0 0 0 .73-.62c.31-1.47.94-2.3 1.78-2.72.52-.21.84 0 .84.52a3.6 3.6 0 0 1-1.57 3.14v-.1Z" fill="#565555"/><path d="M67.95 126.4c-1.57.84-3.14 2.1-4.4 3.46-.63.73-.73.63-.52-.2a10.86 10.86 0 0 1 5.76-6.4c9-4.7 16.75-2.61 23.24 6.18a.62.62 0 0 1 0 .63l-.42.31h-.1c-7.02-7.11-14.87-8.37-23.56-3.97Z" fill="#F0F0F0"/><path d="m180.5 120.86-1.15 6.28c0 .31-.32.63-.53.94l-1.88 1.47c-.32.2-.53.52-.53 1.04-.1 4.4-1.57 8.28-4.18 11.52-1.26 1.47-1.36 3.04-1.89 4.71-.07.4-.25.76-.52 1.05l-2.1 1.15c-2.09 1.05-2.61.52-1.78-1.47l.63-1.98c.25-.4.62-.69 1.05-.84.31 0 .63-.1.84-.52.83-1.05.42-3.15.42-4.2 0-.52.2-.73.62-.83l3.15-1.05c.41-.1.62-.31.83-.73 1.15-2.93 1.47-5.65.84-8.17-.42-2.1-.42-3.56 0-4.6 1.57.73 3.66-.53 6.28-3.77h-.1Z" fill="#C9CACE"/><path d="M136.42 135.41a10.47 10.47 0 0 0 12.88 7.22 10.47 10.47 0 0 0 6.8-13.08 10.46 10.46 0 0 0-12.88-7.33 10.47 10.47 0 0 0-6.8 13.19Z" fill="#FDFDFD"/><path d="m30.26 132.48 7.22.84c.42 0 .63.31.42.83-.73 2.41-2.1 3.67-3.87 3.67-10.26.84-16.34-2.72-18.22-10.78-.2-.53 0-1.05.21-1.58.31-.31.52-.31.63 0 3.35 5.97 7.85 8.38 13.6 7.02Z" fill="#C9CACE"/><path d="M116.32 137.6c-.42.64-.84.85-1.26.74-.52-.31-.63-1.05-.2-2.51l-1.05.63a.62.62 0 0 1-.53.2c-.52 0-.73-.3-.52-.83a45 45 0 0 0 6.8-8.38 7.38 7.38 0 0 1 2.94-2.3c.41 0 .41 0 .31.42l-6.5 12.04Z" fill="#7E7B7D"/><path d="M60.3 137.3c-3.55-.32-6.9-1.68-10.25-3.98-.32-.21-.63-.21-.84 0a8.27 8.27 0 0 0-1.89 5.75 88.36 88.36 0 0 0 3.77 16.76c2.93 9.42 7.54 21.46 13.93 36.01 3.77 8.8 9.1 17.8 16.12 27.01h-.94l-1.36-.73c-8.38-7.33-14.87-15.28-19.37-23.87a294.24 294.24 0 0 1-11.73-25.76c-1.04-2.5-1.46-2.5-1.25.21a90.57 90.57 0 0 0 11.93 38.32 61.1 61.1 0 0 0 15.92 18.01c9 6.8 19.89 11 32.45 12.46-7.12 1.36-14.55 0-22.3-4.19a68.88 68.88 0 0 1-36.01-45.54 178.82 178.82 0 0 1-5.76-46.49 27.54 27.54 0 0 1 3.98-14.45.73.73 0 0 1 1.04.22 23.16 23.16 0 0 0 2.93 4.18c.95 1.05 2.3 2.1 4.2 3.04 1.88.84 3.66 1.78 5.44 2.93v.1Z" fill="#F0F0F0"/><path d="M86.58 131.75c-1.36-.1-3.03-.74-5.02-1.89-1.26-.63-3.25-.84-5.86-.42l-5.34.74c5.23-4.5 10.57-3.98 16.02 1.57h.2Z" fill="#C9CACE"/><path d="M86.58 131.75c1.05 1.78-.3 3.45-3.76 4.92-4.4 2.1-9.11 1.46-14.35-1.78-1.25-.84-1.36-1.78-.2-2.93l2.09-1.89c1.78-.1 3.56-.31 5.23-.63 2.72-.42 4.6-.31 5.86.42 2.1 1.05 3.77 1.78 4.93 1.89h.2Z" fill="#FDFDFD"/><path d="M102.29 137.92c.31 10.9 0 21.99-.73 33.09 0 .73-.21.73-.63 0l-1.15-3.25c0-.42-.32-.63-.74-.63h-2.5c1.04-2.1.83-3.35-.43-3.87a42.3 42.3 0 0 0 .42-18.85 5.76 5.76 0 0 0-1.57-2.93l-2.51-2.1c.84-1.14 1.88-1.46 3.24-.83 1.68.84 2.1 2.3 1.47 4.5-.1.63 0 .74.42.21.42-.63.63-1.15.63-1.78.28-2.95.74-5.89 1.36-8.8a.63.63 0 0 1 .42-.1h.31l.31.32c.63.42.84 1.04.74 1.67-.1 1.89.2 3.04.94 3.35Z" fill="#F0F0F0"/><path d="M60.3 137.3c1.05.2 2.73 1.25 5.14 3.14.42 1.67 1.25 2.61 2.3 2.82.31 0 .63.21 1.05.53 1.04.73 1.46 1.15 2.82 1.36 4.92.52 8.8.52 11.52 0 1.88-.32 3.56-1.47 5.03-3.46a9.42 9.42 0 0 0 4.18-2.3l2.62 2.3c.8.75 1.36 1.75 1.57 2.83a43.96 43.96 0 0 1-.42 18.84c-7.75 7.12-8.16 14.14-1.25 20.94l5.65 6.28c-4.19 1.05-7.12 2.62-9.1 4.82l-.74.53c-.63 0-.84-.22-.73-.63 0-.42-.21-.84-.63-1.26l-.95-.2a3.45 3.45 0 0 0-3.14 2.71c0 .42 0 .84.32 1.26l2.1 3.35c.1.42.52.42.93 0 2.94-2.83 7.54-3.87 13.82-3.14 1.36.2 2.62.73 3.67 1.67a1.36 1.36 0 0 1 .52.95l.21 4.92a.73.73 0 0 1-.63.73c-4.34.87-8.84.36-12.87-1.47a.42.42 0 0 0-.42.32l.1.31c0 .21.1.32.42.53-.52.52-.84.83-.84 1.25.32 2.62 1.89 4.82 4.92 6.8a14.27 14.27 0 0 1 8.59-1.35c.31 0 .52.2.52.62v16.44a29.84 29.84 0 0 1-25.44-10.89 130.42 130.42 0 0 1-16.12-27c-6.28-14.67-11-26.6-13.93-36.13a79.47 79.47 0 0 1-3.77-16.75 7.7 7.7 0 0 1 1.89-5.44c.2-.42.52-.42.84-.21 3.35 2.3 6.7 3.66 10.26 3.97Z" fill="#FDFDFD"/><path d="M112.76 135.72c-.21.53 0 .84.52 1.05l.32-.1.31-.21.84-.74.1.1c-.42 1.37-.31 2.2.42 2.52.21.1.63-.1 1.15-.73.6 5.05.52 10.15-.2 15.18a5.94 5.94 0 0 1-2.52-3.56c0-.63-.31-.73-.84-.42-.2.21-.52.21-1.04.1v-12.87c.42 0 .73 0 .94-.32Z" fill="#C9CACE"/><path d="M88.26 141.7a9.21 9.21 0 0 1-5.03 3.55c-2.82.53-6.7.53-11.62 0-1.36-.31-1.78-.73-2.82-1.46a2.82 2.82 0 0 0-1.16-.53c-1.04-.2-1.77-1.15-2.2-2.72l-1.25-2.51c-1.05-2.1-.52-2.52 1.57-1.47 7.64 4.09 15.08 4.19 22.3.42 3.35-1.67 3.98-1.05 1.68 2.1l-1.47 2.61Z" fill="#F0F0F0"/><path d="m124.59 138.66.31.62c0 .42.32.63.84.74 2.51.63 5.45.83 6.39 3.87a10.63 10.63 0 0 1-1.78 4.3.63.63 0 0 0 0 .73l.2.42a.26.26 0 0 0 .45.18.26.26 0 0 0 .08-.19l2.1-4.18a4.2 4.2 0 0 1 1.04 3.87c0 .42 0 .84.32 1.05.31.31.73.31 1.25 0a1.25 1.25 0 0 1 1.47 0c.2.2.31.31.31.52.32 1.05 0 2.1-.73 2.93-.1.21-.42.32-.73.21-2-.2-2.41 1.78-3.98 2.3a5.18 5.18 0 0 1-.21-2.93 1.05 1.05 0 0 0-.63-1.15l-.42-.31a.63.63 0 0 0-.94.52l-.42 3.46c0 .41-.31.63-.84.73a4.92 4.92 0 0 1-3.66-.21c-.53-.31-.84-.1-1.05.31a3.64 3.64 0 0 0 .21 3.98c.52 1.05 1.68 1.26 3.35.63-.42 3.88-1.88 6.7-4.19 8.38v-30.37c0-.41.21-.62.74-.62l.52.1v.1Zm1.88 12.56a20.85 20.85 0 0 1 2.52-7.01 1.05 1.05 0 0 0 0-1.05v-.32c-.32-.31-.63-.31-1.05 0-1.67 1.37-1.05 2.62-1.36 4.5l-1.15 5.56a.52.52 0 0 0 .31.62c.21 0 .42 0 .63-.2.2-.22.42-.42.42-.63l-.21-.63v-.84h-.1Zm63.24 5.44-.52-15.28c1.78.63 3.97.31 6.6-.73a.83.83 0 0 1 1.04.41c.1.1.2.32.1.42-.2 1.57-.31 3.14-.2 4.71 0 1.47-.42 2.83-1.37 4.2a35.3 35.3 0 0 1-5.65 6.27Zm-161.23-.63.31-.94c0-.42-.2-.63-.63-.73a12.05 12.05 0 0 1-8.48-8.27c-.1-.42-.41-.52-.83-.21l-.32.73a8.17 8.17 0 0 1 0-3.45c0-.42.32-.63.84-.63 1.57.1 2.83.94 3.77 2.2a96.05 96.05 0 0 0 9.56 10.62.52.52 0 0 1-.77.69h-3.56.1Z" fill="#C9CACE"/><path d="M126.58 152.06v.63a.84.84 0 0 1-.84.83.52.52 0 0 1-.52-.42v-.2c.52-1.68.94-3.56 1.25-5.55.53-1.89-.2-3.14 1.47-4.61.42-.21.73-.21 1.05.1v1.47a20.3 20.3 0 0 0-2.52 6.9v.85h.1Z" fill="#7E7B7D"/><path d="m132.13 144 1.05 1.04-2.1 4.19v.21a.2.2 0 0 1-.2.2.21.21 0 0 1-.16-.05.21.21 0 0 1-.06-.15v-.1l-.31-.42a.63.63 0 0 1 0-.74 13.35 13.35 0 0 0 1.88-4.29v.1h-.1Z" fill="#565555"/><path d="M28.37 156.03c-5.44-1.46-8.69-4.6-9.84-9.42l.32-.73c.42-.31.73-.2.83.2 1.37 4.3 4.2 7.02 8.59 8.38.31 0 .52.21.52.63 0 .32-.1.63-.42.94Z" fill="#F0F0F0"/><path d="M116.21 152.79c0 .52 0 1.05.21 1.68-1.04 0-1.67-.21-1.78-.84a5.86 5.86 0 0 0-2.72-3.35c.42 0 .42-.42 0-1.26.42 0 .73 0 1.05-.2.42-.32.73-.22.94.41.42 1.78 1.15 2.93 2.4 3.56h-.1Z" fill="#565555"/><path d="M152.65 161.58a48.37 48.37 0 0 1-16.44 8.17c-.31.1-.63 0-.73-.42l-.73-2.4a1.05 1.05 0 0 1 0-1.26 1.05 1.05 0 0 1 1.04-.42c2.1.31 4.19.31 6.28 0 .42 0 .84-.31 1.05-.63a15.7 15.7 0 0 0 3.14-10.36l.32-.63.83-1.89c.1-.31 0-.52-.31-.84-.31-.2-.31-.52 0-.83l.52-.21c.74 0 1.15.2 1.26.73v.63c-.84 2.3-1.47 4.6-1.99 6.8-.21.42 0 .84.42 1.05l4.19 2.51c.41.21.73.1 1.04-.31.42-.52.63-1.15.63-1.88 0-.42.21-.74.53-.84.48-.12.98-.12 1.46 0 .42 0 .84-.21 1.05-.42l5.86-6.5c.1-.1.21-.1.42 0v.43l-2.2 3.66c-.42.84-.2 1.05.63.63h.73c.42.2.42.42 0 .73a9.95 9.95 0 0 0-3.14 5.34 3.45 3.45 0 0 1-2.1 2.52c-.73.2-.94 0-.52-.53.32-.52.53-1.05.42-1.57 0-.52-.31-.73-.84-.63-1.15.21-2.09 0-3.03-.63h.2Zm-40.73-11.4a5.99 5.99 0 0 1 2.51 3.34c.32.63.95 1.05 1.89.84.63 3.14.63 6.18 0 8.9 0 .2 0 .31-.21.31s-.42-.1-.52-.41l-.21-1.05c-.21-.63-.53-.84-1.26-.74-.84.11-1.68 0-2.4-.52l.2-10.68Z" fill="#C9CACE"/><path d="M176.41 171.74c-2.18 9.7-4.8 19.32-7.85 28.8a1.05 1.05 0 0 1-.84.3 33.07 33.07 0 0 1-10.15-8.9v-.73l3.56-16.75c.2-1.25.84-2.4 1.67-3.45 6.8-7.23 13.4-13.82 19.9-19.69.73-.73 1.15-.52 1.15.63v9.84c0 1.05-.32 1.78-1.05 2.52l-5.65 6.07-.74 1.36Zm-6.9-4.5a30.91 30.91 0 0 1-3.77 3.45c-1.16.84-1.89 1.57-2.1 2.2a3.77 3.77 0 0 0 0 3.35c-1.15 1.26-1.36 2.41-.42 3.35.21.32.21.73 0 1.05l-1.46 2.1a4.53 4.53 0 0 0-1.26 3.97c0 .31.31.63.73.73 1.16 0 2.3-.2 3.35-.52.95.63 1.68.94 2.3.84 2.73-.84 4.3-2.41 4.82-4.71.1-.53 0-.84-.52-.84a5.11 5.11 0 0 1-2.4-1.36c-.22-.21-.32-.53-.22-1.05a9.43 9.43 0 0 1 5.03-7.33.73.73 0 0 0 .31-.84l-.31-.3a4.51 4.51 0 0 1-2.41-2.73c.2-1.68 1.05-3.14 2.51-4.6 1.05-.84 1.05-1.06-.31-.74-1.78.63-3.04 1.88-3.88 3.98Z" fill="#F0F0F0"/><path d="m132.13 156.03-4.6 4.93c-1.68.73-2.84.52-3.36-.53a3.76 3.76 0 0 1-.31-3.98c.31-.41.73-.62 1.25-.31 1.05.52 2.3.63 3.77.21.32 0 .53-.31.63-.73l.42-3.46a.63.63 0 0 1 .63-.52h.31l.42.31a1.05 1.05 0 0 1 .63 1.15c-.21 1.26-.1 2.2.31 2.94h-.1Z" fill="#7E7B7D"/><path d="M31.72 160.96a96.34 96.34 0 0 1 5.34 12.56 4.6 4.6 0 0 0 3.56 3.14c.32.52.32.94.21 1.26a.52.52 0 0 1-.7.4.52.52 0 0 1-.24-.2 14.86 14.86 0 0 1-5.23-5.96 39.58 39.58 0 0 1-2.94-11.2Z" fill="#F0F0F0"/><path d="M31.72 160.96c4.72 1.46 7.33 3.45 7.54 6.07l1.26 9.63a4.83 4.83 0 0 1-3.46-3.14c-1.67-4.4-3.45-8.59-5.23-12.56h-.1Z" fill="#C9CACE"/><path d="M152.65 161.58c-.84 1.68-2.41 3.14-5.03 4.4-3.6 1.98-7.3 3.76-11.1 5.34-.52.31-.73.94-.62 1.78-.84.73-1.47 1.99-2 3.46-.2.62-.62 1.04-1.04 1.46-.52.32-.73.21-.52-.42a14.39 14.39 0 0 1 2.4-4.92c.21-.42.11-.73 0-1.05a2.1 2.1 0 0 0-2.2 0l-2.5 1.26c0 .21-.11.21-.22 0l-.1-.42v-.31l3.56-2.4c.31-.43.42-.95.42-1.47l1.05-1.37.73 2.41c.1.42.42.52.73.42a45.66 45.66 0 0 0 16.23-8.17h.2Z" fill="#565555"/><path d="M171.18 168.6c-.84.42-1.47 0-1.78-1.36.94-2.1 2.2-3.35 3.98-3.98 1.25-.42 1.46-.21.31.73a8.06 8.06 0 0 0-2.72 4.6h.2Z" fill="#7E7B7D"/><path d="M147.62 165.98c0 1.26.84 1.78 2.72 1.47.84 0 .84.2.1.42a5.23 5.23 0 0 0-2.92 2.72.73.73 0 0 1-.74.42h-.2c-2.73-1.47-4.5-.84-5.24 1.88a21.24 21.24 0 0 0-.73 3.88v.1h-.32l-.31-3.46v-.2h-.21l-3.87-.1c0-.85.2-1.48.73-1.79a219.2 219.2 0 0 0 11.1-5.23l-.1-.1Zm-66.48 52.87c6.18 7.54 14.66 11.2 25.55 10.9v7.74a62.19 62.19 0 0 1-48.16-30.36 88.78 88.78 0 0 1-12.04-38.43c-.21-2.72.1-2.72 1.25-.2a252.6 252.6 0 0 0 11.73 25.75 81.77 81.77 0 0 0 19.37 23.87c.42.31.94.52 1.36.52l.94.21Zm88.36-51.61c.32 1.36.74 1.78 1.47 1.36a5.02 5.02 0 0 0 2.51 2.72.75.75 0 0 1 .4.45.73.73 0 0 1-.08.6l-.21.2a9.32 9.32 0 0 0-5.03 7.34c0 .41 0 .73.21.94a3.15 3.15 0 0 0 2.51 1.25c.42 0 .53.42.42 1.05-.52 2.2-2.1 3.77-4.92 4.6-.42-1.04-.63-2.09-.31-2.82.1-.42.42-.52.84-.52.83 0 1.36-.32 1.78-1.05v-.31a.64.64 0 0 0-.32-.42h-.2c-2.73.1-4.1 1.57-3.99 4.19-1.04.42-2.1.52-3.35.42-.42 0-.63-.22-.73-.53a4.53 4.53 0 0 1 1.26-3.98c1.04 0 1.88-.42 2.4-1.04.42-.42.53-.84.53-1.37 0-1.04.63-1.98 1.78-2.61.84-.32.84-.74 0-1.05h-.53c-.62-.2-.62-.63-.2-1.05l4.92-3.14h.1c.21-.31 0-.52-.2-.63a1.04 1.04 0 0 0-.74-.1c-2.52.8-4.72 2.38-6.28 4.5a3.99 3.99 0 0 1 0-3.35 6.52 6.52 0 0 1 2.09-2.1 24.7 24.7 0 0 0 3.77-3.55h.1Zm-35.8 1.04c0 .53 0 1.05-.42 1.37l-3.46 2.5c-.2.11-.2.22-.1.32l.1.42c0 .21.1.21.42 0a7.65 7.65 0 0 1 2.41-1.36c.73-.31 1.26-.2 1.89.21.31.2.41.52.2 1.05a14.87 14.87 0 0 0-2.4 4.81c-.21.63 0 .74.42.42a2.9 2.9 0 0 0 1.25-1.46c.53 2.4.1 4.7-1.25 6.8-.1.21-.42.31-.74.21l-.2-.1a.42.42 0 0 1 0-.53l.1-.52c0-.31-.1-.52-.32-.73l-1.04-.42a23.67 23.67 0 0 0-7.12 5.44 7.85 7.85 0 0 0-2.41 4.4c-.73.94-1.05 1.78-.73 2.51l-4.92-.1c.52-.74.31-1.36-.63-2.1-.42-.31-.42-.63 0-.94a24.28 24.28 0 0 1 3.14-2.72c2.62-1.57 3.87-4.6 5.23-7.33.95-2.1 2.73-3.14 3.67-5.55.1-.42 0-.84-.42-1.15-.84-.52-1.26-1.36-1.26-2.51 0-.63.42-.74.84-.21l.63.52c.2.21.42.21.52.21.21 0 .42 0 .63-.21l5.97-3.25Z" fill="#C9CACE"/><path d="m161.76 182.63 1.46-1.89c.21-.42.21-.73 0-1.04-.84-1.05-.73-2.1.42-3.46a11.52 11.52 0 0 1 6.18-4.5h.73c.31.2.42.42.21.73h-.1a32.9 32.9 0 0 0-4.92 3.14c-.42.42-.42.74.2.95h.42c.84.41.84.83 0 1.25a3.15 3.15 0 0 0-1.67 2.62l-.32 1.26a3.4 3.4 0 0 1-2.5 1.04h-.11v-.1Z" fill="#565555"/><path d="M106.8 176.03v1.89c-.22.42-.43.52-.85.31-2.5-1.47-4.7-3.35-7.64-2.83-1.67.21-3.35.74-5.13 1.57 2.83-4.6 7.33-4.92 13.61-.94Z" fill="#C9CACE"/><path d="M130.66 181.27a47.1 47.1 0 0 1-9.63 9.84 8.38 8.38 0 0 1 2.4-4.6c2.31-2.31 4.72-4.2 7.13-5.24h.1Zm36.23 6.49c-.63.2-1.36-.1-2.3-.84 0-2.72 1.35-4.19 3.97-4.3.16.02.31.1.42.22a.64.64 0 0 1 0 .52c-.31.84-.84 1.15-1.67 1.05-.42 0-.74.2-.84.63-.32.73-.1 1.67.42 2.72Z" fill="#7E7B7D"/><path d="M94.75 184.2h7.33c.31 0 .63.2.84.63l3.45 7.01a11.52 11.52 0 0 0-5.86-1.36l-5.76-6.28Z" fill="#F0F0F0"/><path d="M106.37 191.84c.32.53.42 1.05.21 1.68 0 .41-.31.63-.73.41-2.51-.62-4.3-1.25-6.8-.41a62.34 62.34 0 0 1-7.65 1.78c1.99-2.1 5.03-3.77 9.1-4.82 2.05-.07 4.07.4 5.87 1.36Zm27.96 10.26c.52 1.15 1.15 1.57 1.78 1.26.31-.21.41-.42.52-.74 0-.3.1-.62.42-1.04.2-.32.52-.53.94-.53 1.78-.41 1.88-2.61 2.51-4.18.1-.63.32-.63.63 0 .73 2.3 2.1 4.6.42 6.7a10.25 10.25 0 0 1-3.35 3.35c-.31.2-.63.2-1.05 0a2.51 2.51 0 0 1-1.04-1.05c-.32-.42-.74-.73-1.26-.73a2.76 2.76 0 0 1-1.57-2.1c-.31-2.72 0-5.23 1.26-7.32.83-1.68 1.15-1.57 1.04.3a10.49 10.49 0 0 1-1.15 4.4 1.97 1.97 0 0 0-.1 1.68Z" fill="#C9CACE"/><path d="m134.33 214.88-7.02-6.5c-1.67-1.57-3.45-1.57-5.65-1.57h-9.42c-.32 0-.42-.1-.42-.52v-7.33c0-.31 0-.42.31-.42l9.63.21c3.14 0 5.03 3.14 5.03 5.97a3.14 3.14 0 0 0 1.04 2.72l7.02 6.8a.53.53 0 0 1 .05.42.51.51 0 0 1-.26.32h-.31v-.1Zm7.01-1.89 14.34-13.5a1.26 1.26 0 0 1 1.57 0l7.86 6.59a1.25 1.25 0 0 1 .27 1.37c-.06.16-.16.3-.27.41l-22.4 20.63a1.26 1.26 0 0 1-2-.84l.21-13.61c0-.42.21-.63.42-.94v-.11Zm1.88 1.26c-.2.15-.36.37-.41.63l-.63 9a1.05 1.05 0 0 0 1.78.84l18.32-16.75a1.05 1.05 0 0 0 .2-1.26c-.03-.16-.1-.3-.2-.42l-5.44-4.19a1.05 1.05 0 0 0-1.26 0l-12.36 12.15Z" fill="#F0F0F0"/><path d="m143.22 214.04 12.36-11.94a1.04 1.04 0 0 1 1.26 0l5.44 4.19a1.04 1.04 0 0 1 .3 1.3c-.06.15-.17.28-.3.38l-18.32 16.75a1.04 1.04 0 0 1-1.19.2 1.05 1.05 0 0 1-.6-1.04l.64-9c0-.32.2-.53.41-.74v-.1Zm-49.83-8.06 4.92 2.72c.31.1.31.42 0 .73a5.34 5.34 0 0 0-.84 4.6c-3.03-1.98-4.6-4.18-4.81-7 0-.22.2-.64.73-1.16v.1Zm-20.83 44.7c.41-2.1.31-3.66-.32-4.6a663.72 663.72 0 0 1-18.63-29.84c-.74-1.26-1.16-1.16-1.37.2l-.94 6.5.21-13.4c0-1.05.21-1.05.63 0 .63 1.25.73 2.5 1.68 3.56l7.32 11.62a101.45 101.45 0 0 0 35.91 34.02c1.47.84 1.37 1.05-.2.84a73.33 73.33 0 0 1-24.3-8.69v-.2Z" fill="#C9CACE"/><path d="m119.67 212.68-3.14 3.66c-.21.42-.21.73.2 1.05 1.05.52 1.47 1.88 1.05 3.14-.73 2.4-2.61 3.77-5.34 4.19V213.2c0-.52.21-.73.74-.73l6.49.2Z" fill="#F0F0F0"/><path d="M119.67 212.68h3.45c2.52.2 3.77 1.36 5.34 3.14-.31-.21-.63-.21-.83 0-.32.31-.32.63 0 .73h-.42l-.32.1-.31.32a26.49 26.49 0 0 1-12.88 11.52c.84.83 1.26 1.56 1.26 2.3 0 .42-.21.63-.73.63-1.05 0-1.79.42-2.1 1.25l.31-8.06c2.73-.31 4.61-1.67 5.34-4.08.42-1.26 0-2.41-1.04-3.14-.42-.32-.42-.63-.1-1.05l3.13-3.66h-.1Z" fill="#C9CACE"/><path d="m155.06 226.81.41.52c.32.32.42.74.42 1.26l.42 10.89c0 1.15.42 1.36 1.26.52l1.15-1.25a4.17 4.17 0 0 0 1.78-3.15l.63-16.54 4.92-5.23c.42-.42.63-.42.73.31.63 4.92.84 10.16.63 15.81-.2 4.08-9.21 11.83-12.35 14.45a.52.52 0 0 1-.42 0 .53.53 0 0 1-.32-.31l.74-17.28Zm-82.5 23.87a63.86 63.86 0 0 1-19.27-16.65 9.1 9.1 0 0 1-1.88-4.81v-6.28l.83-6.5c.21-1.36.63-1.46 1.26-.2a578.03 578.03 0 0 0 18.53 29.83c.73.95.84 2.52.53 4.82v-.2Zm55.9-34.97 5.97 5.66c.31.41.42.83.42 1.25.42 2.62.52 5.34.2 8.17 0 .42-.2.84-.62 1.25-3.03 2.62-6.7 5.97-11.2 6.29l-10.37.31a.72.72 0 0 1-.73-.73v-5.24c.31-.83 1.05-1.25 2.1-1.25.41 0 .73-.21.73-.63 0-.84-.42-1.57-1.26-2.3a22 22 0 0 0 9.42-3.98 1.25 1.25 0 0 1 1.05-.21c1.78.52 3.77.63 5.86.2 1.26 1.37 1.37 3.57.42 6.4v.3a.63.63 0 0 0 .53.64h.31c.73 0 1.05-.21 1.36-.74a10.26 10.26 0 0 0 0-8.8 4.4 4.4 0 0 0-1.67-1.67c-.79-1.6-1.94-3-3.35-4.08-.32-.1-.32-.42 0-.73.2-.21.52-.21.83 0v-.1Z" fill="#F0F0F0"/><path d="M127.52 216.55a13.6 13.6 0 0 1 3.46 4.19c-.95 0-1.78.1-2.52.52-.42.31-.52.63-.52 1.05.31 1.25 1.05 1.78 2.1 1.46-.42.84-.42 1.05 0 .74-2.1.42-4.09.42-5.87-.1a1.26 1.26 0 0 0-1.05.1 22 22 0 0 1-9.42 3.98 25.86 25.86 0 0 0 13.2-11.84h.73l-.1-.1Z" fill="#7E7B7D"/><path d="m161.02 219.06-.62 16.44c0 1.36-.53 2.4-1.47 3.35l-1.26 1.26c-.94.73-1.36.52-1.36-.63l-.42-11c0-.41-.1-.83-.41-1.25l-.42-.42c0-2.62 2.09-5.24 6.07-7.75h-.1Z" fill="#C9CACE"/><path d="m130.98 220.63 1.67 1.68c-1.25-.42-2.1 0-2.62 1.46-1.04.32-1.78-.2-2.09-1.46 0-.42.2-.74.52-1.05a4.97 4.97 0 0 1 2.52-.63Z" fill="#565555"/><path d="M132.76 222.3a10.26 10.26 0 0 1 0 8.8c-.32.53-.74.74-1.36.74h-.42a.63.63 0 0 1-.52-.94c1.04-2.83.83-5.03-.43-6.4-.31.32-.31 0 0-.73.53-1.36 1.37-1.88 2.52-1.46h.2Z" fill="#C9CACE"/><path d="M148.98 230.26c-.52 0-.83.21-.94.63l-1.46 17.8c0 .53.31.84.73.84.52 0 .84-.21.84-.63l1.57-17.8c0-.52-.32-.84-.74-.84Z" fill="#F0F0F0"/><path d="M561.33 140.33v62h21.34v-9.6l4.4 3.87c12.13 10.67 35.86 8.8 48.93-3.87 7.6-7.46 11.2-17.2 11.73-31.33.67-16.53-1.86-24.93-10.66-34.53-13.2-14.4-36.8-17.07-49.74-5.6l-4.66 4V78.33h-21.34v62Zm54.67-4.4c6.27 4.27 9.07 8.8 10.53 16.4C630 171 620.27 185 604 185c-9.2 0-15.07-3.47-19.73-11.33-2.54-4.54-2.94-6.8-2.67-16 .4-11.87 3.2-17.34 10.93-22.14 6-3.73 17.74-3.46 23.47.4ZM658.67 140.33v62H680v-124h-21.33v62ZM696.53 81.13c-3.86 4.27-3.46 15.34.67 18.67 4.53 3.73 12.8 3.33 16.8-.8 4.27-4.13 4.53-12.13.53-17.2-2.26-2.93-3.86-3.47-9.06-3.47-4.8 0-7.07.67-8.94 2.8ZM302 116.87a30.76 30.76 0 0 0-9.07 6.66l-3.6 4.4v-12.26H268v86.66h21.33V174.6c0-30.27.8-33.87 8.27-39.33 5.33-4 14.67-3.6 19.2.53 6.53 6 7.2 9.6 7.2 39.2v27.33h21.2l.4-29.86.4-30 3.87-4c6.93-7.2 16.66-8.14 23.33-2.27 6.13 5.47 6.8 9.47 6.8 38.8v27.33h21.33V172.6c0-33.33-1.2-40.27-8.13-48.13-2.13-2.54-6.67-6-10-7.6-12-5.74-31.2-1.2-39.07 9.06-2.66 3.6-2.8 3.6-4.4 1.07-6.66-11.33-24.53-16.13-37.73-10.13ZM433.6 116.87c-9.6 3.33-18.4 12-20.93 20.66-1.07 3.6-2 6.8-2 7.07 0 .27 4.13.4 9.33.4h9.33l1.87-4.67c2.67-6.13 9.2-10 17.2-10 11.2 0 16.93 4.67 16.93 13.74 0 5.86-1.06 6.26-16.66 6.26-15.34 0-25.2 3.2-31.2 10-10.8 12.27-7.47 32.27 6.66 39.34 11.74 6.13 28.27 4.53 36.54-3.34l4.66-4.26v10.26h21.34v-30.4c0-17.73-.67-32.53-1.47-35.6-2.13-7.6-12.4-17.2-21.33-19.86-9.34-2.8-21.6-2.67-30.27.4Zm31.73 51.46c0 5.6-2.4 10.8-7.2 15.2-2.66 2.54-5.33 3.47-11.33 3.87-7.2.53-8.27.27-11.33-2.8-4.14-4.13-4.67-11.2-1.07-15.6 2.93-3.6 8.8-5.07 21.33-5.2l9.6-.13v4.66ZM748 115.53c-6.93 2.27-12 5.6-15.6 10.27-2.93 4-3.73 6.53-4.13 13.73-.8 15.87 6 22.54 26.93 26.4 13.87 2.54 19.47 5.6 19.47 10.67 0 6.67-4.4 9.73-13.6 9.73-7.74 0-11.87-2.4-14.8-8.4l-2.54-4.93h-18.66l.8 4.93c1.6 8.54 7.33 16.4 15.46 20.94 6.8 3.86 8.27 4.13 20 4.13 10.27 0 13.6-.53 18-2.93 10.4-5.47 15.34-13.07 15.34-23.47 0-12-4.94-20.13-14.54-23.87-2.93-1.06-24-5.06-27.06-5.06-.67 0-2.27-1.2-3.74-2.67-9.73-9.73 9.07-20.4 19.87-11.33 2.13 1.86 4.4 4.66 4.8 6 .8 2.26 2.13 2.66 10.27 2.66h9.46l-.8-4.8c-2.13-13.06-14.66-22.13-31.6-22.8-5.46-.13-11.46.14-13.33.8ZM838.8 116.33c-2.4 1.07-6.53 4.27-8.93 6.94l-4.54 4.93v-12.53H804v86.66h21.33v-27.06c0-23.6.4-27.6 2.54-32.54 1.46-3.06 4.13-6.53 6-7.73 4.53-2.93 14.4-3.07 18.8-.13 6.53 4.26 7.33 8.8 7.33 39.46v28h21.33V174.6c0-30.13.8-33.87 8.14-39.33 4.53-3.34 14.53-3.47 19.2-.4 6.53 4.26 7.33 8.8 7.33 39.46v28h21.33v-31.2c0-34.66-.8-39.33-8.4-47.33-12.13-12.8-32-12.8-45.2-.13-3.6 3.46-6.4 5.73-6.4 5.2 0-2.4-7.73-9.87-12.66-12-6.54-3.07-19.47-3.2-25.87-.54ZM498.67 159v43.33h21.06l.54-26.4c.4-22.93.8-26.93 3.06-31.6 4.14-8.13 9.87-11.33 20.8-11.33h9.2v-17.33h-8.66c-10.27 0-14.8 2-20.54 8.93l-4.13 5.07v-14h-21.33V159ZM694.67 159v43.33H716v-86.66h-21.33V159Z" fill="#000"/></g><defs><clipPath id="a"><path fill="#fff" d="M0 0h937.33v281.33H0z"/></clipPath></defs></svg>
