<?xml version="1.0" standalone="no"?>
<!DOCTYPE svg PUBLIC "-//W3C//DTD SVG 20010904//EN"
 "http://www.w3.org/TR/2001/REC-SVG-20010904/DTD/svg10.dtd">
<svg version="1.0" xmlns="http://www.w3.org/2000/svg"
 width="223.000000pt" height="50.000000pt" viewBox="0 0 223.000000 50.000000"
 preserveAspectRatio="xMidYMid meet">

<g transform="translate(0.000000,50.000000) scale(0.100000,-0.100000)"
fill="#000000" stroke="none">
<path d="M440 470 c0 -5 7 -10 15 -10 8 0 15 -4 15 -10 0 -5 -5 -10 -11 -10
-6 0 -7 -5 -2 -12 14 -23 13 -48 -1 -48 -19 0 -46 27 -46 46 0 8 -5 14 -11 14
-5 0 -8 -4 -5 -9 4 -5 0 -12 -6 -14 -10 -4 -10 -6 0 -6 12 -1 52 -36 52 -46 0
-10 -19 -5 -33 10 -13 13 -17 12 -29 -2 -11 -15 -11 -16 5 -10 24 9 21 -6 -7
-33 -27 -24 -56 -21 -56 6 0 14 3 14 15 4 22 -19 25 -8 3 13 -10 9 -18 13 -18
7 0 -5 -7 -7 -15 -4 -8 4 -15 1 -15 -5 0 -6 4 -11 9 -11 5 0 12 -7 15 -16 4
-12 2 -15 -9 -10 -12 4 -14 -2 -10 -36 6 -45 20 -68 41 -68 8 0 14 -5 14 -11
0 -5 -4 -7 -10 -4 -16 10 -12 -1 6 -15 13 -12 14 -8 8 38 -4 36 -3 52 5 52 6
0 11 11 11 24 0 25 30 51 74 62 l26 6 2 -78 2 -79 3 67 c3 53 7 68 21 71 16 4
16 5 0 6 -14 1 -18 11 -19 44 -2 56 1 71 14 79 7 4 -3 8 -20 8 -18 0 -33 -4
-33 -10z m-85 -180 c-3 -5 -13 -10 -21 -10 -8 0 -14 5 -14 10 0 6 9 10 21 10
11 0 17 -4 14 -10z m-15 -32 c0 -12 -14 -10 -28 4 -19 19 -14 29 8 16 11 -7
20 -16 20 -20z m-10 -28 c0 -5 -2 -10 -4 -10 -3 0 -8 5 -11 10 -3 6 -1 10 4
10 6 0 11 -4 11 -10z"/>
<path d="M410 460 c-9 -6 -10 -10 -3 -10 6 0 15 5 18 10 8 12 4 12 -15 0z"/>
<path d="M349 432 c-13 -15 -31 -36 -39 -47 -15 -19 -15 -19 14 -1 25 16 28
16 23 3 -3 -9 -1 -19 5 -23 6 -4 8 -3 4 4 -3 6 -2 13 4 17 5 3 7 17 4 30 -4
16 0 26 13 34 10 6 13 11 7 11 -6 0 -22 -12 -35 -28z"/>
<path d="M546 445 c3 -8 9 -13 13 -10 13 7 45 -39 52 -75 l7 -35 1 31 c1 33
-27 77 -60 94 -15 8 -17 7 -13 -5z"/>
<path d="M430 421 c0 -6 4 -13 10 -16 6 -3 7 1 4 9 -7 18 -14 21 -14 7z"/>
<path d="M541 395 c0 -12 -5 -26 -11 -33 -5 -7 -3 -6 6 2 9 7 14 22 11 32 -4
17 -5 17 -6 -1z"/>
<path d="M584 338 c7 -23 -3 -48 -19 -48 -7 0 -12 -8 -11 -17 0 -10 -7 -19
-18 -21 -15 -3 -18 0 -13 17 3 12 2 21 -2 21 -17 0 -31 -27 -31 -62 0 -21 -3
-37 -7 -37 -5 1 -17 1 -28 0 -15 -1 -17 -3 -6 -10 7 -5 11 -13 7 -19 -3 -6 0
-13 6 -15 10 -4 9 -8 -2 -16 -10 -7 -11 -11 -2 -11 6 0 12 -9 12 -20 0 -40
-59 -18 -90 33 -18 29 -20 30 -20 10 0 -13 3 -23 8 -23 4 0 22 -19 41 -41 l34
-41 -32 17 c-18 9 -36 26 -42 38 -8 19 -9 19 -6 2 3 -27 63 -65 103 -65 72 0
124 40 124 95 0 26 -3 33 -15 29 -8 -4 -15 -1 -15 6 0 7 -8 2 -18 -10 l-19
-23 -22 22 c-17 17 -20 26 -12 34 6 6 11 26 11 44 0 30 2 32 19 22 25 -16 46
-6 62 29 18 41 49 32 49 -14 0 -19 -4 -34 -10 -34 -5 0 -10 5 -10 12 0 6 -11
1 -25 -12 -14 -13 -25 -31 -25 -39 1 -10 7 -5 16 12 8 15 19 27 24 27 13 0 13
-17 0 -25 -5 -3 -10 -14 -9 -23 0 -14 2 -14 6 -2 3 8 14 23 24 33 23 22 25 79
4 97 -8 7 -15 9 -15 4 -1 -5 -8 2 -16 16 -8 14 -13 17 -10 8z m-84 -198 c0 -5
-4 -10 -10 -10 -5 0 -10 5 -10 10 0 6 5 10 10 10 6 0 10 -4 10 -10z m80 -34
c0 -19 -19 -41 -27 -33 -4 4 -2 17 5 27 13 22 3 27 -16 8 -9 -9 -12 -9 -12 3
0 8 6 21 12 27 10 10 15 9 25 -5 7 -9 13 -22 13 -27z m-65 -6 c0 -8 -8 -16
-17 -18 -13 -2 -18 3 -18 18 0 15 5 20 18 18 9 -2 17 -10 17 -18z"/>
<path d="M410 295 c0 -3 9 -15 19 -26 22 -23 41 -8 21 16 -12 14 -40 21 -40
10z"/>
<path d="M385 270 c-3 -5 -1 -10 4 -10 6 0 11 5 11 10 0 6 -2 10 -4 10 -3 0
-8 -4 -11 -10z"/>
</g>
</svg>
