<svg width="40" height="40" fill="none" xmlns="http://www.w3.org/2000/svg"><path d="M3.6 30.4c3-2 6.6-5.3 5.2-9.2-.7-2.2-1.7-4-1.8-6.3a14.1 14.1 0 0 1 .8-5.8 14.6 14.6 0 0 1 18-8.5c6.7 2 11.3 9.9 8.5 16.7-1.6 3.9-2.3 7 1.3 10 1 .8 3.3 2 3.3 3.5 0 2-3.8-.4-4.2-.7.5.8 5.2 5.8 2.2 6.1-2.8.3-5.2-3.5-6.9-5.2-2.8-2.8-2.3 3.4-2.3 4.7 0 2-1.5 6.1-4 3.4-2.2-2.2-1.3-5.7-2.8-8.2-1.7-2.6-4.3 2.7-5 3.7-.8 1.1-4.5 6.4-6 3.6-1.2-2.3.7-5.9 1.7-8-.4.8-2.8 1.9-3.6 2.3a9.6 9.6 0 0 1-5 1.1c-3.8-.2-1-2.3.6-3.2z" fill="#008BE3"/></svg>
