<svg width="40" height="40" fill="none" xmlns="http://www.w3.org/2000/svg">
  <path d="M3.633 30.353c3.008-1.936 6.547-5.27 5.203-9.183-.728-2.137-1.743-3.965-1.878-6.27a14.13 14.13 0 01.858-5.767C10.516 1.9 18.543-1.528 25.801.648c6.717 2.027 11.347 9.822 8.532 16.622-1.608 3.927-2.325 6.955 1.258 10.01.97.827 3.334 2.067 3.32 3.538 0 1.939-3.783-.406-4.203-.741.477.838 5.23 5.811 2.208 6.146-2.783.324-5.245-3.565-6.916-5.236-2.81-2.804-2.325 3.403-2.339 4.683 0 2.02-1.446 6.127-4.016 3.453-2.117-2.201-1.292-5.721-2.79-8.175-1.614-2.686-4.3 2.687-4.972 3.667-.75 1.1-4.522 6.407-5.993 3.578-1.209-2.3.723-5.896 1.678-7.975-.348.755-2.808 1.872-3.525 2.234a9.563 9.563 0 01-5.095 1.176c-3.778-.271-.878-2.28.645-3.266l.038-.009h.002z" fill="#008BE3"/>
</svg>
