<svg width="137" height="30" fill="none" xmlns="http://www.w3.org/2000/svg">
  <path d="M2.074 22.073c2.192-1.432 4.743-3.848 3.803-6.667-.537-1.566-1.253-2.864-1.387-4.564-.09-1.432.134-2.863.626-4.161 1.97-5.28 7.83-7.786 13.11-6.22 4.878 1.477 8.233 7.16 6.22 12.082-1.163 2.863-1.7 5.1.895 7.293.716.582 2.416 1.521 2.416 2.595 0 1.387-2.774-.313-3.043-.537.359.627 3.804 4.206 1.611 4.475-2.013.223-3.803-2.596-5.011-3.804-2.058-2.058-1.7 2.461-1.7 3.4 0 1.477-1.074 4.475-2.909 2.507-1.521-1.611-.94-4.162-2.013-5.951-1.164-1.97-3.133 1.968-3.625 2.684-.537.806-3.266 4.654-4.34 2.596-.895-1.656.537-4.296 1.208-5.817-.268.537-2.058 1.342-2.55 1.61a6.696 6.696 0 01-3.714.85c-2.819-.178-.716-1.655.403-2.37z" fill="#0D80D8"/>
  <path d="M41.539 13.84c0 1.03-.18 2.058-.582 2.998-.358.805-.895 1.477-1.655 1.969-2.103 1.342-4.922.76-6.265-1.343-.134-.179-.223-.402-.313-.626-.403-.94-.626-1.924-.626-2.908v-.85c0-1.03.179-2.059.581-2.998a4.338 4.338 0 014.117-2.685c.895 0 1.745.224 2.506.671a4.727 4.727 0 011.655 1.969c.403.94.582 1.969.582 2.998v.805zm-1.522-.76c0-1.388-.268-2.462-.85-3.222a2.687 2.687 0 00-2.326-1.119c-.895-.045-1.79.403-2.327 1.119-.627.895-.895 2.013-.85 3.087v.85c-.045 1.119.223 2.238.85 3.177a2.985 2.985 0 004.161.537c.18-.134.358-.313.492-.447.537-.716.85-1.79.85-3.132v-.85zM46.416 18.27c.492 0 .984-.18 1.387-.492.403-.269.627-.716.671-1.208h1.432A2.667 2.667 0 0149.37 18c-.313.448-.76.85-1.253 1.074a3.799 3.799 0 01-1.7.403 3.572 3.572 0 01-2.819-1.208c-.76-.895-1.119-2.058-1.03-3.266v-.269c0-.76.135-1.566.493-2.282.269-.626.76-1.163 1.342-1.521.627-.358 1.343-.582 2.059-.537.895-.045 1.79.313 2.416.895.626.581 1.03 1.387 1.03 2.282h-1.433a2.217 2.217 0 00-.626-1.387 2.11 2.11 0 00-1.432-.537 2.042 2.042 0 00-1.745.805 4.027 4.027 0 00-.627 2.372v.268a3.89 3.89 0 00.627 2.327c.358.581 1.029.895 1.745.85zM52.814 8.515v2.103h1.611v1.163h-1.61v5.415c0 .268.044.537.223.805.18.179.448.268.76.268.224 0 .493-.044.717-.089v1.208c-.358.09-.76.18-1.164.18a1.926 1.926 0 01-1.52-.583 2.613 2.613 0 01-.493-1.7v-5.504h-1.61v-1.163h1.61V8.515h1.476zM54.917 14.869c0-.805.18-1.566.493-2.327a3.645 3.645 0 011.387-1.566c.626-.358 1.342-.582 2.058-.537a3.561 3.561 0 012.864 1.253 4.84 4.84 0 011.118 3.267v.089c0 .805-.134 1.566-.492 2.282-.313.626-.805 1.208-1.387 1.566a3.78 3.78 0 01-2.058.582 3.562 3.562 0 01-2.864-1.253 4.764 4.764 0 01-1.119-3.267v-.089zm1.522.179c-.045.85.179 1.655.67 2.327.762.984 2.193 1.163 3.222.402l.403-.402c.492-.716.716-1.611.671-2.506.045-.85-.223-1.656-.67-2.327-.404-.581-1.075-.895-1.79-.895-.717 0-1.388.314-1.79.895-.537.76-.806 1.656-.716 2.506zM71.384 15.048a5.495 5.495 0 01-.895 3.222 2.918 2.918 0 01-2.506 1.208 3.303 3.303 0 01-2.506-.984V22.7h-1.476V10.619h1.342l.09.984a3.099 3.099 0 012.55-1.119c.984-.044 1.88.403 2.506 1.164.626.805.895 1.879.895 3.31v.09zm-1.522-.134a3.89 3.89 0 00-.626-2.327 2.12 2.12 0 00-1.7-.85 2.124 2.124 0 00-2.014 1.208v4.162a2.248 2.248 0 002.014 1.208 2.12 2.12 0 001.7-.85c.492-.806.716-1.656.626-2.55zM77.916 18.448a3.28 3.28 0 01-2.55 1.03 2.762 2.762 0 01-2.148-.806 3.262 3.262 0 01-.716-2.371v-5.683h1.477v5.638c0 1.342.537 1.969 1.61 1.969 1.075 0 1.88-.448 2.283-1.253v-6.354h1.476v8.725h-1.432v-.895zM85.97 17.017c0-.358-.134-.716-.447-.94-.492-.268-1.03-.492-1.611-.582a8.37 8.37 0 01-1.79-.581 2.454 2.454 0 01-.984-.806c-.224-.313-.313-.716-.313-1.118 0-.716.313-1.387.894-1.79a3.914 3.914 0 012.327-.76c.85-.045 1.7.223 2.416.76.582.492.94 1.208.94 1.969h-1.521c0-.403-.18-.806-.537-1.074-.358-.313-.85-.447-1.298-.447a1.799 1.799 0 00-1.253.357c-.313.224-.447.582-.447.94a1 1 0 00.447.806c.492.268.985.447 1.522.536.626.135 1.252.314 1.834.582.403.18.76.492 1.03.85.223.358.357.76.357 1.208 0 .761-.313 1.432-.94 1.88a3.978 3.978 0 01-2.46.716 5.148 5.148 0 01-1.835-.358 3.112 3.112 0 01-1.253-1.03c-.313-.402-.447-.94-.447-1.431h1.476c0 .447.224.895.582 1.208.447.313.94.492 1.477.447.492 0 .94-.09 1.342-.358.313-.268.492-.581.492-.984zM92.28 19.344V7.576h3.31c.94 0 1.88.223 2.73.67.76.448 1.432 1.12 1.834 1.925.448.895.672 1.88.627 2.864v.76c0 .985-.179 2.014-.627 2.909a4.472 4.472 0 01-1.834 1.924c-.85.447-1.79.716-2.774.67l-3.267.046zm1.52-10.47v9.217h1.611a3.614 3.614 0 002.775-1.119c.67-.76.984-1.79.984-3.177v-.671c.09-1.119-.269-2.237-.94-3.132a3.334 3.334 0 00-2.64-1.119H93.8zM105.747 19.478a3.779 3.779 0 01-2.863-1.164 4.428 4.428 0 01-1.119-3.132v-.223c0-.806.134-1.611.492-2.327a3.73 3.73 0 011.387-1.61 3.352 3.352 0 011.924-.583 3.334 3.334 0 012.64 1.119c.627.76.94 1.835.94 3.222v.626h-5.906c0 .76.268 1.521.76 2.103.448.537 1.119.805 1.835.805.447 0 .94-.089 1.342-.313.358-.224.716-.492.94-.85l.895.716a3.644 3.644 0 01-3.267 1.61zm-.179-7.786c-.581 0-1.118.224-1.521.671-.447.537-.716 1.164-.761 1.835h4.385v-.134c0-.627-.223-1.253-.626-1.745a1.688 1.688 0 00-1.477-.627zM117.515 15.048a5.496 5.496 0 01-.894 3.222c-.582.805-1.477 1.253-2.461 1.208a3.303 3.303 0 01-2.506-.984V22.7h-1.477V10.619h1.343l.089.984a3.07 3.07 0 012.506-1.119 2.913 2.913 0 012.461 1.164c.626.805.895 1.879.895 3.31v.09h.044zm-1.476-.134a3.884 3.884 0 00-.627-2.327c-.402-.537-1.029-.895-1.745-.85a2.123 2.123 0 00-2.013 1.208v4.162c.403.76 1.208 1.208 2.058 1.208.671 0 1.298-.314 1.7-.85.448-.806.672-1.7.627-2.55zM120.29 19.343h-1.477V6.95h1.477v12.394zM121.587 14.869c0-.805.179-1.566.492-2.327a3.655 3.655 0 011.387-1.566c.627-.358 1.343-.582 2.059-.537a3.56 3.56 0 012.863 1.253 4.837 4.837 0 011.119 3.267v.089c0 .805-.134 1.566-.492 2.282-.313.626-.806 1.208-1.387 1.566a3.783 3.783 0 01-2.059.582 3.561 3.561 0 01-2.863-1.253 4.761 4.761 0 01-1.119-3.267v-.089zm1.477.179c-.045.85.179 1.655.671 2.327.403.581 1.074.895 1.79.895s1.387-.314 1.789-.895c.493-.716.716-1.611.672-2.506.044-.85-.224-1.656-.672-2.327-.402-.581-1.073-.895-1.789-.895s-1.387.314-1.79.895a4.24 4.24 0 00-.671 2.506zM133.355 17.15l2.014-6.532h1.61l-3.49 10.068c-.537 1.432-1.387 2.192-2.595 2.192l-.268-.044-.537-.09v-1.208l.402.045c.403 0 .851-.09 1.164-.314.358-.313.581-.67.716-1.118l.313-.895-3.132-8.636h1.611l2.192 6.533z" fill="#fff"/>
</svg>
