<?xml version="1.0" encoding="UTF-8"?>
<svg version="1.1" xmlns="http://www.w3.org/2000/svg" width="128" height="128">
<path d="M0 0 C42.24 0 84.48 0 128 0 C128 42.24 128 84.48 128 128 C85.76 128 43.52 128 0 128 C0 85.76 0 43.52 0 0 Z " fill="#FEFDFD" transform="translate(0,0)"/>
<path d="M0 0 C0 0.66 0 1.32 0 2 C0.721875 2.061875 1.44375 2.12375 2.1875 2.1875 C5.85956016 3.24831738 7.39427842 5.26065167 10 8 C11.31222281 8.70731429 12.64290578 9.38313899 14 10 C14.44730469 9.51789062 14.89460938 9.03578125 15.35546875 8.5390625 C16.26232422 7.59160156 16.26232422 7.59160156 17.1875 6.625 C17.77917969 5.99851562 18.37085937 5.37203125 18.98046875 4.7265625 C23.78973965 0.61496146 28.90086519 0.50526885 34.9921875 0.625 C41.03945256 1.37894473 45.09050248 4.60566443 49 9.125 C51.93416374 13.69035986 52.00494971 18.78119221 51 24 C48.71212356 29.8878381 45.20372452 34.62385303 41.1875 39.4375 C40.11525019 40.7455733 39.04363263 42.05416513 37.97265625 43.36328125 C37.45977051 43.9867041 36.94688477 44.61012695 36.41845703 45.25244141 C34.59458639 47.49947516 32.85943438 49.80854067 31.125 52.125 C27.74503051 56.49422885 24.36150426 60.21283191 19 62 C17.21217914 62.14391128 15.41836132 62.22052009 13.625 62.25 C12.22121094 62.28867188 12.22121094 62.28867188 10.7890625 62.328125 C7.4086951 61.93043472 5.69419172 61.07221895 3 59 C2.43237305 56.5480957 2.43237305 56.5480957 2.51171875 53.67578125 C2.52783203 52.64775391 2.54394531 51.61972656 2.56054688 50.56054688 C2.60244141 49.48869141 2.64433594 48.41683594 2.6875 47.3125 C2.71005859 46.22904297 2.73261719 45.14558594 2.75585938 44.02929688 C2.8148421 41.35148095 2.89709693 38.67642973 3 36 C5.9719385 37.12451727 8.33440687 38.22293791 11 40 C14.23232558 40.34386442 16.37065456 40.26498755 19.375 39 C21.41827413 36.48520107 21.78143373 34.36805879 21.70947266 31.15234375 C20.11714695 26.3216681 14.70735321 24.29637981 10.5 22 C9.02660156 21.12408203 9.02660156 21.12408203 7.5234375 20.23046875 C0.72276195 16.28294829 0.72276195 16.28294829 -6.90917969 15.42285156 C-11.76759467 16.76396471 -16.04047706 19.36614367 -20.375 21.875 C-21.37144531 22.43058594 -22.36789063 22.98617187 -23.39453125 23.55859375 C-28.5192291 26.34320789 -28.5192291 26.34320789 -33 30 C-33.4667512 33.57842586 -33.40228636 35.37243328 -31.4375 38.4375 C-29.02653358 40.29231915 -29.02653358 40.29231915 -25.75 40 C-22.03530682 39.00941515 -19.04455601 37.68668023 -15.69921875 35.83984375 C-14 35 -14 35 -12 35 C-12 42.59 -12 50.18 -12 58 C-19.12305339 62.07031622 -22.23179359 63.11143288 -30 62 C-39.5995458 57.77619985 -46.65082598 46.06718582 -53 38 C-55.14264755 35.34222116 -57.287144 32.68595889 -59.43359375 30.03125 C-62.88734742 25.55256693 -62.50700308 21.08199994 -62.484375 15.56640625 C-61.7446585 10.11994522 -59.16925392 7.36421505 -55 4 C-54.40058594 3.44828125 -53.80117188 2.8965625 -53.18359375 2.328125 C-48.41529698 -0.57209128 -42.33884677 0.26905165 -37 1 C-31.85401547 3.18121978 -28.21870063 5.79284547 -26 11 C-23.23836094 9.91507037 -22.03810293 9.05171111 -20.25 6.625 C-14.66707968 0.11159297 -8.21557141 -0.60606674 0 0 Z " fill="#FE553B" transform="translate(70,36)"/>
</svg>
