<?xml version="1.0" encoding="UTF-8"?>
<svg version="1.1" xmlns="http://www.w3.org/2000/svg" width="128" height="128">
<path d="M0 0 C42.24 0 84.48 0 128 0 C128 42.24 128 84.48 128 128 C85.76 128 43.52 128 0 128 C0 85.76 0 43.52 0 0 Z " fill="#FEFDFD" transform="translate(0,0)"/>
<path d="M0 0 C4.04288971 2.41661453 6.80929029 5.22091636 9.578125 9.0546875 C10.238125 9.3846875 10.898125 9.7146875 11.578125 10.0546875 C11.8359375 9.46042969 12.09375 8.86617187 12.359375 8.25390625 C13.67649477 5.8771805 14.99156434 4.58683177 17.078125 2.8671875 C17.99078125 2.10341797 17.99078125 2.10341797 18.921875 1.32421875 C23.48787301 -2.1756618 29.0807617 -1.56531588 34.578125 -0.9453125 C39.284951 0.94649859 43.3461192 4.14934716 46.578125 8.0546875 C46.578125 8.7146875 46.578125 9.3746875 46.578125 10.0546875 C47.63 8.971875 47.63 8.971875 48.703125 7.8671875 C53.79452667 2.77578583 57.75319802 -1.07512503 65.203125 -1.3203125 C71.29520999 -1.26917989 75.02497747 0.03914052 79.578125 4.0546875 C83.55517212 8.23568576 84.69685906 11.63448415 84.890625 17.3046875 C84.94669922 18.36429688 84.94669922 18.36429688 85.00390625 19.4453125 C83.6609651 27.67544727 77.594674 34.35205137 72.640625 40.7421875 C71.93744141 41.66580078 71.23425781 42.58941406 70.50976562 43.54101562 C60.40384132 56.69671277 60.40384132 56.69671277 53.578125 59.0546875 C43.36348757 60.05558486 43.36348757 60.05558486 39.42724609 57.84887695 C37.578125 56.0546875 37.578125 56.0546875 37.12402344 53.69458008 C37.1449707 52.78861084 37.16591797 51.8826416 37.1875 50.94921875 C37.20039062 49.96630859 37.21328125 48.98339844 37.2265625 47.97070312 C37.26007813 46.94654297 37.29359375 45.92238281 37.328125 44.8671875 C37.34617188 43.83142578 37.36421875 42.79566406 37.3828125 41.72851562 C37.42998063 39.16964466 37.49578443 36.61262908 37.578125 34.0546875 C42.3515625 35.90625 42.3515625 35.90625 44.390625 37.2421875 C47.8923407 38.54282476 50.92888132 37.66289478 54.578125 37.0546875 C54.84625 35.8378125 55.114375 34.6209375 55.390625 33.3671875 C55.61685547 32.34044922 55.61685547 32.34044922 55.84765625 31.29296875 C55.40869065 27.64764571 53.32990903 26.38093792 50.578125 24.0546875 C47.88474425 22.14274778 45.10494753 20.42780114 42.265625 18.7421875 C41.54439453 18.28779297 40.82316406 17.83339844 40.08007812 17.36523438 C35.35232258 14.54554161 31.13653101 12.70946295 25.578125 14.0546875 C21.58484177 15.71481648 17.88434176 17.77279333 14.140625 19.9296875 C13.13580078 20.48527344 12.13097656 21.04085937 11.09570312 21.61328125 C6.06738332 24.04110717 6.06738332 24.04110717 2.578125 28.0546875 C2.01942002 32.92260816 2.01942002 32.92260816 4.203125 37.0546875 C7.56249982 38.46916111 9.07070542 38.11353115 12.578125 37.0546875 C14.98132848 35.81863849 17.30809729 34.50421094 19.625 33.11328125 C21.578125 32.0546875 21.578125 32.0546875 23.578125 32.0546875 C23.578125 39.9746875 23.578125 47.8946875 23.578125 56.0546875 C15.57283866 59.4855245 15.57283866 59.4855245 10.515625 59.4921875 C9.53464844 59.51152344 8.55367187 59.53085938 7.54296875 59.55078125 C-5.17415305 57.4228834 -16.24162002 38.84781464 -23.421875 29.0546875 C-27.31645662 23.21281506 -27.53446694 16.88016291 -26.421875 10.0546875 C-20.66949448 0.31253237 -11.02073391 -4.3016413 0 0 Z " fill="#FE553A" transform="translate(34.421875,38.9453125)"/>
<path d="M0 0 C1.98 0.99 1.98 0.99 4 2 C3.67 2.33 3.34 2.66 3 3 C2.84379445 4.41327947 2.74943827 5.8335459 2.68359375 7.25390625 C2.64169922 8.10791016 2.59980469 8.96191406 2.55664062 9.84179688 C2.49766602 11.18854492 2.49766602 11.18854492 2.4375 12.5625 C2.39431641 13.46419922 2.35113281 14.36589844 2.30664062 15.29492188 C2.20021858 17.52978485 2.09820012 19.76476308 2 22 C1.34 22 0.68 22 0 22 C0 14.74 0 7.48 0 0 Z " fill="#FE4425" transform="translate(72,73)"/>
</svg>
