<svg xmlns="http://www.w3.org/2000/svg" width="160" height="160"><path fill="#FFFFEB" d="M17 0c4.159 2.34 5.542 4.556 7 9 .254 2.738.254 2.738.26 5.762l.022 3.488-.007 3.799.015 4.022c.014 3.634.014 7.268.012 10.903-.001 3.036.003 6.073.008 9.11.011 7.165.012 14.33.006 21.496-.006 7.387.006 14.773.027 22.159.018 6.347.024 12.695.02 19.042-.001 3.789.001 7.577.015 11.366.013 3.563.01 7.126-.002 10.689-.004 1.926.008 3.853.02 5.779-.042 6.822-.17 12.045-5.146 17.197-3.165 1.671-5.675 2.065-9.25 2.188-4.185-1.529-6.717-3.155-9-7-1.036-3.108-1.13-5.262-1.14-8.521l-.018-3.48-.003-3.82-.015-4.022c-.013-3.643-.02-7.285-.024-10.928-.003-2.276-.007-4.553-.012-6.829-.013-7.124-.023-14.247-.027-21.371-.004-8.22-.022-16.44-.05-24.661-.023-6.356-.033-12.712-.034-19.068-.001-3.795-.007-7.59-.025-11.385-.016-3.572-.018-7.143-.01-10.714.002-1.931-.012-3.863-.026-5.794C-.334 7.785-.334 7.785 3 3c4.098-4.03 8.556-3.794 14-3ZM152 0c3.063 2.438 3.063 2.438 5 5l1 1c.105 1.836.14 3.676.147 5.515l.022 3.629.008 4.017.02 4.203c.017 3.816.028 7.632.036 11.449l.018 7.15c.019 7.452.033 14.906.041 22.359.01 8.61.036 17.218.077 25.827.03 6.65.045 13.3.048 19.95.002 3.973.011 7.946.036 11.92.024 3.74.028 7.479.018 11.218-.001 2.026.018 4.052.038 6.077l-.021 3.663.007 3.177c-.623 3.583-2.005 5.244-4.495 7.846-3.062 1.82-4.854 2.003-8.438 1.938-4.494-1.183-6.294-2.67-9.562-5.938-1.042-3.126-1.133-5.317-1.147-8.597l-.022-3.53-.008-3.878-.02-4.08c-.02-4.468-.031-8.936-.041-13.403l-.013-4.616c-.019-7.229-.033-14.457-.041-21.686-.01-8.341-.036-16.682-.077-25.024-.03-6.45-.045-12.898-.048-19.348-.002-3.851-.011-7.702-.036-11.553-.024-3.624-.028-7.247-.018-10.871.001-1.96-.018-3.92-.038-5.88C134.555 6.712 134.555 6.712 139 2c4.222-2.815 8.04-2.807 13-2ZM83 25c3.986 2.106 6.483 3.735 8 8 .196 2.85.283 5.603.275 8.453l.015 2.578c.014 2.812.013 5.623.01 8.434l.014 5.866c.007 4.098.007 8.196.002 12.294-.006 5.25.01 10.5.034 15.75.015 4.038.016 8.076.013 12.114 0 1.936.005 3.872.015 5.807.013 2.708.006 5.414-.006 8.122l.023 2.42c-.053 5.659-1.293 8.818-5.02 12.975-3.747 1.873-7.282 1.966-11.375 1.187-3.069-1.719-5.404-3.807-7-7a224.05 224.05 0 0 1-.193-8.394l-.025-2.631c-.025-2.882-.041-5.765-.055-8.647l-.017-2.98c-.026-5.207-.046-10.414-.06-15.621-.017-5.379-.062-10.756-.112-16.134-.034-4.135-.046-8.27-.051-12.405a684.426 684.426 0 0 0-.046-5.947 592.473 592.473 0 0 1-.024-8.33l-.05-2.475c.044-4.081.407-6.676 2.982-9.93 4.02-3.8 7.254-3.963 12.651-3.506Z"/><path fill="#FFFFEA" d="M118 71c3.61 2.15 5.43 4.152 7 8 .267 2.408.267 2.408.29 5.116l.04 3.086.006 3.318.02 3.43c.01 2.394.015 4.79.015 7.184.004 3.654.04 7.308.078 10.962.006 2.328.01 4.657.012 6.986l.043 3.3c-.038 6.433-.675 10.382-4.504 15.618-2.91 2.391-6.249 2.48-9.969 2.383-3.756-.708-5.442-2.609-8.031-5.383-1.658-3.42-2.254-6.17-2.275-9.955l-.029-2.903.003-3.103-.013-3.224c-.006-2.248-.006-4.495-.002-6.743a1236.2 1236.2 0 0 0-.045-10.283c-.003-2.187-.003-4.375-.002-6.562l-.028-3.091c.037-5.823.562-10.006 3.391-15.136 4.03-3.674 8.796-3.86 14-3Z"/><path fill="#FFFFEB" d="M50 71c3.072 1.71 5.405 3.81 7 7 .116 1.724.17 3.453.193 5.18l.049 3.278c.044 4.954.085 9.908.108 14.862.017 2.613.044 5.226.082 7.839.055 3.765.077 7.529.091 11.294l.07 3.533c-.024 9.048-.024 9.048-3 12.736-3.587 3.151-5.682 3.624-10.491 3.563-3.44-.467-5.513-2.066-8.102-4.285-1.97-3.118-2.26-5.568-2.29-9.224l-.04-3.156-.006-3.393-.02-3.505c-.01-2.446-.015-4.892-.015-7.338-.004-3.738-.04-7.475-.078-11.212-.006-2.378-.01-4.755-.012-7.133l-.043-3.381c.036-6.185.27-10.004 4.504-14.658 4.022-2.681 7.272-2.813 12-2Z"/></svg>