<svg xmlns="http://www.w3.org/2000/svg" enable-background="new 0 0 24 24" height="24" viewBox="0 0 24 24" width="24"><g><rect fill="none" height="24" width="24"/></g><g><g><rect height="1.5" width="1.5" x="13.5" y="9"/><rect height="1.5" width="1.5" x="15" y="14"/><path d="M19,3H5C3.9,3,3,3.9,3,5v14c0,1.1,0.9,2,2,2h14c1.1,0,2-0.9,2-2V5C21,3.9,20.1,3,19,3z M7.75,5.5H9c0.55,0,1,0.45,1,1 v4.25c0,0.41-0.34,0.75-0.75,0.75S8.5,11.16,8.5,10.75V7H7.75C7.34,7,7,6.66,7,6.25S7.34,5.5,7.75,5.5z M12.5,17.75 c0,0.41-0.34,0.75-0.75,0.75S11,18.16,11,17.75V14h-1v2.25C10,16.66,9.66,17,9.25,17S8.5,16.66,8.5,16.25V14h-1v3.75 c0,0.41-0.34,0.75-0.75,0.75S6,18.16,6,17.75V13.5c0-0.55,0.45-1,1-1h4.5c0.55,0,1,0.45,1,1V17.75z M12,10.5v-4c0-0.55,0.45-1,1-1 h2.75c0.41,0,0.75,0.34,0.75,0.75S16.16,7,15.75,7H13.5v1h2c0.55,0,1,0.45,1,1v1.5c0,0.55-0.45,1-1,1H13 C12.45,11.5,12,11.05,12,10.5z M18,16c0,0.55-0.45,1-1,1h-2v0.75c0,0.41-0.34,0.75-0.75,0.75s-0.75-0.34-0.75-0.75V13.5 c0-0.55,0.45-1,1-1H17c0.55,0,1,0.45,1,1V16z"/></g></g></svg>