<svg xmlns="http://www.w3.org/2000/svg" enable-background="new 0 0 24 24" height="24" viewBox="0 0 24 24" width="24"><g><rect fill="none" height="24" width="24"/></g><g><g><path d="M5,19h14V5H5V19z M18,16c0,0.55-0.45,1-1,1h-2v1.5h-1.5v-6H17c0.55,0,1,0.45,1,1V16z M13,5.5h1.5v3H16v-3 h1.5v3h1V10h-1v1.5H16V10h-3V5.5z M6.5,9c0-0.55,0.45-1,1-1h2V7h-3V5.5H10c0.55,0,1,0.45,1,1V8c0,0.55-0.45,1-1,1H8v1h3v1.5H6.5V9 z M6,13.5c0-0.55,0.45-1,1-1h4.5c0.55,0,1,0.45,1,1v5H11V14h-1v3H8.5v-3h-1v4.5H6V13.5z" opacity=".3"/><rect height="1.5" opacity=".3" width="1.5" x="15" y="14"/><path d="M7.5,14h1v3H10v-3h1v4.5h1.5v-5c0-0.55-0.45-1-1-1H7c-0.55,0-1,0.45-1,1v5h1.5V14z"/><path d="M17,12.5h-3.5v6H15V17h2c0.55,0,1-0.45,1-1v-2.5C18,12.95,17.55,12.5,17,12.5z M16.5,15.5H15V14h1.5V15.5z"/><path d="M19,3H5C3.9,3,3,3.9,3,5v14c0,1.1,0.9,2,2,2h14c1.1,0,2-0.9,2-2V5C21,3.9,20.1,3,19,3z M19,19H5V5h14V19z"/><path d="M11,10H8V9h2c0.55,0,1-0.45,1-1V6.5c0-0.55-0.45-1-1-1H6.5V7h3v1h-2c-0.55,0-1,0.45-1,1v2.5H11V10z"/><polygon points="16,11.5 17.5,11.5 17.5,10 18.5,10 18.5,8.5 17.5,8.5 17.5,5.5 16,5.5 16,8.5 14.5,8.5 14.5,5.5 13,5.5 13,10 16,10"/></g></g></svg>