<svg xmlns="http://www.w3.org/2000/svg" enable-background="new 0 0 24 24" height="24" viewBox="0 0 24 24" width="24"><g><rect fill="none" height="24" width="24"/></g><g><g><g><path d="M19,3H5C3.9,3,3,3.9,3,5v14c0,1.1,0.9,2,2,2h14c1.1,0,2-0.9,2-2V5C21,3.9,20.1,3,19,3z M19,19H5V5h14V19z"/><polygon points="14.5,12.75 16.25,15 18,15 15.75,12 18,9 16.25,9 14.5,11.25 14.5,9 13,9 13,15 14.5,15"/><path d="M7.5,15H10c0.55,0,1-0.45,1-1v-1.5c0-0.55-0.45-1-1-1H8v-1h3V9H7.5c-0.55,0-1,0.45-1,1v4C6.5,14.55,6.95,15,7.5,15z M8,12.5h1.5V14H8V12.5z"/></g></g></g></svg>