<svg xmlns="http://www.w3.org/2000/svg" enable-background="new 0 0 24 24" height="24" viewBox="0 0 24 24" width="24"><g><rect fill="none" height="24" width="24"/></g><g><g><path d="M5,19h14v-6.5h-1.5V14h-1v-1.5H15v-1h1.5V10h1v1.5H19V5H5V19z M11,9h1.5v2.25L14.25,9H16l-2.25,3L16,15 h-1.75l-1.75-2.25V15H11V9z M5.5,9H9c0.67,0,1.15,0.65,0.96,1.29L8.5,15H6.75l1.38-4.5H5.5V9z" opacity=".3"/><path d="M19,3H5C3.9,3,3,3.9,3,5v14c0,1.1,0.9,2,2,2h14c1.1,0,2-0.9,2-2V5C21,3.9,20.1,3,19,3z M19,11.5h-1.5V10h-1v1.5H15v1h1.5 V14h1v-1.5H19V19H5V5h14V11.5z"/><path d="M6.75,15H8.5l1.46-4.71C10.15,9.65,9.67,9,9,9H5.5v1.5h2.63L6.75,15z"/><polygon points="12.5,12.75 14.25,15 16,15 13.75,12 16,9 14.25,9 12.5,11.25 12.5,9 11,9 11,15 12.5,15"/></g></g></svg>