<svg xmlns="http://www.w3.org/2000/svg" enable-background="new 0 0 24 24" height="24" viewBox="0 0 24 24" width="24"><g><rect fill="none" height="24" width="24"/><rect fill="none" height="24" width="24"/></g><g><g><path d="M20,18v-2c0-0.55-0.45-1-1-1h0c-0.55,0-1,0.45-1,1v2h-2c-0.55,0-1,0.45-1,1v0c0,0.55,0.45,1,1,1h2v2c0,0.55,0.45,1,1,1h0 c0.55,0,1-0.45,1-1v-2h2c0.55,0,1-0.45,1-1v0c0-0.55-0.45-1-1-1H20z"/><path d="M19,4L19,4c-0.55,0-1,0.45-1,1v7c0,0.55,0.45,1,1,1h0c0.55,0,1-0.45,1-1V5C20,4.45,19.55,4,19,4z"/><path d="M5,20L5,20c0.55,0,1-0.45,1-1V5c0-0.55-0.45-1-1-1h0C4.45,4,4,4.45,4,5v14C4,19.55,4.45,20,5,20z"/><path d="M12,8L12,8c0.55,0,1-0.45,1-1V5c0-0.55-0.45-1-1-1h0c-0.55,0-1,0.45-1,1v2C11,7.55,11.45,8,12,8z"/><path d="M12,14L12,14c0.55,0,1-0.45,1-1v-2c0-0.55-0.45-1-1-1h0c-0.55,0-1,0.45-1,1v2C11,13.55,11.45,14,12,14z"/><path d="M12,20L12,20c0.55,0,1-0.45,1-1v-2c0-0.55-0.45-1-1-1h0c-0.55,0-1,0.45-1,1v2C11,19.55,11.45,20,12,20z"/></g></g></svg>