<svg xmlns="http://www.w3.org/2000/svg" height="24" viewBox="0 0 24 24" width="24"><path d="M0 0h24v24H0V0z" fill="none"/><path d="M18.6 6.62c-1.44 0-2.8.56-3.77 1.53L7.8 14.39c-.64.64-1.49.99-2.4.99-1.87 0-3.39-1.51-3.39-3.38S3.53 8.62 5.4 8.62c.91 0 1.76.35 2.44 1.03l1.13 1 1.51-1.34L9.22 8.2C8.2 7.18 6.84 6.62 5.4 6.62 2.42 6.62 0 9.04 0 12s2.42 5.38 5.4 5.38c1.44 0 2.8-.56 3.77-1.53L13.51 12l2.69-2.39c.64-.64 1.49-.99 2.4-.99 1.87 0 3.39 1.51 3.39 3.38s-1.52 3.38-3.39 3.38c-.9 0-1.76-.35-2.44-1.03l-1.14-1.01-1.51 1.34 1.27 1.12c1.02 1.01 2.37 1.57 3.82 1.57 2.98 0 5.4-2.41 5.4-5.38s-2.42-5.37-5.4-5.37z"/></svg>