<svg xmlns="http://www.w3.org/2000/svg" enable-background="new 0 0 24 24" height="24" viewBox="0 0 24 24" width="24"><g><rect fill="none" height="24" width="24"/></g><g><g><path d="M21,10V4c0-1.1-0.9-2-2-2H3C1.9,2,1.01,2.9,1.01,4L1,16c0,1.1,0.9,2,2,2h11v-5c0-1.66,1.34-3,3-3H21z M11,11L3,6V4l8,5 l8-5v2L11,11z"/><path d="M21,14v4c0,1.1-0.9,2-2,2s-2-0.9-2-2v-4.5c0-0.28,0.22-0.5,0.5-0.5s0.5,0.22,0.5,0.5V18h2v-4.5c0-1.38-1.12-2.5-2.5-2.5 S15,12.12,15,13.5V18c0,2.21,1.79,4,4,4s4-1.79,4-4v-4H21z"/></g></g></svg>