<svg xmlns="http://www.w3.org/2000/svg" height="24" viewBox="0 0 24 24" width="24"><path d="M0 0h24v24H0V0z" fill="none"/><path d="M12 4c-4.42 0-8 3.58-8 8s3.58 8 8 8 8-3.58 8-8-3.58-8-8-8zm0 1c.83 0 1.5.67 1.5 1.5S12.83 8 12 8s-1.5-.67-1.5-1.5S11.17 5 12 5zm2.75 9.5h-1.5V19h-2.5v-4.5h-1.5V9.88c0-.92 1.84-1.38 2.75-1.38s2.75.47 2.75 1.38v4.62z" opacity=".3"/><path d="M12 2C6.47 2 2 6.47 2 12s4.47 10 10 10 10-4.48 10-10S17.52 2 12 2zm0 18c-4.42 0-8-3.58-8-8s3.58-8 8-8 8 3.58 8 8-3.58 8-8 8zm0-11.5c-.91 0-2.75.46-2.75 1.38v4.62h1.5V19h2.5v-4.5h1.5V9.88c0-.91-1.84-1.38-2.75-1.38z"/><circle cx="12" cy="6.5" r="1.5"/></svg>