<svg xmlns="http://www.w3.org/2000/svg" height="24" viewBox="0 0 24 24" width="24"><path d="M0 0h24v24H0V0z" fill="none"/><path d="M20 15.31l2.6-2.6c.39-.39.39-1.02 0-1.41L20 8.69V5c0-.55-.45-1-1-1h-3.69l-2.6-2.6c-.39-.39-1.02-.39-1.41 0L8.69 4H5c-.55 0-1 .45-1 1v3.69l-2.6 2.6c-.39.39-.39 1.02 0 1.41L4 15.3V19c0 .55.45 1 1 1h3.69l2.6 2.6c.39.39 1.02.39 1.41 0l2.6-2.6H19c.55 0 1-.45 1-1v-3.69zm-8 1.59V7.1c0-.61.55-1.11 1.15-.99C15.91 6.65 18 9.08 18 12s-2.09 5.35-4.85 5.89c-.6.12-1.15-.38-1.15-.99z"/></svg>