<svg xmlns="http://www.w3.org/2000/svg" enable-background="new 0 0 24 24" height="24" viewBox="0 0 24 24" width="24"><rect fill="none" height="24" width="24"/><path d="M16.99,5l0.63,1.37L18.99,7l-1.37,0.63L16.99,9l-0.63-1.37L14.99,7l1.37-0.63L16.99,5 M11,6.13V4h2 c0.57,0,1.1,0.17,1.55,0.45l1.43-1.43C15.15,2.39,14.13,2,13,2c-1.48,0-5.5,0-5.5,0v2H9v2.14C7.23,6.51,5.81,7.8,5.26,9.5h3.98 L15,11.65v-0.62C15,8.61,13.28,6.59,11,6.13z M1,22h4V11H1V22z M20,17h-7l-2.09-0.73l0.33-0.94L13,16h2.82 c0.65,0,1.18-0.53,1.18-1.18l0,0c0-0.49-0.31-0.93-0.77-1.11L8.97,11H7v9.02L14,22l8-3l0,0C21.99,17.9,21.11,17,20,17z M20,14 c1.1,0,2-0.9,2-2c0-1.1-2-4-2-4s-2,2.9-2,4C18,13.1,18.9,14,20,14z"/></svg>