<svg xmlns="http://www.w3.org/2000/svg" enable-background="new 0 0 24 24" height="24" viewBox="0 0 24 24" width="24"><rect fill="none" height="24" width="24"/><path d="M20.49,20.49L3.51,3.51c-0.39-0.39-1.02-0.39-1.41,0l0,0c-0.39,0.39-0.39,1.02,0,1.41L3,5.83V19c0,1.1,0.9,2,2,2h13.17 l0.9,0.9c0.39,0.39,1.02,0.39,1.41,0l0,0C20.88,21.51,20.88,20.88,20.49,20.49z M5,19V7.83L16.17,19H5z M17,8V5h2v11.17l2,2V5 c0-1.1-0.9-2-2-2h-4.18C14.4,1.84,13.3,1,12,1S9.6,1.84,9.18,3H5.83l5,5H17z M12,3c0.55,0,1,0.45,1,1s-0.45,1-1,1s-1-0.45-1-1 S11.45,3,12,3z"/></svg>