<svg xmlns="http://www.w3.org/2000/svg" height="24" viewBox="0 0 24 24" width="24"><path d="M0 0h24v24H0V0z" fill="none"/><path d="M3 5v3c0 .55.45 1 1 1s1-.45 1-1V6c0-.55.45-1 1-1h2c.55 0 1-.45 1-1s-.45-1-1-1H5c-1.1 0-2 .9-2 2zm1 10c-.55 0-1 .45-1 1v3c0 1.1.9 2 2 2h3c.55 0 1-.45 1-1s-.45-1-1-1H6c-.55 0-1-.45-1-1v-2c0-.55-.45-1-1-1zm15 3c0 .55-.45 1-1 1h-2c-.55 0-1 .45-1 1s.45 1 1 1h3c1.1 0 2-.9 2-2v-3c0-.55-.45-1-1-1s-1 .45-1 1v2zm0-15h-3c-.55 0-1 .45-1 1s.45 1 1 1h2c.55 0 1 .45 1 1v2c0 .55.45 1 1 1s1-.45 1-1V5c0-1.1-.9-2-2-2z"/></svg>