<svg xmlns="http://www.w3.org/2000/svg" enable-background="new 0 0 24 24" height="24" viewBox="0 0 24 24" width="24"><g><rect fill="none" height="24" width="24" y="0"/></g><g><g><path d="M4,13v1h4v-3H6C4.9,11,4,11.9,4,13z" enable-background="new" opacity=".3"/><path d="M19,7c0-1.1-0.9-2-2-2h-3v2h3v2.65L13.52,14H10V9H6c-2.21,0-4,1.79-4,4v3h2c0,1.66,1.34,3,3,3s3-1.34,3-3h4.48L19,10.35V7 z M7,17c-0.55,0-1-0.45-1-1h2C8,16.55,7.55,17,7,17z M8,14H4v-1c0-1.1,0.9-2,2-2h2V14z"/><rect height="2" width="5" x="5" y="6"/><path d="M19,13c-1.66,0-3,1.34-3,3s1.34,3,3,3s3-1.34,3-3S20.66,13,19,13z M19,17c-0.55,0-1-0.45-1-1s0.45-1,1-1s1,0.45,1,1 S19.55,17,19,17z"/></g></g></svg>