<svg xmlns="http://www.w3.org/2000/svg" enable-background="new 0 0 24 24" height="24" viewBox="0 0 24 24" width="24"><rect fill="none" height="24" width="24"/><g><path d="M17.58,6.25l1.77,1.77L14.37,13H12.6v-1.77L17.58,6.25z M20.85,5.81l-1.06-1.06c-0.2-0.2-0.51-0.2-0.71,0l-0.85,0.85 l1.77,1.77l0.85-0.85C21.05,6.32,21.05,6,20.85,5.81z M18,12.2V17h2v2H4v-2h2v-7c0-2.79,1.91-5.14,4.5-5.8V2h3v2.2 c0.82,0.21,1.57,0.59,2.21,1.09L10.6,10.4V15h4.6L18,12.2z M10,20h4c0,1.1-0.9,2-2,2S10,21.1,10,20z"/></g></svg>