<svg xmlns="http://www.w3.org/2000/svg" enable-background="new 0 0 24 24" height="24" viewBox="0 0 24 24" width="24"><g><rect fill="none" height="24" width="24" y="0"/></g><g><path d="M12,2c-4.2,0-8,3.22-8,8.2c0,3.18,2.45,6.92,7.34,11.23c0.38,0.33,0.95,0.33,1.33,0C17.55,17.12,20,13.38,20,10.2 C20,5.22,16.2,2,12,2z M9.73,13.5H8.5v-1.44l3.93-3.92l1.43,1.43l-3.77,3.78C9.99,13.45,9.87,13.5,9.73,13.5z M15.28,8.16l-0.7,0.7 l-1.44-1.44l0.7-0.7c0.15-0.15,0.39-0.15,0.54,0l0.9,0.9C15.43,7.77,15.43,8.01,15.28,8.16z"/></g></svg>