<svg xmlns="http://www.w3.org/2000/svg" enable-background="new 0 0 24 24" height="24" viewBox="0 0 24 24" width="24"><g><rect fill="none" height="24" width="24"/></g><g><path d="M2,2v20h20V2H2z M11.86,16.96c0.76-0.24,1.4-1.04,1.53-1.63c0.13-0.56-0.1-1.05-0.2-1.6c-0.08-0.46-0.07-0.85,0.08-1.28 c0.54,1.21,2.15,1.64,1.98,3.18C15.06,17.33,13.14,18.01,11.86,16.96z M20,20h-2v-2h-2.02c0.63-0.84,1.02-1.87,1.02-3 c0-1.89-1.09-2.85-1.85-3.37C12.2,9.61,13,7,13,7c-6.73,3.57-6.02,7.47-6,8c0.03,0.96,0.49,2.07,1.23,3H6v2H4V4h16V20z"/></g></svg>