<svg xmlns="http://www.w3.org/2000/svg" enable-background="new 0 0 24 24" height="24" viewBox="0 0 24 24" width="24"><g><rect fill="none" height="24" width="24"/></g><g><g><path d="M18,13c0,3.31-2.69,6-6,6s-6-2.69-6-6s2.69-6,6-6v4l5-5l-5-5v4c-4.42,0-8,3.58-8,8c0,4.42,3.58,8,8,8s8-3.58,8-8H18z"/><polygon points="10.86,15.94 10.86,11.67 10.77,11.67 9,12.3 9,12.99 10.01,12.68 10.01,15.94"/><path d="M12.25,13.44v0.74c0,1.9,1.31,1.82,1.44,1.82c0.14,0,1.44,0.09,1.44-1.82v-0.74c0-1.9-1.31-1.82-1.44-1.82 C13.55,11.62,12.25,11.53,12.25,13.44z M14.29,13.32v0.97c0,0.77-0.21,1.03-0.59,1.03c-0.38,0-0.6-0.26-0.6-1.03v-0.97 c0-0.75,0.22-1.01,0.59-1.01C14.07,12.3,14.29,12.57,14.29,13.32z"/></g></g></svg>