<svg xmlns="http://www.w3.org/2000/svg" enable-background="new 0 0 24 24" height="24" viewBox="0 0 24 24" width="24"><g><rect fill="none" height="24" width="24"/></g><g><g><path d="M18,13c0,3.31-2.69,6-6,6s-6-2.69-6-6s2.69-6,6-6v4l5-5l-5-5v4c-4.42,0-8,3.58-8,8c0,4.42,3.58,8,8,8c4.42,0,8-3.58,8-8 H18z"/><path d="M12.03,15.38c-0.44,0-0.58-0.31-0.6-0.56h-0.84c0.03,0.85,0.79,1.25,1.44,1.25c0.93,0,1.44-0.63,1.44-1.43 c0-1.33-0.97-1.44-1.3-1.44c-0.2,0-0.43,0.05-0.64,0.16l0.11-0.92h1.7v-0.71h-2.39l-0.25,2.17l0.67,0.17 c0.13-0.13,0.28-0.23,0.57-0.23c0.4,0,0.69,0.23,0.69,0.75C12.62,14.64,12.65,15.38,12.03,15.38z"/></g></g></svg>