<svg xmlns="http://www.w3.org/2000/svg" enable-background="new 0 0 24 24" height="24" viewBox="0 0 24 24" width="24"><g><path d="M0,0h24v24H0V0z" fill="none"/></g><g><path d="M11.3,2.26l-6,2.25C4.52,4.81,4,5.55,4,6.39v4.7c0,5.05,3.41,9.76,8,10.91c4.59-1.15,8-5.86,8-10.91v-4.7 c0-0.83-0.52-1.58-1.3-1.87l-6-2.25C12.25,2.09,11.75,2.09,11.3,2.26z M12,16L12,16c-0.55,0-1-0.45-1-1v0c0-0.55,0.45-1,1-1h0 c0.55,0,1,0.45,1,1v0C13,15.55,12.55,16,12,16z M12,12L12,12c-0.55,0-1-0.45-1-1V8c0-0.55,0.45-1,1-1h0c0.55,0,1,0.45,1,1v3 C13,11.55,12.55,12,12,12z"/></g></svg>