<svg xmlns="http://www.w3.org/2000/svg" height="24" viewBox="0 0 24 24" width="24"><path d="M0 0h24v24H0V0z" fill="none"/><path d="M20 6h-4.05l-.59-.65L14.12 4H9.88L8.65 5.35l-.6.65H4v12h16V6zm-8 11c-2.76 0-5-2.24-5-5s2.24-5 5-5 5 2.24 5 5-2.24 5-5 5z" opacity=".3"/><path d="M4 20h16c1.1 0 2-.9 2-2V6c0-1.1-.9-2-2-2h-3.17L15 2H9L7.17 4H4c-1.1 0-2 .9-2 2v12c0 1.1.9 2 2 2zM4 6h4.05l.59-.65L9.88 4h4.24l1.24 1.35.59.65H20v12H4V6zm8 1c-2.76 0-5 2.24-5 5s2.24 5 5 5 5-2.24 5-5-2.24-5-5-5zm0 8.2c-1.77 0-3.2-1.43-3.2-3.2 0-1.77 1.43-3.2 3.2-3.2s3.2 1.43 3.2 3.2c0 1.77-1.43 3.2-3.2 3.2z"/></svg>