<svg xmlns="http://www.w3.org/2000/svg" enable-background="new 0 0 24 24" height="24" viewBox="0 0 24 24" width="24"><g><rect fill="none" height="24" width="24" y="0"/></g><g><path d="M19.48,12.37C17.82,8.05,11.65,8,13.99,0.99C9.52,3,5.98,8.17,9.48,15C4.53,12.92,6.7,7.71,6.7,7.71S4,9.37,4,14.39 c0.38,5.6,5.11,7.32,6.81,7.54c2.43,0.31,5.06-0.14,6.95-1.87C19.84,18.13,20.6,15.05,19.48,12.37z M10.2,17.4 c1.44-0.35,2.18-1.39,2.38-2.31c0.33-1.43-0.96-2.83-0.09-5.09c0.33,1.87,3.27,3.04,3.27,5.08C15.84,17.61,13.1,19.78,10.2,17.4z"/></g></svg>