<svg xmlns="http://www.w3.org/2000/svg" enable-background="new 0 0 24 24" height="24" viewBox="0 0 24 24" width="24"><g><rect fill="none" height="24" width="24" y="0"/></g><g><path d="M9.64,16.36c1.3,1.3,3.42,1.3,4.72,0c1.3-1.3,1.3-3.42,0-4.72L9.64,16.36z M18,2.01L6,2C4.89,2,4,2.89,4,4v16 c0,1.11,0.89,2,2,2h12c1.11,0,2-0.89,2-2V4C20,2.89,19.11,2.01,18,2.01z M11,5c0.55,0,1,0.45,1,1s-0.45,1-1,1s-1-0.45-1-1 S10.45,5,11,5z M8,5c0.55,0,1,0.45,1,1S8.55,7,8,7S7,6.55,7,6S7.45,5,8,5z M12,19c-2.76,0-5-2.24-5-5c0-2.76,2.24-5,5-5s5,2.24,5,5 C17,16.76,14.76,19,12,19z"/></g></svg>