<svg xmlns="http://www.w3.org/2000/svg" enable-background="new 0 0 24 24" height="24" viewBox="0 0 24 24" width="24"><g><path d="M0,0h24v24H0V0z" fill="none"/></g><g><g><path d="M10.67,13.02C10.45,13.01,10.23,13,10,13c-2.42,0-4.68,0.67-6.61,1.82C2.51,15.34,2,16.32,2,17.35V19c0,0.55,0.45,1,1,1 h8.26C10.47,18.87,10,17.49,10,16C10,14.93,10.25,13.93,10.67,13.02z"/><circle cx="10" cy="8" r="4"/><path d="M20.75,16c0-0.22-0.03-0.42-0.06-0.63l0.84-0.73c0.18-0.16,0.22-0.42,0.1-0.63l-0.59-1.02c-0.12-0.21-0.37-0.3-0.59-0.22 l-1.06,0.36c-0.32-0.27-0.68-0.48-1.08-0.63l-0.22-1.09c-0.05-0.23-0.25-0.4-0.49-0.4h-1.18c-0.24,0-0.44,0.17-0.49,0.4 l-0.22,1.09c-0.4,0.15-0.76,0.36-1.08,0.63l-1.06-0.36c-0.23-0.08-0.47,0.02-0.59,0.22l-0.59,1.02c-0.12,0.21-0.08,0.47,0.1,0.63 l0.84,0.73c-0.03,0.21-0.06,0.41-0.06,0.63s0.03,0.42,0.06,0.63l-0.84,0.73c-0.18,0.16-0.22,0.42-0.1,0.63l0.59,1.02 c0.12,0.21,0.37,0.3,0.59,0.22l1.06-0.36c0.32,0.27,0.68,0.48,1.08,0.63l0.22,1.09c0.05,0.23,0.25,0.4,0.49,0.4h1.18 c0.24,0,0.44-0.17,0.49-0.4l0.22-1.09c0.4-0.15,0.76-0.36,1.08-0.63l1.06,0.36c0.23,0.08,0.47-0.02,0.59-0.22l0.59-1.02 c0.12-0.21,0.08-0.47-0.1-0.63l-0.84-0.73C20.72,16.42,20.75,16.22,20.75,16z M17,18c-1.1,0-2-0.9-2-2s0.9-2,2-2s2,0.9,2,2 S18.1,18,17,18z"/></g></g></svg>