<svg xmlns="http://www.w3.org/2000/svg" enable-background="new 0 0 24 24" height="24" viewBox="0 0 24 24" width="24"><g><rect fill="none" height="24" width="24"/><rect fill="none" height="24" width="24"/></g><g><g><path d="M20,6h-4V4c0-1.1-0.9-2-2-2h-4C8.9,2,8,2.9,8,4v2H4C2.9,6,2,6.9,2,8v12c0,1.1,0.9,2,2,2h16c1.1,0,2-0.9,2-2V8 C22,6.9,21.1,6,20,6z M10,4h4v2h-4V4z M15,15h-2v2c0,0.55-0.45,1-1,1s-1-0.45-1-1v-2H9c-0.55,0-1-0.45-1-1c0-0.55,0.45-1,1-1h2v-2 c0-0.55,0.45-1,1-1s1,0.45,1,1v2h2c0.55,0,1,0.45,1,1C16,14.55,15.55,15,15,15z"/></g></g></svg>