<svg xmlns="http://www.w3.org/2000/svg" enable-background="new 0 0 24 24" height="24" viewBox="0 0 24 24" width="24"><g><rect fill="none" height="24" width="24"/></g><g><g><path d="M2.81,2.81L1.39,4.22l2.27,2.27C2.61,8.07,2,9.96,2,12c0,5.52,4.48,10,10,10c2.04,0,3.93-0.61,5.51-1.66l2.27,2.27 l1.41-1.42L2.81,2.81z M12,20c-4.41,0-8-3.59-8-8c0-1.48,0.41-2.86,1.12-4.06l10.93,10.94C14.86,19.59,13.48,20,12,20z"/><path d="M12,4c4.41,0,8,3.59,8,8c0,1.48-0.41,2.86-1.12,4.05l1.45,1.45C21.39,15.93,22,14.04,22,12c0-5.52-4.48-10-10-10 C9.96,2,8.07,2.61,6.49,3.66l1.45,1.45C9.14,4.41,10.52,4,12,4z"/></g></g></svg>