<svg xmlns="http://www.w3.org/2000/svg" enable-background="new 0 0 24 24" height="24" viewBox="0 0 24 24" width="24"><g><rect fill="none" height="24" width="24"/><path d="M10.94,8.12L7.48,4.66L9,3h6l1.83,2H20c1.1,0,2,0.9,2,2v12c0,0.05-0.01,0.1-0.02,0.16l-5.1-5.1C16.96,13.71,17,13.36,17,13 c0-2.76-2.24-5-5-5C11.64,8,11.29,8.04,10.94,8.12z M20.49,23.31L18.17,21H4c-1.1,0-2-0.9-2-2V7c0-0.59,0.27-1.12,0.68-1.49l-2-2 L2.1,2.1l19.8,19.8L20.49,23.31z M14.49,17.32l-1.5-1.5C12.67,15.92,12.35,16,12,16c-1.66,0-3-1.34-3-3c0-0.35,0.08-0.67,0.19-0.98 l-1.5-1.5C7.25,11.24,7,12.09,7,13c0,2.76,2.24,5,5,5C12.91,18,13.76,17.75,14.49,17.32z"/></g></svg>