<svg xmlns="http://www.w3.org/2000/svg" height="24" viewBox="0 0 24 24" width="24"><path d="M0 0h24v24H0z" fill="none"/><path d="M21.4 11.32v2.93c-.1.05-2.17.85-3.33 1.17-.94.26-3.84.73-6.07.73-3.7 0-7-.7-9.16-1.8-.08-.04-.16-.06-.24-.1V9.76c6.02-2.84 12.6-2.92 18.8 0v1.56zm-9.39 8.88c-2.5 0-4.87-1.15-6.41-3.12 4.19 1.22 8.57 1.23 12.82-.01-1.54 1.97-3.9 3.13-6.41 3.13zM12 3.8c2.6 0 4.91 1.23 6.41 3.12-4.1-1.19-8.48-1.26-12.83.01C7.08 5.03 9.4 3.8 12 3.8zm10.49 4.71c-.47-.23-.93-.44-1.4-.64C19.52 4.41 16.05 2 12 2S4.47 4.41 2.9 7.88c-.47.2-.93.41-1.4.63-.31.15-.5.48-.5.83v5.32c0 .35.19.68.51.83.47.23.93.44 1.39.64 3.55 7.83 14.65 7.82 18.2 0 .47-.2.93-.41 1.39-.63.31-.17.51-.49.51-.84V9.34c0-.35-.19-.68-.51-.83z"/></svg>