<svg xmlns="http://www.w3.org/2000/svg" enable-background="new 0 0 24 24" height="24" viewBox="0 0 24 24" width="24"><rect fill="none" height="24" width="24"/><g><path d="M8.65,5.82C9.36,4.72,10.6,4,12,4c2.21,0,4,1.79,4,4c0,1.4-0.72,2.64-1.82,3.35L8.65,5.82z M20,17.17 c-0.02-1.1-0.63-2.11-1.61-2.62c-0.54-0.28-1.13-0.54-1.77-0.76L20,17.17z M20.49,20.49L3.51,3.51c-0.39-0.39-1.02-0.39-1.41,0l0,0 c-0.39,0.39-0.39,1.02,0,1.41l8.18,8.18c-1.82,0.23-3.41,0.8-4.7,1.46C4.6,15.08,4,16.11,4,17.22L4,20h13.17l1.9,1.9 c0.39,0.39,1.02,0.39,1.41,0l0,0C20.88,21.51,20.88,20.88,20.49,20.49z"/></g></svg>