<svg xmlns="http://www.w3.org/2000/svg" enable-background="new 0 0 24 24" height="24" version="1" viewBox="0 0 24 24" width="24"><path d="M18.5,10.2c0,2.57-2.1,5.79-6.16,9.51L12,20.01l-0.34-0.31C7.6,15.99,5.5,12.77,5.5,10.2 c0-3.84,2.82-6.7,6.5-6.7S18.5,6.35,18.5,10.2z" fill-opacity=".3"/><path d="M12,2c4.2,0,8,3.22,8,8.2c0,3.32-2.67,7.25-8,11.8c-5.33-4.55-8-8.48-8-11.8C4,5.22,7.8,2,12,2z M18,10.2 C18,6.57,15.35,4,12,4s-6,2.57-6,6.2c0,2.34,1.95,5.44,6,9.14C16.05,15.64,18,12.54,18,10.2z M12,12c-1.1,0-2-0.9-2-2s0.9-2,2-2 s2,0.9,2,2S13.1,12,12,12z"/><path d="M0,0h24v24H0V0z" fill="none"/></svg>