<svg xmlns="http://www.w3.org/2000/svg" enable-background="new 0 0 24 24" height="24" viewBox="0 0 24 24" width="24"><g><rect fill="none" height="24" width="24"/></g><g><g/><g><path d="M12,1L3,5v6c0,5.55,3.84,10.74,9,12c5.16-1.26,9-6.45,9-12V5L12,1z M19,11c0,1.85-0.51,3.65-1.38,5.21l-1.45-1.45 c1.29-1.94,1.07-4.58-0.64-6.29c-1.95-1.95-5.12-1.95-7.07,0c-1.95,1.95-1.95,5.12,0,7.07c1.71,1.71,4.35,1.92,6.29,0.64 l1.72,1.72c-1.19,1.42-2.73,2.51-4.47,3.04C7.98,19.69,5,15.52,5,11V6.3l7-3.11l7,3.11V11z M12,15c-1.66,0-3-1.34-3-3s1.34-3,3-3 s3,1.34,3,3S13.66,15,12,15z"/></g></g></svg>