<svg xmlns="http://www.w3.org/2000/svg" enable-background="new 0 0 24 24" height="24" viewBox="0 0 24 24" width="24"><g><rect fill="none" height="24" width="24"/></g><g><g><path d="M14,4h-4v5c0,1.1-0.35,2.14-1,3h6c-0.63-0.84-1-1.88-1-3V4z" opacity=".3"/><path d="M19,12c-1.66,0-3-1.34-3-3V4l1,0c0,0,0,0,0,0c0.55,0,1-0.45,1-1s-0.45-1-1-1H7C6.45,2,6,2.45,6,3s0.45,1,1,1c0,0,0,0,0,0 l1,0v5c0,1.66-1.34,3-3,3v2h5.97v7l1,1l1-1v-7H19L19,12C19,12,19,12,19,12z M9,12c0.65-0.86,1-1.9,1-3V4h4v5c0,1.12,0.37,2.16,1,3 H9z"/></g></g></svg>