<svg xmlns="http://www.w3.org/2000/svg" enable-background="new 0 0 24 24" height="24" viewBox="0 0 24 24" width="24"><g><rect fill="none" height="24" width="24"/></g><g><g><rect height="1" width="2" x="15.5" y="10.5"/><path d="M20,4H4C2.9,4,2,4.9,2,6v12c0,1.1,0.9,2,2,2h16c1.1,0,2-0.9,2-2V6C22,4.9,21.1,4,20,4z M10,10.5H6.5v0.75H9 c0.55,0,1,0.45,1,1V14c0,0.55-0.45,1-1,1H5v-1.5h3.5v-0.75H6c-0.55,0-1-0.45-1-1V10c0-0.55,0.45-1,1-1h4V10.5z M13,15h-2V9h2V15z M19,12c0,0.55-0.45,1-1,1h-2.5v2H14V9h4c0.55,0,1,0.45,1,1V12z"/></g></g></svg>