<svg xmlns="http://www.w3.org/2000/svg" enable-background="new 0 0 24 24" height="24" viewBox="0 0 24 24" width="24"><g><rect fill="none" height="24" width="24"/><rect fill="none" height="24" width="24"/></g><g><g><g><path d="M17.09,11h4.86c-0.16-1.61-0.71-3.11-1.54-4.4C18.68,7.43,17.42,9.05,17.09,11z"/></g><g><path d="M6.91,11C6.58,9.05,5.32,7.43,3.59,6.6C2.76,7.89,2.21,9.39,2.05,11H6.91z"/></g><g><path d="M15.07,11c0.32-2.59,1.88-4.79,4.06-6c-1.6-1.63-3.74-2.71-6.13-2.95V11H15.07z"/></g><g><path d="M8.93,11H11V2.05C8.61,2.29,6.46,3.37,4.87,5C7.05,6.21,8.61,8.41,8.93,11z"/></g><g><path d="M15.07,13H13v8.95c2.39-0.24,4.54-1.32,6.13-2.95C16.95,17.79,15.39,15.59,15.07,13z"/></g><g><path d="M3.59,17.4c1.72-0.83,2.99-2.46,3.32-4.4H2.05C2.21,14.61,2.76,16.11,3.59,17.4z"/></g><g><path d="M17.09,13c0.33,1.95,1.59,3.57,3.32,4.4c0.83-1.29,1.38-2.79,1.54-4.4H17.09z"/></g><g><path d="M8.93,13c-0.32,2.59-1.88,4.79-4.06,6c1.6,1.63,3.74,2.71,6.13,2.95V13H8.93z"/></g></g></g></svg>