<svg xmlns="http://www.w3.org/2000/svg" enable-background="new 0 0 24 24" height="24" viewBox="0 0 24 24" width="24"><g><rect fill="none" height="24" width="24"/></g><g><g><path d="M20.49,3.51c-0.56-0.56-2.15-0.97-4.16-0.97c-3.08,0-7.15,0.96-9.98,3.79C1.66,11.03,2.1,19.07,3.51,20.49 c0.56,0.56,2.15,0.97,4.16,0.97c3.08,0,7.15-0.96,9.98-3.79C22.34,12.97,21.9,4.93,20.49,3.51z M7.76,7.76 c2.64-2.64,6.35-3.12,8.03-3.19c-2.05,0.94-4.46,2.45-6.61,4.61c-2.16,2.16-3.67,4.58-4.61,6.63C4.66,13.33,5.44,10.07,7.76,7.76z M16.24,16.24c-2.64,2.64-6.35,3.12-8.03,3.19c2.05-0.94,4.46-2.45,6.61-4.61c2.16-2.16,3.67-4.58,4.62-6.63 C19.34,10.67,18.56,13.93,16.24,16.24z"/></g></g></svg>