<svg xmlns="http://www.w3.org/2000/svg" height="24" viewBox="0 0 24 24" width="24"><path d="M7.24 8.75c-.26-.48-.39-1.03-.39-1.67 0-.61.13-1.16.4-1.67.26-.5.63-.93 1.11-1.29.48-.35 1.05-.63 1.7-.83.66-.19 1.39-.29 2.18-.29.81 0 1.54.11 2.21.34.66.22 1.23.54 1.69.94.47.4.83.88 1.08 1.43s.38 1.15.38 1.81h-3.01c0-.31-.05-.59-.15-.85-.09-.27-.24-.49-.44-.68-.2-.19-.45-.33-.75-.44-.3-.1-.66-.16-1.06-.16-.39 0-.74.04-1.03.13s-.53.21-.72.36c-.19.16-.34.34-.44.55-.1.21-.15.43-.15.66 0 .48.25.88.74 1.21.38.25.77.48 1.41.7H7.39c-.05-.08-.11-.17-.15-.25zM21 12v-2H3v2h9.62c.18.07.4.14.55.2.37.17.66.34.87.51s.35.36.43.57c.07.2.11.43.11.69 0 .23-.05.45-.14.66-.09.2-.23.38-.42.53-.19.15-.42.26-.71.35-.29.08-.63.13-1.01.13-.43 0-.83-.04-1.18-.13s-.66-.23-.91-.42c-.25-.19-.45-.44-.59-.75s-.25-.76-.25-1.21H6.4c0 .55.08 1.13.24 1.58s.37.85.65 1.21c.28.35.6.66.98.92.37.26.78.48 1.22.65.44.17.9.3 1.38.39.48.08.96.13 1.44.13.8 0 1.53-.09 2.18-.28s1.21-.45 1.67-.79c.46-.34.82-.77 1.07-1.27s.38-1.07.38-1.71c0-.6-.1-1.14-.31-1.61-.05-.11-.11-.23-.17-.33H21V12z"/></svg>