<svg xmlns="http://www.w3.org/2000/svg" enable-background="new 0 0 24 24" height="24" viewBox="0 0 24 24" width="24"><g><path d="M0,0h24v24H0V0z" fill="none"/></g><g><g><path d="M14,5H5v14h14v-9h-5V5z M8,17c-0.55,0-1-0.45-1-1s0.45-1,1-1s1,0.45,1,1S8.55,17,8,17z M8,13 c-0.55,0-1-0.45-1-1s0.45-1,1-1s1,0.45,1,1S8.55,13,8,13z M8,9C7.45,9,7,8.55,7,8s0.45-1,1-1s1,0.45,1,1S8.55,9,8,9z" opacity=".3"/><circle cx="8" cy="8" r="1"/><path d="M15,3H5C3.9,3,3.01,3.9,3.01,5L3,19c0,1.1,0.89,2,1.99,2H19c1.1,0,2-0.9,2-2V9L15,3z M19,19H5V5h9v5h5V19z"/><circle cx="8" cy="12" r="1"/><circle cx="8" cy="16" r="1"/></g></g></svg>