<svg xmlns="http://www.w3.org/2000/svg" height="24" viewBox="0 0 24 24" width="24"><path d="M0 0h24v24H0V0z" fill="none"/><circle cx="9" cy="8.5" opacity=".3" r="1.5"/><path d="M4.77 17h4.28c.01-.06.12-.58.29-.99-.11 0-.23-.01-.34-.01-1.53 0-3.25.5-4.23 1z" opacity=".3"/><path d="M9 12c1.93 0 3.5-1.57 3.5-3.5S10.93 5 9 5 5.5 6.57 5.5 8.5 7.07 12 9 12zm0-5c.83 0 1.5.67 1.5 1.5S9.83 10 9 10s-1.5-.67-1.5-1.5S8.17 7 9 7zm.05 10H4.77c.99-.5 2.7-1 4.23-1 .11 0 .23.01.34.01.34-.73.93-1.33 1.64-1.81-.73-.13-1.42-.2-1.98-.2-2.34 0-7 1.17-7 3.5V19h7v-1.5c0-.17.02-.34.05-.5zm7.45-2.5c-1.84 0-5.5 1.01-5.5 3V19h11v-1.5c0-1.99-3.66-3-5.5-3zm1.21-1.82c.76-.43 1.29-1.24 1.29-2.18C19 9.12 17.88 8 16.5 8S14 9.12 14 10.5c0 .94.53 1.75 1.29 2.18.36.2.77.32 1.21.32s.85-.12 1.21-.32z"/></svg>