<svg xmlns="http://www.w3.org/2000/svg" enable-background="new 0 0 24 24" height="24" viewBox="0 0 24 24" width="24"><g><rect fill="none" height="24" width="24"/><rect fill="none" height="24" width="24"/><rect fill="none" height="24" width="24"/></g><g><path d="M22,4H2v16h20V4z M7.76,16.24l-1.41,1.41C4.78,16.1,4,14.05,4,12s0.78-4.1,2.34-5.66l1.41,1.41C6.59,8.93,6,10.46,6,12 S6.59,15.07,7.76,16.24z M12,16c-2.21,0-4-1.79-4-4s1.79-4,4-4s4,1.79,4,4S14.21,16,12,16z M17.66,17.66l-1.41-1.41 C17.41,15.07,18,13.54,18,12s-0.59-3.07-1.76-4.24l1.41-1.41C19.22,7.9,20,9.95,20,12S19.22,16.1,17.66,17.66z M12,10 c-1.1,0-2,0.9-2,2s0.9,2,2,2s2-0.9,2-2S13.1,10,12,10z"/></g></svg>