<svg xmlns="http://www.w3.org/2000/svg" enable-background="new 0 0 24 24" height="24" viewBox="0 0 24 24" width="24"><g><rect fill="none" height="24" width="24"/></g><g><path d="M17,20H4V7c0-0.55-0.45-1-1-1S2,6.45,2,7v13c0,1.1,0.9,2,2,2h13c0.55,0,1-0.45,1-1S17.55,20,17,20z M20,2H8 C6.9,2,6,2.9,6,4v12c0,1.1,0.9,2,2,2h12c1.1,0,2-0.9,2-2V4C22,2.9,21.1,2,20,2z M14,5c1.66,0,3,1.34,3,3c0,1.66-1.34,3-3,3 s-3-1.34-3-3C11,6.34,12.34,5,14,5z M7.76,16c1.47-1.83,3.71-3,6.24-3s4.77,1.17,6.24,3H7.76z"/></g></svg>