<svg xmlns="http://www.w3.org/2000/svg" enable-background="new 0 0 24 24" height="24" viewBox="0 0 24 24" width="24"><g><rect fill="none" height="24" width="24"/></g><g><g><circle cx="19" cy="6.5" r="1"/><circle cx="15" cy="6.5" r="1"/><path d="M16.99,9c-1.38,0-2.5,0.84-2.5,1.88h5C19.49,9.84,18.37,9,16.99,9z"/><path d="M1,16c0,3.31,2.69,6,6,6s6-2.69,6-6V9H1V16z M3,11h8v5c0,2.21-1.79,4-4,4s-4-1.79-4-4V11z"/><path d="M11,2v5.5h2V4h8v5c0,2.21-1.79,4-4,4c-0.95,0-1.81-0.35-2.5-0.9v2.35C15.26,14.8,16.11,15,17,15c3.31,0,6-2.69,6-6V2H11z"/><circle cx="5" cy="13.5" r="1"/><circle cx="9" cy="13.5" r="1"/><path d="M7,17.88c1.38,0,2.5-0.84,2.5-1.88h-5C4.5,17.04,5.62,17.88,7,17.88z"/></g></g></svg>