<svg xmlns="http://www.w3.org/2000/svg" enable-background="new 0 0 24 24" height="24" viewBox="0 0 24 24" width="24"><g><rect fill="none" height="24" width="24"/></g><g><g><path d="M2,16.5C2,19.54,4.46,22,7.5,22s5.5-2.46,5.5-5.5V10H2V16.5z M7.5,18.5C6.12,18.5,5,17.83,5,17h5 C10,17.83,8.88,18.5,7.5,18.5z M10,13c0.55,0,1,0.45,1,1c0,0.55-0.45,1-1,1s-1-0.45-1-1C9,13.45,9.45,13,10,13z M5,13 c0.55,0,1,0.45,1,1c0,0.55-0.45,1-1,1s-1-0.45-1-1C4,13.45,4.45,13,5,13z"/><path d="M11,3v6h3v2.5c0-0.83,1.12-1.5,2.5-1.5c1.38,0,2.5,0.67,2.5,1.5h-5V14v0.39c0.75,0.38,1.6,0.61,2.5,0.61 c3.04,0,5.5-2.46,5.5-5.5V3H11z M14,8.08c-0.55,0-1-0.45-1-1c0-0.55,0.45-1,1-1s1,0.45,1,1C15,7.64,14.55,8.08,14,8.08z M19,8.08 c-0.55,0-1-0.45-1-1c0-0.55,0.45-1,1-1s1,0.45,1,1C20,7.64,19.55,8.08,19,8.08z"/></g></g></svg>