<svg xmlns="http://www.w3.org/2000/svg" enable-background="new 0 0 24 24" height="24" viewBox="0 0 24 24" width="24"><g><rect fill="none" height="24" width="24"/></g><g><g><path d="M18.19,12.44l-3.24-1.62c1.29-1,2.12-2.56,2.12-4.32c0-3.03-2.47-5.5-5.5-5.5s-5.5,2.47-5.5,5.5c0,2.13,1.22,3.98,3,4.89 v3.26c-2.15-0.46-2.02-0.44-2.26-0.44c-0.53,0-1.03,0.21-1.41,0.59L4,16.22l5.09,5.09C9.52,21.75,10.12,22,10.74,22h6.3 c0.98,0,1.81-0.7,1.97-1.67l0.8-4.71C20.03,14.32,19.38,13.04,18.19,12.44z M17.84,15.29L17.04,20h-6.3 c-0.09,0-0.17-0.04-0.24-0.1l-3.68-3.68l4.25,0.89V6.5c0-0.28,0.22-0.5,0.5-0.5c0.28,0,0.5,0.22,0.5,0.5v6h1.76l3.46,1.73 C17.69,14.43,17.91,14.86,17.84,15.29z M8.07,6.5c0-1.93,1.57-3.5,3.5-3.5s3.5,1.57,3.5,3.5c0,0.95-0.38,1.81-1,2.44V6.5 c0-1.38-1.12-2.5-2.5-2.5c-1.38,0-2.5,1.12-2.5,2.5v2.44C8.45,8.31,8.07,7.45,8.07,6.5z"/></g></g></svg>