<svg height="28" width="92" xmlns="http://www.w3.org/2000/svg"><g fill="#001e3c" fill-rule="evenodd"><path d="M57.08 21.85c-5.35 3.97-13.1 6.09-19.77 6.09a35.61 35.61 0 01-24.15-9.29c-.5-.45-.05-1.07.55-.72a48.31 48.31 0 0024.16 6.46c5.92 0 12.44-1.24 18.43-3.8.9-.39 1.66.6.78 1.26"/><path d="M59.3 19.29c-.68-.88-4.52-.42-6.24-.21-.53.06-.6-.4-.13-.73 3.05-2.17 8.07-1.54 8.65-.81.58.73-.15 5.8-3.02 8.2-.44.38-.86.18-.67-.31.65-1.62 2.1-5.26 1.4-6.14M53.18 3.05V.95c0-.32.24-.54.53-.54h9.36c.3 0 .54.22.54.53v1.8c0 .31-.26.7-.7 1.33l-4.86 6.98c1.8-.04 3.7.23 5.34 1.15.37.21.47.52.5.82v2.25c0 .3-.34.67-.7.48a10.7 10.7 0 00-9.88.02c-.32.18-.66-.18-.66-.49v-2.13c0-.34 0-.93.34-1.45l5.62-8.12h-4.9a.52.52 0 01-.53-.53M19.04 16.2h-2.85a.54.54 0 01-.5-.5V.99c0-.3.24-.53.54-.53h2.66c.27.01.5.23.51.5v1.92h.05c.7-1.86 2-2.73 3.75-2.73 1.79 0 2.9.87 3.7 2.73A4.04 4.04 0 0130.83.14c1.2 0 2.5.5 3.3 1.61.9 1.24.71 3.04.71 4.62v9.3c0 .29-.24.53-.55.53h-2.84a.54.54 0 01-.51-.54v-7.8c0-.62.05-2.17-.08-2.76-.22-1-.85-1.27-1.68-1.27a1.9 1.9 0 00-1.7 1.2c-.3.75-.26 2-.26 2.83v7.8c0 .3-.25.54-.55.54h-2.85a.54.54 0 01-.5-.54l-.01-7.8c0-1.64.27-4.06-1.76-4.06-2.04 0-1.96 2.35-1.96 4.06v7.8c0 .3-.25.54-.55.54M71.66.14c4.23 0 6.52 3.66 6.52 8.3 0 4.5-2.53 8.06-6.52 8.06-4.14 0-6.4-3.65-6.4-8.21 0-4.59 2.28-8.15 6.4-8.15m.03 3c-2.1 0-2.23 2.89-2.23 4.69 0 1.8-.03 5.64 2.2 5.64 2.21 0 2.31-3.1 2.31-5 0-1.23-.05-2.72-.42-3.9-.32-1.02-.96-1.42-1.86-1.42M83.65 16.2h-2.83a.54.54 0 01-.51-.54V.93a.54.54 0 01.54-.48h2.64c.25.01.45.18.5.41v2.26h.06c.8-2.02 1.91-2.98 3.88-2.98 1.28 0 2.52.47 3.33 1.74.74 1.18.74 3.16.74 4.58v9.27a.55.55 0 01-.55.47H88.6a.54.54 0 01-.5-.47v-8c0-1.6.18-3.96-1.8-3.96-.68 0-1.32.46-1.64 1.17-.4.9-.45 1.8-.45 2.8v7.92c0 .3-.25.54-.56.54M45.72 9.16c0 1.12.03 2.05-.53 3.04-.46.81-1.18 1.3-1.98 1.3-1.09 0-1.73-.83-1.73-2.07 0-2.45 2.18-2.89 4.24-2.89zm2.87 7a.6.6 0 01-.67.06c-.95-.79-1.12-1.15-1.64-1.9-1.56 1.6-2.67 2.08-4.7 2.08-2.39 0-4.25-1.5-4.25-4.47a4.87 4.87 0 013.03-4.7c1.55-.68 3.7-.8 5.36-1v-.36c0-.68.05-1.5-.35-2.08-.35-.53-1.01-.75-1.6-.75-1.08 0-2.05.56-2.29 1.73-.04.25-.23.5-.5.52L38.24 5c-.23-.05-.5-.24-.43-.6C38.44 1.02 41.46 0 44.17 0c1.39 0 3.2.37 4.3 1.43 1.38 1.3 1.24 3.04 1.24 4.93v4.48c0 1.34.56 1.93 1.08 2.66.18.25.22.56-.01.76-.59.49-1.62 1.4-2.19 1.9M8.39 9.16c0 1.12.03 2.05-.53 3.04-.46.81-1.17 1.3-1.97 1.3-1.1 0-1.73-.83-1.73-2.07 0-2.45 2.17-2.89 4.23-2.89zm2.87 7a.6.6 0 01-.67.06c-.95-.79-1.11-1.15-1.64-1.9-1.56 1.6-2.66 2.08-4.69 2.08-2.4 0-4.26-1.5-4.26-4.47a4.88 4.88 0 013.04-4.7c1.54-.68 3.7-.8 5.35-1v-.36c0-.68.05-1.5-.34-2.08-.35-.53-1.02-.75-1.6-.75-1.09 0-2.06.56-2.3 1.73-.04.25-.23.5-.49.52L.9 5c-.23-.05-.49-.24-.42-.6C1.1 1.02 4.14 0 6.84 0c1.39 0 3.2.37 4.3 1.43 1.38 1.3 1.25 3.04 1.25 4.93v4.48c0 1.34.55 1.93 1.07 2.66.18.25.22.56 0 .76-.59.49-1.62 1.4-2.2 1.9"/></g></svg>