<svg height="16" width="102" xmlns="http://www.w3.org/2000/svg"><path d="M51.27 5.43a4.7 4.7 0 011.16-2.93v-1h-.9c-1.8 0-3.32.69-4.21 2.24h-.05V1.66h-4.63V14.3h4.63V9.2c0-2.18.63-3.83 3.2-3.83.28 0 .54.02.8.05zm35.03-.04a7.6 7.6 0 011.82-2.92V1.5h-.89c-1.8 0-3.33.69-4.22 2.24h-.05V1.66h-4.63V14.3h4.63V9.2c0-2.18.64-3.83 3.2-3.83zm-25.64-.48a5.92 5.92 0 00-2.5-.61c-.53 0-1.44.22-1.44.86 0 .86 1.45.99 2.09 1.11 2.15.42 3.78 1.4 3.78 3.75 0 3.32-3.12 4.71-6.15 4.71-1.86 0-3.69-.52-5.27-1.46l1.68-3.13a7.56 7.56 0 003.66 1.28c.59 0 1.45-.27 1.45-.96 0-.98-1.45-1.04-2.9-1.4-1.45-.37-2.9-1.06-2.9-3.33 0-3.11 2.9-4.49 5.76-4.49 1.47 0 2.95.22 4.3.81zM102 14.3h-4.63v-1.4h-.05c-.81 1.26-2.42 1.83-3.94 1.83a6.6 6.6 0 01-6.59-6.76c0-3.62 2.67-6.73 6.54-6.73 1.5 0 3.08.54 4.04 1.65V1.66H102zM91.57 8c0 1.6 1.1 2.83 2.98 2.83S97.52 9.6 97.52 8c0-1.56-1.1-2.86-2.97-2.86-1.88 0-2.98 1.3-2.98 2.86zm-13.97.74h-9.75c0 1.82 1 2.8 2.9 2.8 1 0 1.7-.31 2.22-1.15h4.45c-.74 2.98-3.66 4.34-6.64 4.34-4.32 0-7.55-2.37-7.55-6.73 0-4.22 2.97-6.76 7.22-6.76 4.53 0 7.15 2.71 7.15 7.03zm-4.3-2.6c-.23-1.2-1.37-2-2.62-2-1.35 0-2.46.7-2.75 2zM27.92 7.78l-.02-.33a6.94 6.94 0 00-2.16-4.47 7.3 7.3 0 00-1.91-1.31A8.2 8.2 0 0019.89.9a8.6 8.6 0 00-4.7 1.66l-.38.34-.1.1-.14.14-.06.07-.03.03-.17.17-.34.4a6.98 6.98 0 00-.89 1.3L11.75 7.8l-.07.14-.15.3c-.29.58-.6 1.17-.95 1.66a3.58 3.58 0 01-3.05 1.26 3.73 3.73 0 01-1.95-.6 3.08 3.08 0 01-1.37-2.68v-.04c.04-.88.37-1.56 1.05-2.16a3.65 3.65 0 01.6-.4c.5-.28 1.08-.42 1.73-.42h.2c1.05.05 1.86.37 2.5 1l2.02-3.6a7.96 7.96 0 00-1.63-.82l-.07-.03-.21-.08a8.66 8.66 0 00-2-.4h-.05L8.03.9h-.41c-1.27 0-2.45.26-3.53.77A7.18 7.18 0 000 8.1c0 1.82.66 3.41 1.98 4.75A7.62 7.62 0 007.7 15.1a8.47 8.47 0 004.1-1.02l.4-.25.09-.06.16-.11c.19-.14.37-.29.54-.44l.06-.06.3-.3.36-.4.14-.18.06-.1.07-.08c.54-.9 2.28-4.18 2.28-4.18l.1-.2.1-.16c.25-.47.44-.8.69-1.15V6.4a3.68 3.68 0 012.73-1.52c1.96-.17 3.67 1.11 3.83 2.86.15 1.74-1.3 3.3-3.26 3.46-.4.04-.8.01-1.17-.07h-.01c-1.44-.3-2.35-1.34-2.8-1.8l-1.88 3.44s.58.6.98.89a7.8 7.8 0 004.63 1.44h.26a8 8 0 005.44-2.32 6.5 6.5 0 002.03-4.66v-.05l-.01-.3zm7.2 6.96a9.7 9.7 0 01-2.66-.34 4.82 4.82 0 01-3.34-2.94 7.27 7.27 0 01-.46-2.73V1.66h4.47v7.01c0 .8.19 1.37.57 1.73.38.36.86.54 1.45.54.6 0 1.09-.16 1.47-.5.37-.34.56-.9.56-1.68v-7.1h4.46v6.98c0 1.1-.15 2.03-.47 2.8a4.85 4.85 0 01-3.38 2.96c-.8.22-1.7.34-2.67.34z" fill="#001e3c"/></svg>