<svg xmlns="http://www.w3.org/2000/svg" width="130" height="124" fill="none"><path fill-rule="evenodd" clip-rule="evenodd" d="M84.919 70.78a.722.722 0 00.363-.624l.031-9.761c.001-.258.14-.496.363-.624l6.418-3.677a.722.722 0 011.081.627v17.917a.722.722 0 01-.363.627L73.88 86.108a.722.722 0 01-.717 0l-15.032-8.573a.722.722 0 01-.364-.628v-8.563c0-.01.01-.016.019-.011a.013.013 0 00.019-.012v-.009c0-.006.004-.012.01-.015l11.712-6.71c.01-.007.007-.023-.006-.023a.012.012 0 01-.012-.012l.027-9.338a.722.722 0 00-1.082-.628L58.127 57.52a.722.722 0 01-.719 0l-10.35-5.947a.722.722 0 00-1.082.627v17.13a.722.722 0 01-1.08.628l-6.464-3.684a.722.722 0 01-.365-.629l.046-26.937c.001-.554.6-.9 1.081-.625L57.41 48.516a.722.722 0 00.718 0l18.212-10.432a.722.722 0 011.081.627v26.943a.722.722 0 01-.362.626L66.74 72.204a.722.722 0 00.003 1.255l6.42 3.645a.722.722 0 00.716-.002l11.039-6.321zm.602-20.85c0 .56.612.907 1.093.62l6.21-3.716a.722.722 0 00.351-.62V38.74a.722.722 0 00-1.093-.62l-6.21 3.715a.723.723 0 00-.35.62v7.476z" fill="#007FFF"/><mask id="early-bird0" mask-type="alpha" maskUnits="userSpaceOnUse" x="61" y="111" width="9" height="10"><path d="M61.028 114.73c0-.645.349-1.24.912-1.556l2.353-1.32a1.785 1.785 0 011.746 0l2.353 1.32c.563.316.911.911.911 1.556v2.552c0 .645-.348 1.24-.911 1.556l-2.353 1.32a1.785 1.785 0 01-1.746 0l-2.353-1.32a1.785 1.785 0 01-.912-1.556v-2.552z" fill="#ED64A6"/></mask><g mask="url(#early-bird0)" fill-rule="evenodd" clip-rule="evenodd"><path d="M61.03 113.685l4.137 2.321 4.137-2.321-4.137-2.321-4.138 2.321z" fill="#66B2FF"/><path d="M65.166 116.005v4.642l4.138-2.321v-4.641l-4.138 2.32z" fill="#0072E6"/><path d="M61.028 118.326l4.138 2.321v-4.642l-4.138-2.32v4.641z" fill="#007FFF"/></g><mask id="early-bird1" mask-type="alpha" maskUnits="userSpaceOnUse" x="61" y="3" width="9" height="10"><path d="M61.028 6.497c0-.645.349-1.24.912-1.556l2.353-1.32a1.784 1.784 0 011.746 0l2.353 1.32c.563.316.911.91.911 1.556V9.05c0 .645-.348 1.24-.911 1.556l-2.353 1.32a1.784 1.784 0 01-1.746 0l-2.353-1.32a1.784 1.784 0 01-.912-1.556V6.497z" fill="#ED64A6"/></mask><g mask="url(#early-bird1)" fill-rule="evenodd" clip-rule="evenodd"><path d="M61.03 5.452l4.137 2.321 4.137-2.32-4.137-2.322-4.138 2.321z" fill="#66B2FF"/><path d="M65.166 7.773v4.641l4.138-2.32V5.451l-4.138 2.32z" fill="#0072E6"/><path d="M61.028 10.093l4.138 2.321V7.773l-4.138-2.321v4.641z" fill="#007FFF"/></g><mask id="early-bird2" mask-type="alpha" maskUnits="userSpaceOnUse" x="3" y="57" width="9" height="10"><path d="M3.14 60.982c0-.646.35-1.24.912-1.557l2.353-1.32a1.784 1.784 0 011.746 0l2.353 1.32c.563.316.912.911.912 1.557v2.551c0 .646-.349 1.24-.912 1.556l-2.353 1.32a1.784 1.784 0 01-1.746 0l-2.353-1.32a1.784 1.784 0 01-.911-1.556v-2.551z" fill="#ED64A6"/></mask><g mask="url(#early-bird2)" fill-rule="evenodd" clip-rule="evenodd"><path d="M3.142 59.937l4.137 2.32 4.138-2.32-4.138-2.321-4.137 2.32z" fill="#66B2FF"/><path d="M7.278 62.257V66.9l4.138-2.32v-4.642l-4.138 2.32z" fill="#0072E6"/><path d="M3.14 64.578L7.279 66.9v-4.642l-4.137-2.32v4.641z" fill="#007FFF"/></g><mask id="early-bird3" mask-type="alpha" maskUnits="userSpaceOnUse" x="15" y="23" width="9" height="10"><path d="M15.7 26.537c0-.645.349-1.24.912-1.556l2.353-1.32a1.785 1.785 0 011.746 0l2.353 1.32c.563.316.911.91.911 1.556v2.552c0 .645-.348 1.24-.911 1.556l-2.353 1.32a1.785 1.785 0 01-1.746 0l-2.353-1.32a1.784 1.784 0 01-.912-1.556v-2.552z" fill="#ED64A6"/></mask><g mask="url(#early-bird3)" fill-rule="evenodd" clip-rule="evenodd"><path d="M15.7 25.492l4.138 2.321 4.137-2.32-4.137-2.322-4.138 2.321z" fill="#66B2FF"/><path d="M19.839 27.813v4.641l4.137-2.32v-4.642l-4.137 2.32z" fill="#0072E6"/><path d="M15.7 30.133l4.138 2.321v-4.641L15.7 25.492v4.641z" fill="#007FFF"/></g><mask id="early-bird4" mask-type="alpha" maskUnits="userSpaceOnUse" x="15" y="92" width="9" height="10"><path d="M15.7 96.052c0-.646.349-1.24.912-1.556l2.353-1.32a1.784 1.784 0 011.746 0l2.353 1.32c.563.315.911.91.911 1.556v2.552c0 .645-.348 1.24-.911 1.556l-2.353 1.32a1.785 1.785 0 01-1.746 0l-2.353-1.32a1.785 1.785 0 01-.912-1.556v-2.552z" fill="#ED64A6"/></mask><g mask="url(#early-bird4)" fill-rule="evenodd" clip-rule="evenodd"><path d="M15.7 95.007l4.138 2.32 4.137-2.32-4.137-2.321-4.138 2.32z" fill="#66B2FF"/><path d="M19.839 97.328v4.641l4.137-2.32v-4.642l-4.137 2.32z" fill="#0072E6"/><path d="M15.7 99.649l4.138 2.32v-4.641L15.7 95.007v4.642z" fill="#007FFF"/></g><mask id="early-bird5" mask-type="alpha" maskUnits="userSpaceOnUse" x="118" y="57" width="9" height="10"><path d="M118.296 60.982c0-.646.348-1.24.911-1.557l2.354-1.32a1.782 1.782 0 011.745 0l2.354 1.32c.562.316.911.911.911 1.557v2.551c0 .646-.349 1.24-.911 1.556l-2.354 1.32a1.783 1.783 0 01-1.745 0l-2.354-1.32a1.784 1.784 0 01-.911-1.556v-2.551z" fill="#ED64A6"/></mask><g mask="url(#early-bird5)" fill-rule="evenodd" clip-rule="evenodd"><path d="M118.295 59.937l4.137 2.32 4.138-2.32-4.138-2.32-4.137 2.32z" fill="#66B2FF"/><path d="M122.434 62.257v4.642l4.137-2.321v-4.642l-4.137 2.32z" fill="#0072E6"/><path d="M118.296 64.578l4.137 2.32v-4.641l-4.137-2.321v4.642z" fill="#007FFF"/></g><mask id="early-bird6" mask-type="alpha" maskUnits="userSpaceOnUse" x="105" y="23" width="10" height="10"><path d="M105.735 26.537c0-.645.349-1.24.912-1.556l2.353-1.32a1.785 1.785 0 011.746 0l2.353 1.32c.563.316.911.91.911 1.556v2.552c0 .645-.348 1.24-.911 1.556l-2.353 1.32a1.785 1.785 0 01-1.746 0l-2.353-1.32a1.785 1.785 0 01-.912-1.556v-2.552z" fill="#ED64A6"/></mask><g mask="url(#early-bird6)" fill-rule="evenodd" clip-rule="evenodd"><path d="M105.735 25.492l4.138 2.321 4.137-2.32-4.137-2.322-4.138 2.321z" fill="#66B2FF"/><path d="M109.873 27.812v4.642l4.138-2.321V25.49l-4.138 2.321z" fill="#0072E6"/><path d="M105.736 30.133l4.138 2.32v-4.64l-4.138-2.322v4.642z" fill="#007FFF"/></g><mask id="early-bird7" mask-type="alpha" maskUnits="userSpaceOnUse" x="105" y="92" width="10" height="10"><path d="M105.735 96.052c0-.646.349-1.24.912-1.556l2.353-1.32a1.784 1.784 0 011.746 0l2.353 1.32c.563.315.911.91.911 1.556v2.552c0 .645-.348 1.24-.911 1.556l-2.353 1.32a1.785 1.785 0 01-1.746 0l-2.353-1.32a1.785 1.785 0 01-.912-1.556v-2.552z" fill="#ED64A6"/></mask><g mask="url(#early-bird7)" fill-rule="evenodd" clip-rule="evenodd"><path d="M105.735 95.007l4.138 2.32 4.137-2.32-4.137-2.321-4.138 2.32z" fill="#66B2FF"/><path d="M109.873 97.328v4.641l4.138-2.32v-4.642l-4.138 2.32z" fill="#0072E6"/><path d="M105.736 99.649l4.138 2.32v-4.641l-4.138-2.321v4.642z" fill="#007FFF"/></g></svg>