<svg width="64" height="53" fill="none" xmlns="http://www.w3.org/2000/svg"><circle cx="29.77" cy="26.51" r="25.95" fill="#001E3C"/><circle cx="28.24" cy="5.54" r=".29" fill="#fff"/><circle cx="31.22" cy="5.93" r=".29" fill="#fff"/><circle cx="35.14" cy="11.2" r=".29" fill="#fff"/><circle cx="13.65" cy="38.35" r=".29" fill="#fff"/><circle cx="14.41" cy="40.68" r=".29" fill="#fff"/><circle cx="10.8" cy="38.7" r=".22" fill="#fff"/><circle cx="22.63" cy="43.28" r=".22" fill="#fff"/><circle cx="41.19" cy="39.42" r=".22" fill="#fff"/><circle cx="46.58" cy="33.56" r=".22" fill="#fff"/><circle cx="20.15" cy="12.9" r=".22" fill="#fff"/><circle cx="26.08" cy="8.55" r=".22" fill="#fff"/><circle cx="25.44" cy="8.12" r=".22" fill="#fff"/><circle cx="24.86" cy="7.69" r=".22" fill="#fff"/><circle cx="21.08" cy="14.03" r=".22" fill="#fff"/><circle cx="29.82" cy="2.69" r=".22" fill="#fff"/><circle cx="31.26" cy="8.97" r=".22" fill="#fff"/><circle cx="28.99" cy="7.75" r=".22" fill="#fff"/><circle cx="25.11" cy="9.41" r=".22" fill="#fff"/><circle cx="42.22" cy="45.18" r=".22" fill="#fff"/><circle cx="13.28" cy="39.83" r=".22" fill="#fff"/><circle cx="28.45" cy="42.64" r=".22" fill="#fff"/><circle cx="17.8" cy="39.65" r=".22" fill="#fff"/><circle cx="19.68" cy="42.73" r=".22" fill="#fff"/><circle cx="33.57" cy="40.79" r=".22" fill="#fff"/><circle cx="41.23" cy="36.47" r=".22" fill="#fff"/><circle cx="47.03" cy="39.13" r=".22" fill="#fff"/><circle cx="49.01" cy="40.39" r=".22" fill="#fff"/><circle cx="49.33" cy="36.94" r=".22" fill="#fff"/><circle cx="20.47" cy="32.05" r=".22" fill="#fff"/><circle cx="20.56" cy="37.06" r=".29" fill="#fff"/><circle cx="22.3" cy="40.74" r=".29" fill="#fff"/><circle cx="43.21" cy="36.9" r=".29" fill="#fff"/><circle cx="50.73" cy="36.47" r=".29" fill="#fff"/><circle cx="47.01" cy="34.88" r=".29" fill="#fff"/><circle cx="43.21" cy="35.04" r=".29" fill="#fff"/><path d="M35.37 5.36l.72-.07-.72-.04a.32.32 0 00-.28-.27l-.07-.72-.04.73a.32.32 0 00-.24.27l-.74.07.74.04c.03.12.13.22.26.24l.06.75.04-.74a.32.32 0 00.27-.26zM23.16 13.41l.72-.07-.72-.04a.32.32 0 00-.28-.27l-.06-.72-.05.73a.32.32 0 00-.24.27l-.74.07.74.04c.03.13.13.22.26.25l.06.74.04-.74a.32.32 0 00.27-.26zM50.2 34.7l.73-.06-.73-.04a.32.32 0 00-.27-.27l-.07-.72-.04.72a.32.32 0 00-.25.28l-.74.07.75.04c.02.12.13.22.25.24l.07.74.04-.74a.32.32 0 00.26-.26zM20.72 45.84l.72-.07-.72-.04a.32.32 0 00-.28-.27l-.07-.72-.04.73a.32.32 0 00-.25.27l-.74.07.75.04c.03.12.13.22.25.24l.07.75.04-.74a.32.32 0 00.27-.26zM47.9 40.4l.73-.06-.72-.04a.32.32 0 00-.28-.27l-.07-.72-.04.73a.32.32 0 00-.25.27l-.73.07.74.04c.03.12.13.22.25.24l.07.75.04-.75a.32.32 0 00.27-.25z" fill="#fff"/><path fill-rule="evenodd" clip-rule="evenodd" d="M36.44 20.09c5.4-2.12 10.97-4.62 14.5-6.7 3.12-1.82 8.35-5.04 12.77-10.66-2.48 7.2-8.91 12.6-11.9 15.1l-.16.14c-2.11 1.77-5.73 4.42-11.11 8.02L40 25.1c3.55-2.43 9.37-6.78 11.13-8.45-3.7 2.54-8.36 4.64-12.6 6.2a47.11 47.11 0 00-2.1-2.76zm-.52.2a137.36 137.36 0 01-8.44 3l-.24.07C22 25 8.5 29.23.29 34.53l.7.28A48.52 48.52 0 0111.7 30.3l.85-.26c1.87-.6 6.03-1.64 10.24-2.7 3.54-.88 7.12-1.78 9.42-2.42 1.7-.49 3.7-1.11 5.83-1.88a51.9 51.9 0 00-2.12-2.75zm3.69 5.08c-.73.5-1.34.89-1.77 1.14-2.48 1.43-14.59 9.7-17.34 11.6-2.48 1.7-8.95 7.75-11.84 10.45l-.8.75-.08.86c6.53-5.87 9.02-7.76 11.56-9.68l.85-.64a293.63 293.63 0 0113.46-9.35c2.4-1.54 4.56-2.95 6.5-4.25l-.1-.16-.44-.72z" fill="#AAB4BE"/><path fill-rule="evenodd" clip-rule="evenodd" d="M18.19 10.18c3.57-2.84 11.85 1.85 18.64 10.39 6.78 8.53 9.31 17.8 6.01 20.41-1.37 1.1-4.09.66-6.93-.48-.05-.04-.13-.2-.08-.25 3.29 1.48 5.8 1.2 6.62.47 2.68-2.38 1.5-8.2-2.4-14.63a49.15 49.15 0 00-3.57-5.11c-6.59-8.3-14.53-13-17.82-10.39-2.61 2.08-1.56 8.2 2.3 14.8l-.59.2c-3.82-6.77-4.96-13.2-2.18-15.41zm7.28 21.56l-1-1.24c-.8-1-1.53-2.01-2.2-3.02l-.65.16a45.92 45.92 0 003.66 4.96 21.54 21.54 0 011.02 1.31l.1.16.64-.43-.61-.7c-.28-.37-.62-.78-.96-1.2zm4.32 4.32c-.55-.42-1.26-.96-1.98-1.64l-.8.55c.77 1.07 1.82 2.4 2.64 2.79 1.23.58 1.56-.47.96-1.04-.19-.17-.47-.4-.82-.66z" fill="#fff"/><path d="M7.74 21.58h4.34l3.65 6.19v-4.83c0-.55-.7-1.25-.93-1.36h3c-.18.05-.77.77-.77 1.36v7.1c0 .43.63 1.03.93 1.27h-4.2l-3.7-6.22v4.89c0 .48.48.95.97 1.34h-3.2c.46-.19.9-.8.94-1.28.03-.49 0-6.74 0-7.02 0-.59-.58-1.07-1.03-1.44z" fill="#fff"/><path fill-rule="evenodd" clip-rule="evenodd" d="M47.48 31.3h5.77c-.32-.07-.67-.45-.87-.95-.2-.5-3.26-8.77-3.26-8.77h-2.2l-2 1.42v.05c-.1.59-1.82 6.81-1.92 7.12-.12.33-.6.7-.95.96l-.25.2h3.12c-.31-.35-.57-.7-.5-1.08.05-.39.22-1.17.22-1.17h3.22c.15.4.26.74.31 1.07.07.4-.34.85-.7 1.16zm-2.55-3.46l1.1-3.55 1.43 3.55h-2.53zm0-6.26l-.48.35a4.81 4.81 0 00-.37-.35h.85zM22.57 29.08s-.17.78-.23 1.17c-.06.39.2.73.5 1.07h-3.1l.24-.19c.35-.26.83-.63.95-.96a224 224 0 001.92-7.12c.1-.62-.53-1.2-.8-1.44a21.4 21.4 0 01-.04-.03h5.04l3.26 8.77c.12.3.3.57.5.74l-.19.13-.13.09h-5.08c.35-.31.76-.76.7-1.16a5.9 5.9 0 00-.32-1.07h-3.22zm2.82-1.24l-1.44-3.55-1.09 3.55h2.53zM38.28 25.38c.24.11.49.24.74.39a25 25 0 01-1.18.73c-.46.27-1.24.76-2.22 1.4l-.36-.12h-.02c-1.03-.36-2.83-.99-2.77-3.25a3.12 3.12 0 013.16-2.93c1.45-.01 2.72.2 3.47.35.35.07.74-.33.88-.47l.03-.04v2.5a5.18 5.18 0 00-2.87-1.08c-1.32-.02-1.86.5-1.67 1.05.18.53.84.75 1.62 1.01.38.13.79.27 1.2.46zm1.64 1.03l-3 1.98c.47.23.84.52.88.89.07.7-1.34 1.04-2.61.9-.25-.04-.5-.1-.74-.2a440.05 440.05 0 01-1.8 1.16v1c.26-.49.81-.93 1.24-.95.04 0 .1.02.19.06.35.14 1.19.49 3.27.38 1.28-.08 3.76-1.44 3.72-3.01a3.02 3.02 0 00-1.15-2.21zm-7.26 2.42v1.03l.69-.46a5.1 5.1 0 01-.7-.57z" fill="#fff"/></svg>