<svg height="53" width="64" xmlns="http://www.w3.org/2000/svg"><g fill="none"><circle cx="29.77" cy="26.51" fill="#001e3c" r="25.95"/><g fill="#fff" transform="translate(0 1.94)"><circle cx="28.24" cy="3.6" r="1"/><circle cx="31.22" cy="3.99" r="1"/><circle cx="35.14" cy="9.26" r="1"/><circle cx="13.65" cy="36.42" r="1"/><circle cx="14.41" cy="38.74" r="1"/><circle cx="10.8" cy="36.76" r="1"/><circle cx="22.63" cy="41.34" r="1"/><circle cx="41.19" cy="37.48" r="1"/><circle cx="46.58" cy="31.63" r="1"/><circle cx="20.15" cy="10.97" r="1"/><circle cx="26.08" cy="6.61" r="1"/><circle cx="25.44" cy="6.18" r="1"/><circle cx="24.86" cy="5.75" r="1"/><circle cx="21.08" cy="12.09" r="1"/><circle cx="29.82" cy=".75" r="1"/><circle cx="31.26" cy="7.03" r="1"/><circle cx="28.99" cy="5.81" r="1"/><circle cx="25.11" cy="7.48" r="1"/><circle cx="42.22" cy="43.24" r="1"/><circle cx="13.28" cy="37.89" r="1"/><circle cx="28.45" cy="40.7" r="1"/><circle cx="17.8" cy="37.71" r="1"/><circle cx="19.68" cy="40.79" r="1"/><circle cx="33.57" cy="38.85" r="1"/><circle cx="41.23" cy="34.53" r="1"/><circle cx="47.03" cy="37.19" r="1"/><circle cx="49.01" cy="38.45" r="1"/><circle cx="49.33" cy="35" r="1"/><circle cx="20.47" cy="30.11" r="1"/><circle cx="20.56" cy="35.12" r="1"/><circle cx="22.3" cy="38.8" r="1"/><circle cx="43.21" cy="34.96" r="1"/><circle cx="50.73" cy="34.53" r="1"/><circle cx="47.01" cy="32.94" r="1"/><circle cx="43.21" cy="33.1" r="1"/><path d="M35.37 3.42l.72-.07-.72-.04a.32.32 0 00-.28-.27l-.07-.72-.04.73a.32.32 0 00-.24.27L34 3.4l.74.04c.03.12.13.22.26.24l.06.75.04-.74a.32.32 0 00.27-.26zM23.16 11.47l.72-.07-.72-.04a.32.32 0 00-.28-.26l-.06-.72-.05.72a.32.32 0 00-.24.28l-.74.06.74.04c.03.13.13.22.26.25l.06.74.04-.74a.32.32 0 00.27-.26zM50.2 32.77l.73-.07-.72-.04a.32.32 0 00-.28-.27l-.07-.72-.04.72a.32.32 0 00-.25.28l-.74.07.75.04c.03.12.13.22.25.24l.07.74.04-.74a.32.32 0 00.26-.25zM20.72 43.9l.72-.07-.72-.04a.32.32 0 00-.28-.27l-.07-.72-.04.73a.32.32 0 00-.25.27l-.74.07.75.04c.03.12.13.22.25.24l.07.75.04-.74a.32.32 0 00.27-.26zM47.9 38.47l.73-.07-.72-.04a.32.32 0 00-.28-.27l-.07-.72-.04.73a.32.32 0 00-.25.27l-.73.07.74.04c.03.12.13.22.25.24l.07.75.04-.74a.32.32 0 00.27-.26z"/></g><path d="M35.92 20.29a137.37 137.37 0 01-8.44 3C22.43 24.87 8.63 29.14.29 34.53l.7.28c5.08-2.87 8.38-3.78 11.56-4.78 3.45-1.08 14.6-3.7 19.66-5.12 1.7-.48 3.7-1.1 5.83-1.87a51.95 51.95 0 00-2.12-2.75zm3.69 5.08c-.73.5-1.34.89-1.77 1.14-2.48 1.43-14.59 9.7-17.34 11.6-2.75 1.9-10.4 9.1-12.65 11.2l-.07.86c7.25-6.52 9.53-8.13 12.4-10.32a293.56 293.56 0 0113.47-9.35c2.4-1.54 4.56-2.95 6.5-4.25l-.1-.16-.44-.72zm11.34-11.98c-3.54 2.08-9.1 4.58-14.5 6.7a47.98 47.98 0 012.09 2.77c4.24-1.57 8.9-3.67 12.6-6.2-1.76 1.66-7.58 6.01-11.13 8.44l.53.9c5.38-3.6 9-6.26 11.1-8.03 2.92-2.44 9.55-7.91 12.07-15.24-4.42 5.62-9.65 8.84-12.76 10.66z" fill="#aab4be"/><g fill="#fff"><path d="M26.43 32.93l-1.96-2.43c-.8-1-1.53-2.01-2.2-3.02l-.66.16a45.9 45.9 0 002.7 3.78c.72.9 1.37 1.63 1.7 2.08l.4.57.63-.43c-.2-.23-.41-.46-.61-.71zm4.18 3.8c-.47-.45-1.61-1.2-2.8-2.31l-.8.54c.78 1.08 1.82 2.41 2.64 2.8 1.23.58 1.56-.47.96-1.04zm6.22-16.16c-6.79-8.54-15.07-13.23-18.64-10.4-2.78 2.21-1.64 8.65 2.19 15.42l.58-.2c-3.86-6.6-4.91-12.72-2.3-14.8 3.3-2.61 11.23 2.1 17.82 10.39a49.14 49.14 0 013.58 5.11c3.88 6.43 5.07 12.25 2.39 14.63-.82.72-3.33 1-6.62-.47-.05.05.03.21.08.25 2.84 1.14 5.56 1.58 6.94.48 3.3-2.62.76-11.88-6.02-20.41zM7.74 21.58h4.34l3.65 6.19v-4.83c0-.55-.7-1.25-.93-1.36h3c-.18.05-.77.77-.77 1.36v7.1c0 .43.63 1.03.93 1.27h-4.2l-3.7-6.22v4.89c0 .48.48.95.97 1.34h-3.2c.46-.19.9-.8.94-1.29.03-.48 0-6.73 0-7 0-.6-.58-1.08-1.03-1.45z"/><path d="M47.48 31.3h5.78c-.32-.07-.68-.45-.88-.95-.2-.5-3.26-8.77-3.26-8.77h-2.2l-2 1.42v.05c-.1.58-1.82 6.81-1.92 7.12-.15.43-.9.9-1.2 1.15h3.12c-.31-.34-.57-.68-.5-1.07.05-.39.22-1.17.22-1.17h3.22c.15.4.26.74.31 1.07.07.4-.34.84-.7 1.16zm-2.54-3.46l1.08-3.55 1.44 3.55zm-.5-5.9l.49-.36h-.85l.37.35zM22.34 30.25c.06-.39.23-1.17.23-1.17h3.22c.15.4.26.74.31 1.07.07.4-.34.84-.7 1.16h5.1l.31-.22c-.2-.17-.38-.43-.5-.74-.2-.5-3.26-8.77-3.26-8.77h-5.04c.24.22.94.82.84 1.47-.1.58-1.82 6.81-1.92 7.12-.15.43-.9.9-1.2 1.15h3.12c-.31-.34-.57-.68-.5-1.07zm1.61-5.96l1.44 3.55h-2.53zM39.92 26.4l-3 1.99c.47.23.84.52.88.89.07.7-1.34 1.04-2.61.9-.25-.04-.5-.1-.74-.2a388.13 388.13 0 01-1.8 1.16v1c.26-.49.81-.93 1.24-.95.19-.01.83.58 3.46.44 1.28-.08 3.76-1.44 3.72-3.01a3.02 3.02 0 00-1.15-2.21zm-7.26 2.43v1.03l.69-.46a5.1 5.1 0 01-.7-.57zm6.36-3.07c-.25-.14-.5-.27-.74-.38-1.24-.58-2.54-.69-2.8-1.47-.2-.56.34-1.07 1.66-1.05s2.54.8 2.87 1.08v-2.5c-.1.1-.52.59-.91.5-.75-.15-2.02-.35-3.47-.34a3.12 3.12 0 00-3.16 2.93c-.06 2.28 1.76 2.9 2.79 3.25l.36.12c.98-.64 1.76-1.13 2.22-1.4.3-.17.7-.43 1.18-.74z"/></g></g></svg>