<svg width="118" height="32" fill="none" xmlns="http://www.w3.org/2000/svg"><path fill-rule="evenodd" clip-rule="evenodd" d="M13 30.34c-.73.08-1.47.15-2.22.25l-5.7-16.75v17.47c-1.6.17-3.08.4-4.59.62L0 32V0h4.73l6.48 18.16V0h5.02v29.94c-1.07.18-2.14.3-3.23.4zm16.5-18.67c1.18-.02 2.33-.04 3.2-.04v5c-2.21 0-4.8 0-6.66.09v7.44l2.49-.17c2.1-.15 4.2-.3 6.32-.37v4.82l-13.8 1.1V0h13.8v5h-8.81v6.72c.98 0 2.23-.03 3.46-.05zM48.2 5h5.18V0H38.06v5h5.17v23.06c1.62-.06 3.3-.06 4.98-.06V5zm13.28 6.38h6.82v5h-6.82v11.34h-4.9V0h13.93v5h-9.03v6.38zM84.8 23.65c-2.05-.13-4.14-.26-6.2-.3V0h-4.99v28.06c4.55.1 9 .38 13.46.66v-4.94l-2.27-.13zm6.47 5.41l.26.02c1.51.09 3.1.18 4.63.36V0h-4.9v29.06zm20.4-13.84L118 0h-5.45l-3.49 8.4L105.8 0h-5.35l5.79 15.03L99.8 29.7c.75.1 1.49.18 2.22.25 1.04.11 2.08.22 3.14.4l3.64-8.5 3.58 9.25 1.4.24c1.4.24 2.8.48 4.21.67l-6.32-16.78z" fill="#D81F26"/></svg>