<svg height="24" width="88" xmlns="http://www.w3.org/2000/svg"><path d="M12.1 22.43c-1.32.24-2.67.3-4.06.5L3.79 10.36v13.1c-1.33.13-2.54.32-3.79.5V0h3.53l4.83 13.6V0h3.74zm7.32-13.65c1.44 0 3.64-.07 4.97-.07v3.75c-1.65 0-3.58 0-4.97.07v5.57c2.18-.14 4.36-.33 6.57-.4v3.6l-10.29.83V0h10.29v3.75h-6.57zM39.8 3.75h-3.86v17.23c-1.25 0-2.5 0-3.71.05V3.75h-3.86V0h11.43zm6.04 4.77h5.08v3.75h-5.08v8.5H42.2V0h10.38v3.75h-6.73zm12.77 8.97c2.11.05 4.25.21 6.32.33v3.7a234.1 234.1 0 00-10.04-.5V0h3.72zm9.45 4.29c1.19.07 2.44.14 3.65.28V0h-3.65zM88 0l-4.71 11.4L88 23.98c-1.4-.19-2.79-.45-4.18-.68l-2.67-6.93-2.72 6.37c-1.35-.24-2.65-.3-4-.5l4.8-10.98L74.9 0h4l2.43 6.3 2.6-6.3z" fill="#001e3c"/></svg>