<svg height="33" width="33" xmlns="http://www.w3.org/2000/svg"><g fill="none" fill-rule="evenodd"><path d="M21.33 27.98l1.56 2.71A15.3 15.3 0 0118.06 32v-3.15c1.15-.14 2.24-.43 3.27-.87zM4.15 18.06H1c.17 1.71.62 3.33 1.3 4.83l2.72-1.56a12.07 12.07 0 01-.87-3.27zM21.33 5.02l1.56-2.71A15.19 15.19 0 0018.06 1v3.15c1.15.14 2.24.43 3.27.87zm7.52 9.92H32a15.19 15.19 0 00-1.3-4.83l-2.72 1.56c.44 1.03.73 2.12.87 3.27zM11.67 27.98l-1.56 2.71A15.3 15.3 0 0014.94 32v-3.15a12.07 12.07 0 01-3.27-.87zm3.27-23.83V1c-1.71.17-3.33.62-4.83 1.3l1.56 2.72c1.03-.44 2.12-.73 3.27-.87zm11.47 4.83l2.7-1.58a15.87 15.87 0 00-3.53-3.53l-1.57 2.7c.92.7 1.71 1.5 2.4 2.4zM5 11.68l-2.7-1.57A15.19 15.19 0 001 14.94h3.15c.14-1.15.43-2.24.87-3.27zm23.84 6.38a12.07 12.07 0 01-.87 3.27l2.71 1.56A15.3 15.3 0 0032 18.06zm-4.83 8.35l1.58 2.7a15.87 15.87 0 003.53-3.53l-2.7-1.57c-.7.92-1.5 1.71-2.4 2.4zM8.98 6.59L7.42 3.87c-1.37 1-2.56 2.18-3.54 3.55L6.6 8.99a12 12 0 012.39-2.4zM6.59 24.02l-2.7 1.56a15.87 15.87 0 003.53 3.54l1.57-2.71a12 12 0 01-2.4-2.39z" fill="#cce5ff" fill-rule="nonzero"/><path d="M17.16 9H14v8.37L20.77 24 23 21.82l-5.84-5.72z" fill="#007fff"/></g></svg>