<svg width="133" height="72" viewBox="0 0 133 72" fill="none" xmlns="http://www.w3.org/2000/svg">
<path fill-rule="evenodd" clip-rule="evenodd" d="M83.3775 23.8823V39.8038L55.6431 55.7254V71.6469L97.2448 47.7646V15.9216L83.3775 23.8823Z" fill="#046ED8"/>
<path fill-rule="evenodd" clip-rule="evenodd" d="M27.9087 55.7256L55.6433 71.6471V55.7256L27.9087 39.804V55.7256Z" fill="#007FFF"/>
<path fill-rule="evenodd" clip-rule="evenodd" d="M55.6431 23.8823L83.3776 39.8037L55.6431 55.7255L27.9087 39.8037L55.6431 23.8823Z" fill="#61B0FF"/>
<path fill-rule="evenodd" clip-rule="evenodd" d="M55.6431 7.96094L83.3775 23.8824V39.804L55.6431 23.8824V7.96094Z" fill="#007FFF"/>
<path fill-rule="evenodd" clip-rule="evenodd" d="M55.6431 7.96071L83.3775 23.8823L97.2448 15.9216L69.5102 0L55.6431 7.96071Z" fill="#61B0FF"/>
<path fill-rule="evenodd" clip-rule="evenodd" d="M0 35.8823V51.8037L13.9427 59.7646V43.8432L0 35.8823Z" fill="#007FFF"/>
<path fill-rule="evenodd" clip-rule="evenodd" d="M55.7702 19.9609V35.8824L13.9424 59.7648V43.8432L55.7702 19.9609Z" fill="#046ED8"/>
<path fill-rule="evenodd" clip-rule="evenodd" d="M41.8278 12L0 35.8823L13.9427 43.8432L55.7705 19.9609L41.8278 12Z" fill="#61B0FF"/>
<path fill-rule="evenodd" clip-rule="evenodd" d="M118.034 55.6956L131.977 47.7718V31.9241L118.034 39.8479V55.6956Z" fill="#046ED8"/>
<path fill-rule="evenodd" clip-rule="evenodd" d="M104.091 31.9241L118.034 39.8479V55.6956L104.091 47.7718V31.9241Z" fill="#007FFF"/>
<path fill-rule="evenodd" clip-rule="evenodd" d="M118.034 24L131.977 31.924L118.034 39.8477L104.091 31.924L118.034 24Z" fill="#61B0FF"/>
</svg>
