<svg height="72" width="133" xmlns="http://www.w3.org/2000/svg"><g fill="none" fill-rule="evenodd"><path d="M83.38 23.88V39.8L55.64 55.73v15.92l41.6-23.89V15.92z" fill="#046ed8"/><path d="M27.9 55.73l27.74 15.92V55.73L27.91 39.8z" fill="#007fff"/><path d="M55.64 23.88L83.38 39.8 55.64 55.73 27.91 39.8z" fill="#61b0ff"/><path d="M55.64 7.96l27.74 15.92V39.8L55.64 23.88z" fill="#007fff"/><path d="M55.64 7.96l27.74 15.92 13.86-7.96L69.51 0z" fill="#61b0ff"/><g><path d="M0 35.88V51.8l13.94 7.96V43.84z" fill="#007fff"/><path d="M55.77 19.96v15.92L13.94 59.76V43.84z" fill="#046ed8"/><path d="M41.83 12L0 35.88l13.94 7.96 41.83-23.88z" fill="#61b0ff"/></g><g><path d="M118.03 55.7l13.95-7.93V31.92l-13.95 7.93z" fill="#046ed8"/><path d="M104.1 31.92l13.93 7.93V55.7l-13.94-7.93z" fill="#007fff"/><path d="M118.03 24l13.95 7.92-13.95 7.93-13.94-7.93z" fill="#61b0ff"/></g></g></svg>