<svg height="68" width="91" xmlns="http://www.w3.org/2000/svg"><g fill="none" fill-rule="evenodd"><path d="M77.1 22.71v14.9L51.4 52.48v14.88l38.55-22.33V15.27z" fill="#00b7e9"/><path d="M25.71 52.49l25.7 14.88V52.5L25.7 37.6z" fill="#00c8ff"/><path d="M51.4 22.71l25.7 14.9-25.7 14.88L25.72 37.6z" fill="#7ce3ff"/><path d="M51.4 7.83L77.1 22.7v14.9L51.4 22.7z" fill="#00c8ff"/><path d="M51.4 7.83L77.1 22.7l12.85-7.44L64.25.38z" fill="#7ce3ff"/><g><path d="M0 34.27v14.9l12.85 7.43V41.72z" fill="#00c8ff"/><path d="M51.39 19.39v14.88L12.85 56.6V41.72z" fill="#00b7e9"/><path d="M38.54 11.94L0 34.27l12.85 7.45 38.54-22.33z" fill="#7ce3ff"/></g></g></svg>