<svg height="21" width="138" xmlns="http://www.w3.org/2000/svg"><path d="M82.28 12.3l-1.11-.2c-1.1-.2-2.05-.45-2.05-1.56 0-.95 1-1.4 2.24-1.4 1.86 0 3.48.84 3.67.93l1.02-2.67c-.4-.2-2.05-1.1-4.65-1.1-2.39 0-5.3 1.25-5.3 4.36 0 2.78 1.99 3.68 3.91 4.02l1.34.23c1.29.22 2 .7 2 1.54 0 1.07-1 1.57-2.53 1.57-2.45 0-3.88-.73-4.3-.9l-1.12 2.62c.35.18 2.02 1.12 5.27 1.12 3.16 0 5.7-1.56 5.7-4.46-.03-2.7-1.85-3.73-4.09-4.12m9.65-10.84l-3 1.65v3.5h-1.57v2.85h1.58v6.16c0 2.63 1.08 5 4.91 5h1.2v-2.86h-.45c-1.88 0-2.67-1.08-2.67-2.55V9.44h3.43V6.58h-3.43zm23.35 7.77c1.17 0 2.36.53 2.72 1.81l2.71-1.03c-.76-2.68-3.25-3.68-5.45-3.68-3.94 0-5.53 2.44-5.53 4.82v4.92c0 2.38 1.59 4.82 5.53 4.82 2.2 0 4.7-1 5.45-3.68L118 16.16c-.36 1.28-1.55 1.81-2.72 1.81-2.03 0-2.57-1.1-2.57-2.37v-4.02c0-1.26.54-2.37 2.57-2.37m12.78 3.67l5.59-6.3h-3.68l-4.8 5.5V1.43h-3V20.6h3v-4.46l.98-1.1 4.28 5.56h3.59zm-24.34-3.24h-3.1c-.5 0-.9.4-.9.9v3.36h-3.07v-3.37a3.95 3.95 0 013.96-3.95h3.11zm-2.52 7.9h3.1c.5 0 .9-.4.9-.9v-3.36h3.06v3.37a3.96 3.96 0 01-3.96 3.95h-3.1zM50.5 6.58h3.43v2.86H50.5v5.75c0 1.47.8 2.55 2.67 2.55h.45v2.86h-1.2c-3.83 0-4.9-2.37-4.9-5V9.44h-5.04v5.75c0 1.47.8 2.55 2.67 2.55h.45v2.86h-1.2c-3.83 0-4.9-2.37-4.9-5V9.44h-1.52V6.58h1.51V3.1l3-1.65v5.14h5.02V3.1l3-1.65zm-32.27-.27c-.94 0-1.9.19-2.77.55V1.44h-2.99V20.6h3V9.65c.6-.38 1.46-.6 2.3-.6 1.88 0 2.77 1.04 2.77 2.58v8.97h2.98v-9.38c0-2.83-2.05-4.9-5.29-4.9m15.15 11.49c-.56.3-1.28.48-2 .48-2.23 0-3.07-1.13-3.07-2.7v-9h-2.99v9.06c0 3.52 2.04 5.22 5.7 5.22 1.74 0 3.68-.44 5.35-1.17V6.58h-2.99zM6.88 12.3l-1.11-.2c-1.1-.2-2.05-.45-2.05-1.56 0-.95 1-1.4 2.25-1.4 1.85 0 3.48.84 3.66.93l1.02-2.67C10.25 7.2 8.6 6.3 6 6.3 3.6 6.31.7 7.56.7 10.67c0 2.78 1.99 3.68 3.91 4.02l1.34.23c1.3.22 2 .7 2 1.54 0 1.07-1 1.57-2.53 1.57-2.45 0-3.88-.73-4.3-.9L0 19.75c.35.18 2.02 1.12 5.27 1.12 3.16 0 5.7-1.56 5.7-4.46-.03-2.7-1.85-3.73-4.09-4.12m56.42.24h-5.04V11.5c0-1.14.58-2.36 2.54-2.36 1.9 0 2.5 1.19 2.5 2.3zm3-1.4c0-2.57-1.96-4.82-5.49-4.82-4 0-5.53 2.5-5.53 4.82v4.65c0 3.22 2.06 5.09 5.53 5.09 3.06 0 4.65-1.77 5.13-2.83l-2.53-1.5c-.21.61-1.21 1.49-2.58 1.49-1.84 0-2.56-1.03-2.56-2.32v-.77h8.02zm1.9 0v9.47h3v-9.21c0-.8.45-2.18 2.65-2.18.34 0 1.12.1 1.37.14V6.46a7.53 7.53 0 00-1.53-.15c-3.8 0-5.48 2.38-5.48 4.82m68.45-3.75c0-.11-.07-.21-.26-.21h-.18v.47h.18c.2 0 .26-.1.26-.24zm-.03 1c-.01 0-.02 0-.03-.02l-.22-.49h-.16v.48c0 .02-.01.03-.02.03h-.28c-.02 0-.03-.01-.03-.03V6.91h.56c.37 0 .54.24.54.46v.03c0 .2-.1.38-.3.46l.29.5s0 .02-.02.02zm-.23-1.83c-.63 0-1.09.49-1.09 1.12 0 .6.47 1.1 1.1 1.1.63 0 1.08-.5 1.08-1.1 0-.62-.5-1.12-1.09-1.12zm0 2.54c-.8 0-1.46-.61-1.46-1.42a1.46 1.46 0 012.92 0c0 .8-.65 1.42-1.46 1.42" fill="#001e3c"/></svg>