<svg xmlns="http://www.w3.org/2000/svg" width="28" height="28" fill="none"><path fill-rule="evenodd" clip-rule="evenodd" d="M4.577 9.064A1 1 0 004 9.97v16.46a1 1 0 001.423.906l18-8.4A1 1 0 0024 18.03V1.57a1 1 0 00-1.423-.906l-18 8.4z" fill="#C2E0FF"/><path fill-rule="evenodd" clip-rule="evenodd" d="M9.65 6.985a.3.3 0 000 .52l5.1 2.944a.3.3 0 00.45-.26V8.518a6.802 6.802 0 01-1 13.527 6.8 6.8 0 01-6.8-6.8 1.2 1.2 0 00-2.4 0 9.2 9.2 0 1010.2-9.146V4.3a.3.3 0 00-.45-.26l-5.1 2.945z" fill="url(#support-maintenance-linear)"/><defs><linearGradient id="support-maintenance-linear" x1="23.4" y1="24.445" x2="3.068" y2="6.147" gradientUnits="userSpaceOnUse"><stop stop-color="#0059B3"/><stop offset="1" stop-color="#007FFF"/></linearGradient></defs></svg>