<svg height="40" width="110" xmlns="http://www.w3.org/2000/svg"><path d="M33.11 31.94L25.96 19.9l7.15-12.03 3.45 12.03zM17.2 30.76l-8.99-8.9h14.3l7.15 12.02zm0-21.74L29.63 5.9l-7.15 12.03H8.18zM35.46 0L19.2 4.22 16.8 8.36l-4.87-.04L0 19.91 11.92 31.5l4.87-.04 2.42 4.14 16.25 4.26 4.36-15.8-2.46-4.11 2.46-4.11zm36.88 11.7c-2.16 0-3.63.91-4.73 2.6h-.07v-2.16h-3.81v15.91h3.88v-9.02c0-2.16 1.36-3.67 3.23-3.67 1.76 0 3.08 1.07 3.08 2.94v9.79h3.89V17.67c.03-3.48-2.17-5.97-5.47-5.97zm-14.52 9.64c0 2.13-1.2 3.6-3.19 3.6-1.8 0-2.93-1.03-2.93-2.9v-9.9h-3.89v10.63c0 3.48 1.98 5.76 5.54 5.76 2.24 0 3.48-.85 4.55-2.31h.1v1.87h3.75V12.14h-3.89v9.2zm22.08-9.2h3.88v15.91H79.9zm0-4.95h3.88v3.19H79.9zm25.92 4.95l-2.31 7.18c-.51 1.47-.92 3.49-.92 3.49h-.1s-.52-2.02-1.03-3.49l-2.6-7.18h-4.19l4.3 11.33c.91 2.42 1.2 3.44 1.2 4.32 0 1.32-.7 2.17-2.34 2.17h-1.5v3.33h2.49c3.22 0 4.36-1.28 5.57-4.8L110 12.17h-4.18zM91.04 23.39v-8.43h2.5v-2.79h-2.5V7.2h-3.88v4.95h-2.2v2.78h2.2v9.35c0 3.01 2.27 3.82 4.32 3.82 1.69 0 2.13-.08 2.13-.08v-3.08h-.99c-.92.04-1.58-.36-1.58-1.54z" fill="#001e3c"/></svg>