<svg width="13" height="15" fill="none" xmlns="http://www.w3.org/2000/svg"><mask id="a" mask-type="alpha" maskUnits="userSpaceOnUse" x="0" y="0" width="13" height="15"><path d="M0 5.18a2.47 2.47 0 0 1 1.24-2.14L5.27.7a2.47 2.47 0 0 1 2.47 0l4.02 2.33A2.47 2.47 0 0 1 13 5.18v4.64a2.47 2.47 0 0 1-1.24 2.14L7.73 14.3a2.47 2.47 0 0 1-2.47 0l-4.02-2.33A2.47 2.47 0 0 1 0 9.82V5.18z" fill="#ED64A6"/></mask><g mask="url(#a)"><path d="M0 3.75 6.5 7.5 13 3.75 6.5 0 0 3.75z" fill="#F0F"/><path d="M6.5 7.5V15l6.5-3.75v-7.5L6.5 7.5z" fill="#D100D1"/><path d="M0 11.25 6.5 15V7.5L0 3.75v7.5z" fill="#B300B3"/></g></svg>
