<svg fill="none" height="15" width="13" xmlns="http://www.w3.org/2000/svg" xmlns:xlink="http://www.w3.org/1999/xlink"><linearGradient id="a" gradientUnits="userSpaceOnUse" x1="13" x2="3.254" y1="14.999" y2="9.368"><stop offset="0" stop-color="#0059b3"/><stop offset="1" stop-color="#007fff"/></linearGradient><mask id="b" height="15" maskUnits="userSpaceOnUse" width="13" x="0" y="0"><path d="m0 5.177a2.47 2.47 0 0 1 1.236-2.14l4.03-2.325a2.47 2.47 0 0 1 2.469 0l4.029 2.325a2.47 2.47 0 0 1 1.236 2.14v4.646a2.47 2.47 0 0 1 -1.236 2.14l-4.03 2.325a2.47 2.47 0 0 1 -2.469 0l-4.029-2.325a2.47 2.47 0 0 1 -1.236-2.14z" fill="#ed64a6"/></mask><g mask="url(#b)"><path d="m0 3.75 6.5 3.75 6.5-3.75-6.5-3.75z" fill="#80bfff"/><path d="m6.5 7.5v7.5l6.5-3.75v-7.5z" fill="url(#a)"/><path d="m0 11.25 6.5 3.75v-7.5l-6.5-3.75z" fill="#39f"/></g></svg>