<svg fill="none" height="37" viewBox="0 0 87 37" width="87" xmlns="http://www.w3.org/2000/svg" xmlns:xlink="http://www.w3.org/1999/xlink"><linearGradient id="a" gradientUnits="userSpaceOnUse" x1="20.3555" x2="20.3555" y1="10.5" y2="26.5"><stop offset="0" stop-color="#7bcbd4"/><stop offset="1" stop-color="#29c6b7"/></linearGradient><clipPath id="b"><path d="m12.3555 10.5h62.1323v16h-62.1323z"/></clipPath><rect fill="#14191f" height="36" rx="7.5" width="85.1323" x=".855469" y=".5"/><g clip-path="url(#b)"><path d="m36.5402 17.6776c1.0965 0 1.5855.7112 1.7484 1.3483l1.541-.563c-.2963-1.1558-1.3632-2.3708-3.3042-2.3708-2.0744 0-3.6895 1.6003-3.6895 3.8229 0 2.1929 1.6151 3.8376 3.734 3.8376 1.8965 0 2.9782-1.2298 3.319-2.3559l-1.5114-.5483c-.1629.5483-.6815 1.3336-1.8076 1.3336-1.0817 0-2.0152-.815-2.0152-2.267 0-1.4521.9335-2.2374 1.9855-2.2374zm6.0012 1.615c.0296-.9186.5482-1.6298 1.4965-1.6298 1.0817 0 1.4817.7112 1.4817 1.6002v4.2673h1.7188v-4.5636c0-1.5855-.8594-2.8597-2.6374-2.8597-.7557 0-1.5706.2667-2.0596.9038v-4.2081h-1.7188v10.7276h1.7188zm5.7523 2.2819c0 1.1409.9335 2.1781 2.4448 2.1781 1.1706 0 1.8818-.5927 2.2226-1.1409 0 .5778.0592.8742.0741.9186h1.6002c-.0148-.0741-.0889-.5038-.0889-1.1557v-3.5857c0-1.4373-.8446-2.6968-3.0671-2.6968-1.7781 0-2.9042 1.1113-3.0375 2.356l1.5706.3556c.0741-.7261.5778-1.3039 1.4817-1.3039.9483 0 1.3632.4889 1.3632 1.0964 0 .2519-.1186.4594-.5335.5186l-1.8521.2816c-1.2298.1778-2.1781.889-2.1781 2.1781zm2.7708.8297c-.6816 0-1.052-.4445-1.052-.9335 0-.5926.4297-.889.9631-.9779l1.8818-.2815v.326c0 1.4076-.8298 1.8669-1.7929 1.8669zm11.7237-6.0898h-2.2819l-2.7708 2.919v-6.4307h-1.7039v10.7276h1.7039v-2.0151l.8891-.9335 2.1188 2.9486h2.1041l-3.0227-4.1636zm4.9333-.0445c-.0741-.0148-.2519-.0444-.4594-.0444-.9482 0-1.7484.4593-2.0892 1.2446v-1.1557h-1.6743v7.2159h1.7188v-3.4375c0-1.3484.6075-2.1189 1.941-2.1189.1778 0 .3705.0148.5631.0445zm.4121 5.3046c0 1.1409.9334 2.1781 2.4448 2.1781 1.1705 0 1.8818-.5927 2.2225-1.1409 0 .5778.0593.8742.0741.9186h1.6003c-.0148-.0741-.0889-.5038-.0889-1.1557v-3.5857c0-1.4373-.8446-2.6968-3.0672-2.6968-1.778 0-2.9041 1.1113-3.0375 2.356l1.5706.3556c.0741-.7261.5779-1.3039 1.4818-1.3039.9482 0 1.3631.4889 1.3631 1.0964 0 .2519-.1185.4594-.5334.5186l-1.8521.2816c-1.2298.1778-2.1781.889-2.1781 2.1781zm2.7708.8297c-.6816 0-1.0521-.4445-1.0521-.9335 0-.5926.4297-.889.9632-.9779l1.8817-.2815v.326c0 1.4076-.8297 1.8669-1.7928 1.8669z" fill="#fff"/><path d="m28.3555 18.5c0-4.4183-3.5818-8-8-8-4.4183 0-8 3.5817-8 8s3.5817 8 8 8c4.4182 0 8-3.5817 8-8z" fill="url(#a)"/><path d="m16.6855 18.8417 5.4532-5.4157c.1018-.1012.2658.0219.197.148l-2.0296 3.72c-.0454.0829.0147.1841.1092.1841h3.5076c.113 0 .1675.1384.0849.2155l-6.1465 5.7365c-.1102.1029-.2742-.0421-.1858-.1641l2.9097-4.0139c.0596-.0823.0008-.1976-.1008-.1976h-3.7112c-.1111 0-.1666-.1345-.0877-.2128z" fill="#fff"/></g><rect height="36" rx="7.5" stroke="#2f3a46" stroke-dasharray="4 4" width="85.1323" x=".855469" y=".5"/></svg>