<svg width="115" height="37" viewBox="0 0 115 37" fill="none" xmlns="http://www.w3.org/2000/svg">
<rect x="1.14453" y="0.5" width="113" height="36" rx="7.5" fill="#14191F"/>
<g clip-path="url(#clip0_6594_833737)">
<path d="M19.9699 10.8338L12.9773 17.8207C12.6013 18.1963 12.6013 18.803 12.9773 19.1786L19.9699 26.1655C20.3459 26.5411 20.9531 26.5411 21.329 26.1655L24.2609 23.236C24.5976 22.8996 24.5976 22.3542 24.2609 22.0178C23.9242 21.6814 23.3784 21.6814 23.0417 22.0178L20.819 24.2386C20.7255 24.3321 20.5834 24.3321 20.4899 24.2386L14.9057 18.6591C14.8122 18.5656 14.8122 18.4237 14.9057 18.3302L20.4899 12.7507C20.5834 12.6572 20.7255 12.6572 20.819 12.7507L23.0417 14.9715C23.3784 15.3079 23.9242 15.3079 24.2609 14.9715C24.5976 14.6351 24.5976 14.0897 24.2609 13.7533L21.3293 10.8241C20.9518 10.4566 20.3444 10.4596 19.9699 10.8338Z" fill="url(#paint0_linear_6594_833737)"/>
<path d="M19.9699 10.8338L12.9773 17.8207C12.6013 18.1963 12.6013 18.803 12.9773 19.1786L19.9699 26.1655C20.3459 26.5411 20.9531 26.5411 21.329 26.1655L24.2609 23.236C24.5976 22.8996 24.5976 22.3542 24.2609 22.0178C23.9242 21.6814 23.3784 21.6814 23.0417 22.0178L20.819 24.2386C20.7255 24.3321 20.5834 24.3321 20.4899 24.2386L14.9057 18.6591C14.8122 18.5656 14.8122 18.4237 14.9057 18.3302L20.4899 12.7507C20.7229 12.5498 21.103 12.143 21.6612 12.0478C22.0761 11.9771 22.5297 12.1328 23.022 12.5148C22.6928 12.1859 22.1286 11.6224 21.3293 10.8241C20.9518 10.4566 20.3444 10.4596 19.9699 10.8338Z" fill="url(#paint1_linear_6594_833737)"/>
<path d="M24.9366 21.3684C25.2732 21.7048 25.8191 21.7048 26.1558 21.3684L28.3185 19.2074C28.6944 18.8318 28.6944 18.2251 28.3185 17.8495L26.137 15.6775C25.7995 15.3415 25.2534 15.3419 24.9166 15.6785C24.5799 16.015 24.5799 16.5604 24.9166 16.8968L26.39 18.369C26.4836 18.4625 26.4836 18.6044 26.39 18.6979L24.9366 20.1502C24.5999 20.4866 24.5999 21.032 24.9366 21.3684Z" fill="url(#paint2_linear_6594_833737)"/>
<path d="M20.6849 20.4214C21.7276 20.4214 22.5729 19.5768 22.5729 18.5349C22.5729 17.493 21.7276 16.6484 20.6849 16.6484C19.6422 16.6484 18.7969 17.493 18.7969 18.5349C18.7969 19.5768 19.6422 20.4214 20.6849 20.4214Z" fill="url(#paint3_linear_6594_833737)"/>
</g>
<path d="M39.9525 24L39.0705 21.354H35.4165L34.5625 24H32.9525L36.2845 14.228H38.2725L41.6045 24H39.9525ZM37.2785 15.684H37.2085L35.7945 19.996H38.6785L37.2785 15.684ZM43.0061 24V16.72H44.5321V17.924H44.6021C44.7607 17.532 44.9987 17.2053 45.3161 16.944C45.6427 16.6827 46.0861 16.552 46.6461 16.552C47.3927 16.552 47.9714 16.7993 48.3821 17.294C48.8021 17.7793 49.0121 18.4747 49.0121 19.38V24H47.4861V19.576C47.4861 18.4373 47.0287 17.868 46.1141 17.868C45.9181 17.868 45.7221 17.896 45.5261 17.952C45.3394 17.9987 45.1714 18.0733 45.0221 18.176C44.8727 18.2787 44.7514 18.4093 44.6581 18.568C44.5741 18.7267 44.5321 18.9133 44.5321 19.128V24H43.0061ZM53.1432 24C52.6112 24 52.2098 23.8647 51.9392 23.594C51.6685 23.314 51.5332 22.922 51.5332 22.418V17.966H50.3992V16.72H51.0152C51.2672 16.72 51.4398 16.664 51.5332 16.552C51.6358 16.44 51.6872 16.258 51.6872 16.006V14.732H53.0592V16.72H54.5852V17.966H53.0592V22.754H54.4732V24H53.1432ZM59.661 14.228H63.119C63.7444 14.228 64.309 14.3307 64.813 14.536C65.3264 14.7413 65.7604 15.0493 66.115 15.46C66.479 15.8613 66.759 16.37 66.955 16.986C67.151 17.5927 67.249 18.302 67.249 19.114C67.249 19.926 67.151 20.64 66.955 21.256C66.759 21.8627 66.479 22.3713 66.115 22.782C65.7604 23.1833 65.3264 23.4867 64.813 23.692C64.309 23.8973 63.7444 24 63.119 24H59.661V14.228ZM63.119 22.6C63.847 22.6 64.435 22.3713 64.883 21.914C65.331 21.4567 65.555 20.7847 65.555 19.898V18.33C65.555 17.4433 65.331 16.7713 64.883 16.314C64.435 15.8567 63.847 15.628 63.119 15.628H61.243V22.6H63.119ZM71.9617 24.168C71.439 24.168 70.9723 24.0793 70.5617 23.902C70.151 23.7247 69.801 23.4727 69.5117 23.146C69.2223 22.81 68.9983 22.4087 68.8397 21.942C68.6903 21.466 68.6157 20.9387 68.6157 20.36C68.6157 19.7813 68.6903 19.2587 68.8397 18.792C68.9983 18.316 69.2223 17.9147 69.5117 17.588C69.801 17.252 70.151 16.9953 70.5617 16.818C70.9723 16.6407 71.439 16.552 71.9617 16.552C72.4937 16.552 72.9603 16.6453 73.3617 16.832C73.7723 17.0187 74.113 17.28 74.3837 17.616C74.6543 17.9427 74.855 18.3253 74.9857 18.764C75.1257 19.2027 75.1957 19.674 75.1957 20.178V20.752H70.1977V20.99C70.1977 21.55 70.361 22.012 70.6877 22.376C71.0237 22.7307 71.4997 22.908 72.1157 22.908C72.5637 22.908 72.9417 22.81 73.2497 22.614C73.5577 22.418 73.819 22.152 74.0337 21.816L74.9297 22.698C74.659 23.146 74.267 23.5053 73.7537 23.776C73.2403 24.0373 72.643 24.168 71.9617 24.168ZM71.9617 17.742C71.7003 17.742 71.4577 17.7887 71.2337 17.882C71.019 17.9753 70.8323 18.106 70.6737 18.274C70.5243 18.442 70.4077 18.6427 70.3237 18.876C70.2397 19.1093 70.1977 19.366 70.1977 19.646V19.744H73.5857V19.604C73.5857 19.044 73.441 18.596 73.1517 18.26C72.8623 17.9147 72.4657 17.742 71.9617 17.742ZM79.195 24.168C78.5043 24.168 77.9256 24.0467 77.459 23.804C76.9923 23.5613 76.5863 23.2253 76.241 22.796L77.221 21.9C77.4916 22.2267 77.7903 22.4833 78.117 22.67C78.453 22.8473 78.8403 22.936 79.279 22.936C79.727 22.936 80.0583 22.852 80.273 22.684C80.497 22.5067 80.609 22.264 80.609 21.956C80.609 21.7227 80.5296 21.5267 80.371 21.368C80.2216 21.2 79.9556 21.0927 79.573 21.046L78.901 20.962C78.1543 20.8687 77.5663 20.654 77.137 20.318C76.717 19.9727 76.507 19.464 76.507 18.792C76.507 18.4373 76.5723 18.1247 76.703 17.854C76.8336 17.574 77.0156 17.3407 77.249 17.154C77.4916 16.958 77.7763 16.8087 78.103 16.706C78.439 16.6033 78.8076 16.552 79.209 16.552C79.8623 16.552 80.3943 16.6547 80.805 16.86C81.225 17.0653 81.5983 17.35 81.925 17.714L80.987 18.61C80.8003 18.386 80.553 18.1947 80.245 18.036C79.9463 17.868 79.601 17.784 79.209 17.784C78.789 17.784 78.4763 17.868 78.271 18.036C78.075 18.204 77.977 18.4233 77.977 18.694C77.977 18.974 78.0656 19.184 78.243 19.324C78.4203 19.464 78.705 19.5667 79.097 19.632L79.769 19.716C80.5716 19.8373 81.155 20.0753 81.519 20.43C81.8923 20.7753 82.079 21.242 82.079 21.83C82.079 22.1847 82.009 22.5067 81.869 22.796C81.7383 23.076 81.547 23.3187 81.295 23.524C81.043 23.7293 80.7396 23.888 80.385 24C80.0303 24.112 79.6336 24.168 79.195 24.168ZM84.5729 15.418C84.2556 15.418 84.0223 15.3433 83.8729 15.194C83.7329 15.0447 83.6629 14.8533 83.6629 14.62V14.382C83.6629 14.1487 83.7329 13.9573 83.8729 13.808C84.0223 13.6587 84.2556 13.584 84.5729 13.584C84.8903 13.584 85.1189 13.6587 85.2589 13.808C85.3989 13.9573 85.4689 14.1487 85.4689 14.382V14.62C85.4689 14.8533 85.3989 15.0447 85.2589 15.194C85.1189 15.3433 84.8903 15.418 84.5729 15.418ZM83.8029 16.72H85.3289V24H83.8029V16.72ZM93.892 24.686C93.892 25.442 93.6027 26.0113 93.024 26.394C92.4453 26.7767 91.5027 26.968 90.196 26.968C89.5987 26.968 89.09 26.926 88.67 26.842C88.2593 26.7673 87.9187 26.6553 87.648 26.506C87.3867 26.3567 87.1953 26.1747 87.074 25.96C86.9527 25.7453 86.892 25.498 86.892 25.218C86.892 24.8167 86.9993 24.504 87.214 24.28C87.438 24.056 87.746 23.902 88.138 23.818V23.664C87.5873 23.4867 87.312 23.1133 87.312 22.544C87.312 22.1707 87.438 21.886 87.69 21.69C87.942 21.4847 88.2453 21.34 88.6 21.256V21.2C88.1707 20.9947 87.8393 20.71 87.606 20.346C87.382 19.9727 87.27 19.5387 87.27 19.044C87.27 18.2973 87.5173 17.6953 88.012 17.238C88.516 16.7807 89.2347 16.552 90.168 16.552C90.6813 16.552 91.12 16.6267 91.484 16.776V16.58C91.484 16.2533 91.5587 16.0013 91.708 15.824C91.8667 15.6373 92.1093 15.544 92.436 15.544H93.556V16.776H92.072V17.07C92.3987 17.2847 92.6507 17.5647 92.828 17.91C93.0053 18.246 93.094 18.624 93.094 19.044C93.094 19.7813 92.842 20.3787 92.338 20.836C91.834 21.284 91.1153 21.508 90.182 21.508C89.8273 21.508 89.51 21.4707 89.23 21.396C89.0433 21.4613 88.88 21.5547 88.74 21.676C88.6 21.788 88.53 21.9373 88.53 22.124C88.53 22.32 88.6187 22.46 88.796 22.544C88.9733 22.628 89.2253 22.67 89.552 22.67H91.344C92.24 22.67 92.8887 22.852 93.29 23.216C93.6913 23.5707 93.892 24.0607 93.892 24.686ZM92.464 24.854C92.464 24.602 92.366 24.4013 92.17 24.252C91.9833 24.1027 91.638 24.028 91.134 24.028H88.67C88.334 24.224 88.166 24.504 88.166 24.868C88.166 25.1667 88.2827 25.4047 88.516 25.582C88.7587 25.7687 89.1647 25.862 89.734 25.862H90.686C91.8713 25.862 92.464 25.526 92.464 24.854ZM90.182 20.402C90.63 20.402 90.9753 20.304 91.218 20.108C91.47 19.9027 91.596 19.59 91.596 19.17V18.89C91.596 18.47 91.47 18.162 91.218 17.966C90.9753 17.7607 90.63 17.658 90.182 17.658C89.734 17.658 89.384 17.7607 89.132 17.966C88.8893 18.162 88.768 18.47 88.768 18.89V19.17C88.768 19.59 88.8893 19.9027 89.132 20.108C89.384 20.304 89.734 20.402 90.182 20.402ZM95.0275 24V16.72H96.5535V17.924H96.6235C96.7822 17.532 97.0202 17.2053 97.3375 16.944C97.6642 16.6827 98.1075 16.552 98.6675 16.552C99.4142 16.552 99.9929 16.7993 100.404 17.294C100.824 17.7793 101.034 18.4747 101.034 19.38V24H99.5075V19.576C99.5075 18.4373 99.0502 17.868 98.1355 17.868C97.9395 17.868 97.7435 17.896 97.5475 17.952C97.3609 17.9987 97.1929 18.0733 97.0435 18.176C96.8942 18.2787 96.7729 18.4093 96.6795 18.568C96.5955 18.7267 96.5535 18.9133 96.5535 19.128V24H95.0275Z" fill="white"/>
<rect x="1.14453" y="0.5" width="113" height="36" rx="7.5" stroke="#2F3A46" stroke-dasharray="4 4"/>
<defs>
<linearGradient id="paint0_linear_6594_833737" x1="746.627" y1="10.5508" x2="1411.13" y2="416.354" gradientUnits="userSpaceOnUse">
<stop stop-color="#4285EB"/>
<stop offset="1" stop-color="#2EC7FF"/>
</linearGradient>
<linearGradient id="paint1_linear_6594_833737" x1="835.757" y1="10.5508" x2="507.552" y2="1706.8" gradientUnits="userSpaceOnUse">
<stop stop-color="#29CDFF"/>
<stop offset="0.378601" stop-color="#148EFF"/>
<stop offset="1" stop-color="#0A60FF"/>
</linearGradient>
<linearGradient id="paint2_linear_6594_833737" x1="298.995" y1="-64.9491" x2="-128.05" y2="602.913" gradientUnits="userSpaceOnUse">
<stop stop-color="#FA816E"/>
<stop offset="0.414726" stop-color="#F74A5C"/>
<stop offset="1" stop-color="#F51D2C"/>
</linearGradient>
<linearGradient id="paint3_linear_6594_833737" x1="276.05" y1="-118.009" x2="133.96" y2="450.374" gradientUnits="userSpaceOnUse">
<stop stop-color="#FA8E7D"/>
<stop offset="0.512635" stop-color="#F74A5C"/>
<stop offset="1" stop-color="#F51D2C"/>
</linearGradient>
<clipPath id="clip0_6594_833737">
<rect width="16" height="16" fill="white" transform="translate(12.6445 10.5)"/>
</clipPath>
</defs>
</svg>
