<svg width="87" height="37" viewBox="0 0 87 37" fill="none" xmlns="http://www.w3.org/2000/svg">
<rect x="0.855469" y="0.5" width="85.1323" height="36" rx="7.5" fill="white"/>
<g clip-path="url(#clip0_6588_897007)">
<path d="M36.5402 17.6776C37.6367 17.6776 38.1257 18.3888 38.2886 19.0259L39.8296 18.4629C39.5333 17.3071 38.4664 16.0921 36.5254 16.0921C34.451 16.0921 32.8359 17.6924 32.8359 19.915C32.8359 22.1079 34.451 23.7526 36.5699 23.7526C38.4664 23.7526 39.5481 22.5228 39.8889 21.3967L38.3775 20.8484C38.2146 21.3967 37.696 22.182 36.5699 22.182C35.4882 22.182 34.5547 21.367 34.5547 19.915C34.5547 18.4629 35.4882 17.6776 36.5402 17.6776ZM42.5414 19.2926C42.571 18.374 43.0896 17.6628 44.0379 17.6628C45.1196 17.6628 45.5196 18.374 45.5196 19.263V23.5303H47.2384V18.9667C47.2384 17.3812 46.379 16.107 44.601 16.107C43.8453 16.107 43.0304 16.3737 42.5414 17.0108V12.8027H40.8226V23.5303H42.5414V19.2926ZM48.2937 21.5745C48.2937 22.7154 49.2272 23.7526 50.7385 23.7526C51.9091 23.7526 52.6203 23.1599 52.9611 22.6117C52.9611 23.1895 53.0203 23.4859 53.0352 23.5303H54.6354C54.6206 23.4562 54.5465 23.0265 54.5465 22.3746V18.7889C54.5465 17.3516 53.7019 16.0921 51.4794 16.0921C49.7013 16.0921 48.5752 17.2034 48.4419 18.4481L50.0125 18.8037C50.0866 18.0776 50.5903 17.4998 51.4942 17.4998C52.4425 17.4998 52.8574 17.9887 52.8574 18.5962C52.8574 18.8481 52.7388 19.0556 52.3239 19.1148L50.4718 19.3964C49.242 19.5742 48.2937 20.2854 48.2937 21.5745ZM51.0645 22.4042C50.3829 22.4042 50.0125 21.9597 50.0125 21.4707C50.0125 20.8781 50.4422 20.5817 50.9756 20.4928L52.8574 20.2113V20.5373C52.8574 21.9449 52.0276 22.4042 51.0645 22.4042ZM62.7882 16.3144H60.5063L57.7355 19.2334V12.8027H56.0316V23.5303H57.7355V21.5152L58.6246 20.5817L60.7434 23.5303H62.8475L59.8248 19.3667L62.7882 16.3144ZM67.7215 16.2699C67.6474 16.2551 67.4696 16.2255 67.2621 16.2255C66.3139 16.2255 65.5137 16.6848 65.1729 17.4701V16.3144H63.4986V23.5303H65.2174V20.0928C65.2174 18.7444 65.8249 17.9739 67.1584 17.9739C67.3362 17.9739 67.5289 17.9887 67.7215 18.0184V16.2699ZM68.1336 21.5745C68.1336 22.7154 69.067 23.7526 70.5784 23.7526C71.7489 23.7526 72.4602 23.1599 72.8009 22.6117C72.8009 23.1895 72.8602 23.4859 72.875 23.5303H74.4753C74.4605 23.4562 74.3864 23.0265 74.3864 22.3746V18.7889C74.3864 17.3516 73.5418 16.0921 71.3192 16.0921C69.5412 16.0921 68.4151 17.2034 68.2817 18.4481L69.8523 18.8037C69.9264 18.0776 70.4302 17.4998 71.3341 17.4998C72.2823 17.4998 72.6972 17.9887 72.6972 18.5962C72.6972 18.8481 72.5787 19.0556 72.1638 19.1148L70.3117 19.3964C69.0819 19.5742 68.1336 20.2854 68.1336 21.5745ZM70.9044 22.4042C70.2228 22.4042 69.8523 21.9597 69.8523 21.4707C69.8523 20.8781 70.282 20.5817 70.8155 20.4928L72.6972 20.2113V20.5373C72.6972 21.9449 71.8675 22.4042 70.9044 22.4042Z" fill="#2D3748"/>
<path d="M28.3555 18.5C28.3555 14.0817 24.7737 10.5 20.3555 10.5C15.9372 10.5 12.3555 14.0817 12.3555 18.5C12.3555 22.9183 15.9372 26.5 20.3555 26.5C24.7737 26.5 28.3555 22.9183 28.3555 18.5Z" fill="url(#paint0_linear_6588_897007)"/>
<path d="M16.6855 18.8417L22.1387 13.426C22.2405 13.3248 22.4045 13.4479 22.3357 13.574L20.3061 17.294C20.2607 17.3769 20.3208 17.4781 20.4153 17.4781H23.9229C24.0359 17.4781 24.0904 17.6165 24.0078 17.6936L17.8613 23.4301C17.7511 23.533 17.5871 23.388 17.6755 23.266L20.5852 19.2521C20.6448 19.1698 20.586 19.0545 20.4844 19.0545H16.7732C16.6621 19.0545 16.6066 18.92 16.6855 18.8417Z" fill="white"/>
</g>
<rect x="0.855469" y="0.5" width="85.1323" height="36" rx="7.5" stroke="#DAE2ED" stroke-dasharray="4 4"/>
<defs>
<linearGradient id="paint0_linear_6588_897007" x1="20.3555" y1="10.5" x2="20.3555" y2="26.5" gradientUnits="userSpaceOnUse">
<stop stop-color="#7BCBD4"/>
<stop offset="1" stop-color="#29C6B7"/>
</linearGradient>
<clipPath id="clip0_6588_897007">
<rect width="62.1323" height="16" fill="white" transform="translate(12.3555 10.5)"/>
</clipPath>
</defs>
</svg>
