<svg width="86" height="37" viewBox="0 0 86 37" fill="none" xmlns="http://www.w3.org/2000/svg">
<rect x="0.988281" y="0.5" width="84.1532" height="36" rx="7.5" fill="#14191F"/>
<g clip-path="url(#clip0_6594_833729)">
<path d="M28.4177 18.5C28.4177 14.0817 24.8544 10.5 20.459 10.5C16.0633 10.5 12.5 14.0817 12.5 18.5C12.5 22.9182 16.0633 26.5 20.4589 26.5C24.8544 26.5 28.4177 22.9182 28.4177 18.5Z" fill="#339AF0"/>
<path d="M18.9785 14.7263C18.9072 14.8232 18.866 14.939 18.8601 15.0592C18.8543 15.1794 18.884 15.2986 18.9455 15.402C18.9864 15.4704 19.0403 15.53 19.1043 15.5774C20.0314 16.268 20.5636 17.324 20.5636 18.475C20.5636 19.626 20.0314 20.682 19.1043 21.3727C19.0404 21.4201 18.9865 21.4797 18.9457 21.548C18.8629 21.6865 18.8384 21.8522 18.8776 22.0087C18.8969 22.0862 18.9312 22.1592 18.9785 22.2232C19.0257 22.2874 19.0852 22.3415 19.1534 22.3826C19.2216 22.4236 19.2973 22.4508 19.376 22.4625C19.4548 22.4742 19.5351 22.4703 19.6123 22.4508C19.6895 22.4314 19.7622 22.3969 19.826 22.3493C20.1115 22.1364 20.3731 21.8932 20.6061 21.6239H22.3232C22.6575 21.6239 22.9292 21.3518 22.9292 21.0159C22.9292 20.68 22.6581 20.4079 22.3232 20.4079H21.3754C21.6404 19.798 21.7764 19.14 21.7751 18.4751C21.7765 17.8102 21.6405 17.1521 21.3755 16.5422H22.3238C22.6581 16.5422 22.9297 16.2702 22.9297 15.9342C22.9297 15.5983 22.6586 15.3263 22.3238 15.3263H20.6071C20.3739 15.0567 20.1122 14.8132 19.8265 14.6002C19.7627 14.5526 19.6902 14.5182 19.6131 14.4987C19.536 14.4793 19.4558 14.4753 19.3771 14.487C19.218 14.5109 19.0748 14.597 18.9791 14.7263H18.9785Z" fill="white"/>
<path fill-rule="evenodd" clip-rule="evenodd" d="M18.0198 18.2932C18.0169 18.1722 18.038 18.0518 18.0818 17.939C18.1255 17.8265 18.1911 17.7238 18.2749 17.637C18.3583 17.5505 18.4583 17.4816 18.5688 17.4345C18.679 17.3875 18.7976 17.3633 18.9174 17.3633C19.0372 17.3633 19.1558 17.3875 19.266 17.4345C19.3766 17.4816 19.4766 17.5505 19.56 17.637C19.6438 17.7238 19.7094 17.8265 19.7531 17.939C19.7969 18.0518 19.8179 18.1722 19.8149 18.2932C19.8095 18.5295 19.7125 18.7546 19.5445 18.9209C19.3776 19.0861 19.1523 19.1788 18.9175 19.179C18.6826 19.1789 18.4572 19.0861 18.2902 18.9209C18.1222 18.7546 18.0252 18.5295 18.0198 18.2932Z" fill="white"/>
<path d="M41.1391 22.9317C41.3338 22.9317 41.5144 22.8891 41.6807 22.8039C41.8471 22.7187 41.9303 22.595 41.9303 22.4327V14.8253C41.9303 14.5332 41.8491 14.3284 41.6868 14.2107C41.5246 14.093 41.342 14.0342 41.1391 14.0342C40.9525 14.0342 40.7901 14.0545 40.6522 14.095C40.5143 14.1356 40.3905 14.2168 40.281 14.3385C40.1714 14.4602 40.0436 14.6387 39.8976 14.874L38.4004 17.6005L36.9155 14.874C36.7856 14.6387 36.6619 14.4602 36.5443 14.3385C36.4266 14.2168 36.3008 14.1356 36.1669 14.095C36.033 14.0545 35.8687 14.0342 35.674 14.0342C35.4792 14.0342 35.2987 14.0931 35.1323 14.2107C34.966 14.3284 34.8828 14.5332 34.8828 14.8253V22.4327C34.8828 22.595 34.966 22.7187 35.1323 22.8039C35.2987 22.8891 35.4792 22.9317 35.674 22.9317C35.8769 22.9317 36.0594 22.8891 36.2217 22.8039C36.384 22.7187 36.4651 22.595 36.4651 22.4327V17.1015L37.8649 19.7306C37.9379 19.8523 38.0211 19.9354 38.1144 19.9801C38.2077 20.0248 38.299 20.047 38.3883 20.047C38.4857 20.047 38.583 20.0227 38.6804 19.974C38.7778 19.9253 38.863 19.8441 38.936 19.7306L40.3479 17.1988V22.4327C40.3479 22.595 40.4311 22.7187 40.5974 22.8039C40.7638 22.8891 40.9443 22.9317 41.1391 22.9317ZM44.5133 23.0413C44.9352 23.0413 45.2943 22.9439 45.5905 22.7492C45.8867 22.5544 46.1443 22.3313 46.3634 22.0797V22.4327C46.3634 22.5706 46.4304 22.6883 46.5643 22.7857C46.6982 22.8831 46.8666 22.9317 47.0694 22.9317C47.2885 22.9317 47.4711 22.8831 47.6171 22.7857C47.7632 22.6883 47.8362 22.5707 47.8362 22.4327V19.4506C47.8362 19.0368 47.7489 18.6513 47.5745 18.2943C47.4 17.9373 47.1221 17.6452 46.7408 17.4179C46.3593 17.1907 45.8522 17.0771 45.2193 17.0771C44.9352 17.0771 44.6431 17.1136 44.3429 17.1867C44.0426 17.2597 43.7891 17.3632 43.5822 17.4971C43.3753 17.6309 43.2718 17.7831 43.2718 17.9535C43.2718 18.132 43.3184 18.3065 43.4118 18.4769C43.505 18.6473 43.637 18.7325 43.8074 18.7325C43.9128 18.7325 44.0102 18.7001 44.0995 18.6351C44.1888 18.5702 44.3165 18.5073 44.4829 18.4464C44.6492 18.3856 44.8865 18.3552 45.1949 18.3552C45.4708 18.3552 45.6838 18.412 45.834 18.5256C45.9841 18.6391 46.0936 18.7812 46.1626 18.9516C46.2307 19.1177 46.2659 19.2954 46.2661 19.475V19.6332H45.767C45.2071 19.6332 44.7142 19.6859 44.2881 19.7914C43.8621 19.897 43.5294 20.0795 43.2901 20.3392C43.0506 20.5988 42.931 20.9599 42.931 21.4224C42.931 21.9742 43.0872 22.382 43.3996 22.6457C43.7119 22.9095 44.0832 23.0413 44.5133 23.0413ZM45.1463 21.8728C44.9677 21.8728 44.8156 21.8201 44.6898 21.7146C44.564 21.6091 44.5011 21.4427 44.5011 21.2155C44.5011 20.9883 44.5761 20.8199 44.7263 20.7104C44.8765 20.6009 45.0732 20.5298 45.3167 20.4974C45.5601 20.465 45.8157 20.4487 46.0835 20.4487H46.2661V20.7043C46.2661 20.8991 46.2072 21.0857 46.0896 21.2642C45.9719 21.4428 45.8279 21.5888 45.6575 21.7024C45.4871 21.816 45.3167 21.8728 45.1463 21.8728ZM53.4082 22.9317C53.6111 22.9317 53.7937 22.8891 53.956 22.8039C54.1182 22.7187 54.1994 22.595 54.1994 22.4327V19.548C54.1994 19.0935 54.1041 18.6798 53.9133 18.3065C53.7226 17.9332 53.4691 17.6351 53.1526 17.4118C52.8361 17.1887 52.4872 17.0771 52.1058 17.0771C51.7002 17.0771 51.3573 17.1724 51.0773 17.3632C50.7974 17.5539 50.5965 17.7669 50.4748 18.0022V17.637C50.4748 17.491 50.4079 17.3733 50.274 17.284C50.1401 17.1947 49.9758 17.1502 49.781 17.1502C49.5538 17.1502 49.3672 17.1948 49.2211 17.284C49.0751 17.3734 49.002 17.491 49.002 17.637V22.4327C49.002 22.5544 49.0751 22.668 49.2211 22.7735C49.3672 22.879 49.5539 22.9317 49.781 22.9317C50.0001 22.9317 50.1867 22.879 50.3409 22.7735C50.4951 22.668 50.5722 22.5544 50.5722 22.4327V19.548C50.5722 19.3208 50.6209 19.126 50.7183 18.9638C50.8156 18.8015 50.9414 18.6757 51.0956 18.5864C51.2497 18.4971 51.408 18.4525 51.5703 18.4525C51.765 18.4525 51.9436 18.5073 52.1058 18.6169C52.2681 18.7264 52.3959 18.8623 52.4893 19.0246C52.5817 19.1835 52.63 19.3642 52.6292 19.548V22.4327C52.6292 22.595 52.7144 22.7187 52.8848 22.8039C53.0552 22.8891 53.2297 22.9317 53.4082 22.9317ZM58.0641 22.9317C58.2914 22.9317 58.4597 22.8627 58.5692 22.7248C58.6788 22.5869 58.7336 22.4327 58.7336 22.2623C58.7336 22.1 58.6788 21.9499 58.5692 21.8119C58.4597 21.674 58.2914 21.605 58.0641 21.605H57.5894C57.3378 21.605 57.1614 21.5563 57.0599 21.459C56.9585 21.3616 56.9078 21.1952 56.9078 20.9599V18.2943H58.3441C58.4739 18.2943 58.5733 18.2354 58.6423 18.1178C58.7113 18.0001 58.7457 17.8683 58.7457 17.7222C58.7457 17.5762 58.7113 17.4443 58.6423 17.3266C58.5733 17.209 58.4739 17.1502 58.3441 17.1502H56.9078V15.0566C56.9078 14.9105 56.8247 14.7929 56.6583 14.7036C56.4919 14.6143 56.3114 14.5697 56.1166 14.5697C55.9381 14.5697 55.7637 14.6144 55.5932 14.7036C55.4228 14.793 55.3376 14.9105 55.3376 15.0566V20.9599C55.3376 21.6415 55.5303 22.1406 55.9158 22.4571C56.3013 22.7735 56.8591 22.9317 57.5894 22.9317H58.0641ZM60.3288 15.8599C60.5641 15.8599 60.765 15.7808 60.9313 15.6226C61.0977 15.4644 61.1809 15.2879 61.1809 15.0931C61.1809 14.8821 61.0977 14.7016 60.9313 14.5515C60.765 14.4013 60.5642 14.3263 60.3288 14.3263C60.0936 14.3263 59.8907 14.4014 59.7203 14.5515C59.5499 14.7017 59.4647 14.8822 59.4647 15.0931C59.4647 15.2879 59.5499 15.4644 59.7203 15.6226C59.8907 15.7808 60.0936 15.8599 60.3288 15.8599ZM60.3288 22.9317C60.5479 22.9317 60.7345 22.879 60.8887 22.7735C61.0429 22.668 61.12 22.5544 61.12 22.4327V17.637C61.12 17.491 61.043 17.3733 60.8887 17.284C60.7346 17.1947 60.5479 17.1502 60.3288 17.1502C60.1016 17.1502 59.915 17.1948 59.7689 17.284C59.6229 17.3734 59.5499 17.491 59.5499 17.637V22.4327C59.5499 22.5544 59.6229 22.668 59.7689 22.7735C59.915 22.879 60.1017 22.9317 60.3288 22.9317ZM66.7334 22.9317C66.9362 22.9317 67.1188 22.8891 67.2812 22.8039C67.4434 22.7187 67.5246 22.595 67.5246 22.4327V19.548C67.5246 19.0935 67.4292 18.6798 67.2386 18.3065C67.0479 17.9332 66.7943 17.6351 66.4778 17.4118C66.1614 17.1887 65.8124 17.0771 65.4311 17.0771C65.0253 17.0771 64.6825 17.1724 64.4026 17.3632C64.1226 17.5539 63.9218 17.7669 63.8001 18.0022V17.637C63.8001 17.491 63.7331 17.3733 63.5992 17.284C63.4653 17.1947 63.301 17.1502 63.1063 17.1502C62.879 17.1502 62.6924 17.1948 62.5464 17.284C62.4003 17.3734 62.3273 17.491 62.3273 17.637V22.4327C62.3273 22.5544 62.4003 22.668 62.5464 22.7735C62.6924 22.879 62.8791 22.9317 63.1063 22.9317C63.3254 22.9317 63.512 22.879 63.6662 22.7735C63.8203 22.668 63.8974 22.5544 63.8974 22.4327V19.548C63.8974 19.3208 63.9461 19.126 64.0435 18.9638C64.1409 18.8015 64.2666 18.6757 64.4208 18.5864C64.5749 18.4971 64.7332 18.4525 64.8955 18.4525C65.0903 18.4525 65.2687 18.5073 65.4311 18.6169C65.5933 18.7264 65.7211 18.8623 65.8145 19.0246C65.9069 19.1835 65.9552 19.3642 65.9545 19.548V22.4327C65.9545 22.595 66.0397 22.7187 66.2101 22.8039C66.3805 22.8891 66.5549 22.9317 66.7334 22.9317ZM71.4137 23.0413C71.8519 23.0413 72.2312 22.9865 72.5517 22.877C72.8722 22.7674 73.1197 22.6335 73.2942 22.4753C73.4686 22.3171 73.5559 22.1691 73.5559 22.031C73.5559 21.9499 73.5316 21.8545 73.4829 21.745C73.4347 21.6362 73.3642 21.5387 73.276 21.459C73.1866 21.3778 73.0812 21.3372 72.9595 21.3372C72.8458 21.3372 72.7241 21.3738 72.5943 21.4468C72.4645 21.5198 72.3103 21.597 72.1318 21.6781C71.9533 21.7592 71.7301 21.7998 71.4624 21.7998C71.0404 21.7998 70.6975 21.6923 70.4339 21.4772C70.1701 21.2623 70.0383 20.9802 70.0383 20.6313V20.4487H72.5091C72.6957 20.4487 72.8763 20.4304 73.0508 20.3939C73.2252 20.3574 73.3692 20.2641 73.4829 20.114C73.5965 19.9638 73.6533 19.7144 73.6533 19.3654C73.6533 18.9109 73.5356 18.5134 73.3003 18.1726C73.0649 17.8318 72.7587 17.564 72.3813 17.3692C72.004 17.1745 71.5882 17.0771 71.1337 17.0771C70.6387 17.0771 70.1904 17.1887 69.7887 17.4118C69.3871 17.635 69.0665 17.9311 68.8272 18.3004C68.5878 18.6696 68.4681 19.0733 68.4681 19.5115V20.5461C68.4681 21.0411 68.5939 21.4772 68.8454 21.8545C69.0969 22.2319 69.4438 22.524 69.8861 22.7309C70.3283 22.9378 70.8375 23.0413 71.4137 23.0413ZM71.8153 19.5237H70.0383V19.1828C70.0383 18.9881 70.0889 18.8197 70.1904 18.6777C70.2918 18.5357 70.4236 18.4261 70.586 18.3491C70.7483 18.272 70.9227 18.2334 71.1094 18.2334C71.3041 18.2334 71.4826 18.274 71.6449 18.3552C71.8072 18.4363 71.9371 18.5499 72.0344 18.696C72.1318 18.842 72.1805 19.0084 72.1805 19.195C72.1805 19.3249 72.1541 19.412 72.1014 19.4567C72.0486 19.5014 71.9533 19.5237 71.8153 19.5237Z" fill="white"/>
</g>
<rect x="0.988281" y="0.5" width="84.1532" height="36" rx="7.5" stroke="#2F3A46" stroke-dasharray="4 4"/>
<defs>
<clipPath id="clip0_6594_833729">
<rect width="61.1532" height="16" fill="white" transform="translate(12.4883 10.5)"/>
</clipPath>
</defs>
</svg>
