<svg width="122" height="38" viewBox="0 0 122 37" fill="none" xmlns="http://www.w3.org/2000/svg">
<rect x="1.25" y="0.5" width="119.5" height="36" rx="7.5" fill="#14191F"/>
<path d="M18.5447 13.866L13.1256 10.7183C12.9589 10.6214 12.75 10.7417 12.75 10.9344V19.7066C12.75 19.7952 12.797 19.8772 12.8734 19.9221L14.8984 21.1114C15.0651 21.2093 15.275 21.0891 15.275 20.8958V15.1714C15.275 15.0946 15.358 15.0464 15.4247 15.0846L18.5481 16.8731C18.8586 17.0509 19.2404 17.0492 19.5494 16.8687L22.5996 15.0868C22.6662 15.0478 22.75 15.095 22.75 15.1722V17.97C22.75 18.1438 22.6597 18.3054 22.5115 18.3963L19.3693 20.3244C19.2952 20.3699 19.25 20.4506 19.25 20.5375V23.3622C19.25 23.448 19.294 23.5278 19.3665 23.5736L23.4822 26.173C23.8 26.3737 24.2034 26.3792 24.5266 26.1874L29.7604 23.0809C30.0639 22.9007 30.25 22.5739 30.25 22.221V16.8137C30.25 16.6191 30.0376 16.4991 29.871 16.5995L28.214 17.5977C27.9136 17.7786 27.73 18.1036 27.73 18.4543V21.1645C27.73 21.2531 27.6832 21.335 27.6069 21.3799L24.5112 23.203C24.1961 23.3886 23.8047 23.3874 23.4907 23.1997L21.8252 22.2042C21.667 22.1097 21.662 21.8823 21.8158 21.7809L24.8255 19.7964C25.1061 19.6114 25.275 19.2977 25.275 18.9616V10.937C25.275 10.7436 25.065 10.6235 24.8983 10.7215L19.5538 13.8634C19.2425 14.0463 18.8569 14.0474 18.5447 13.866Z" fill="#007FFF"/>
<path d="M30.25 11.1814V12.8883C30.25 13.2336 30.0719 13.5544 29.779 13.737L28.1322 14.7634C27.9657 14.8672 27.75 14.7475 27.75 14.5513V12.7622C27.75 12.4038 27.9418 12.0728 28.2528 11.8946L29.8757 10.9645C30.0424 10.869 30.25 10.9893 30.25 11.1814Z" fill="#007FFF"/>
<path d="M44.776 16.986H44.72L43.964 18.54L41.962 22.236L39.96 18.54L39.204 16.986H39.148V24H37.398V14.228H39.484L41.99 19.002H42.046L44.524 14.228H46.526V24H44.776V16.986ZM54.0917 24C53.6997 24 53.387 23.888 53.1537 23.664C52.9297 23.4307 52.7897 23.1227 52.7337 22.74H52.6497C52.5284 23.216 52.281 23.5753 51.9077 23.818C51.5344 24.0513 51.0724 24.168 50.5217 24.168C49.775 24.168 49.201 23.972 48.7997 23.58C48.3984 23.188 48.1977 22.6653 48.1977 22.012C48.1977 21.256 48.4684 20.696 49.0097 20.332C49.551 19.9587 50.321 19.772 51.3197 19.772H52.5657V19.24C52.5657 18.8293 52.4584 18.512 52.2437 18.288C52.029 18.064 51.6837 17.952 51.2077 17.952C50.7877 17.952 50.447 18.0453 50.1857 18.232C49.9337 18.4093 49.719 18.624 49.5417 18.876L48.4777 17.924C48.7484 17.504 49.1077 17.168 49.5557 16.916C50.0037 16.6547 50.5964 16.524 51.3337 16.524C52.323 16.524 53.0744 16.748 53.5877 17.196C54.101 17.644 54.3577 18.288 54.3577 19.128V22.572H55.0857V24H54.0917ZM51.1237 22.866C51.525 22.866 51.8657 22.7773 52.1457 22.6C52.4257 22.4227 52.5657 22.1613 52.5657 21.816V20.85H51.4177C50.4844 20.85 50.0177 21.1487 50.0177 21.746V21.984C50.0177 22.2827 50.111 22.5067 50.2977 22.656C50.4937 22.796 50.769 22.866 51.1237 22.866ZM58.7633 24C58.1473 24 57.676 23.8413 57.3493 23.524C57.032 23.1973 56.8733 22.7353 56.8733 22.138V18.12H55.7953V16.692H56.3553C56.626 16.692 56.808 16.6313 56.9013 16.51C57.004 16.3793 57.0553 16.188 57.0553 15.936V14.69H58.6653V16.692H60.1633V18.12H58.6653V22.572H60.0513V24H58.7633ZM64.617 24.168C64.0756 24.168 63.5903 24.0793 63.161 23.902C62.741 23.7153 62.3816 23.4587 62.083 23.132C61.7936 22.796 61.5696 22.3947 61.411 21.928C61.2523 21.452 61.173 20.92 61.173 20.332C61.173 19.7533 61.2476 19.2307 61.397 18.764C61.5556 18.2973 61.7796 17.9007 62.069 17.574C62.3583 17.238 62.713 16.9813 63.133 16.804C63.553 16.6173 64.029 16.524 64.561 16.524C65.1303 16.524 65.625 16.622 66.045 16.818C66.465 17.014 66.8103 17.28 67.081 17.616C67.3516 17.952 67.5523 18.344 67.683 18.792C67.823 19.2307 67.893 19.702 67.893 20.206V20.794H63.035V20.976C63.035 21.508 63.1843 21.9373 63.483 22.264C63.7816 22.5813 64.225 22.74 64.813 22.74C65.261 22.74 65.625 22.6467 65.905 22.46C66.1943 22.2733 66.451 22.0353 66.675 21.746L67.641 22.824C67.3423 23.244 66.9316 23.5753 66.409 23.818C65.8956 24.0513 65.2983 24.168 64.617 24.168ZM64.589 17.868C64.113 17.868 63.735 18.0267 63.455 18.344C63.175 18.6613 63.035 19.072 63.035 19.576V19.688H66.031V19.562C66.031 19.058 65.905 18.652 65.653 18.344C65.4103 18.0267 65.0556 17.868 64.589 17.868ZM69.4696 24V16.692H71.2616V18.204H71.3316C71.3783 18.008 71.4483 17.8213 71.5416 17.644C71.6443 17.4573 71.7749 17.294 71.9336 17.154C72.0923 17.014 72.2789 16.902 72.4936 16.818C72.7176 16.734 72.9743 16.692 73.2636 16.692H73.6556V18.386H73.0956C72.4889 18.386 72.0316 18.4747 71.7236 18.652C71.4156 18.8293 71.2616 19.1187 71.2616 19.52V24H69.4696ZM75.8617 15.628C75.4884 15.628 75.2177 15.544 75.0497 15.376C74.891 15.208 74.8117 14.9933 74.8117 14.732V14.452C74.8117 14.1907 74.891 13.976 75.0497 13.808C75.2177 13.64 75.4884 13.556 75.8617 13.556C76.2257 13.556 76.4917 13.64 76.6597 13.808C76.8277 13.976 76.9117 14.1907 76.9117 14.452V14.732C76.9117 14.9933 76.8277 15.208 76.6597 15.376C76.4917 15.544 76.2257 15.628 75.8617 15.628ZM74.9657 16.692H76.7577V24H74.9657V16.692ZM84.2108 24C83.8188 24 83.5062 23.888 83.2728 23.664C83.0488 23.4307 82.9088 23.1227 82.8528 22.74H82.7688C82.6475 23.216 82.4002 23.5753 82.0268 23.818C81.6535 24.0513 81.1915 24.168 80.6408 24.168C79.8942 24.168 79.3202 23.972 78.9188 23.58C78.5175 23.188 78.3168 22.6653 78.3168 22.012C78.3168 21.256 78.5875 20.696 79.1288 20.332C79.6702 19.9587 80.4402 19.772 81.4388 19.772H82.6848V19.24C82.6848 18.8293 82.5775 18.512 82.3628 18.288C82.1482 18.064 81.8028 17.952 81.3268 17.952C80.9068 17.952 80.5662 18.0453 80.3048 18.232C80.0528 18.4093 79.8382 18.624 79.6608 18.876L78.5968 17.924C78.8675 17.504 79.2268 17.168 79.6748 16.916C80.1228 16.6547 80.7155 16.524 81.4528 16.524C82.4422 16.524 83.1935 16.748 83.7068 17.196C84.2202 17.644 84.4768 18.288 84.4768 19.128V22.572H85.2048V24H84.2108ZM81.2428 22.866C81.6442 22.866 81.9848 22.7773 82.2648 22.6C82.5448 22.4227 82.6848 22.1613 82.6848 21.816V20.85H81.5368C80.6035 20.85 80.1368 21.1487 80.1368 21.746V21.984C80.1368 22.2827 80.2302 22.5067 80.4168 22.656C80.6128 22.796 80.8882 22.866 81.2428 22.866ZM88.4471 24C87.8311 24 87.3785 23.846 87.0891 23.538C86.7998 23.23 86.6551 22.796 86.6551 22.236V13.64H88.4471V22.572H89.4131V24H88.4471ZM95.941 14.228V20.234C95.941 20.9993 96.0856 21.5733 96.375 21.956C96.6736 22.3387 97.173 22.53 97.873 22.53C98.573 22.53 99.0676 22.3387 99.357 21.956C99.6556 21.5733 99.805 20.9993 99.805 20.234V14.228H101.625V19.996C101.625 20.7147 101.555 21.3353 101.415 21.858C101.284 22.3807 101.07 22.8147 100.771 23.16C100.472 23.5053 100.08 23.762 99.595 23.93C99.119 24.0887 98.5403 24.168 97.859 24.168C97.1683 24.168 96.585 24.0887 96.109 23.93C95.6423 23.762 95.2596 23.5053 94.961 23.16C94.6623 22.8147 94.4476 22.3807 94.317 21.858C94.1863 21.3353 94.121 20.7147 94.121 19.996V14.228H95.941ZM103.451 24V22.516H104.739V15.712H103.451V14.228H107.889V15.712H106.587V22.516H107.889V24H103.451Z" fill="#E5EAF2"/>
<rect x="1.25" y="0.5" width="119.5" height="36" rx="7.5" stroke="#2F3A46" stroke-dasharray="4 4"/>
</svg>
