<svg width="120" height="38" viewBox="0 0 120 38" fill="none" xmlns="http://www.w3.org/2000/svg">
<rect x="1.39062" y="1" width="117.5" height="36" rx="7.5" fill="white"/>
<path d="M18.6853 14.366L13.2662 11.2183C13.0995 11.1214 12.8906 11.2417 12.8906 11.4344V20.2066C12.8906 20.2952 12.9376 20.3772 13.014 20.4221L15.039 21.6114C15.2057 21.7093 15.4156 21.5891 15.4156 21.3958V15.6714C15.4156 15.5946 15.4986 15.5464 15.5653 15.5846L18.6887 17.3731C18.9992 17.5509 19.3811 17.5492 19.69 17.3687L22.7402 15.5868C22.8068 15.5478 22.8906 15.595 22.8906 15.6722V18.47C22.8906 18.6438 22.8003 18.8054 22.6521 18.8963L19.5099 20.8244C19.4358 20.8699 19.3906 20.9506 19.3906 21.0375V23.8622C19.3906 23.948 19.4346 24.0278 19.5071 24.0736L23.6228 26.673C23.9406 26.8737 24.3441 26.8792 24.6672 26.6874L29.901 23.5809C30.2046 23.4007 30.3906 23.0739 30.3906 22.721V17.3137C30.3906 17.1191 30.1782 16.9991 30.0116 17.0995L28.3546 18.0977C28.0543 18.2786 27.8706 18.6036 27.8706 18.9543V21.6645C27.8706 21.7531 27.8238 21.835 27.7475 21.8799L24.6519 23.703C24.3367 23.8886 23.9453 23.8874 23.6314 23.6997L21.9658 22.7042C21.8077 22.6097 21.8026 22.3823 21.9565 22.2809L24.9661 20.2964C25.2467 20.1114 25.4156 19.7977 25.4156 19.4616V11.437C25.4156 11.2436 25.2056 11.1235 25.0389 11.2215L19.6944 14.3634C19.3832 14.5463 18.9975 14.5474 18.6853 14.366Z" fill="#007FFF"/>
<path d="M30.3906 11.6814V13.3883C30.3906 13.7336 30.2126 14.0544 29.9196 14.237L28.2729 15.2634C28.1063 15.3672 27.8906 15.2475 27.8906 15.0513V13.2622C27.8906 12.9038 28.0824 12.5728 28.3934 12.3946L30.0163 11.4645C30.183 11.369 30.3906 11.4893 30.3906 11.6814Z" fill="#007FFF"/>
<path d="M42.9166 17.486H42.8606L42.1046 19.04L40.1026 22.736L38.1006 19.04L37.3446 17.486H37.2886V24.5H35.5386V14.728H37.6246L40.1306 19.502H40.1866L42.6646 14.728H44.6666V24.5H42.9166V17.486ZM52.2323 24.5C51.8403 24.5 51.5276 24.388 51.2943 24.164C51.0703 23.9307 50.9303 23.6227 50.8743 23.24H50.7903C50.669 23.716 50.4216 24.0753 50.0483 24.318C49.675 24.5513 49.213 24.668 48.6623 24.668C47.9156 24.668 47.3416 24.472 46.9403 24.08C46.539 23.688 46.3383 23.1653 46.3383 22.512C46.3383 21.756 46.609 21.196 47.1503 20.832C47.6916 20.4587 48.4616 20.272 49.4603 20.272H50.7063V19.74C50.7063 19.3293 50.599 19.012 50.3843 18.788C50.1696 18.564 49.8243 18.452 49.3483 18.452C48.9283 18.452 48.5876 18.5453 48.3263 18.732C48.0743 18.9093 47.8596 19.124 47.6823 19.376L46.6183 18.424C46.889 18.004 47.2483 17.668 47.6963 17.416C48.1443 17.1547 48.737 17.024 49.4743 17.024C50.4636 17.024 51.215 17.248 51.7283 17.696C52.2416 18.144 52.4983 18.788 52.4983 19.628V23.072H53.2263V24.5H52.2323ZM49.2643 23.366C49.6656 23.366 50.0063 23.2773 50.2863 23.1C50.5663 22.9227 50.7063 22.6613 50.7063 22.316V21.35H49.5583C48.625 21.35 48.1583 21.6487 48.1583 22.246V22.484C48.1583 22.7827 48.2516 23.0067 48.4383 23.156C48.6343 23.296 48.9096 23.366 49.2643 23.366ZM56.9039 24.5C56.2879 24.5 55.8166 24.3413 55.4899 24.024C55.1726 23.6973 55.0139 23.2353 55.0139 22.638V18.62H53.9359V17.192H54.4959C54.7666 17.192 54.9486 17.1313 55.0419 17.01C55.1446 16.8793 55.1959 16.688 55.1959 16.436V15.19H56.8059V17.192H58.3039V18.62H56.8059V23.072H58.1919V24.5H56.9039ZM62.7576 24.668C62.2162 24.668 61.7309 24.5793 61.3016 24.402C60.8816 24.2153 60.5222 23.9587 60.2236 23.632C59.9342 23.296 59.7102 22.8947 59.5516 22.428C59.3929 21.952 59.3136 21.42 59.3136 20.832C59.3136 20.2533 59.3882 19.7307 59.5376 19.264C59.6962 18.7973 59.9202 18.4007 60.2096 18.074C60.4989 17.738 60.8536 17.4813 61.2736 17.304C61.6936 17.1173 62.1696 17.024 62.7016 17.024C63.2709 17.024 63.7656 17.122 64.1856 17.318C64.6056 17.514 64.9509 17.78 65.2216 18.116C65.4922 18.452 65.6929 18.844 65.8236 19.292C65.9636 19.7307 66.0336 20.202 66.0336 20.706V21.294H61.1756V21.476C61.1756 22.008 61.3249 22.4373 61.6236 22.764C61.9222 23.0813 62.3656 23.24 62.9536 23.24C63.4016 23.24 63.7656 23.1467 64.0456 22.96C64.3349 22.7733 64.5916 22.5353 64.8156 22.246L65.7816 23.324C65.4829 23.744 65.0722 24.0753 64.5496 24.318C64.0362 24.5513 63.4389 24.668 62.7576 24.668ZM62.7296 18.368C62.2536 18.368 61.8756 18.5267 61.5956 18.844C61.3156 19.1613 61.1756 19.572 61.1756 20.076V20.188H64.1716V20.062C64.1716 19.558 64.0456 19.152 63.7936 18.844C63.5509 18.5267 63.1962 18.368 62.7296 18.368ZM67.6102 24.5V17.192H69.4022V18.704H69.4722C69.5189 18.508 69.5889 18.3213 69.6822 18.144C69.7849 17.9573 69.9156 17.794 70.0742 17.654C70.2329 17.514 70.4196 17.402 70.6342 17.318C70.8582 17.234 71.1149 17.192 71.4042 17.192H71.7962V18.886H71.2362C70.6296 18.886 70.1722 18.9747 69.8642 19.152C69.5562 19.3293 69.4022 19.6187 69.4022 20.02V24.5H67.6102ZM74.0023 16.128C73.629 16.128 73.3583 16.044 73.1903 15.876C73.0316 15.708 72.9523 15.4933 72.9523 15.232V14.952C72.9523 14.6907 73.0316 14.476 73.1903 14.308C73.3583 14.14 73.629 14.056 74.0023 14.056C74.3663 14.056 74.6323 14.14 74.8003 14.308C74.9683 14.476 75.0523 14.6907 75.0523 14.952V15.232C75.0523 15.4933 74.9683 15.708 74.8003 15.876C74.6323 16.044 74.3663 16.128 74.0023 16.128ZM73.1063 17.192H74.8983V24.5H73.1063V17.192ZM82.3515 24.5C81.9595 24.5 81.6468 24.388 81.4135 24.164C81.1895 23.9307 81.0495 23.6227 80.9935 23.24H80.9095C80.7881 23.716 80.5408 24.0753 80.1675 24.318C79.7941 24.5513 79.3321 24.668 78.7815 24.668C78.0348 24.668 77.4608 24.472 77.0595 24.08C76.6581 23.688 76.4575 23.1653 76.4575 22.512C76.4575 21.756 76.7281 21.196 77.2695 20.832C77.8108 20.4587 78.5808 20.272 79.5795 20.272H80.8255V19.74C80.8255 19.3293 80.7181 19.012 80.5035 18.788C80.2888 18.564 79.9435 18.452 79.4675 18.452C79.0475 18.452 78.7068 18.5453 78.4455 18.732C78.1935 18.9093 77.9788 19.124 77.8015 19.376L76.7375 18.424C77.0081 18.004 77.3675 17.668 77.8155 17.416C78.2635 17.1547 78.8561 17.024 79.5935 17.024C80.5828 17.024 81.3341 17.248 81.8475 17.696C82.3608 18.144 82.6175 18.788 82.6175 19.628V23.072H83.3455V24.5H82.3515ZM79.3835 23.366C79.7848 23.366 80.1255 23.2773 80.4055 23.1C80.6855 22.9227 80.8255 22.6613 80.8255 22.316V21.35H79.6775C78.7441 21.35 78.2775 21.6487 78.2775 22.246V22.484C78.2775 22.7827 78.3708 23.0067 78.5575 23.156C78.7535 23.296 79.0288 23.366 79.3835 23.366ZM86.5878 24.5C85.9718 24.5 85.5191 24.346 85.2298 24.038C84.9404 23.73 84.7958 23.296 84.7958 22.736V14.14H86.5878V23.072H87.5538V24.5H86.5878ZM94.0816 14.728V20.734C94.0816 21.4993 94.2263 22.0733 94.5156 22.456C94.8143 22.8387 95.3136 23.03 96.0136 23.03C96.7136 23.03 97.2083 22.8387 97.4976 22.456C97.7963 22.0733 97.9456 21.4993 97.9456 20.734V14.728H99.7656V20.496C99.7656 21.2147 99.6956 21.8353 99.5556 22.358C99.4249 22.8807 99.2103 23.3147 98.9116 23.66C98.6129 24.0053 98.2209 24.262 97.7356 24.43C97.2596 24.5887 96.6809 24.668 95.9996 24.668C95.3089 24.668 94.7256 24.5887 94.2496 24.43C93.7829 24.262 93.4003 24.0053 93.1016 23.66C92.8029 23.3147 92.5883 22.8807 92.4576 22.358C92.3269 21.8353 92.2616 21.2147 92.2616 20.496V14.728H94.0816ZM101.592 24.5V23.016H102.88V16.212H101.592V14.728H106.03V16.212H104.728V23.016H106.03V24.5H101.592Z" fill="#1C2025"/>
<rect x="1.39062" y="1" width="117.5" height="36" rx="7.5" stroke="#DAE2ED" stroke-dasharray="4 4"/>
</svg>
