<svg width="121" height="37" viewBox="0 0 121 37" fill="none" xmlns="http://www.w3.org/2000/svg">
<rect x="0.5" y="0.5" width="119.5" height="36" rx="7.5" fill="white"/>
<path d="M17.7947 13.866L12.3756 10.7183C12.2089 10.6214 12 10.7417 12 10.9344V19.7066C12 19.7952 12.047 19.8772 12.1234 19.9221L14.1484 21.1114C14.3151 21.2093 14.525 21.0891 14.525 20.8958V15.1714C14.525 15.0946 14.608 15.0464 14.6747 15.0846L17.7981 16.8731C18.1086 17.0509 18.4904 17.0492 18.7994 16.8687L21.8496 15.0868C21.9162 15.0478 22 15.095 22 15.1722V17.97C22 18.1438 21.9097 18.3054 21.7615 18.3963L18.6193 20.3244C18.5452 20.3699 18.5 20.4506 18.5 20.5375V23.3622C18.5 23.448 18.544 23.5278 18.6165 23.5736L22.7322 26.173C23.05 26.3737 23.4534 26.3792 23.7766 26.1874L29.0104 23.0809C29.3139 22.9007 29.5 22.5739 29.5 22.221V16.8137C29.5 16.6191 29.2876 16.4991 29.121 16.5995L27.464 17.5977C27.1636 17.7786 26.98 18.1036 26.98 18.4543V21.1645C26.98 21.2531 26.9332 21.335 26.8569 21.3799L23.7612 23.203C23.4461 23.3886 23.0547 23.3874 22.7407 23.1997L21.0752 22.2042C20.917 22.1097 20.912 21.8823 21.0658 21.7809L24.0755 19.7964C24.3561 19.6114 24.525 19.2977 24.525 18.9616V10.937C24.525 10.7436 24.315 10.6235 24.1483 10.7215L18.8038 13.8634C18.4925 14.0463 18.1069 14.0474 17.7947 13.866Z" fill="#007FFF"/>
<path d="M29.5 11.1814V12.8883C29.5 13.2336 29.3219 13.5544 29.029 13.737L27.3822 14.7634C27.2157 14.8672 27 14.7475 27 14.5513V12.7622C27 12.4038 27.1918 12.0728 27.5028 11.8946L29.1257 10.9645C29.2924 10.869 29.5 10.9893 29.5 11.1814Z" fill="#007FFF"/>
<path d="M44.026 16.986H43.97L43.214 18.54L41.212 22.236L39.21 18.54L38.454 16.986H38.398V24H36.648V14.228H38.734L41.24 19.002H41.296L43.774 14.228H45.776V24H44.026V16.986ZM53.3417 24C52.9497 24 52.637 23.888 52.4037 23.664C52.1797 23.4307 52.0397 23.1227 51.9837 22.74H51.8997C51.7784 23.216 51.531 23.5753 51.1577 23.818C50.7844 24.0513 50.3224 24.168 49.7717 24.168C49.025 24.168 48.451 23.972 48.0497 23.58C47.6484 23.188 47.4477 22.6653 47.4477 22.012C47.4477 21.256 47.7184 20.696 48.2597 20.332C48.801 19.9587 49.571 19.772 50.5697 19.772H51.8157V19.24C51.8157 18.8293 51.7084 18.512 51.4937 18.288C51.279 18.064 50.9337 17.952 50.4577 17.952C50.0377 17.952 49.697 18.0453 49.4357 18.232C49.1837 18.4093 48.969 18.624 48.7917 18.876L47.7277 17.924C47.9984 17.504 48.3577 17.168 48.8057 16.916C49.2537 16.6547 49.8464 16.524 50.5837 16.524C51.573 16.524 52.3244 16.748 52.8377 17.196C53.351 17.644 53.6077 18.288 53.6077 19.128V22.572H54.3357V24H53.3417ZM50.3737 22.866C50.775 22.866 51.1157 22.7773 51.3957 22.6C51.6757 22.4227 51.8157 22.1613 51.8157 21.816V20.85H50.6677C49.7344 20.85 49.2677 21.1487 49.2677 21.746V21.984C49.2677 22.2827 49.361 22.5067 49.5477 22.656C49.7437 22.796 50.019 22.866 50.3737 22.866ZM58.0133 24C57.3973 24 56.926 23.8413 56.5993 23.524C56.282 23.1973 56.1233 22.7353 56.1233 22.138V18.12H55.0453V16.692H55.6053C55.876 16.692 56.058 16.6313 56.1513 16.51C56.254 16.3793 56.3053 16.188 56.3053 15.936V14.69H57.9153V16.692H59.4133V18.12H57.9153V22.572H59.3013V24H58.0133ZM63.867 24.168C63.3256 24.168 62.8403 24.0793 62.411 23.902C61.991 23.7153 61.6316 23.4587 61.333 23.132C61.0436 22.796 60.8196 22.3947 60.661 21.928C60.5023 21.452 60.423 20.92 60.423 20.332C60.423 19.7533 60.4976 19.2307 60.647 18.764C60.8056 18.2973 61.0296 17.9007 61.319 17.574C61.6083 17.238 61.963 16.9813 62.383 16.804C62.803 16.6173 63.279 16.524 63.811 16.524C64.3803 16.524 64.875 16.622 65.295 16.818C65.715 17.014 66.0603 17.28 66.331 17.616C66.6016 17.952 66.8023 18.344 66.933 18.792C67.073 19.2307 67.143 19.702 67.143 20.206V20.794H62.285V20.976C62.285 21.508 62.4343 21.9373 62.733 22.264C63.0316 22.5813 63.475 22.74 64.063 22.74C64.511 22.74 64.875 22.6467 65.155 22.46C65.4443 22.2733 65.701 22.0353 65.925 21.746L66.891 22.824C66.5923 23.244 66.1816 23.5753 65.659 23.818C65.1456 24.0513 64.5483 24.168 63.867 24.168ZM63.839 17.868C63.363 17.868 62.985 18.0267 62.705 18.344C62.425 18.6613 62.285 19.072 62.285 19.576V19.688H65.281V19.562C65.281 19.058 65.155 18.652 64.903 18.344C64.6603 18.0267 64.3056 17.868 63.839 17.868ZM68.7196 24V16.692H70.5116V18.204H70.5816C70.6283 18.008 70.6983 17.8213 70.7916 17.644C70.8943 17.4573 71.0249 17.294 71.1836 17.154C71.3423 17.014 71.5289 16.902 71.7436 16.818C71.9676 16.734 72.2243 16.692 72.5136 16.692H72.9056V18.386H72.3456C71.7389 18.386 71.2816 18.4747 70.9736 18.652C70.6656 18.8293 70.5116 19.1187 70.5116 19.52V24H68.7196ZM75.1117 15.628C74.7384 15.628 74.4677 15.544 74.2997 15.376C74.141 15.208 74.0617 14.9933 74.0617 14.732V14.452C74.0617 14.1907 74.141 13.976 74.2997 13.808C74.4677 13.64 74.7384 13.556 75.1117 13.556C75.4757 13.556 75.7417 13.64 75.9097 13.808C76.0777 13.976 76.1617 14.1907 76.1617 14.452V14.732C76.1617 14.9933 76.0777 15.208 75.9097 15.376C75.7417 15.544 75.4757 15.628 75.1117 15.628ZM74.2157 16.692H76.0077V24H74.2157V16.692ZM83.4608 24C83.0688 24 82.7562 23.888 82.5228 23.664C82.2988 23.4307 82.1588 23.1227 82.1028 22.74H82.0188C81.8975 23.216 81.6502 23.5753 81.2768 23.818C80.9035 24.0513 80.4415 24.168 79.8908 24.168C79.1442 24.168 78.5702 23.972 78.1688 23.58C77.7675 23.188 77.5668 22.6653 77.5668 22.012C77.5668 21.256 77.8375 20.696 78.3788 20.332C78.9202 19.9587 79.6902 19.772 80.6888 19.772H81.9348V19.24C81.9348 18.8293 81.8275 18.512 81.6128 18.288C81.3982 18.064 81.0528 17.952 80.5768 17.952C80.1568 17.952 79.8162 18.0453 79.5548 18.232C79.3028 18.4093 79.0882 18.624 78.9108 18.876L77.8468 17.924C78.1175 17.504 78.4768 17.168 78.9248 16.916C79.3728 16.6547 79.9655 16.524 80.7028 16.524C81.6922 16.524 82.4435 16.748 82.9568 17.196C83.4702 17.644 83.7268 18.288 83.7268 19.128V22.572H84.4548V24H83.4608ZM80.4928 22.866C80.8942 22.866 81.2348 22.7773 81.5148 22.6C81.7948 22.4227 81.9348 22.1613 81.9348 21.816V20.85H80.7868C79.8535 20.85 79.3868 21.1487 79.3868 21.746V21.984C79.3868 22.2827 79.4802 22.5067 79.6668 22.656C79.8628 22.796 80.1382 22.866 80.4928 22.866ZM87.6971 24C87.0811 24 86.6285 23.846 86.3391 23.538C86.0498 23.23 85.9051 22.796 85.9051 22.236V13.64H87.6971V22.572H88.6631V24H87.6971ZM95.191 14.228V20.234C95.191 20.9993 95.3356 21.5733 95.625 21.956C95.9236 22.3387 96.423 22.53 97.123 22.53C97.823 22.53 98.3176 22.3387 98.607 21.956C98.9056 21.5733 99.055 20.9993 99.055 20.234V14.228H100.875V19.996C100.875 20.7147 100.805 21.3353 100.665 21.858C100.534 22.3807 100.32 22.8147 100.021 23.16C99.7223 23.5053 99.3303 23.762 98.845 23.93C98.369 24.0887 97.7903 24.168 97.109 24.168C96.4183 24.168 95.835 24.0887 95.359 23.93C94.8923 23.762 94.5096 23.5053 94.211 23.16C93.9123 22.8147 93.6976 22.3807 93.567 21.858C93.4363 21.3353 93.371 20.7147 93.371 19.996V14.228H95.191ZM102.701 24V22.516H103.989V15.712H102.701V14.228H107.139V15.712H105.837V22.516H107.139V24H102.701Z" fill="#1C2025"/>
<rect x="0.5" y="0.5" width="119.5" height="36" rx="7.5" stroke="#DAE2ED" stroke-dasharray="4 4"/>
</svg>
