<svg xmlns="http://www.w3.org/2000/svg" viewBox="0 0 167 157">
  <style>    
    :root { color: #0B6BCB } /* Primary 500 */
    @media (prefers-color-scheme: dark) {
      :root { color: #4393E4 } /* Primary 400 */    
    }
  </style>
  <path fill="currentColor" d="M160.662 0.674005L34.632 73.438C32.288 75.342 29.158 79.12 34.126 83.128L63.77 100.242L78.036 92.002L63.322 83.506C57.152 78.992 61.612 74.698 63.986 72.964L147.4 24.806C150.184 23.942 151.45 25.296 152.026 26.714V55.766L63.772 106.72L25.488 84.616C15.292 78.834 24.07 73.09 25.45 72.258L77.896 41.978L6.39998 0.706002C1.89998 -1.08 0.921972 2.444 0.717972 4.04V152.822C0.921972 154.414 1.89398 157.924 6.36198 156.172L63.89 122.958C63.936 122.988 63.984 123.016 64.032 123.046L152.024 72.244V129.774C151.288 131.594 149.422 133.33 144.65 130.374L144.636 130.458L103.53 106.724L89.26 114.962L160.7 156.206C165.306 157.968 166.144 154.09 166.292 152.632V4.232C166.144 2.77 165.3 -1.122 160.662 0.674005Z"/>
</svg>
