<svg width="73" height="68" xmlns="http://www.w3.org/2000/svg" xmlns:xlink="http://www.w3.org/1999/xlink"><defs><path id="a" d="M12.5 7.5l-.88-.88-3.5 3.49V2.5H6.88v7.6l-3.5-3.49-.88.89 5 5z"/></defs><g fill="none" fill-rule="evenodd"><g fill-rule="nonzero"><path fill="#FDB300" d="M15.93 2.14L36.5 0l20.57 2.14L73 23.18 36.5 65 0 23.18z"/><path fill="#EA6C00" d="M14.75 24l21.68 40.99L0 24zM58.1 24L36.43 64.99 72.85 24z"/><path fill="#FDAD00" d="M14.75 24H58.1L36.43 64.99z"/><g><path fill="#FDD231" d="M36.43 0L15.9 2.21l-1.15 21.77zM36.43 0l20.53 2.21 1.14 21.77z"/><path fill="#FDAD00" d="M72.85 23.98L56.95 2.2l1.15 21.77zM0 23.98L15.9 2.2l-1.15 21.77z"/><path fill="#FEEEB7" d="M36.43 0L14.75 23.98H58.1z"/></g></g><circle cx="11.5" cy="11.5" r="11.5" transform="translate(50 45)" fill="#1976D2"/><g transform="translate(54 49)"><mask id="b" fill="#fff"><use xlink:href="#a"/></mask><g mask="url(#b)" fill="#FFF"><path d="M0 0h15v15H0z"/></g></g></g></svg>