<svg fill="none" height="68" width="69" xmlns="http://www.w3.org/2000/svg"><mask id="a" height="11" maskUnits="userSpaceOnUse" width="11" x="52" y="51"><path d="M62.5 56.5l-.9-.9-3.5 3.5v-7.6H57v7.6l-3.5-3.5-.9.9 5 5z" fill="#fff"/></mask><path d="M12.7 2h35.4c5.4 0 9.7 4.4 9.7 9.8v34.4c0 5.4-4.3 9.8-9.7 9.8H12.7A9.8 9.8 0 013 46.2V11.8C3 6.4 7.3 2 12.7 2z" fill="#470137"/><path d="M31.8 16.5L25 27.9l7.4 12v.4h-5.5c-.4 0-.6 0-.8-.2l-1.4-3-1.6-2.8-1.6-3-1.6 3-1.6 2.9-1.6 2.9c0 .2-.2.3-.5.3h-5l-.2-.1V40l7.2-11.7-7-11.8v-.3h5.7a43.2 43.2 0 001.7 3.2l1.7 2.9 1.5 3 1.6-3 1.5-3 1.6-2.9.1-.2h5.1l.3.1v.2zm10.6 24.3c-1.7 0-3.4-.3-5-1a8 8 0 01-3.4-3.2 10 10 0 01-1.2-5.2 9.5 9.5 0 014.9-8.5 11.7 11.7 0 016.3-1.3h.7v-7.2c0-.2 0-.3.2-.3h4.6c.2 0 .2.1.3.2v23.3L50 39c0 .2 0 .3-.2.4a18 18 0 01-7.3 1.4zm2.3-4.6V26H44l-.7-.1c-1 0-1.8.2-2.6.6-.8.4-1.5 1-2 1.7s-.7 1.7-.7 3c0 .7.1 1.5.4 2.3A4 4 0 0041 36a6 6 0 001.9.3h1a2 2 0 00.8-.1z" fill="#ff61f6"/><circle cx="57.5" cy="56.5" fill="#1976d2" r="11.5"/><g mask="url(#a)"><path d="M50 49h15v15H50z" fill="#fff"/></g></svg>