<svg width="46" height="68" xmlns="http://www.w3.org/2000/svg" xmlns:xlink="http://www.w3.org/1999/xlink"><defs><path id="a" d="M12.5 7.5l-.9-.9-3.5 3.5V2.5H7v7.6L3.4 6.6l-.9.9 5 5z"/></defs><g fill="none" fill-rule="evenodd"><g fill-rule="nonzero"><path d="M11.5 68C17.8 68 23 62.8 23 56.5V45H11.5a11.5 11.5 0 000 23z" fill="#0ACF83"/><path d="M0 33.5C0 27.2 5.2 22 11.5 22H23v23H11.5C5.2 45 0 39.8 0 33.5z" fill="#A259FF"/><path d="M0 11.5C0 5.2 5.2 0 11.5 0H23v23H11.5C5.2 23 0 17.8 0 11.5z" fill="#F24E1E"/><path d="M23 0h11.5a11.5 11.5 0 010 23H23V0z" fill="#FF7262"/><path d="M46 33.5a11.5 11.5 0 11-23 0 11.5 11.5 0 0123 0z" fill="#1ABCFE"/></g><g transform="translate(23 45)"><circle fill="#1976D2" cx="11.5" cy="11.5" r="11.5"/><g transform="translate(4 4)"><mask id="b" fill="#fff"><use xlink:href="#a"/></mask><g mask="url(#b)" fill="#FFF"><path d="M0 0h15v15H0z"/></g></g></g></g></svg>