<svg fill="none" height="48" width="436" xmlns="http://www.w3.org/2000/svg" xmlns:xlink="http://www.w3.org/1999/xlink"><clipPath id="a"><path d="m0 0h436v48h-436z"/></clipPath><g clip-path="url(#a)"><path d="m14.42 21.65c-.16 0-.66 0-.66.56 0 .32.23.55.55.55.31 0 .57-.19.57-.58 0-.9-.95-1.56-2.04-1.56-1.58 0-2.84 1.4-2.84 3.11 0 1.73 1.3 3.05 2.82 3.05a2.18 2.18 0 0 0 2.2-1.74c0-.12-.1-.12-.14-.12-.12 0-.14.04-.18.2-.3.96-1.03 1.37-1.75 1.37-.83 0-1.92-.72-1.92-2.77 0-2.24 1.15-2.8 1.82-2.8.51 0 1.26.2 1.57.73zm7.18 2.11c0-1.74-1.32-3.14-2.88-3.14-1.63 0-2.9 1.44-2.9 3.14a2.96 2.96 0 0 0 2.88 3.02c1.6 0 2.9-1.32 2.9-3.02zm-2.88 2.73c-.5 0-1.11-.22-1.5-.88a3.9 3.9 0 0 1 -.38-1.97c0-.52 0-1.34.42-1.95a1.73 1.73 0 0 1 2.9-.03c.42.63.42 1.48.42 1.98 0 .47 0 1.3-.35 1.94-.38.65-1 .9-1.51.9zm12.98-3.12c0-1.26 0-1.64-.3-2.07-.4-.53-1.03-.6-1.49-.6-1.12 0-1.69.8-1.9 1.33-.2-1.04-.92-1.34-1.78-1.34-1.3 0-1.82 1.12-1.93 1.4h-.01v-1.4l-1.84.15v.4c.92 0 1.03.09 1.03.75v3.66c0 .6-.15.6-1.03.6v.4c.35-.03 1.08-.03 1.46-.03.4 0 1.12 0 1.47.03v-.4c-.86 0-1.02 0-1.02-.6v-2.51c0-1.42.93-2.18 1.77-2.18.83 0 1.02.7 1.02 1.52v3.17c0 .6-.14.6-1.02.6v.4c.35-.03 1.08-.03 1.46-.03.39 0 1.12 0 1.47.03v-.4c-.87 0-1.03 0-1.03-.6v-2.51c0-1.42.93-2.18 1.77-2.18s1.03.7 1.03 1.52v3.17c0 .6-.15.6-1.03.6v.4c.35-.03 1.08-.03 1.46-.03.4 0 1.12 0 1.47.03v-.4c-.67 0-1.01 0-1.02-.4v-2.48zm4.65 5.51c-.86 0-1.02 0-1.02-.6v-2.36c.24.34.8.86 1.66.86a2.99 2.99 0 0 0 2.92-3.05c0-1.71-1.27-3.04-2.75-3.04-1.19 0-1.82.85-1.86.9v-.9l-1.88.15v.4c.95 0 1.03.09 1.03.68v6.35c0 .6-.15.6-1.03.6v.4c.35-.03 1.08-.03 1.46-.03.4 0 1.12 0 1.47.03v-.4zm-1.02-6.54c0-.26 0-.27.14-.49.41-.6 1.07-.86 1.59-.86 1 0 1.82 1.23 1.82 2.74 0 1.6-.92 2.78-1.96 2.78a1.6 1.6 0 0 1 -1.08-.43c-.31-.3-.51-.58-.51-.96zm9.17-1.5v.4c.92 0 1.03.09 1.03.75v2.42c0 1.15-.61 2.1-1.63 2.1-1.1 0-1.17-.63-1.17-1.35v-4.46l-1.9.15v.4c1.02 0 1.02.03 1.02 1.24v2.02c0 .84 0 1.33.4 1.77.33.35.88.51 1.57.51.23 0 .67 0 1.12-.39.4-.3.61-.82.61-.82v1.21l1.88-.13v-.4c-.92 0-1.03-.09-1.03-.75v-4.8l-1.9.14zm5.51.38h1.9v-.4h-1.9v-2.48h-.3c-.01 1.27-.5 2.57-1.73 2.6v.28h1.15v3.75c0 1.5 1 1.81 1.72 1.81.85 0 1.3-.83 1.3-1.8v-.78h-.3v.75c0 .97-.4 1.54-.92 1.54-.92 0-.92-1.26-.92-1.49zm8.05 2.3c.3 0 .32 0 .32-.26 0-1.37-.73-2.64-2.36-2.64-1.54 0-2.73 1.4-2.73 3.07 0 1.78 1.38 3.1 2.88 3.1 1.6 0 2.21-1.46 2.21-1.75 0-.08-.06-.13-.15-.13-.1 0-.13.06-.16.13a1.91 1.91 0 0 1 -1.82 1.45c-.57 0-1.93-.38-1.93-2.72v-.25zm-3.73-.26c.1-2.12 1.3-2.37 1.68-2.37 1.44 0 1.52 1.91 1.54 2.37zm8.49-5.84v.4c.92 0 1.02.09 1.02.75v2.99a2.1 2.1 0 0 0 -1.69-.87 2.99 2.99 0 0 0 -2.91 3.06c0 1.71 1.28 3.03 2.77 3.03 1.02 0 1.62-.67 1.8-.93v.93l1.91-.13v-.4c-.92 0-1.03-.09-1.03-.75v-8.23zm1 7.65c0 .24 0 .28-.2.58-.32.47-.87.86-1.55.86-.35 0-1.8-.13-1.8-2.75 0-.97.16-1.51.45-1.96.27-.42.81-.84 1.49-.84.84 0 1.3.61 1.44.83.17.23.17.25.17.5zm15.16-2.8c.2 0 .44 0 .44-.24 0-.26-.23-.26-.44-.26h-7.95c-.2 0-.44 0-.44.25s.23.25.44.25zm0 2.52c.2 0 .44 0 .44-.25s-.23-.25-.44-.25h-7.95c-.2 0-.44 0-.44.24 0 .26.23.26.44.26zm9.36-3.85c0-.25 0-.32-.14-.32-.1 0-.36.3-.46.42a1.89 1.89 0 0 0 -1.27-.42c-1.63 0-2.12.9-2.12 1.64 0 .15 0 .62.52 1.1.43.37.89.47 1.5.59.75.15.93.19 1.26.46.25.2.42.5.42.88 0 .58-.33 1.22-1.52 1.22-.9 0-1.54-.5-1.84-1.86-.05-.24-.05-.26-.07-.27-.03-.05-.08-.05-.12-.05-.15 0-.15.06-.15.3v1.84c0 .25 0 .31.14.31.06 0 .08 0 .3-.3.08-.09.08-.11.28-.33.51.63 1.24.63 1.47.63 1.42 0 2.12-.78 2.12-1.85 0-.73-.44-1.16-.57-1.28-.48-.42-.85-.5-1.74-.66-.4-.08-1.39-.27-1.39-1.08 0-.42.28-1.04 1.5-1.04 1.47 0 1.55 1.25 1.58 1.67.01.11.1.11.15.11.15 0 .15-.07.15-.31zm4.09 7.94c-.86 0-1.02 0-1.02-.6v-2.36c.24.34.8.86 1.66.86a2.99 2.99 0 0 0 2.92-3.05c0-1.71-1.27-3.04-2.75-3.04-1.18 0-1.82.85-1.86.9v-.9l-1.88.15v.4c.95 0 1.03.09 1.03.68v6.35c0 .6-.15.6-1.03.6v.4c.35-.03 1.08-.03 1.46-.03.4 0 1.12 0 1.47.03v-.4zm-1.02-6.54c0-.26 0-.27.15-.49.4-.6 1.06-.86 1.58-.86 1 0 1.82 1.23 1.82 2.74 0 1.6-.92 2.78-1.96 2.78a1.6 1.6 0 0 1 -1.08-.43c-.31-.3-.51-.58-.51-.96zm10.6 1.18c.3 0 .33 0 .33-.26 0-1.37-.73-2.64-2.37-2.64-1.54 0-2.72 1.4-2.72 3.07 0 1.78 1.37 3.1 2.87 3.1 1.61 0 2.22-1.46 2.22-1.75 0-.08-.07-.13-.15-.13-.1 0-.14.06-.16.13a1.91 1.91 0 0 1 -1.83 1.45c-.56 0-1.93-.38-1.93-2.72v-.25zm-3.72-.26c.1-2.12 1.3-2.37 1.67-2.37 1.45 0 1.53 1.91 1.54 2.37zm9.31-1.61c-.15 0-.65 0-.65.56 0 .32.23.55.55.55.31 0 .57-.19.57-.58 0-.9-.95-1.56-2.04-1.56-1.58 0-2.84 1.4-2.84 3.11 0 1.73 1.3 3.05 2.83 3.05a2.18 2.18 0 0 0 2.18-1.74c0-.12-.1-.12-.13-.12-.12 0-.14.04-.18.2-.3.96-1.02 1.37-1.75 1.37-.83 0-1.92-.72-1.92-2.77 0-2.24 1.15-2.8 1.82-2.8.52 0 1.26.2 1.57.73zm3.35-3.32a.66.66 0 0 0 -.66-.66.65.65 0 0 0 -.65.64c0 .41.32.67.65.67.41 0 .66-.35.66-.65zm-1.87 2.51v.4c.87 0 .99.07.99.74v3.67c0 .6-.15.6-1.03.6v.4c.38-.03 1.03-.03 1.42-.03.15 0 .93 0 1.4.03v-.4c-.89 0-.94-.06-.94-.59v-4.96l-1.84.15zm7.49-.05a1 1 0 0 0 -.24.02c-.03.02-.06.02-.25.02h-1.58v-1.53c0-1.38 1.18-1.9 1.97-1.9.14 0 .79.02 1.2.48-.58 0-.62.42-.62.57 0 .4.33.57.56.57.24 0 .57-.17.57-.58 0-.7-.64-1.3-1.68-1.3-1.23 0-2.82.67-2.82 2.13v1.56h-1.06v.39h1.06v4.43c0 .6-.15.6-1.03.6v.4c.38-.03 1.04-.03 1.45-.03.4 0 1.08 0 1.46.03v-.4c-.87 0-1.03 0-1.03-.6v-4.43h2.12c.62 0 .7.17.7.73v3.7c0 .6-.15.6-1.02.6v.4c.37-.03 1.03-.03 1.44-.03.4 0 1.08 0 1.46.03v-.4c-.87 0-1.03 0-1.03-.6v-4.97l-1.63.1zm7.94.86c-.16 0-.66 0-.66.56 0 .32.23.55.55.55.31 0 .57-.19.57-.58 0-.9-.94-1.56-2.04-1.56-1.58 0-2.84 1.4-2.84 3.11 0 1.73 1.3 3.05 2.83 3.05a2.18 2.18 0 0 0 2.19-1.74c0-.12-.1-.12-.14-.12-.12 0-.14.04-.17.2-.3.96-1.03 1.37-1.76 1.37-.83 0-1.92-.72-1.92-2.77 0-2.24 1.15-2.8 1.82-2.8.52 0 1.26.2 1.57.73zm6.2 1.39c0-.73 0-1.27-.59-1.8a2.46 2.46 0 0 0 -1.68-.62c-1.1 0-1.95.73-1.95 1.61 0 .4.25.58.56.58.33 0 .56-.23.56-.55 0-.55-.49-.55-.7-.55.32-.57.97-.82 1.5-.82.63 0 1.43.52 1.43 1.73v.54c-2.72.04-3.75 1.18-3.75 2.22 0 1.07 1.25 1.4 2.07 1.4.9 0 1.5-.54 1.76-1.18.05.63.47 1.12 1.05 1.12.28 0 1.07-.2 1.07-1.27v-.76h-.3v.76c0 .77-.32.88-.51.88-.52 0-.52-.72-.52-.92zm-.87 1.7c0 1.33-.99 1.77-1.57 1.77-.66 0-1.22-.48-1.22-1.13 0-1.78 2.3-1.95 2.79-1.97zm4.54-3.52h1.9v-.4h-1.9v-2.48h-.3c0 1.27-.5 2.57-1.72 2.6v.28h1.14v3.75c0 1.5 1 1.81 1.72 1.81.85 0 1.3-.83 1.3-1.8v-.78h-.3v.75c0 .97-.4 1.54-.92 1.54-.92 0-.92-1.26-.92-1.49zm5.22-2.89a.66.66 0 0 0 -.65-.66.65.65 0 0 0 -.65.64c0 .41.32.67.65.67.42 0 .66-.35.66-.65zm-1.86 2.51v.4c.87 0 .99.07.99.74v3.67c0 .6-.15.6-1.03.6v.4c.38-.03 1.03-.03 1.42-.03.15 0 .93 0 1.4.03v-.4c-.88 0-.94-.06-.94-.59v-4.96l-1.84.15zm9.39 2.92c0-1.74-1.32-3.14-2.89-3.14-1.62 0-2.9 1.44-2.9 3.14a2.96 2.96 0 0 0 2.89 3.02c1.6 0 2.9-1.32 2.9-3.02zm-2.89 2.73c-.5 0-1.1-.22-1.5-.88a3.9 3.9 0 0 1 -.38-1.97c0-.52 0-1.34.42-1.95a1.73 1.73 0 0 1 2.9-.03c.43.63.43 1.48.43 1.98 0 .47 0 1.3-.36 1.94-.37.65-1 .9-1.5.9zm9.32-3.12c0-1.26 0-1.64-.31-2.07-.4-.53-1.03-.6-1.49-.6-1.3 0-1.82 1.11-1.93 1.38h-.01v-1.38l-1.84.15v.4c.92 0 1.03.09 1.03.75v3.66c0 .6-.15.6-1.03.6v.4c.35-.03 1.08-.03 1.46-.03.39 0 1.12 0 1.47.03v-.4c-.87 0-1.03 0-1.03-.6v-2.51c0-1.42.94-2.18 1.77-2.18.84 0 1.03.7 1.03 1.52v3.17c0 .6-.15.6-1.03.6v.4c.35-.03 1.08-.03 1.46-.03.4 0 1.12 0 1.47.03v-.4c-.67 0-1 0-1.02-.4v-2.48zm4.64-.1c0-.39-.33-.71-.72-.71-.4 0-.72.32-.72.71 0 .4.32.72.72.72.39 0 .71-.33.71-.72zm5.47-11.19h1.9v-.4h-1.9v-2.48h-.3c0 1.27-.5 2.57-1.72 2.61v.27h1.15v3.76c0 1.5 1 1.8 1.71 1.8.85 0 1.3-.83 1.3-1.8v-.77h-.3v.74c0 .97-.39 1.54-.92 1.54-.92 0-.92-1.26-.92-1.49zm7.98.92c.37-.9 1-.92 1.26-.92v-.4c-.4.04-.58.04-1.01.04l-1.1-.03v.39c.5.03.62.34.62.58 0 .12-.02.19-.08.32l-1.38 3.4-1.5-3.67c-.08-.18-.08-.27-.08-.28 0-.35.48-.35.75-.35v-.4c-.35.04-1.02.04-1.4.04-.5 0-.53 0-1.3-.03v.39c.78 0 .89.07 1.06.49l2.01 4.94-.64 1.57c-.23.4-.6.92-1.2.92-.42 0-.68-.25-.68-.25s.47-.05.47-.52c0-.33-.25-.5-.5-.5-.23 0-.51.13-.51.52 0 .52.5 1.02 1.21 1.02.76 0 1.31-.67 1.67-1.52zm4.82 6.74c-.86 0-1.02 0-1.02-.6v-2.36c.24.34.8.87 1.66.87a2.99 2.99 0 0 0 2.91-3.06c0-1.71-1.26-3.04-2.74-3.04-1.19 0-1.82.85-1.86.9v-.9l-1.88.15v.4c.95 0 1.03.09 1.03.68v6.35c0 .61-.15.61-1.03.61v.4c.35-.04 1.08-.04 1.46-.04.4 0 1.12 0 1.47.03zm-1.02-6.54c0-.26 0-.27.14-.49.41-.6 1.07-.86 1.59-.86 1 0 1.82 1.23 1.82 2.74 0 1.61-.92 2.79-1.96 2.79a1.6 1.6 0 0 1 -1.08-.44c-.31-.3-.51-.58-.51-.96zm11.63 1.42c0-1.74-1.32-3.13-2.9-3.13-1.61 0-2.9 1.43-2.9 3.13a2.96 2.96 0 0 0 2.9 3.03c1.59 0 2.9-1.33 2.9-3.03zm-2.9 2.73c-.5 0-1.1-.22-1.5-.88a3.9 3.9 0 0 1 -.37-1.97c0-.52 0-1.34.42-1.95a1.73 1.73 0 0 1 2.9-.02c.42.62.42 1.47.42 1.97 0 .47 0 1.3-.35 1.94-.38.65-1 .9-1.51.9zm4.92-2.28c.64.41 1.18.41 1.32.41 1.22 0 2.13-.91 2.13-1.95 0-.37-.11-.88-.55-1.32.53-.54 1.17-.54 1.23-.54a.4.4 0 0 1 .18.03c-.13.06-.2.2-.2.34 0 .19.13.35.35.35.1 0 .35-.07.35-.36a.63.63 0 0 0 -.66-.63c-.7 0-1.23.44-1.42.64-.4-.31-.88-.49-1.4-.49-1.2 0-2.11.92-2.11 1.96 0 .77.47 1.27.6 1.4-.16.2-.4.59-.4 1.11 0 .79.47 1.13.58 1.2-.62.17-1.24.66-1.24 1.36 0 .93 1.27 1.7 2.93 1.7 1.6 0 2.94-.72 2.94-1.73 0-.34-.09-1.13-.9-1.55-.69-.35-1.37-.35-2.53-.35-.82 0-.92 0-1.16-.26a1 1 0 0 1 -.26-.68c0-.23.09-.46.22-.64zm1.34.13c-1.2 0-1.2-1.36-1.2-1.67 0-.25 0-.8.24-1.17.26-.39.66-.52.94-.52 1.2 0 1.2 1.36 1.2 1.67 0 .25 0 .8-.24 1.16-.25.4-.66.53-.94.53zm.36 4.8c-1.3 0-2.28-.67-2.28-1.44 0-.1.03-.63.54-.98.3-.2.42-.2 1.36-.2 1.13 0 2.65 0 2.65 1.18 0 .8-1.03 1.44-2.27 1.44zm5.56-5.64c0-1.3.54-2.54 1.58-2.54.11 0 .14 0 .2.02-.12.05-.33.13-.33.5 0 .39.3.54.53.54.26 0 .53-.18.53-.54 0-.4-.36-.79-.94-.79-1.15 0-1.54 1.25-1.62 1.5h-.02v-1.5l-1.8.15v.4c.91 0 1.02.09 1.02.75v3.66c0 .6-.15.6-1.02.6v.4c.37-.03 1.12-.03 1.52-.03.37 0 1.33 0 1.64.03v-.4h-.27c-.99 0-1.02-.14-1.02-.63zm8.11-.46c0-.73 0-1.27-.6-1.8a2.46 2.46 0 0 0 -1.67-.61c-1.11 0-1.96.72-1.96 1.6 0 .4.25.58.56.58.33 0 .56-.23.56-.55 0-.55-.49-.55-.7-.55.32-.57.97-.81 1.5-.81.63 0 1.43.5 1.43 1.72v.55c-2.72.04-3.75 1.17-3.75 2.21 0 1.07 1.25 1.4 2.07 1.4.9 0 1.5-.53 1.76-1.18.05.63.47 1.12 1.05 1.12.29 0 1.07-.2 1.07-1.27v-.76h-.3v.76c0 .77-.32.88-.51.88-.51 0-.51-.72-.51-.92zm-.88 1.7c0 1.33-.99 1.78-1.57 1.78-.66 0-1.22-.5-1.22-1.14 0-1.78 2.3-1.94 2.79-1.97v1.34zm5.58 4.14c-.86 0-1.02 0-1.02-.6v-2.36c.24.34.8.87 1.66.87a2.99 2.99 0 0 0 2.92-3.06c0-1.71-1.27-3.04-2.74-3.04-1.2 0-1.83.85-1.87.9v-.9l-1.88.15v.4c.95 0 1.03.09 1.03.68v6.35c0 .61-.15.61-1.03.61v.4c.35-.04 1.08-.04 1.46-.04.4 0 1.12 0 1.47.03zm-1.02-6.54c0-.26 0-.27.15-.49.4-.6 1.06-.86 1.58-.86 1.01 0 1.82 1.23 1.82 2.74 0 1.61-.92 2.79-1.96 2.79a1.6 1.6 0 0 1 -1.08-.44c-.31-.3-.51-.58-.51-.96zm11.07 1.03c0-1.26 0-1.64-.3-2.07-.4-.53-1.03-.6-1.5-.6-1.15 0-1.7.87-1.88 1.29h-.02v-4.71l-1.87.14v.4c.91 0 1.02.09 1.02.75v7.08c0 .6-.15.6-1.02.6v.4c.35-.03 1.08-.03 1.45-.03.4 0 1.13 0 1.48.03v-.4c-.87 0-1.03 0-1.03-.6v-2.51c0-1.42.93-2.18 1.77-2.18s1.03.7 1.03 1.52v3.17c0 .6-.15.6-1.03.6v.4c.35-.03 1.08-.03 1.46-.03.4 0 1.12 0 1.47.03v-.4c-.67 0-1.01 0-1.03-.4zm6.45-1.23c.36-.9 1-.92 1.25-.92v-.4c-.39.04-.58.04-1.01.04l-1.1-.03v.39c.5.03.63.34.63.58 0 .12-.03.19-.09.32l-1.37 3.4-1.5-3.67c-.08-.18-.08-.27-.08-.28 0-.35.47-.35.74-.35v-.4c-.35.04-1.01.04-1.4.04-.5 0-.53 0-1.3-.03v.39c.78 0 .89.07 1.06.49l2.02 4.94-.65 1.57c-.23.4-.6.92-1.2.92-.42 0-.68-.25-.68-.25s.47-.05.47-.52c0-.33-.25-.5-.5-.5-.22 0-.5.13-.5.52 0 .52.5 1.02 1.2 1.02.76 0 1.32-.67 1.67-1.52zm2.89 3.85a.66.66 0 0 0 -.65-.65c-.4 0-.66.31-.66.65a.65.65 0 1 0 1.31 0zm3.51-4.77h1.53v-.4h-1.56v-1.57c0-1.22.63-1.84 1.18-1.84.1 0 .31.03.47.1a.54.54 0 0 0 -.39.54c0 .3.22.52.53.52.32 0 .54-.21.54-.54 0-.5-.49-.89-1.14-.89-.94 0-2 .73-2 2.1v1.59h-1.06v.39h1.05v4.43c0 .6-.15.6-1.03.6v.4c.38-.03 1.13-.03 1.53-.03.37 0 1.32 0 1.63.03v-.4h-.26c-1 0-1.02-.14-1.02-.63zm7.93 2.54c0-1.74-1.33-3.13-2.9-3.13-1.62 0-2.9 1.43-2.9 3.13a2.96 2.96 0 0 0 2.89 3.03c1.59 0 2.9-1.33 2.9-3.03zm-2.9 2.73c-.5 0-1.1-.22-1.5-.88a3.9 3.9 0 0 1 -.38-1.97c0-.52 0-1.34.42-1.95a1.73 1.73 0 0 1 2.9-.02c.42.62.42 1.47.42 1.97 0 .47 0 1.3-.35 1.94-.38.65-1 .9-1.51.9zm9.31-3.12c0-1.26 0-1.64-.3-2.07-.4-.53-1.03-.6-1.5-.6-1.3 0-1.82 1.11-1.92 1.38h-.02v-1.39l-1.83.15v.4c.91 0 1.02.09 1.02.75v3.66c0 .6-.15.6-1.02.6v.4c.35-.03 1.08-.03 1.45-.03.4 0 1.13 0 1.48.03v-.4c-.87 0-1.03 0-1.03-.6v-2.51c0-1.42.93-2.18 1.77-2.18s1.03.7 1.03 1.52v3.17c0 .6-.15.6-1.03.6v.4c.35-.03 1.08-.03 1.46-.03.4 0 1.12 0 1.47.03v-.4c-.67 0-1.01 0-1.03-.4zm3.25-2.15h1.9v-.4h-1.9v-2.48h-.3c-.02 1.27-.5 2.57-1.73 2.61v.27h1.15v3.76c0 1.5 1 1.8 1.71 1.8.85 0 1.3-.83 1.3-1.8v-.77h-.3v.74c0 .97-.39 1.54-.92 1.54-.91 0-.91-1.26-.91-1.49zm5.68-.2a1.78 1.78 0 0 1 -1.3-1.72c0-.94.76-1.8 1.81-1.8 2.22 0 2.52 2.2 2.6 2.77.02.17.02.22.16.22.15 0 .15-.07.15-.31v-2.73c0-.24 0-.31-.14-.31-.04 0-.1 0-.19.18l-.43.82c-.65-.84-1.54-1-2.14-1a2.57 2.57 0 0 0 -1.86 4.36c.47.53.94.65 1.9.9.48.1 1.22.3 1.4.37a2.01 2.01 0 0 1 1.06 1.8c0 1.01-.71 1.97-1.84 1.97a3.2 3.2 0 0 1 -2.1-.73 2.86 2.86 0 0 1 -.85-2.12c-.02-.1-.13-.1-.15-.1-.15 0-.15.06-.15.3v2.73c0 .25 0 .31.13.31.09 0 .1-.02.2-.18l.44-.82c.48.55 1.34 1 2.5 1 1.51 0 2.6-1.28 2.6-2.77 0-.82-.3-1.43-.67-1.87-.5-.61-1.1-.76-1.63-.9zm6.89-2.69a.66.66 0 0 0 -.66-.66.65.65 0 0 0 -.65.65c0 .4.32.66.65.66.42 0 .66-.35.66-.65zm-1.87 2.51v.4c.87 0 1 .07 1 .74v3.67c0 .6-.16.6-1.04.6v.4c.38-.03 1.03-.03 1.42-.03.15 0 .93 0 1.4.03v-.4c-.88 0-.94-.06-.94-.59v-4.97zm8.34.37c.12-.15.12-.18.12-.23 0-.15-.1-.15-.32-.15h-4.25l-.14 2.15h.3c.07-1.38.33-1.88 1.8-1.88h1.57l-3.86 5.3c0 .25.02.25.32.25h4.4l.22-2.49h-.3c-.12 1.54-.35 2.2-1.95 2.2h-1.64zm5.9 2.31c.3 0 .33 0 .33-.26 0-1.36-.73-2.63-2.36-2.63-1.55 0-2.73 1.39-2.73 3.06 0 1.79 1.38 3.1 2.87 3.1 1.61 0 2.22-1.46 2.22-1.75 0-.08-.07-.13-.15-.13-.1 0-.13.07-.16.13a1.91 1.91 0 0 1 -1.82 1.45c-.57 0-1.94-.38-1.94-2.72v-.25h3.75zm-3.72-.26c.1-2.12 1.3-2.36 1.67-2.36 1.45 0 1.53 1.9 1.54 2.36zm-109.48 8.88h113.91v.54h-113.9v-.54zm54.23 4.26c0-.31 0-.33-.27-.33-.32.37-1 .87-2.39.87v.39c.31 0 .99 0 1.73-.35v7.04c0 .48-.04.64-1.23.64h-.42v.4c.37-.03 1.68-.03 2.13-.03.44 0 1.74 0 2.1.03v-.4h-.42c-1.19 0-1.23-.16-1.23-.64zm7.6-.14c0-.25 0-.32-.19-.32-.1 0-.14 0-.25.16l-4.07 6.3v.4h3.56v1.23c0 .5-.03.63-1.02.63h-.26v.4c.31-.03 1.38-.03 1.76-.03s1.46 0 1.77.03v-.4h-.27c-.97 0-1.02-.13-1.02-.63v-1.23h1.37v-.4h-1.37v-6.14zm-.89 1.06v5.09h-3.28l3.28-5.1zm57.62-4.91c0-.39-.33-.71-.72-.71s-.71.32-.71.71c0 .4.32.72.71.72.4 0 .72-.33.72-.72zm44-9.04c0-1.26 0-1.64-.31-2.07-.4-.53-1.03-.6-1.49-.6-1.16 0-1.7.87-1.89 1.29h-.01v-4.71l-1.88.14v.4c.92 0 1.03.09 1.03.75v7.08c0 .6-.15.6-1.03.6v.4c.35-.03 1.08-.03 1.46-.03.4 0 1.12 0 1.47.03v-.4c-.86 0-1.02 0-1.02-.6v-2.51c0-1.42.93-2.18 1.76-2.18.84 0 1.03.7 1.03 1.52v3.17c0 .6-.15.6-1.02.6v.4c.35-.03 1.08-.03 1.45-.03.4 0 1.13 0 1.48.03v-.4c-.68 0-1.02 0-1.03-.4zm3.24-2.15h1.9v-.4h-1.9v-2.48h-.3c-.01 1.27-.5 2.57-1.73 2.61v.27h1.15v3.76c0 1.5 1 1.8 1.72 1.8.85 0 1.3-.83 1.3-1.8v-.77h-.3v.74c0 .97-.4 1.54-.92 1.54-.92 0-.92-1.26-.92-1.49zm12.56 2.15c0-1.26 0-1.64-.31-2.07-.4-.53-1.03-.6-1.49-.6-1.12 0-1.69.8-1.9 1.33-.2-1.04-.92-1.34-1.77-1.34-1.31 0-1.83 1.12-1.93 1.4h-.02v-1.4l-1.83.15v.4c.91 0 1.02.09 1.02.75v3.66c0 .6-.15.6-1.02.6v.4c.35-.03 1.08-.03 1.45-.03.4 0 1.13 0 1.48.03v-.4c-.87 0-1.03 0-1.03-.6v-2.51c0-1.42.93-2.18 1.77-2.18s1.03.7 1.03 1.52v3.17c0 .6-.15.6-1.03.6v.4c.35-.03 1.08-.03 1.46-.03.4 0 1.12 0 1.47.03v-.4c-.86 0-1.03 0-1.03-.6v-2.51c0-1.42.94-2.18 1.78-2.18.83 0 1.02.7 1.02 1.52v3.17c0 .6-.15.6-1.02.6v.4c.35-.03 1.08-.03 1.45-.03.4 0 1.13 0 1.48.03v-.4c-.68 0-1.02 0-1.03-.4zm3.66-6.09-1.88.14v.4c.92 0 1.03.09 1.03.75v7.08c0 .6-.15.6-1.03.6v.4c.38-.03 1.04-.03 1.45-.03.4 0 1.08 0 1.46.03v-.4c-.87 0-1.03 0-1.03-.6zm8.08 3.94h1.53v-.4h-1.55v-1.57c0-1.22.62-1.84 1.17-1.84.11 0 .31.03.48.1a.54.54 0 0 0 -.4.54c0 .3.22.52.53.52.32 0 .54-.21.54-.54 0-.5-.49-.89-1.13-.89-.95 0-2.02.73-2.02 2.1v1.59h-1.05v.39h1.05v4.43c0 .6-.15.6-1.02.6v.4c.37-.03 1.12-.03 1.52-.03.37 0 1.33 0 1.64.03v-.4h-.27c-.99 0-1.02-.14-1.02-.63zm7.92 2.54c0-1.74-1.32-3.13-2.89-3.13-1.62 0-2.9 1.43-2.9 3.13a2.96 2.96 0 0 0 2.89 3.03c1.6 0 2.9-1.33 2.9-3.03zm-2.89 2.73c-.5 0-1.1-.22-1.5-.88a3.9 3.9 0 0 1 -.38-1.97c0-.52 0-1.34.42-1.95a1.73 1.73 0 0 1 2.9-.02c.43.62.43 1.47.43 1.97 0 .47 0 1.3-.35 1.94-.38.65-1 .9-1.52.9zm9.32-3.12c0-1.26 0-1.64-.31-2.07-.4-.53-1.03-.6-1.49-.6-1.31 0-1.82 1.11-1.93 1.38h-.01v-1.39l-1.84.15v.4c.92 0 1.03.09 1.03.75v3.66c0 .6-.15.6-1.03.6v.4c.35-.03 1.08-.03 1.46-.03.39 0 1.12 0 1.47.03v-.4c-.87 0-1.03 0-1.03-.6v-2.51c0-1.42.94-2.18 1.77-2.18.84 0 1.03.7 1.03 1.52v3.17c0 .6-.15.6-1.03.6v.4c.35-.03 1.08-.03 1.46-.03.4 0 1.12 0 1.47.03v-.4c-.67 0-1 0-1.02-.4zm3.24-2.15h1.9v-.4h-1.9v-2.48h-.3c-.01 1.27-.5 2.57-1.73 2.61v.27h1.15v3.76c0 1.5 1 1.8 1.71 1.8.85 0 1.3-.83 1.3-1.8v-.77h-.3v.74c0 .97-.39 1.54-.92 1.54-.91 0-.91-1.26-.91-1.49zm7.31-.28c0-.25 0-.31-.14-.31-.11 0-.37.3-.46.41a1.9 1.9 0 0 0 -1.27-.41c-1.64 0-2.12.89-2.12 1.63 0 .15 0 .62.51 1.1.43.37.9.47 1.51.59.75.15.92.19 1.26.46.24.2.42.5.42.88 0 .58-.34 1.23-1.53 1.23-.89 0-1.54-.52-1.83-1.87l-.07-.27c-.03-.05-.08-.05-.12-.05-.15 0-.15.06-.15.3v1.85c0 .24 0 .3.13.3.07 0 .08 0 .31-.3.07-.09.07-.11.27-.33.52.64 1.25.64 1.48.64 1.41 0 2.12-.79 2.12-1.86 0-.72-.45-1.16-.57-1.28-.49-.42-.85-.5-1.74-.66-.4-.08-1.4-.27-1.4-1.08 0-.42.29-1.04 1.5-1.04 1.48 0 1.56 1.25 1.59 1.67 0 .11.1.11.14.11.15 0 .15-.07.15-.3v-1.41zm3.13-2.61a.66.66 0 0 0 -.66-.66.65.65 0 0 0 -.65.65c0 .4.32.66.65.66.42 0 .66-.35.66-.65zm-1.86 2.51v.4c.86 0 .98.07.98.74v3.67c0 .6-.15.6-1.02.6v.4c.37-.03 1.02-.03 1.41-.03.15 0 .94 0 1.4.03v-.4c-.88 0-.94-.06-.94-.59v-4.97zm8.33.37c.12-.15.12-.18.12-.23 0-.15-.1-.15-.32-.15h-4.24l-.15 2.15h.3c.08-1.38.33-1.88 1.8-1.88h1.57l-3.86 5.3c0 .25.02.25.32.25h4.4l.22-2.49h-.3c-.12 1.54-.35 2.2-1.95 2.2h-1.64zm5.9 2.31c.3 0 .33 0 .33-.26 0-1.36-.73-2.63-2.36-2.63-1.54 0-2.73 1.39-2.73 3.06 0 1.79 1.38 3.1 2.88 3.1 1.6 0 2.21-1.46 2.21-1.75 0-.08-.07-.13-.15-.13-.1 0-.13.07-.16.13a1.91 1.91 0 0 1 -1.82 1.45c-.57 0-1.94-.38-1.94-2.72v-.25h3.75zm-3.72-.26c.1-2.12 1.3-2.36 1.67-2.36 1.45 0 1.53 1.9 1.54 2.36zm-105.01 8.88h144.23v.54h-144.23zm2.27 7.49h1.9v-.4h-1.9v-2.48h-.3c-.01 1.27-.5 2.57-1.73 2.6v.28h1.15v3.75c0 1.5 1 1.81 1.72 1.81.85 0 1.3-.84 1.3-1.8v-.78h-.3v.74c0 .98-.4 1.54-.92 1.54-.92 0-.92-1.25-.92-1.48zm7.98.91c.36-.9 1-.91 1.26-.91v-.4c-.4.03-.58.03-1.02.03l-1.1-.03v.4c.5.02.63.33.63.58 0 .12-.03.19-.08.32l-1.38 3.4-1.5-3.67c-.08-.19-.08-.27-.08-.28 0-.35.47-.35.74-.35v-.4c-.35.03-1.01.03-1.39.03-.51 0-.54 0-1.3-.03v.4c.78 0 .88.06 1.06.48l2.01 4.95-.65 1.56c-.23.4-.6.92-1.2.92-.42 0-.68-.24-.68-.24s.48-.05.48-.53c0-.32-.26-.5-.5-.5-.23 0-.52.14-.52.53 0 .51.5 1.01 1.22 1.01.76 0 1.31-.66 1.66-1.51zm4.82 6.75c-.87 0-1.03 0-1.03-.61v-2.35c.25.33.8.86 1.66.86a2.99 2.99 0 0 0 2.93-3.05c0-1.72-1.27-3.04-2.74-3.04-1.19 0-1.82.85-1.87.9v-.9l-1.87.15v.39c.94 0 1.02.1 1.02.69v6.35c0 .6-.14.6-1.02.6v.4c.35-.03 1.08-.03 1.46-.03.39 0 1.12 0 1.47.03v-.4zm-1.03-6.54c0-.26 0-.27.15-.49.4-.6 1.07-.86 1.58-.86 1.01 0 1.82 1.23 1.82 2.74 0 1.6-.91 2.78-1.95 2.78a1.6 1.6 0 0 1 -1.08-.43c-.31-.31-.52-.58-.52-.96zm11.64 1.42c0-1.75-1.33-3.14-2.9-3.14-1.62 0-2.9 1.43-2.9 3.14a2.96 2.96 0 0 0 2.9 3.02c1.59 0 2.9-1.32 2.9-3.02zm-2.9 2.72c-.5 0-1.1-.21-1.5-.87a3.9 3.9 0 0 1 -.37-1.98c0-.5 0-1.33.42-1.94a1.73 1.73 0 0 1 2.9-.03c.42.62.42 1.47.42 1.97 0 .48 0 1.31-.35 1.95-.38.65-1 .9-1.52.9zm4.92-2.28c.63.42 1.17.42 1.32.42 1.22 0 2.12-.92 2.12-1.96 0-.36-.1-.88-.54-1.3.53-.55 1.16-.55 1.23-.55a.4.4 0 0 1 .18.03c-.14.05-.2.19-.2.34 0 .18.13.35.34.35.11 0 .36-.07.36-.37a.63.63 0 0 0 -.67-.62c-.7 0-1.22.43-1.41.64-.41-.32-.88-.5-1.4-.5-1.21 0-2.12.93-2.12 1.97 0 .77.48 1.27.61 1.39-.16.2-.4.6-.4 1.12 0 .78.47 1.12.58 1.19-.63.17-1.25.66-1.25 1.36 0 .94 1.27 1.7 2.94 1.7 1.6 0 2.94-.71 2.94-1.72 0-.34-.1-1.14-.9-1.56-.7-.35-1.37-.35-2.53-.35-.82 0-.92 0-1.16-.25a1 1 0 0 1 -.26-.68c0-.23.08-.46.22-.65zm1.33.14c-1.19 0-1.19-1.37-1.19-1.68 0-.24 0-.8.24-1.16.25-.4.66-.53.94-.53 1.19 0 1.19 1.37 1.19 1.68 0 .24 0 .8-.23 1.16-.26.4-.66.53-.95.53zm.37 4.8c-1.3 0-2.28-.67-2.28-1.44 0-.1.02-.63.54-.99.3-.19.42-.19 1.36-.19 1.12 0 2.65 0 2.65 1.18 0 .8-1.03 1.43-2.27 1.43zm5.56-5.64c0-1.31.54-2.54 1.58-2.54l.19.01c-.1.06-.32.14-.32.5 0 .4.3.54.52.54.27 0 .54-.17.54-.54 0-.4-.36-.78-.94-.78-1.15 0-1.54 1.24-1.63 1.5v-1.5l-1.82.15v.39c.92 0 1.03.1 1.03.76v3.66c0 .6-.15.6-1.03.6v.4c.38-.03 1.12-.03 1.53-.03.36 0 1.32 0 1.63.03v-.4h-.27c-.98 0-1.01-.14-1.01-.63zm8.1-.46c0-.73 0-1.27-.6-1.8a2.46 2.46 0 0 0 -1.67-.62c-1.1 0-1.96.73-1.96 1.6 0 .4.26.59.57.59.32 0 .56-.23.56-.55 0-.56-.5-.56-.7-.56.32-.57.96-.8 1.5-.8.63 0 1.42.5 1.42 1.72v.54c-2.71.04-3.74 1.18-3.74 2.22 0 1.06 1.25 1.4 2.07 1.4.89 0 1.5-.54 1.75-1.19.06.64.48 1.12 1.06 1.12.28 0 1.07-.19 1.07-1.27v-.75h-.3v.75c0 .77-.33.88-.51.88-.52 0-.52-.71-.52-.92zm-.88 1.7c0 1.33-.98 1.77-1.56 1.77-.67 0-1.22-.48-1.22-1.13 0-1.79 2.3-1.95 2.78-1.98zm5.59 4.14c-.86 0-1.03 0-1.03-.61v-2.35c.25.33.8.86 1.67.86a2.99 2.99 0 0 0 2.91-3.05c0-1.72-1.27-3.04-2.74-3.04-1.19 0-1.82.85-1.86.9v-.9l-1.88.15v.39c.94 0 1.03.1 1.03.69v6.35c0 .6-.15.6-1.03.6v.4c.35-.03 1.08-.03 1.46-.03.39 0 1.12 0 1.47.03v-.4zm-1.03-6.54c0-.26 0-.27.15-.49.4-.6 1.07-.86 1.58-.86 1.02 0 1.83 1.23 1.83 2.74 0 1.6-.92 2.78-1.96 2.78a1.6 1.6 0 0 1 -1.08-.43c-.31-.31-.52-.58-.52-.96zm11.09 1.02c0-1.25 0-1.63-.32-2.06-.4-.53-1.03-.61-1.49-.61-1.16 0-1.7.88-1.89 1.3h-.01v-4.72l-1.88.15v.4c.92 0 1.03.09 1.03.75v7.08c0 .6-.15.6-1.03.6v.4c.35-.03 1.08-.03 1.46-.03.4 0 1.12 0 1.47.03v-.4c-.86 0-1.02 0-1.02-.6v-2.52c0-1.41.93-2.17 1.77-2.17.83 0 1.02.69 1.02 1.51v3.18c0 .6-.15.6-1.02.6v.4c.35-.03 1.08-.03 1.46-.03.39 0 1.12 0 1.47.03v-.4c-.68 0-1.01 0-1.03-.4v-2.49zm6.43-1.23c.37-.9 1-.91 1.26-.91v-.4c-.4.03-.58.03-1.01.03l-1.1-.03v.4c.5.02.62.33.62.58 0 .12-.02.19-.08.32l-1.38 3.4-1.5-3.67c-.08-.19-.08-.27-.08-.28 0-.35.48-.35.75-.35v-.4c-.36.03-1.02.03-1.4.03-.5 0-.54 0-1.3-.03v.4c.78 0 .89.06 1.06.48l2.02 4.95-.65 1.56c-.23.4-.6.92-1.2.92-.43 0-.68-.24-.68-.24s.47-.05.47-.53c0-.32-.26-.5-.5-.5-.23 0-.51.14-.51.53 0 .51.5 1.01 1.21 1.01.76 0 1.31-.66 1.67-1.51zm2.9 3.85a.66.66 0 0 0 -.65-.64c-.4 0-.66.3-.66.64 0 .41.33.67.64.67.37 0 .67-.29.67-.67zm7.2-2.62c0-1.25 0-1.63-.31-2.06-.4-.53-1.03-.61-1.49-.61-1.16 0-1.7.88-1.9 1.3v-4.72l-1.88.15v.4c.92 0 1.02.09 1.02.75v7.08c0 .6-.15.6-1.02.6v.4c.35-.03 1.08-.03 1.46-.03.39 0 1.12 0 1.47.03v-.4c-.87 0-1.03 0-1.03-.6v-2.52c0-1.41.93-2.17 1.77-2.17s1.03.69 1.03 1.51v3.18c0 .6-.15.6-1.03.6v.4c.35-.03 1.08-.03 1.46-.03.4 0 1.12 0 1.47.03v-.4c-.67 0-1.01 0-1.02-.4zm3.23-2.14h1.91v-.4h-1.9v-2.48h-.3c-.02 1.27-.5 2.57-1.73 2.6v.28h1.15v3.75c0 1.5 1 1.81 1.71 1.81.85 0 1.3-.84 1.3-1.8v-.78h-.3v.74c0 .98-.39 1.54-.92 1.54-.92 0-.92-1.25-.92-1.48zm12.57 2.14c0-1.25 0-1.63-.31-2.06-.4-.53-1.03-.61-1.5-.61-1.11 0-1.68.8-1.9 1.34-.18-1.04-.91-1.34-1.76-1.34-1.31 0-1.83 1.12-1.94 1.39h-.01v-1.4l-1.84.16v.39c.92 0 1.03.1 1.03.76v3.66c0 .6-.15.6-1.03.6v.4c.35-.03 1.08-.03 1.46-.03.4 0 1.12 0 1.47.03v-.4c-.86 0-1.02 0-1.02-.6v-2.52c0-1.41.93-2.17 1.77-2.17.83 0 1.02.69 1.02 1.51v3.18c0 .6-.14.6-1.02.6v.4c.35-.03 1.08-.03 1.46-.03.39 0 1.12 0 1.47.03v-.4c-.87 0-1.03 0-1.03-.6v-2.52c0-1.41.93-2.17 1.77-2.17s1.03.69 1.03 1.51v3.18c0 .6-.15.6-1.03.6v.4c.35-.03 1.08-.03 1.46-.03.4 0 1.12 0 1.47.03v-.4c-.67 0-1.01 0-1.02-.4zm3.66-6.09-1.88.15v.4c.92 0 1.03.09 1.03.75v7.08c0 .6-.15.6-1.03.6v.4c.38-.03 1.04-.03 1.44-.03.41 0 1.08 0 1.46.03v-.4c-.86 0-1.02 0-1.02-.6zm9.06.18h-7.16v.39h.27c.97 0 1.01.13 1.01.63v7.15c0 .5-.04.63-1 .63h-.28v.4c.33-.03 1.53-.03 1.93-.03.48 0 1.67 0 2.06.03v-.4h-.4c-1.18 0-1.21-.16-1.21-.64v-3.38h1.19c1.27 0 1.4.45 1.4 1.58h.3v-3.55h-.3c0 1.13-.13 1.58-1.4 1.58h-1.2v-3.47c0-.45.04-.54.63-.54h1.69c1.94 0 2.34.71 2.53 2.62h.3l-.36-3.01zm6.02 6.31c0-1.75-1.32-3.14-2.9-3.14-1.61 0-2.9 1.43-2.9 3.14a2.96 2.96 0 0 0 2.9 3.02c1.59 0 2.9-1.32 2.9-3.02zm-2.9 2.72c-.5 0-1.1-.21-1.5-.87a3.9 3.9 0 0 1 -.37-1.98c0-.5 0-1.33.42-1.94a1.73 1.73 0 0 1 2.9-.03c.42.62.42 1.47.42 1.97 0 .48 0 1.31-.35 1.95-.38.65-1 .9-1.51.9zm9.33-3.12c0-1.25 0-1.63-.32-2.06-.39-.53-1.02-.61-1.48-.61-1.31 0-1.83 1.12-1.94 1.39v-1.4l-1.85.16v.39c.92 0 1.03.1 1.03.76v3.66c0 .6-.15.6-1.03.6v.4c.35-.03 1.08-.03 1.46-.03.4 0 1.12 0 1.48.03v-.4c-.87 0-1.03 0-1.03-.6v-2.52c0-1.41.93-2.17 1.77-2.17s1.03.69 1.03 1.51v3.18c0 .6-.15.6-1.03.6v.4c.35-.03 1.08-.03 1.46-.03.39 0 1.12 0 1.47.03v-.4c-.68 0-1.01 0-1.03-.4v-2.49zm3.23-2.14h1.9v-.4h-1.9v-2.48h-.3c0 1.27-.5 2.57-1.72 2.6v.28h1.14v3.75c0 1.5 1 1.81 1.72 1.81.85 0 1.3-.84 1.3-1.8v-.78h-.3v.74c0 .98-.4 1.54-.92 1.54-.92 0-.92-1.25-.92-1.48zm5.69-.21a1.78 1.78 0 0 1 -1.3-1.71c0-.95.76-1.8 1.81-1.8 2.22 0 2.51 2.19 2.6 2.77.02.16.02.22.16.22s.14-.07.14-.31v-2.73c0-.25 0-.31-.13-.31-.04 0-.1 0-.19.17l-.44.83c-.65-.84-1.55-1-2.14-1a2.57 2.57 0 0 0 -1.86 4.36c.47.53.94.65 1.9.9.47.1 1.22.29 1.4.37a2.01 2.01 0 0 1 1.06 1.8c0 1-.72 1.97-1.84 1.97a3.2 3.2 0 0 1 -2.1-.73 2.85 2.85 0 0 1 -.86-2.12c-.01-.11-.12-.11-.14-.11-.15 0-.15.07-.15.31v2.73c0 .24 0 .31.13.31.08 0 .1-.03.2-.19.04-.1.33-.6.44-.8.48.53 1.33.99 2.5.99 1.5 0 2.6-1.28 2.6-2.77 0-.82-.3-1.43-.67-1.88-.5-.6-1.11-.75-1.64-.89zm6.88-2.68a.66.66 0 0 0 -.66-.67.65.65 0 0 0 -.64.65c0 .4.32.66.64.66.42 0 .67-.35.67-.65zm-1.86 2.5v.4c.87 0 .99.08.99.74v3.68c0 .6-.15.6-1.03.6v.4c.38-.03 1.03-.03 1.42-.03.15 0 .93 0 1.4.03v-.4c-.89 0-.94-.06-.94-.59v-4.97l-1.84.15zm8.34.37c.12-.15.12-.17.12-.23 0-.15-.1-.15-.32-.15h-4.25l-.15 2.15h.3c.08-1.38.34-1.88 1.81-1.88h1.57l-3.87 5.31c0 .25.03.25.33.25h4.4l.22-2.49h-.3c-.12 1.54-.35 2.19-1.96 2.19h-1.63zm5.9 2.31c.3 0 .33 0 .33-.25 0-1.37-.73-2.64-2.37-2.64-1.54 0-2.73 1.4-2.73 3.07 0 1.78 1.38 3.1 2.88 3.1 1.61 0 2.22-1.47 2.22-1.75 0-.08-.07-.14-.15-.14-.1 0-.14.07-.16.14a1.91 1.91 0 0 1 -1.83 1.44c-.56 0-1.93-.37-1.93-2.71v-.26zm-3.73-.25c.11-2.13 1.3-2.37 1.68-2.37 1.44 0 1.53 1.9 1.54 2.37z" fill="#fff"/></g></svg>
