<svg width="220" height="213" viewBox="0 0 220 213" fill="none" xmlns="http://www.w3.org/2000/svg">
<path d="M20.356 61.621V157.643C20.3567 160.107 21.6693 162.384 23.8008 163.618L106.947 211.629C109.079 212.859 111.704 212.859 113.836 211.629L196.982 163.618C199.114 162.384 200.426 160.107 200.427 157.643V61.621C200.426 59.1574 199.114 56.8807 196.982 55.6461L113.836 7.63492C111.704 6.40555 109.079 6.40555 106.947 7.63492L23.8008 55.6461C21.6693 56.8807 20.3567 59.1574 20.356 61.621Z" fill="#D0D6DB"/>
<rect x="133.879" y="156.618" width="23.4875" height="15.6618" rx="3" fill="#B4BDC5"/>
<rect x="169.11" y="156.618" width="23.4875" height="15.6618" rx="3" fill="#B4BDC5"/>
<rect x="28.1851" y="66.5625" width="58.7189" height="70.4779" rx="2" fill="#B4BDC5"/>
<path d="M2.07463 154.088H116.655C117.519 154.088 118.221 154.79 118.221 155.655V168.364H0.508789V155.655C0.508789 154.79 1.20984 154.088 2.07463 154.088Z" fill="#B4BDC5"/>
<path d="M2.07463 176.195H116.655C117.519 176.195 118.221 176.896 118.221 177.761V202.084H0.508789V177.761C0.508789 176.896 1.20984 176.195 2.07463 176.195Z" fill="#B4BDC5"/>
<rect x="98.6477" y="43.0698" width="117.438" height="31.3235" rx="2" fill="#B4BDC5"/>
<rect x="161.767" y="15.6616" width="15.6584" height="15.6618" rx="2" fill="#B4BDC5"/>
<rect x="134.365" y="11.7466" width="19.573" height="19.5772" rx="2" fill="#B4BDC5"/>
<rect x="99.1331" y="3.91553" width="27.4021" height="27.4081" rx="2" fill="#B4BDC5"/>
<ellipse cx="184.769" cy="109.632" rx="19.573" ry="19.5772" fill="#B4BDC5"/>
<ellipse cx="198.47" cy="123.337" rx="5.87189" ry="5.87316" fill="#B4BDC5"/>
<path d="M5.67616 146.829H121.157C121.697 146.829 122.135 147.267 122.135 147.808V164.449H4.69751V147.808C4.69751 147.267 5.13567 146.829 5.67616 146.829Z" fill="#3CCD78"/>
<ellipse cx="24.2705" cy="154.66" rx="3.91459" ry="3.91544" fill="#F2F2F2"/>
<ellipse cx="63.4163" cy="154.66" rx="3.91459" ry="3.91544" fill="#8AE1AE"/>
<ellipse cx="102.562" cy="154.66" rx="3.91459" ry="3.91544" fill="#8AE1AE"/>
<rect x="4.69751" y="162.491" width="39.1459" height="1.95772" fill="#F2F2F2"/>
<path d="M5.67616 172.279H121.157C121.697 172.279 122.135 172.718 122.135 173.258V197.73H4.69751V173.258C4.69751 172.718 5.13567 172.279 5.67616 172.279Z" fill="#3CCD78"/>
<ellipse cx="24.2705" cy="180.11" rx="3.91459" ry="3.91544" fill="#F2F2F2"/>
<ellipse cx="63.4163" cy="180.11" rx="3.91459" ry="3.91544" fill="#8AE1AE"/>
<ellipse cx="102.562" cy="180.11" rx="3.91459" ry="3.91544" fill="#8AE1AE"/>
<rect x="4.69751" y="195.772" width="39.1459" height="1.95772" fill="#F2F2F2"/>
<rect x="12.2527" y="187.534" width="24.0278" height="3.28897" fill="#F2F2F2"/>
<rect x="51.3987" y="187.534" width="24.0278" height="3.28897" fill="#8AE1AE"/>
<rect x="90.5444" y="187.534" width="24.0278" height="3.28897" fill="#8AE1AE"/>
<path d="M102.562 50.9004H220V68.9114C220 69.7764 219.299 70.4776 218.434 70.4776H104.128C103.263 70.4776 102.562 69.7764 102.562 68.9114V50.9004Z" fill="white"/>
<path d="M104.128 39.1543H218.434C219.299 39.1543 220 39.8555 220 40.7205V50.9006H102.562V40.7205C102.562 39.8555 103.263 39.1543 104.128 39.1543Z" fill="#3CCD78"/>
<rect x="126.05" y="54.8159" width="46.9751" height="11.7463" fill="#E0E4E8"/>
<ellipse cx="214.128" cy="45.0275" rx="1.9573" ry="1.95772" fill="#8AE1AE"/>
<ellipse cx="206.299" cy="45.0275" rx="1.9573" ry="1.95772" fill="#8AE1AE"/>
<ellipse cx="198.47" cy="45.0275" rx="1.9573" ry="1.95772" fill="#8AE1AE"/>
<rect x="106.477" y="54.8159" width="15.6584" height="1.56618" fill="#CCD2D8"/>
<rect x="106.477" y="59.9062" width="15.6584" height="1.56618" fill="#CCD2D8"/>
<rect x="106.477" y="64.9961" width="15.6584" height="1.56618" fill="#CCD2D8"/>
<ellipse cx="200.427" cy="60.6894" rx="3.91459" ry="3.91544" fill="#CCD2D8"/>
<ellipse cx="188.683" cy="60.6894" rx="3.91459" ry="3.91544" fill="#CCD2D8"/>
<ellipse cx="212.171" cy="60.6894" rx="3.91459" ry="3.91544" fill="#CCD2D8"/>
<path d="M187.493 160.4C185.93 161.789 183.576 161.789 182.013 160.4L173.44 152.898C173.162 153.3 173.017 153.779 173.025 154.268V166.015C173.025 167.312 174.077 168.364 175.374 168.364H194.164C195.461 168.364 196.512 167.312 196.512 166.015V154.268C196.511 153.776 196.355 153.297 196.066 152.898L187.493 160.4Z" fill="white"/>
<path d="M187.493 160.4L196.066 152.898C195.626 152.285 194.918 151.921 194.164 151.919H175.374C174.619 151.921 173.911 152.285 173.471 152.898L182.044 160.4C183.602 161.77 185.935 161.77 187.493 160.4Z" fill="#E0E4E8"/>
<path d="M152.262 160.4C150.699 161.789 148.344 161.789 146.781 160.4L138.208 152.898C137.931 153.3 137.786 153.779 137.793 154.268V166.015C137.793 167.312 138.845 168.364 140.142 168.364H158.932C160.229 168.364 161.281 167.312 161.281 166.015V154.268C161.28 153.776 161.123 153.297 160.835 152.898L152.262 160.4Z" fill="white"/>
<path d="M152.262 160.4L160.835 152.898C160.395 152.285 159.687 151.921 158.932 151.919H140.142C139.388 151.921 138.68 152.285 138.24 152.898L146.813 160.4C148.371 161.77 150.704 161.77 152.262 160.4Z" fill="#E0E4E8"/>
<ellipse cx="160.498" cy="153.485" rx="4.69751" ry="4.69853" fill="#FF505F"/>
<rect x="32.0996" y="62.647" width="58.7189" height="70.4779" rx="2" fill="#66B1FF"/>
<rect x="36.0142" y="70.478" width="50.8897" height="12.2005" fill="#007DFF"/>
<rect x="75.1602" y="90.0552" width="3.91459" height="35.239" fill="#007DFF"/>
<ellipse cx="77.1175" cy="107.674" rx="5.87189" ry="5.87316" fill="white"/>
<rect x="59.5017" y="90.0552" width="3.91459" height="35.239" fill="#007DFF"/>
<ellipse cx="61.459" cy="99.8439" rx="5.87189" ry="5.87316" fill="white"/>
<rect x="43.8435" y="90.0552" width="3.91459" height="35.239" fill="#007DFF"/>
<ellipse cx="45.8006" cy="115.505" rx="5.87189" ry="5.87316" fill="white"/>
<ellipse cx="188.683" cy="105.717" rx="19.573" ry="19.5772" fill="#007DFF"/>
<path d="M194.508 114.331L194.273 111.778C195.468 110.764 196.172 109.288 196.207 107.721V105.45C196.879 104.94 197.368 104.226 197.601 103.414C198.117 101.793 197.671 100.204 196.622 99.867C196.488 99.8257 196.347 99.8072 196.207 99.8122V99.3502C196.207 95.194 192.838 91.8247 188.683 91.8247C184.528 91.8247 181.159 95.194 181.159 99.3502V99.8122C181.019 99.8072 180.879 99.8257 180.744 99.867C179.695 100.204 179.249 101.793 179.766 103.414C179.999 104.226 180.488 104.94 181.159 105.45V107.721C181.195 109.288 181.899 110.764 183.093 111.778L182.858 114.331C175.029 115.803 169.408 120.165 169.408 125.294H207.959C207.959 120.141 202.314 115.779 194.508 114.331Z" fill="#66B1FF"/>
<ellipse cx="202.384" cy="119.421" rx="5.87189" ry="5.87316" fill="#F2F2F2"/>
<ellipse cx="202.384" cy="119.421" rx="3.52313" ry="3.5239" fill="#3CCD78"/>
<rect x="98.6477" y="86.1396" width="50.8897" height="11.7463" rx="2" fill="#B4BDC5"/>
<rect x="102.562" y="82.2241" width="50.8897" height="11.7463" rx="2" fill="#007DFF"/>
<rect x="114.306" y="86.1396" width="27.4021" height="3.91544" fill="#66B1FF"/>
<rect x="98.6477" y="105.717" width="50.8897" height="11.7463" rx="2" fill="#B4BDC5"/>
<rect x="102.562" y="101.801" width="50.8897" height="11.7463" rx="2" fill="#66B1FF"/>
<rect x="114.306" y="105.717" width="27.4021" height="3.91544" fill="#007DFF"/>
<rect x="98.6477" y="125.294" width="50.8897" height="11.7463" rx="2" fill="#B4BDC5"/>
<rect x="102.562" y="121.379" width="50.8897" height="11.7463" rx="2" fill="#3CCD78"/>
<rect x="114.306" y="125.294" width="27.4021" height="3.91544" fill="#8AE1AE"/>
<rect x="102.562" width="27.4021" height="27.4081" rx="2" fill="#007DFF"/>
<path d="M107.98 7.729H109.781V12.9209H115.739V7.729H117.539V19.6789H115.739V14.4714H109.781V19.6789H107.98V7.729Z" fill="white"/>
<path d="M124.547 19.6789H122.738V9.53794H122.668L119.786 11.4017V9.67889L122.769 7.729H124.523L124.547 19.6789Z" fill="white"/>
<rect x="137.794" y="7.604" width="19.8" height="19.8043" rx="2" fill="#007DFF"/>
<path d="M140.502 13.25H141.802V17.001H146.108V13.25H147.416V21.864H146.108V18.1051H141.802V21.864H140.502L140.502 13.25Z" fill="white"/>
<path d="M149.201 20.9397L152.121 17.9091C153.053 16.9303 153.507 16.343 153.507 15.6147C153.505 15.2148 153.333 14.8346 153.035 14.5687C152.736 14.3028 152.338 14.1764 151.941 14.2208C151.514 14.1759 151.089 14.3265 150.785 14.6305C150.481 14.9344 150.33 15.3594 150.375 15.787H149.13C149.121 15.0587 149.419 14.3603 149.951 13.8627C150.483 13.3651 151.199 13.1142 151.925 13.1715C152.62 13.1085 153.309 13.3351 153.831 13.7977C154.353 14.2602 154.66 14.9177 154.681 15.6147C154.681 16.5857 154.235 17.3453 152.653 18.9428L150.939 20.7361V20.8066H154.853V21.9186H149.169L149.201 20.9397Z" fill="white"/>
<rect x="165.196" y="11.7461" width="15.6584" height="15.6618" rx="2" fill="#007DFF"/>
<path d="M167.192 16.1631H168.218V19.131H171.623V16.1631H172.657V22.9916H171.623V20.0159H168.218V22.9916H167.192V16.1631Z" fill="white"/>
<path d="M174.035 21.2139H175.084C175.123 21.8169 175.703 22.2006 176.438 22.2006C177.174 22.2006 177.816 21.7464 177.816 21.0808C177.816 20.4152 177.276 19.914 176.329 19.914H175.75V19.0761H176.329C176.648 19.1159 176.968 19.0197 177.213 18.8112C177.457 18.6026 177.602 18.3009 177.613 17.9798C177.617 17.6821 177.493 17.397 177.273 17.1965C177.053 16.9959 176.758 16.8991 176.462 16.9305C175.829 16.8568 175.256 17.3081 175.178 17.9406H174.184C174.237 17.3885 174.508 16.8805 174.938 16.5292C175.367 16.1779 175.918 16.0123 176.47 16.0691C177.004 16.0169 177.536 16.1873 177.94 16.5399C178.345 16.8926 178.586 17.3965 178.607 17.9328C178.628 18.653 178.136 19.2869 177.433 19.4442V19.4912C178.276 19.5659 178.908 20.2979 178.858 21.1435C178.858 22.2711 177.84 23.109 176.446 23.109C175.053 23.109 174.082 22.3259 174.035 21.2139Z" fill="white"/>
</svg>
