<svg width="220" height="222" viewBox="0 0 220 222" fill="none" xmlns="http://www.w3.org/2000/svg">
<path d="M20.3704 57.6955V157.775C20.3711 160.343 21.7372 162.716 23.9555 164.002L110.489 214.042C112.708 215.324 115.44 215.324 117.659 214.042L204.193 164.002C206.411 162.716 207.777 160.343 207.778 157.775V57.6955C207.777 55.1278 206.411 52.7548 204.193 51.4681L117.659 1.42828C115.44 0.146955 112.708 0.146955 110.489 1.42828L23.9555 51.4681C21.7372 52.7548 20.3711 55.1278 20.3704 57.6955Z" fill="#D0D6DB"/>
<rect x="4.07397" y="17.9558" width="40.7407" height="126.507" rx="2" fill="#B4BDC5"/>
<rect x="57.0369" y="87.3308" width="40.7407" height="12.2426" rx="2" fill="#B4BDC5"/>
<rect x="57.0369" y="66.9265" width="40.7407" height="12.2426" rx="2" fill="#B4BDC5"/>
<rect x="57.0369" y="107.735" width="85.5556" height="81.6176" rx="2" fill="#B4BDC5"/>
<rect x="122.222" y="62.8455" width="77.4074" height="81.6176" rx="2" fill="#B4BDC5"/>
<rect x="154.815" y="156.706" width="65.1852" height="65.2941" rx="2" fill="#B4BDC5"/>
<rect x="118.148" y="38.3601" width="97.7778" height="4.08088" rx="2.04044" fill="#B4BDC5"/>
<ellipse cx="187.407" cy="38.3604" rx="10.1852" ry="10.2022" fill="#CCE5FF"/>
<path d="M116.111 36.3198H187.407V40.4007H116.111C114.986 40.4007 114.074 39.4872 114.074 38.3603C114.074 37.2334 114.986 36.3198 116.111 36.3198Z" fill="#007DFF"/>
<path d="M187.407 36.3198H209.815C210.94 36.3198 211.852 37.2334 211.852 38.3603C211.852 39.4872 210.94 40.4007 209.815 40.4007H187.407V36.3198Z" fill="#99CBFF"/>
<ellipse cx="187.407" cy="38.3603" rx="6.11111" ry="6.12132" fill="#007DFF"/>
<rect x="118.148" y="58.7646" width="77.4074" height="81.6176" rx="2" fill="white"/>
<rect x="122.222" y="62.8457" width="50.1111" height="12.2426" fill="#E0E4E8"/>
<rect x="187.407" y="95.4927" width="32.5926" height="8.16177" transform="rotate(-180 187.407 95.4927)" fill="#007DFF"/>
<rect x="187.407" y="107.735" width="44.8148" height="8.16177" transform="rotate(-180 187.407 107.735)" fill="#007DFF"/>
<rect x="187.407" y="119.978" width="24.4444" height="8.16177" transform="rotate(-180 187.407 119.978)" fill="#007DFF"/>
<rect x="158.889" y="95.4927" width="32.5926" height="8.16177" transform="rotate(-180 158.889 95.4927)" fill="#66B1FF"/>
<rect x="146.667" y="107.735" width="20.3704" height="8.16177" transform="rotate(-180 146.667 107.735)" fill="#66B1FF"/>
<rect x="167.037" y="119.978" width="40.7407" height="8.16177" transform="rotate(-180 167.037 119.978)" fill="#66B1FF"/>
<rect x="187.407" y="132.221" width="40.7407" height="8.16177" transform="rotate(-180 187.407 132.221)" fill="#007DFF"/>
<rect x="150.741" y="132.221" width="24.4444" height="8.16177" transform="rotate(-180 150.741 132.221)" fill="#66B1FF"/>
<ellipse cx="187.407" cy="66.9266" rx="4.07407" ry="4.08088" fill="#CCD2D8"/>
<rect x="118.148" y="78.353" width="77.4074" height="1.63235" fill="#CCD2D8"/>
<path d="M72.6001 28.8682C71.0846 26.2397 67.7299 25.3375 65.1038 26.8523L55.0164 32.6879L54.0956 31.0556L49.3127 33.8224L50.6082 36.0669L37.1068 43.8777C36.0766 44.472 35.3083 45.4339 34.9556 46.5711C34.6822 47.499 33.8189 48.1258 32.8534 48.0973C31.927 48.0505 31.0069 48.2745 30.2053 48.7421C28.7963 49.3576 27.864 50.7271 27.8065 52.2657C27.7491 53.8043 28.5767 55.2398 29.9358 55.9589C31.295 56.678 32.9452 56.5536 34.1816 55.6388C34.9881 55.1788 35.6425 54.4921 36.0638 53.6637C36.5197 52.8093 37.4954 52.3727 38.4349 52.6026C39.5943 52.8673 40.8108 52.6837 41.8408 52.0884L55.3423 44.2776L56.6379 46.5221L61.4208 43.7634L60.5001 42.1311L70.5875 36.2954C73.1671 34.7829 74.0622 31.4796 72.6001 28.8682Z" fill="#B4BDC5"/>
<path d="M40.7407 26.1177L40.7407 138.75C40.7407 139.652 40.0111 140.382 39.1111 140.382H1.62961C0.729591 140.382 -1.90735e-05 139.652 -1.90735e-05 138.75L-1.90735e-05 26.1177L40.7407 26.1177Z" fill="white"/>
<path d="M36.6667 30.1985V62.8455H4.07415V30.1985L36.6667 30.1985Z" fill="#007DFF"/>
<path d="M36.6667 66.9265V99.5736H4.07415V66.9265H36.6667Z" fill="#1ED2FF"/>
<path d="M36.6667 103.654V136.301H4.07415V103.654H36.6667Z" fill="#FFC846"/>
<path d="M1.62963 13.875H39.1111C40.0111 13.875 40.7407 14.6058 40.7407 15.5074V26.1176H0V15.5074C0 14.6058 0.72961 13.875 1.62963 13.875Z" fill="#007DFF"/>
<ellipse cx="34.6296" cy="19.9963" rx="2.03704" ry="2.04044" fill="#66B1FF"/>
<ellipse cx="26.4814" cy="19.9963" rx="2.03704" ry="2.04044" fill="#66B1FF"/>
<ellipse cx="18.3334" cy="19.9963" rx="2.03704" ry="2.04044" fill="#66B1FF"/>
<g style="mix-blend-mode:multiply" opacity="0.15">
<path d="M142.593 140.382H118.148V107.735H140.963C141.863 107.735 142.593 108.466 142.593 109.368V140.382Z" fill="#001E3C"/>
</g>
<path d="M54.5925 103.654H136.889C137.789 103.654 138.518 104.385 138.518 105.287V119.978H52.9629V105.287C52.9629 104.385 53.6925 103.654 54.5925 103.654Z" fill="#007DFF"/>
<rect x="57.0371" y="107.735" width="57.037" height="8.16177" fill="#66B1FF"/>
<path d="M52.9629 119.978H138.518V183.64C138.518 184.541 137.789 185.272 136.889 185.272H54.5925C53.6925 185.272 52.9629 184.541 52.9629 183.64V119.978Z" fill="white"/>
<rect x="57.0371" y="140.382" width="57.037" height="8.16177" fill="#E0E4E8"/>
<rect x="57.0371" y="124.059" width="57.037" height="8.16177" fill="#E0E4E8"/>
<rect x="57.0371" y="173.029" width="57.037" height="8.16177" fill="#E0E4E8"/>
<rect x="52.9629" y="152.625" width="85.5556" height="16.3235" fill="#CCE5FF"/>
<rect x="57.0371" y="156.706" width="57.037" height="8.16177" fill="#99CBFF"/>
<path d="M134.444 107.735L128.333 115.897L122.222 107.735H134.444Z" fill="#66B1FF"/>
<rect x="150.741" y="152.625" width="65.1852" height="65.2941" rx="2" fill="#007DFF"/>
<path fill-rule="evenodd" clip-rule="evenodd" d="M170.247 169.308L158.742 200.681H162.718L165.872 191.801H178.534L181.704 200.681H185.664L174.158 169.308H170.247ZM172.325 174.286L177.344 188.439L167.037 188.422L172.081 174.286H172.325Z" fill="white"/>
<path fill-rule="evenodd" clip-rule="evenodd" d="M198.155 187.084C193.796 187.647 189.037 188.61 189.037 194.005C189.037 198.6 192.541 201.236 197.047 201.253C201.145 201.253 203.296 199.049 204.03 197.515H204.209V200.69H207.819V185.182C207.819 177.706 202.131 176.849 199.133 176.849C195.58 176.849 191.547 178.073 189.713 182.358L193.136 183.591C193.934 181.869 195.808 180.032 199.255 180.032C202.579 180.032 204.209 181.795 204.209 184.815V184.937C204.209 186.39 203.038 186.522 200.137 186.848C199.549 186.915 198.89 186.989 198.155 187.084ZM204.209 188.855V192.169H204.168C204.168 195.107 201.846 197.988 197.601 197.988C194.725 197.988 192.647 196.707 192.647 194.193C192.647 191.434 195.156 190.577 197.967 190.202C198.057 190.191 198.155 190.18 198.26 190.168C199.965 189.971 203.633 189.547 204.209 188.855Z" fill="white"/>
<rect x="52.9629" y="83.25" width="40.7407" height="12.2426" rx="2" fill="#007DFF"/>
<rect x="57.0371" y="87.3308" width="32.5926" height="4.08088" fill="#66B1FF"/>
<rect x="52.9629" y="62.8455" width="40.7407" height="12.2426" rx="2" fill="#66B1FF"/>
<rect x="57.0371" y="66.9265" width="32.5926" height="4.08088" fill="#007DFF"/>
<g style="mix-blend-mode:multiply" opacity="0.15">
<path d="M40.7408 45.208H39.16C37.9698 45.2056 36.8228 45.6547 35.9497 46.4649C35.249 47.1321 34.1863 47.2396 33.3667 46.7261C32.5873 46.2233 31.6782 45.9595 30.7511 45.9671C28.3067 45.9671 26.3022 47.7463 26.3022 49.9418C26.4379 52.2698 28.4265 54.0501 30.7511 53.9248C31.6789 53.9295 32.588 53.6628 33.3667 53.1576C34.1881 52.6463 35.251 52.7571 35.9497 53.4269C36.8228 54.2372 37.9698 54.6863 39.16 54.6838H40.7408V45.208Z" fill="#001E3C"/>
</g>
<path d="M48.9704 31.6267L34.7764 39.8374C33.7462 40.4317 32.9779 41.3936 32.6253 42.5308C32.3518 43.4587 31.4885 44.0855 30.523 44.0571C29.5966 44.0102 28.6765 44.2342 27.8749 44.7019C26.8699 45.2103 26.1082 46.0986 25.7581 47.1706C25.408 48.2425 25.4983 49.4099 26.009 50.4151L51.3334 35.7321L48.9704 31.6267Z" fill="#E0E4E8"/>
<path d="M31.851 51.5986C32.6576 51.1385 33.3119 50.4519 33.7332 49.6234C34.1892 48.7691 35.1648 48.3325 36.1043 48.5624C37.2638 48.8271 38.4802 48.6434 39.5103 48.0482L53.6962 39.8375L51.3332 35.7566L26.0088 50.407C27.3006 52.3416 29.9068 52.8732 31.851 51.5986Z" fill="#CCD2D8"/>
<path d="M51.7656 27.0161L59.0867 39.7178L54.3095 42.4806L46.9884 29.7789L51.7656 27.0161Z" fill="#007DFF"/>
<path d="M70.2702 24.7843C71.7844 27.4115 70.8858 30.7708 68.263 32.2877L56.7468 38.9477L51.2631 29.4337L62.7793 22.7737C65.4021 21.2569 68.7559 22.1571 70.2702 24.7843Z" fill="#007DFF"/>
<rect x="70.1882" y="2.84839" width="1.62963" height="14.7891" fill="#99CBFF"/>
<path d="M76.3394 20.2604L89.127 12.868L89.9416 14.2818L77.1539 21.6742L76.3394 20.2604Z" fill="#99CBFF"/>
<path d="M76.3367 28.3051L77.1515 26.8914L89.9379 34.286L89.1231 35.6996L76.3367 28.3051Z" fill="#99CBFF"/>
</svg>
