<svg width="220" height="218" viewBox="0 0 220 218" fill="none" xmlns="http://www.w3.org/2000/svg">
<path d="M33.7883 62.9116V155.088C33.789 157.453 35.0479 159.639 37.0921 160.824L116.833 206.912C118.877 208.092 121.395 208.092 123.44 206.912L203.181 160.824C205.225 159.639 206.484 157.453 206.485 155.088V62.9116C206.484 60.5466 205.225 58.3611 203.181 57.1759L123.44 11.0877C121.395 9.9076 118.877 9.9076 116.833 11.0877L37.0921 57.1759C35.0479 58.3611 33.789 60.5466 33.7883 62.9116Z" fill="#D0D6DB"/>
<rect x="127.645" y="26.3105" width="60.0683" height="75.1724" rx="2" fill="#B4BDC5"/>
<rect y="82.6899" width="90.1024" height="18.7931" rx="2" fill="#B4BDC5"/>
<rect x="30.0342" y="135.311" width="123.891" height="60.1379" rx="2" fill="#B4BDC5"/>
<rect x="191.468" y="157.862" width="22.5256" height="15.0345" rx="2" fill="#B4BDC5"/>
<rect x="191.468" y="180.414" width="22.5256" height="15.0345" rx="2" fill="#B4BDC5"/>
<rect x="191.468" y="202.966" width="22.5256" height="15.0345" rx="2" fill="#B4BDC5"/>
<ellipse cx="95.7338" cy="46.983" rx="9.38567" ry="9.39655" fill="#B4BDC5"/>
<ellipse cx="69.454" cy="46.983" rx="9.38567" ry="9.39655" fill="#B4BDC5"/>
<ellipse cx="43.174" cy="46.983" rx="9.38567" ry="9.39655" fill="#B4BDC5"/>
<ellipse cx="99.4882" cy="43.2242" rx="9.38567" ry="9.39655" fill="#007DFF"/>
<rect x="98.4443" y="38.0073" width="2.08737" height="10.4414" fill="#99CBFF"/>
<path d="M94.2771 44.269V42.1792H104.706V44.269H94.2771Z" fill="#99CBFF"/>
<ellipse cx="73.2082" cy="43.2242" rx="9.38567" ry="9.39655" fill="#99CBFF"/>
<rect x="72.1646" y="38.0073" width="2.08737" height="10.4414" fill="#007DFF"/>
<path d="M67.9973 44.269V42.1792H78.4267V44.269H67.9973Z" fill="#007DFF"/>
<ellipse cx="46.9284" cy="43.2242" rx="9.38567" ry="9.39655" fill="#99CBFF"/>
<path fill-rule="evenodd" clip-rule="evenodd" d="M38.2572 39.6283C39.7099 36.117 43.1323 33.8276 46.9284 33.8276C52.112 33.8276 56.3141 38.0346 56.3141 43.2242C56.3141 47.0247 54.0273 50.4511 50.5202 51.9055C47.013 53.3599 42.976 52.5559 40.2918 49.8686C37.6075 47.1812 36.8045 43.1395 38.2572 39.6283ZM54.8124 43.2242C54.8124 38.8649 51.2826 35.3311 46.9284 35.3311C42.5759 35.3352 39.0486 38.8667 39.0445 43.2242C39.0445 47.5834 42.5742 51.1173 46.9284 51.1173C51.2826 51.1173 54.8124 47.5834 54.8124 43.2242Z" fill="#007DFF"/>
<rect x="45.8848" y="38.0073" width="2.08737" height="10.4414" fill="#007DFF"/>
<path d="M41.7175 44.269V42.1792H52.1469V44.269H41.7175Z" fill="#007DFF"/>
<path d="M209.098 184.924C207.596 186.251 205.343 186.251 203.842 184.924L195.62 177.723C195.343 178.105 195.193 178.566 195.192 179.038V190.314C195.192 191.56 196.2 192.569 197.444 192.569H215.465C216.709 192.569 217.717 191.56 217.717 190.314V179.038C217.716 178.566 217.566 178.105 217.29 177.723L209.098 184.924Z" fill="white"/>
<path d="M209.098 184.924L217.32 177.723C216.897 177.134 216.219 176.785 215.495 176.783H197.474C196.751 176.785 196.072 177.134 195.65 177.723L203.872 184.924C205.368 186.233 207.601 186.233 209.098 184.924Z" fill="#E0E4E8"/>
<path d="M209.098 207.476C207.596 208.802 205.343 208.802 203.842 207.476L195.62 200.274C195.343 200.657 195.193 201.117 195.192 201.59V212.866C195.192 214.111 196.2 215.121 197.444 215.121H215.465C216.709 215.121 217.717 214.111 217.717 212.866V201.59C217.716 201.117 217.566 200.657 217.29 200.274L209.098 207.476Z" fill="white"/>
<path d="M209.098 207.476L217.32 200.275C216.897 199.686 216.219 199.337 215.495 199.335H197.474C196.751 199.337 196.072 199.686 195.65 200.275L203.872 207.476C205.368 208.785 207.601 208.785 209.098 207.476Z" fill="#E0E4E8"/>
<ellipse cx="215.495" cy="179.038" rx="4.50512" ry="4.51034" fill="#3CCD78"/>
<path d="M209.098 162.244C207.599 163.578 205.341 163.578 203.842 162.244L195.62 155.043C195.354 155.429 195.215 155.889 195.222 156.358V167.634C195.222 168.88 196.23 169.89 197.475 169.89H215.495C216.739 169.89 217.748 168.88 217.748 167.634V156.358C217.746 155.886 217.596 155.426 217.32 155.043L209.098 162.244Z" fill="white"/>
<path d="M209.098 162.245L217.32 155.043C216.897 154.455 216.219 154.105 215.495 154.104H197.474C196.751 154.105 196.072 154.455 195.65 155.043L203.872 162.245C205.366 163.56 207.603 163.56 209.098 162.245Z" fill="#E0E4E8"/>
<ellipse cx="215.495" cy="156.358" rx="4.50512" ry="4.51034" fill="#FF505F"/>
<path d="M35.7883 191.689C34.6838 191.689 33.7883 190.794 33.7883 189.689V133.552C33.7883 132.447 34.6838 131.552 35.7883 131.552H155.679C156.784 131.552 157.679 132.447 157.679 133.552V189.689C157.679 190.794 156.784 191.689 155.679 191.689H35.7883Z" fill="#D3B7EF"/>
<rect x="93.8564" y="97.7241" width="90.1024" height="18.7931" rx="2" transform="rotate(180 93.8564 97.7241)" fill="#99CBFF"/>
<rect x="131.399" y="22.5518" width="60.0683" height="75.1724" rx="2" fill="#FFB9BF"/>
<path d="M47.051 180.414C45.9465 180.414 45.051 179.518 45.051 178.414V122.276C45.051 121.171 45.9465 120.276 47.051 120.276H166.942C168.046 120.276 168.942 121.171 168.942 122.276V178.414C168.942 179.518 168.046 180.414 166.942 180.414H47.051Z" fill="#A76FDF"/>
<path d="M58.314 169.138C57.2094 169.138 56.314 168.242 56.314 167.138L56.314 111C56.314 109.895 57.2094 109 58.314 109H178.205C179.309 109 180.205 109.895 180.205 111V167.138C180.205 168.242 179.309 169.138 178.205 169.138H58.314Z" fill="white"/>
<path d="M124.161 161.621V116.517H172.433V161.621H124.161Z" fill="#D3B7EF"/>
<rect x="63.8225" y="116.517" width="41.2969" height="11.2759" fill="#E0E4E8"/>
<rect x="63.8225" y="131.552" width="48.8055" height="7.51724" fill="#E0E4E8"/>
<rect x="63.8225" y="150.345" width="48.8055" height="11.2759" rx="2" fill="#914BD7"/>
<rect x="142.662" y="11.2759" width="60.0683" height="75.1724" rx="2" fill="#FF969F"/>
<rect x="153.925" width="60.0683" height="75.1724" rx="2" fill="white"/>
<rect x="161.433" y="7.51709" width="28.5324" height="11.2759" fill="#E0E4E8"/>
<rect x="161.433" y="60.1377" width="45.0512" height="7.51724" fill="#E0E4E8"/>
<path d="M183.959 22.5518C174.628 22.5518 167.065 30.1243 167.065 39.4656C167.065 48.8068 174.628 56.3793 183.959 56.3793C193.289 56.3793 200.853 48.8068 200.853 39.4656H183.959V22.5518Z" fill="#FFB9BF"/>
<path d="M183.959 22.5518V39.4656H200.853C200.853 30.1243 193.289 22.5518 183.959 22.5518H183.959Z" fill="#FF505F"/>
<rect x="202.73" y="7.51709" width="7.50853" height="7.51724" fill="#FF505F"/>
<rect x="101.365" y="90.207" width="90.1024" height="18.7931" rx="2" transform="rotate(180 101.365 90.207)" fill="#66B1FF"/>
<rect x="108.874" y="82.6895" width="90.1024" height="18.7931" rx="2" transform="rotate(180 108.874 82.6895)" fill="#007DFF"/>
<ellipse cx="99.4878" cy="73.2932" rx="5.6314" ry="5.63793" fill="#99CBFF"/>
<rect x="22.5254" y="67.6553" width="15.0171" height="1.50345" fill="#F2F2F2"/>
<rect x="22.5254" y="77.4277" width="15.0171" height="1.50345" fill="#F2F2F2"/>
<rect x="22.5254" y="72.5415" width="15.0171" height="1.50345" fill="#F2F2F2"/>
<rect x="45.051" y="67.6553" width="37.5427" height="11.2759" fill="#66B1FF"/>
</svg>
