<svg width="221" height="204" viewBox="0 0 221 204" fill="none" xmlns="http://www.w3.org/2000/svg">
<path d="M23.158 54.624V149.376C23.1587 151.807 24.4529 154.053 26.5545 155.272L108.533 202.648C110.636 203.861 113.224 203.861 115.326 202.648L197.305 155.272C199.407 154.053 200.701 151.807 200.702 149.376V54.624C200.701 52.193 199.407 49.9464 197.305 48.7281L115.326 1.35222C113.224 0.139105 110.636 0.139105 108.533 1.35222L26.5545 48.7281C24.4529 49.9464 23.1587 52.193 23.158 54.624Z" fill="#D0D6DB"/>
<rect x="142.807" y="136.773" width="73.3333" height="65.6818" rx="2" fill="#B4BDC5"/>
<rect x="30.8772" y="136.773" width="46.3158" height="65.6818" rx="2" fill="#B4BDC5"/>
<rect y="32.4546" width="81.0526" height="30.9091" rx="2" fill="#B4BDC5"/>
<rect x="154.386" y="9.27295" width="30.8772" height="15.4545" rx="7.72727" fill="#B4BDC5"/>
<rect x="154.386" y="28.5913" width="30.8772" height="15.4545" rx="7.72727" fill="#B4BDC5"/>
<rect x="54.0352" y="47.9092" width="111.93" height="112.045" rx="10" fill="#B4BDC5"/>
<rect x="189.123" y="20.8638" width="30.8772" height="15.4545" rx="7.72727" transform="rotate(180 189.123 20.8638)" fill="white"/>
<ellipse cx="181.403" cy="13.1364" rx="5.51158" ry="5.51727" fill="#914BD7"/>
<rect x="158.246" y="24.7275" width="30.8772" height="15.4545" rx="7.72727" fill="white"/>
<ellipse cx="165.965" cy="32.4548" rx="5.51158" ry="5.51727" fill="#CCD2D8"/>
<path d="M34.7368 179.273H81.0526V197.046C81.0526 197.899 80.3614 198.591 79.5087 198.591H36.2807C35.428 198.591 34.7368 197.899 34.7368 197.046V179.273Z" fill="white"/>
<path d="M36.2807 132.909H79.5087C80.3614 132.909 81.0526 133.601 81.0526 134.455V179.273H34.7368V134.455C34.7368 133.601 35.428 132.909 36.2807 132.909Z" fill="#914BD7"/>
<rect x="38.5964" y="183.136" width="30.8772" height="7.72727" fill="#E0E4E8"/>
<g style="mix-blend-mode:multiply" opacity="0.15">
<path d="M54.0352 152.227V132.909H81.0527V159.955H61.7545C57.4912 159.955 54.0352 156.495 54.0352 152.227Z" fill="#001E3C"/>
</g>
<rect x="57.8948" y="47.9092" width="108.07" height="108.182" rx="10" fill="#1ED2FF"/>
<path fill-rule="evenodd" clip-rule="evenodd" d="M135.558 88.2918C145.933 91.4677 152.695 96.5909 152.695 102C152.695 107.409 145.964 112.524 135.659 115.7C138.067 126.24 136.987 134.64 132.355 137.337C131.206 137.974 129.909 138.294 128.596 138.264C124.026 138.264 118.043 135.042 111.999 129.416C105.947 135.073 99.9648 138.334 95.3949 138.334C94.0882 138.364 92.7973 138.041 91.6588 137.399C86.9655 134.709 85.9079 126.287 88.3009 115.708C77.9262 112.532 71.1641 107.409 71.1641 102C71.1641 96.5909 77.8953 91.514 88.2314 88.2995C85.823 77.7595 86.8651 69.3599 91.5353 66.6631C92.6858 66.0301 93.982 65.7104 95.2946 65.7359C99.8644 65.7359 105.847 68.9581 111.899 74.5836C117.943 68.9272 123.925 65.6663 128.495 65.6663C129.792 65.6421 131.071 65.9649 132.201 66.6013C136.894 69.2981 137.951 77.7131 135.558 88.2918ZM130.379 69.7927C129.792 69.4909 129.139 69.342 128.48 69.3599V69.3677C125.052 69.3754 119.95 72.1418 114.508 77.149C117.007 79.7619 119.328 82.5397 121.455 85.4636C125.009 85.8366 128.534 86.4433 132.008 87.2795C132.37 85.6027 132.671 83.9336 132.849 82.3881C133.613 76.0363 132.633 71.0909 130.379 69.7927ZM97.209 110.5C97.9809 111.837 98.7528 113.127 99.602 114.364C97.2399 114.016 94.9704 113.591 92.7858 113.05C93.4034 110.902 94.1676 108.692 95.0321 106.482C95.7191 107.865 96.4216 109.194 97.209 110.5ZM99.5788 89.5745C97.209 89.9222 94.9086 90.3704 92.7318 90.8881V90.9113C93.4034 93.0749 94.129 95.3004 95.0321 97.5104C95.7114 96.1813 96.4216 94.8599 97.1858 93.5154C97.95 92.1709 98.7683 90.8572 99.5788 89.5745ZM96.9697 102.039C98.0041 99.8054 99.1697 97.5799 100.412 95.4009C101.655 93.2218 103.037 91.0195 104.419 89.0413C106.897 88.8249 109.405 88.709 111.93 88.709C114.454 88.709 116.947 88.8249 119.41 89.0259C120.784 91.004 122.135 93.1213 123.431 95.3468C124.728 97.5722 125.84 99.7359 126.89 101.969C125.84 104.194 124.69 106.428 123.447 108.607C122.204 110.786 120.822 112.98 119.441 114.959C116.963 115.175 114.454 115.291 111.93 115.291C109.405 115.291 106.912 115.175 104.45 114.974C103.076 112.996 101.725 110.886 100.428 108.653C99.1311 106.42 98.0349 104.318 96.9697 102.062V102.039ZM128.812 106.489C128.132 107.819 127.422 109.171 126.65 110.5C126.218 111.247 125.764 111.992 125.311 112.734C124.963 113.304 124.616 113.873 124.281 114.441C126.658 114.093 128.951 113.645 131.128 113.112C130.47 110.866 129.697 108.656 128.812 106.489ZM126.65 93.4999C125.878 92.1709 125.107 90.8727 124.257 89.6363C126.62 89.984 128.889 90.409 131.074 90.9499C130.456 93.0981 129.692 95.3081 128.827 97.5181C128.14 96.1504 127.415 94.8213 126.635 93.4999H126.65ZM111.93 84.9999C113.474 84.9999 115.017 85.054 116.515 85.1313L116.5 85.1236C115.047 83.2684 113.502 81.4888 111.868 79.7918C110.247 81.4797 108.721 83.2572 107.298 85.1159C108.842 84.9999 110.386 84.9999 111.93 84.9999ZM93.4034 69.8854C93.9909 69.5712 94.6523 69.4217 95.3177 69.4527C98.7606 69.4527 103.863 72.1959 109.274 77.1799C106.802 79.7876 104.509 82.5603 102.412 85.479C98.8567 85.8514 95.3311 86.4659 91.8595 87.3181C91.4813 85.6568 91.1956 84.0418 90.9949 82.4963C90.1767 76.1368 91.1416 71.199 93.4034 69.8854ZM89.1983 112.116L89.2195 112.123H89.1963L89.1983 112.116ZM92.9402 102.031C91.4632 105.303 90.213 108.672 89.1983 112.116C87.5618 111.6 86.0022 111.038 84.5879 110.423C78.6595 107.911 74.877 104.619 74.877 102C74.877 99.3804 78.6827 96.0809 84.5648 93.5849C85.9928 92.9668 87.5599 92.4181 89.1963 91.9004C90.2165 95.3573 91.4672 98.7417 92.9402 102.031ZM95.3949 134.648C94.7401 134.653 94.0937 134.5 93.5114 134.199C91.2574 132.901 90.277 127.964 91.0413 121.604C91.2188 120.059 91.5199 118.397 91.8827 116.713C95.3557 117.553 98.881 118.159 102.435 118.529C104.562 121.453 106.883 124.23 109.382 126.843C103.902 131.889 98.8069 134.648 95.3641 134.648H95.3949ZM111.961 124.184L111.991 124.216H111.93L111.961 124.184ZM111.961 124.184C110.339 122.499 108.803 120.733 107.36 118.892C108.842 119 110.386 119 111.93 119C113.474 119 115.017 119 116.561 118.884C115.125 120.733 113.59 122.503 111.961 124.184ZM130.518 134.13C129.93 134.444 129.269 134.594 128.603 134.563C125.161 134.563 120.058 131.819 114.647 126.835C117.119 124.228 119.412 121.455 121.509 118.536C125.057 118.158 128.575 117.538 132.038 116.682C132.409 118.278 132.697 119.893 132.903 121.519C133.683 127.879 132.718 132.816 130.456 134.13H130.518ZM134.709 112.107C136.346 111.589 137.913 111.041 139.341 110.423H139.302C145.184 107.927 148.982 104.604 148.982 102C148.982 99.3959 145.2 96.104 139.279 93.6159C137.833 92.9977 136.289 92.431 134.648 91.9159C133.646 95.3567 132.414 98.7258 130.958 102C132.436 105.28 133.689 108.657 134.709 112.107Z" fill="white"/>
<ellipse cx="111.914" cy="102.008" rx="7.59579" ry="7.60364" fill="white"/>
<g style="mix-blend-mode:multiply" opacity="0.15">
<path d="M79.5086 63.3638H57.8946V47.9092H81.0525V61.8183C81.0525 62.6718 80.3613 63.3638 79.5086 63.3638Z" fill="#001E3C"/>
</g>
<path d="M5.01751 28.5908H54.0351V59.4999H5.01751C4.37803 59.4999 3.85962 58.981 3.85962 58.3408V29.7499C3.85962 29.1098 4.37803 28.5908 5.01751 28.5908V28.5908Z" fill="white"/>
<path d="M54.0352 28.5908H83.7545C84.3939 28.5908 84.9123 29.1098 84.9123 29.7499V58.3408C84.9123 58.981 84.3939 59.4999 83.7545 59.4999H54.0352V28.5908Z" fill="#007DFF"/>
<rect x="7.71924" y="32.4546" width="23.1579" height="7.72727" fill="#CCD2D8"/>
<rect x="7.71924" y="44.0454" width="42.4561" height="11.5909" fill="#E0E4E8"/>
<g style="mix-blend-mode:multiply" opacity="0.15">
<path d="M144.351 136.773H165.965V156.091H142.807V138.318C142.807 137.465 143.498 136.773 144.351 136.773Z" fill="#001E3C"/>
</g>
<rect x="146.667" y="132.909" width="73.3333" height="65.6818" rx="2" fill="white"/>
<rect x="150.526" y="136.773" width="47.4737" height="11.5909" fill="#E0E4E8"/>
<rect x="212.281" y="167.682" width="30.8772" height="7.72727" transform="rotate(-180 212.281 167.682)" fill="#007DFF"/>
<rect x="212.281" y="179.273" width="42.4561" height="7.72727" transform="rotate(-180 212.281 179.273)" fill="#007DFF"/>
<rect x="212.281" y="190.864" width="23.1579" height="7.72727" transform="rotate(-180 212.281 190.864)" fill="#007DFF"/>
<rect x="185.263" y="167.682" width="30.8772" height="7.72727" transform="rotate(-180 185.263 167.682)" fill="#66B1FF"/>
<rect x="173.684" y="179.273" width="19.2982" height="7.72727" transform="rotate(-180 173.684 179.273)" fill="#66B1FF"/>
<rect x="192.982" y="190.864" width="38.5965" height="7.72727" transform="rotate(-180 192.982 190.864)" fill="#66B1FF"/>
<ellipse cx="212.281" cy="140.637" rx="3.85965" ry="3.86364" fill="#CCD2D8"/>
<rect x="146.667" y="151.455" width="73.3333" height="1.54545" fill="#CCD2D8"/>
<path d="M135.86 40.1819H134.316C134.316 31.2198 141.573 23.9546 150.526 23.9546V25.5C146.636 25.5 142.906 27.0469 140.155 29.8002C137.405 32.5536 135.86 36.288 135.86 40.1819Z" fill="#66788A"/>
<path d="M209.193 125.182H207.649C207.628 106.413 192.434 91.203 173.684 91.1817V89.6362C193.284 89.6618 209.167 105.561 209.193 125.182Z" fill="#66788A"/>
<path d="M88.772 180.046V178.5C92.6618 178.5 96.3923 176.953 99.1429 174.2C101.893 171.447 103.439 167.712 103.439 163.818H104.982C104.982 172.78 97.7248 180.046 88.772 180.046Z" fill="#66788A"/>
<path d="M50.1754 87.3184C39.0909 87.3184 30.1052 78.3234 30.1052 67.2275H31.6491C31.6491 77.4699 39.9436 85.773 50.1754 85.773V87.3184Z" fill="#66788A"/>
</svg>
