<svg width="220" height="211" viewBox="0 0 220 211" fill="none" xmlns="http://www.w3.org/2000/svg">
<path d="M16 56.4983V154.501C16.0007 157.016 17.342 159.34 19.52 160.6L104.48 209.601C106.659 210.856 109.341 210.856 111.52 209.601L196.48 160.6C198.658 159.34 199.999 157.016 200 154.501V56.4983C199.999 53.9839 198.658 51.6602 196.48 50.4001L111.52 1.39857C109.341 0.143835 106.659 0.143835 104.48 1.39857L19.52 50.4001C17.342 51.6602 16.0007 53.9839 16 56.4983Z" fill="#D0D6DB"/>
<rect x="48" y="53.5493" width="112" height="111.894" rx="10" fill="#B4BDC5"/>
<rect x="108" y="17.5835" width="108" height="71.9318" rx="2" fill="#B4BDC5"/>
<rect x="24" y="33.5684" width="60" height="31.9697" rx="2" fill="#B4BDC5"/>
<rect y="133.474" width="100" height="59.9432" rx="2" fill="#B4BDC5"/>
<rect x="144" y="177.432" width="60" height="15.9848" rx="7.99242" fill="#B4BDC5"/>
<rect x="148" y="173.436" width="60" height="15.9848" rx="7.99242" fill="#007DFF"/>
<ellipse cx="156" cy="181.428" rx="4" ry="3.99621" fill="#CCE5FF"/>
<rect x="164.8" y="177.432" width="35.2" height="7.99242" fill="#66B1FF"/>
<path d="M4 187.822L4 141.466H104V187.822C104 188.705 103.284 189.42 102.4 189.42H5.6C4.71634 189.42 4 188.705 4 187.822Z" fill="#001E3C"/>
<rect x="12" y="149.458" width="52" height="7.99242" fill="#FFC846"/>
<rect x="12" y="173.436" width="28" height="7.99242" fill="#334B63"/>
<rect x="44" y="173.436" width="32" height="7.99242" fill="#FF505F"/>
<rect x="12" y="161.447" width="84" height="7.99242" fill="#3CCD78"/>
<path d="M5.6 129.477H102.4C103.284 129.477 104 130.193 104 131.076V141.466H4V131.076C4 130.193 4.71634 129.477 5.6 129.477Z" fill="#007DFF"/>
<ellipse cx="98" cy="135.471" rx="2" ry="1.99811" fill="#66B1FF"/>
<ellipse cx="90" cy="135.471" rx="2" ry="1.99811" fill="#66B1FF"/>
<ellipse cx="82" cy="135.471" rx="2" ry="1.99811" fill="#66B1FF"/>
<path d="M112 83.9201V25.5754L220 25.5754V83.9201C220 84.8029 219.284 85.5186 218.4 85.5186H113.6C112.716 85.5186 112 84.8029 112 83.9201Z" fill="#001E3C"/>
<rect x="120" y="33.5679" width="56" height="7.99242" fill="#3CCD78"/>
<rect x="120" y="57.5454" width="56" height="7.99242" fill="#3CCD78"/>
<rect x="180" y="57.5454" width="32" height="7.99242" fill="#FFC846"/>
<rect x="120" y="69.5337" width="84" height="7.99242" fill="#FF505F"/>
<rect x="120" y="45.5566" width="92" height="7.99242" fill="#334B63"/>
<path d="M113.6 13.5869H218.4C219.284 13.5869 220 14.3026 220 15.1854V25.5756H112V15.1854C112 14.3026 112.716 13.5869 113.6 13.5869Z" fill="#007DFF"/>
<ellipse cx="214" cy="19.5811" rx="2" ry="1.99811" fill="#66B1FF"/>
<ellipse cx="206" cy="19.5811" rx="2" ry="1.99811" fill="#66B1FF"/>
<ellipse cx="198" cy="19.5811" rx="2" ry="1.99811" fill="#66B1FF"/>
<g style="mix-blend-mode:multiply" opacity="0.15">
<path d="M48 157.45V129.477H104V165.443H56C51.5817 165.443 48 161.865 48 157.45Z" fill="#001E3C"/>
</g>
<rect x="52" y="49.5527" width="112" height="111.894" rx="10" fill="#007DFF"/>
<path fill-rule="evenodd" clip-rule="evenodd" d="M120.856 137.414V147.964C122.78 148.911 124.83 149.576 126.944 149.938C129.39 150.388 131.873 150.61 134.36 150.601C136.779 150.609 139.192 150.365 141.56 149.874C143.688 149.449 145.719 148.636 147.552 147.476C149.253 146.385 150.655 144.888 151.632 143.12C153.385 139.469 153.615 135.272 152.272 131.451C151.71 130.022 150.87 128.718 149.8 127.615C148.651 126.435 147.346 125.419 145.92 124.594C144.277 123.641 142.572 122.8 140.816 122.076C139.432 121.501 138.192 120.949 137.088 120.406C136.107 119.937 135.168 119.386 134.28 118.759C133.586 118.274 132.982 117.671 132.496 116.977C132.078 116.347 131.861 115.606 131.872 114.851C131.862 114.158 132.056 113.476 132.432 112.893C132.843 112.277 133.391 111.763 134.032 111.39C134.813 110.936 135.661 110.607 136.544 110.415C137.629 110.179 138.737 110.063 139.848 110.072C140.779 110.074 141.71 110.141 142.632 110.271C144.65 110.538 146.619 111.093 148.48 111.918C149.388 112.319 150.256 112.806 151.072 113.373V103.518C149.368 102.878 147.601 102.42 145.8 102.151C143.631 101.835 141.44 101.686 139.248 101.704C136.849 101.69 134.456 101.959 132.12 102.503C130.009 102.986 128.002 103.841 126.192 105.028C124.53 106.147 123.158 107.646 122.192 109.4C121.156 111.352 120.643 113.538 120.704 115.746C120.631 118.663 121.594 121.512 123.424 123.787C125.243 126.009 128 127.887 131.696 129.421C133.152 130.023 134.507 130.607 135.76 131.172C136.889 131.677 137.976 132.273 139.008 132.954C139.839 133.496 140.572 134.174 141.176 134.96C141.704 135.677 141.985 136.547 141.976 137.438C141.979 138.102 141.808 138.755 141.48 139.332C141.109 139.952 140.593 140.473 139.976 140.85C139.198 141.317 138.35 141.655 137.464 141.85C136.312 142.113 135.133 142.236 133.952 142.217C131.632 142.213 129.331 141.805 127.152 141.01C124.873 140.191 122.76 138.97 120.912 137.406L120.856 137.414ZM103.104 111.414H116.648V102.759H78.8879V111.414H92.3679V149.962H103.104V111.414Z" fill="white"/>
<g style="mix-blend-mode:multiply" opacity="0.15">
<path d="M52 65.5376V49.5527H92V63.9391C92 64.8219 91.2837 65.5376 90.4 65.5376H52Z" fill="#001E3C"/>
</g>
<rect x="28" y="29.5718" width="68" height="31.9697" rx="2" fill="white"/>
<rect x="72" y="49.5527" width="20" height="7.99242" rx="1" fill="#007DFF"/>
<rect x="48" y="49.5527" width="20" height="7.99242" rx="1" fill="#66B1FF"/>
<rect x="32" y="33.5679" width="60" height="11.9886" fill="#E0E4E8"/>
</svg>
