<svg width="18" height="21" viewBox="0 0 18 21" fill="none" xmlns="http://www.w3.org/2000/svg">
<path fill-rule="evenodd" clip-rule="evenodd" d="M3 0.904297V2.91377H2C0.9 2.91377 0 3.81803 0 4.92325V18.9896C0 20.0948 0.9 20.999 2 20.999H16C17.1 20.999 18 20.0948 18 18.9896V4.92325C18 3.81803 17.1 2.91377 16 2.91377H15V0.904297H13V2.91377H5V0.904297H3ZM2 7.93746H16V18.9896H2V7.93746ZM5.5 9.94693C4.13094 9.94693 3 11.0832 3 12.4588V12.9611H5V12.4588C5 12.1705 5.21306 11.9564 5.5 11.9564C5.78694 11.9564 6 12.1705 6 12.4588C6 12.7179 5.65259 13.521 5.08203 14.2661C4.51147 15.0113 3.79137 15.7369 3.31445 16.1873L3 16.4856V17.9848H8V15.9754H6.22266C6.38128 15.789 6.51545 15.6898 6.66797 15.4906C7.34741 14.6033 8 13.6475 8 12.4588C8 11.0832 6.86906 9.94693 5.5 9.94693ZM10 9.94693V11.9564H11.5977L11 12.5314V13.7971L11.6953 14.0208C11.6953 14.0208 12.0425 14.1389 12.3945 14.4074C12.7466 14.676 13 14.9716 13 15.473C13 15.7613 12.7869 15.9754 12.5 15.9754C12.2131 15.9754 12 15.7613 12 15.473V14.9706H10V15.473C10 16.8485 11.1309 17.9848 12.5 17.9848C13.8691 17.9848 15 16.8485 15 15.473C15 14.2097 14.2532 13.3025 13.6055 12.8081L15 11.4658V9.94693H10Z" fill="#007FFF"/>
</svg>
