<svg width="21" height="21" viewBox="0 0 21 21" fill="none" xmlns="http://www.w3.org/2000/svg">
<path fill-rule="evenodd" clip-rule="evenodd" d="M10 0.123169C4.486 0.123169 0 4.63042 0 10.1705C0 15.7107 4.486 20.2179 10 20.2179C15.514 20.2179 20 15.7107 20 10.1705C20 9.03921 19.804 7.95429 19.459 6.9385L17.8398 8.56531C17.9448 9.08376 18 9.62095 18 10.1705C18 14.6024 14.411 18.2084 10 18.2084C5.589 18.2084 2 14.6024 2 10.1705C2 5.73864 5.589 2.13264 10 2.13264C11.633 2.13264 13.1519 2.62887 14.4199 3.47687L15.8516 2.03845C14.2036 0.838793 12.185 0.123169 10 0.123169ZM19.293 1.42226L9 11.764L5.70703 8.45542L4.29297 9.87618L9 14.6055L20.707 2.84302L19.293 1.42226Z" fill="#007FFF"/>
</svg>
