<svg width="32" height="32" viewBox="0 0 32 32" fill="none" xmlns="http://www.w3.org/2000/svg">
<path fill-rule="evenodd" clip-rule="evenodd" d="M13.3333 2.66663C11.5947 2.66663 10.1288 3.78263 9.57812 5.33329H6.66667C5.19333 5.33329 4 6.52663 4 7.99996V22.6666C4 24.14 5.19333 25.3333 6.66667 25.3333H12V28V30.6666H14.6667H17.3333V28H14.6667V25.3333H20C21.4733 25.3333 22.6667 24.14 22.6667 22.6666V17.3333H25.3333V20H28V17.3333V14.6666H25.3333H22.6667V7.99996C22.6667 6.52663 21.4733 5.33329 20 5.33329H17.0885C16.5379 3.78263 15.072 2.66663 13.3333 2.66663ZM13.3333 5.33329C14.0693 5.33329 14.6667 5.93063 14.6667 6.66663C14.6667 7.40263 14.0693 7.99996 13.3333 7.99996C12.5973 7.99996 12 7.40263 12 6.66663C12 5.93063 12.5973 5.33329 13.3333 5.33329ZM12 14.6666H14.6667H17.3333V17.3333H14.6667V20H12V17.3333V14.6666ZM25.3333 25.3333V28H22.6667V30.6666H25.3333H28V28V25.3333H25.3333Z" fill="white"/>
</svg>
