<svg xmlns="http://www.w3.org/2000/svg" viewBox="0 0 420 420"><defs><style>.cls-1{fill:#d0d6db;}.cls-2{fill:#b4bdc5;}.cls-3{fill:#007dff;}.cls-4{fill:#99cbff;}.cls-5{fill:#fff;}.cls-6{fill:#e0e4e8;}.cls-7{fill:#3ccd78;}.cls-8{fill:#ff505f;}.cls-9{fill:#d3b7ef;}.cls-10{fill:#ffb9bf;}.cls-11{fill:#a76fdf;}.cls-12{fill:#914bd7;}.cls-13{fill:#ff969f;}.cls-14{fill:#66b1ff;}.cls-15{fill:#f2f2f2;}</style></defs><g id="Layer_4" data-name="Layer 4"><path class="cls-1" d="M95,148.69V271.31a8.82,8.82,0,0,0,4.4,7.63l106.2,61.31a8.81,8.81,0,0,0,8.8,0l106.2-61.31a8.82,8.82,0,0,0,4.4-7.63V148.69a8.82,8.82,0,0,0-4.4-7.63L214.4,79.75a8.81,8.81,0,0,0-8.8,0L99.4,141.06A8.82,8.82,0,0,0,95,148.69Z"/></g><g id="Shadows"><rect class="cls-2" x="220" y="100" width="80" height="100" rx="2"/><rect class="cls-2" x="50" y="175" width="120" height="25" rx="2"/><rect class="cls-2" x="90" y="245" width="165" height="80" rx="2"/><rect class="cls-2" x="305" y="275" width="30" height="20" rx="2"/><rect class="cls-2" x="305" y="305" width="30" height="20" rx="2"/><rect class="cls-2" x="305" y="335" width="30" height="20" rx="2"/><circle class="cls-2" cx="177.5" cy="127.5" r="12.5"/><circle class="cls-2" cx="142.5" cy="127.5" r="12.5"/><circle class="cls-2" cx="107.5" cy="127.5" r="12.5"/></g><g id="Layer_1" data-name="Layer 1"><circle class="cls-3" cx="182.5" cy="122.5" r="12.5"/><rect class="cls-4" x="181.11" y="115.56" width="2.78" height="13.89"/><rect class="cls-4" x="181.11" y="115.56" width="2.78" height="13.89" transform="translate(60 305) rotate(-90)"/><circle class="cls-4" cx="147.5" cy="122.5" r="12.5"/><rect class="cls-3" x="146.11" y="115.56" width="2.78" height="13.89"/><rect class="cls-3" x="146.11" y="115.56" width="2.78" height="13.89" transform="translate(25 270) rotate(-90)"/><circle class="cls-4" cx="112.5" cy="122.5" r="12.5"/><path class="cls-3" d="M112.5,112A10.5,10.5,0,1,1,102,122.5,10.51,10.51,0,0,1,112.5,112m0-2A12.5,12.5,0,1,0,125,122.5,12.5,12.5,0,0,0,112.5,110Z"/><rect class="cls-3" x="111.11" y="115.56" width="2.78" height="13.89"/><rect class="cls-3" x="111.11" y="115.56" width="2.78" height="13.89" transform="translate(-10 235) rotate(-90)"/><path class="cls-5" d="M328.48,311a5.29,5.29,0,0,1-7,0l-10.95-9.58a3,3,0,0,0-.57,1.75v15a3,3,0,0,0,3,3h24a3,3,0,0,0,3-3v-15a3,3,0,0,0-.57-1.75Z"/><path class="cls-6" d="M328.48,311l10.95-9.58a3,3,0,0,0-2.43-1.25H313a3,3,0,0,0-2.43,1.25L321.52,311A5.29,5.29,0,0,0,328.48,311Z"/><path class="cls-5" d="M328.48,341a5.29,5.29,0,0,1-7,0l-10.95-9.58a3,3,0,0,0-.57,1.75v15a3,3,0,0,0,3,3h24a3,3,0,0,0,3-3v-15a3,3,0,0,0-.57-1.75Z"/><path class="cls-6" d="M328.48,341l10.95-9.58a3,3,0,0,0-2.43-1.25H313a3,3,0,0,0-2.43,1.25L321.52,341A5.29,5.29,0,0,0,328.48,341Z"/><circle class="cls-7" cx="337" cy="303.17" r="6"/><path class="cls-5" d="M328.48,280.83a5.27,5.27,0,0,1-7,0l-10.95-9.58A3,3,0,0,0,310,273v15a3,3,0,0,0,3,3h24a3,3,0,0,0,3-3V273a3,3,0,0,0-.57-1.75Z"/><path class="cls-6" d="M328.48,280.83l10.95-9.58A3,3,0,0,0,337,270H313a3,3,0,0,0-2.43,1.25l10.95,9.58A5.27,5.27,0,0,0,328.48,280.83Z"/><circle class="cls-8" cx="337" cy="273" r="6"/></g><g id="Layer_5" data-name="Layer 5"><rect class="cls-9" x="137.5" y="197.5" width="80" height="165" rx="2" transform="translate(-102.5 457.5) rotate(-90)"/><rect class="cls-4" x="55" y="170" width="120" height="25" rx="2" transform="translate(230 365) rotate(180)"/><rect class="cls-10" x="225" y="95" width="80" height="100" rx="2"/><rect class="cls-11" x="152.5" y="182.5" width="80" height="165" rx="2" transform="translate(-72.5 457.5) rotate(-90)"/><rect class="cls-5" x="167.5" y="167.5" width="80" height="165" rx="2" transform="translate(-42.5 457.5) rotate(-90)"/><rect class="cls-9" x="217.5" y="217.86" width="60" height="64.29" transform="translate(-2.5 497.5) rotate(-90)"/><rect class="cls-6" x="135" y="220" width="55" height="15"/><rect class="cls-6" x="135" y="240" width="65" height="10"/><rect class="cls-12" x="135" y="265" width="65" height="15" rx="2"/><rect class="cls-13" x="240" y="80" width="80" height="100" rx="2"/><rect class="cls-5" x="255" y="65" width="80" height="100" rx="2"/><rect class="cls-6" x="265" y="75" width="38" height="15"/><rect class="cls-6" x="265" y="145" width="60" height="10"/><path class="cls-10" d="M295,95a22.5,22.5,0,1,0,22.5,22.5H295Z"/><path class="cls-8" d="M295,95v22.5h22.5A22.5,22.5,0,0,0,295,95Z"/><rect class="cls-8" x="320" y="75" width="10" height="10"/><rect class="cls-14" x="65" y="160" width="120" height="25" rx="2" transform="translate(250 345) rotate(180)"/><rect class="cls-3" x="75" y="150" width="120" height="25" rx="2" transform="translate(270 325) rotate(180)"/><circle class="cls-4" cx="182.5" cy="162.5" r="7.5"/><rect class="cls-15" x="80" y="155" width="20" height="2"/><rect class="cls-15" x="80" y="168" width="20" height="2"/><rect class="cls-15" x="80" y="161.5" width="20" height="2"/><rect class="cls-14" x="110" y="155" width="50" height="15"/></g></svg>