<svg xmlns="http://www.w3.org/2000/svg" viewBox="0 0 420 420"><defs><style>.cls-1{isolation:isolate;}.cls-2{fill:#d0d6db;}.cls-3{fill:#b4bdc5;}.cls-4{fill:#cce5ff;}.cls-5{fill:#007dff;}.cls-6{fill:#99cbff;}.cls-7{fill:#fff;}.cls-8{fill:#e0e4e8;}.cls-9{fill:#66b1ff;}.cls-10{fill:#ccd2d8;}.cls-11{fill:#1ed2ff;}.cls-12{fill:#ffc846;}.cls-13{fill:#001e3c;opacity:0.15;mix-blend-mode:multiply;}</style></defs><g class="cls-1"><g id="Layer_4" data-name="Layer 4"><path class="cls-2" d="M95,148.69V271.31a8.82,8.82,0,0,0,4.4,7.63l106.2,61.31a8.81,8.81,0,0,0,8.8,0l106.2-61.31a8.82,8.82,0,0,0,4.4-7.63V148.69a8.82,8.82,0,0,0-4.4-7.63L214.4,79.75a8.81,8.81,0,0,0-8.8,0L99.4,141.06A8.82,8.82,0,0,0,95,148.69Z"/></g><g id="Shadows"><rect class="cls-3" x="75" y="100" width="50" height="155" rx="2"/><rect class="cls-3" x="140" y="185" width="50" height="15" rx="2"/><rect class="cls-3" x="140" y="160" width="50" height="15" rx="2"/><rect class="cls-3" x="140" y="210" width="105" height="100" rx="2"/><rect class="cls-3" x="220" y="155" width="95" height="100" rx="2"/><rect class="cls-3" x="260" y="270" width="80" height="80" rx="2"/><rect class="cls-3" x="215" y="125" width="120" height="5" rx="2.5"/></g><g id="Layer_1" data-name="Layer 1"><circle class="cls-4" cx="300" cy="125" r="12.5"/><path class="cls-5" d="M212.5,122.5H300a0,0,0,0,1,0,0v5a0,0,0,0,1,0,0H212.5A2.5,2.5,0,0,1,210,125v0A2.5,2.5,0,0,1,212.5,122.5Z"/><path class="cls-6" d="M300,122.5h27.5A2.5,2.5,0,0,1,330,125v0a2.5,2.5,0,0,1-2.5,2.5H300a0,0,0,0,1,0,0v-5A0,0,0,0,1,300,122.5Z"/><circle class="cls-5" cx="300" cy="125" r="7.5"/><rect class="cls-7" x="215" y="150" width="95" height="100" rx="2"/><rect class="cls-8" x="220" y="155" width="61.5" height="15"/><rect class="cls-5" x="260" y="185" width="40" height="10" transform="translate(560 380) rotate(-180)"/><rect class="cls-5" x="245" y="200" width="55" height="10" transform="translate(545 410) rotate(-180)"/><rect class="cls-5" x="270" y="215" width="30" height="10" transform="translate(570 440) rotate(-180)"/><rect class="cls-9" x="225" y="185" width="40" height="10" transform="translate(490 380) rotate(-180)"/><rect class="cls-9" x="225" y="200" width="25" height="10" transform="translate(475 410) rotate(-180)"/><rect class="cls-9" x="225" y="215" width="50" height="10" transform="translate(500 440) rotate(-180)"/><rect class="cls-5" x="250" y="230" width="50" height="10" transform="translate(550 470) rotate(-180)"/><rect class="cls-9" x="225" y="230" width="30" height="10" transform="translate(480 470) rotate(-180)"/><circle class="cls-10" cx="300" cy="160" r="5"/><rect class="cls-10" x="215" y="174" width="95" height="2"/></g><g id="Layer_5" data-name="Layer 5"><path class="cls-3" d="M159.1,113.37a6.74,6.74,0,0,0-9.2-2.47l-12.38,7.15-1.13-2-5.87,3.39,1.59,2.75-16.57,9.57a5.79,5.79,0,0,0-2.64,3.3,2.61,2.61,0,0,1-2.58,1.87,5.87,5.87,0,0,0-3.25.79,4.91,4.91,0,1,0,4.88,8.45,5.83,5.83,0,0,0,2.31-2.42,2.6,2.6,0,0,1,2.91-1.3,5.79,5.79,0,0,0,4.18-.63l16.57-9.57,1.59,2.75,5.87-3.38-1.13-2,12.38-7.15A6.73,6.73,0,0,0,159.1,113.37Z"/><path class="cls-7" d="M25,155H163a2,2,0,0,1,2,2v46a2,2,0,0,1-2,2H25a0,0,0,0,1,0,0V155A0,0,0,0,1,25,155Z" transform="translate(275 85) rotate(90)"/><rect class="cls-5" x="75" y="115" width="40" height="40" transform="translate(230 40) rotate(90)"/><rect class="cls-11" x="75" y="160" width="40" height="40" transform="translate(275 85) rotate(90)"/><rect class="cls-12" x="75" y="205" width="40" height="40" transform="translate(320 130) rotate(90)"/><path class="cls-5" d="M72,95h46a2,2,0,0,1,2,2v13a0,0,0,0,1,0,0H70a0,0,0,0,1,0,0V97a2,2,0,0,1,2-2Z"/><circle class="cls-9" cx="112.5" cy="102.5" r="2.5"/><circle class="cls-9" cx="102.5" cy="102.5" r="2.5"/><circle class="cls-9" cx="92.5" cy="102.5" r="2.5"/><path class="cls-13" d="M215,210h30a0,0,0,0,1,0,0v40a0,0,0,0,1,0,0H217a2,2,0,0,1-2-2V210A0,0,0,0,1,215,210Z" transform="translate(460 460) rotate(-180)"/><path class="cls-5" d="M137,205H238a2,2,0,0,1,2,2v18a0,0,0,0,1,0,0H135a0,0,0,0,1,0,0V207A2,2,0,0,1,137,205Z"/><rect class="cls-9" x="140" y="210" width="70" height="10"/><path class="cls-7" d="M135,225H240a0,0,0,0,1,0,0v78a2,2,0,0,1-2,2H137a2,2,0,0,1-2-2V225A0,0,0,0,1,135,225Z"/><rect class="cls-8" x="140" y="250" width="70" height="10"/><rect class="cls-8" x="140" y="230" width="70" height="10"/><rect class="cls-8" x="140" y="290" width="70" height="10"/><rect class="cls-4" x="135" y="265" width="105" height="20"/><rect class="cls-6" x="140" y="270" width="70" height="10"/><polygon class="cls-9" points="235 210 227.5 220 220 210 235 210"/><rect class="cls-5" x="255" y="265" width="80" height="80" rx="2"/><path class="cls-7" d="M264.82,323.88l14.12-38.44h4.8l14.12,38.44H293L289.11,313H273.57l-3.87,10.88Zm22.83-15-6.16-17.34h-.3L275,308.86Z"/><path class="cls-7" d="M302,315.7c0-6.61,5.84-7.79,11.19-8.48s7.43-.49,7.43-2.63v-.15c0-3.7-2-5.86-6.08-5.86-4.23,0-6.53,2.25-7.51,4.36l-4.2-1.51c2.25-5.25,7.2-6.75,11.56-6.75,3.68,0,10.66,1.05,10.66,10.21v19h-4.43V320h-.22c-.9,1.88-3.54,4.58-8.57,4.58C306.3,324.56,302,321.33,302,315.7Zm18.62-2.25v-4.06c-.75.9-5.78,1.43-7.66,1.65-3.45.46-6.53,1.51-6.53,4.89,0,3.08,2.55,4.65,6.08,4.65C317.72,320.58,320.57,317.05,320.57,313.45Z"/><rect class="cls-5" x="135" y="180" width="50" height="15" rx="2"/><rect class="cls-9" x="140" y="185" width="40" height="5"/><rect class="cls-9" x="135" y="155" width="50" height="15" rx="2"/><rect class="cls-5" x="140" y="160" width="40" height="5"/><path class="cls-13" d="M120,133.39h-1.94a5.78,5.78,0,0,0-3.94,1.54,2.6,2.6,0,0,1-3.17.32,5.84,5.84,0,0,0-3.21-.93c-3,0-5.46,2.18-5.46,4.87a5.19,5.19,0,0,0,5.46,4.88,5.85,5.85,0,0,0,3.21-.94,2.6,2.6,0,0,1,3.17.33,5.78,5.78,0,0,0,3.94,1.54H120Z"/><path class="cls-8" d="M130.1,116.75l-17.42,10.06a5.79,5.79,0,0,0-2.64,3.3,2.61,2.61,0,0,1-2.58,1.87,5.87,5.87,0,0,0-3.25.79,5.2,5.2,0,0,0-2.29,7L133,121.78Z"/><path class="cls-10" d="M109.09,141.22a5.83,5.83,0,0,0,2.31-2.42,2.6,2.6,0,0,1,2.91-1.3,5.79,5.79,0,0,0,4.18-.63l17.41-10.06-2.9-5-31.08,17.95A5.2,5.2,0,0,0,109.09,141.22Z"/><rect class="cls-5" x="126.1" y="117.19" width="17.97" height="6.77" transform="translate(171.97 -56.7) rotate(60)"/><path class="cls-5" d="M146.25,102.6h0a6.73,6.73,0,0,1,6.73,6.73v16.32a0,0,0,0,1,0,0H139.52a0,0,0,0,1,0,0V109.33A6.73,6.73,0,0,1,146.25,102.6Z" transform="translate(171.97 -69.59) rotate(60)"/><rect class="cls-6" x="156.14" y="81.49" width="2" height="18.12"/><rect class="cls-6" x="162.98" y="98.15" width="18.12" height="2" transform="translate(-26.53 99.28) rotate(-29.99)"/><rect class="cls-6" x="171.04" y="107.29" width="2" height="18.12" transform="translate(-14.75 207.16) rotate(-60)"/></g></g></svg>