<svg xmlns="http://www.w3.org/2000/svg" viewBox="0 0 420 420"><defs><style>.cls-1{isolation:isolate;}.cls-2{fill:#d0d6db;}.cls-3{fill:#b4bdc5;}.cls-4{fill:#cce5ff;}.cls-5{fill:#007dff;}.cls-6{fill:#99cbff;}.cls-7{fill:#66b1ff;}.cls-15,.cls-8{fill:#001e3c;}.cls-9{fill:#3ccd78;}.cls-10{fill:#ffc846;}.cls-11{fill:#334b63;}.cls-12{fill:#ff505f;}.cls-13{fill:#fff;}.cls-14{fill:#e0e4e8;}.cls-15{opacity:0.15;mix-blend-mode:multiply;}.cls-16{fill:#ccd2d8;}</style></defs><g class="cls-1"><g id="Layer_4" data-name="Layer 4"><path class="cls-2" d="M95,148.69V271.31a8.82,8.82,0,0,0,4.4,7.63l106.2,61.31a8.81,8.81,0,0,0,8.8,0l106.2-61.31a8.82,8.82,0,0,0,4.4-7.63V148.69a8.82,8.82,0,0,0-4.4-7.63L214.4,79.75a8.81,8.81,0,0,0-8.8,0L99.4,141.06A8.82,8.82,0,0,0,95,148.69Z"/></g><g id="Shadows"><rect class="cls-3" x="115" y="155" width="135" height="180" rx="2"/><rect class="cls-3" x="75" y="100" width="90" height="40" rx="2"/><rect class="cls-3" x="180" y="95" width="135" height="180" rx="2"/><rect class="cls-3" x="265" y="290" width="80" height="20" rx="10"/><rect class="cls-3" x="265" y="320" width="80" height="20" rx="10"/></g><g id="Layer_1" data-name="Layer 1"><rect class="cls-4" x="260" y="285" width="80" height="20" rx="10"/><circle class="cls-5" cx="270" cy="295" r="5"/><rect class="cls-6" x="281" y="290" width="49" height="10"/><rect class="cls-5" x="260" y="315" width="80" height="20" rx="10"/><circle class="cls-4" cx="270" cy="325" r="5"/><rect class="cls-7" x="281" y="320" width="49" height="10"/></g><g id="Layer_5" data-name="Layer 5"><path class="cls-8" d="M162,120H325a0,0,0,0,1,0,0V255a0,0,0,0,1,0,0H162a2,2,0,0,1-2-2V122A2,2,0,0,1,162,120Z" transform="translate(55 430) rotate(-90)"/><rect class="cls-9" x="185" y="115" width="70" height="10"/><rect class="cls-9" x="185" y="165" width="85" height="10"/><rect class="cls-10" x="185" y="215" width="115" height="10"/><rect class="cls-11" x="185" y="230" width="100" height="30"/><rect class="cls-12" x="185" y="180" width="105" height="30"/><rect class="cls-11" x="185" y="130" width="115" height="30"/><path class="cls-5" d="M177,90H308a2,2,0,0,1,2,2v13a0,0,0,0,1,0,0H175a0,0,0,0,1,0,0V92a2,2,0,0,1,2-2Z"/><circle class="cls-7" cx="302.5" cy="97.5" r="2.5"/><circle class="cls-7" cx="292.5" cy="97.5" r="2.5"/><circle class="cls-7" cx="282.5" cy="97.5" r="2.5"/><rect class="cls-13" x="70" y="95" width="90" height="40" rx="2"/><rect class="cls-5" x="130" y="120" width="25" height="10" rx="1"/><rect class="cls-7" x="100" y="120" width="25" height="10" rx="1"/><rect class="cls-14" x="75" y="100" width="80" height="15"/><path class="cls-15" d="M175,155h75a0,0,0,0,1,0,0V270a0,0,0,0,1,0,0H177a2,2,0,0,1-2-2V155a0,0,0,0,1,0,0Z" transform="translate(425 425) rotate(-180)"/><path class="cls-13" d="M105,190H285a0,0,0,0,1,0,0v98a2,2,0,0,1-2,2H107a2,2,0,0,1-2-2V190A0,0,0,0,1,105,190Z" transform="translate(-45 435) rotate(-90)"/><path class="cls-5" d="M112,150h33a0,0,0,0,1,0,0V330a0,0,0,0,1,0,0H112a2,2,0,0,1-2-2V152A2,2,0,0,1,112,150Z"/><rect class="cls-14" x="155" y="160" width="35" height="10"/><rect class="cls-7" x="115" y="160" width="25" height="10"/><rect class="cls-7" x="115" y="220" width="25" height="10"/><rect class="cls-7" x="115" y="235" width="25" height="10"/><rect class="cls-7" x="120" y="175" width="20" height="40"/><rect class="cls-7" x="120" y="250" width="20" height="40"/><rect class="cls-14" x="155" y="220" width="35" height="10"/><rect class="cls-14" x="155" y="175" width="75" height="35"/><rect class="cls-14" x="155" y="235" width="75" height="35"/><rect class="cls-14" x="155" y="275" width="75" height="50"/><rect class="cls-16" x="235" y="175" width="5" height="70" rx="2.5"/><rect class="cls-16" x="160" y="240" width="65" height="25"/></g></g></svg>