<svg width="32" height="32" viewBox="0 0 32 32" fill="none" xmlns="http://www.w3.org/2000/svg">
<path fill-rule="evenodd" clip-rule="evenodd" d="M16 4L2.66663 6.66667V25.3333L16 28V4ZM18.6666 6.66667V9.33333H21.3333V12H18.6666V14.6667H21.3333V17.3333H18.6666V20H21.3333V22.6667H18.6666V25.3333H28C28.736 25.3333 29.3333 24.736 29.3333 24V8C29.3333 7.264 28.736 6.66667 28 6.66667H18.6666ZM24 9.33333H26.6666V12H24V9.33333ZM5.56767 11.0625H7.93746L9.16923 14.0156C9.26923 14.257 9.3445 14.5368 9.42183 14.8542H9.45569C9.49969 14.6635 9.58925 14.3722 9.72392 13.9922L11.0963 11.0625H13.2578L10.677 15.9557L13.3333 20.9375H11.0286L9.54423 17.7188C9.48823 17.6054 9.42181 17.3772 9.36715 17.0599H9.34631C9.31298 17.2119 9.24579 17.4395 9.14579 17.7448L7.6484 20.9375H5.33329L8.08069 15.9948L5.56767 11.0625ZM24 14.6667H26.6666V17.3333H24V14.6667ZM24 20H26.6666V22.6667H24V20Z" fill="white"/>
</svg>
