<svg width="24" height="25" viewBox="0 0 24 25" fill="none" xmlns="http://www.w3.org/2000/svg">
<path fill-rule="evenodd" clip-rule="evenodd" d="M12 2.12329C6.824 2.12329 2.55378 6.09602 2.05078 11.1659H4.06836C4.56336 7.20726 7.928 4.13277 12 4.13277C16.072 4.13277 19.4366 7.20726 19.9316 11.1659H21.9492C21.4452 6.09602 17.176 2.12329 12 2.12329ZM2.05078 13.1754C2.25078 15.1929 3.05458 17.0309 4.26758 18.519L5.6875 17.0923C4.8295 15.9811 4.25136 14.6393 4.06836 13.1754H2.05078ZM18.2715 17.1237C17.8575 17.6512 17.3855 18.1316 16.8555 18.5405L17.8672 20.2831C18.6802 19.6893 19.399 18.9725 20.002 18.1657L18.2715 17.1237ZM7.10352 18.5111L5.68164 19.9397C6.98764 21.0138 8.56592 21.7655 10.2949 22.0689L10.4375 20.0476C9.2005 19.7985 8.06452 19.2637 7.10352 18.5111ZM15.1309 19.5571C14.2949 19.9157 13.3846 20.1367 12.4316 20.1889L12.2891 22.2043C13.6611 22.1651 14.9606 21.8373 16.1406 21.2957L15.1309 19.5571Z" fill="#007FFF"/>
</svg>
