<svg width="20" height="21" viewBox="0 0 20 21" fill="none" xmlns="http://www.w3.org/2000/svg">
<path fill-rule="evenodd" clip-rule="evenodd" d="M10 0.123291C4.824 0.123291 0.553781 4.09602 0.0507812 9.16593H2.06836C2.56336 5.20726 5.928 2.13277 10 2.13277C14.072 2.13277 17.4366 5.20726 17.9316 9.16593H19.9492C19.4452 4.09602 15.176 0.123291 10 0.123291ZM0.0507812 11.1754C0.250781 13.1929 1.05458 15.0309 2.26758 16.519L3.6875 15.0923C2.8295 13.9811 2.25136 12.6393 2.06836 11.1754H0.0507812ZM16.2715 15.1237C15.8575 15.6512 15.3855 16.1316 14.8555 16.5405L15.8672 18.2831C16.6802 17.6893 17.399 16.9725 18.002 16.1657L16.2715 15.1237ZM5.10352 16.5111L3.68164 17.9397C4.98764 19.0138 6.56592 19.7655 8.29492 20.0689L8.4375 18.0476C7.2005 17.7985 6.06452 17.2637 5.10352 16.5111ZM13.1309 17.5571C12.2949 17.9157 11.3846 18.1367 10.4316 18.1889L10.2891 20.2043C11.6611 20.1651 12.9606 19.8373 14.1406 19.2957L13.1309 17.5571Z" fill="#007FFF"/>
</svg>
