<svg xmlns="http://www.w3.org/2000/svg" xmlns:xlink="http://www.w3.org/1999/xlink" viewBox="0 0 420 420"><defs><style>.cls-1{fill:#007dff;}.cls-2{fill:#d0d6db;}.cls-3{fill:#b4bdc5;}.cls-4{fill:#3ccd78;}.cls-5{fill:#f2f2f2;}.cls-6{fill:#8ae1ae;}.cls-7{fill:#fff;}.cls-8{fill:#e0e4e8;}.cls-9{fill:#ccd2d8;}.cls-10{fill:#ff505f;}.cls-11{fill:#66b1ff;}.cls-12{clip-path:url(#clip-path);}</style><clipPath id="clip-path"><circle class="cls-1" cx="310" cy="205" r="25"/></clipPath></defs><g id="Layer_4" data-name="Layer 4"><path class="cls-2" d="M95,148.69V271.31a8.82,8.82,0,0,0,4.4,7.63l106.2,61.31a8.81,8.81,0,0,0,8.8,0l106.2-61.31a8.82,8.82,0,0,0,4.4-7.63V148.69a8.82,8.82,0,0,0-4.4-7.63L214.4,79.75a8.81,8.81,0,0,0-8.8,0L99.4,141.06A8.82,8.82,0,0,0,95,148.69Z"/></g><g id="Shadows"><rect class="cls-3" x="240" y="270" width="30" height="20" rx="3"/><rect class="cls-3" x="285" y="270" width="30" height="20" rx="3"/><rect class="cls-3" x="105" y="155" width="75" height="90" rx="2"/><path class="cls-3" d="M71.65,266.77H218a2,2,0,0,1,2,2V285a0,0,0,0,1,0,0H69.65a0,0,0,0,1,0,0V268.77A2,2,0,0,1,71.65,266.77Z"/><path class="cls-3" d="M71.65,295H218a2,2,0,0,1,2,2v31.06a0,0,0,0,1,0,0H69.65a0,0,0,0,1,0,0V297A2,2,0,0,1,71.65,295Z"/><rect class="cls-3" x="195" y="125" width="150" height="40" rx="2"/><rect class="cls-3" x="275.62" y="90" width="20" height="20" rx="2"/><rect class="cls-3" x="240.62" y="85" width="25" height="25" rx="2"/><rect class="cls-3" x="195.62" y="75" width="35" height="35" rx="2"/><circle class="cls-3" cx="305" cy="210" r="25"/><circle class="cls-3" cx="322.5" cy="227.5" r="7.5"/></g><g id="Layer_1" data-name="Layer 1"><path class="cls-4" d="M76.25,257.5h147.5a1.25,1.25,0,0,1,1.25,1.25V280a0,0,0,0,1,0,0H75a0,0,0,0,1,0,0V258.75A1.25,1.25,0,0,1,76.25,257.5Z"/><circle class="cls-5" cx="100" cy="267.5" r="5"/><circle class="cls-6" cx="150" cy="267.5" r="5"/><circle class="cls-6" cx="200" cy="267.5" r="5"/><rect class="cls-5" x="75" y="277.5" width="50" height="2.5"/><path class="cls-4" d="M76.25,290h147.5a1.25,1.25,0,0,1,1.25,1.25V322.5a0,0,0,0,1,0,0H75a0,0,0,0,1,0,0V291.25A1.25,1.25,0,0,1,76.25,290Z"/><circle class="cls-5" cx="100" cy="300" r="5"/><circle class="cls-6" cx="150" cy="300" r="5"/><circle class="cls-6" cx="200" cy="300" r="5"/><rect class="cls-5" x="75" y="320" width="50" height="2.5"/><rect class="cls-5" x="84.65" y="309.48" width="30.69" height="4.2"/><rect class="cls-6" x="134.65" y="309.48" width="30.69" height="4.2"/><rect class="cls-6" x="184.65" y="309.48" width="30.69" height="4.2"/><path class="cls-7" d="M200,135H350a0,0,0,0,1,0,0v23a2,2,0,0,1-2,2H202a2,2,0,0,1-2-2V135A0,0,0,0,1,200,135Z"/><path class="cls-4" d="M202,120H348a2,2,0,0,1,2,2v13a0,0,0,0,1,0,0H200a0,0,0,0,1,0,0V122A2,2,0,0,1,202,120Z"/><rect class="cls-8" x="230" y="140" width="60" height="15"/><circle class="cls-6" cx="342.5" cy="127.5" r="2.5"/><circle class="cls-6" cx="332.5" cy="127.5" r="2.5"/><circle class="cls-6" cx="322.5" cy="127.5" r="2.5"/><rect class="cls-9" x="205" y="140" width="20" height="2"/><rect class="cls-9" x="205" y="146.5" width="20" height="2"/><rect class="cls-9" x="205" y="153" width="20" height="2"/><circle class="cls-9" cx="325" cy="147.5" r="5"/><circle class="cls-9" cx="310" cy="147.5" r="5"/><circle class="cls-9" cx="340" cy="147.5" r="5"/><path class="cls-7" d="M308.48,274.83a5.27,5.27,0,0,1-7,0l-10.95-9.58A3,3,0,0,0,290,267v15a3,3,0,0,0,3,3h24a3,3,0,0,0,3-3V267a3,3,0,0,0-.57-1.75Z"/><path class="cls-8" d="M308.48,274.83l10.95-9.58A3,3,0,0,0,317,264H293a3,3,0,0,0-2.43,1.25l10.95,9.58A5.27,5.27,0,0,0,308.48,274.83Z"/><path class="cls-7" d="M263.48,274.83a5.27,5.27,0,0,1-7,0l-10.95-9.58A3,3,0,0,0,245,267v15a3,3,0,0,0,3,3h24a3,3,0,0,0,3-3V267a3,3,0,0,0-.57-1.75Z"/><path class="cls-8" d="M263.48,274.83l10.95-9.58A3,3,0,0,0,272,264H248a3,3,0,0,0-2.43,1.25l10.95,9.58A5.27,5.27,0,0,0,263.48,274.83Z"/><circle class="cls-10" cx="274" cy="266" r="6"/><rect class="cls-11" x="110" y="150" width="75" height="90" rx="2"/><rect class="cls-1" x="115" y="160" width="65" height="15.58"/><rect class="cls-1" x="165" y="185" width="5" height="45"/><circle class="cls-7" cx="167.5" cy="207.5" r="7.5"/><rect class="cls-1" x="145" y="185" width="5" height="45"/><circle class="cls-7" cx="147.5" cy="197.5" r="7.5"/><rect class="cls-1" x="125" y="185" width="5" height="45"/><circle class="cls-7" cx="127.5" cy="217.5" r="7.5"/><circle class="cls-1" cx="310" cy="205" r="25"/><g class="cls-12"><path class="cls-11" d="M317.44,216l-.3-3.26a7,7,0,0,0,2.47-5.18v-2.9a5,5,0,0,0,1.78-2.6c.66-2.07.09-4.1-1.25-4.53a1.61,1.61,0,0,0-.53-.07v-.59a9.61,9.61,0,0,0-19.22,0v.59a1.61,1.61,0,0,0-.53.07c-1.34.43-1.91,2.46-1.25,4.53a5,5,0,0,0,1.78,2.6v2.9a7,7,0,0,0,2.47,5.18l-.3,3.26c-10,1.88-17.18,7.45-17.18,14h49.24C334.62,223.42,327.41,217.85,317.44,216Z"/></g><circle class="cls-5" cx="327.5" cy="222.5" r="7.5"/><circle class="cls-4" cx="327.5" cy="222.5" r="4.5"/></g><g id="Layer_5" data-name="Layer 5"><rect class="cls-3" x="195" y="180" width="65" height="15" rx="2"/><rect class="cls-1" x="200" y="175" width="65" height="15" rx="2"/><rect class="cls-11" x="215" y="180" width="35" height="5"/><rect class="cls-3" x="195" y="205" width="65" height="15" rx="2"/><rect class="cls-11" x="200" y="200" width="65" height="15" rx="2"/><rect class="cls-1" x="215" y="205" width="35" height="5"/><rect class="cls-3" x="195" y="230" width="65" height="15" rx="2"/><rect class="cls-4" x="200" y="225" width="65" height="15" rx="2"/><rect class="cls-6" x="215" y="230" width="35" height="5"/><rect class="cls-1" x="200" y="70" width="35" height="35" rx="2"/><path class="cls-7" d="M206.92,79.87h2.3V86.5h7.61V79.87h2.3V95.13h-2.3V88.48h-7.61v6.65h-2.3Z"/><path class="cls-7" d="M228.08,95.13h-2.31V82.18h-.09L222,84.56v-2.2l3.81-2.49h2.24Z"/><rect class="cls-1" x="245" y="79.71" width="25.29" height="25.29" rx="2"/><path class="cls-7" d="M248.46,86.92h1.66v4.79h5.5V86.92h1.67v11h-1.67v-4.8h-5.5v4.8h-1.66Z"/><path class="cls-7" d="M259.57,96.74l3.73-3.87c1.19-1.25,1.77-2,1.77-2.93a1.8,1.8,0,0,0-2-1.78,1.82,1.82,0,0,0-2,2h-1.59a3.31,3.31,0,0,1,3.57-3.34,3.23,3.23,0,0,1,3.52,3.12c0,1.24-.57,2.21-2.59,4.25l-2.19,2.29v.09h5v1.42h-7.26Z"/><rect class="cls-1" x="280" y="85" width="20" height="20" rx="2"/><path class="cls-7" d="M282.55,90.64h1.31v3.79h4.35V90.64h1.32v8.72h-1.32v-3.8h-4.35v3.8h-1.31Z"/><path class="cls-7" d="M291.29,97.09h1.34c.05.77.79,1.26,1.73,1.26s1.76-.58,1.76-1.43-.69-1.49-1.9-1.49h-.74V94.36h.74a1.46,1.46,0,0,0,1.64-1.4,1.33,1.33,0,0,0-1.47-1.34,1.48,1.48,0,0,0-1.64,1.29h-1.27a2.66,2.66,0,0,1,2.92-2.39,2.49,2.49,0,0,1,2.73,2.38,1.92,1.92,0,0,1-1.5,1.93v.06A2,2,0,0,1,297.45,97c0,1.44-1.3,2.51-3.08,2.51S291.35,98.51,291.29,97.09Z"/></g></svg>