<svg width="32" height="32" viewBox="0 0 32 32" fill="none" xmlns="http://www.w3.org/2000/svg">
<path fill-rule="evenodd" clip-rule="evenodd" d="M5.33341 2.66663C3.86008 2.66663 2.66675 3.85996 2.66675 5.33329V21.3333C2.66675 22.8066 3.86008 24 5.33341 24H21.3334C22.8067 24 24.0001 22.8066 24.0001 21.3333V5.33329C24.0001 3.85996 22.8067 2.66663 21.3334 2.66663H5.33341ZM18.1147 7.99996L20.0001 9.88538L12.0001 17.8854L6.66675 12.552L8.55216 10.6666L12.0001 14.1145L18.1147 7.99996ZM26.6667 7.99996V26.6666H8.00008V29.3333H26.6667C28.1401 29.3333 29.3334 28.14 29.3334 26.6666V7.99996H26.6667Z" fill="white"/>
</svg>
