<svg xmlns="http://www.w3.org/2000/svg" viewBox="0 0 420 420"><defs><style>.cls-1{isolation:isolate;}.cls-2{fill:#d0d6db;}.cls-3{fill:#b4bdc5;}.cls-4{fill:#fff;}.cls-5{fill:#914bd7;}.cls-6{fill:#ccd2d8;}.cls-7{fill:#e0e4e8;}.cls-8{fill:#001e3c;opacity:0.15;mix-blend-mode:multiply;}.cls-9{fill:#1ed2ff;}.cls-10{fill:#007dff;}.cls-11{fill:#66b1ff;}.cls-12{fill:#66788a;}</style></defs><g class="cls-1"><g id="Layer_4" data-name="Layer 4"><path class="cls-2" d="M95,148.69V271.31a8.82,8.82,0,0,0,4.4,7.63l106.2,61.31a8.81,8.81,0,0,0,8.8,0l106.2-61.31a8.82,8.82,0,0,0,4.4-7.63V148.69a8.82,8.82,0,0,0-4.4-7.63L214.4,79.75a8.81,8.81,0,0,0-8.8,0L99.4,141.06A8.82,8.82,0,0,0,95,148.69Z"/></g><g id="Shadows"><rect class="cls-3" x="250" y="255" width="95" height="85" rx="2"/><rect class="cls-3" x="105" y="255" width="60" height="85" rx="2"/><rect class="cls-3" x="65" y="120" width="105" height="40" rx="2"/><rect class="cls-3" x="265" y="90" width="40" height="20" rx="10"/><rect class="cls-3" x="265" y="115" width="40" height="20" rx="10"/><rect class="cls-3" x="135" y="140" width="145" height="145" rx="10"/></g><g id="Layer_1" data-name="Layer 1"><rect class="cls-4" x="270" y="85" width="40" height="20" rx="10" transform="translate(580 190) rotate(180)"/><circle class="cls-5" cx="300" cy="95" r="7.14"/><rect class="cls-4" x="270" y="110" width="40" height="20" rx="10"/><circle class="cls-6" cx="280" cy="120" r="7.14"/></g><g id="Layer_5" data-name="Layer 5"><path class="cls-4" d="M110,310h60a0,0,0,0,1,0,0v23a2,2,0,0,1-2,2H112a2,2,0,0,1-2-2V310A0,0,0,0,1,110,310Z"/><path class="cls-5" d="M112,250h56a2,2,0,0,1,2,2v58a0,0,0,0,1,0,0H110a0,0,0,0,1,0,0V252A2,2,0,0,1,112,250Z"/><rect class="cls-7" x="115" y="315" width="40" height="10"/><path class="cls-8" d="M145,250h25a0,0,0,0,1,0,0v35a0,0,0,0,1,0,0H135a0,0,0,0,1,0,0V260a10,10,0,0,1,10-10Z" transform="translate(-115 420) rotate(-90)"/><rect class="cls-9" x="140" y="140" width="140" height="140" rx="10"/><path class="cls-4" d="M262.81,210c0-7-8.76-13.63-22.2-17.74,3.1-13.69,1.73-24.58-4.35-28.07a9.43,9.43,0,0,0-4.8-1.21v0c-5.92,0-13.67,4.22-21.5,11.54-7.84-7.28-15.59-11.45-21.51-11.45v0a9.72,9.72,0,0,0-4.87,1.2c-6.05,3.49-7.4,14.36-4.28,28C165.91,196.43,157.19,203,157.19,210s8.76,13.63,22.2,17.74c-3.1,13.69-1.73,24.59,4.35,28.07a9.4,9.4,0,0,0,4.84,1.21c5.92,0,13.67-4.22,21.51-11.54,7.83,7.28,15.58,11.45,21.5,11.45a9.59,9.59,0,0,0,4.87-1.2c6-3.49,7.4-14.36,4.28-28C254.09,223.62,262.81,217,262.81,210Zm-31.37-42.24v0a5.08,5.08,0,0,1,2.46.56c2.92,1.68,4.19,8.08,3.2,16.3-.23,2-.62,4.16-1.09,6.33a105.56,105.56,0,0,0-13.67-2.35,104.66,104.66,0,0,0-9-10.76C220.39,171.36,227,167.78,231.44,167.77ZM190.93,221c1,1.73,2,3.4,3.1,5-3.06-.45-6-1-8.83-1.7.8-2.78,1.79-5.64,2.91-8.5C189,217.59,189.91,219.31,190.93,221Zm-5.8-25.38c2.82-.67,5.8-1.25,8.87-1.7-1.05,1.66-2.11,3.36-3.1,5.1s-1.91,3.45-2.79,5.17C186.94,201.33,186,198.45,185.13,195.65Zm5.49,14.43c1.34-2.89,2.85-5.77,4.46-8.59s3.4-5.67,5.19-8.23c3.21-.28,6.46-.43,9.73-.43s6.5.15,9.69.41c1.78,2.56,3.53,5.3,5.21,8.18s3.12,5.68,4.48,8.57c-1.36,2.88-2.85,5.77-4.46,8.59s-3.4,5.66-5.19,8.22c-3.21.28-6.46.43-9.73.43s-6.5-.15-9.69-.41c-1.78-2.56-3.53-5.29-5.21-8.18S192,213,190.62,210.08ZM229.07,221c1-1.72,1.92-3.47,2.8-5.19a88.3,88.3,0,0,1,3,8.57c-2.82.69-5.79,1.27-8.87,1.72C227,224.41,228.08,222.71,229.07,221Zm0-22c-1-1.72-2-3.4-3.1-5,3.06.45,6,1,8.83,1.7-.8,2.78-1.79,5.64-2.91,8.5C231,202.43,230.06,200.71,229.05,199Zm-13.13-10.83C214,188.07,212,188,210,188s-4,0-6,.15a81.21,81.21,0,0,1,5.92-6.89A89.47,89.47,0,0,1,215.92,188.16ZM186,168.44a4.79,4.79,0,0,1,2.48-.56v0c4.46,0,11.07,3.55,18.08,10a102.76,102.76,0,0,0-8.89,10.74A101.94,101.94,0,0,0,184,191c-.49-2.15-.86-4.24-1.12-6.24C181.82,176.53,183.07,170.14,186,168.44Zm-5.42,54.66c-2.13-.67-4.16-1.4-6-2.2C166.9,217.65,162,213.39,162,210s4.93-7.66,12.55-10.89c1.85-.8,3.88-1.51,6-2.18a104.24,104.24,0,0,0,4.85,13.11A101.25,101.25,0,0,0,180.55,223.1Zm8,29.15a5.23,5.23,0,0,1-2.44-.58c-2.92-1.68-4.19-8.07-3.2-16.3.23-2,.62-4.15,1.09-6.33a103.88,103.88,0,0,0,13.67,2.35,104.66,104.66,0,0,0,9,10.76C199.6,248.68,193,252.25,188.54,252.25Zm21.5-13.5a89.47,89.47,0,0,1-6-6.89C206,232,208,232,210,232s4,0,6-.15A83.06,83.06,0,0,1,210,238.75Zm24,12.83a4.79,4.79,0,0,1-2.48.56c-4.46,0-11.07-3.55-18.08-10a102.76,102.76,0,0,0,8.89-10.74A101.94,101.94,0,0,0,236.05,229a62.37,62.37,0,0,1,1.12,6.26C238.18,243.49,236.93,249.88,234,251.58Zm11.43-30.68c-1.85.8-3.88,1.51-6,2.18A102.59,102.59,0,0,0,234.65,210a102.77,102.77,0,0,0,4.78-13.05q3.19,1,6,2.2C253.1,202.37,258,206.63,258,210S253.08,217.67,245.46,220.9Z"/><circle class="cls-4" cx="209.98" cy="210.01" r="9.84"/><path class="cls-8" d="M142,140h28a0,0,0,0,1,0,0v20a0,0,0,0,1,0,0H140a0,0,0,0,1,0,0V142A2,2,0,0,1,142,140Z" transform="translate(310 300) rotate(-180)"/><path class="cls-4" d="M71.5,115H135a0,0,0,0,1,0,0v40a0,0,0,0,1,0,0H71.5a1.5,1.5,0,0,1-1.5-1.5v-37A1.5,1.5,0,0,1,71.5,115Z"/><path class="cls-10" d="M135,115h38.5a1.5,1.5,0,0,1,1.5,1.5v37a1.5,1.5,0,0,1-1.5,1.5H135a0,0,0,0,1,0,0V115A0,0,0,0,1,135,115Z"/><rect class="cls-6" x="75" y="120" width="30" height="10"/><rect class="cls-7" x="75" y="135" width="55" height="15"/><path class="cls-8" d="M252,255h28a0,0,0,0,1,0,0v25a0,0,0,0,1,0,0H250a0,0,0,0,1,0,0V257a2,2,0,0,1,2-2Z"/><rect class="cls-4" x="255" y="250" width="95" height="85" rx="2"/><rect class="cls-7" x="260" y="255" width="61.5" height="15"/><rect class="cls-10" x="300" y="285" width="40" height="10" transform="translate(640 580) rotate(-180)"/><rect class="cls-10" x="285" y="300" width="55" height="10" transform="translate(625 610) rotate(-180)"/><rect class="cls-10" x="310" y="315" width="30" height="10" transform="translate(650 640) rotate(-180)"/><rect class="cls-11" x="265" y="285" width="40" height="10" transform="translate(570 580) rotate(-180)"/><rect class="cls-11" x="265" y="300" width="25" height="10" transform="translate(555 610) rotate(-180)"/><rect class="cls-11" x="265" y="315" width="50" height="10" transform="translate(580 640) rotate(-180)"/><circle class="cls-6" cx="340" cy="260" r="5"/><rect class="cls-6" x="255" y="274" width="95" height="2"/><path class="cls-12" d="M241,130h-2a21,21,0,0,1,21-21v2A19,19,0,0,0,241,130Z"/><path class="cls-12" d="M336,240h-2a44.05,44.05,0,0,0-44-44v-2A46.06,46.06,0,0,1,336,240Z"/><path class="cls-12" d="M180,311v-2a19,19,0,0,0,19-19h2A21,21,0,0,1,180,311Z"/><path class="cls-12" d="M130,191a26,26,0,0,1-26-26h2a24,24,0,0,0,24,24Z"/></g></g></svg>