<svg width="32" height="32" viewBox="0 0 32 32" fill="none" xmlns="http://www.w3.org/2000/svg">
<path fill-rule="evenodd" clip-rule="evenodd" d="M16 2.66663C9.09867 2.66663 3.40504 7.93863 2.73438 14.6666H5.42448C6.08448 9.41329 10.5707 5.33329 16 5.33329C21.4293 5.33329 25.9155 9.41329 26.5755 14.6666H29.2656C28.5936 7.93863 22.9013 2.66663 16 2.66663ZM2.73438 17.3333C3.00104 20.0106 4.07277 22.4498 5.6901 24.4244L7.58333 22.5312C6.43933 21.0565 5.66848 19.276 5.42448 17.3333H2.73438ZM24.362 22.5729C23.81 23.2729 23.1806 23.9104 22.474 24.4531L23.8229 26.7656C24.9069 25.9776 25.8653 25.0264 26.6693 23.9557L24.362 22.5729ZM9.47135 24.414L7.57552 26.3099C9.31685 27.7352 11.4212 28.7327 13.7266 29.1354L13.9167 26.4531C12.2673 26.1224 10.7527 25.4127 9.47135 24.414ZM20.1745 25.802C19.0598 26.278 17.8462 26.5713 16.5755 26.6406L16.3854 29.3151C18.2147 29.2631 19.9475 28.828 21.5208 28.1093L20.1745 25.802Z" fill="white"/>
</svg>
