<svg width="20" height="15" viewBox="0 0 20 15" fill="none" xmlns="http://www.w3.org/2000/svg">
<path fill-rule="evenodd" clip-rule="evenodd" d="M20 2.82875L18.59 1.41207L15.74 4.63728C13.68 2.30629 10.83 0.899658 7.61 0.899658C4.72 0.899658 2.07 2.06515 0 3.91387L1.42 5.3406C3.12 3.84354 5.27 2.90913 7.61 2.90913C10.35 2.90913 12.7 4.1751 14.38 6.16448L11.5 9.41983L7.5 5.40088L0 12.9465L1.5 14.4536L7.5 8.41509L11.5 12.434L15.55 7.86249C16.3 9.21888 16.8 10.7762 16.99 12.434H19C18.78 10.1231 18.05 8.02325 16.96 6.26496L20 2.82875Z" fill="#007FFF"/>
</svg>
