<svg width="32" height="32" viewBox="0 0 32 32" fill="none" xmlns="http://www.w3.org/2000/svg">
<path fill-rule="evenodd" clip-rule="evenodd" d="M21.3333 4C20.5973 4 20 4.59733 20 5.33333V7.23698L11.9974 13.3151C11.9871 12.5879 11.3963 12 10.6667 12H5.33333C4.59733 12 4 12.5973 4 13.3333V18.6667C4 19.4027 4.59733 20 5.33333 20H10.6667C11.4027 20 12 19.4027 12 18.6667L20 24.6667V26.6667C20 27.4027 20.5973 28 21.3333 28H26.6667C27.4027 28 28 27.4027 28 26.6667V21.3333C28 20.5973 27.4027 20 26.6667 20H21.3333C20.5973 20 20 20.5973 20 21.3333L12.8802 15.9948L20 10.5859V10.6667C20 11.4027 20.5973 12 21.3333 12H26.6667C27.4027 12 28 11.4027 28 10.6667V5.33333C28 4.59733 27.4027 4 26.6667 4H21.3333Z" fill="white"/>
</svg>
