<svg width="28" height="22" viewBox="0 0 28 22" fill="none" xmlns="http://www.w3.org/2000/svg">
<path fill-rule="evenodd" clip-rule="evenodd" d="M27.3334 0.332031C26.2934 0.949365 24.2067 1.7907 22.9801 2.03336C22.9441 2.0427 22.9147 2.0547 22.8801 2.06403C21.7961 0.994698 20.3107 0.332031 18.6667 0.332031C15.3534 0.332031 12.6667 3.0187 12.6667 6.33203C12.6667 6.5067 12.6521 6.82803 12.6667 6.9987C8.19608 6.9987 4.79342 4.65736 2.35341 1.66536C2.08808 2.33203 1.97208 3.38536 1.97208 4.3747C1.97208 6.2427 3.43208 8.07736 5.70541 9.2147C5.28675 9.3227 4.82542 9.40003 4.34541 9.40003C3.57075 9.40003 2.75075 9.19603 2.00008 8.57736C2.00008 8.60003 2.00008 8.62136 2.00008 8.64536C2.00008 11.256 4.77075 13.0334 7.23475 13.528C6.73475 13.8227 5.72675 13.852 5.23475 13.852C4.88808 13.852 3.66141 13.6934 3.33341 13.632C4.01875 15.772 6.49075 16.9747 8.84675 17.0174C7.00408 18.4627 5.72541 18.9987 1.95208 18.9987H0.666748C3.05075 20.5267 6.08675 21.6667 9.12942 21.6667C19.0361 21.6667 24.6667 14.116 24.6667 6.9987C24.6667 6.88403 24.6641 6.64403 24.6601 6.4027C24.6601 6.3787 24.6667 6.35603 24.6667 6.33203C24.6667 6.29603 24.6561 6.26136 24.6561 6.22536C24.6521 6.04403 24.6481 5.8747 24.6441 5.7867C25.6974 5.0267 26.6107 4.0787 27.3334 2.9987C26.3667 3.42803 25.3294 3.71603 24.2401 3.8467C25.3521 3.18003 26.9321 1.5907 27.3334 0.332031Z" fill="#00C8FF"/>
</svg>
