<svg xmlns="http://www.w3.org/2000/svg" viewBox="0 0 420 420"><defs><style>.cls-1{isolation:isolate;}.cls-2{fill:#d0d6db;}.cls-3{fill:#b4bdc5;}.cls-4{fill:#007dff;}.cls-5{fill:#cce5ff;}.cls-6{fill:#66b1ff;}.cls-12,.cls-7{fill:#001e3c;}.cls-8{fill:#ffc846;}.cls-9{fill:#334b63;}.cls-10{fill:#ff505f;}.cls-11{fill:#3ccd78;}.cls-12{opacity:0.15;mix-blend-mode:multiply;}.cls-13,.cls-14{fill:#fff;}.cls-13{fill-rule:evenodd;}.cls-15{fill:#e0e4e8;}</style></defs><g class="cls-1"><g id="Layer_4" data-name="Layer 4"><path class="cls-2" d="M95,148.69V271.31a8.82,8.82,0,0,0,4.4,7.63l106.2,61.31a8.81,8.81,0,0,0,8.8,0l106.2-61.31a8.82,8.82,0,0,0,4.4-7.63V148.69a8.82,8.82,0,0,0-4.4-7.63L214.4,79.75a8.81,8.81,0,0,0-8.8,0L99.4,141.06A8.82,8.82,0,0,0,95,148.69Z"/></g><g id="Shadows"><rect class="cls-3" x="135" y="145" width="140" height="140" rx="10"/><rect class="cls-3" x="210" y="100" width="135" height="90" rx="2"/><rect class="cls-3" x="105" y="120" width="75" height="40" rx="2"/><rect class="cls-3" x="75" y="245" width="125" height="75" rx="2"/><rect class="cls-3" x="255" y="300" width="75" height="20" rx="10"/></g><g id="Layer_1" data-name="Layer 1"><rect class="cls-4" x="260" y="295" width="75" height="20" rx="10"/><circle class="cls-5" cx="270" cy="305" r="5"/><rect class="cls-6" x="281" y="300" width="44" height="10"/></g><g id="Layer_5" data-name="Layer 5"><path class="cls-7" d="M114.5,222.5h58a0,0,0,0,1,0,0v125a0,0,0,0,1,0,0h-58a2,2,0,0,1-2-2v-121a2,2,0,0,1,2-2Z" transform="translate(-142.5 427.5) rotate(-90)"/><rect class="cls-8" x="90" y="265" width="65" height="10"/><rect class="cls-9" x="90" y="295" width="35" height="10"/><rect class="cls-10" x="130" y="295" width="40" height="10"/><rect class="cls-11" x="90" y="280" width="105" height="10"/><path class="cls-4" d="M82,240H203a2,2,0,0,1,2,2v13a0,0,0,0,1,0,0H80a0,0,0,0,1,0,0V242A2,2,0,0,1,82,240Z"/><circle class="cls-6" cx="197.5" cy="247.5" r="2.5"/><circle class="cls-6" cx="187.5" cy="247.5" r="2.5"/><circle class="cls-6" cx="177.5" cy="247.5" r="2.5"/><path class="cls-7" d="M247,80h73a0,0,0,0,1,0,0V215a0,0,0,0,1,0,0H247a2,2,0,0,1-2-2V82A2,2,0,0,1,247,80Z" transform="translate(135 430) rotate(-90)"/><rect class="cls-11" x="225" y="120" width="70" height="10"/><rect class="cls-11" x="225" y="150" width="70" height="10"/><rect class="cls-8" x="300" y="150" width="40" height="10"/><rect class="cls-10" x="225" y="165" width="105" height="10"/><rect class="cls-9" x="225" y="135" width="115" height="10"/><path class="cls-4" d="M217,95H348a2,2,0,0,1,2,2v13a0,0,0,0,1,0,0H215a0,0,0,0,1,0,0V97A2,2,0,0,1,217,95Z"/><circle class="cls-6" cx="342.5" cy="102.5" r="2.5"/><circle class="cls-6" cx="332.5" cy="102.5" r="2.5"/><circle class="cls-6" cx="322.5" cy="102.5" r="2.5"/><path class="cls-12" d="M157.5,227.5h35a0,0,0,0,1,0,0v70a0,0,0,0,1,0,0h-45a0,0,0,0,1,0,0v-60A10,10,0,0,1,157.5,227.5Z" transform="translate(-92.5 432.5) rotate(-90)"/><rect class="cls-4" x="140" y="140" width="140" height="140" rx="10"/><path class="cls-13" d="M226.07,249.93v13.2a27.88,27.88,0,0,0,7.61,2.47,50.18,50.18,0,0,0,9.27.83,43.62,43.62,0,0,0,9-.91,22.11,22.11,0,0,0,7.49-3,15.23,15.23,0,0,0,5.1-5.45,19.11,19.11,0,0,0,.8-14.6,14.54,14.54,0,0,0-3.09-4.8,22.5,22.5,0,0,0-4.85-3.78,52.7,52.7,0,0,0-6.38-3.15c-1.73-.72-3.28-1.41-4.66-2.09a24.13,24.13,0,0,1-3.51-2.06,9.06,9.06,0,0,1-2.23-2.23,4.69,4.69,0,0,1-.78-2.66,4.41,4.41,0,0,1,.7-2.45,6.07,6.07,0,0,1,2-1.88,10.77,10.77,0,0,1,3.14-1.22,18.71,18.71,0,0,1,4.13-.43,25.22,25.22,0,0,1,3.48.25,26.63,26.63,0,0,1,7.31,2.06,19.52,19.52,0,0,1,3.24,1.82V207.52a32.25,32.25,0,0,0-6.59-1.71,53.76,53.76,0,0,0-8.19-.56,38.31,38.31,0,0,0-8.91,1,22.77,22.77,0,0,0-7.41,3.16,15.75,15.75,0,0,0-5,5.47,16,16,0,0,0-1.86,7.94,15.44,15.44,0,0,0,3.4,10.06q3.41,4.17,10.34,7.05,2.73,1.13,5.08,2.19a28.47,28.47,0,0,1,4.06,2.23,11,11,0,0,1,2.71,2.51,5.14,5.14,0,0,1,1,3.1,4.76,4.76,0,0,1-.62,2.37,5.58,5.58,0,0,1-1.88,1.9,10.45,10.45,0,0,1-3.14,1.25,18.38,18.38,0,0,1-4.39.46,24.91,24.91,0,0,1-8.5-1.51,25.35,25.35,0,0,1-7.8-4.51ZM203.88,217.4h16.93V206.57h-47.2V217.4h16.85v48.23h13.42Z"/><path class="cls-12" d="M155,125h20a0,0,0,0,1,0,0v50a0,0,0,0,1,0,0H157a2,2,0,0,1-2-2V125A0,0,0,0,1,155,125Z" transform="translate(15 315) rotate(-90)"/><rect class="cls-14" x="110" y="115" width="85" height="40" rx="2"/><rect class="cls-4" x="165" y="140" width="25" height="10" rx="1"/><rect class="cls-6" x="135" y="140" width="25" height="10" rx="1"/><rect class="cls-15" x="115" y="120" width="75" height="15"/></g></g></svg>