<svg xmlns="http://www.w3.org/2000/svg" viewBox="0 0 512 512"><path d="M358.6 68.4H333c-12.1 0-22.2 8.6-24.6 20a815.5 815.5 0 0 1-243.6 72.3c-7.2 1-13.3 4.8-17.3 10.3H25.1A25.1 25.1 0 0 0 0 196.1v51.3a25.1 25.1 0 0 0 25.1 25.2h22.4c4 5.4 10.1 9.3 17.3 10.3l3.8.5L108 425.2c3 10.8 13 18.4 24.2 18.4h55.4a8 8 0 0 0 0-16H185l-35.7-128.8c84 20.5 144 49 159 56.4a25.2 25.2 0 0 0 24.6 20h25.6a25.1 25.1 0 0 0 25.1-25.1V93.5a25.1 25.1 0 0 0-25-25zM42.8 256.5H25c-5 0-9-4-9-9V196c0-5 4-9 9-9h17.7v69.4zm125.7 171h-36.3c-4 0-7.7-2.7-8.8-6.6L86 285.9a799 799 0 0 1 45.7 8.8l36.9 132.9zm199.2-77.4c0 5-4 9-9 9H333c-5 0-9.1-4-9.1-9V162a8 8 0 0 0-16 0v175.2a842.2 842.2 0 0 0-241-70.2c-4.6-.6-8.1-4.5-8.1-9v-72.4c0-4.5 3.5-8.4 8-9a842.3 842.3 0 0 0 241-70.2v21.3a8 8 0 0 0 16 0V93.6c0-5 4.1-9.2 9.2-9.2h25.6c5 0 9.1 4.1 9.1 9.1v256.6zM504 213.8h-85.5a8 8 0 0 0 0 16H504a8 8 0 0 0 0-16zM485.7 133.1a8 8 0 0 0-10.5-4.2l-8.6 3.7a8 8 0 1 0 6.3 14.7l8.6-3.6a8 8 0 0 0 4.2-10.6zM451.5 147.8a8 8 0 0 0-10.5-4.2l-25.7 11a8 8 0 1 0 6.3 14.7l25.7-11a8 8 0 0 0 4.2-10.5zM481.5 300l-8.6-3.7a8 8 0 1 0-6.3 14.7l8.6 3.7a8 8 0 0 0 10.5-4.2 8 8 0 0 0-4.2-10.6zM447.3 285.3l-25.7-11a8 8 0 0 0-6.3 14.7l25.7 11a8 8 0 0 0 10.5-4.2 8 8 0 0 0-4.2-10.5z"/></svg>