<svg xmlns="http://www.w3.org/2000/svg" viewBox="0 0 512 512"><path d="M391.1 179.9l-24.18-24.19a16.46 16.46 0 0 0-11.71-4.85c-4.43 0-8.59 1.72-11.72 4.85l-.38.38-73.31-73.32.38-.38c3.13-3.12 4.85-7.29 4.85-11.71s-1.72-8.59-4.85-11.72l-24.19-24.18a16.59 16.59 0 0 0-23.43 0L162.1 95.24a16.59 16.59 0 0 0 0 23.43l24.18 24.19a16.59 16.59 0 0 0 23.43 0l.38-.38 12.85 12.85-12.47 12.47a16.46 16.46 0 0 0-4.2 16.3L7.35 383A24.95 24.95 0 0 0 0 400.76c0 6.71 2.61 13.02 7.36 17.77a25.04 25.04 0 0 0 17.76 7.34c6.43 0 12.86-2.45 17.76-7.34l198.9-198.9c1.48.41 3.01.64 4.59.64 4.42 0 8.58-1.72 11.71-4.85l12.47-12.47 12.85 12.85-.37.37a16.46 16.46 0 0 0-4.86 11.72c0 4.42 1.72 8.58 4.85 11.71l24.19 24.19c3.13 3.13 7.29 4.85 11.72 4.85s8.58-1.72 11.71-4.85l60.47-60.47c3.13-3.12 4.85-7.28 4.85-11.71s-1.72-8.59-4.85-11.71zM31.55 407.19a9.1 9.1 0 0 1-15.5-6.43c0-2.42.94-4.7 2.65-6.42L216.13 196.9l12.85 12.85L31.54 407.19zm215.2-203.1c-.03.03-.15.15-.37.15s-.34-.12-.38-.16L221.8 179.9c-.04-.03-.15-.15-.15-.37s.11-.34.15-.38l12.47-12.47 24.95 24.94-12.48 12.47zm133.03-12.1l-60.47 60.46c-.04.04-.15.16-.37.16s-.34-.12-.38-.16l-24.19-24.18c-.04-.04-.15-.16-.15-.38s.11-.34.15-.38l6.05-6.05a8.02 8.02 0 0 0 0-11.33l-78.98-78.99 18.51-18.51a8.02 8.02 0 1 0-11.33-11.34l-30.24 30.23c-.2.21-.54.21-.75 0l-24.19-24.18a.54.54 0 0 1 0-.76l60.47-60.46c.2-.21.54-.21.75 0l24.19 24.18c.2.2.2.55 0 .76l-6.02 6.01-.13.14a8.02 8.02 0 0 0 .1 11.23l78.99 78.99-18.52 18.51a8 8 0 0 0 0 11.34 8.02 8.02 0 0 0 11.33 0l30.24-30.23c.04-.04.15-.16.38-.16s.34.12.37.16l24.19 24.18c.04.04.16.16.16.38s-.12.34-.16.38zM511.76 472.1l-5.31-21.24a25.08 25.08 0 0 0-24.37-19.03h-4.28v-17.64c0-9.13-7.44-16.57-16.57-16.57H341.5a16.59 16.59 0 0 0-16.57 16.57v17.64h-4.28a25.08 25.08 0 0 0-24.37 19.03l-5.31 21.25a8.01 8.01 0 0 0 7.78 9.96h205.22a8.02 8.02 0 0 0 7.78-9.96zm-202.74-6.07l2.83-11.29a9.07 9.07 0 0 1 8.8-6.88h29.41a8.02 8.02 0 0 0 0-16.03h-9.08v-17.64c0-.3.24-.53.53-.53h119.72c.3 0 .53.23.53.53v17.64h-77.5a8.02 8.02 0 0 0 0 16.03h97.82c4.17 0 7.8 2.83 8.81 6.88l2.82 11.3H309.02zM401.37 320.66a8.02 8.02 0 0 0-8.02 8.02v42.76a8.02 8.02 0 0 0 16.04 0v-42.76a8.02 8.02 0 0 0-8.02-8.02zM447.71 347.16a8.02 8.02 0 0 0-10.76 3.59l-8.55 17.1a8.02 8.02 0 1 0 14.35 7.17l8.55-17.1a8.02 8.02 0 0 0-3.59-10.76zM374.33 367.85l-8.55-17.1a8.01 8.01 0 1 0-14.34 7.17l8.56 17.1a8.02 8.02 0 1 0 14.33-7.17z"/></svg>