<?xml version="1.0" encoding="iso-8859-1"?>
<!-- Generator: Adobe Illustrator 18.1.0, SVG Export Plug-In . SVG Version: 6.00 Build 0)  -->
<!DOCTYPE svg PUBLIC "-//W3C//DTD SVG 1.1//EN" "http://www.w3.org/Graphics/SVG/1.1/DTD/svg11.dtd">
<svg version="1.1" id="Layer_1" xmlns="http://www.w3.org/2000/svg" xmlns:xlink="http://www.w3.org/1999/xlink" x="0px" y="0px"
	 viewBox="0 0 300 300" style="enable-background:new 0 0 300 300;" xml:space="preserve">
<g>
	<rect x="0" y="0" style="fill:#90A4AE;" width="299.999" height="300.001"/>
	<path style="fill:#72848B;" d="M299.998,121.11L254.26,75.371H148.982v32.444L120.687,79.54l-0.02-0.019
		c-0.038-0.036-0.075-0.075-0.113-0.113l-0.02-0.019c-0.068-0.067-0.142-0.124-0.21-0.191c-0.242-0.227-0.484-0.455-0.743-0.667
		c-0.235-0.193-0.482-0.369-0.729-0.547c-0.109-0.077-0.212-0.163-0.325-0.24c-0.327-0.219-0.667-0.422-1.013-0.615
		c-0.043-0.023-0.084-0.051-0.127-0.075c-0.373-0.202-0.757-0.386-1.149-0.553c-0.022-0.011-0.044-0.024-0.068-0.034
		c-0.377-0.158-0.764-0.296-1.156-0.422c-0.044-0.015-0.085-0.032-0.129-0.047c-0.375-0.116-0.76-0.21-1.148-0.294
		c-0.064-0.015-0.125-0.036-0.19-0.049c-0.362-0.075-0.733-0.124-1.104-0.169c-0.095-0.011-0.187-0.032-0.282-0.043
		c-0.467-0.047-0.94-0.071-1.419-0.071c-7.705,0-13.962,6.257-13.962,13.962v9.196L75.38,77.127l-0.17-0.169
		c-0.126-0.144-0.26-0.277-0.403-0.405l-0.194-0.193c-0.063-0.049-0.135-0.086-0.2-0.133c-0.061-0.043-0.124-0.081-0.187-0.12
		c-0.167-0.107-0.339-0.199-0.52-0.283c-0.091-0.043-0.18-0.086-0.274-0.122c-0.175-0.068-0.355-0.12-0.538-0.167
		c-0.096-0.026-0.19-0.058-0.288-0.075c-0.283-0.054-0.571-0.088-0.867-0.088c-2.569,0-4.654,2.086-4.654,4.654
		c0,2.238,1.58,4.105,3.688,4.566v35.298H45.724v32.466V180.1l25.046,25.046v5.509c0,3.359,1.184,6.431,3.161,8.847
		c0,0,0,0.021,0.021,0.045l1.888,1.886c0.023,0.021,0.044,0.021,0.044,0.021l78.543,78.544h145.571V121.11z"/>
	<g>
		<g>
			<g>
				<rect x="148.974" y="86.447" style="fill:#95C8EC;" width="105.292" height="138.178"/>
				<rect x="148.974" y="75.373" style="fill:#FFFFFF;" width="105.292" height="11.074"/>
			</g>
			<g>
				<g>
					<rect x="162.393" y="98.844" style="fill:#33383D;" width="54.843" height="2.165"/>
					<rect x="179.776" y="102.908" style="fill:#33383D;" width="31.394" height="2.165"/>
					<rect x="175.148" y="106.975" style="fill:#33383D;" width="65.699" height="2.161"/>
					<rect x="175.148" y="111.035" style="fill:#33383D;" width="11.529" height="2.165"/>
					<rect x="162.393" y="121.089" style="fill:#33383D;" width="26.221" height="2.165"/>
					<rect x="175.148" y="125.151" style="fill:#33383D;" width="61.817" height="2.165"/>
					<rect x="175.148" y="129.216" style="fill:#33383D;" width="51.309" height="2.163"/>
					<rect x="162.393" y="139.272" style="fill:#33383D;" width="41.585" height="2.161"/>
					<rect x="175.148" y="143.332" style="fill:#33383D;" width="44.678" height="2.165"/>
					<rect x="175.148" y="147.398" style="fill:#33383D;" width="13.467" height="2.163"/>
					<rect x="183.255" y="151.458" style="fill:#33383D;" width="51.122" height="2.165"/>
					<rect x="175.148" y="155.525" style="fill:#33383D;" width="18.478" height="2.163"/>
					<rect x="162.393" y="165.578" style="fill:#33383D;" width="28.806" height="2.165"/>
					<rect x="175.264" y="169.641" style="fill:#33383D;" width="35.906" height="2.163"/>
					<rect x="175.264" y="173.705" style="fill:#33383D;" width="22.084" height="2.159"/>
					<rect x="162.393" y="183.755" style="fill:#33383D;" width="64.063" height="2.165"/>
					<rect x="175.148" y="187.821" style="fill:#33383D;" width="16.052" height="2.163"/>
					<rect x="175.148" y="191.885" style="fill:#33383D;" width="31.42" height="2.161"/>
					<rect x="190.385" y="195.95" style="fill:#33383D;" width="47.712" height="2.159"/>
					<rect x="162.393" y="205.999" style="fill:#33383D;" width="37.969" height="2.165"/>
					<rect x="175.148" y="210.064" style="fill:#33383D;" width="45.647" height="2.159"/>
				</g>
			</g>
		</g>
		<g>
			<g>
				<rect x="45.731" y="119.895" style="fill:#FFFFFF;" width="156.039" height="60.207"/>
				<g>
					<g>
						<rect x="50.867" y="125.031" style="fill:#CCCBCA;" width="7.773" height="7.766"/>
						<rect x="178.644" y="135.254" style="fill:#CCCBCA;" width="7.771" height="7.769"/>
						<rect x="168.425" y="135.254" style="fill:#CCCBCA;" width="7.771" height="7.769"/>
						<rect x="158.202" y="135.254" style="fill:#CCCBCA;" width="7.773" height="7.769"/>
						<rect x="147.977" y="135.254" style="fill:#CCCBCA;" width="7.773" height="7.769"/>
						<rect x="137.758" y="135.254" style="fill:#CCCBCA;" width="7.769" height="7.769"/>
						<rect x="127.537" y="135.254" style="fill:#CCCBCA;" width="7.775" height="7.769"/>
						<rect x="117.312" y="135.254" style="fill:#CCCBCA;" width="7.777" height="7.769"/>
						<rect x="107.087" y="135.254" style="fill:#CCCBCA;" width="7.779" height="7.769"/>
						<rect x="96.87" y="135.254" style="fill:#CCCBCA;" width="7.773" height="7.769"/>
						<rect x="86.647" y="135.254" style="fill:#CCCBCA;" width="7.775" height="7.769"/>
						<rect x="76.424" y="135.254" style="fill:#CCCBCA;" width="7.777" height="7.769"/>
						<rect x="66.203" y="135.254" style="fill:#CCCBCA;" width="7.775" height="7.769"/>
						<rect x="68.668" y="145.467" style="fill:#CCCBCA;" width="7.773" height="7.777"/>
						<rect x="63.669" y="155.69" style="fill:#CCCBCA;" width="7.775" height="7.766"/>
						<rect x="73.89" y="155.69" style="fill:#CCCBCA;" width="7.773" height="7.766"/>
						<rect x="84.109" y="155.69" style="fill:#CCCBCA;" width="7.773" height="7.766"/>
						<rect x="94.33" y="155.69" style="fill:#CCCBCA;" width="7.771" height="7.766"/>
						<rect x="104.546" y="155.69" style="fill:#CCCBCA;" width="7.777" height="7.766"/>
						<rect x="114.772" y="155.69" style="fill:#CCCBCA;" width="7.771" height="7.766"/>
						<rect x="124.99" y="155.69" style="fill:#CCCBCA;" width="7.767" height="7.766"/>
						<rect x="135.209" y="155.69" style="fill:#CCCBCA;" width="7.773" height="7.766"/>
						<rect x="145.432" y="155.69" style="fill:#CCCBCA;" width="7.771" height="7.766"/>
						<rect x="155.651" y="155.69" style="fill:#CCCBCA;" width="7.775" height="7.766"/>
						<rect x="165.872" y="155.69" style="fill:#CCCBCA;" width="7.771" height="7.766"/>
						<rect x="176.07" y="155.69" style="fill:#CCCBCA;" width="20.566" height="7.766"/>
						<rect x="78.887" y="145.467" style="fill:#CCCBCA;" width="7.775" height="7.777"/>
						<rect x="89.108" y="145.467" style="fill:#CCCBCA;" width="7.775" height="7.777"/>
						<rect x="99.326" y="145.467" style="fill:#CCCBCA;" width="7.767" height="7.777"/>
						<rect x="109.541" y="145.467" style="fill:#CCCBCA;" width="7.779" height="7.777"/>
						<rect x="119.76" y="145.467" style="fill:#CCCBCA;" width="7.777" height="7.777"/>
						<rect x="129.981" y="145.467" style="fill:#CCCBCA;" width="7.775" height="7.777"/>
						<rect x="140.2" y="145.467" style="fill:#CCCBCA;" width="7.771" height="7.777"/>
						<rect x="150.423" y="145.467" style="fill:#CCCBCA;" width="7.768" height="7.777"/>
						<rect x="160.635" y="145.467" style="fill:#CCCBCA;" width="7.777" height="7.777"/>
						<rect x="170.856" y="145.467" style="fill:#CCCBCA;" width="7.771" height="7.777"/>
						<rect x="181.075" y="145.467" style="fill:#CCCBCA;" width="7.771" height="7.777"/>
						<rect x="61.092" y="125.031" style="fill:#CCCBCA;" width="7.768" height="7.766"/>
						<rect x="71.311" y="125.031" style="fill:#CCCBCA;" width="7.773" height="7.766"/>
						<rect x="81.532" y="125.031" style="fill:#CCCBCA;" width="7.773" height="7.766"/>
						<rect x="91.751" y="125.031" style="fill:#CCCBCA;" width="7.775" height="7.766"/>
						<rect x="101.974" y="125.031" style="fill:#CCCBCA;" width="7.775" height="7.766"/>
						<rect x="112.199" y="125.031" style="fill:#CCCBCA;" width="7.767" height="7.766"/>
						<rect x="122.416" y="125.031" style="fill:#CCCBCA;" width="7.773" height="7.766"/>
						<rect x="132.639" y="125.031" style="fill:#CCCBCA;" width="7.771" height="7.766"/>
						<rect x="142.858" y="125.031" style="fill:#CCCBCA;" width="7.771" height="7.766"/>
						<rect x="153.077" y="125.031" style="fill:#CCCBCA;" width="7.773" height="7.766"/>
						<rect x="163.304" y="125.031" style="fill:#CCCBCA;" width="7.766" height="7.766"/>
						<rect x="173.519" y="125.031" style="fill:#CCCBCA;" width="7.777" height="7.766"/>
						<rect x="183.74" y="125.031" style="fill:#CCCBCA;" width="12.89" height="7.766"/>
						<rect x="50.867" y="135.248" style="fill:#CCCBCA;" width="12.894" height="7.775"/>
						<rect x="50.867" y="145.467" style="fill:#CCCBCA;" width="15.359" height="7.777"/>
						<rect x="50.867" y="155.69" style="fill:#CCCBCA;" width="10.363" height="7.766"/>
						<rect x="50.867" y="165.9" style="fill:#CCCBCA;" width="7.779" height="9.063"/>
						<rect x="61.058" y="165.9" style="fill:#CCCBCA;" width="7.777" height="9.063"/>
						<rect x="71.251" y="165.9" style="fill:#CCCBCA;" width="7.775" height="9.063"/>
						<rect x="81.44" y="165.9" style="fill:#CCCBCA;" width="10.438" height="9.063"/>
						<rect x="94.321" y="165.9" style="fill:#CCCBCA;" width="48.661" height="9.063"/>
						<rect x="145.428" y="165.9" style="fill:#CCCBCA;" width="10.431" height="9.063"/>
						<rect x="158.288" y="165.9" style="fill:#CCCBCA;" width="7.779" height="9.063"/>
						<rect x="168.507" y="170.738" style="fill:#CCCBCA;" width="7.775" height="4.225"/>
						<rect x="178.681" y="170.989" style="fill:#CCCBCA;" width="7.775" height="3.974"/>
						<rect x="178.681" y="165.876" style="fill:#CCCBCA;" width="7.775" height="3.976"/>
						<rect x="188.859" y="170.738" style="fill:#CCCBCA;" width="7.775" height="4.225"/>
						<polygon style="fill:#CCCBCA;" points="191.287,153.244 191.287,143.023 188.863,143.023 188.863,135.254 196.636,135.254 
							196.636,153.244 						"/>
					</g>
				</g>
			</g>
			<g>
				<g>
					<path style="fill:#E6E5E5;" d="M84.739,224.626c-7.702,0-13.968-6.266-13.968-13.966v-30.558h1.931v30.558
						c0,6.637,5.398,12.039,12.037,12.039c6.637,0,12.039-5.402,12.039-12.039V89.341c0-7.704,6.268-13.968,13.97-13.968
						c7.702,0,13.966,6.264,13.966,13.968v30.56h-1.929v-30.56c0-6.637-5.398-12.039-12.037-12.039
						c-6.639,0-12.041,5.402-12.041,12.039V210.66C98.707,218.36,92.441,224.626,84.739,224.626z"/>
					<rect x="70.771" y="83.708" style="fill:#E6E5E5;" width="1.931" height="36.189"/>
					<path style="fill:#E6E5E5;" d="M71.738,84.672c-2.566,0-4.652-2.086-4.652-4.649c0-2.564,2.086-4.65,4.652-4.65
						c2.564,0,4.649,2.086,4.649,4.65C76.387,82.587,74.301,84.672,71.738,84.672z M71.738,77.303c-1.503,0-2.723,1.22-2.723,2.72
						c0,1.498,1.22,2.72,2.723,2.72c1.498,0,2.72-1.222,2.72-2.72C74.458,78.522,73.236,77.303,71.738,77.303z"/>
				</g>
			</g>
		</g>
	</g>
</g>
</svg>
