<svg color="#fcb400" xmlns="http://www.w3.org/2000/svg" width="16" height="16" shape-rendering="geometricprecision"><path fill-rule="evenodd" fill="currentColor" d="M5.27 10.61L2.18 9.57a.7.7 0 010-1.32l3.09-1.04a.7.7 0 00.43-.43l1.05-3.09a.7.7 0 011.31 0L9.1 6.78c.08.2.24.36.44.43l3.08 1.04a.7.7 0 010 1.32L9.54 10.6a.7.7 0 00-.43.44l-1.05 3.08a.7.7 0 01-1.31 0L5.7 11.05a.7.7 0 00-.43-.44zm6.24-6.35L10.2 3.8a.33.33 0 010-.62l1.3-.45a.33.33 0 00.21-.2l.45-1.32a.33.33 0 01.62 0l.45 1.31c.03.1.1.18.2.21l1.32.45a.33.33 0 010 .62l-1.31.45a.33.33 0 00-.21.2l-.45 1.31a.33.33 0 01-.62 0l-.45-1.3a.33.33 0 00-.2-.21zM1.6 13.98l-.7-.23a.3.3 0 010-.58l.7-.23a.35.35 0 00.21-.22l.24-.69a.3.3 0 01.57 0l.24.7a.35.35 0 00.21.2l.7.24a.3.3 0 010 .58l-.7.23a.35.35 0 00-.21.22l-.24.69a.3.3 0 01-.57 0l-.24-.7a.35.35 0 00-.21-.21z"/></svg>
