<svg viewBox="0 0 512 512" xmlns="http://www.w3.org/2000/svg">
  <path d="M188.72 134.67v-16.86c2.34.19 4.24.62 7.04 1.96 2 .96 5.57 3.46 8.15-.92.41-.7.72-1.42.9-2.16 1.1-4.18-1.34-6.24-5.55-7.79a32.75 32.75 0 0 0-10.54-1.68v-2.52c0-1.42-1.76-2.42-3.26-2.42-1.62 0-3.26.99-3.26 2.4v2.68c-7.44.98-13.93 4.03-17.06 10.78-1.99 4.3-2.18 11.31.15 15.62 3.52 6.55 9.9 8.88 16.91 11.55v19.07c-5.01-.6-7.4-2.52-12.27-6.18-2.38-1.79-4.71-1.11-6.46 1.35-2.18 3.05-2.03 5.79-.05 8.46 3.73 5.03 11.85 7.73 18.78 7.73v2.7c0 1.45 1.67 2.43 3.26 2.43 1.48 0 3.26-.98 3.26-2.4v-2.97c5.36-.83 9.73-2.95 13.08-6.37 3.35-3.42 5.03-8.07 5.03-13.95 0-12.05-7.92-16.8-18.11-20.5zm-5.75-2.1c-5.83-2.33-7.67-4.2-7.67-7.77 0-4.17 3.54-6.05 7.67-6.7zm4.98 31.72V147.6c5.97 2.61 7.19 5.46 7.19 8.82 0 4.47-2.97 6.96-7.19 7.86zM316.53 26.9c-35.73 0-64.8 29.06-64.8 64.8s29.07 64.79 64.8 64.79 64.8-29.07 64.8-64.8-29.07-64.8-64.8-64.8zm0 114.59c-27.46 0-49.8-22.34-49.8-49.8s22.34-49.8 49.8-49.8 49.8 22.34 49.8 49.8a49.85 49.85 0 0 1-49.8 49.8z"/>
  <path d="M320.7 85.5V68.62c3.73.3 5.66 1.24 9.3 3.06 2.04 1.03 4.4.52 5.9-2.02 1.51-2.59 1.83-5.72-.49-7.64-3.66-3.05-9.98-4-14.7-4v-2.51c0-1.43-1.77-2.42-3.27-2.42-1.62 0-3.25.99-3.25 2.4v2.68c-2.43.32-4.76.9-7 1.72-7.1 2.64-11.6 8.36-11.6 16.97 0 11.53 8.33 15.34 18.6 19.26v19.07c-5.02-.6-7.4-2.52-12.27-6.18-2.39-1.79-4.72-1.11-6.47 1.35-2.17 3.05-2.03 5.78-.05 8.45 3.72 5.02 11.74 7.74 18.79 7.74v2.7c0 1.45 1.66 2.42 3.25 2.42 1.48 0 3.26-.97 3.26-2.4v-2.96c9.66-1.5 18.11-7.6 18.11-20.32 0-11.68-7.37-16.6-18.1-20.5zm-5.75-2.12c-5.82-2.32-7.66-4.2-7.66-7.76 0-4.18 3.53-6.05 7.66-6.7zm4.99 31.72V98.43c5.96 2.61 7.18 5.46 7.18 8.81 0 4.48-2.96 6.97-7.18 7.86z"/>
  <path d="M468.2 338.58a7.5 7.5 0 0 0 7.5-7.5V208.9c0-10.75-8.74-19.5-19.5-19.5H262.32a91.88 91.88 0 0 0 8.73-18.13 91.14 91.14 0 0 0 45.5 12.1c50.55 0 91.69-41.13 91.69-91.69 0-50.56-41.14-91.69-91.7-91.69-39.9 0-73.91 25.62-86.49 61.26a90.92 90.92 0 0 0-45.5-12.08c-50.55 0-91.68 41.13-91.68 91.7a91.5 91.5 0 0 0 13.92 48.53H55.8a19.52 19.52 0 0 0-19.5 19.5V492.5c0 10.75 8.75 19.5 19.5 19.5h182.7a7.5 7.5 0 1 0 0-15H55.8a4.56 4.56 0 0 1-4.5-4.5V208.9c0-2.43 2.07-4.5 4.5-4.5h400.42c2.43 0 4.5 2.07 4.5 4.5v83.47H342.34c-32.16 0-58.33 26.17-58.33 58.33s26.17 58.34 58.33 58.34h118.37v83.46c0 2.44-2.06 4.5-4.5 4.5H273.5a7.5 7.5 0 1 0 0 15h182.7c10.75 0 19.5-8.75 19.5-19.5V366.08a7.5 7.5 0 1 0-15 0v27.96H342.34c-23.9 0-43.33-19.44-43.33-43.34s19.44-43.33 43.33-43.33h118.37v23.7a7.5 7.5 0 0 0 7.5 7.5zM125.2 189.4a76.54 76.54 0 0 1-17.33-48.53c0-42.28 34.4-76.69 76.69-76.69 14.9 0 29.18 4.22 41.57 12.25a91.7 91.7 0 0 0-1.26 13.68 64.56 64.56 0 0 0-40.31-14.04 64.87 64.87 0 0 0-64.8 64.8 65.01 65.01 0 0 0 21.96 48.53zm70.52 0h-22.32a50.02 50.02 0 0 1-38.64-48.53 49.85 49.85 0 0 1 49.8-49.8c19.11 0 39 11.92 45.1 29.95 2.58 7.62 4.7 9.3 4.7 19.85 0 23.11-16.2 43.4-38.64 48.54zm48.2 0h-16.52a65.3 65.3 0 0 0 20.83-36.61 91.55 91.55 0 0 0 9.93 9.6 76.75 76.75 0 0 1-14.24 27.02zm-4.07-97.7c0-42.08 34.25-76.7 76.7-76.7 42.28 0 76.68 34.4 76.68 76.7s-34.4 76.68-76.69 76.68c-42.53 0-76.69-34.68-76.69-76.69z"/>
  <path d="M370.47 324.5h-26.05c-14.74 0-26.73 12-26.73 26.73s11.99 26.73 26.73 26.73h26.05c14.74 0 26.73-11.99 26.73-26.73s-12-26.73-26.73-26.73zm0 38.46h-26.05a11.74 11.74 0 0 1-11.73-11.73c0-6.46 5.26-11.73 11.73-11.73h26.05c6.46 0 11.72 5.27 11.72 11.73s-5.26 11.73-11.72 11.73z"/>
</svg>
