<svg xmlns="http://www.w3.org/2000/svg" width="92" height="29" viewBox="0 0 92 29" fill="none">
<path fill-rule="evenodd" clip-rule="evenodd" d="M57.0747 22.2939C51.7284 26.2652 43.9793 28.384 37.3075 28.384C27.9525 28.384 19.5306 24.8971 13.1592 19.0976C12.6586 18.6415 13.1071 18.02 13.7078 18.3752C20.5839 22.407 29.0859 24.8325 37.8682 24.8325C43.7911 24.8325 50.3068 23.5975 56.2978 21.0348C57.2029 20.6473 57.9597 21.6321 57.0747 22.2939" fill="#8796A5"/>
<path fill-rule="evenodd" clip-rule="evenodd" d="M59.2978 19.731C58.617 18.8512 54.7805 19.3153 53.0585 19.5212C52.5339 19.5857 52.4538 19.1257 52.9263 18.7947C55.9819 16.6275 60.9958 17.253 61.5805 17.9795C62.1652 18.71 61.4283 23.7749 58.5569 26.1924C58.1164 26.5637 57.6959 26.3659 57.8922 25.8736C58.5369 24.2512 59.9826 20.6149 59.2978 19.731" fill="#8796A5"/>
<path fill-rule="evenodd" clip-rule="evenodd" d="M53.1781 3.4949V1.3882C53.1781 1.06937 53.4184 0.855469 53.7068 0.855469H63.0657C63.3661 0.855469 63.6064 1.0734 63.6064 1.3882V3.19222C63.6024 3.4949 63.3501 3.89042 62.9015 4.51597L58.0519 11.4939C59.854 11.4495 61.7562 11.7199 63.3901 12.6482C63.7586 12.858 63.8587 13.1648 63.8867 13.4675V15.7154C63.8867 16.0221 63.5503 16.3813 63.1979 16.1957C60.3185 14.6742 56.494 14.5087 53.3103 16.2118C52.9859 16.3894 52.6455 16.0342 52.6455 15.7275V13.5926C52.6455 13.2495 52.6495 12.6643 52.9899 12.1437L58.6085 4.0236H53.7188C53.4184 4.0236 53.1781 3.8097 53.1781 3.4949" fill="#8796A5"/>
<path fill-rule="evenodd" clip-rule="evenodd" d="M19.0386 16.6395H16.1912C15.9189 16.6193 15.7026 16.4135 15.6826 16.1512V1.42442C15.6826 1.1298 15.9269 0.895721 16.2313 0.895721H18.8864C19.1627 0.90782 19.383 1.12173 19.403 1.38809V3.31319H19.455C20.1479 1.45267 21.4494 0.584961 23.2034 0.584961C24.9855 0.584961 26.0988 1.45267 26.8998 3.31319C27.5886 1.45267 29.1544 0.584961 30.8324 0.584961C32.0258 0.584961 33.3313 1.08137 34.1283 2.19526C35.0293 3.43426 34.8451 5.23424 34.8451 6.81226L34.8411 16.1068C34.8411 16.4014 34.5968 16.6395 34.2925 16.6395H31.4491C31.1648 16.6193 30.9365 16.3893 30.9365 16.1068V8.30148C30.9365 7.67996 30.9926 6.1302 30.8564 5.54097C30.6442 4.55219 30.0074 4.27371 29.1825 4.27371C28.4937 4.27371 27.7728 4.73783 27.4805 5.48043C27.1881 6.22302 27.2162 7.46606 27.2162 8.30148V16.1068C27.2162 16.4014 26.9719 16.6395 26.6675 16.6395H23.8242C23.5358 16.6193 23.3116 16.3893 23.3116 16.1068L23.3076 8.30148C23.3076 6.65889 23.5759 4.24143 21.5535 4.24143C19.5071 4.24143 19.5872 6.59835 19.5872 8.30148V16.1068C19.5872 16.4014 19.3429 16.6395 19.0386 16.6395" fill="#8796A5"/>
<path fill-rule="evenodd" clip-rule="evenodd" d="M71.6644 0.584961C75.8893 0.584961 78.176 4.24143 78.176 8.89071C78.176 13.3826 75.649 16.9462 71.6644 16.9462C67.5155 16.9462 65.2568 13.2898 65.2568 8.73331C65.2568 4.1486 67.5435 0.584961 71.6644 0.584961M71.6884 3.59166C69.5899 3.59166 69.4578 6.47324 69.4578 8.26919C69.4578 10.0692 69.4297 13.9113 71.6644 13.9113C73.8709 13.9113 73.9751 10.8118 73.9751 8.92299C73.9751 7.67996 73.923 6.19477 73.5506 5.01631C73.2302 3.99121 72.5935 3.59166 71.6884 3.59166" fill="#8796A5"/>
<path fill-rule="evenodd" clip-rule="evenodd" d="M83.6547 16.6395H80.8193C80.535 16.6193 80.3067 16.3893 80.3067 16.1068L80.3027 1.37598C80.3268 1.10558 80.563 0.895721 80.8514 0.895721H83.4905C83.7388 0.90782 83.943 1.07733 83.9991 1.30738V3.55937H84.0511C84.8481 1.54549 85.9654 0.584961 87.9317 0.584961C89.2092 0.584961 90.4547 1.04908 91.2556 2.32037C92.0005 3.49883 92.0005 5.48043 92.0005 6.90508V16.1754C91.9684 16.4337 91.7322 16.6395 91.4518 16.6395H88.5965C88.3362 16.6193 88.1199 16.4256 88.0919 16.1754V8.17637C88.0919 6.56607 88.2761 4.20914 86.3098 4.20914C85.617 4.20914 84.9802 4.6773 84.6639 5.3876C84.2634 6.2876 84.2113 7.18355 84.2113 8.17637V16.1068C84.2073 16.4014 83.959 16.6395 83.6547 16.6395" fill="#8796A5"/>
<path fill-rule="evenodd" clip-rule="evenodd" d="M45.718 9.60519C45.718 10.7231 45.746 11.6554 45.1853 12.6482C44.7328 13.4554 44.012 13.9518 43.215 13.9518C42.1218 13.9518 41.481 13.1123 41.481 11.8733C41.481 9.42762 43.6556 8.98368 45.718 8.98368V9.60519M48.5893 16.5993C48.4011 16.7688 48.1288 16.7809 47.9166 16.6679C46.9714 15.8769 46.7992 15.5096 46.2826 14.7549C44.7208 16.3612 43.6115 16.8414 41.5891 16.8414C39.1903 16.8414 37.3281 15.3522 37.3281 12.3697C37.3281 10.0411 38.5776 8.45498 40.3637 7.6801C41.9095 6.99401 44.068 6.87293 45.718 6.68325V6.31195C45.718 5.62989 45.77 4.82273 45.3696 4.2335C45.0252 3.7048 44.3604 3.48687 43.7717 3.48687C42.6864 3.48687 41.7213 4.04785 41.485 5.21017C41.4369 5.46846 41.2487 5.72272 40.9884 5.73483L38.2292 5.43617C37.9969 5.38371 37.7366 5.19402 37.8047 4.83484C38.4374 1.46088 41.465 0.443848 44.1722 0.443848C45.5578 0.443848 47.3679 0.815145 48.4612 1.87253C49.8468 3.17611 49.7147 4.91555 49.7147 6.80836V11.2801C49.7147 12.624 50.2673 13.2132 50.7879 13.9397C50.9681 14.198 51.0082 14.5087 50.7759 14.7025C50.1952 15.1908 49.162 16.0989 48.5933 16.6074L48.5893 16.5993" fill="#8796A5"/>
<path fill-rule="evenodd" clip-rule="evenodd" d="M8.38985 9.60519C8.38985 10.7231 8.41788 11.6554 7.85722 12.6482C7.40469 13.4554 6.68785 13.9518 5.88691 13.9518C4.79363 13.9518 4.15688 13.1123 4.15688 11.8733C4.15688 9.42762 6.33143 8.98368 8.38985 8.98368V9.60519M11.2612 16.5993C11.073 16.7688 10.8007 16.7809 10.5884 16.6679C9.64332 15.8769 9.47512 15.5096 8.95451 14.7549C7.39268 16.3612 6.28738 16.8414 4.261 16.8414C1.86619 16.8414 0 15.3522 0 12.3697C0 10.0411 1.25347 8.45498 3.03556 7.6801C4.58138 6.99401 6.73991 6.87293 8.38985 6.68325V6.31195C8.38985 5.62989 8.44191 4.82273 8.04544 4.2335C7.69703 3.7048 7.03226 3.48687 6.44757 3.48687C5.3623 3.48687 4.39316 4.04785 4.15688 5.21017C4.10882 5.46846 3.9206 5.72272 3.6643 5.73483L0.901058 5.43617C0.668785 5.38371 0.412483 5.19402 0.476559 4.83484C1.11331 1.46088 4.13685 0.443848 6.84403 0.443848C8.22966 0.443848 10.0398 0.815145 11.1331 1.87253C12.5187 3.17611 12.3865 4.91555 12.3865 6.80836V11.2801C12.3865 12.624 12.9392 13.2132 13.4598 13.9397C13.644 14.198 13.6841 14.5087 13.4518 14.7025C12.8711 15.1908 11.8379 16.0989 11.2692 16.6074L11.2612 16.5993" fill="#8796A5"/>
</svg>