<svg xmlns="http://www.w3.org/2000/svg" width="102" height="15" viewBox="0 0 102 15" fill="none">
<path d="M51.2652 4.87751C51.3276 3.68315 51.7573 2.70715 52.4288 1.94574V0.931152H51.5363C49.7324 0.931152 48.2052 1.62009 47.3174 3.1768H47.2655V1.10245H42.6387V13.7528H47.2664V8.64598C47.2664 6.47845 47.903 4.82574 50.4709 4.82574C50.7505 4.82762 51.0121 4.84362 51.2652 4.87751Z" fill="#8796A5"/>
<path d="M86.303 4.83135C86.6874 3.71323 87.3107 2.71747 88.1211 1.91841V0.930176H87.2305C85.4256 0.930176 83.9003 1.61912 83.0078 3.17488H82.9578V1.10241H78.3281V13.7528H82.9578V8.64594C82.9578 6.47841 83.5962 4.82571 86.1642 4.82571L86.303 4.83135Z" fill="#8796A5"/>
<path d="M60.6636 4.35704C59.9496 3.98716 58.956 3.74057 58.1655 3.74057C57.6347 3.74057 56.7177 3.96081 56.7177 4.60363C56.7177 5.46763 58.1655 5.58998 58.8059 5.7161C60.963 6.13398 62.595 7.12128 62.595 9.46104C62.595 12.789 59.466 14.1745 56.4372 14.1745C54.5795 14.1745 52.752 13.6559 51.1729 12.7185L52.8511 9.58434C53.7909 10.2281 55.3681 10.8672 56.5127 10.8672C57.0983 10.8672 57.9625 10.597 57.9625 9.90622C57.9625 8.91986 56.5127 8.8681 55.0611 8.49916C53.6133 8.12928 52.1655 7.44033 52.1655 5.17116C52.1655 2.06339 55.0611 0.68457 57.9152 0.68457C59.3905 0.68457 60.8666 0.905747 62.2115 1.49775L60.6636 4.35704Z" fill="#8796A5"/>
<path fill-rule="evenodd" clip-rule="evenodd" d="M97.3726 13.7527H102L101.998 1.10235H97.3716V2.33246C96.4055 1.22376 94.8263 0.681641 93.3266 0.681641C89.4619 0.681641 86.791 3.79035 86.791 7.41199C86.791 11.0374 89.5101 14.1696 93.3785 14.1696C94.9019 14.1696 96.5075 13.6031 97.3216 12.3456H97.3726V13.7527ZM94.5477 10.2741C92.6683 10.2741 91.5727 9.04117 91.5727 7.43929C91.5727 5.88541 92.6683 4.57999 94.5477 4.57905C96.4291 4.57905 97.5199 5.88541 97.5199 7.43929C97.5199 9.04305 96.4291 10.2741 94.5477 10.2741Z" fill="#8796A5"/>
<path fill-rule="evenodd" clip-rule="evenodd" d="M67.8545 8.18104H77.5983L77.6002 7.71139C77.6002 3.39798 74.9775 0.68457 70.4508 0.68457C66.2036 0.68457 63.2314 3.22386 63.2314 7.44033C63.2314 11.8027 66.4614 14.1716 70.7823 14.1716C73.7573 14.1716 76.6832 12.8154 77.4208 9.83092H72.9687C72.4587 10.6705 71.7475 10.9895 70.7558 10.9895C68.849 10.9895 67.8545 10.0041 67.8545 8.18104ZM70.6803 3.59281C71.9251 3.59281 73.0697 4.38151 73.2992 5.58998H67.9319C68.2162 4.28081 69.3307 3.59281 70.6803 3.59281Z" fill="#8796A5"/>
<path d="M27.9187 7.21928C27.914 7.11011 27.9064 7.00376 27.8979 6.89552C27.8979 6.89552 27.8979 6.89458 27.8979 6.89364C27.8979 6.89364 27.8979 6.8927 27.8979 6.89176C27.7941 5.71811 27.4049 4.61976 26.7448 3.62776C26.4501 3.1854 26.1129 2.78352 25.7361 2.42305C25.1855 1.89505 24.548 1.45834 23.8293 1.11293C22.7479 0.598108 21.5532 0.338344 20.2782 0.338344C20.1535 0.338344 20.0232 0.340226 19.8919 0.344932C18.9966 0.385402 18.1305 0.554814 17.3164 0.853167C16.4957 1.1487 15.7807 1.53928 15.1961 2.00799C15.0771 2.10211 14.9477 2.21787 14.8089 2.34493L14.7088 2.44281L14.5718 2.58776H14.5728H14.5737L14.5095 2.65081L14.4783 2.6847L14.3149 2.85599C14.1941 2.99152 14.0788 3.12705 13.9712 3.25976L13.9702 3.25787L13.9664 3.25411C13.7426 3.52517 13.5358 3.80564 13.3837 4.05787C13.2808 4.21976 13.1797 4.38634 13.0834 4.55293L11.7489 7.24187L11.7508 7.24376L11.6809 7.38023L11.5336 7.67764C11.2408 8.26776 10.9272 8.85599 10.5768 9.34164C9.79578 10.1953 8.91272 10.6132 7.7775 10.6132C7.69817 10.6132 7.61695 10.6094 7.53383 10.6047C6.85006 10.5774 6.26356 10.4165 5.74317 10.1096C5.68745 10.0767 5.63361 10.0428 5.58167 10.008C5.15667 9.72658 4.83083 9.36517 4.58717 8.91434C4.31233 8.40329 4.1905 7.88093 4.2075 7.32752C4.20845 7.31246 4.20939 7.29928 4.20939 7.28705C4.24622 6.40611 4.58339 5.72093 5.26245 5.12893C5.42772 4.98681 5.60056 4.86634 5.78095 4.75905C5.80645 4.74399 5.83195 4.72987 5.85745 4.7167C6.36178 4.44281 6.936 4.30634 7.59428 4.30634L7.79922 4.31199C8.84472 4.35152 9.65128 4.67717 10.2944 5.31246L12.3118 1.70305C11.8292 1.38117 11.2842 1.10446 10.6836 0.87952C10.6609 0.871049 10.6373 0.861638 10.6137 0.854108C10.5419 0.828696 10.4711 0.802344 10.3974 0.778814C9.75895 0.566108 9.08933 0.435285 8.39989 0.375991C8.38289 0.373167 8.364 0.371285 8.347 0.369402C8.24122 0.362814 8.13356 0.349638 8.02778 0.344932C7.91256 0.340226 7.79639 0.338344 7.68306 0.337402H7.61789C6.3495 0.342108 5.17083 0.600932 4.09322 1.11387C2.88622 1.69364 1.90778 2.53787 1.18245 3.62587C0.459001 4.71387 0.0642232 5.9214 0.00755656 7.2174C0.00283434 7.32846 1.00759e-06 7.43858 1.00759e-06 7.54681C-0.000943437 9.35952 0.662057 10.9539 1.9805 12.2922C3.35656 13.6965 5.14628 14.4532 7.29489 14.5426C7.43278 14.5482 7.56878 14.552 7.70478 14.552C8.92028 14.552 10.0451 14.3365 11.0538 13.9054C11.3059 13.7981 11.5506 13.672 11.8008 13.5318C11.9368 13.4536 12.0653 13.3708 12.1928 13.2823L12.2872 13.2193L12.4459 13.111C12.6367 12.9746 12.8152 12.8268 12.9889 12.6696L13.0494 12.6122C13.1514 12.5153 13.2534 12.4174 13.3497 12.3167L13.7114 11.9092L13.8493 11.7369L13.9136 11.6428L13.9778 11.5506C14.5152 10.6508 16.2643 7.37646 16.2643 7.37646V7.36987L16.3682 7.17034L16.4551 7.01411C16.7129 6.54634 16.8989 6.21411 17.1454 5.86493L17.1521 5.85458C17.7272 5.02352 18.7161 4.43152 19.8815 4.33176C21.8365 4.16423 23.5497 5.44423 23.7074 7.19105C23.8642 8.93787 22.406 10.4899 20.451 10.6583C20.0439 10.6932 19.6482 10.6659 19.2752 10.584L19.2657 10.5878C17.8311 10.2903 16.9178 9.24752 16.4673 8.78164L14.586 12.2292C14.586 12.2292 15.1706 12.8165 15.5711 13.1101C15.9724 13.4028 16.4909 13.6908 16.9046 13.8696C17.9086 14.2969 19.0003 14.5529 20.2064 14.5529C20.3462 14.5529 20.3178 14.5529 20.4633 14.5473C22.61 14.4579 24.5234 13.6381 25.9033 12.2339C27.2104 10.9002 27.9197 9.3774 27.9263 7.57505V7.5214C27.9253 7.42164 27.9225 7.32093 27.9187 7.21928Z" fill="#8796A5"/>
<path d="M35.1155 14.1801C34.1399 14.1801 33.255 14.0671 32.4607 13.8413C31.6664 13.6154 30.9883 13.2587 30.4264 12.7693C29.8625 12.2798 29.4281 11.6568 29.1221 10.901C28.8161 10.1453 28.6631 9.2342 28.6631 8.17255V1.09961H33.1275V8.11608C33.1275 8.91137 33.3183 9.48737 33.6989 9.8469C34.0804 10.2074 34.5649 10.3871 35.1524 10.3871C35.753 10.3871 36.2404 10.2196 36.6163 9.88361C36.9903 9.54761 37.1791 8.99043 37.1791 8.20737V1.09961H41.6435V8.07937C41.6435 9.17867 41.4868 10.1133 41.1741 10.8822C40.8615 11.6521 40.4205 12.2808 39.8529 12.7702C39.2824 13.2596 38.5958 13.6154 37.7883 13.8422C36.9808 14.0671 36.0902 14.1801 35.1155 14.1801Z" fill="#8796A5"/>
</svg>