<svg xmlns="http://www.w3.org/2000/svg" width="64" height="52" viewBox="0 0 64 52" fill="none">
<circle cx="29.4794" cy="25.9491" r="25.9491" fill="#8796A5"/>
<circle cx="27.9472" cy="4.98427" r="0.290909" fill="white"/>
<circle cx="30.9345" cy="5.37196" r="0.290909" fill="white"/>
<circle cx="34.8515" cy="10.6474" r="0.290909" fill="white"/>
<circle cx="13.3632" cy="37.7987" r="0.290909" fill="white"/>
<circle cx="14.119" cy="40.1259" r="0.290909" fill="white"/>
<circle cx="10.5118" cy="38.148" r="0.217859" fill="white"/>
<circle cx="22.3425" cy="42.72" r="0.218505" fill="white"/>
<circle cx="40.8975" cy="38.8653" r="0.217859" fill="white"/>
<circle cx="46.2898" cy="33.0085" r="0.218505" fill="white"/>
<circle cx="19.8604" cy="12.3487" r="0.217859" fill="white"/>
<circle cx="25.795" cy="7.99032" r="0.217859" fill="white"/>
<circle cx="25.1505" cy="7.56356" r="0.217859" fill="white"/>
<circle cx="24.5684" cy="7.1368" r="0.217859" fill="white"/>
<circle cx="20.7911" cy="13.4742" r="0.217859" fill="white"/>
<circle cx="29.5323" cy="2.13339" r="0.217859" fill="white"/>
<circle cx="30.9679" cy="8.41708" r="0.217859" fill="white"/>
<circle cx="28.7032" cy="7.19003" r="0.217859" fill="white"/>
<circle cx="24.8253" cy="8.85848" r="0.217859" fill="white"/>
<circle cx="41.9307" cy="44.6212" r="0.217859" fill="white"/>
<circle cx="12.9949" cy="39.2727" r="0.218505" fill="white"/>
<circle cx="28.1609" cy="42.0847" r="0.218505" fill="white"/>
<circle cx="17.5085" cy="39.0984" r="0.218505" fill="white"/>
<circle cx="19.3943" cy="42.1775" r="0.218505" fill="white"/>
<circle cx="33.2804" cy="40.2379" r="0.217859" fill="white"/>
<circle cx="40.9356" cy="35.9176" r="0.217859" fill="white"/>
<circle cx="46.7403" cy="38.5694" r="0.217859" fill="white"/>
<circle cx="48.7179" cy="39.835" r="0.217859" fill="white"/>
<circle cx="49.0431" cy="36.3829" r="0.217859" fill="white"/>
<circle cx="20.1847" cy="31.4957" r="0.217859" fill="white"/>
<circle cx="20.2675" cy="36.4994" r="0.290909" fill="white"/>
<circle cx="22.0126" cy="40.1845" r="0.290909" fill="white"/>
<circle cx="42.9198" cy="36.3441" r="0.290909" fill="white"/>
<circle cx="50.4442" cy="35.9179" r="0.290909" fill="white"/>
<circle cx="46.7206" cy="34.3275" r="0.290909" fill="white"/>
<circle cx="42.9198" cy="34.4823" r="0.290909" fill="white"/>
<path d="M35.0782 4.80213L35.8016 4.73296L35.0795 4.69223C35.0568 4.55259 34.945 4.44334 34.8041 4.42524L34.7349 3.70508L34.6935 4.43106C34.563 4.46015 34.4627 4.5694 34.4466 4.70516L33.707 4.77239L34.4518 4.81247C34.4789 4.93724 34.5798 5.03486 34.7065 5.05813L34.7737 5.80027L34.8131 5.05942C34.947 5.0368 35.053 4.93401 35.0782 4.80213Z" fill="white"/>
<path d="M22.8692 12.8558L23.5926 12.7867L22.8705 12.7459C22.8485 12.6063 22.736 12.4971 22.5951 12.479L22.5259 11.7588L22.4852 12.4848C22.354 12.5139 22.2538 12.6231 22.2376 12.7589L21.498 12.8261L22.2428 12.8662C22.2699 12.991 22.3708 13.0886 22.4975 13.1118L22.5647 13.854L22.6048 13.1131C22.7386 13.0912 22.8446 12.9877 22.8692 12.8558Z" fill="white"/>
<path d="M49.9145 34.1488L50.6378 34.0796L49.9157 34.0389C49.8938 33.8993 49.7813 33.79 49.6403 33.7719L49.5712 33.0518L49.5305 33.7777C49.3999 33.8068 49.2997 33.9161 49.2835 34.0518L48.5439 34.1191L49.2887 34.1592C49.3158 34.2839 49.4167 34.3815 49.5434 34.4048L49.6106 35.1469L49.6507 34.4061C49.7832 34.3841 49.8892 34.2813 49.9145 34.1488Z" fill="white"/>
<path d="M20.4258 45.2824L21.1492 45.2133L20.4271 45.1725C20.4045 45.0329 20.2927 44.9237 20.1517 44.9056L20.0826 44.186L20.0418 44.9114C19.9106 44.9405 19.8104 45.0497 19.7942 45.1855L19.0547 45.2527L19.7994 45.2928C19.8266 45.4176 19.9274 45.5158 20.0541 45.5384L20.1214 46.2806L20.1614 45.5397C20.2946 45.5178 20.4013 45.4143 20.4258 45.2824Z" fill="white"/>
<path d="M47.6156 39.8519L48.339 39.7828L47.6169 39.742C47.5949 39.6024 47.4825 39.4931 47.3415 39.475L47.2723 38.7549L47.2316 39.4802C47.101 39.5093 47.0008 39.6186 46.9847 39.7543L46.2451 39.8215L46.9898 39.8616C47.017 39.9864 47.1178 40.084 47.2446 40.1073L47.3118 40.8494L47.3519 40.1086C47.4844 40.0872 47.5911 39.9838 47.6156 39.8519Z" fill="white"/>
<path fill-rule="evenodd" clip-rule="evenodd" d="M36.1516 19.5309C41.5547 17.4099 47.124 14.91 50.6576 12.8387C53.7684 11.015 58.997 7.79628 63.4195 2.17139C60.9449 9.36681 54.5093 14.7686 51.5215 17.2764C51.4652 17.3237 51.4102 17.3699 51.3564 17.415C49.247 19.187 45.6268 21.8368 40.2469 25.437C40.0756 25.1403 39.8985 24.8423 39.7156 24.5442C43.2666 22.1181 49.0906 17.7654 50.8522 16.0962C47.1544 18.6375 42.4941 20.7372 38.2468 22.3016C37.7109 21.5356 37.1413 20.7702 36.5375 20.0099C36.4095 19.849 36.2809 19.6893 36.1516 19.5309ZM35.6331 19.7332C32.6161 20.9059 29.6734 21.9526 27.1903 22.7296L26.9485 22.8053C21.7164 24.4429 8.20964 28.6705 0 33.9781L0.698182 34.2496C5.33179 31.6321 8.4865 30.6516 11.4139 29.7418L11.4139 29.7418C11.6967 29.6539 11.9773 29.5667 12.257 29.4787C14.1336 28.8883 18.288 27.847 22.501 26.7911L22.5011 26.7911C26.038 25.9046 29.6161 25.0078 31.9224 24.3587C33.6297 23.8784 35.6293 23.2494 37.7471 22.484C37.2545 21.7968 36.7347 21.1076 36.1878 20.4198C36.0048 20.1877 35.8193 19.9589 35.6331 19.7332ZM39.3193 24.8138C38.5888 25.3071 37.9766 25.7008 37.548 25.949C35.0655 27.3842 22.9631 35.646 20.2098 37.5466C17.7257 39.2613 11.2623 45.3016 8.36992 48.0048L8.36984 48.0048L8.36926 48.0054C8.05606 48.2981 7.78475 48.5516 7.56493 48.7563L7.48735 49.609C14.0175 43.7423 16.513 41.8547 19.0497 39.9361C19.3306 39.7236 19.612 39.5107 19.8995 39.292C23.468 36.5769 30.8499 31.5539 33.3589 29.9442C35.7573 28.4056 37.9203 26.9905 39.8617 25.6956C39.83 25.6426 39.7983 25.5896 39.7666 25.5359C39.6205 25.2961 39.4712 25.0556 39.3193 24.8138Z" fill="#96A3B0"/>
<path fill-rule="evenodd" clip-rule="evenodd" d="M17.8965 9.62125C21.4689 6.78262 29.7546 11.4727 36.5373 20.0099C43.32 28.5471 45.8548 37.8065 42.5552 40.4285C41.1822 41.5191 38.4625 41.084 35.6232 39.9424C35.5657 39.9042 35.492 39.7484 35.5379 39.6909C38.8271 41.1713 41.3379 40.8862 42.1596 40.1596C44.845 37.7851 43.6523 31.9682 39.7657 25.5359C38.7508 23.857 37.5523 22.1349 36.1889 20.4191C29.6027 12.1295 21.6622 7.42133 18.3736 10.0343C15.7567 12.114 16.813 18.2419 20.6731 24.8358L20.6631 24.8392C20.4724 24.904 20.2799 24.9695 20.0854 25.0362C16.2609 18.2684 15.1219 11.8257 17.8965 9.62125ZM25.182 31.1835L25.1819 31.1833L25.1818 31.1833C24.8343 30.7537 24.4833 30.3199 24.1827 29.9416C23.3882 28.9415 22.6532 27.9311 21.9796 26.9219C21.7624 26.9762 21.546 27.0305 21.3295 27.0848L21.329 27.0849L21.3215 27.0868C22.1347 28.3558 23.0378 29.6229 24.0217 30.8615C24.3705 31.3006 24.704 31.6982 24.9931 32.0429L24.9931 32.043C25.2998 32.4087 25.5567 32.715 25.7291 32.9483C25.7828 33.0209 25.8782 33.1631 26.0056 33.3532L26.0057 33.3534L26.1131 33.5133L26.7472 33.0827C26.541 32.8584 26.3374 32.6225 26.1402 32.3742C25.8576 32.0184 25.5214 31.603 25.182 31.1835ZM29.4954 35.5025L29.4954 35.5025C28.9482 35.0828 28.243 34.5419 27.5204 33.863C27.2586 34.0427 26.9942 34.225 26.7291 34.4086C27.4952 35.4882 28.5386 36.8141 29.3557 37.2007C30.5866 37.7838 30.9182 36.7353 30.3164 36.1651C30.1327 35.9912 29.8466 35.7718 29.4954 35.5025Z" fill="white"/>
<path d="M7.44824 21.0229H11.7925L15.4385 27.2096C15.4385 27.2096 15.4385 22.7296 15.4385 22.3805C15.4385 21.8375 14.7501 21.1296 14.5076 21.0229C14.7985 21.0229 17.3392 21.0229 17.5137 21.0229C17.3295 21.0714 16.7379 21.789 16.7379 22.3805C16.7379 22.6714 16.7379 29.1684 16.7379 29.4787C16.7379 29.9151 17.3682 30.5163 17.6688 30.749H13.4798L9.77551 24.5333C9.77551 24.5333 9.77551 29.1684 9.77551 29.4205C9.77551 29.9054 10.2507 30.3708 10.7452 30.7684H7.54521C8.00097 30.5745 8.43733 29.9636 8.47612 29.4787C8.51491 28.9939 8.47612 22.7393 8.47612 22.4678C8.47612 21.8763 7.904 21.3914 7.44824 21.0229Z" fill="white"/>
<path fill-rule="evenodd" clip-rule="evenodd" d="M47.1864 30.749H52.9658C52.6458 30.6714 52.287 30.2933 52.0931 29.789C51.8991 29.2848 48.8349 21.0229 48.8349 21.0229H46.6376C46.0144 21.4716 45.3466 21.9448 44.6335 22.4432C44.6316 22.4613 44.6296 22.4794 44.6264 22.4969C44.5307 23.0787 42.8111 29.3067 42.7064 29.6145C42.5928 29.9476 42.1129 30.3102 41.7648 30.5732C41.667 30.6471 41.5796 30.7131 41.5137 30.7684H44.6264C44.3161 30.4193 44.064 30.0799 44.1222 29.692C44.1803 29.3042 44.3549 28.5284 44.3549 28.5284H47.5743C47.7197 28.9163 47.8283 29.2647 47.8846 29.5951C47.9525 29.9926 47.5452 30.4387 47.1864 30.749ZM44.6458 27.2872L45.7319 23.7381L47.167 27.2872H44.6458ZM44.6361 21.0229C44.4764 21.1413 44.3161 21.2596 44.1564 21.3772C44.0372 21.2465 43.9193 21.1389 43.835 21.0619C43.8196 21.0479 43.8054 21.0349 43.7925 21.0229H44.6361Z" fill="white"/>
<path fill-rule="evenodd" clip-rule="evenodd" d="M22.2846 28.5284C22.2846 28.5284 22.11 29.3042 22.0518 29.692C21.9937 30.0799 22.2458 30.4193 22.5561 30.7684H19.4434C19.5093 30.7131 19.5967 30.6471 19.6945 30.5732C20.0426 30.3102 20.5225 29.9476 20.6361 29.6145C20.7408 29.3067 22.4611 23.0787 22.5561 22.4969C22.6578 21.8771 22.0272 21.3015 21.7584 21.0562C21.7455 21.0443 21.7333 21.0332 21.7221 21.0229H26.7646C26.7646 21.0229 29.8288 29.2848 30.0228 29.789C30.1423 30.1 30.324 30.3618 30.5212 30.5363C30.4582 30.5784 30.3952 30.6208 30.3321 30.6632C30.2896 30.6918 30.2471 30.7204 30.2044 30.749H25.1161C25.4749 30.4387 25.8821 29.9926 25.8143 29.5951C25.758 29.2647 25.6494 28.9163 25.504 28.5284H22.2846ZM25.0967 27.2872L23.6615 23.7381L22.5755 27.2872H25.0967Z" fill="white"/>
<path fill-rule="evenodd" clip-rule="evenodd" d="M37.9929 24.8237C38.2315 24.9362 38.4804 25.0635 38.726 25.209C38.2554 25.5186 37.854 25.7721 37.5475 25.9485C37.0911 26.2116 36.3115 26.7055 35.3256 27.3468C35.1944 27.3048 35.0735 27.2654 34.9675 27.2285L34.9467 27.2213C33.9152 26.8613 32.117 26.2339 32.1845 23.9704C32.2329 22.3406 33.6681 21.0516 35.336 21.0419C36.7905 21.0335 38.0608 21.2358 38.8075 21.391C39.1639 21.465 39.5507 21.0618 39.6878 20.9189C39.7004 20.9058 39.7108 20.8949 39.719 20.8867V23.3885C39.3893 23.1073 38.1675 22.3219 36.8487 22.3025C35.5299 22.2831 34.9895 22.7957 35.1808 23.3497C35.3641 23.8799 36.0155 24.1008 36.8013 24.3673C37.1798 24.4956 37.5894 24.6345 37.9929 24.8237ZM39.6279 25.8509C38.6788 26.4832 37.6775 27.1432 36.6224 27.8323C37.0957 28.0618 37.4725 28.3502 37.5087 28.7225C37.576 29.422 36.1706 29.7601 34.9003 29.6146C34.6462 29.5855 34.3967 29.519 34.1588 29.4297C33.895 29.5998 33.6287 29.7711 33.3584 29.9443C33.0837 30.1208 32.7501 30.338 32.3693 30.5889V31.5928C32.6215 31.0983 33.1729 30.6554 33.6009 30.6328C33.6393 30.6308 33.6976 30.6549 33.7897 30.6931L33.7897 30.6931C34.139 30.8378 34.9753 31.1843 37.0627 31.0692C38.3427 30.9987 40.8154 29.634 40.7766 28.0631C40.7533 27.1348 40.2685 26.4108 39.6279 25.8509ZM32.3687 28.2765V29.2992C32.6021 29.1434 32.8322 28.9902 33.0578 28.8408C32.7029 28.5939 32.4515 28.3631 32.3687 28.2765Z" fill="white"/>
</svg>