<svg xmlns="http://www.w3.org/2000/svg" width="89" height="25" viewBox="0 0 89 25" fill="none">
<path fill-rule="evenodd" clip-rule="evenodd" d="M10.1175 23.1802H10.1175H10.1175C9.5701 23.236 9.01674 23.2924 8.45585 23.3677L4.20555 10.817V23.9064C3.01126 24.0331 1.91147 24.198 0.786786 24.3666L0.419922 24.4215V0.443848H3.95023L8.78095 14.0486V0.443848H12.5202V22.876C11.7292 23.016 10.93 23.0974 10.1175 23.1802ZM22.4213 9.18849L22.4214 9.18849C23.2989 9.1713 24.1584 9.15446 24.8063 9.15446V12.9009C23.1573 12.9009 21.2297 12.9009 19.8361 12.9712V18.5442C20.4553 18.5043 21.0745 18.4607 21.6942 18.4171C23.2595 18.3068 24.8282 18.1963 26.4088 18.146V21.7518L16.12 22.5715V0.443848H26.4088V4.19036H19.8361V9.22473C20.5713 9.22473 21.5061 9.20642 22.4213 9.18849ZM36.3724 4.19045H40.2277L40.2279 0.443848H28.8012V4.19045H32.6565V21.4711C33.864 21.4244 35.1182 21.4244 36.3724 21.4244V4.19045ZM46.2662 8.96723H51.3526V12.7137H46.2662V21.2136H42.6196V0.443848H53.0016V4.19036H46.2662V8.96723ZM63.6676 18.1612C62.1368 18.0661 60.5823 17.9694 59.04 17.9353V0.443848H55.3241V21.4711C58.7149 21.5415 62.0362 21.7519 65.3573 21.9628V18.2631C64.7985 18.2315 64.2347 18.1965 63.6676 18.1612ZM68.4926 22.2204L68.6878 22.232L68.6879 22.232C69.8144 22.2987 70.9975 22.3687 72.139 22.5013V0.443848H68.4926V22.2204ZM83.7051 11.8473L88.4199 0.443848H84.3555L81.7542 6.74268L79.3155 0.443848H75.321L79.641 11.7067L74.8567 22.6886C75.4135 22.7661 75.9624 22.8235 76.51 22.8808C77.2869 22.9621 78.0611 23.0431 78.8514 23.1806L81.5685 16.8115L84.2392 23.7424C84.5873 23.8009 84.9354 23.8609 85.2835 23.9208C86.329 24.1009 87.3744 24.281 88.4199 24.4215L83.7051 11.8473Z" fill="#8796A5"/>
</svg>