<svg xmlns="http://www.w3.org/2000/svg" width="139" height="21" viewBox="0 0 139 21" fill="none">
<path d="M82.7029 11.7372C82.4943 11.7006 81.7944 11.5846 81.5895 11.5471C80.4839 11.3488 79.5372 11.091 79.5372 9.98149C79.5372 9.02886 80.5384 8.58441 81.7845 8.58441C83.6386 8.58441 85.2647 9.42248 85.4503 9.51498L86.4668 6.84057C86.0757 6.63817 84.4213 5.7566 81.8159 5.7566C79.4297 5.7566 76.515 7.00643 76.515 10.1159C76.515 12.8986 78.5086 13.7917 80.4299 14.1289C80.6951 14.1776 81.5292 14.3197 81.7677 14.3612C83.0599 14.5791 83.7697 15.0591 83.7697 15.9024C83.7697 16.9729 82.7616 17.4748 81.2356 17.4748C78.7922 17.4748 77.3585 16.7484 76.9444 16.5785L75.8184 19.1951C76.168 19.3749 77.8361 20.313 81.0909 20.313C84.2493 20.313 86.7839 18.7527 86.7839 15.8487C86.7593 13.1455 84.9376 12.12 82.7029 11.7372Z" fill="#8796A5"/>
<path d="M92.347 0.886494L89.3579 2.5358V6.02845H87.7842V8.87975H89.3579V15.0439C89.3579 17.6771 90.443 20.0415 94.2703 20.0415H95.4671V17.1877H95.0184C93.137 17.1877 92.347 16.1048 92.347 14.634V8.87975L95.7801 8.87975V6.02845L92.347 6.02845V0.886494Z" fill="#8796A5"/>
<path d="M115.7 8.65552C116.866 8.65552 118.061 9.18473 118.42 10.4651L121.132 9.43613C120.372 6.75806 117.878 5.7566 115.678 5.7566C111.736 5.7566 110.146 8.19843 110.146 10.5718V15.4968C110.146 17.8692 111.736 20.313 115.678 20.313C117.878 20.313 120.372 19.3101 121.132 16.632L118.42 15.6034C118.061 16.8824 116.866 17.4147 115.7 17.4147C113.669 17.4147 113.13 16.3056 113.13 15.0414V11.0262C113.13 9.76334 113.669 8.65552 115.7 8.65552Z" fill="#8796A5"/>
<path d="M128.482 12.3224L134.07 6.02845H130.394L125.587 11.5145V0.887068H122.596V20.0415H125.587V15.5815L126.569 14.4761L130.849 20.0415H134.436L128.482 12.3224Z" fill="#8796A5"/>
<path d="M104.142 9.08606H101.034C100.539 9.08606 100.138 9.48658 100.138 9.97761V13.3418H97.0723V9.97761C97.0723 7.7956 98.8446 6.02828 101.034 6.02828H104.142V9.08606Z" fill="#8796A5"/>
<path d="M101.612 16.9833H104.722C105.215 16.9833 105.617 16.5834 105.617 16.0907V12.7276H108.682V16.0907C108.682 18.2727 106.91 20.0415 104.722 20.0415H101.612V16.9833Z" fill="#8796A5"/>
<path d="M50.922 6.02845H54.3541V8.87975H50.922V14.634C50.922 16.1048 51.7116 17.1877 53.5914 17.1877H54.0401V20.0415L52.8428 20.0415C49.0144 20.0415 47.9326 17.6771 47.9326 15.0439V8.87975L42.9015 8.87975V14.634C42.9015 16.1048 43.6926 17.1877 45.5723 17.1877H46.0196V20.0415H44.8219C40.9951 20.0415 39.9108 17.6771 39.9108 15.0439V8.87975H38.3955V6.02845H39.9108V2.5358L42.9015 0.886494V6.02845L47.9326 6.02845V2.5358L50.922 0.886494V6.02845Z" fill="#8796A5"/>
<path d="M18.6515 5.75656C17.7059 5.75656 16.7465 5.9392 15.8832 6.30396V0.886494H12.8936L12.8936 20.0415H15.8832L15.8832 9.09157C16.484 8.71509 17.3484 8.49026 18.1935 8.49026C20.0726 8.49026 20.9571 9.5323 20.9571 11.0691V20.0415H23.9441V10.6618C23.9441 7.83337 21.8902 5.75656 18.6515 5.75656Z" fill="#8796A5"/>
<path d="M33.8031 17.2548C33.2348 17.5605 32.5157 17.7358 31.8002 17.7358C29.569 17.7358 28.7303 16.6022 28.7303 15.0387V6.02849H25.7412V15.0936C25.7412 18.6173 27.783 20.313 31.4323 20.313C33.1799 20.313 35.1153 19.8722 36.7911 19.1486V6.02849H33.8031V17.2548Z" fill="#8796A5"/>
<path d="M7.30393 11.7372C7.09692 11.7006 6.39599 11.5846 6.19039 11.5471C5.08709 11.3488 4.13817 11.091 4.13817 9.98149C4.13817 9.02886 5.13848 8.58441 6.38598 8.58441C8.23976 8.58441 9.86583 9.42248 10.0514 9.51498L11.0672 6.84057C10.6788 6.63817 9.02279 5.7566 6.41586 5.7566C4.03128 5.7566 1.11615 7.00643 1.11615 10.1159C1.11615 12.8986 3.10755 13.7917 5.03139 14.1289C5.29616 14.1776 6.13079 14.3197 6.37083 14.3612C7.6625 14.5791 8.36919 15.0591 8.36919 15.9024C8.36919 16.9729 7.36417 17.4748 5.8388 17.4748C3.39322 17.4748 1.9596 16.7484 1.54494 16.5785L0.419922 19.1951C0.770697 19.3749 2.43816 20.313 5.69302 20.313C8.85142 20.313 11.3861 18.7527 11.3861 15.8487C11.3589 13.1455 9.53762 12.12 7.30393 11.7372Z" fill="#8796A5"/>
<path fill-rule="evenodd" clip-rule="evenodd" d="M61.2338 5.7556C64.7554 5.7556 66.7139 8.00868 66.7139 10.5718V14.3867L58.684 14.3867L58.6944 15.1543C58.6944 16.4431 59.4053 17.4717 61.2537 17.4717C62.6172 17.4717 63.6163 16.5979 63.8318 15.9752L66.3553 17.4874C65.8836 18.5477 64.2947 20.313 61.2338 20.313C57.764 20.313 55.7012 18.4458 55.7012 15.226V10.5718C55.7012 8.24559 57.2361 5.7556 61.2338 5.7556ZM58.684 11.9725L63.7243 11.9725V10.8976C63.7243 9.78379 63.112 8.59587 61.2196 8.59587C59.2564 8.59587 58.684 9.81563 58.684 10.9529V11.9725Z" fill="#8796A5"/>
<path d="M68.627 10.5771V20.0415H71.6139V10.8317C71.6139 10.0274 72.0716 8.65282 74.2654 8.65282C74.6098 8.65282 75.3883 8.75065 75.6373 8.79724V5.90668C75.3679 5.84173 74.7503 5.75556 74.1124 5.75556C70.3128 5.75556 68.627 8.13261 68.627 10.5771Z" fill="#8796A5"/>
<path fill-rule="evenodd" clip-rule="evenodd" d="M135.36 7.11609C135.36 7.92247 136.015 8.53418 136.823 8.53418C137.632 8.53418 138.28 7.92247 138.28 7.11609C138.28 6.31666 137.624 5.66307 136.823 5.66307C136.015 5.66307 135.36 6.30992 135.36 7.11609ZM136.823 5.98987C136.19 5.98987 135.729 6.48398 135.729 7.11609C135.729 7.70699 136.196 8.20738 136.823 8.20738C137.457 8.20738 137.911 7.70699 137.911 7.11609C137.911 6.49031 137.416 5.98987 136.823 5.98987ZM137.018 7.80425C137.026 7.81789 137.039 7.82464 137.054 7.82464H137.381C137.395 7.82464 137.402 7.81094 137.395 7.79687L137.116 7.3038C137.304 7.2203 137.408 7.0397 137.408 6.84487V6.81711C137.408 6.59525 137.241 6.35855 136.865 6.35855H136.308V7.79687C136.308 7.81094 136.322 7.82464 136.335 7.82464H136.615C136.628 7.82464 136.636 7.81094 136.636 7.79687V7.3175H136.795L137.018 7.80425ZM136.823 6.60895C137.011 6.60895 137.081 6.7129 137.081 6.82385V6.84487C137.081 6.9907 137.026 7.08116 136.823 7.08116H136.636V6.60895H136.823Z" fill="#8796A5"/>
</svg>