<svg xmlns="http://www.w3.org/2000/svg" width="111" height="41" viewBox="0 0 111 41" fill="none">
<path fill-rule="evenodd" clip-rule="evenodd" d="M19.6331 4.66065L35.8767 0.443848L40.2399 16.2838L37.7831 20.3906L40.2399 24.497L35.8767 40.3006L19.6331 36.047L17.2131 31.9038L12.3367 31.9406L0.419922 20.3538L12.3367 8.76705L17.2131 8.80385L19.6331 4.66065ZM17.6167 9.46385L30.0467 6.34705L22.8967 18.3738H8.59672L17.6167 9.46385ZM26.3799 20.3538L33.5299 32.3806L36.9767 20.3538L33.5299 8.32705L26.3799 20.3538ZM8.63312 22.297L17.6167 31.207L30.0831 34.3238L22.9331 22.297H8.63312ZM72.7631 12.1406C70.5999 12.1406 69.1331 13.057 68.0331 14.7438H67.9599V12.5806H64.1467V28.4938H68.0331V19.4738C68.0331 17.3106 69.3899 15.807 71.2599 15.807C73.0199 15.807 74.3399 16.8706 74.3399 18.7406V28.5306H78.2267V18.117C78.2631 14.6338 76.0631 12.1406 72.7631 12.1406ZM55.0531 25.377C57.0331 25.377 58.2431 23.9106 58.2431 21.7838H58.2799V12.5806H62.1667V28.5306H58.4267V26.6606H58.3167C57.2531 28.127 56.0067 28.9706 53.7699 28.9706C50.2131 28.9706 48.2331 26.697 48.2331 23.2138V12.5806H52.1199V22.4806C52.1199 24.3506 53.2567 25.377 55.0531 25.377ZM80.3167 12.5806H84.2031V28.4938H80.3167V12.5806ZM84.2031 7.63065H80.3167V10.8206H84.2031V7.63065ZM106.24 12.5806L103.93 19.767C103.417 21.2338 103.013 23.2506 103.013 23.2506H102.903C102.903 23.2506 102.39 21.2338 101.877 19.767L99.2731 12.5806H95.0931L99.3831 23.9106C100.3 26.3306 100.593 27.357 100.593 28.237C100.593 29.557 99.8967 30.4006 98.2467 30.4006H96.7431V33.737H99.2367C102.463 33.737 103.6 32.4538 104.81 28.9338L110.42 12.617H106.24V12.5806ZM91.4631 15.4038V23.837C91.4631 25.0106 92.1231 25.4138 93.0399 25.377H94.0299V28.457C94.0299 28.457 93.5899 28.5306 91.9031 28.5306C89.8499 28.5306 87.5767 27.7238 87.5767 24.717V15.367H85.3767V12.5806H87.5767V7.63065H91.4631V12.617H93.9567V15.4038H91.4631Z" fill="#8796A5"/>
</svg>