<?xml version="1.0" encoding="iso-8859-1"?>
<!-- Generator: Adobe Illustrator 18.1.0, SVG Export Plug-In . SVG Version: 6.00 Build 0)  -->
<!DOCTYPE svg PUBLIC "-//W3C//DTD SVG 1.1//EN" "http://www.w3.org/Graphics/SVG/1.1/DTD/svg11.dtd">
<svg version="1.1" id="Layer_1" xmlns="http://www.w3.org/2000/svg" xmlns:xlink="http://www.w3.org/1999/xlink" x="0px" y="0px"
	 viewBox="0 0 300 300" style="enable-background:new 0 0 300 300;" xml:space="preserve">
<g>
	<rect style="fill:#E57373;" width="300" height="300"/>
	<polygon style="fill:#DC6263;" points="300,127.098 235.403,62.501 208.628,80.722 180.868,52.961 67.798,107.196 109.076,148.475 
		51.219,187.85 106.084,242.715 99.734,247.036 152.698,300 300,300 	"/>
	<g>
		<g>
			<polygon style="fill:#33383D;" points="200.264,247.036 162.985,158.066 152.704,162.499 187.753,247.036 			"/>
			<polygon style="fill:#33383D;" points="112.249,247.036 147.298,162.499 137.013,158.066 99.734,247.036 			"/>
			<rect x="123.319" y="208.823" style="fill:#33383D;" width="53.365" height="6.813"/>
		</g>
		<rect x="51.219" y="178.31" style="fill:#4B5155;" width="197.561" height="9.539"/>
		<rect x="119.13" y="52.961" style="fill:#33383D;" width="61.738" height="9.539"/>
		<g>
			<rect x="64.595" y="62.501" style="fill:#FFFFFF;" width="170.808" height="115.81"/>
			<rect x="64.595" y="146.91" style="fill:#84D2F6;" width="170.808" height="31.4"/>
			<g>
				<polygon style="fill:#4B5155;" points="137.137,131.99 122.213,146.91 152.057,146.91 				"/>
				<polygon style="fill:#4B5155;" points="204.879,123.934 181.897,146.91 227.861,146.91 				"/>
				<polygon style="fill:#33383D;" points="105.348,111.411 69.849,146.91 140.848,146.91 				"/>
			</g>
			<g>
				<circle style="fill:#FFCB28;" cx="118.379" cy="87.719" r="10.977"/>
				<path style="fill:#D9D8D7;" d="M201.715,84.598c-0.234,0-0.465,0.022-0.688,0.073c0-0.013,0-0.026,0-0.038
					c0-3.065-2.484-5.548-5.546-5.548c-2.587,0-4.763,1.771-5.374,4.167c-0.283-0.064-0.577-0.094-0.875-0.094
					c-2.236,0-4.052,1.814-4.052,4.052c0,2.238,1.816,4.047,4.052,4.047h12.483c1.839,0,3.329-1.488,3.329-3.331
					C205.044,86.09,203.554,84.598,201.715,84.598z"/>
				<path style="fill:#D9D8D7;" d="M144.522,101.28c0.004,0,0.006,0.004,0.006,0.004c0-0.09-0.006-0.18-0.006-0.274
					c0-5.209,4.221-9.428,9.43-9.428c4.253,0,7.85,2.821,9.025,6.697c0.712-0.335,1.503-0.519,2.339-0.519
					c3.036,0,5.494,2.461,5.494,5.492c0,0.699-0.129,1.368-0.369,1.985c0.062-0.004,0.12-0.013,0.182-0.013
					c1.944,0,3.522,1.582,3.522,3.528c0,1.942-1.578,3.52-3.522,3.52h-26.101c-3.038,0-5.496-2.461-5.496-5.497
					C139.026,103.741,141.484,101.28,144.522,101.28z"/>
			</g>
		</g>
	</g>
</g>
</svg>
