<svg xmlns="http://www.w3.org/2000/svg" width="20" height="20" fill="none"><path d="M10 .248c-5.525 0-10 4.477-10 10a9.998 9.998 0 006.838 9.487c.5.094.683-.215.683-.48 0-.238-.008-.867-.013-1.7-2.781.603-3.368-1.342-3.368-1.342-.455-1.155-1.112-1.463-1.112-1.463-.906-.62.07-.607.07-.607 1.004.07 1.531 1.03 1.531 1.03.892 1.529 2.341 1.087 2.913.831.09-.646.347-1.087.633-1.337-2.22-.25-4.555-1.11-4.555-4.942 0-1.092.388-1.983 1.03-2.683-.113-.253-.45-1.27.087-2.647 0 0 .837-.268 2.75 1.025.8-.222 1.65-.332 2.5-.337.85.005 1.7.115 2.5.337 1.9-1.293 2.737-1.025 2.737-1.025.538 1.378.2 2.394.1 2.647.638.7 1.025 1.591 1.025 2.683 0 3.842-2.337 4.688-4.562 4.933.35.3.675.914.675 1.85 0 1.339-.013 2.414-.013 2.739 0 .262.175.575.688.475A9.965 9.965 0 0020 10.248c0-5.523-4.477-10-10-10z" fill="#96A3B0"/></svg>