<svg height="301.354" viewBox="0 0 1000 301.35401" width="1000" xmlns="http://www.w3.org/2000/svg"><g fill-rule="evenodd"><path d="m620.38044 235.66818c-58.11169 42.83292-142.34105 65.68583-214.86092 65.68583-101.68461 0-193.22683-37.60937-262.48206-100.16107-5.44116-4.91885-.5659-11.62235 5.96353-7.79179 74.7399 43.48586 167.15276 69.64701 262.61265 69.64701 64.37988 0 135.20216-13.32001 200.32209-40.96113 9.83763-4.17885 18.06468 6.44234 8.44471 13.58115" fill="#f90"/><path d="m644.53924 208.02705c-7.40002-9.4894-49.10114-4.48353-67.81875-2.26353-5.70237.69648-6.57292-4.26588-1.43649-7.83531 33.21291-23.37526 87.71169-16.6282 94.06697-8.79293 6.35527 7.87883-1.65411 62.5082-32.86468 88.58226-4.78823 4.00469-9.35881 1.87178-7.22586-3.43882 7.00822-17.49881 22.72234-56.71874 15.27881-66.25167" fill="#f90"/><path d="m578.02637 32.908411v-22.722322c0-3.4388179 2.61176-5.7458719 5.74588-5.7458719h101.72809c3.26472 0 5.87648 2.350589 5.87648 5.7458719v19.457626c-.0435 3.264696-2.78588 7.530573-7.66119 14.277622l-52.71404 75.262273c19.58823-.47879 40.26468 2.43764 58.02466 12.4494 4.00469 2.26352 5.09293 5.57175 5.39763 8.83648v24.24586c0 3.30822-3.65647 7.1823-7.48705 5.17997-31.29762-16.41058-72.86816-18.19528-107.474.17413-3.52587 1.9153-7.22586-1.91528-7.22586-5.22353v-23.02702c0-3.69999.0435-10.01178 3.74349-15.62706l61.07171-87.581077h-53.14934c-3.2647 0-5.87646-2.307035-5.87646-5.702352"/><path d="m206.93856 174.68354h-30.94937c-2.95998-.21762-5.31057-2.43762-5.52823-5.26706v-158.838596c0-3.1776439 2.6553-5.7023669 5.96352-5.7023669h28.85996c3.00356.1305 5.39764 2.437637 5.61531 5.3105719v20.763532h.56588c7.53057-20.067061 21.6776-29.4258739 40.74347-29.4258739 19.37056 0 31.47173 9.3588129 40.1776 29.4258739 7.48705-20.067061 24.50702-29.4258739 42.74584-29.4258739 12.97175 0 27.16232 5.354111 35.82467 17.3682159 9.7941 13.363512 7.79174 32.777604 7.79174 49.797606l-.0435 100.248121c0 3.17763-2.6553 5.74585-5.96352 5.74585h-30.90587c-3.09056-.21762-5.57173-2.69879-5.57173-5.74585v-84.185796c0-6.703515.60937-23.418792-.8706-29.774097-2.30705-10.664664-9.22821-13.66822-18.19529-13.66822-7.48705 0-15.32232 5.00588-18.49997 13.015301-3.17765 8.009403-2.87294 21.416417-2.87294 30.427016v84.185796c0 3.17763-2.65529 5.74585-5.96353 5.74585h-30.90582c-3.13412-.21762-5.57177-2.69879-5.57177-5.74585l-.0435-84.185796c0-17.716441 2.91643-43.790545-19.06586-43.790545-22.24353 0-21.37294 25.421136-21.37294 43.790545v84.185796c0 3.17763-2.6553 5.74585-5.96352 5.74585"/><path d="m778.9579 1.5237471c45.92348 0 70.77872 39.4376019 70.77872 89.5834349 0 48.448168-27.46705 86.884588-70.77872 86.884588-45.09643 0-69.647-39.4376-69.647-88.582238 0-49.449363 24.85527-87.8857849 69.647-87.8857849m.26116 32.4293949c-22.80937 0-24.24586 31.079935-24.24586 50.450525 0 19.414093-.3047 60.854033 23.9847 60.854033 23.98467 0 25.11645-33.43052 25.11645-53.802307 0-13.407014-.56589-29.425821-4.61414-42.136414-3.48235-11.056426-10.40349-15.365837-20.24115-15.365837"/><path d="m909.2848 174.68354h-30.81878c-3.0906-.21762-5.57177-2.69879-5.57177-5.74585l-.0435-158.882188c.26118-2.9164689 2.82943-5.1799849 5.96353-5.1799849h28.68587c2.69879.1305 4.91879 1.958823 5.52823 4.439997v24.2893669h.56585c8.66237-21.721141 20.80702-32.0811339 42.17994-32.0811339 13.88587 0 27.42351 5.005884 36.12938 18.7176239 8.09645 12.710574 8.09645 34.083507 8.09645 49.449344v99.986975c-.34822 2.78585-2.91647 5.00585-5.96349 5.00585h-31.03645c-2.82943-.21762-5.18002-2.30703-5.48469-5.00585v-86.275201c0-17.368215 2.00234-42.789384-19.37059-42.789384-7.53056 0-14.45174 5.049433-17.89056 12.710576-4.35292 9.707072-4.91881 19.37059-4.91881 30.078808v85.535201c-.0435 3.17763-2.74234 5.74585-6.05056 5.74585"/><path d="m496.93116 98.811876c0 12.057624.3047 22.112904-5.78941 32.821134-4.91881 8.7059-12.75409 14.06-21.41642 14.06-11.88352 0-18.84822-9.05413-18.84822-22.41764 0-26.378783 23.63643-31.167007 46.05405-31.167007zm31.21056 75.436374c-2.04586 1.82823-5.00589 1.95881-7.31293.74001-10.27295-8.53175-12.1447-12.49291-17.75998-20.6329-16.97646 17.32467-29.03411 22.50465-51.01643 22.50465-26.07409 0-46.31522-16.06234-46.31522-48.2305 0-25.11646 13.58118-42.223499 32.99527-50.581131 16.80232-7.400017 40.26461-8.705874 58.19873-10.751751v-4.004701c0-7.356485.56589-16.062359-3.78705-22.417613-3.74352-5.702369-10.96942-8.052955-17.36822-8.052955-11.79647 0-22.28702 6.050579-24.85527 18.587033-.52235 2.785898-2.56821 5.528247-5.39765 5.658834l-29.99171-3.221195c-2.52472-.565851-5.35411-2.611761-4.61411-6.485843 6.87764-36.390542 39.78585-47.35997092 69.21167-47.35997092 15.06117 0 34.73643 4.00471002 46.61995 15.40939392 15.06114 14.059982 13.62469 32.821137 13.62469 53.236424v48.230525c0 14.4953 6.00705 20.85055 11.66586 28.68587 1.95885 2.78585 2.39414 6.13761-.13071 8.22702-6.31175 5.26708-17.54234 15.06118-23.7235 20.54587l-.0435-.0872"/><path d="m91.194013 98.811876c0 12.057624.304675 22.112904-5.789406 32.821134-4.918845 8.7059-12.710593 14.06-21.416467 14.06-11.883518 0-18.804673-9.05413-18.804673-22.41764 0-26.378783 23.636433-31.167007 46.010546-31.167007zm31.210537 75.436374c-2.04587 1.82823-5.0059 1.95881-7.31295.74001-10.2729-8.53175-12.10116-12.49291-17.759972-20.6329-16.976454 17.32467-28.990526 22.50465-51.016411 22.50465-26.030569 0-46.31521914-16.06234-46.31521914-48.2305 0-25.11646 13.62468614-42.223499 32.99524314-50.581131 16.802329-7.400017 40.264656-8.705874 58.198772-10.751751v-4.004701c0-7.356485.565884-16.062359-3.743527-22.417613-3.78708-5.702369-11.012928-8.052955-17.368233-8.052955-11.796431 0-22.330559 6.050579-24.898786 18.587033-.522364 2.785898-2.568242 5.528247-5.354107 5.658834l-30.0352558-3.221195c-2.5247081-.565851-5.3105904-2.611761-4.6141198-6.485843 6.9211716-36.390542 39.7858266-47.35997092 69.2116966-47.35997092 15.061131 0 34.736399 4.00471002 46.619919 15.40939392 15.06117 14.059982 13.62468 32.821137 13.62468 53.236424v48.230525c0 14.4953 6.00708 20.85055 11.6659 28.68587 2.00234 2.78585 2.43763 6.13761-.0871 8.22702-6.31175 5.26708-17.54231 15.06118-23.72351 20.54587l-.087-.0872"/></g></svg>