<svg height="80" width="542" xmlns="http://www.w3.org/2000/svg"><path d="m0 1.075v33.811h33.121v-33.811zm21.448 21.902h-9.786v-9.989h9.786zm48.561 22.743h14.958c5.635 0 8.345 2.488 8.345 7.054 0 5.962-4.327 7.374-9.317 7.374h-13.986zm-23.828 32.862h43.88c13.66 0 27.092-8.032 27.092-23.534 0-11.386-6.501-16.913-13.432-19.305 5.748-3.136 9.524-7.373 9.524-15.175.002-7.923-4.321-19.41-24.697-19.41h-42.367zm23.828-58.996h12.575c4.877 0 8.124 1.409 8.124 5.316 0 4.989-3.142 6.4-8.124 6.4h-12.575zm69.987 24.509c.982-6.07 4.658-9.432 11.062-9.432 5.518 0 9.417 4.225 9.417 9.44h-20.478zm41.073 11.167c0-21.899-9.648-34.374-31.968-34.374-17.783 0-29.697 13.342-29.697 29.718 0 18.753 13.549 29.383 31.542 29.383 12.777 0 24.599-5.64 28.925-17.791h-20.041c-1.736 2.713-5.533 4.012-9.008 4.012-6.703 0-10.389-4.561-10.934-10.953l41.178-.003zm26.895-50.099h-21.464v17.14h-9.534v13.225h9.534v26.901c0 15.393 10.081 16.802 19.186 16.802 4.548 0 9.431-.648 13.764-.648v-16.277c-1.63.23-3.251.332-4.883.332-5.412 0-6.61-2.277-6.61-7.478v-19.635h11.49v-13.222h-11.495v-17.14zm15.047 73.419h21.453v-29.713c0-9.005 4.876-10.854 8.568-10.854 6.277 0 7.038 4.561 7.038 11.063v29.504h21.465v-38.614c0-12.903-9.225-19.082-19.307-19.082-9.092 0-13.87 3.152-17.556 7.482h-.213v-27.21h-21.448zm81.889-34.487c.972-6.07 4.665-9.432 11.063-9.432 5.529 0 9.417 4.225 9.417 9.44h-20.478zm41.074 11.167c0-21.899-9.635-34.374-31.969-34.374-17.778 0-29.699 13.342-29.699 29.718 0 18.753 13.551 29.383 31.553 29.383 12.768 0 24.598-6.674 28.917-18.821h-20.035c-1.726 2.711-5.529 5.039-9.005 5.039-6.709 0-10.4-4.561-10.935-10.95h41.178zm53.983-16.59c-.53-14.417-15.165-17.781-27.304-17.781-11.272 0-26.555 3.689-26.555 17.895 0 9.648 6.607 14.856 22.973 17.673 9.97 1.734 11.813 2.71 11.813 5.97 0 3.253-4.44 4.338-7.252 4.338-2.606 0-4.658-.663-5.748-1.632-1.63-1.401-2.486-1.995-2.592-3.957h-20.476c.315 14.538 14.846 18.822 28.054 18.822 13.656 0 28.623-4.237 28.623-19.853 0-9.223-6.29-13.448-13.444-15.729-7.155-2.381-15.27-2.817-18.851-4.343-1.185-.536-2.486-1.291-2.486-2.926 0-3.68 3.461-4.329 6.501-4.329 1.733 0 3.474.541 4.759 1.626 1.421.973 2.388 2.381 2.505 4.226l19.488-.007zm63.277-37.514h-21.448v27.322h-.221c-3.248-4.775-8.999-7.589-15.39-7.589-18.857 0-23.95 16.054-23.95 29.277 0 14.102 7.692 29.83 23.627 29.83 10.515 0 13.757-4.017 16.472-7.604h.223v6.188h20.694v-77.419zm-20.689 49.231c0 6.714-1.735 13.985-9.417 13.985-7.7 0-9.441-7.271-9.441-13.985 0-6.615 1.734-13.884 9.434-13.884 7.678 0 9.417 7.269 9.417 13.884m61.195 8.13c-.328 5.855-4.112 8.776-8.998 8.776-3.888 0-6.72-2.594-6.72-5.188 0-3.806 2.492-5.004 7.259-6.078 2.939-.664 5.857-1.416 8.457-2.717v5.207zm20.597-15.617c0-10.84.201-22.016-26.673-22.016-13.326 0-28.277 2.602-28.927 18.433h19.929c.117-2.378 1.429-5.746 8.026-5.746 3.481 0 7.048 1.417 7.048 5.215 0 3.581-2.932 4.443-5.848 4.99-10.952 2.059-31.745 1.402-31.745 19.199 0 11.815 8.978 17.02 19.826 17.02 6.946 0 13.543-1.526 18.097-6.728h.218c-.111 1.521.209 3.803.759 5.316h21.891c-2.39-3.578-2.592-8.351-2.592-12.585v-23.089zm6.264-11.851h-1.631v-6.64h-2.491v-1.409h6.54v1.409h-2.413v6.64zm4.909 0h-1.529v-8.049h2.552l1.454 5.555 1.463-5.553h2.557v8.048h-1.552v-6.418l-1.749 6.417h-1.463l-1.726-6.416.003 6.423z"/></svg>