<svg height="80" viewBox="0 0 564 80" width="564" xmlns="http://www.w3.org/2000/svg"><g fill="#4a89dc"><path d="m283.467 25.741c.345-6.636 2.721-12.058 6.434-16.288v-5.636h-4.935c-9.975 0-18.419 3.827-23.328 12.476h-.287v-11.524h-25.584v70.279h25.589v-28.371c0-12.042 3.52-21.224 17.719-21.224 1.546.011 2.993.1 4.392.288z"/><path d="m477.206 25.485c2.126-6.212 5.572-11.744 10.053-16.183v-5.49h-4.925c-9.979 0-18.413 3.827-23.348 12.47h-.277v-11.513h-25.599v70.279h25.599v-28.371c0-12.042 3.53-21.224 17.729-21.224z"/><path d="m335.433 22.85c-3.948-2.056-9.441-3.425-13.813-3.425-2.934 0-8.005 1.223-8.005 4.794 0 4.8 8.005 5.48 11.546 6.181 11.928 2.321 20.952 7.807 20.952 20.805 0 18.489-17.301 26.185-34.049 26.185-10.272 0-20.377-2.88-29.108-8.089l9.279-17.411c5.196 3.576 13.918 7.127 20.247 7.127 3.237 0 8.016-1.501 8.016-5.339 0-5.479-8.016-5.767-16.043-7.817-8.005-2.055-16.011-5.882-16.011-18.489 0-17.265 16.011-24.925 31.793-24.925 8.157 0 16.319 1.229 23.756 4.517z"/><path d="m564 75.048h-25.589v-7.817h-.282c-4.502 6.986-13.38 10.134-21.803 10.134-21.39 0-36.425-17.402-36.425-37.543 0-20.12 14.769-37.391 36.138-37.391 8.293 0 17.024 3.012 22.367 9.172v-6.834h25.583zm-57.659-35.074c0 8.899 6.058 15.749 16.45 15.749 10.403 0 16.435-6.839 16.435-15.749 0-8.633-6.032-15.891-16.435-15.891-10.392.006-16.45 7.258-16.45 15.891z"/><path d="m429.073 44.094h-53.878c0 10.128 5.499 15.603 16.043 15.603 5.483 0 9.416-1.773 12.236-6.437h24.617c-4.078 16.58-20.257 24.115-36.707 24.115-23.891 0-41.751-13.161-41.751-37.396 0-23.425 16.434-37.532 39.918-37.532 25.03 0 39.532 15.074 39.532 39.038zm-23.771-14.395c-1.27-6.714-7.599-11.095-14.482-11.095-7.462 0-13.625 3.822-15.196 11.095z"/><path d="m154.374 38.75c-.027-.607-.068-1.197-.115-1.798 0 0 0-.006 0-.011 0 0 0-.005 0-.01-.575-6.521-2.726-12.623-6.376-18.134-1.63-2.457-3.494-4.69-5.577-6.693-3.045-2.933-6.57-5.359-10.544-7.278-5.98-2.86-12.586-4.303-19.636-4.303-.689 0-1.41.01-2.136.036-4.951.225-9.74 1.166-14.241 2.824-4.538 1.641-8.491 3.812-11.724 6.416-.658.523-1.374 1.165-2.141 1.871l-.553.544-.758.806h.005.006l-.355.35-.173.188-.903.951c-.669.753-1.305 1.507-1.901 2.244l-.005-.011-.021-.021c-1.238 1.506-2.382 3.064-3.222 4.466-.57.899-1.128 1.825-1.661 2.75l-7.379 14.938.01.011-.386.758-.815 1.652c-1.618 3.279-3.352 6.547-5.289 9.245-4.319 4.743-9.203 7.064-15.479 7.064-.439 0-.888-.021-1.348-.047-3.781-.152-7.023-1.046-9.901-2.751-.308-.182-.606-.37-.893-.564-2.35-1.564-4.151-3.572-5.499-6.076-1.52-2.839-2.194-5.741-2.099-8.815.005-.084.01-.157.01-.226.204-4.893 2.068-8.7 5.823-11.989.914-.79 1.869-1.459 2.867-2.055.141-.083.282-.162.423-.235 2.789-1.522 5.964-2.28 9.603-2.28l1.134.032c5.781.219 10.241 2.028 13.797 5.558l11.154-20.053c-2.668-1.788-5.681-3.325-9.003-4.575-.125-.047-.255-.099-.386-.141-.397-.141-.789-.287-1.196-.418-3.53-1.182-7.233-1.909-11.045-2.238-.094-.016-.198-.026-.293-.037-.584-.036-1.18-.11-1.764-.136-.638-.026-1.28-.036-1.907-.041h-.36c-7.014.026-13.531 1.463-19.489 4.313-6.674 3.221-12.085 7.911-16.095 13.956-4 6.044-6.183 12.753-6.497 19.953-.026.617-.041 1.228-.041 1.829-.005 10.071 3.66 18.928 10.951 26.364 7.608 7.801 17.505 12.005 29.385 12.502.763.032 1.514.052 2.267.052 6.721 0 12.94-1.197 18.518-3.592 1.394-.596 2.747-1.296 4.131-2.076.751-.434 1.461-.893 2.166-1.386l.522-.349.878-.602c1.055-.758 2.042-1.579 3.003-2.452l.334-.319c.564-.539 1.128-1.082 1.66-1.642l2.001-2.264.762-.957.355-.523.355-.512c2.972-4.999 12.644-23.189 12.644-23.189v-.038l.574-1.108.481-.868c1.425-2.599 2.454-4.444 3.817-6.384l.036-.058c3.181-4.616 8.648-7.905 15.092-8.46 10.811-.931 20.284 6.18 21.156 15.885.867 9.705-7.196 18.327-18.006 19.263-2.251.193-4.439.042-6.502-.413l-.052.021c-7.933-1.653-12.983-7.446-15.474-10.034l-10.402 19.153s3.232 3.262 5.446 4.894c2.22 1.626 5.087 3.226 7.374 4.219 5.551 2.374 11.588 3.797 18.257 3.797.773 0 .616 0 1.421-.032 11.87-.497 22.45-5.051 30.079-12.852 7.228-7.409 11.15-15.869 11.187-25.883v-.298c-.005-.554-.021-1.113-.042-1.678z"/><path d="m194.167 77.422c-5.394 0-10.288-.627-14.679-1.882-4.393-1.256-8.142-3.237-11.249-5.956-3.118-2.719-5.52-6.18-7.212-10.379-1.692-4.198-2.538-9.26-2.538-15.158v-39.294h24.685v38.98c0 4.418 1.055 7.618 3.16 9.616 2.11 2.002 4.788 3.001 8.037 3.001 3.321 0 6.016-.93 8.094-2.797 2.068-1.867 3.113-4.962 3.113-9.313v-39.487h24.685v38.776c0 6.107-.867 11.299-2.595 15.571-1.729 4.278-4.168 7.77-7.306 10.489-3.155 2.719-6.951 4.695-11.416 5.956-4.465 1.25-9.39 1.877-14.779 1.877z"/></g></svg>