<svg xmlns="http://www.w3.org/2000/svg" width="395" height="80"><path fill="#54301a" d="M40.048.053H16.743v1.885h7.555v38.385c0 11.641-3.147 14.785-10.387 14.785-4.408 0-5.354-3.459-5.354-5.033 0-4.089-.315-6.919-4.097-6.919-3.778 0-4.404 3.774-4.404 5.034 0 5.348 2.517 9.437 12.909 9.437 12.598 0 19.208-4.089 19.208-18.245V1.935h7.56V.053h.315zm3.151 48.763c-1.261 0-2.521.322-3.151 1.259-.946.944-1.261 1.889-1.261 3.148 0 1.252.315 2.2 1.261 3.149.945.94 1.89 1.251 3.151 1.251 1.257 0 2.202-.315 3.148-1.251.945-.945 1.26-1.897 1.26-3.149 0-1.259-.315-2.204-1.26-3.148-.946-.945-1.891-1.259-3.152-1.259zm51.644 0c-1.26 0-2.206.322-3.151 1.259-.942.944-1.257 1.889-1.257 3.148 0 1.252.315 2.2 1.257 3.149.945.94 1.891 1.251 3.151 1.251 1.26 0 2.517-.315 3.151-1.251.942-.949 1.257-1.897 1.257-3.149 0-1.259-.315-2.204-1.261-3.148-.945-.945-1.887-1.259-3.151-1.259zM78.463.053H55.789v1.885h6.614V45.99c0 3.459-.315 4.399-.63 5.344-.315 1.264-1.261 1.893-2.837 2.523-.941.315-2.517.626-4.723.626v1.889h24.565v-1.889c-2.206 0-3.777-.311-4.727-.626-1.571-.63-2.517-1.574-2.828-2.519a9.712 9.712 0 01-.634-3.459V32.77h5.983c17.636 0 22.675-6.919 22.675-16.36 0-9.753-2.832-16.361-20.784-16.361zM75.312 30.57h-4.723V2.253h4.097c13.539 0 16.686 5.664 16.686 14.471 0 9.123-5.349 13.846-16.06 13.846zm96.682 20.449a11.707 11.707 0 01-.631-3.774V1.938h5.98V.053h-14.477c-.315.63-17.317 42.788-17.317 42.788l-.315.319c-.315 0-.315 0-.315-.315 0 0-18.263-42.477-18.263-42.792h-16.072v1.89h6.929v47.821c0 .949-.315 1.893-.945 2.834-.63.944-1.576 1.574-2.521 1.885-.631.323-1.887.323-3.152.323v1.881h15.75v-1.89c-1.261 0-1.891-.314-2.833-.314-1.26-.315-1.891-.945-2.521-1.89-.63-.629-.946-1.574-.946-2.829l-.315-4.093V7.913h.946s20.468 47.821 20.784 48.451h1.575l19.523-48.133h.631v39.014c0 1.574-.315 2.83-.631 4.089-.315 1.259-1.256 1.889-2.517 2.519a12.365 12.365 0 01-4.093.626v1.889h22.044v-1.889a12.393 12.393 0 01-4.097-.626c-.941-.63-1.886-1.574-2.201-2.834zm29.914-35.864c-11.967 0-19.207 7.863-19.207 21.393 0 20.135 15.745 21.394 18.892 21.394 6.614 0 19.212-4.089 19.212-21.705 0-13.845-8.19-21.082-18.897-21.082zm-.315 40.268c-8.816 0-10.391-4.4-10.391-18.56 0-11.012.629-19.194 10.391-19.194 10.392 0 10.392 8.493 10.392 18.56 0 14.16-2.517 19.194-10.392 19.194zm50.076-39.639c-6.933 0-9.446 4.089-11.341 8.493h-.63s-.942-6.293-1.257-7.867h-13.858v2.204h7.555v27.687c0 2.829-.311 4.722-.937 5.974-.635 1.263-2.526 2.204-5.357 2.204h-1.261v2.519h23.304v-2.519h-1.26c-3.151 0-4.404-.626-5.042-1.886-.627-1.259-.942-3.148-.942-5.978v-15.1c0-4.723 3.778-10.383 8.19-10.383 4.723 0 4.404 6.919 9.761 4.089 2.522-1.574 1.891-9.437-6.925-9.437zm91.636 36.491c-2.522 0-3.148-1.252-3.463-3.77V26.481c0-3.778-.634-5.978-2.833-8.186-2.205-2.2-6.302-3.149-12.282-3.149-5.669 0-9.762.949-12.598 3.149-2.517 1.893-3.773 3.778-3.773 6.611 0 1.252.315 2.201.941 2.515.63.63 1.575.945 2.517.945 2.202 0 3.467-1.252 4.093-4.089.323-2.204.946-3.459 1.895-4.723 1.252-1.251 3.151-1.885 5.349-1.885 2.837 0 5.038.626 5.984 2.2.945 1.574 1.576 3.464 1.576 5.974v6.612c-7.248.63-24.881 2.2-23.935 15.416.315 5.033 4.727 9.752 10.706 9.752 6.615 0 10.703-3.77 13.536-6.608.319 2.834 3.151 6.297 7.878 6.297 5.35 0 8.501-2.519 8.82-9.126h-1.26c0 2.518-1.576 4.093-3.151 4.093zm-11.964-4.4v.315l-.315.315c-3.778 3.463-6.925 4.722-9.131 4.722-5.669 0-6.614-4.722-6.614-6.923 0-7.548 10.391-11.326 16.06-11.326v12.897zm59.203 4.089c-.63-1.255-1.575-3.148-1.575-5.974V27.736c0-2.515-.315-5.033-1.261-6.604-.945-1.889-2.517-3.148-4.093-4.093-1.891-.944-3.777-1.255-5.98-1.255-8.189 0-11.341 5.034-13.228 7.863h-.63l-1.576-7.237h-12.598v2.204h6.303v27.687c0 2.204-.319 3.774-.634 4.722-.319 1.252-1.252 2.2-2.202 2.515-.63.315-1.891.63-3.467.63v2.515h19.839v-2.515c-1.891-.315-3.467-.63-4.093-1.575-.631-.944-1.257-2.833-1.257-5.663V36.233c0-4.4 0-8.812 1.576-11.327 1.572-2.833 4.719-4.403 7.87-4.403 3.152 0 4.724.944 5.673 2.83.942 1.573 1.252 6.292 1.252 9.437v13.216c0 2.2.324 3.774 0 4.723-.31 1.251-.625 2.199-1.575 2.825-.626.634-1.891.634-3.148.945v2.519h19.216v-2.519c-2.21-.941-3.782-1.575-4.412-2.515zm-90.063-38.699c-1.261.315-1.891 1.575-2.521 3.148-.315 1.575-.946 2.515-1.891 2.826-.946.319-1.887.319-2.833-.311-2.201-1.889-5.983-4.088-12.912-4.088-11.338 0-16.061 7.863-16.061 15.096 0 8.497 3.151 12.59 10.388 14.16.319 0 .319.63 0 .63-5.98 1.26-11.648 3.149-11.648 8.812 0 3.463 1.89 5.349 4.727 6.608 2.828 1.255 6.921 1.889 11.963 1.889 4.404 0 7.556.315 9.447.315 1.898.245 3.722.888 5.353 1.889 1.261.945 1.891 2.519 1.891 4.4 0 2.834-1.576 4.723-4.408 6.612-2.828 1.574-6.303 2.204-11.022 2.204-3.778 0-7.24-.319-10.077-2.204-2.202-1.26-2.521-3.774-2.202-5.663.319-1.89-.319-3.775-2.521-4.404a3.168 3.168 0 00-3.463 1.574c-.634.937-.949 2.196-.949 3.77 0 4.719 3.781 6.919 6.614 7.863 4.408 1.256 7.248 1.574 11.022 1.574 5.357 0 9.447-.944 12.598-2.204 3.151-1.573 5.042-3.459 6.299-5.663 1.256-2.2 1.891-4.403 1.891-6.607 0-2.83-.635-5.349-1.891-6.919-4.093-5.349-9.766-4.723-22.36-5.349-5.983 0-7.244-1.259-7.244-3.148 0-2.83 2.206-3.774 11.022-5.349 8.816-1.259 17.002-4.718 17.002-15.101 0-3.148-.626-5.663-1.576-7.548 1.895.311 3.471.311 5.042 0 1.895-.63 2.833-1.574 3.467-2.519.63-1.259.942-2.519.315-3.463.315-2.515-1.26-3.459-3.462-2.83zm-19.838 29.576c-5.35 0-8.19-1.893-8.19-12.586 0-7.548 2.521-13.216 8.19-13.216 6.614 0 8.501 5.034 8.501 12.901 0 11.327-3.463 12.901-8.501 12.901z"/></svg>