<svg xmlns="http://www.w3.org/2000/svg" width="98" height="80"><path fill="#0b3d91" d="M85.58 39.978c0 22.062-17.921 39.947-40.027 39.947-22.107 0-40.027-17.885-40.027-39.947C5.526 17.915 23.446.03 45.553.03 67.659.03 85.58 17.915 85.58 39.978z"/><path fill="#fff" d="M43.638 7.703a.449.449 0 11-.898-.002.449.449 0 01.898.002zM48.245 8.3a.449.449 0 11-.897-.001.449.449 0 01.897.001zM54.288 16.421a.449.449 0 11-.898-.002.449.449 0 01.898.002zM21.142 58.22a.449.449 0 11-.898-.002.449.449 0 01.898.002zM22.308 61.803a.448.448 0 11-.896-.002.448.448 0 01.896.002zM16.631 58.757a.336.336 0 11-.672 0 .336.336 0 01.672 0zM34.881 65.795a.337.337 0 11-.674 0 .337.337 0 01.674 0zM63.501 59.862a.335.335 0 11-.67 0 .335.335 0 01.67 0zM71.82 50.845a.337.337 0 11-.674 0 .337.337 0 01.674 0zM31.051 19.04a.336.336 0 11-.672 0 .336.336 0 01.672 0zM40.205 12.331a.336.336 0 11-.672-.002.336.336 0 01.672.002zM39.211 11.674a.336.336 0 11-.672-.002.336.336 0 01.672.002zM38.313 11.017a.335.335 0 11-.67 0 .335.335 0 01.67 0zM32.487 20.773a.336.336 0 01-.672 0 .335.335 0 01.672 0zM45.971 3.314a.336.336 0 01-.672 0 .335.335 0 01.672 0zM48.185 12.987a.335.335 0 11-.67.001.335.335 0 01.67-.001zM44.692 11.099a.335.335 0 11-.67 0 .335.335 0 01.67 0zM38.709 13.667a.336.336 0 11-.672 0 .336.336 0 01.672 0zM65.095 68.722a.336.336 0 11-.672 0 .336.336 0 01.672 0zM20.462 60.489a.337.337 0 01-.338.336.336.336 0 110-.672c.187 0 .338.15.338.336zM43.856 64.818a.336.336 0 11-.673 0 .336.336 0 01.673 0zM27.424 60.22a.337.337 0 11-.674 0 .337.337 0 01.674 0zM30.334 64.96a.337.337 0 11-.674 0 .337.337 0 01.674 0zM51.752 61.975a.335.335 0 11-.67 0 .335.335 0 01.67 0zM63.561 55.324a.335.335 0 11-.67 0 .335.335 0 01.67 0zM72.514 59.406a.335.335 0 11-.67 0 .335.335 0 01.67 0zM75.565 61.355a.335.335 0 11-.67 0 .335.335 0 01.67 0zM76.067 56.04a.335.335 0 11-.67.001.335.335 0 01.67-.001zM31.551 48.516a.335.335 0 11-.67.001.335.335 0 01.67-.001zM31.792 56.219a.448.448 0 11-.896 0 .448.448 0 01.896 0zM34.484 61.892a.449.449 0 11-.898-.002.449.449 0 01.898.002zM66.733 55.981a.448.448 0 11-.895-.001.448.448 0 01.895.001zM78.341 55.324a.449.449 0 11-.898-.002.449.449 0 01.898.002zM72.597 52.876a.448.448 0 01-.449.447.448.448 0 11.449-.447zM66.733 53.114a.448.448 0 11-.896 0 .448.448 0 01.896 0zM54.19 7.422l1.115-.106-1.113-.063a.495.495 0 00-.425-.411l-.107-1.109-.064 1.118a.493.493 0 00-.381.422l-1.14.103 1.148.062a.493.493 0 00.393.378l.104 1.143.061-1.141a.5.5 0 00.409-.396zM35.357 19.821l1.115-.107-1.113-.063a.495.495 0 00-.425-.411l-.107-1.108-.063 1.117a.493.493 0 00-.382.422l-1.141.104 1.149.062a.495.495 0 00.393.378l.104 1.142.062-1.14a.497.497 0 00.408-.396zM77.074 52.601l1.116-.107-1.114-.062a.492.492 0 00-.425-.411l-.106-1.109-.063 1.118a.49.49 0 00-.381.422l-1.141.103 1.149.062a.493.493 0 00.393.378l.103 1.142.062-1.14a.497.497 0 00.407-.396zM31.587 69.74l1.116-.106-1.114-.063a.494.494 0 00-.425-.411l-.106-1.108-.063 1.117a.492.492 0 00-.382.422l-1.141.104 1.149.061a.49.49 0 00.393.378l.104 1.143.061-1.141a.496.496 0 00.408-.396zM73.529 61.381l1.116-.107-1.114-.063a.493.493 0 00-.425-.411L73 59.692l-.063 1.116a.492.492 0 00-.381.422l-1.141.104 1.149.062a.493.493 0 00.393.378l.103 1.142.062-1.14a.495.495 0 00.407-.395z"/><path fill="#fc3d21" d="M55.045 30.409c-4.654 1.805-9.193 3.416-13.023 4.612C34.239 37.454 12.944 44.038.08 52.338l1.077.418c7.838-4.419 12.932-5.807 17.83-7.345 5.325-1.671 22.539-5.692 30.334-7.882a131.33 131.33 0 008.985-2.886 80.715 80.715 0 00-3.261-4.234zm5.686 7.821c-1.127.759-2.071 1.365-2.732 1.748-3.829 2.209-22.498 14.928-26.745 17.854-4.247 2.926-16.035 14.032-19.505 17.257l-.12 1.312C22.818 66.37 26.328 63.896 30.776 60.519c5.504-4.18 16.891-11.913 20.761-14.391 3.7-2.369 7.036-4.547 10.031-6.541a94.117 94.117 0 00-.837-1.357zm17.49-18.435c-5.451 3.188-14.042 7.037-22.376 10.302a73.645 73.645 0 013.232 4.266c6.551-2.409 13.74-5.641 19.444-9.553-2.717 2.569-11.701 9.27-17.179 13.005.283.459.556.918.82 1.374 8.299-5.542 13.883-9.621 17.137-12.349 4.487-3.762 14.718-12.182 18.607-23.467-6.821 8.659-14.887 13.614-19.685 16.422z"/><path fill="#fff" d="M40.402 49.869c-.882-1.109-2.103-2.594-3.019-3.745a69.807 69.807 0 01-3.399-4.649l-1.015.254a70.707 70.707 0 004.166 5.811c1.108 1.393 2.117 2.515 2.633 3.213.105.141.312.454.592.87l.979-.663a20.3 20.3 0 01-.937-1.091zm6.442 5.836c-.725-.685-2.483-1.828-4.313-3.544-.404.277-.811.557-1.22.84 1.181 1.662 2.791 3.703 4.051 4.298 1.899.898 2.411-.716 1.482-1.594zm9.596-24.87C45.978 17.692 33.197 10.472 27.686 14.842c-4.28 3.393-2.523 13.311 3.377 23.73l.906-.308c-5.954-10.151-7.584-19.585-3.547-22.786 5.073-4.023 17.321 3.225 27.481 15.987a75.478 75.478 0 015.517 7.877c5.995 9.902 7.835 18.857 3.693 22.512-1.268 1.119-5.141 1.558-10.215-.721-.07.088.043.328.132.387 4.38 1.757 8.575 2.427 10.693.748 5.09-4.036 1.18-18.291-9.283-31.433zM11.569 32.394h6.701l5.624 9.524v-7.434c0-.836-1.062-1.926-1.436-2.09h4.637c-.284.075-1.197 1.179-1.197 2.09v10.927c0 .672.972 1.598 1.436 1.956h-6.462l-5.714-9.569v7.524c0 .746.733 1.463 1.496 2.075h-4.936c.703-.299 1.376-1.239 1.436-1.986.06-.746 0-10.375 0-10.793 0-.91-.883-1.657-1.585-2.224z"/><path fill="#fff" d="M72.866 47.367h8.915c-.494-.119-1.047-.702-1.346-1.478-.3-.776-5.026-13.495-5.026-13.495h-3.39c-.961.691-1.991 1.419-3.091 2.187a1.08 1.08 0 01-.011.082c-.147.896-2.8 10.484-2.962 10.957-.224.657-1.376 1.389-1.839 1.777h4.801c-.479-.538-.868-1.06-.778-1.657.09-.597.359-1.791.359-1.791h4.966c.225.597.392 1.133.479 1.642.105.612-.524 1.298-1.077 1.776zm-3.919-5.329l1.675-5.464 2.214 5.464h-3.889zm-.755-9.098l.74-.546h-1.301c.129.12.344.308.561.546zM34.095 45.74c.09-.597.359-1.791.359-1.791h4.966c.224.597.392 1.133.479 1.642.104.612-.524 1.298-1.077 1.776h7.849l.488-.327c-.304-.269-.584-.672-.768-1.151-.3-.776-5.026-13.495-5.026-13.495h-7.778c.373.343 1.45 1.269 1.286 2.269-.147.896-2.8 10.484-2.962 10.957-.224.657-1.376 1.389-1.84 1.777h4.802c-.479-.538-.868-1.06-.778-1.657zm2.483-9.166l2.214 5.464h-3.889l1.675-5.464zM61.208 39.826c-1.464.974-3.009 1.99-4.636 3.051.73.353 1.311.797 1.367 1.37.104 1.077-2.064 1.597-4.024 1.373a4.828 4.828 0 01-1.144-.284c-.406.262-.817.525-1.234.792-.424.272-.938.606-1.526.992v1.546c.389-.761 1.24-1.443 1.9-1.478.284-.015 1.271.895 5.34.672 1.974-.109 5.789-2.21 5.729-4.628-.036-1.429-.784-2.544-1.772-3.406zM50.01 43.56v1.575l1.063-.706a7.846 7.846 0 01-1.063-.869zm9.807-4.722c-.379-.224-.763-.42-1.131-.593-1.915-.896-3.919-1.06-4.338-2.269-.295-.853.539-1.642 2.573-1.612 2.034.029 3.919 1.239 4.427 1.672v-3.852c-.149.149-.805.901-1.406.776a26.388 26.388 0 00-5.355-.537c-2.572.015-4.786 1.999-4.861 4.508-.105 3.508 2.707 4.464 4.293 5.016.163.057.35.118.552.182 1.521-.987 2.724-1.747 3.428-2.152a38.972 38.972 0 001.818-1.139z"/></svg>