<svg height="80" viewBox="0 0 296 80" width="296" xmlns="http://www.w3.org/2000/svg"><path d="m40.701 74.774c-4.453.781-8.984 1.015-13.671 1.639l-14.297-41.836v43.631c-4.452.469-8.514 1.093-12.733 1.718v-79.926h11.875l16.248 45.349v-45.349h12.578zm24.608-45.504c4.844 0 12.265-.235 16.718-.235v12.489c-5.547 0-12.031 0-16.718.234v18.576c7.344-.468 14.687-1.093 22.108-1.327v12.019l-34.608 2.733v-73.759h34.608v12.488h-22.108zm68.59-16.781h-12.968v57.446c-4.219 0-8.437 0-12.499.156v-57.602h-12.968v-12.489h38.435zm20.311 15.922h17.109v12.488h-17.109v28.334h-12.266v-69.233h34.921v12.488h-22.655zm42.967 29.894c7.109.156 14.296.703 21.249 1.093v12.332c-11.171-.703-22.343-1.404-33.748-1.639v-70.091h12.499zm31.795 14.284c3.984.234 8.203.468 12.265.936v-73.525h-12.265zm67.028-72.589-15.859 38.012 15.859 41.914c-4.688-.625-9.375-1.483-14.062-2.264l-8.984-23.103-9.139 21.23c-4.532-.781-8.907-1.015-13.437-1.64l16.093-36.606-14.531-37.543h13.436l8.203 20.996 8.75-20.996z" fill="#d81f26"/></svg>