<svg xmlns="http://www.w3.org/2000/svg" width="422" height="80"><path fill="#2f2951" d="M232.099 40.542c0 .574-.046 1.169-.218 1.691-.688 2.165-3.022 3.998-5.943 3.998-2.453 0-4.382-1.327-4.382-4.137 0-4.295 4.918-5.485 10.544-5.454zm9.313-7.488c0-7.085-3.16-13.32-13.82-13.32-5.473 0-9.822 1.474-12.19 2.787l1.728 5.698c2.166-1.313 5.626-2.4 8.902-2.4 5.405-.011 6.294 2.938 6.294 4.83v.448c-11.803-.022-19.261 3.898-19.261 11.879 0 4.874 3.796 9.441 10.413 9.441 4.047 0 7.455-1.554 9.488-4.043h.201s1.343 5.407 8.764 3.337c-.387-2.249-.519-4.647-.519-7.535zm43.386-5.162v-7.964h-7.674v-9.845h-8.698v30.71c0 4.235.839 7.201 2.619 9.011 1.561 1.586 4.114 2.613 7.17 2.613 2.604 0 5.171-.473 6.382-.909l-.12-6.604c-.89.214-1.931.38-3.341.38-3.006 0-4.012-1.841-4.012-5.642v-11.75zm-30.896-1.555h-.235v-5.899h-7.993v31.273h9.099V35.699c0-.863.046-1.618.203-2.309.671-3.355 3.34-5.498 7.188-5.498 1.055 0 1.795.115 2.619.224v-8.188a9.152 9.152 0 00-1.999-.194c-3.393 0-7.254 2.099-8.883 6.601zm-54.754-6.603c-2.567 0-4.6.616-6.431 1.698-1.546.907-2.921 2.198-4.131 3.893h-.134c-1.394-3.367-4.683-5.591-8.982-5.591-5.508 0-7.991 2.681-9.488 4.954h-.132v-4.25h-8.413v31.273h8.865V33.37c0-.859.103-1.767.42-2.559.722-1.844 2.519-4.007 5.373-4.007 3.576 0 5.255 2.899 5.255 7.084v17.823h8.848V33.149c0-.822.119-1.807.37-2.535.722-2.101 2.654-3.81 5.323-3.81 3.61 0 5.355 2.849 5.355 7.774v17.133h8.85V33.293c0-9.713-5.139-13.559-10.949-13.559zM133.405 40.54c0 .576-.046 1.171-.218 1.693-.688 2.165-3.022 3.998-5.961 3.998-2.435 0-4.366-1.327-4.366-4.137 0-4.295 4.921-5.485 10.545-5.454zm9.311-7.486c0-7.085-3.156-13.32-13.82-13.32-5.473 0-9.822 1.474-12.192 2.787l1.734 5.698c2.165-1.313 5.623-2.4 8.898-2.4 5.406-.011 6.295 2.938 6.295 4.83v.448c-11.804-.022-19.25 3.898-19.25 11.879 0 4.874 3.794 9.441 10.385 9.441 4.064 0 7.456-1.554 9.488-4.043h.202s1.358 5.407 8.78 3.337c-.386-2.249-.52-4.647-.52-7.535zm-35.029-22.971l-3.916 17.996c-1.052 5.239-2.005 9.335-2.745 14.127h-.129c-.668-4.746-1.519-8.676-2.59-13.779l-4.072-18.344h-9.65l-4.358 17.881c-1.231 5.432-2.391 9.821-3.124 14.45h-.132c-.752-4.358-1.756-9.875-2.841-15.131 0 0-2.586-12.79-3.495-17.2h-9.75s7.705 30.287 8.936 35.201c1.434 5.739 4.018 7.852 11.477 6.427L86.11 32.93c1.22-4.662 2.038-7.985 2.821-12.732h.138c.551 4.793 1.336 8.084 2.337 12.752 0 0 1.962 8.524 2.963 13.002 1.008 4.475 3.804 7.295 11.111 5.759l11.464-41.628zm39.83 41.629h8.815V10.085h-8.815zM327.162 45.73H310.67V10.084h-7.716v42.333h24.208zM348.143 40.331c0 .586-.046 1.19-.207 1.72-.649 2.204-2.852 4.07-5.606 4.07-2.315 0-4.137-1.351-4.137-4.209 0-4.373 4.642-5.584 9.95-5.553zm8.786-7.621c0-7.212-2.98-13.555-13.039-13.555-5.165 0-9.266 1.5-11.5 2.836l1.629 5.798c2.045-1.335 5.309-2.441 8.397-2.441 5.101-.013 5.942 2.989 5.942 4.915v.456c-11.136-.022-18.172 3.966-18.172 12.09 0 4.961 3.579 9.608 9.823 9.608 3.817 0 7.034-1.582 8.95-4.115h.19s1.268 5.503 8.269 3.396c-.364-2.289-.489-4.729-.489-7.667zM379.877 46.229c-3.592 0-6.508-2.359-7.389-5.485a8.187 8.187 0 01-.202-1.849v-5.039c0-.764.135-1.467.271-2.041.95-3.444 3.999-5.74 7.387-5.74 5.559 0 8.337 4.464 8.337 9.949 0 6.252-3.184 10.205-8.404 10.205m3.118-26.277c-4.948 0-8.54 1.976-10.574 4.974h-.135V10.083h-8.337v32.894c0 .946.011 1.672.022 2.298-.033 2.359-.173 4.418-.503 6.348 6.6 1.852 8.54-2.248 8.886-3.168 2.371 2.804 5.714 3.962 9.419 3.962 7.456 0 14.98-5.55 14.98-16.712.068-9.439-5.693-15.753-13.76-15.753M411.866 32.708c-4.339-1.44-5.947-2.423-5.947-4.453 0-1.964 1.679-3.338 4.758-3.338 3.007 0 5.737 1.046 7.206 1.833l1.678-5.696c-1.959-.982-5.246-1.899-9.024-1.899-7.907 0-12.874 4.386-12.874 10.018-.069 3.732 2.729 7.136 9.376 9.297 4.198 1.375 5.596 2.487 5.596 4.648 0 2.096-1.678 3.537-5.458 3.537-3.077 0-6.785-1.179-8.745-2.292l-1.678 5.827c2.518 1.31 6.226 2.227 10.354 2.227 9.026 0 13.853-4.191 13.853-9.953-.068-4.714-2.937-7.66-9.095-9.756M9.445 43.344L19.653 4.035h1.518l-9.822 37.79h21.569c.405 0 .734.341.734.76s-.329.761-.734.761zm35.513-8.242H20.281l8.906-34.09H11.058L.719 40.634c-1.544 5.96 2.141 10.835 8.192 10.835h11.247l-7.195 27.75c-.091.346.353.565.566.282l32.062-43.097c.397-.534.023-1.3-.633-1.3z"/></svg>