<svg width="220" height="192" viewBox="0 0 220 192" fill="none" xmlns="http://www.w3.org/2000/svg">
<path d="M32.8906 51.1903V140.708C32.8928 143.004 34.1178 145.126 36.1066 146.278L113.728 191.036C115.718 192.182 118.169 192.182 120.16 191.036L197.781 146.278C199.77 145.126 200.995 143.004 200.997 140.708V51.1903C200.998 48.8931 199.772 46.7699 197.781 45.6201L120.16 0.861447C118.169 -0.284646 115.718 -0.284646 113.728 0.861447L36.1066 45.6201C34.1156 46.7699 32.8898 48.8931 32.8906 51.1903Z" fill="#334B63"/>
<rect x="18.2715" y="156.958" width="80.3987" height="29.2015" rx="2" fill="#14304B"/>
<rect y="135.057" width="36.5448" height="10.9506" rx="2" fill="#14304B"/>
<rect x="124.252" y="29.2015" width="25.5814" height="10.9506" rx="2" fill="#14304B"/>
<rect x="164.451" y="113.156" width="47.5083" height="58.403" rx="2" fill="#14304B"/>
<rect x="47.5078" y="51.1027" width="131.561" height="94.9049" rx="2" fill="#14304B"/>
<rect x="10.9629" y="3.65019" width="54.8173" height="58.403" rx="2" fill="#14304B"/>
<path d="M14.6172 7.30038H69.4345V56.943C69.4345 57.7493 68.78 58.403 67.9727 58.403H16.079C15.2717 58.403 14.6172 57.7493 14.6172 56.943V7.30038Z" fill="#CCD2D8"/>
<ellipse cx="42.0259" cy="31.0266" rx="19.186" ry="12.7757" fill="#F3F6F7"/>
<ellipse cx="42.0269" cy="31.0266" rx="9.10698" ry="9.09627" fill="#99A5B1"/>
<ellipse cx="42.0271" cy="31.0266" rx="6.18339" ry="6.17612" fill="#66788A"/>
<path d="M16.079 0H67.9727C68.78 0 69.4345 0.653698 69.4345 1.46008V10.9506H14.6172V1.46008C14.6172 0.653698 15.2717 0 16.079 0Z" fill="#99A5B1"/>
<ellipse cx="63.9542" cy="5.47529" rx="1.82724" ry="1.8251" fill="#CCD2D8"/>
<ellipse cx="56.6437" cy="5.47529" rx="1.82724" ry="1.8251" fill="#CCD2D8"/>
<ellipse cx="49.3351" cy="5.47529" rx="1.82724" ry="1.8251" fill="#CCD2D8"/>
<path d="M51.1621 62.0532H182.724V140.897C182.724 141.704 182.069 142.357 181.262 142.357H52.6239C51.8166 142.357 51.1621 141.704 51.1621 140.897V62.0532Z" fill="#F3F6F7"/>
<path d="M220 47.4525H218.539C218.518 27.7046 202.496 11.7007 182.725 11.6806V10.2205C203.301 10.2447 219.976 26.8998 220 47.4525Z" fill="#FFC846"/>
<path d="M207.458 47.4525H205.996C205.984 34.6199 195.572 24.2201 182.725 24.2081V22.748C196.378 22.7641 207.442 33.8152 207.458 47.4525Z" fill="#FFC846"/>
<path d="M194.923 47.4525H193.461C193.453 41.533 188.651 36.7363 182.725 36.7282V35.2681C189.458 35.2762 194.915 40.7266 194.923 47.4525Z" fill="#FFC846"/>
<g style="mix-blend-mode:multiply" opacity="0.15">
<path d="M48.9696 51.1027H69.4347V58.403H47.5078V52.5627C47.5078 51.7564 48.1623 51.1027 48.9696 51.1027Z" fill="#001E3C"/>
</g>
<path d="M52.6239 47.4525H116.943V62.0532H51.1621V48.9125C51.1621 48.1062 51.8166 47.4525 52.6239 47.4525Z" fill="#99A5B1"/>
<path d="M116.943 47.4525H181.262C182.07 47.4525 182.724 48.1062 182.724 48.9125V62.0532H116.943V47.4525Z" fill="#914BD7"/>
<rect x="54.8164" y="51.1027" width="47.5083" height="7.30038" fill="#66788A"/>
<rect x="58.4707" y="69.3536" width="18.2724" height="18.2509" fill="#CCD2D8"/>
<rect x="80.3984" y="69.3536" width="25.5814" height="7.30038" fill="#E0E4E8"/>
<rect x="80.3984" y="80.3042" width="36.5448" height="7.30038" fill="#E0E4E8"/>
<rect x="58.4707" y="91.2548" width="58.4718" height="32.8517" fill="#E0E4E8"/>
<rect x="116.943" y="91.2548" width="58.4718" height="32.8517" fill="#FFDE90"/>
<rect x="21.9258" y="153.308" width="80.3987" height="29.2015" rx="2" fill="#99A5B1"/>
<rect x="80.3984" y="171.559" width="18.2724" height="7.30038" rx="1" fill="#66788A"/>
<rect x="58.4707" y="171.559" width="18.2724" height="7.30038" rx="1" fill="#66788A"/>
<rect x="25.582" y="156.958" width="73.0897" height="10.9506" fill="#CCD2D8"/>
<ellipse cx="62.1252" cy="131.407" rx="3.65448" ry="3.65019" fill="#E0E4E8"/>
<ellipse cx="73.09" cy="131.407" rx="3.65448" ry="3.65019" fill="#CCD2D8"/>
<ellipse cx="84.0529" cy="131.407" rx="3.65448" ry="3.65019" fill="#E0E4E8"/>
<ellipse cx="95.0158" cy="131.407" rx="3.65448" ry="3.65019" fill="#CCD2D8"/>
<rect x="116.943" y="80.3042" width="21.9269" height="7.30038" fill="#FFDE90"/>
<ellipse cx="175.414" cy="54.7528" rx="3.65448" ry="3.65019" fill="#FFC846"/>
<rect x="153.488" y="127.757" width="21.9269" height="7.30038" rx="1" fill="#914BD7"/>
<rect x="127.906" y="127.757" width="21.9269" height="7.30038" rx="1" fill="#914BD7"/>
<rect x="3.6543" y="131.407" width="36.5448" height="10.9506" rx="2" fill="#E0E4E8"/>
<rect x="7.30859" y="135.057" width="29.2359" height="3.65019" fill="#99A5B1"/>
<rect x="127.906" y="25.5513" width="25.5814" height="10.9506" rx="2" fill="#BD93E7"/>
<rect x="131.561" y="29.2015" width="18.2724" height="3.65019" fill="#914BD7"/>
<g style="mix-blend-mode:multiply" opacity="0.15">
<path d="M165.913 113.156H182.724V142.357H164.451V114.616C164.451 113.81 165.106 113.156 165.913 113.156Z" fill="#001E3C"/>
</g>
<rect x="168.105" y="109.506" width="47.5083" height="58.403" rx="2" fill="#D3B7EF"/>
<rect x="171.76" y="113.156" width="32.8904" height="10.9506" fill="#A76FDF"/>
<rect x="171.76" y="127.757" width="18.2724" height="7.30038" fill="#A76FDF"/>
<rect x="200.996" y="131.407" width="10.9635" height="32.8517" fill="#F3F6F7"/>
<rect x="186.379" y="146.008" width="10.9635" height="18.2509" fill="#914BD7"/>
<rect x="171.76" y="153.308" width="10.9635" height="10.9506" fill="#914BD7"/>
<rect x="115.482" y="25.5513" width="2.92359" height="138.707" fill="#FFC846"/>
</svg>
