<svg width="48" height="48" viewBox="0 0 48 48" fill="none" xmlns="http://www.w3.org/2000/svg">
<path d="M11.0833 4H36.9167C40.8333 4 44 7.16667 44 11.0833V35.9167C44 39.8333 40.8333 43 36.9167 43H11.0833C7.16667 43 4 39.8333 4 35.9167V11.0833C4 7.16667 7.16667 4 11.0833 4Z" fill="#470137"/>
<path d="M25.0327 14.25L20.0327 22.5L25.366 31.25C25.3994 31.3167 25.416 31.3833 25.3994 31.45C25.3827 31.5167 25.316 31.4667 25.216 31.4833H21.3994C21.1327 31.4833 20.9494 31.4667 20.8327 31.3C20.4827 30.6 20.116 29.9167 19.766 29.2167C19.416 28.5333 19.0327 27.8333 18.6327 27.1167C18.2327 26.4 17.8327 25.6833 17.4327 24.95H17.3994C17.0494 25.6667 16.666 26.3833 16.2827 27.1C15.8994 27.8167 15.516 28.5333 15.1494 29.2333C14.766 29.9333 14.3827 30.65 13.9994 31.3333C13.9327 31.5 13.7994 31.5167 13.616 31.5167H9.94938C9.88271 31.5167 9.83271 31.55 9.83271 31.4667C9.81604 31.4 9.83271 31.3333 9.86604 31.2833L15.0494 22.7833L9.99938 14.2333C9.94938 14.1667 9.93271 14.1 9.96604 14.0667C9.99938 14.0167 10.066 14 10.1327 14H13.916C13.9994 14 14.0827 14.0167 14.1494 14.0333C14.216 14.0667 14.266 14.1167 14.316 14.1833C14.6327 14.9 14.9994 15.6167 15.3827 16.3333C15.7827 17.05 16.166 17.75 16.5827 18.45C16.9827 19.15 17.3494 19.85 17.6994 20.5667H17.7327C18.0827 19.8333 18.4494 19.1167 18.816 18.4167C19.1827 17.7167 19.566 17.0167 19.9494 16.3167C20.3327 15.6167 20.6994 14.9 21.066 14.2167C21.0827 14.15 21.116 14.0833 21.166 14.05C21.2327 14.0167 21.2994 14 21.3827 14.0167H24.8994C24.9827 14 25.066 14.05 25.0827 14.1333C25.0994 14.15 25.066 14.2167 25.0327 14.25Z" fill="#FF61F6"/>
<path fill-rule="evenodd" clip-rule="evenodd" d="M29.1488 31.0833C30.2655 31.6 31.4988 31.85 32.7321 31.8333C33.5988 31.8333 34.4488 31.75 35.2988 31.6C36.2321 31.4333 37.1488 31.1666 38.0155 30.8C38.1321 30.75 38.1821 30.65 38.1821 30.5333C38.1796 30.4896 38.177 30.4447 38.1744 30.3988C38.1599 30.1468 38.1437 29.8627 38.1155 29.5666C38.1139 29.533 38.1124 29.4997 38.1109 29.4667C38.0959 29.1392 38.0821 28.8391 38.0821 28.5666V12.7V12.6666C38.0655 12.6 37.9988 12.5333 37.9155 12.55H34.5321C34.4155 12.55 34.3655 12.6166 34.3655 12.7333V18C34.2729 17.9922 34.1875 17.9881 34.1076 17.9842C34.0148 17.9797 33.9294 17.9756 33.8488 17.9666C33.6988 17.95 33.5821 17.95 33.4988 17.95C31.8488 17.95 30.4488 18.2666 29.2821 18.9166C28.1821 19.5166 27.2655 20.4166 26.6321 21.5C26.0155 22.5666 25.6988 23.7833 25.7155 25.0166C25.7155 26.5333 26.0155 27.8 26.6321 28.8166C27.2321 29.8 28.0988 30.6 29.1488 31.0833ZM34.3655 21.1667V28.5C34.1655 28.5667 33.9821 28.6 33.7655 28.5833C33.5488 28.6 33.3155 28.6167 33.0655 28.6167C32.5988 28.6167 32.1321 28.55 31.6821 28.4C31.2488 28.2667 30.8655 28.0333 30.5488 27.7333C30.2155 27.4 29.9655 27 29.7988 26.55C29.5988 26 29.4988 25.4167 29.5155 24.8333C29.5155 23.9667 29.6988 23.25 30.0655 22.7167C30.4321 22.1833 30.9155 21.7667 31.4821 21.4833C32.0655 21.1833 32.7155 21.05 33.3655 21.05C33.5488 21.05 33.7321 21.0667 33.9155 21.0833C34.0655 21.1 34.2155 21.1333 34.3655 21.1667Z" fill="#FF61F6"/>
</svg>
