<svg width="220" height="226" viewBox="0 0 220 226" fill="none" xmlns="http://www.w3.org/2000/svg">
<path d="M24.3633 83.6936V173.961C24.364 176.277 25.6017 178.417 27.6116 179.578L106.014 224.712C108.025 225.867 110.5 225.867 112.511 224.712L190.914 179.578C192.924 178.417 194.161 176.277 194.162 173.961V83.6936C194.161 81.3776 192.924 79.2373 190.914 78.0767L112.511 32.9429C110.5 31.7872 108.025 31.7872 106.014 32.9429L27.6116 78.0767C25.6017 79.2373 24.364 81.3776 24.3633 83.6936Z" fill="#334B63"/>
<rect x="76.041" y="44.1694" width="113.61" height="29.4463" rx="2" fill="#14304B"/>
<rect x="35.4375" y="84.6581" width="132.886" height="95.7003" rx="2" fill="#14304B"/>
<rect x="28.0547" y="191.401" width="73.8255" height="22.0847" rx="2" fill="#14304B"/>
<rect x="138.793" y="154.593" width="66.443" height="58.8925" rx="2" fill="#14304B"/>
<rect x="183.088" y="125.147" width="22.1477" height="14.7231" rx="3" fill="#14304B"/>
<ellipse cx="35.4368" cy="55.2118" rx="18.4564" ry="18.4039" fill="#14304B"/>
<ellipse cx="48.3572" cy="68.0945" rx="5.53691" ry="5.52117" fill="#14304B"/>
<ellipse cx="39.1283" cy="51.531" rx="18.4564" ry="18.4039" fill="#007DFF"/>
<path d="M44.6216 59.6287L44.4001 57.2288C45.5265 56.276 46.1902 54.8881 46.2236 53.4155V51.2807C46.857 50.8006 47.318 50.1292 47.5377 49.3667C48.0249 47.8428 47.6041 46.3484 46.6149 46.0319C46.4882 45.9931 46.356 45.9757 46.2236 45.9804V45.546C46.2236 41.6389 43.0472 38.4716 39.129 38.4716C35.2107 38.4716 32.0343 41.6389 32.0343 45.546V45.9804C31.9019 45.9757 31.7697 45.9931 31.6431 46.0319C30.6538 46.3484 30.233 47.8428 30.7202 49.3667C30.9399 50.1292 31.4009 50.8006 32.0343 51.2807V53.4155C32.0677 54.8881 32.7314 56.276 33.8578 57.2288L33.6363 59.6287C26.2538 61.0127 20.9531 65.1131 20.9531 69.9349H57.3048C57.3048 65.091 51.982 60.9906 44.6216 59.6287Z" fill="#66B1FF"/>
<ellipse cx="52.0486" cy="64.4137" rx="5.53691" ry="5.52117" fill="#F2F2F2"/>
<ellipse cx="52.0468" cy="64.4138" rx="3.32215" ry="3.3127" fill="#3CCD78"/>
<path d="M79.7324 51.531H194.162V68.4626C194.162 69.2757 193.501 69.9349 192.685 69.9349H81.2089C80.3935 69.9349 79.7324 69.2757 79.7324 68.4626V51.531Z" fill="#F3F6F7"/>
<path d="M81.2089 40.4886H192.685C193.501 40.4886 194.162 41.1478 194.162 41.961V51.531H79.7324V41.961C79.7324 41.1478 80.3935 40.4886 81.2089 40.4886Z" fill="#FF505F"/>
<rect x="101.881" y="55.2118" width="47.9866" height="11.0423" fill="#E0E4E8"/>
<ellipse cx="188.625" cy="46.0098" rx="1.84564" ry="1.84039" fill="#FF969F"/>
<ellipse cx="181.242" cy="46.0098" rx="1.84564" ry="1.84039" fill="#FF969F"/>
<ellipse cx="173.859" cy="46.0098" rx="1.84564" ry="1.84039" fill="#FF969F"/>
<rect x="83.4238" y="55.2118" width="14.7651" height="1.47231" fill="#CCD2D8"/>
<rect x="83.4238" y="59.9968" width="14.7651" height="1.47231" fill="#CCD2D8"/>
<rect x="83.4238" y="64.7817" width="14.7651" height="1.47231" fill="#CCD2D8"/>
<ellipse cx="175.705" cy="60.7329" rx="3.69128" ry="3.68078" fill="#CCD2D8"/>
<ellipse cx="164.631" cy="60.7329" rx="3.69128" ry="3.68078" fill="#CCD2D8"/>
<ellipse cx="186.779" cy="60.7329" rx="3.69128" ry="3.68078" fill="#CCD2D8"/>
<path d="M200.422 128.827C198.946 130.126 196.731 130.126 195.255 128.827L187.171 121.775C186.899 122.15 186.751 122.601 186.75 123.063V134.106C186.75 135.325 187.742 136.314 188.965 136.314H206.683C207.906 136.314 208.898 135.325 208.898 134.106V123.063C208.896 122.601 208.749 122.15 208.477 121.775L200.422 128.827Z" fill="#F5F6F7"/>
<path d="M200.421 128.827L208.505 121.775C208.09 121.199 207.423 120.856 206.711 120.855H188.993C188.282 120.856 187.614 121.199 187.199 121.775L195.283 128.827C196.755 130.109 198.95 130.109 200.421 128.827Z" fill="#CCD2D8"/>
<ellipse cx="207.834" cy="123.063" rx="4.42953" ry="4.41694" fill="#FF505F"/>
<path d="M195.756 19.994L208.927 16.5635L195.756 13.133L192.316 0L188.876 13.133L175.705 16.5635L188.876 19.994L192.316 33.127L195.756 19.994Z" fill="#FFC846"/>
<path d="M211.243 39.1341L219.999 36.8373L211.243 34.5478L208.955 25.7655L206.674 34.5478L197.918 36.8373L206.674 39.1341L208.955 47.9164L211.243 39.1341Z" fill="#FFC846"/>
<path d="M13.3698 161.954L22.1477 159.665L13.3698 157.383L11.0738 148.623L8.77785 157.383L0 159.665L8.77785 161.954L11.0738 170.707L13.3698 161.954Z" fill="#FFC846"/>
<rect x="39.127" y="80.9772" width="132.886" height="95.7003" rx="2" fill="#F3F6F7"/>
<ellipse cx="53.8923" cy="95.7003" rx="7.38255" ry="7.36156" fill="#007DFF"/>
<rect x="68.6582" y="90.1792" width="36.9128" height="11.0423" fill="#E0E4E8"/>
<ellipse cx="160.939" cy="92.0195" rx="3.69128" ry="3.68078" fill="#CCD2D8"/>
<ellipse cx="50.201" cy="165.635" rx="3.69128" ry="3.68078" fill="#FF505F"/>
<ellipse cx="61.2753" cy="165.635" rx="3.69128" ry="3.68078" fill="#FFC846"/>
<rect x="46.5098" y="106.743" width="118.121" height="14.7231" fill="#E0E4E8"/>
<rect x="46.5098" y="124.999" width="36.9128" height="33.2743" fill="#3CCD78"/>
<rect x="87.1133" y="125.147" width="36.9128" height="33.127" fill="#3CCD78"/>
<rect x="127.719" y="125.147" width="36.9128" height="33.127" fill="#3CCD78"/>
<rect x="83.4219" y="187.72" width="22.1477" height="22.0847" rx="2" fill="#CCE5FF"/>
<path fill-rule="evenodd" clip-rule="evenodd" d="M96.7107 198.394C96.7107 199.614 95.7191 200.603 94.4959 200.603C93.2727 200.603 92.2811 199.614 92.2811 198.394V193.977C92.2811 192.757 93.2727 191.769 94.4959 191.769C95.7191 191.769 96.7107 192.757 96.7107 193.977V198.394ZM94.4959 202.296C96.6569 202.296 98.4087 200.549 98.4087 198.394H99.6637C99.5888 200.897 97.72 202.984 95.2342 203.341V205.756H93.7577V203.341C91.2718 202.984 89.403 200.897 89.3281 198.394H90.5832C90.5832 200.549 92.335 202.296 94.4959 202.296Z" fill="#007DFF"/>
<rect x="57.584" y="187.72" width="22.1477" height="22.0847" rx="2" fill="#CCE5FF"/>
<path fill-rule="evenodd" clip-rule="evenodd" d="M69.4409 192.895C71.7683 193.227 73.6309 194.99 74.0845 197.29C76.1231 197.361 77.7179 199.067 77.6466 201.099C77.5752 203.132 75.8648 204.723 73.8261 204.651H64.2288C61.7824 204.784 59.6919 202.913 59.5593 200.474C59.4268 198.034 61.3026 195.95 63.7489 195.818C64.8303 193.736 67.1135 192.564 69.4409 192.895ZM68.6583 203.179L72.3496 199.498H70.1348V196.554H67.1818V199.498H64.9671L68.6583 203.179Z" fill="#007DFF"/>
<rect x="31.7441" y="187.72" width="22.1477" height="22.0847" rx="2" fill="#CCE5FF"/>
<path fill-rule="evenodd" clip-rule="evenodd" d="M47.9859 192.873H47.2477V191.401H45.7711V192.873H39.8651V191.401H38.3886V192.873H37.6503C36.8349 192.873 36.1738 193.532 36.1738 194.345V204.651C36.1738 205.465 36.8349 206.124 37.6503 206.124H47.9859C48.8014 206.124 49.4624 205.465 49.4624 204.651V194.345C49.4624 193.532 48.8014 192.873 47.9859 192.873ZM47.9859 196.554V204.651H37.6503V196.554H47.9859ZM42.8181 198.026H39.1268V201.707H42.8181V198.026Z" fill="#007DFF"/>
<g style="mix-blend-mode:multiply" opacity="0.05">
<path d="M192.684 40.4886H182.275L165.229 69.9349H192.684C193.5 69.9349 194.161 69.2757 194.161 68.4626V41.961C194.161 41.1478 193.5 40.4886 192.684 40.4886Z" fill="#001E3C"/>
</g>
<path opacity="0.05" d="M172.013 176.677H99.6641L155.107 80.9772H172.013V176.677Z" fill="#001E3C"/>
<g style="mix-blend-mode:multiply" opacity="0.15">
<path d="M140.268 154.593H160.939V176.677H138.791V156.065C138.791 155.252 139.452 154.593 140.268 154.593Z" fill="#001E3C"/>
</g>
<rect x="142.482" y="150.912" width="66.443" height="58.8925" rx="2" fill="#F3F6F7"/>
<ellipse cx="149.865" cy="158.274" rx="3.69128" ry="3.68078" fill="#007DFF"/>
<rect x="157.248" y="154.593" width="22.1477" height="7.36156" fill="#E0E4E8"/>
<rect x="183.088" y="154.593" width="22.1477" height="7.36156" fill="#E0E4E8"/>
<rect x="142.482" y="164.899" width="66.443" height="1.47231" fill="#CCD2D8"/>
<ellipse cx="149.865" cy="172.997" rx="3.69128" ry="3.68078" fill="#FF505F"/>
<rect x="157.248" y="169.316" width="22.1477" height="7.36156" fill="#E0E4E8"/>
<rect x="183.088" y="169.316" width="22.1477" height="7.36156" fill="#E0E4E8"/>
<rect x="142.482" y="179.622" width="66.443" height="1.47231" fill="#CCD2D8"/>
<ellipse cx="149.865" cy="187.72" rx="3.69128" ry="3.68078" fill="#3CCD78"/>
<rect x="157.248" y="184.039" width="22.1477" height="7.36156" fill="#E0E4E8"/>
<rect x="183.088" y="184.039" width="22.1477" height="7.36156" fill="#E0E4E8"/>
<rect x="142.482" y="194.345" width="66.443" height="1.47231" fill="#CCD2D8"/>
<ellipse cx="149.865" cy="202.443" rx="3.69128" ry="3.68078" fill="#FFC846"/>
<rect x="157.248" y="198.762" width="22.1477" height="7.36156" fill="#E0E4E8"/>
<rect x="183.088" y="198.762" width="22.1477" height="7.36156" fill="#E0E4E8"/>
<path opacity="0.05" d="M187.855 209.805H208.925V173.416L187.855 209.805Z" fill="#001E3C"/>
</svg>
