<svg width="80" height="80" viewBox="0 0 80 80" fill="none" xmlns="http://www.w3.org/2000/svg">
<path d="M40.0002 7.10547C58.1675 7.10547 72.8949 21.8329 72.8949 40.0002C72.8949 58.1675 58.1675 72.8949 40.0002 72.8949C21.8329 72.8949 7.10547 58.1675 7.10547 40.0002C7.10547 21.8329 21.8329 7.10547 40.0002 7.10547Z" fill="#EF3340"/>
<path d="M40.0002 39.9998L32.0371 0.097168L17.416 6.1498L40.0002 39.9998Z" fill="white"/>
<path d="M39.9996 40.0002L6.15224 17.416L0.0996094 32.0371L39.9996 40.0002Z" fill="white"/>
<path d="M40.0003 40L0.0976562 47.9632L6.15029 62.5842L40.0003 40Z" fill="white"/>
<path d="M40.0002 40L17.416 73.8474L32.0371 79.9L40.0002 40Z" fill="white"/>
<path d="M40 40L47.9632 79.9026L62.5842 73.85L40 40Z" fill="white"/>
<path d="M40 40L73.8474 62.5842L79.9 47.9632L40 40Z" fill="white"/>
<path d="M40 40.0002L79.9026 32.0371L73.85 17.416L40 40.0002Z" fill="white"/>
<path d="M40 40.0001L62.5842 6.15273L47.9632 0.100098L40 40.0001Z" fill="white"/>
<g opacity="0.3">
<path fill-rule="evenodd" clip-rule="evenodd" d="M7.10547 40.0002C7.10547 21.8329 21.8329 7.10547 40.0002 7.10547C48.7244 7.10547 57.0913 10.5712 63.2603 16.7401C69.4293 22.9091 72.8949 31.276 72.8949 40.0002C72.8949 58.1675 58.1675 72.8949 40.0002 72.8949C21.8329 72.8949 7.10547 58.1675 7.10547 40.0002ZM69.5733 27.7537C64.6186 15.7939 52.9457 7.99796 40.0002 8.00284V7.99757C31.5076 7.97334 23.3582 11.3477 17.3686 17.3686C4.86955 29.8677 4.86955 50.1327 17.3686 62.6318C29.8677 75.1309 50.1327 75.1309 62.6318 62.6318C71.7881 53.4804 74.528 39.7135 69.5733 27.7537Z" fill="url(#paint0_linear)"/>
</g>
<path fill-rule="evenodd" clip-rule="evenodd" d="M13.8477 39.9604C13.8695 25.5167 25.5961 13.8254 40.0398 13.8472C54.4829 13.8705 66.1733 25.5962 66.1529 40.0393C66.1311 54.483 54.4045 66.1742 39.9608 66.1524C25.5172 66.1306 13.8259 54.404 13.8477 39.9604ZM20.7503 39.9999C20.7503 50.6313 29.3688 59.2499 40.0003 59.2499C50.6318 59.2499 59.2503 50.6313 59.2503 39.9999C59.2503 29.3684 50.6318 20.7499 40.0003 20.7499C29.3688 20.7499 20.7503 29.3684 20.7503 39.9999Z" fill="#BA0C2F"/>
<path d="M21.3163 30.9976C21.3546 31.3757 21.3014 31.7575 21.161 32.1107C20.9604 32.6905 20.5283 33.1612 19.9677 33.4106C19.4071 33.66 18.7682 33.6657 18.2031 33.4265C16.9663 32.9502 16.4426 31.7397 16.9268 30.4791C17.0607 30.1248 17.273 29.8054 17.5479 29.5449L18.0295 29.7291C17.7091 29.9517 17.4655 30.2679 17.3321 30.6344C17.1296 31.0823 17.129 31.5955 17.3303 32.0439C17.5316 32.4923 17.9155 32.8328 18.3847 32.9791C18.8329 33.1786 19.3442 33.1812 19.7943 32.9861C20.2445 32.791 20.5922 32.4163 20.7531 31.9528C20.9001 31.5902 20.9277 31.1901 20.8321 30.8107L21.3163 30.9976Z" fill="white"/>
<path fill-rule="evenodd" clip-rule="evenodd" d="M23.7708 27.4027L24.0577 26.9738L19.3919 26.0527L19.1445 26.4317L21.8077 30.3791L22.0893 29.9554L21.2077 28.6396L22.2261 27.1054L23.7708 27.4027ZM19.8261 26.6001L21.763 27.0001L20.9393 28.2369L19.8261 26.6001Z" fill="white"/>
<path d="M27.4809 23.6659L27.1546 23.9685L22.5099 23.3554L24.9704 25.9869L24.6178 26.3159L21.623 23.1054L21.9494 22.8027L26.5941 23.4211L24.1336 20.7711L24.4862 20.4448L27.4809 23.6659Z" fill="white"/>
<path fill-rule="evenodd" clip-rule="evenodd" d="M31.2551 21.416L31.7051 21.1528L27.9683 18.2002L27.5762 18.4212L28.1578 23.1581L28.6104 22.8949L28.4209 21.337L30.0183 20.4397L31.2551 21.416ZM28.1025 18.9055L29.6499 20.1397L28.3656 20.8686L28.1025 18.9055Z" fill="white"/>
<path fill-rule="evenodd" clip-rule="evenodd" d="M32.5131 20.8472L33.7447 20.4814C34.3278 20.3402 34.8249 19.9606 35.1146 19.4352C35.4043 18.9098 35.4601 18.2868 35.2683 17.7183C34.8999 16.4867 33.7604 15.8946 32.4894 16.2709L31.2578 16.6367L32.5131 20.8472ZM31.842 16.9104L32.6131 16.6814C33.0586 16.5171 33.5531 16.5508 33.9722 16.7739C34.3914 16.9971 34.6954 17.3885 34.8078 17.8499C34.9736 18.301 34.9387 18.8015 34.712 19.2253C34.4853 19.6491 34.0883 19.9558 33.621 20.0683L32.8499 20.2972L31.842 16.9104Z" fill="white"/>
<path fill-rule="evenodd" clip-rule="evenodd" d="M39.8819 19.458L40.4083 19.4186L38.2451 15.1738L37.7951 15.208L36.3398 19.7344L36.8477 19.6949L37.3293 18.1975L39.1714 18.0528L39.8819 19.458ZM38.0925 15.8607L38.9741 17.6317L37.4925 17.7475L38.0925 15.8607Z" fill="white"/>
<path d="M46.1737 20.1893C45.8045 20.2794 45.4191 20.2794 45.05 20.1893C44.4466 20.0769 43.9171 19.719 43.5878 19.2011C43.2585 18.6832 43.159 18.0518 43.3131 17.4577C43.6026 16.163 44.7237 15.4683 46.0395 15.763C46.4099 15.8424 46.7573 16.0053 47.0552 16.2393L46.9421 16.7419C46.6755 16.4571 46.327 16.2621 45.9447 16.184C45.4732 16.05 44.9668 16.1242 44.5534 16.3877C44.1401 16.6512 43.8591 17.0789 43.7816 17.563C43.6466 18.0374 43.7174 18.5467 43.9768 18.9663C44.2361 19.3858 44.66 19.6769 45.1447 19.7683C45.5255 19.8597 45.9256 19.8275 46.2868 19.6762L46.1737 20.1893Z" fill="white"/>
<path fill-rule="evenodd" clip-rule="evenodd" d="M50.0927 22.1054L50.5584 22.3212L50.7979 17.5554L50.3927 17.3633L46.8848 20.5738L47.3453 20.7896L48.5058 19.737L50.1716 20.5264L50.0927 22.1054ZM50.3111 18.0817L50.1979 20.058L48.8532 19.4238L50.3111 18.0817Z" fill="white"/>
<path d="M52.0292 23.4949C51.6043 23.2093 51.3835 22.7032 51.4634 22.1975L51.9318 22.3001C51.8652 22.6323 52.0068 22.9716 52.2897 23.158C52.4631 23.3028 52.6902 23.3664 52.9136 23.3327C53.137 23.299 53.3352 23.1712 53.4582 22.9817C53.7476 22.5843 53.6871 22.1922 53.2292 21.6817C52.7029 21.0975 52.7292 20.5422 53.0608 20.1028C53.4093 19.6767 53.9991 19.5351 54.5031 19.7564C55.0071 19.9778 55.3018 20.5078 55.2239 21.0528L54.7608 20.9449C54.8363 20.663 54.7202 20.3647 54.4739 20.208C54.3217 20.0798 54.1216 20.0236 53.9249 20.0539C53.7283 20.0842 53.5542 20.1979 53.4476 20.3659C53.2134 20.6843 53.245 21.0606 53.645 21.4949C54.2108 22.108 54.2476 22.708 53.8476 23.2528C53.6473 23.5379 53.3369 23.7263 52.9915 23.7723C52.646 23.8183 52.2971 23.7177 52.0292 23.4949Z" fill="white"/>
<path d="M54.1703 25.2027L53.8203 24.8738L56.8256 21.6606L57.1756 21.9896L54.1703 25.2027Z" fill="white"/>
<path d="M57.4465 29.0841L57.1834 28.7315L58.236 24.1657L55.3702 26.3631L55.0781 25.9841L58.5676 23.3052L58.8308 23.6578L57.7781 28.2236L60.6439 26.0236L60.936 26.4052L57.4465 29.0841Z" fill="white"/>
<path fill-rule="evenodd" clip-rule="evenodd" d="M58.8012 30.3434C58.5692 30.9106 58.5831 31.5488 58.8397 32.1054C59.0566 32.6789 59.5017 33.1367 60.0688 33.3696C60.636 33.6025 61.2744 33.5898 61.8318 33.3343C63.0555 32.8238 63.5397 31.5922 63.0212 30.3527C62.5028 29.1133 61.287 28.6027 60.0634 29.1133C59.4903 29.3306 59.0332 29.7761 58.8012 30.3434ZM61.663 29.5151C62.1149 29.6994 62.4671 30.0671 62.6318 30.5264C62.8468 30.9678 62.8617 31.4802 62.6729 31.9334C62.4841 32.3865 62.1097 32.7367 61.6449 32.8948C61.0408 33.1894 60.3231 33.1244 59.7816 32.7262C59.2401 32.328 58.9643 31.6623 59.0654 30.9978C59.1665 30.3333 59.6279 29.7797 60.2634 29.5606C60.7023 29.3474 61.2112 29.3309 61.663 29.5151Z" fill="white"/>
<path d="M58.6838 49.0029C58.6457 48.6239 58.699 48.2413 58.8391 47.8871C59.0391 47.3067 59.4711 46.8355 60.032 46.5861C60.5928 46.3366 61.2321 46.3312 61.797 46.5713C63.0338 47.0476 63.5575 48.2581 63.0733 49.5186C62.9395 49.873 62.7272 50.1923 62.4523 50.4529L61.9707 50.2686C62.291 50.0461 62.5346 49.7299 62.6681 49.3634C62.8696 48.9154 62.8698 48.4026 62.6687 47.9545C62.4675 47.5063 62.0841 47.1657 61.6154 47.0186C61.1676 46.819 60.6566 46.8161 60.2065 47.0107C59.7565 47.2052 59.4085 47.5794 59.247 48.0423C59.0984 48.4055 59.0707 48.8069 59.1681 49.1871L58.6838 49.0029Z" fill="white"/>
<path fill-rule="evenodd" clip-rule="evenodd" d="M56.2282 52.5945L55.9414 53.0235L60.6072 53.9524L60.8546 53.5787L58.1914 49.6313L57.9098 50.055L58.7914 51.3708L57.773 52.905L56.2282 52.5945ZM60.173 53.3998L58.2361 52.9998L59.0598 51.7629L60.173 53.3998Z" fill="white"/>
<path d="M52.5176 56.3314L52.8439 56.0314L57.4886 56.6446L55.0281 53.9972L55.3807 53.6709L58.3755 56.8946L58.0492 57.1972L53.4044 56.5788L55.8649 59.2104L55.5255 59.5551L52.5176 56.3314Z" fill="white"/>
<path fill-rule="evenodd" clip-rule="evenodd" d="M48.7449 58.5844L48.2949 58.8475L52.0318 61.8002L52.4239 61.5791L51.8423 56.8423L51.3897 57.0923L51.5844 58.6528L49.9818 59.5581L48.7449 58.5844ZM51.8976 61.0949L50.3502 59.8607L51.6344 59.1318L51.8976 61.0949Z" fill="white"/>
<path fill-rule="evenodd" clip-rule="evenodd" d="M47.4874 59.1528L46.2558 59.5186C45.6722 59.6591 45.1746 60.0386 44.8848 60.5643C44.5949 61.0899 44.5395 61.7132 44.7321 62.2818C45.0979 63.5134 46.24 64.1055 47.5111 63.7291L48.74 63.3634L47.4874 59.1528ZM48.1585 63.0897L47.3874 63.3186C46.9419 63.4829 46.4474 63.4493 46.0283 63.2261C45.6091 63.003 45.3051 62.6115 45.1927 62.1502C45.0269 61.6991 45.0617 61.1986 45.2885 60.7748C45.5152 60.351 45.9122 60.0442 46.3795 59.9318L47.1506 59.7028L48.1585 63.0897Z" fill="white"/>
<path fill-rule="evenodd" clip-rule="evenodd" d="M40.1181 60.5419L39.5918 60.5814L41.7523 64.8262L42.2023 64.7919L43.6576 60.2656L43.1497 60.3051L42.6681 61.8025L40.826 61.9472L40.1181 60.5419ZM41.9076 64.1419L41.026 62.3709L42.5076 62.2551L41.9076 64.1419Z" fill="white"/>
<path d="M33.8269 59.8108C34.196 59.7206 34.5814 59.7206 34.9506 59.8108C35.5539 59.9232 36.0835 60.2811 36.4128 60.799C36.7421 61.3169 36.8416 61.9483 36.6874 62.5423C36.3979 63.8371 35.2769 64.5318 33.9611 64.2371C33.5907 64.1577 33.2433 63.9948 32.9453 63.7608L33.0558 63.2581C33.3239 63.5425 33.6731 63.7373 34.0558 63.816C34.5274 63.95 35.0338 63.8759 35.4471 63.6124C35.8605 63.3489 36.1414 62.9211 36.219 62.4371C36.354 61.9627 36.2831 61.4534 36.0238 61.0338C35.7644 60.6143 35.3405 60.3232 34.8558 60.2318C34.475 60.1403 34.075 60.1726 33.7137 60.3239L33.8269 59.8108Z" fill="white"/>
<path fill-rule="evenodd" clip-rule="evenodd" d="M29.9083 57.8971L29.4425 57.6787L29.2109 62.4261L29.6083 62.6313L33.1162 59.4287L32.6557 59.2129L31.4951 60.2656L29.8294 59.4761L29.9083 57.8971ZM29.6899 61.9182L29.803 59.9419L31.1478 60.5761L29.6899 61.9182Z" fill="white"/>
<path d="M27.9718 56.5025C28.3977 56.7885 28.6185 57.2959 28.5376 57.8025L28.0692 57.6999C28.1343 57.3678 27.993 57.0293 27.7113 56.842C27.5375 56.6974 27.3102 56.6342 27.0868 56.6685C26.8634 56.7027 26.6654 56.831 26.5429 57.0209C26.2534 57.4183 26.3139 57.8104 26.7718 58.3209C27.2981 58.9051 27.2718 59.4604 26.9402 59.913C26.5905 60.3439 25.9949 60.4862 25.4882 60.2599C24.9814 60.0337 24.6898 59.4953 24.7771 58.9472L25.2402 59.0551C25.1647 59.337 25.2809 59.6353 25.5271 59.792C25.6793 59.9202 25.8794 59.9763 26.0761 59.9461C26.2727 59.9158 26.4468 59.8021 26.5534 59.6341C26.7876 59.3157 26.756 58.9393 26.356 58.5051C25.7902 57.892 25.7534 57.292 26.1534 56.7472C26.3538 56.4623 26.6639 56.2739 27.0091 56.2275C27.3543 56.181 27.7032 56.2807 27.9718 56.5025Z" fill="white"/>
<path d="M25.8295 54.7974L26.1821 55.1237L23.1742 58.3395L22.8242 58.0105L25.8295 54.7974Z" fill="white"/>
<path d="M22.552 50.916L22.8151 51.2686L21.7625 55.8344L24.6283 53.6344L24.9204 54.016L21.4414 56.695L21.1783 56.3423L22.2309 51.7765L19.3546 53.9739L19.0625 53.595L22.552 50.916Z" fill="white"/>
<path fill-rule="evenodd" clip-rule="evenodd" d="M21.1998 49.6572C21.4322 49.0901 21.4191 48.452 21.1635 47.895C20.9459 47.3213 20.5004 46.8634 19.933 46.6301C19.3656 46.3968 18.7269 46.4088 18.1687 46.6634C16.9451 47.1765 16.4609 48.4081 16.9793 49.6476C17.4977 50.8871 18.7135 51.3976 19.9372 50.8871C20.5102 50.6696 20.9674 50.2243 21.1998 49.6572ZM18.3509 50.4848C17.8988 50.301 17.5464 49.9333 17.3819 49.4739C17.1664 49.0343 17.1496 48.5234 17.3358 48.0706C17.5219 47.6178 17.8932 47.2664 18.3556 47.1055C18.9507 46.8563 19.6336 46.9436 20.1469 47.3344C20.6602 47.7253 20.9261 48.3603 20.8443 49.0002C20.7625 49.6402 20.3455 50.1879 19.7503 50.4371C19.3119 50.6513 18.8029 50.6686 18.3509 50.4848Z" fill="white"/>
<path d="M63.684 40.0002C63.684 40.5467 63.241 40.9897 62.6946 40.9897C62.1481 40.9897 61.7051 40.5467 61.7051 40.0002C61.7051 39.4537 62.1481 39.0107 62.6946 39.0107C63.241 39.0107 63.684 39.4537 63.684 40.0002Z" fill="white"/>
<path d="M18.2895 40.0002C18.2895 40.5467 17.8465 40.9897 17.3 40.9897C16.7535 40.9897 16.3105 40.5467 16.3105 40.0002C16.3105 39.4537 16.7535 39.0107 17.3 39.0107C17.8465 39.0107 18.2895 39.4537 18.2895 40.0002Z" fill="white"/>
<path d="M40 20.75C29.3685 20.75 20.75 29.3685 20.75 40C20.75 50.6315 29.3685 59.25 40 59.25C50.6315 59.25 59.25 50.6315 59.25 40C59.25 29.3685 50.6315 20.75 40 20.75Z" fill="#EF3340"/>
<path d="M39.9991 21.6475C29.8632 21.6475 21.6465 29.8642 21.6465 40.0001C21.6465 50.136 29.8632 58.3527 39.9991 58.3527C50.135 58.3527 58.3517 50.136 58.3517 40.0001C58.3503 29.8648 50.1344 21.6489 39.9991 21.6475Z" fill="white"/>
<path d="M46.1557 27.5157C45.7662 29.5526 45.375 31.5912 44.982 33.6315C44.832 34.421 44.6741 35.1842 44.5267 35.9605C44.43 36.2253 44.542 36.5209 44.7899 36.6552C45.0399 36.7842 45.2662 36.721 45.5241 36.4447C46.6425 35.2473 47.7583 34.0473 48.9109 32.8105C49.1478 33.3552 49.3714 33.8631 49.5899 34.3894C49.9609 35.2605 49.9583 35.2579 50.8688 35.0631C52.1425 34.8 53.4214 34.5184 54.6978 34.25C54.7486 34.2459 54.7996 34.2459 54.8504 34.25C54.5293 35.2368 54.2135 36.2052 53.9004 37.1763C53.7188 37.7315 53.5372 38.2868 53.3609 38.8447C53.232 39.2552 53.3241 39.4526 53.7109 39.6342L55.3557 40.4236L53.553 41.8868C51.5846 43.4815 49.6144 45.0754 47.6425 46.6684C47.4077 46.8359 47.3286 47.1489 47.4557 47.4079C47.7609 48.2368 48.0583 49.0657 48.3793 49.9473L46.9583 49.7105C45.0846 49.3824 43.2109 49.0543 41.3372 48.7263C41.0926 48.6612 40.8317 48.7211 40.64 48.8864C40.4484 49.0518 40.3508 49.3011 40.3793 49.5526C40.4399 50.921 40.5214 52.2921 40.5925 53.6605C40.6425 54.5763 40.6899 55.5026 40.7478 56.4079C40.7478 56.6 40.7057 56.671 40.5109 56.6526C40.1708 56.6355 39.83 56.6355 39.4899 56.6526C39.2872 56.6526 39.2504 56.5842 39.2609 56.4026C39.3381 55.0728 39.4109 53.7447 39.4793 52.4184C39.532 51.471 39.5872 50.5236 39.6267 49.5763C39.6613 49.3202 39.5653 49.0639 39.3711 48.8935C39.1769 48.7231 38.9103 48.6613 38.6609 48.7289L32.0372 49.8868C31.9188 49.9079 31.7978 49.921 31.6346 49.9421L32.3504 47.95C32.4188 47.7579 32.4951 47.5657 32.5635 47.3736C32.6767 47.119 32.5914 46.8198 32.3609 46.6631L26.4688 41.8736L24.6504 40.4026L26.053 39.7368L26.3162 39.621C26.6978 39.4368 26.7872 39.2342 26.6557 38.8315C26.1925 37.3947 25.7276 35.9596 25.2609 34.5263C25.2346 34.4394 25.2057 34.35 25.1609 34.2157L26.5635 34.5105C27.5583 34.7236 28.553 34.9394 29.5478 35.15C29.6922 35.1998 29.8508 35.1876 29.9859 35.1163C30.121 35.045 30.2205 34.921 30.2609 34.7736C30.5083 34.2105 30.7504 33.6447 30.982 33.0736C31.0662 32.8657 31.1214 32.8105 31.2951 33.0131C32.3478 34.1526 33.4004 35.2789 34.453 36.4105C34.5407 36.5226 34.6533 36.6128 34.782 36.6736C35.1872 36.8368 35.5714 36.5131 35.4872 36.0421C35.3951 35.4421 35.2635 34.85 35.1478 34.2552C34.7083 31.9868 34.2688 29.7157 33.832 27.3973L35.6399 28.45C35.903 28.5947 36.1372 28.7421 36.3899 28.8842C36.8662 29.1473 37.1083 29.0842 37.353 28.6L39.8425 23.7157C39.8925 23.6157 39.9478 23.521 40.0241 23.3789C40.2451 23.8052 40.4451 24.1921 40.6425 24.5815L42.6846 28.5868C42.9478 29.0894 43.1767 29.1579 43.6714 28.8763L46.1346 27.4789L46.1557 27.5157Z" fill="#EF3340"/>
<path d="M40 20.75C29.3685 20.75 20.75 29.3685 20.75 40C20.75 50.6315 29.3685 59.25 40 59.25C50.6315 59.25 59.25 50.6315 59.25 40C59.25 29.3685 50.6315 20.75 40 20.75Z" fill="url(#paint1_linear)"/>
<defs>
<linearGradient id="paint0_linear" x1="7.10547" y1="7.10547" x2="7.10547" y2="72.8949" gradientUnits="userSpaceOnUse">
<stop stop-color="white"/>
<stop offset="1"/>
</linearGradient>
<linearGradient id="paint1_linear" x1="13.1895" y1="44.7263" x2="44.7263" y2="66.8105" gradientUnits="userSpaceOnUse">
<stop stop-color="white" stop-opacity="0.3"/>
<stop offset="0.17" stop-color="white" stop-opacity="0.29"/>
<stop offset="0.27" stop-color="white" stop-opacity="0.26"/>
<stop offset="0.35" stop-color="white" stop-opacity="0.2"/>
<stop offset="0.42" stop-color="white" stop-opacity="0.12"/>
<stop offset="0.49" stop-color="white" stop-opacity="0.02"/>
<stop offset="0.5" stop-color="white" stop-opacity="0.01"/>
</linearGradient>
</defs>
</svg>
