<svg width="220" height="215" viewBox="0 0 220 215" fill="none" xmlns="http://www.w3.org/2000/svg">
<path d="M33.7891 62.6946V154.553C33.7897 156.91 35.0486 159.088 37.0928 160.269L116.833 206.198C118.878 207.374 121.396 207.374 123.441 206.198L203.182 160.269C205.226 159.088 206.485 156.91 206.485 154.553V62.6946C206.485 60.3378 205.226 58.1598 203.182 56.9787L123.441 11.0497C121.396 9.87359 118.878 9.87359 116.833 11.0497L37.0928 56.9787C35.0486 58.1598 33.7897 60.3378 33.7891 62.6946Z" fill="#334B63"/>
<rect x="127.645" y="26.2195" width="60.0683" height="74.9129" rx="2" fill="#14304B"/>
<rect y="82.4042" width="90.1024" height="18.7282" rx="2" fill="#14304B"/>
<rect x="30.0332" y="134.843" width="123.891" height="59.9303" rx="2" fill="#14304B"/>
<rect x="191.467" y="157.317" width="22.5256" height="14.9826" rx="2" fill="#14304B"/>
<ellipse cx="95.7333" cy="46.8206" rx="9.38567" ry="9.36411" fill="#14304B"/>
<ellipse cx="69.454" cy="46.8206" rx="9.38567" ry="9.36411" fill="#14304B"/>
<ellipse cx="43.1747" cy="46.8206" rx="9.38567" ry="9.36411" fill="#14304B"/>
<ellipse cx="99.4892" cy="43.0749" rx="9.38567" ry="9.36411" fill="#007DFF"/>
<rect x="98.4453" y="37.876" width="2.08737" height="10.4054" fill="#99CBFF"/>
<path d="M94.2773 44.1162V42.0336H104.707V44.1162H94.2773Z" fill="#99CBFF"/>
<ellipse cx="73.2079" cy="43.0749" rx="9.38567" ry="9.36411" fill="#99CBFF"/>
<rect x="72.166" y="37.876" width="2.08737" height="10.4054" fill="#007DFF"/>
<path d="M67.998 44.1162V42.0336H78.4274V44.1162H67.998Z" fill="#007DFF"/>
<ellipse cx="46.9286" cy="43.0749" rx="9.38567" ry="9.36411" fill="#99CBFF"/>
<path fill-rule="evenodd" clip-rule="evenodd" d="M38.2577 39.4914C39.7104 35.9923 43.1328 33.7108 46.9289 33.7108C52.1125 33.7108 56.3146 37.9033 56.3146 43.0749C56.3146 46.8623 54.0278 50.2768 50.5206 51.7262C47.0135 53.1756 42.9765 52.3745 40.2922 49.6963C37.608 47.0182 36.805 42.9906 38.2577 39.4914ZM54.8129 43.0749C54.8129 38.7307 51.2831 35.2091 46.9289 35.2091C42.5764 35.2132 39.0491 38.7324 39.0449 43.0749C39.0449 47.4191 42.5747 50.9408 46.9289 50.9408C51.2831 50.9408 54.8129 47.4191 54.8129 43.0749Z" fill="#007DFF"/>
<rect x="45.8848" y="37.876" width="2.08737" height="10.4054" fill="#007DFF"/>
<path d="M41.7188 44.1162V42.0336H52.1481V44.1162H41.7188Z" fill="#007DFF"/>
<path d="M209.097 184.286C207.596 185.608 205.343 185.608 203.841 184.286L195.619 177.109C195.343 177.491 195.193 177.949 195.191 178.42V189.657C195.191 190.898 196.2 191.904 197.444 191.904H215.464C216.708 191.904 217.717 190.898 217.717 189.657V178.42C217.716 177.949 217.566 177.491 217.289 177.109L209.097 184.286Z" fill="#F5F6F7"/>
<path d="M209.098 184.286L217.32 177.109C216.898 176.523 216.219 176.174 215.495 176.173H197.475C196.751 176.174 196.073 176.523 195.65 177.109L203.872 184.286C205.369 185.59 207.601 185.59 209.098 184.286Z" fill="#CCD2D8"/>
<path d="M209.097 206.76C207.596 208.081 205.343 208.081 203.841 206.76L195.619 199.583C195.343 199.964 195.193 200.423 195.191 200.894V212.131C195.191 213.372 196.2 214.378 197.444 214.378H215.464C216.708 214.378 217.717 213.372 217.717 212.131V200.894C217.716 200.423 217.566 199.964 217.289 199.583L209.097 206.76Z" fill="#F5F6F7"/>
<path d="M209.098 206.76L217.32 199.583C216.898 198.997 216.219 198.648 215.495 198.647H197.475C196.751 198.648 196.073 198.997 195.65 199.583L203.872 206.76C205.369 208.064 207.601 208.064 209.098 206.76Z" fill="#CCD2D8"/>
<ellipse cx="215.495" cy="178.42" rx="4.50512" ry="4.49477" fill="#3CCD78"/>
<path d="M209.099 161.684C207.6 163.013 205.342 163.013 203.843 161.684L195.621 154.508C195.355 154.893 195.216 155.351 195.223 155.819V167.056C195.223 168.297 196.231 169.303 197.475 169.303H215.496C216.74 169.303 217.749 168.297 217.749 167.056V155.819C217.747 155.348 217.597 154.889 217.321 154.508L209.099 161.684Z" fill="#F5F6F7"/>
<path d="M209.098 161.684L217.32 154.508C216.898 153.921 216.219 153.573 215.495 153.571H197.475C196.751 153.573 196.073 153.921 195.65 154.508L203.872 161.684C205.366 162.995 207.604 162.995 209.098 161.684Z" fill="#CCD2D8"/>
<ellipse cx="215.495" cy="155.819" rx="4.50512" ry="4.49477" fill="#FF505F"/>
<path d="M35.7871 191.028C34.6825 191.028 33.7871 190.132 33.7871 189.028V133.098C33.7871 131.993 34.6825 131.098 35.7871 131.098H155.678C156.782 131.098 157.678 131.993 157.678 133.098V189.028C157.678 190.132 156.782 191.028 155.678 191.028H35.7871Z" fill="#A5EDFF"/>
<rect x="93.8555" y="97.3868" width="90.1024" height="18.7282" rx="2" transform="rotate(180 93.8555 97.3868)" fill="#99CBFF"/>
<rect x="131.398" y="22.4739" width="60.0683" height="74.9129" rx="2" fill="#FFB9BF"/>
<path d="M47.0508 179.791C45.9462 179.791 45.0508 178.896 45.0508 177.791V121.861C45.0508 120.756 45.9462 119.861 47.0508 119.861H166.942C168.046 119.861 168.942 120.756 168.942 121.861V177.791C168.942 178.896 168.046 179.791 166.942 179.791H47.0508Z" fill="#78E4FF"/>
<path d="M58.3145 168.554C57.2099 168.554 56.3145 167.659 56.3145 166.554L56.3145 110.624C56.3145 109.519 57.2099 108.624 58.3145 108.624H178.205C179.31 108.624 180.205 109.519 180.205 110.624V166.554C180.205 167.659 179.31 168.554 178.205 168.554H58.3145Z" fill="#F5F6F7"/>
<path d="M124.16 161.063V116.115H172.433V161.063H124.16Z" fill="#A5EDFF"/>
<rect x="63.8223" y="116.115" width="41.2969" height="11.2369" fill="#E0E4E8"/>
<rect x="63.8223" y="131.098" width="48.8055" height="7.49129" fill="#E0E4E8"/>
<rect x="63.8223" y="149.826" width="48.8055" height="11.2369" rx="2" fill="#1ED2FF"/>
<rect x="142.662" y="11.2369" width="60.0683" height="74.9129" rx="2" fill="#FF969F"/>
<rect x="153.924" width="60.0683" height="74.9129" rx="2" fill="#F5F6F7"/>
<rect x="161.434" y="7.49129" width="28.5324" height="11.2369" fill="#E0E4E8"/>
<rect x="161.434" y="59.9303" width="45.0512" height="7.49129" fill="#E0E4E8"/>
<path d="M183.959 22.4739C174.628 22.4739 167.064 30.0203 167.064 39.3293C167.064 48.6382 174.628 56.1847 183.959 56.1847C193.289 56.1847 200.853 48.6382 200.853 39.3293H183.959V22.4739Z" fill="#FFB9BF"/>
<path d="M183.959 22.4739V39.3293H200.853C200.853 30.0203 193.289 22.4739 183.959 22.4739H183.959Z" fill="#FF505F"/>
<rect x="202.73" y="7.49129" width="7.50853" height="7.49129" fill="#FF505F"/>
<rect x="101.365" y="89.8955" width="90.1024" height="18.7282" rx="2" transform="rotate(180 101.365 89.8955)" fill="#66B1FF"/>
<rect x="108.873" y="82.4042" width="90.1024" height="18.7282" rx="2" transform="rotate(180 108.873 82.4042)" fill="#007DFF"/>
<ellipse cx="99.4869" cy="73.0401" rx="5.6314" ry="5.61847" fill="#99CBFF"/>
<rect x="22.5254" y="67.4216" width="15.0171" height="1.49826" fill="#F2F2F2"/>
<rect x="22.5254" y="77.1603" width="15.0171" height="1.49826" fill="#F2F2F2"/>
<rect x="22.5254" y="72.2909" width="15.0171" height="1.49826" fill="#F2F2F2"/>
<rect x="45.0508" y="67.4216" width="37.5427" height="11.2369" fill="#66B1FF"/>
</svg>
