<svg width="220" height="222" viewBox="0 0 220 222" fill="none" xmlns="http://www.w3.org/2000/svg">
<path d="M20.7539 58.776V160.73C20.7547 163.345 22.1466 165.763 24.4067 167.074L112.573 218.051C114.834 219.356 117.618 219.356 119.878 218.051L208.044 167.074C210.305 165.763 211.697 163.345 211.697 160.73V58.776C211.697 56.1602 210.305 53.7428 208.044 52.4319L119.878 1.45506C117.618 0.149745 114.834 0.149745 112.573 1.45506L24.4067 52.4319C22.1466 53.7428 20.7547 56.1602 20.7539 58.776Z" fill="#334B63"/>
<rect x="4.15039" y="26.6068" width="41.5094" height="120.562" rx="2" fill="#14304B"/>
<rect x="58.1133" y="88.9663" width="41.5094" height="12.4719" rx="2" fill="#14304B"/>
<rect x="58.1133" y="68.1798" width="41.5094" height="12.4719" rx="2" fill="#14304B"/>
<rect x="58.1133" y="109.753" width="87.1698" height="83.1461" rx="2" fill="#14304B"/>
<rect x="124.527" y="64.0225" width="78.8679" height="83.1461" rx="2" fill="#14304B"/>
<rect x="120.377" y="39.0787" width="99.6226" height="4.1573" rx="2.07865" fill="#14304B"/>
<ellipse cx="190.944" cy="39.0787" rx="10.3774" ry="10.3933" fill="#CCE5FF"/>
<path d="M118.302 37.0001H190.944V41.1574H118.302C117.156 41.1574 116.227 40.2267 116.227 39.0787C116.227 37.9307 117.156 37.0001 118.302 37.0001Z" fill="#3397FF"/>
<path d="M190.943 37.0001H213.774C214.92 37.0001 215.849 37.9307 215.849 39.0787C215.849 40.2267 214.92 41.1574 213.774 41.1574H190.943V37.0001Z" fill="#99CBFF"/>
<ellipse cx="190.943" cy="39.0787" rx="6.22642" ry="6.23596" fill="#007DFF"/>
<rect x="120.377" y="59.8652" width="78.8679" height="83.1461" rx="2" fill="#F5F6F7"/>
<rect x="124.529" y="64.0225" width="51.0566" height="12.4719" fill="#E0E4E8"/>
<rect x="190.943" y="97.2809" width="33.2075" height="8.31461" transform="rotate(-180 190.943 97.2809)" fill="#007DFF"/>
<rect x="190.943" y="109.753" width="45.6604" height="8.31461" transform="rotate(-180 190.943 109.753)" fill="#007DFF"/>
<rect x="190.943" y="122.225" width="24.9057" height="8.31461" transform="rotate(-180 190.943 122.225)" fill="#007DFF"/>
<rect x="161.887" y="97.2809" width="33.2075" height="8.31461" transform="rotate(-180 161.887 97.2809)" fill="#66B1FF"/>
<rect x="149.434" y="109.753" width="20.7547" height="8.31461" transform="rotate(-180 149.434 109.753)" fill="#66B1FF"/>
<rect x="170.189" y="122.225" width="41.5094" height="8.31461" transform="rotate(-180 170.189 122.225)" fill="#66B1FF"/>
<rect x="190.943" y="134.697" width="41.5094" height="8.31461" transform="rotate(-180 190.943 134.697)" fill="#007DFF"/>
<rect x="153.586" y="134.697" width="24.9057" height="8.31461" transform="rotate(-180 153.586 134.697)" fill="#66B1FF"/>
<ellipse cx="190.944" cy="68.1798" rx="4.15094" ry="4.1573" fill="#CCD2D8"/>
<rect x="120.377" y="79.8203" width="78.8679" height="1.66292" fill="#CCD2D8"/>
<path d="M73.9697 29.4087C72.4256 26.731 69.0076 25.8119 66.332 27.355L56.0543 33.3L55.1161 31.6371L50.2429 34.4557L51.5629 36.7422L37.8067 44.6993C36.7571 45.3047 35.9743 46.2846 35.615 47.4431C35.3364 48.3884 34.4568 49.0269 33.4731 48.998C32.5292 48.9502 31.5917 49.1784 30.775 49.6548C29.3395 50.2818 28.3895 51.677 28.331 53.2444C28.2725 54.8118 29.1157 56.2742 30.5005 57.0068C31.8853 57.7394 33.5667 57.6126 34.8263 56.6807C35.6481 56.212 36.3148 55.5125 36.7441 54.6685C37.2086 53.7982 38.2027 53.3534 39.1599 53.5876C40.3412 53.8573 41.5806 53.6702 42.6301 53.0638L56.3863 45.1067L57.7063 47.3932L62.5795 44.5829L61.6414 42.92L71.9192 36.975C74.5474 35.4342 75.4594 32.0691 73.9697 29.4087Z" fill="#14304B"/>
<path d="M41.5098 26.6068L41.5098 141.348C41.5098 142.267 40.7664 143.011 39.8494 143.011H1.66071C0.74371 143.011 0.000331879 142.267 0.000331879 141.348L0.000331879 26.6068L41.5098 26.6068Z" fill="#F3F6F7"/>
<path d="M37.3594 30.764V64.0225H4.15183V30.764L37.3594 30.764Z" fill="#007DFF"/>
<path d="M37.3594 68.1797V101.438H4.15183V68.1797H37.3594Z" fill="#1ED2FF"/>
<path d="M37.3594 105.596V138.854H4.15183V105.596H37.3594Z" fill="#FFC846"/>
<path d="M1.66038 14.1348H39.8491C40.7661 14.1348 41.5094 14.8793 41.5094 15.7977V26.6067H0V15.7977C0 14.8793 0.743376 14.1348 1.66038 14.1348Z" fill="#007DFF"/>
<ellipse cx="35.2825" cy="20.3708" rx="2.07547" ry="2.07865" fill="#66B1FF"/>
<ellipse cx="26.9817" cy="20.3708" rx="2.07547" ry="2.07865" fill="#66B1FF"/>
<ellipse cx="18.679" cy="20.3708" rx="2.07547" ry="2.07865" fill="#66B1FF"/>
<g style="mix-blend-mode:multiply" opacity="0.15">
<path d="M145.283 143.011H120.378V109.753H143.623C144.54 109.753 145.283 110.497 145.283 111.416V143.011Z" fill="#001E3C"/>
</g>
<path d="M55.6233 105.596H139.472C140.389 105.596 141.133 106.34 141.133 107.258V122.225H53.9629V107.258C53.9629 106.34 54.7063 105.596 55.6233 105.596Z" fill="#007DFF"/>
<rect x="58.1133" y="109.753" width="58.1132" height="8.31461" fill="#66B1FF"/>
<path d="M53.9629 122.225H141.133V187.079C141.133 187.997 140.389 188.742 139.472 188.742H55.6233C54.7063 188.742 53.9629 187.997 53.9629 187.079V122.225Z" fill="#F3F6F7"/>
<rect x="58.1133" y="143.011" width="58.1132" height="8.31461" fill="#E0E4E8"/>
<rect x="58.1133" y="126.382" width="58.1132" height="8.31461" fill="#E0E4E8"/>
<rect x="58.1133" y="176.27" width="58.1132" height="8.31461" fill="#E0E4E8"/>
<rect x="53.9629" y="155.483" width="87.1698" height="16.6292" fill="#CCE5FF"/>
<rect x="58.1133" y="159.64" width="58.1132" height="8.31461" fill="#99CBFF"/>
<path d="M136.98 109.753L130.754 118.067L124.527 109.753H136.98Z" fill="#66B1FF"/>
<rect x="153.584" y="155.483" width="66.4151" height="66.5169" rx="2" fill="#007DFF"/>
<path fill-rule="evenodd" clip-rule="evenodd" d="M173.461 172.478L161.738 204.44H165.79L169.002 195.393H181.904L185.133 204.44H189.168L177.445 172.478H173.461ZM175.578 177.55L180.691 191.968L170.19 191.951L175.328 177.55H175.578Z" fill="#F3F6F7"/>
<path fill-rule="evenodd" clip-rule="evenodd" d="M201.893 190.587C197.452 191.161 192.604 192.142 192.604 197.638C192.604 202.319 196.173 205.005 200.764 205.022C204.94 205.022 207.132 202.777 207.879 201.213H208.062V204.448H211.739V188.65C211.739 181.034 205.945 180.161 202.89 180.161C199.27 180.161 195.16 181.408 193.293 185.773L196.779 187.029C197.593 185.274 199.502 183.404 203.014 183.404C206.401 183.404 208.062 185.2 208.062 188.276V188.401C208.062 189.88 206.868 190.014 203.913 190.347C203.314 190.415 202.642 190.491 201.893 190.587ZM208.062 192.392V195.767H208.02C208.02 198.761 205.654 201.696 201.329 201.696C198.398 201.696 196.281 200.39 196.281 197.829C196.281 195.019 198.838 194.146 201.702 193.764C201.793 193.753 201.893 193.741 202 193.729C203.737 193.528 207.475 193.096 208.062 192.392Z" fill="#F3F6F7"/>
<rect x="53.9629" y="84.809" width="41.5094" height="12.4719" rx="2" fill="#007DFF"/>
<rect x="58.1133" y="88.9663" width="33.2075" height="4.1573" fill="#66B1FF"/>
<rect x="53.9629" y="64.0225" width="41.5094" height="12.4719" rx="2" fill="#66B1FF"/>
<rect x="58.1133" y="68.1797" width="33.2075" height="4.1573" fill="#007DFF"/>
<g style="mix-blend-mode:multiply" opacity="0.15">
<path d="M41.5098 46.0546H39.8992C38.6865 46.0521 37.5179 46.5096 36.6283 47.335C35.9144 48.0147 34.8317 48.1242 33.9966 47.6011C33.2024 47.0888 32.2762 46.8201 31.3317 46.8278C28.8411 46.8278 26.7988 48.6404 26.7988 50.877C26.9371 53.2486 28.9632 55.0622 31.3317 54.9346C32.277 54.9394 33.2031 54.6677 33.9966 54.153C34.8335 53.6321 35.9164 53.745 36.6283 54.4274C37.5179 55.2528 38.6865 55.7103 39.8992 55.7078H41.5098V46.0546Z" fill="#001E3C"/>
</g>
<path d="M49.8936 32.2191L35.4317 40.5836C34.382 41.189 33.5993 42.1689 33.24 43.3274C32.9614 44.2727 32.0818 44.9113 31.0981 44.8823C30.1542 44.8345 29.2167 45.0628 28.4 45.5391C27.376 46.0571 26.6 46.962 26.2433 48.054C25.8866 49.1461 25.9785 50.3354 26.4989 51.3593L52.3011 36.4014L49.8936 32.2191Z" fill="#E0E4E8"/>
<path d="M32.4525 52.5649C33.2742 52.0963 33.9409 51.3967 34.3702 50.5528C34.8347 49.6824 35.8288 49.2377 36.786 49.4719C37.9673 49.7415 39.2068 49.5545 40.2562 48.9481L54.7098 40.5836L52.3023 36.4263L26.5 51.351C27.8162 53.3218 30.4716 53.8634 32.4525 52.5649Z" fill="#CCD2D8"/>
<path d="M52.7422 27.522L60.2014 40.4616L55.334 43.2761L47.8748 30.3365L52.7422 27.522Z" fill="#007DFF"/>
<path d="M71.5957 25.2483C73.1386 27.9247 72.223 31.347 69.5507 32.8922L57.8172 39.677L52.23 29.9849L63.9635 23.2002C66.6358 21.6549 70.0529 22.5719 71.5957 25.2483Z" fill="#007DFF"/>
<rect x="71.5117" y="2.90179" width="1.66038" height="15.0661" fill="#99CBFF"/>
<path d="M77.7794 20.6399L90.8083 13.1091L91.6383 14.5494L78.6093 22.0801L77.7794 20.6399Z" fill="#99CBFF"/>
<path d="M77.7774 28.835L78.6076 27.3949L91.6353 34.9279L90.8051 36.3681L77.7774 28.835Z" fill="#99CBFF"/>
</svg>
