<svg width="48" height="48" viewBox="0 0 48 48" fill="none" xmlns="http://www.w3.org/2000/svg">
<path d="M16.6653 43.992C20.3446 43.992 23.3307 41.006 23.3307 37.3267V30.6614H16.6653C12.9861 30.6614 10 33.6474 10 37.3267C10 41.006 12.9861 43.992 16.6653 43.992Z" fill="#0ACF83"/>
<path d="M10 23.9959C10 20.3166 12.9861 17.3306 16.6653 17.3306H23.3307V30.6612H16.6653C12.9861 30.6612 10 27.6752 10 23.9959Z" fill="#A259FF"/>
<path d="M10 10.6653C10 6.98607 12.9861 4 16.6653 4H23.3307V17.3307H16.6653C12.9861 17.3307 10 14.3446 10 10.6653Z" fill="#F24E1E"/>
<path d="M23.3301 4H29.9954C33.6747 4 36.6607 6.98607 36.6607 10.6653C36.6607 14.3446 33.6747 17.3307 29.9954 17.3307H23.3301V4Z" fill="#FF7262"/>
<path d="M36.6607 23.9959C36.6607 27.6752 33.6747 30.6612 29.9954 30.6612C26.3161 30.6612 23.3301 27.6752 23.3301 23.9959C23.3301 20.3166 26.3161 17.3306 29.9954 17.3306C33.6747 17.3306 36.6607 20.3166 36.6607 23.9959Z" fill="#1ABCFE"/>
</svg>
