<svg width="46" height="46" viewBox="0 0 46 46" fill="none" xmlns="http://www.w3.org/2000/svg">
<path fill-rule="evenodd" clip-rule="evenodd" d="M20.8919 4.025C12.0752 4.98333 4.98356 12.075 4.02523 20.7C2.87523 30.2833 8.8169 38.525 17.2502 41.2083V36.8C17.2502 36.8 16.4836 36.9917 15.5252 36.9917C12.8419 36.9917 11.6919 34.6917 11.5002 33.35C11.3086 32.5833 10.9252 32.0083 10.3502 31.4333C9.77523 31.2417 9.58357 31.2417 9.58357 31.05C9.58357 30.6667 10.1586 30.6667 10.3502 30.6667C11.5002 30.6667 12.4586 32.0083 12.8419 32.5833C13.8002 34.1167 14.9502 34.5 15.5252 34.5C16.2919 34.5 16.8669 34.3083 17.2502 34.1167C17.4419 32.775 18.0169 31.4333 19.1669 30.6667C14.7586 29.7083 11.5002 27.2167 11.5002 23C11.5002 20.8917 12.4586 18.7833 13.8002 17.25C13.6086 16.8667 13.4169 15.9083 13.4169 14.5667C13.4169 13.8 13.4169 12.65 13.9919 11.5C13.9919 11.5 16.6752 11.5 19.3586 13.9917C20.3169 13.6083 21.6586 13.4167 23.0002 13.4167C24.3419 13.4167 25.6836 13.6083 26.8336 13.9917C29.3252 11.5 32.2002 11.5 32.2002 11.5C32.5836 12.65 32.5836 13.8 32.5836 14.5667C32.5836 16.1 32.3919 16.8667 32.2002 17.25C33.5419 18.7833 34.5002 20.7 34.5002 23C34.5002 27.2167 31.2419 29.7083 26.8336 30.6667C27.9836 31.625 28.7502 33.35 28.7502 35.075V41.4C36.6086 38.9083 42.1669 31.625 42.1669 23.1917C42.1669 11.6917 32.3919 2.68333 20.8919 4.025Z" fill="white"/>
</svg>
