<svg width="14" height="14" viewBox="0 0 14 14" fill="none" xmlns="http://www.w3.org/2000/svg">
<path fill-rule="evenodd" clip-rule="evenodd" d="M6.44507 0.333252V1.99992H7.55618V0.333252H6.44507ZM2.67988 1.8936L1.89429 2.67919L3.07267 3.85757L3.85826 3.07198L2.67988 1.8936ZM11.3214 1.8936L10.143 3.07198L10.9286 3.85757L12.107 2.67919L11.3214 1.8936ZM7.00062 3.11104C4.85943 3.11104 3.11173 4.85874 3.11173 6.99993C3.11173 9.14113 4.85943 10.8888 7.00062 10.8888C9.14182 10.8888 10.8895 9.14113 10.8895 6.99993C10.8895 4.85874 9.14182 3.11104 7.00062 3.11104ZM7.00068 4.22213C8.54138 4.22213 9.77846 5.4592 9.77846 6.99991C9.77846 8.54061 8.54138 9.77768 7.00068 9.77768C5.45997 9.77768 4.2229 8.54061 4.2229 6.99991C4.2229 5.4592 5.45997 4.22213 7.00068 4.22213ZM0.333984 6.44438V7.55549H2.00065V6.44438H0.333984ZM12.0007 6.44438V7.55549H13.6673V6.44438H12.0007ZM3.07267 10.1423L1.89429 11.3207L2.67988 12.1063L3.85826 10.9279L3.07267 10.1423ZM10.9286 10.1423L10.143 10.9279L11.3214 12.1063L12.107 11.3207L10.9286 10.1423ZM6.44507 11.9999V13.6666H7.55618V11.9999H6.44507Z" fill="#001E3C"/>
</svg>
