<svg width="113" height="120" viewBox="0 0 113 120" fill="none" xmlns="http://www.w3.org/2000/svg">
<path fill-rule="evenodd" clip-rule="evenodd" d="M7.52339 91.0717C16.5209 85.2498 27.0934 75.2692 23.0789 63.5132C20.8916 57.1083 17.8619 51.618 17.4576 44.6938C17.1158 38.8487 17.9861 32.9437 20.0223 27.4563C28.0898 5.7052 52.0757 -4.59262 73.7512 1.94577C93.8285 8.00166 107.641 31.4159 99.3208 51.8182C94.5197 63.5915 92.3681 72.6826 103.076 81.8443C105.98 84.3283 113.026 88.0501 113 92.4535C112.964 98.2212 101.7 91.2255 100.441 90.2218C101.874 92.7368 116.076 107.608 107.037 108.666C98.7162 109.64 91.3688 97.9689 86.3694 92.9582C77.9707 84.542 79.4312 103.161 79.3936 107.008C79.333 113.08 75.0624 125.386 67.3963 117.371C61.0646 110.756 63.4588 100.201 59.0563 92.8509C54.2341 84.7992 46.2138 100.903 44.2094 103.85C41.9702 107.14 30.7671 123.077 26.3088 114.587C22.6919 107.697 28.4729 96.8878 31.3178 90.6559C30.2809 92.9186 22.9335 96.2661 20.7867 97.3558C15.9356 99.8157 11.0123 101.276 5.55657 100.882C-5.73217 100.068 2.92645 94.0499 7.52339 91.0717C6.08125 92.0058 9.06277 90.0758 7.52339 91.0717Z" fill="#008FC4"/>
</svg>
