<svg width="210" height="240" viewBox="0 0 210 240" fill="none" xmlns="http://www.w3.org/2000/svg">
<path d="M18.4219 69.1864V159.737C18.4225 162.06 19.6579 164.207 21.664 165.371L99.9166 210.646C101.923 211.805 104.394 211.805 106.401 210.646L184.653 165.371C186.66 164.207 187.895 162.06 187.896 159.737V69.1864C187.895 66.8632 186.66 64.7162 184.653 63.552L106.401 18.2769C104.394 17.1176 101.923 17.1176 99.9166 18.2769L21.664 63.552C19.6579 64.7162 18.4225 66.8632 18.4219 69.1864Z" fill="#334B63"/>
<rect x="73.6855" y="14.7692" width="3.68421" height="33.2308" fill="#334B63"/>
<rect x="84.7383" width="3.68421" height="48" fill="#334B63"/>
<rect x="143.686" y="162.462" width="3.68421" height="48" fill="#334B63"/>
<rect x="154.738" y="173.538" width="3.68421" height="48" fill="#334B63"/>
<rect x="77.3691" y="169.846" width="3.68421" height="48" fill="#334B63"/>
<rect x="88.4219" y="199.385" width="3.68421" height="29.5385" fill="#334B63"/>
<rect x="25.791" y="48" width="3.68421" height="22.1538" fill="#14304B"/>
<rect x="195.264" y="55.3846" width="3.68421" height="25.8462" fill="#334B63"/>
<rect x="195.264" y="84.9231" width="3.68421" height="7.38462" fill="#334B63"/>
<rect x="47.8945" y="184.615" width="3.68421" height="25.8462" fill="#334B63"/>
<rect x="47.8945" y="214.154" width="3.68421" height="7.38462" fill="#334B63"/>
<rect x="88.4219" y="232.615" width="3.68421" height="7.38462" fill="#334B63"/>
<rect x="154.738" y="225.231" width="3.68421" height="7.38462" fill="#334B63"/>
<rect x="7.36914" y="99.6923" width="3.68421" height="14.7692" fill="#334B63"/>
<rect x="29.4746" y="48" width="3.68421" height="14.7692" fill="#334B63"/>
<rect x="154.736" y="107.077" width="55.2632" height="62.7692" rx="2" fill="#14304B"/>
<rect x="40.5254" y="36.9231" width="132.632" height="99.6923" rx="2" fill="#14304B"/>
<rect x="3.68359" y="147.692" width="125.263" height="44.3077" rx="2" fill="#14304B"/>
<rect x="3.68359" y="121.846" width="29.4737" height="14.7692" rx="7.38462" fill="#14304B"/>
<rect y="144" width="125.263" height="44.3077" rx="1.8" fill="#F3F6F7"/>
<rect x="84.7363" y="147.692" width="36.8421" height="36.9231" fill="#3CCD78"/>
<rect x="18.4219" y="147.692" width="40.5263" height="11.0769" fill="#E0E4E8"/>
<rect x="3.68359" y="162.462" width="73.6842" height="22.1538" fill="#E0E4E8"/>
<ellipse cx="9.20991" cy="153.231" rx="5.52632" ry="5.53846" fill="#FFD36B"/>
<rect x="29.4746" y="132.923" width="29.4737" height="14.7692" rx="7.38462" transform="rotate(180 29.4746 132.923)" fill="#F5F6F7"/>
<ellipse cx="22.1048" cy="125.538" rx="5.26105" ry="5.27262" fill="#3CCD78"/>
<rect x="151.053" y="99.6923" width="55.2632" height="66.4615" rx="2" fill="#FFDE90"/>
<rect x="154.736" y="107.077" width="47.8947" height="11.5052" fill="#FFC846"/>
<rect x="191.578" y="125.538" width="3.68421" height="33.2308" fill="#FFC846"/>
<ellipse cx="193.421" cy="142.154" rx="5.52632" ry="5.53846" fill="#F3F6F7"/>
<rect x="176.842" y="125.538" width="3.68421" height="33.2308" fill="#FFC846"/>
<ellipse cx="178.685" cy="134.769" rx="5.52632" ry="5.53846" fill="#F3F6F7"/>
<rect x="162.105" y="125.538" width="3.68421" height="33.2308" fill="#FFC846"/>
<ellipse cx="163.948" cy="149.538" rx="5.52632" ry="5.53846" fill="#F3F6F7"/>
<rect x="158.422" y="169.846" width="3.68421" height="51.6923" fill="#14304B"/>
<rect x="140" y="177.231" width="3.68421" height="33.2308" fill="#14304B"/>
<rect x="84.7363" y="192" width="3.68421" height="36.9231" fill="#14304B"/>
<g style="mix-blend-mode:multiply" opacity="0.15">
<path d="M171.685 136.615H151.053V99.6923H173.158V135.138C173.158 135.954 172.498 136.615 171.685 136.615Z" fill="#001E3C"/>
</g>
<path d="M36.8418 44.3077H169.473V131.446C169.473 132.262 168.814 132.923 168 132.923H38.3155C37.5016 132.923 36.8418 132.262 36.8418 131.446V44.3077Z" fill="#F3F6F7"/>
<path d="M38.3155 33.2308H168C168.814 33.2308 169.473 33.892 169.473 34.7077V44.3077H36.8418V34.7077C36.8418 33.892 37.5016 33.2308 38.3155 33.2308Z" fill="#3CCD78"/>
<ellipse cx="163.948" cy="38.7692" rx="1.84211" ry="1.84615" fill="#8AE1AE"/>
<ellipse cx="156.578" cy="38.7692" rx="1.84211" ry="1.84615" fill="#8AE1AE"/>
<ellipse cx="149.209" cy="38.7692" rx="1.84211" ry="1.84615" fill="#8AE1AE"/>
<ellipse cx="103.157" cy="88.6154" rx="38.4189" ry="38.5034" fill="#E0E4E8"/>
<path d="M79.5058 88.6154C79.5087 84.4664 80.6014 80.3914 82.6742 76.8L75.35 72.5612C69.6229 82.5209 69.6229 94.7837 75.35 104.743L82.6742 100.505C80.5889 96.8915 79.4957 92.7893 79.5058 88.6154Z" fill="#F5F6F7"/>
<path d="M123.642 76.8L130.967 72.5612C125.24 62.5907 114.637 56.444 103.158 56.4406V64.9108C111.617 64.9167 119.428 69.4503 123.642 76.8Z" fill="#63D793"/>
<path d="M126.811 88.6154C126.815 92.7768 125.722 96.8654 123.643 100.468L130.967 104.706C136.694 94.7468 136.694 82.4839 130.967 72.5243L123.643 76.8C125.715 80.3914 126.808 84.4664 126.811 88.6154Z" fill="#3CCD78"/>
<path d="M103.158 64.9108V56.4406C91.6867 56.4364 81.0853 62.568 75.3496 72.5243L82.6738 76.8C86.8885 69.4503 94.6996 64.9167 103.158 64.9108Z" fill="#8AE1AE"/>
<path d="M103.158 88.6154L130.967 92.9723" stroke="#66788A" stroke-width="6"/>
<ellipse cx="103.157" cy="88.6154" rx="7.36842" ry="7.38462" fill="#66788A"/>
<rect x="88.4199" y="103.385" width="29.4737" height="7.38462" fill="#CCD2D8"/>
<rect x="44.2109" y="118.154" width="25.7895" height="7.38462" fill="#E0E4E8"/>
<rect x="136.316" y="118.154" width="25.7895" height="7.38462" fill="#E0E4E8"/>
<rect x="44.2109" y="107.077" width="14.7368" height="7.38462" fill="#E0E4E8"/>
<rect x="147.367" y="51.6923" width="14.7368" height="7.38462" fill="#E0E4E8"/>
<rect x="44.2109" y="51.6923" width="18.4211" height="18.4615" fill="#3CCD78"/>
</svg>
