<svg width="48" height="48" viewBox="0 0 48 48" fill="none" xmlns="http://www.w3.org/2000/svg">
<path d="M12.7097 7.18468L23.9597 6L35.2097 7.18468L43.9194 18.8307L23.9597 41.9821L4 18.8307L12.7097 7.18468Z" fill="#FDB300"/>
<path d="M12.0847 18.8306L23.9597 41.982L4 18.8306H12.0847Z" fill="#EA6C00"/>
<path d="M35.8353 18.8306L23.9602 41.982L43.9199 18.8306H35.8353Z" fill="#EA6C00"/>
<path d="M12.084 18.8306H35.834L23.959 41.982L12.084 18.8306Z" fill="#FDAD00"/>
<path d="M23.959 6L12.709 7.18466L12.084 18.8307L23.959 6Z" fill="#FDD231"/>
<path d="M23.959 6L35.209 7.18466L35.834 18.8307L23.959 6Z" fill="#FDD231"/>
<path d="M43.9199 18.8306L35.2102 7.18457L35.8353 18.8306H43.9199Z" fill="#FDAD00"/>
<path d="M4 18.8306L12.7096 7.18457L12.0847 18.8306H4Z" fill="#FDAD00"/>
<path d="M23.959 6L12.084 18.8307H35.834L23.959 6Z" fill="#FEEEB7"/>
</svg>
