<svg width="70" height="70" viewBox="0 0 70 70" fill="none" xmlns="http://www.w3.org/2000/svg">
<path d="M35.8917 68.2166C29.6497 68.2166 23.4076 66.4331 18.0573 63.0892C17.6115 62.8662 16.9427 62.8662 16.4968 62.8662L0 70L7.13376 53.7261C7.35669 53.2802 7.35669 52.6115 6.91083 52.1656C3.56688 46.8153 1.78344 40.5732 1.78344 34.3312C1.78344 15.3822 17.1656 0 35.8917 0C54.6178 0 70 15.3822 70 34.1083C70 52.8344 54.6178 68.2166 35.8917 68.2166Z" fill="#FF4D00"/>
<path d="M53.2804 32.1015L50.1594 27.1971C46.1467 29.6493 41.2422 30.9869 36.1148 30.9869C30.9874 30.9869 25.86 29.6493 22.0702 26.9741L18.9492 31.8786C22.739 34.3308 27.1976 35.8913 31.8792 36.5601L21.8473 47.4837L26.083 51.4964L36.1148 40.5728L46.1467 51.4964L50.3823 47.4837L40.3505 36.5601C45.032 36.1142 49.4906 34.5537 53.2804 32.1015Z" fill="white"/>
<path d="M36.1143 27.8667C39.1923 27.8667 41.6875 25.3715 41.6875 22.2935C41.6875 19.2154 39.1923 16.7202 36.1143 16.7202C33.0362 16.7202 30.541 19.2154 30.541 22.2935C30.541 25.3715 33.0362 27.8667 36.1143 27.8667Z" fill="white"/>
</svg>
