<svg width="20" height="20" viewBox="0 0 20 20" fill="none" xmlns="http://www.w3.org/2000/svg">
<path fill-rule="evenodd" clip-rule="evenodd" d="M9.30489 1.6665V3.74984H10.6938V1.6665H9.30489ZM4.5984 3.61692L3.61641 4.59891L5.0894 6.07189L6.07138 5.08991L4.5984 3.61692ZM15.4003 3.61692L13.9273 5.08991L14.9093 6.07189L16.3823 4.59891L15.4003 3.61692ZM9.99934 5.13873C7.32284 5.13873 5.13822 7.32335 5.13822 9.99984C5.13822 12.6763 7.32284 14.861 9.99934 14.861C12.6758 14.861 14.8604 12.6763 14.8604 9.99984C14.8604 7.32335 12.6758 5.13873 9.99934 5.13873ZM9.99936 6.52761C11.9252 6.52761 13.4716 8.07395 13.4716 9.99983C13.4716 11.9257 11.9252 13.4721 9.99936 13.4721C8.07348 13.4721 6.52714 11.9257 6.52714 9.99983C6.52714 8.07395 8.07348 6.52761 9.99936 6.52761ZM1.66602 9.3054V10.6943H3.74935V9.3054H1.66602ZM16.2493 9.3054V10.6943H18.3327V9.3054H16.2493ZM5.0894 13.9278L3.61641 15.4008L4.5984 16.3828L6.07138 14.9098L5.0894 13.9278ZM14.9093 13.9278L13.9273 14.9098L15.4003 16.3828L16.3823 15.4008L14.9093 13.9278ZM9.30489 16.2498V18.3332H10.6938V16.2498H9.30489Z" fill="white"/>
</svg>
