<svg width="32" height="32" viewBox="0 0 32 32" fill="none" xmlns="http://www.w3.org/2000/svg">
<path fill-rule="evenodd" clip-rule="evenodd" d="M29.3327 5.33203C28.2927 5.94936 26.206 6.7907 24.9794 7.03336C24.9433 7.0427 24.914 7.0547 24.8793 7.06403C23.7953 5.9947 22.31 5.33203 20.666 5.33203C17.3527 5.33203 14.666 8.0187 14.666 11.332C14.666 11.5067 14.6513 11.828 14.666 11.9987C10.1953 11.9987 6.79268 9.65736 4.35268 6.66536C4.08735 7.33203 3.97135 8.38536 3.97135 9.3747C3.97135 11.2427 5.43135 13.0774 7.70468 14.2147C7.28602 14.3227 6.82468 14.4 6.34468 14.4C5.57002 14.4 4.75002 14.196 3.99935 13.5774C3.99935 13.6 3.99935 13.6214 3.99935 13.6454C3.99935 16.256 6.77002 18.0334 9.23402 18.528C8.73402 18.8227 7.72602 18.852 7.23402 18.852C6.88735 18.852 5.66068 18.6934 5.33268 18.632C6.01802 20.772 8.49002 21.9747 10.846 22.0174C9.00335 23.4627 7.72468 23.9987 3.95135 23.9987H2.66602C5.05002 25.5267 8.08602 26.6667 11.1287 26.6667C21.0353 26.6667 26.666 19.116 26.666 11.9987C26.666 11.884 26.6634 11.644 26.6594 11.4027C26.6594 11.3787 26.666 11.356 26.666 11.332C26.666 11.296 26.6553 11.2614 26.6553 11.2254C26.6514 11.044 26.6474 10.8747 26.6433 10.7867C27.6967 10.0267 28.61 9.0787 29.3327 7.9987C28.366 8.42803 27.3287 8.71603 26.2393 8.8467C27.3514 8.18003 28.9313 6.5907 29.3327 5.33203Z" fill="white"/>
</svg>
