<svg width="248" height="90" viewBox="0 0 248 90" fill="none" xmlns="http://www.w3.org/2000/svg">
<path fill-rule="evenodd" clip-rule="evenodd" d="M43.4251 9.52189L80.1384 0L90 35.7681L84.4472 45.0415L90 54.3141L80.1384 90L43.4251 80.395L37.9555 71.0393L26.934 71.1224L0 44.9585L26.934 18.7945L37.9555 18.8776L43.4251 9.52189ZM39.1846 19.9972L67 13L51 40H19L39.1846 19.9972ZM58 45L74.1936 72L82 45L74.1936 18L58 45ZM19 49L39.1032 69.0028L67 76L51 49H19ZM163.582 26C158.666 26 155.332 28.0687 152.832 31.8767H152.666V26.9933H144V62.9169H152.832V42.5545C152.832 37.6711 155.916 34.2768 160.166 34.2768C164.166 34.2768 167.166 36.6779 167.166 40.8993V63H175.999V39.4916C176.082 31.6283 171.082 26 163.582 26ZM123.173 55.8875C127.579 55.8875 130.271 52.5772 130.271 47.776H130.353V27H139V63.0067H130.679V58.7852H130.434C128.068 62.0956 125.295 64 120.318 64C112.405 64 108 58.8674 108 51.0042V27H116.647V49.349C116.647 53.5705 119.177 55.8875 123.173 55.8875ZM180 27H189V63H180V27ZM189 16H180V23H189V16ZM238.455 27L233.18 43.3046C232.008 46.6325 231.086 51.2083 231.086 51.2083H230.835C230.835 51.2083 229.663 46.6325 228.491 43.3046L222.545 27H213L222.797 52.7057C224.89 58.1962 225.56 60.5249 225.56 62.5215C225.56 65.5163 223.969 67.4303 220.202 67.4303H216.768V75H222.462C229.83 75 232.426 72.0887 235.189 64.1024L248 27.0826H238.455V27ZM205.067 33.4804V52.445C205.067 55.0842 206.593 55.9909 208.712 55.9082H211V62.8345C211 62.8345 209.983 63 206.084 63C201.339 63 196.085 61.1857 196.085 54.424V33.3976H191V27.1316H196.085V16H205.067V27.2134H210.831V33.4804H205.067Z" fill="white"/>
</svg>
