<?xml version="1.0" encoding="UTF-8"?><svg xmlns="http://www.w3.org/2000/svg" fill="none" height="400" width="400" version="1.2" baseProfile="tiny-ps"><title>MUI</title><linearGradient id="a" gradientUnits="userSpaceOnUse" x1="200" x2="200" y1="0" y2="400"><stop offset=".203" stop-color="#f3f6f9"></stop><stop offset="1" stop-color="#fff"></stop></linearGradient><rect fill="url(#a)" height="400" rx="7.791" width="400"></rect><path d="M277.078 238.884a6.525 6.525 0 0 0 3.276-5.638l.12-37.762a6.525 6.525 0 0 1 3.276-5.638l20.481-11.761c4.35-2.498 9.774.642 9.774 5.658v68.653a6.524 6.524 0 0 1-3.276 5.658l-77.282 44.373a6.524 6.524 0 0 1-6.488.005l-60.65-34.677a6.526 6.526 0 0 1-3.286-5.664v-34.612c0-.042.045-.068.082-.048.036.021.081-.006.081-.048v-.038c0-.027.015-.053.039-.066l49.947-28.684c.045-.026.027-.095-.025-.095a.051.051 0 0 1-.051-.051l.098-33.94c.014-5.028-5.424-8.182-9.781-5.673l-37.134 21.385a6.523 6.523 0 0 1-6.512 0l-37.244-21.449c-4.35-2.505-9.782.634-9.782 5.654v61.342c0 5.009-5.411 8.15-9.761 5.665l-20.672-11.809a6.525 6.525 0 0 1-3.288-5.677l.183-107.208c.009-5.011 5.428-8.142 9.774-5.647l70.797 40.648a6.521 6.521 0 0 0 6.498 0l70.778-40.637c4.35-2.498 9.774.643 9.774 5.658v107.234a6.525 6.525 0 0 1-3.27 5.655l-37.066 21.336c-4.372 2.516-4.357 8.831.028 11.326l20.447 11.635a6.527 6.527 0 0 0 6.476-.012zm4.289-96.191c0 5.072 5.532 8.205 9.881 5.596l19.588-11.748a6.524 6.524 0 0 0 3.169-5.595v-23.933c0-5.071-5.532-8.204-9.881-5.596l-19.588 11.748a6.526 6.526 0 0 0-3.169 5.596z" fill="#007fff" fill-rule="evenodd"></path></svg>