<svg fill="none" height="400" viewBox="0 0 400 400" width="400" xmlns="http://www.w3.org/2000/svg"><path d="m289.621 252.195c2.343-1.344 3.791-3.835 3.799-6.536l.139-43.764c.009-2.7 1.456-5.191 3.798-6.536l23.745-13.632c5.043-2.895 11.33.746 11.33 6.561v79.566c0 2.709-1.449 5.212-3.798 6.561l-89.596 51.428c-2.328 1.336-5.19 1.339-7.52.007l-70.313-40.192c-2.356-1.347-3.81-3.853-3.81-6.568v-40.113c0-.049.052-.079.094-.056.043.024.095-.007.095-.055v-.044c0-.032.017-.062.045-.078l57.905-33.245c.052-.03.031-.11-.029-.11-.033 0-.06-.026-.059-.059l.113-39.335c.017-5.829-6.287-9.486-11.339-6.577l-43.051 24.786c-2.336 1.345-5.212 1.345-7.549 0l-43.179-24.861c-5.043-2.903-11.3394.737-11.3394 6.556v71.092c0 5.808-6.2731 9.449-11.3161 6.569l-23.965-13.687c-2.3618-1.349-3.8176-3.862-3.813-6.582l.2124-124.2526c.0099-5.8089 6.2923-9.4394 11.3303-6.5476l82.0788 47.1132c2.332 1.339 5.199 1.339 7.531 0l82.057-47.1004c5.043-2.8947 11.33.7459 11.33 6.5606v124.2828c0 2.706-1.446 5.206-3.791 6.556l-42.967 24.726c-5.07 2.917-5.052 10.239.032 13.131l23.702 13.484c2.328 1.324 5.183 1.319 7.506-.014zm4.974-111.488c0 5.879 6.412 9.511 11.454 6.487l22.709-13.616c2.28-1.367 3.674-3.83 3.674-6.487v-27.7352c0-5.8789-6.412-9.5109-11.454-6.4877l-22.709 13.6159c-2.279 1.367-3.674 3.83-3.674 6.488z" fill="#007fff" fill-rule="evenodd"/></svg>