<svg width="35" height="32" fill="none" xmlns="http://www.w3.org/2000/svg">
  <path d="M10.992 6.412 1.534.895A1.02 1.02 0 0 0 0 1.775v15.593a2 2 0 0 0 .971 1.715l2.514 1.508A1 1 0 0 0 5 19.734v-9.7a.6.6 0 0 1 .898-.521l5.11 2.92a2 2 0 0 0 1.984 0l5.11-2.92a.6.6 0 0 1 .898.52v4.806a2 2 0 0 1-1.008 1.737l-5.337 3.05A1.3 1.3 0 0 0 12 20.754v4.069a2.2 2.2 0 0 0 .98 1.83l6.991 4.661a2 2 0 0 0 2.102.073l12.02-6.869A1.8 1.8 0 0 0 35 22.955V12.266a1 1 0 0 0-1.514-.857l-2.515 1.508A2 2 0 0 0 30 14.632v5.485a1.5 1.5 0 0 1-.771 1.312l-7.43 4.127a1.5 1.5 0 0 1-1.56-.063l-2.424-1.616a1 1 0 0 1 .04-1.69l5.174-3.104A2 2 0 0 0 24 17.368V1.776a1.02 1.02 0 0 0-1.534-.881l-9.458 5.517a2 2 0 0 1-2.016 0Z" fill="#007FFF"/>
  <path d="M35 1.766v4.69a1.8 1.8 0 0 1-.907 1.562l-2.597 1.484A1 1 0 0 1 30 8.634V4.132a2 2 0 0 1 .971-1.715L33.486.91A1 1 0 0 1 35 1.766Z" fill="#007FFF"/>
</svg>