<svg xmlns="http://www.w3.org/2000/svg" viewBox="0 0 64 64" fill="none"><path fill="#0079f5" d="M25.7 22.11 14.13 15.4a.53.53 0 0 0-.8.46v18.71q0 .31.27.46l4.32 2.54c.35.21.8-.05.8-.46V24.9c0-.16.18-.27.32-.19l6.66 3.82c.66.38 1.48.38 2.14-.01l6.5-3.8c.15-.08.33.02.33.18v5.97c0 .37-.2.71-.51.9l-6.7 4.12a.5.5 0 0 0-.26.46v6.02q.01.3.25.45l8.78 5.55c.68.43 1.54.44 2.23.03l11.16-6.63a2.1 2.1 0 0 0 1.05-1.83V28.4a.53.53 0 0 0-.81-.45l-3.54 2.13a2.1 2.1 0 0 0-1.03 1.82v5.78q-.01.31-.26.46l-6.6 3.9c-.68.39-1.51.39-2.18-.01l-3.85-2.3a.32.32 0 0 1-.01-.54l6.7-4.42c.6-.4.96-1.07.96-1.79V15.87a.53.53 0 0 0-.8-.46l-11.4 6.7c-.67.39-1.49.4-2.15 0"/><path fill="#0079f5" d="M50.67 16.39v3.64c0 .73-.38 1.42-1 1.8l-3.52 2.2a.53.53 0 0 1-.82-.45v-3.82c0-.77.41-1.47 1.08-1.85l3.46-1.99c.35-.2.8.06.8.47"/></svg>
