<svg xmlns="http://www.w3.org/2000/svg" viewBox="0 0 64 64" fill="none"><path fill="#0079f5" d="M24.92 21 11.9 13.52a.6.6 0 0 0-.9.52v20.82q0 .34.3.52l4.86 2.82c.4.24.9-.05.9-.52V24.1c0-.19.2-.3.36-.21l7.5 4.25a2.4 2.4 0 0 0 2.39 0l7.33-4.25c.16-.09.36.02.36.2v6.64c0 .42-.22.8-.58 1.03l-7.53 4.57a.6.6 0 0 0-.29.51v6.7c0 .2.1.4.28.51l9.89 6.18a2.4 2.4 0 0 0 2.48.03l12.57-7.37A2.4 2.4 0 0 0 53 40.82V28a.6.6 0 0 0-.9-.52l-3.98 2.37a2.4 2.4 0 0 0-1.17 2.06v6.41a.6.6 0 0 1-.3.52l-7.43 4.34a2.4 2.4 0 0 1-2.43-.01l-4.33-2.56a.36.36 0 0 1-.01-.61l7.52-4.91a2.4 2.4 0 0 0 1.09-2.01V14.04a.6.6 0 0 0-.9-.52L27.32 21a2.4 2.4 0 0 1-2.4.01"/><path fill="#0079f5" d="M53 14.62v4.03c0 .83-.43 1.6-1.14 2.04l-3.94 2.44a.6.6 0 0 1-.92-.51v-4.23c0-.86.46-1.66 1.22-2.08l3.88-2.2c.4-.23.9.05.9.51"/></svg>
