<svg width="40" height="40" viewBox="0 0 40 40" fill="none" xmlns="http://www.w3.org/2000/svg">
<path d="M32.8123 18.8224C32.8123 17.2428 30.9524 15.8413 28.0932 14.9847C28.7808 12.081 28.4809 9.76787 27.1108 8.98593C26.7753 8.79973 26.3969 8.70488 26.0132 8.71087C24.7362 8.71087 23.1212 9.60284 21.4905 11.1471C19.8612 9.61463 18.2514 8.7279 16.9757 8.7279C16.5863 8.71931 16.2017 8.81567 15.8624 9.00688C14.5002 9.79145 14.2173 12.0901 14.8958 14.9795C12.0496 15.8309 10.1989 17.2219 10.1936 18.7936C10.1897 20.368 12.0575 21.7747 14.9167 22.6287C14.2291 25.5364 14.5264 27.8455 15.8991 28.6275C16.2317 28.8148 16.6116 28.9091 16.994 28.9025C18.2737 28.9025 19.8887 28.0106 21.518 26.4663C23.1461 27.9988 24.7571 28.8868 26.0342 28.8868C26.4232 28.8934 26.807 28.7964 27.1475 28.6065C28.5097 27.8233 28.7913 25.5246 28.1141 22.6444C30.959 21.7825 32.8097 20.3915 32.8123 18.8224ZM22.5436 11.6644C24.4205 9.98268 25.5941 9.80193 26.0106 9.80193C26.2042 9.7955 26.396 9.84119 26.566 9.93421C27.2222 10.3088 27.4828 11.6278 27.2745 13.375C27.2222 13.8203 27.1449 14.2644 27.0453 14.7018C26.0953 14.4812 25.1319 14.3228 24.1612 14.2277C23.5829 13.4167 22.9515 12.6448 22.2712 11.9172C22.3589 11.8295 22.4506 11.747 22.5436 11.6644ZM16.8591 20.1217C17.036 20.4649 17.2259 20.8094 17.4223 21.1565C17.6214 21.5022 17.8284 21.852 18.0563 22.199C17.4528 22.1128 16.8532 22.0009 16.2593 21.8637C16.419 21.2822 16.6234 20.7085 16.8565 20.1217H16.8591ZM16.2226 15.7549C16.8028 15.62 17.4106 15.5074 18.0406 15.4209C17.8113 15.7601 17.6149 16.1085 17.4079 16.4727C17.2023 16.8368 17.0202 17.1603 16.8434 17.51C16.6163 16.9323 16.4093 16.3469 16.2226 15.7549ZM17.4171 18.8133C17.7079 18.2016 18.0196 17.6004 18.3549 17.0123C18.6968 16.4163 19.0622 15.8335 19.4486 15.2664C20.8145 15.1621 22.1864 15.1634 23.5521 15.2703C23.932 15.8269 24.2961 16.4177 24.6393 17.0031C24.9837 17.5873 25.3007 18.199 25.5849 18.7975C25.0028 20.0315 24.324 21.2175 23.5548 22.3444C22.19 22.4505 20.8173 22.4492 19.4525 22.3405C19.0661 21.7773 18.702 21.201 18.3615 20.6103C18.0273 20.0237 17.7154 19.4247 17.4263 18.8146H17.4171V18.8133ZM24.9523 15.4275C25.5758 15.5139 26.1796 15.6265 26.7493 15.7601C26.5738 16.3456 26.3721 16.9232 26.1442 17.4917C25.7746 16.7898 25.3801 16.1013 24.9615 15.4275H24.9523ZM25.5849 21.1421C25.7814 20.795 25.97 20.4479 26.1494 20.1021C26.3787 20.6993 26.6079 21.2861 26.769 21.8598C26.1678 21.9987 25.5627 22.1087 24.9523 22.1912C25.175 21.852 25.3871 21.5022 25.5941 21.1421H25.5849ZM21.4958 12.6952C21.9084 13.1353 22.3144 13.6121 22.7099 14.1242C22.3105 14.1072 21.911 14.098 21.5115 14.0967C21.1055 14.0967 20.6916 14.0967 20.2895 14.1242C20.6693 13.6291 21.0714 13.1524 21.4945 12.6966L21.4958 12.6952ZM16.4099 9.94338C16.5839 9.85146 16.7791 9.80717 16.9757 9.81502C17.389 9.83262 17.7943 9.93517 18.1663 10.1163C19.0062 10.5121 19.7795 11.0362 20.4584 11.6697L20.7282 11.9159C20.0543 12.638 19.4286 13.4037 18.8552 14.208C17.8795 14.3037 16.9115 14.4621 15.9554 14.6822C15.8544 14.2533 15.7779 13.8191 15.7262 13.3816C15.4878 11.65 15.7628 10.3298 16.4073 9.95255L16.4099 9.94338ZM15.1957 21.5704C14.7661 21.4394 14.3417 21.2848 13.9252 21.1119C12.2985 20.4243 11.2886 19.5402 11.2886 18.7857C11.2886 18.0313 12.3024 17.1538 13.9291 16.4766C14.3365 16.3076 14.753 16.1596 15.1761 16.0313C15.4616 16.9822 15.8126 17.9121 16.2213 18.8159C15.8202 19.7109 15.4776 20.631 15.1957 21.5704ZM20.4702 25.9503C18.592 27.6307 17.4184 27.8102 16.9993 27.8102C16.8055 27.8165 16.6136 27.7703 16.4439 27.6766C15.789 27.302 15.5271 25.9843 15.7366 24.2371C15.789 23.7917 15.865 23.349 15.9645 22.9116C16.9155 23.1303 17.8781 23.2875 18.8487 23.3831C19.4263 24.1952 20.0576 24.9679 20.7387 25.6949L20.4715 25.9503H20.4702ZM21.518 24.9155C21.0905 24.4584 20.6841 23.982 20.2999 23.4879C20.7007 23.5049 21.1015 23.5141 21.5023 23.5141C21.9084 23.5141 22.3236 23.5141 22.7244 23.4892C22.3275 23.9987 21.9254 24.4755 21.5167 24.9155H21.518ZM26.6052 27.6674C26.4314 27.7629 26.2351 27.81 26.0368 27.8036C25.6177 27.8036 24.431 27.6203 22.5606 25.945L22.2908 25.6988C22.964 24.9784 23.5875 24.2109 24.1599 23.4067C25.1372 23.3134 26.1072 23.1554 27.0637 22.9338C27.1645 23.3792 27.2444 23.814 27.2929 24.2345C27.5195 25.9634 27.2562 27.2836 26.6026 27.6582L26.6052 27.6674ZM29.0807 21.1447C28.6723 21.3125 28.2562 21.4611 27.8338 21.59C27.5462 20.6393 27.1962 19.7087 26.786 18.8041C27.1894 17.9108 27.5326 16.9913 27.8155 16.0535C28.2477 16.1845 28.6695 16.3364 29.086 16.512C30.7114 17.1983 31.7226 18.0824 31.7213 18.8368C31.7186 19.5913 30.7075 20.4597 29.0794 21.1368L29.0807 21.1447ZM21.4958 20.9115C21.7722 20.9118 22.0459 20.8576 22.3014 20.7521C22.5569 20.6465 22.7891 20.4917 22.9847 20.2964C23.1803 20.1012 23.3356 19.8693 23.4416 19.614C23.5476 19.3587 23.6023 19.0851 23.6026 18.8087C23.6028 18.5323 23.5486 18.2585 23.4431 18.003C23.3376 17.7476 23.1827 17.5154 22.9875 17.3198C22.7922 17.1241 22.5603 16.9689 22.305 16.8629C22.0498 16.7568 21.7761 16.7021 21.4997 16.7019C20.9415 16.7014 20.4059 16.9226 20.0108 17.317C19.6157 17.7113 19.3934 18.2465 19.3929 18.8047C19.3924 19.363 19.6137 19.8986 20.008 20.2937C20.4024 20.6888 20.9375 20.911 21.4958 20.9115ZM7.50727 6.12012V31.4933H35.5V6.12012H7.50727ZM34.4063 30.4022H8.60356V7.21379H34.4063V30.4022ZM14.9167 22.6287C14.2278 25.5364 14.5251 27.8455 15.8964 28.6275C16.2304 28.8148 16.609 28.9091 16.9914 28.9025C18.2711 28.9025 19.886 28.0106 21.5167 26.4663C23.1435 27.9988 24.7545 28.8868 26.0316 28.8868C26.4219 28.8934 26.8056 28.7964 27.1449 28.6065C28.5071 27.8233 28.7887 25.5246 28.1115 22.6444C30.9564 21.7917 32.8071 20.402 32.8097 18.8316C32.8123 17.2598 30.9498 15.8505 28.0905 14.9939C28.7782 12.0901 28.4782 9.77704 27.1082 8.9951C26.7727 8.8089 26.3942 8.71405 26.0106 8.72004C24.7336 8.72004 23.1199 9.61201 21.4892 11.1562C19.8585 9.6238 18.2488 8.73707 16.9731 8.73707C16.5837 8.72841 16.1991 8.82478 15.8598 9.01605C14.4976 9.80062 14.2147 12.0993 14.8931 14.9887C12.047 15.84 10.1976 17.231 10.1923 18.8028C10.1884 20.3771 12.0562 21.7707 14.9167 22.6287ZM20.4663 25.9516C18.588 27.632 17.4145 27.8115 16.994 27.8115C16.8003 27.8178 16.6084 27.7716 16.4387 27.6779C15.7838 27.3033 15.5218 25.9856 15.7314 24.2384C15.7838 23.7931 15.8611 23.3504 15.9606 22.9129C16.9102 23.1316 17.8729 23.2888 18.8448 23.3844C19.4211 24.1965 20.0537 24.9692 20.7335 25.6962L20.4663 25.9516ZM26.1508 17.4917C25.9676 17.1433 25.7781 16.7983 25.5823 16.4569C25.3832 16.1112 25.1697 15.7693 24.9588 15.4288C25.5823 15.5152 26.1848 15.6265 26.7559 15.7601C26.5882 16.3273 26.3865 16.9062 26.1534 17.4917H26.1508ZM26.7742 21.848C26.1743 21.9869 25.5692 22.0982 24.9588 22.1807C25.3885 21.5036 25.7879 20.8054 26.156 20.0916C26.3891 20.6705 26.5935 21.2612 26.769 21.8598L26.7742 21.848ZM25.5797 18.7871C24.9976 20.0211 24.3187 21.2071 23.5495 22.334C22.1847 22.4401 20.8121 22.4387 19.4473 22.33C18.6766 21.2104 17.996 20.0314 17.4119 18.8041C17.7026 18.1911 18.0144 17.5899 18.3497 17.0005C18.6902 16.4046 19.057 15.823 19.4433 15.2559C20.8093 15.1516 22.1812 15.1529 23.5469 15.2598C23.9267 15.8152 24.2909 16.4072 24.634 16.9926C24.9785 17.5768 25.2981 18.2003 25.5823 18.7988L25.5797 18.7871ZM18.0563 22.199C17.4525 22.1126 16.8513 22.0026 16.2579 21.8651C16.4282 21.3018 16.6325 20.719 16.8657 20.1335C17.0438 20.4767 17.235 20.8212 17.4328 21.1682C17.6293 21.514 17.8258 21.8533 18.0563 22.199ZM17.4171 16.4661C17.2167 16.8106 17.0281 17.1538 16.8513 17.5035C16.6184 16.9297 16.4086 16.3455 16.2226 15.7549C16.8028 15.62 17.4106 15.5074 18.0406 15.4209C17.8271 15.7615 17.6227 16.1112 17.4171 16.4661ZM21.5167 24.9169C21.1041 24.4768 20.6968 24 20.2986 23.4892C20.6981 23.5062 21.0989 23.5154 21.4997 23.5154C21.9057 23.5154 22.3209 23.5154 22.723 23.4905C22.3419 23.983 21.9398 24.4597 21.5167 24.9169ZM26.6026 27.6687C26.4288 27.7642 26.2324 27.8113 26.0342 27.8049C25.615 27.8049 24.4284 27.6216 22.558 25.9463L22.2882 25.7001C22.9614 24.9797 23.5849 24.2122 24.1573 23.408C25.1346 23.3146 26.1046 23.1566 27.0611 22.9351C27.1619 23.3805 27.2418 23.8153 27.2903 24.2358C27.5195 25.9647 27.2562 27.2836 26.6026 27.6582V27.6687ZM27.8142 16.0509C28.2451 16.1832 28.6682 16.3364 29.0834 16.5093C30.7088 17.1983 31.7213 18.0811 31.7186 18.8355C31.716 19.59 30.7075 20.478 29.0794 21.1538C28.6865 21.3149 28.2713 21.4629 27.8312 21.5965C27.5435 20.6463 27.1935 19.7161 26.7834 18.8119C27.1868 17.9121 27.5313 16.9874 27.8142 16.0431V16.0509ZM22.5397 11.6736C24.4179 9.99315 25.5915 9.8124 26.008 9.8124C26.2016 9.80611 26.3934 9.85179 26.5633 9.94469C27.2182 10.3193 27.4802 11.6369 27.2706 13.3842C27.2182 13.8308 27.1423 14.2748 27.0427 14.7123C26.0923 14.4915 25.1284 14.3332 24.1573 14.2382C23.5794 13.4267 22.9485 12.6545 22.2685 11.9264C22.355 11.8321 22.448 11.747 22.541 11.6644L22.5397 11.6736ZM21.4958 12.6966C21.9084 13.1366 22.3144 13.6121 22.7099 14.1242C22.3105 14.1072 21.911 14.098 21.5115 14.0967C21.1055 14.0967 20.6916 14.0967 20.2895 14.1242C20.6693 13.6291 21.0714 13.1537 21.4945 12.6979L21.4958 12.6966ZM16.4099 9.94469C16.5839 9.85277 16.7791 9.80717 16.9757 9.81502C17.389 9.83262 17.7943 9.93648 18.1663 10.1176C19.0062 10.5134 19.7795 11.0375 20.4584 11.671L20.7282 11.9159C20.0543 12.638 19.4286 13.4037 18.8552 14.208C17.8795 14.3037 16.9115 14.4635 15.9554 14.6835C15.8544 14.2546 15.7779 13.8204 15.7262 13.3829C15.4878 11.6513 15.7628 10.3311 16.4073 9.95386L16.4099 9.94469ZM13.9291 16.4766C14.3365 16.3076 14.753 16.1596 15.1761 16.0313C15.4616 16.9822 15.8126 17.9121 16.2213 18.8159C15.8192 19.7091 15.4747 20.6299 15.1918 21.5677C14.7609 21.4368 14.3378 21.2848 13.9213 21.1093C12.2932 20.423 11.2847 19.5389 11.2847 18.7857C11.2847 18.0313 12.3024 17.1551 13.9278 16.4779L13.9291 16.4766ZM21.4958 16.7071C21.0791 16.7063 20.6716 16.8292 20.3247 17.0601C19.9779 17.291 19.7073 17.6195 19.5473 18.0042C19.3872 18.3889 19.3449 18.8125 19.4256 19.2212C19.5063 19.63 19.7065 20.0057 20.0007 20.3007C20.295 20.5957 20.6701 20.7967 21.0787 20.8785C21.4873 20.9602 21.9109 20.9189 22.296 20.7598C22.6811 20.6007 23.0104 20.331 23.2421 19.9847C23.4739 19.6385 23.5977 19.2312 23.598 18.8146C23.6002 18.5371 23.5475 18.2619 23.4429 18.0049C23.3382 17.7478 23.1837 17.5141 22.9883 17.3171C22.7929 17.12 22.5604 16.9637 22.3042 16.857C22.048 16.7503 21.7733 16.6953 21.4958 16.6953V16.7084V16.7071ZM21.4958 16.7071C21.0791 16.7063 20.6716 16.8292 20.3247 17.0601C19.9779 17.291 19.7073 17.6195 19.5473 18.0042C19.3872 18.3889 19.3449 18.8125 19.4256 19.2212C19.5063 19.63 19.7065 20.0057 20.0007 20.3007C20.295 20.5957 20.6701 20.7967 21.0787 20.8785C21.4873 20.9602 21.9109 20.9189 22.296 20.7598C22.6811 20.6007 23.0104 20.331 23.2421 19.9847C23.4739 19.6385 23.5977 19.2312 23.598 18.8146C23.6002 18.5371 23.5475 18.2619 23.4429 18.0049C23.3382 17.7478 23.1837 17.5141 22.9883 17.3171C22.7929 17.12 22.5604 16.9637 22.3042 16.857C22.048 16.7503 21.7733 16.6953 21.4958 16.6953V16.7084V16.7071ZM21.4958 16.7071C21.0791 16.7063 20.6716 16.8292 20.3247 17.0601C19.9779 17.291 19.7073 17.6195 19.5473 18.0042C19.3872 18.3889 19.3449 18.8125 19.4256 19.2212C19.5063 19.63 19.7065 20.0057 20.0007 20.3007C20.295 20.5957 20.6701 20.7967 21.0787 20.8785C21.4873 20.9602 21.9109 20.9189 22.296 20.7598C22.6811 20.6007 23.0104 20.331 23.2421 19.9847C23.4739 19.6385 23.5977 19.2312 23.598 18.8146C23.6002 18.5371 23.5475 18.2619 23.4429 18.0049C23.3382 17.7478 23.1837 17.5141 22.9883 17.3171C22.7929 17.12 22.5604 16.9637 22.3042 16.857C22.048 16.7503 21.7733 16.6953 21.4958 16.6953V16.7084V16.7071ZM32.8123 18.8263C32.8123 17.2467 30.9524 15.8453 28.0932 14.99C28.7808 12.0849 28.4809 9.77311 27.1108 8.99117C26.7753 8.80497 26.3969 8.71012 26.0132 8.71611C24.7362 8.71611 23.1212 9.60677 21.4905 11.1523C19.8612 9.61987 18.2514 8.73183 16.9757 8.73183C16.5862 8.72363 16.2016 8.82045 15.8624 9.01212C14.5002 9.79538 14.2173 12.0941 14.8958 14.9847C12.0496 15.8361 10.1989 17.2258 10.1936 18.7988C10.1897 20.3719 12.0575 21.7799 14.9167 22.6339C14.2291 25.5403 14.5264 27.8508 15.8991 28.6327C16.2317 28.8187 16.6116 28.9143 16.994 28.9078C18.2737 28.9078 19.8887 28.0158 21.518 26.4716C23.1461 28.004 24.7571 28.8907 26.0342 28.8907C26.4232 28.8986 26.807 28.8017 27.1475 28.6118C28.5097 27.8272 28.7913 25.5285 28.1141 22.6496C30.959 21.7825 32.8097 20.3929 32.8123 18.8224V18.8263ZM22.5436 11.6658C24.4205 9.98399 25.5941 9.80324 26.0106 9.80324C26.2043 9.79734 26.3961 9.84348 26.566 9.93683C27.2222 10.3101 27.4828 11.6291 27.2745 13.3763C27.2222 13.8217 27.1449 14.2657 27.0453 14.7045C26.0953 14.4834 25.1319 14.3246 24.1612 14.229C23.5829 13.418 22.9515 12.6461 22.2712 11.9185C22.3589 11.8308 22.4506 11.7483 22.5436 11.6658ZM16.8591 20.1217C17.036 20.4662 17.2259 20.8094 17.4223 21.1565C17.6214 21.5022 17.8284 21.852 18.0563 22.199C17.4528 22.1128 16.8532 22.0009 16.2593 21.8637C16.419 21.2822 16.6234 20.7085 16.8565 20.1217H16.8591ZM16.2226 15.7549C16.8028 15.62 17.4106 15.5087 18.0406 15.4209C17.8113 15.7601 17.6149 16.1085 17.4079 16.4727C17.2023 16.8381 17.0202 17.1603 16.8434 17.51C16.6163 16.9323 16.4093 16.3469 16.2226 15.7549ZM17.4171 18.8146C17.7079 18.2016 18.0196 17.6004 18.3549 17.0123C18.6968 16.4163 19.0622 15.8335 19.4486 15.2664C20.8145 15.1621 22.1864 15.1634 23.5521 15.2703C23.932 15.8269 24.2961 16.4177 24.6393 17.0031C24.9837 17.5873 25.3007 18.199 25.5849 18.7975C25.0028 20.0315 24.324 21.2175 23.5548 22.3444C22.19 22.4492 20.8173 22.4505 19.4525 22.3405C19.0661 21.7786 18.702 21.201 18.3615 20.6103C18.0273 20.0237 17.7154 19.4247 17.4263 18.8146H17.4171ZM24.9523 15.4275C25.5758 15.5152 26.1796 15.6265 26.7493 15.7601C26.5738 16.3456 26.3721 16.9232 26.1442 17.4917C25.7746 16.7898 25.3801 16.1013 24.9615 15.4275H24.9523ZM25.5849 21.1421C25.7814 20.795 25.97 20.4479 26.1494 20.1021C26.3787 20.6993 26.6079 21.2861 26.769 21.8598C26.1678 21.9987 25.5627 22.1087 24.9523 22.1912C25.175 21.852 25.3871 21.5022 25.5941 21.1421H25.5849ZM21.4958 12.6952C21.9084 13.1353 22.3144 13.6121 22.7099 14.1242C22.3105 14.1072 21.911 14.098 21.5115 14.0967C21.1055 14.0967 20.6916 14.0967 20.2895 14.1242C20.6693 13.6291 21.0714 13.1524 21.4945 12.6966L21.4958 12.6952ZM16.4099 9.94338C16.5839 9.85146 16.7791 9.80717 16.9757 9.81502C17.389 9.83262 17.7943 9.93517 18.1663 10.1163C19.0062 10.5121 19.7795 11.0362 20.4584 11.6697L20.7282 11.9159C20.0543 12.638 19.4286 13.4037 18.8552 14.208C17.8795 14.3037 16.9115 14.4621 15.9554 14.6822C15.8544 14.2533 15.7779 13.8191 15.7262 13.3816C15.4878 11.65 15.7628 10.3298 16.4073 9.95255L16.4099 9.94338ZM15.1957 21.5704C14.7661 21.4394 14.3417 21.2848 13.9252 21.1119C12.2985 20.4243 11.2886 19.5402 11.2886 18.7857C11.2886 18.0313 12.3024 17.1538 13.9291 16.4766C14.3365 16.3076 14.753 16.1596 15.1761 16.0313C15.4616 16.9822 15.8126 17.9121 16.2213 18.8159C15.8202 19.7109 15.4776 20.631 15.1957 21.5704ZM20.4702 25.9503C18.592 27.6307 17.4184 27.8102 16.9993 27.8102C16.8055 27.8165 16.6136 27.7703 16.4439 27.6766C15.789 27.302 15.5271 25.9843 15.7366 24.2371C15.789 23.7917 15.865 23.349 15.9645 22.9116C16.9155 23.1303 17.8781 23.2875 18.8487 23.3831C19.4263 24.1952 20.0576 24.9679 20.7387 25.6949L20.4715 25.9503H20.4702ZM21.518 24.9155C21.0905 24.4584 20.6841 23.982 20.2999 23.4879C20.7007 23.5049 21.1015 23.5141 21.5023 23.5141C21.9084 23.5141 22.3236 23.5141 22.7244 23.4892C22.3275 23.9987 21.9254 24.4755 21.5167 24.9155H21.518ZM26.6052 27.6674C26.4314 27.7629 26.2351 27.81 26.0368 27.8036C25.6177 27.8036 24.431 27.6203 22.5606 25.945L22.2908 25.6988C22.964 24.9784 23.5875 24.2109 24.1599 23.4067C25.1372 23.3134 26.1072 23.1554 27.0637 22.9338C27.1645 23.3792 27.2444 23.814 27.2929 24.2345C27.5195 25.9634 27.2562 27.2836 26.6026 27.6582L26.6052 27.6674ZM29.0807 21.1447C28.6723 21.3125 28.2562 21.4611 27.8338 21.59C27.5462 20.6393 27.1962 19.7087 26.786 18.8041C27.1894 17.9108 27.5326 16.9913 27.8155 16.0535C28.2477 16.1845 28.6695 16.3364 29.086 16.512C30.7114 17.1983 31.7226 18.0824 31.7213 18.8368C31.7186 19.5913 30.7075 20.4597 29.0794 21.1368L29.0807 21.1447ZM21.4958 20.9115C21.7722 20.9118 22.0459 20.8576 22.3014 20.7521C22.5569 20.6465 22.7891 20.4917 22.9847 20.2964C23.1803 20.1012 23.3356 19.8693 23.4416 19.614C23.5476 19.3587 23.6023 19.0851 23.6026 18.8087C23.6028 18.5323 23.5486 18.2585 23.4431 18.003C23.3376 17.7476 23.1827 17.5154 22.9875 17.3198C22.7922 17.1241 22.5603 16.9689 22.305 16.8629C22.0498 16.7568 21.7761 16.7021 21.4997 16.7019C20.9415 16.7014 20.4059 16.9226 20.0108 17.317C19.6157 17.7113 19.3934 18.2465 19.3929 18.8047C19.3924 19.363 19.6137 19.8986 20.008 20.2937C20.4024 20.6888 20.9375 20.911 21.4958 20.9115ZM5.60022 33.4108V8.02717L4.5 9.1287V34.5045H32.4888L33.5851 33.4108H5.60022Z" fill="#09D3AC"/>
</svg>
