<svg width="40" height="40" fill="none" xmlns="http://www.w3.org/2000/svg"><path d="M32.81 18.82c0-1.58-1.86-2.98-4.72-3.84.7-2.9.4-5.21-.98-6a2.2 2.2 0 0 0-1.1-.27c-1.27 0-2.89.9-4.52 2.44-1.63-1.54-3.24-2.42-4.51-2.42-.4-.01-.78.09-1.12.28-1.36.78-1.64 3.08-.96 5.97-2.85.85-4.7 2.24-4.7 3.81-.01 1.58 1.86 2.98 4.72 3.84-.7 2.9-.4 5.22.98 6 .33.18.71.28 1.1.27 1.27 0 2.89-.89 4.52-2.43 1.63 1.53 3.24 2.42 4.51 2.42.4 0 .78-.1 1.12-.28 1.36-.79 1.64-3.09.96-5.97 2.85-.86 4.7-2.25 4.7-3.82Zm-10.27-7.16c1.88-1.68 3.05-1.86 3.47-1.86.2 0 .39.04.56.13.65.38.91 1.7.7 3.45-.05.44-.13.88-.22 1.32-.95-.22-1.92-.38-2.89-.47a22.57 22.57 0 0 0-1.89-2.31l.27-.26Zm-5.68 8.46a30.31 30.31 0 0 0 1.2 2.08c-.6-.09-1.2-.2-1.8-.34.16-.58.36-1.15.6-1.74Zm-.64-4.37c.58-.13 1.2-.24 1.82-.33a25.24 25.24 0 0 0-1.2 2.09c-.22-.58-.43-1.16-.62-1.76Zm1.2 3.06a27.3 27.3 0 0 1 2.03-3.54c1.36-.1 2.74-.1 4.1 0a30.07 30.07 0 0 1 2.03 3.53 25.86 25.86 0 0 1-2.03 3.54c-1.36.11-2.73.1-4.1 0a26.08 26.08 0 0 1-2.02-3.53h-.01Zm7.53-3.38c.63.08 1.23.2 1.8.33-.18.59-.38 1.16-.6 1.73-.38-.7-.77-1.39-1.19-2.06Zm.63 5.71c.2-.34.39-.7.57-1.04.23.6.46 1.19.62 1.76-.6.14-1.2.25-1.82.33.23-.34.44-.69.64-1.05ZM21.5 12.7c.4.44.81.91 1.21 1.42l-1.2-.02c-.4 0-.82 0-1.22.02.38-.5.78-.97 1.2-1.42ZM16.4 9.94c.17-.09.37-.13.57-.12.4.01.81.12 1.19.3.84.4 1.6.92 2.29 1.55l.27.25c-.68.72-1.3 1.48-1.87 2.29-.98.1-1.95.25-2.9.47-.1-.43-.18-.86-.23-1.3-.24-1.73.03-3.05.68-3.43ZM15.2 21.57c-.43-.13-.86-.29-1.27-.46-1.63-.69-2.64-1.57-2.64-2.32 0-.76 1.01-1.64 2.64-2.31.4-.17.82-.32 1.25-.45.28.95.63 1.88 1.04 2.79-.4.9-.74 1.81-1.02 2.75Zm5.27 4.38c-1.88 1.68-3.05 1.86-3.47 1.86-.2 0-.39-.04-.56-.13-.65-.38-.91-1.7-.7-3.44.05-.45.13-.9.22-1.33.96.22 1.92.38 2.89.47.58.82 1.2 1.59 1.89 2.31l-.27.26Zm1.05-1.03c-.43-.46-.84-.94-1.22-1.43l1.2.02c.4 0 .82 0 1.22-.02-.4.5-.8.99-1.2 1.43Zm5.09 2.75c-.18.1-.37.14-.57.13-.42 0-1.6-.18-3.48-1.86l-.27-.24c.67-.72 1.3-1.49 1.87-2.3.98-.09 1.95-.24 2.9-.47.1.45.18.88.23 1.3.23 1.73-.03 3.05-.69 3.43Zm2.47-6.53c-.4.17-.82.32-1.25.45-.28-.95-.63-1.88-1.04-2.79.4-.89.74-1.8 1.03-2.75.43.13.85.29 1.27.46 1.62.69 2.63 1.57 2.63 2.33 0 .75-1.01 1.62-2.64 2.3Zm-7.58-.23a2.1 2.1 0 1 0 0-4.2 2.1 2.1 0 0 0 0 4.2ZM7.5 6.12v25.37h28V6.12h-28ZM34.4 30.4H8.6V7.21h25.8v23.2Zm-19.48-7.77c-.7 2.9-.4 5.22.98 6 .33.18.7.28 1.1.27 1.27 0 2.89-.89 4.52-2.43 1.62 1.53 3.23 2.42 4.51 2.42.4 0 .78-.1 1.11-.28 1.37-.79 1.65-3.09.97-5.97 2.85-.85 4.7-2.24 4.7-3.8 0-1.58-1.86-2.99-4.72-3.85.69-2.9.39-5.21-.98-6a2.2 2.2 0 0 0-1.1-.27c-1.28 0-2.89.9-4.52 2.44-1.63-1.54-3.24-2.42-4.52-2.42-.39-.01-.77.08-1.11.28-1.36.78-1.65 3.08-.97 5.97-2.84.85-4.7 2.24-4.7 3.81 0 1.58 1.87 2.97 4.73 3.83Zm5.55 3.32c-1.88 1.68-3.06 1.86-3.48 1.86-.19 0-.38-.04-.55-.13-.66-.38-.92-1.7-.7-3.44.04-.45.12-.89.22-1.33.95.22 1.91.38 2.88.47.58.82 1.21 1.59 1.9 2.32l-.27.25Zm5.68-8.46c-.18-.35-.37-.7-.57-1.03l-.62-1.03c.62.09 1.22.2 1.8.33a20.1 20.1 0 0 1-.6 1.73Zm.62 4.36c-.6.14-1.2.25-1.81.33.43-.68.83-1.37 1.2-2.09.23.58.43 1.17.6 1.77l.01-.01Zm-1.19-3.06a25.87 25.87 0 0 1-2.03 3.54c-1.37.11-2.74.1-4.1 0a25.68 25.68 0 0 1-2.04-3.53 27.3 27.3 0 0 1 2.03-3.54c1.37-.1 2.74-.1 4.1 0a29.67 29.67 0 0 1 2.04 3.54v-.01Zm-7.52 3.4c-.6-.08-1.2-.19-1.8-.32.17-.57.37-1.15.6-1.74a30.04 30.04 0 0 0 1.2 2.07Zm-.64-5.72c-.2.34-.4.68-.57 1.03-.23-.57-.44-1.15-.63-1.75.58-.13 1.2-.24 1.82-.33a35 35 0 0 0-.62 1.05Zm4.1 8.45c-.42-.44-.82-.92-1.22-1.43l1.2.03c.4 0 .82 0 1.22-.03-.38.5-.78.97-1.2 1.43Zm5.08 2.75c-.17.1-.37.14-.57.13-.42 0-1.6-.18-3.47-1.85l-.27-.25c.67-.72 1.3-1.49 1.87-2.3.97-.09 1.94-.24 2.9-.46.1.44.18.88.23 1.3.23 1.72-.03 3.04-.69 3.42Zm1.21-11.62c.44.13.86.29 1.27.46 1.63.69 2.64 1.57 2.64 2.33 0 .75-1.01 1.64-2.64 2.31-.4.16-.8.31-1.25.45-.29-.95-.64-1.88-1.05-2.79.4-.9.75-1.82 1.03-2.77v.01Zm-5.27-4.38c1.88-1.68 3.05-1.86 3.47-1.86.2 0 .38.04.55.13.66.38.92 1.7.71 3.44-.05.45-.13.9-.23 1.33-.95-.22-1.91-.38-2.88-.47-.58-.81-1.21-1.59-1.9-2.31l.28-.27v.01ZM21.5 12.7c.4.44.81.91 1.21 1.42l-1.2-.02c-.4 0-.82 0-1.22.02.38-.5.78-.97 1.2-1.42ZM16.4 9.94c.17-.09.37-.13.57-.12.4.01.81.12 1.19.3.84.4 1.6.92 2.29 1.55l.27.25c-.68.72-1.3 1.48-1.87 2.29-.98.1-1.95.25-2.9.47-.1-.43-.18-.86-.23-1.3-.24-1.73.03-3.05.68-3.43Zm-2.48 6.54c.4-.17.82-.32 1.25-.45.28.95.63 1.88 1.04 2.79-.4.89-.75 1.81-1.03 2.75a13 13 0 0 1-1.27-.46c-1.63-.69-2.64-1.57-2.64-2.32 0-.76 1.02-1.63 2.65-2.31Zm7.57.23a2.1 2.1 0 1 0 1.49.6 2.1 2.1 0 0 0-1.5-.61Zm0 0a2.1 2.1 0 1 0 1.49.6 2.1 2.1 0 0 0-1.5-.61Zm0 0a2.1 2.1 0 1 0 1.49.6 2.1 2.1 0 0 0-1.5-.61Zm11.31 2.12c0-1.58-1.86-2.98-4.72-3.84.7-2.9.4-5.22-.98-6a2.2 2.2 0 0 0-1.1-.27c-1.27 0-2.89.89-4.52 2.43-1.63-1.53-3.24-2.42-4.51-2.42-.4 0-.78.09-1.12.28-1.36.79-1.64 3.08-.96 5.97-2.85.86-4.7 2.25-4.7 3.82-.01 1.57 1.86 2.98 4.72 3.83-.7 2.91-.4 5.22.98 6 .33.19.71.28 1.1.28 1.27 0 2.89-.9 4.52-2.44 1.63 1.53 3.24 2.42 4.51 2.42.4 0 .78-.09 1.12-.28 1.36-.78 1.64-3.08.96-5.96 2.85-.87 4.7-2.26 4.7-3.83Zm-10.27-7.16c1.88-1.69 3.05-1.87 3.47-1.87.2 0 .39.04.56.14.65.37.91 1.69.7 3.44-.05.44-.13.89-.22 1.32-.95-.22-1.92-.38-2.89-.47a22.57 22.57 0 0 0-1.89-2.31l.27-.25Zm-5.68 8.45a29.13 29.13 0 0 0 1.2 2.08c-.6-.09-1.2-.2-1.8-.34.16-.58.36-1.15.6-1.74Zm-.64-4.37a20.6 20.6 0 0 1 1.82-.33c-.23.34-.43.69-.63 1.05-.2.37-.39.69-.57 1.04-.22-.58-.43-1.16-.62-1.76Zm1.2 3.06a27 27 0 0 1 2.03-3.54c1.36-.1 2.74-.1 4.1 0a30.07 30.07 0 0 1 2.03 3.53 25.86 25.86 0 0 1-2.03 3.54c-1.36.1-2.73.11-4.1 0a25.75 25.75 0 0 1-2.02-3.53h-.01Zm7.53-3.38c.63.09 1.23.2 1.8.33-.18.59-.38 1.16-.6 1.73-.38-.7-.77-1.39-1.19-2.06Zm.63 5.71c.2-.34.39-.7.57-1.04.23.6.46 1.19.62 1.76-.6.14-1.2.25-1.82.33.23-.34.44-.69.64-1.05ZM21.5 12.7c.4.44.81.91 1.21 1.42l-1.2-.02c-.4 0-.82 0-1.22.02.38-.5.78-.97 1.2-1.42ZM16.4 9.94c.17-.09.37-.13.57-.12.4.01.81.12 1.19.3.84.4 1.6.92 2.29 1.55l.27.25c-.68.72-1.3 1.48-1.87 2.29-.98.1-1.95.25-2.9.47-.1-.43-.18-.86-.23-1.3-.24-1.73.03-3.05.68-3.43ZM15.2 21.57c-.43-.13-.86-.29-1.27-.46-1.63-.69-2.64-1.57-2.64-2.32 0-.76 1.01-1.64 2.64-2.31.4-.17.82-.32 1.25-.45.28.95.63 1.88 1.04 2.79-.4.9-.74 1.81-1.02 2.75Zm5.27 4.38c-1.88 1.68-3.05 1.86-3.47 1.86-.2 0-.39-.04-.56-.13-.65-.38-.91-1.7-.7-3.44.05-.45.13-.9.22-1.33.96.22 1.92.38 2.89.47.58.82 1.2 1.59 1.89 2.31l-.27.26Zm1.05-1.03c-.43-.46-.84-.94-1.22-1.43l1.2.02c.4 0 .82 0 1.22-.02-.4.5-.8.99-1.2 1.43Zm5.09 2.75c-.18.1-.37.14-.57.13-.42 0-1.6-.18-3.48-1.86l-.27-.24c.67-.72 1.3-1.49 1.87-2.3.98-.09 1.95-.24 2.9-.47.1.45.18.88.23 1.3.23 1.73-.03 3.05-.69 3.43Zm2.47-6.53c-.4.17-.82.32-1.25.45-.28-.95-.63-1.88-1.04-2.79.4-.89.74-1.8 1.03-2.75.43.13.85.29 1.27.46 1.62.69 2.63 1.57 2.63 2.33 0 .75-1.01 1.62-2.64 2.3Zm-7.58-.23a2.1 2.1 0 1 0 0-4.2 2.1 2.1 0 0 0 0 4.2ZM5.6 33.41V8.03l-1.1 1.1V34.5h27.99l1.1-1.09H5.6Z" fill="#09D3AC"/></svg>