<svg fill="none" height="40" viewBox="0 0 40 40" width="40" xmlns="http://www.w3.org/2000/svg" xmlns:xlink="http://www.w3.org/1999/xlink"><clipPath id="a"><path d="m0 0h40v40h-40z"/></clipPath><g clip-path="url(#a)"><path d="m35.7113 19.9993h-9.9988v2.8565h6.857c-1.0005 4.2856-4.1423 7.8575-8.2862 9.2882l-16.42722-16.4304c1.71426-4.9994 6.57032-8.57131 12.14322-8.57131 4.2857 0 8.1412 2.14277 10.5707 5.42791l2.1429-1.856c-2.8566-3.85716-7.4291-6.42856-12.7136-6.42856-7.4291 0-13.71411 5.28617-15.28811 12.28506l18.85691 18.8569c6.8585-1.7142 12.1432-7.9994 12.1432-15.4283zm-31.42712.1433c0 4.0004 1.57238 7.8576 4.57079 10.8575 3.00003 3 7.00043 4.5709 10.85763 4.5709z" fill="#fff"/><path d="m20.0023 0c-11.00242 0-20.0023 8.99989-20.0023 19.9992 0 11.0009 8.99988 20.0008 19.9992 20.0008 11.001 0 20.0008-8.9999 20.0008-20.0008 0-10.99931-8.9998-19.9992-20.0008-19.9992zm-11.14267 31.1419c-3.00152-3-4.57241-6.9989-4.57241-10.8559l15.57178 15.4283c-4.0004-.1433-8.001-1.5725-11.00087-4.5724zm14.57127 4.1438-18.71668-18.715c1.57401-6.99731 7.85918-12.28509 15.28808-12.28509 5.2862 0 9.8571 2.57139 12.7153 6.42859l-2.1429 1.8576c-2.4295-3.28678-6.2867-5.42955-10.5724-5.42955-5.5713 0-10.28554 3.57195-12.14156 8.57135l16.42726 16.4288c4.1423-1.4291 7.2872-4.9994 8.2862-9.285h-6.8571v-2.8582h10.0004c0 7.429-5.2862 13.7156-12.2866 15.2865z" fill="#639"/></g></svg>