<svg width="40" height="40" fill="none" xmlns="http://www.w3.org/2000/svg"><path d="m19.762 1.524 16 9.238v18.476l-16 9.237-16-9.237V10.762l16-9.238Z" fill="#fff"/><path d="m4.047 10.927 15.715-9.073 15.714 9.073v18.146l-15.714 9.072-15.715-9.072V10.927Z" stroke="#000" stroke-opacity=".5" stroke-width=".571"/><path d="M8.614 28.71c1.84 2.355 8.322.366 14.479-4.444 6.155-4.81 9.654-10.618 7.814-12.974-1.84-2.356-8.323-.366-14.48 4.443-6.155 4.81-9.654 10.619-7.813 12.974Z" stroke="#673AB8" stroke-width="1.443" stroke-dasharray="34.67 5.65"/><path d="M30.909 28.71c1.84-2.356-1.659-8.165-7.815-12.974-6.156-4.81-12.638-6.8-14.478-4.444-1.84 2.356 1.658 8.165 7.814 12.974 6.156 4.81 12.638 6.8 14.479 4.444Z" stroke="#673AB8" stroke-width="1.443" stroke-dasharray="35.08 5.25"/><path d="M19.764 22.454a2.454 2.454 0 1 0 0-4.908 2.454 2.454 0 0 0 0 4.908Z" fill="#673AB8"/></svg>