<svg fill="none" height="40" width="40" xmlns="http://www.w3.org/2000/svg"><path d="m19.762 1.524 16 9.238v18.476l-16 9.237-16-9.237v-18.476z" fill="#fff"/><path d="m4.047 10.927 15.715-9.073 15.714 9.073v18.146l-15.714 9.072-15.715-9.072z" stroke="#000" stroke-opacity=".5" stroke-width=".571"/><path d="m8.614 28.71c1.84 2.355 8.322.366 14.479-4.444 6.155-4.81 9.654-10.618 7.814-12.974s-8.323-.366-14.48 4.443c-6.155 4.81-9.654 10.619-7.813 12.974z" stroke="#673ab8" stroke-dasharray="34.67 5.65" stroke-width="1.443"/><path d="m30.909 28.71c1.84-2.356-1.659-8.165-7.815-12.974-6.156-4.81-12.638-6.8-14.478-4.444s1.658 8.165 7.814 12.974c6.156 4.81 12.638 6.8 14.479 4.444z" stroke="#673ab8" stroke-dasharray="35.08 5.25" stroke-width="1.443"/><path d="m19.764 22.454a2.454 2.454 0 1 0 0-4.908 2.454 2.454 0 0 0 0 4.908z" fill="#673ab8"/></svg>