<svg enable-background="new 0 0 131 131" viewBox="0 0 131 131" xmlns="http://www.w3.org/2000/svg"><path d="m19.1 19h92.9v92.9h-92.9z" fill="#222458" transform="matrix(.5 -.866 .866 .5 -23.9226 89.546)"/><path d="m83 130.3-82.2-47.4 47.4-82.2 82.2 47.5zm-79.5-48.2 78.7 45.5 45.5-78.7-78.7-45.5z" fill="#51537d"/><path d="m19 19.1h92.9v92.9h-92.9z" fill="#222458" transform="matrix(.866 -.5 .5 .866 -23.9777 41.527)"/><path d="m47.9 131-47.9-83 83.1-48 48 83.1zm-43.8-81.9 45 77.9 77.9-45-45-77.9z" fill="#a3a4b9"/><path d="m19.1 19h92.9v92.9h-92.9z" fill="#00023b"/><g fill="#fff"><path d="m114.5 114.5h-97.9v-98h97.9zm-92.9-5h87.9v-88h-87.9z"/><g enable-background="new"><path d="m59 86.7-6.7-19.2h-1.2-12.2v19.2h-5.6v-48.2h18.5c3.6 0 6.3.6 8.1 1.8s3 2.8 3.5 4.8.8 4.6.8 7.8c0 3.5-.4 6.4-1.3 8.7-.8 2.3-2.6 3.9-5.3 4.8l7.4 20.3zm-3.3-25.1c1.2-.7 2-1.7 2.4-3s.6-3.2.6-5.6c0-2.5-.2-4.3-.5-5.6s-1.1-2.2-2.3-2.9-3-1-5.5-1h-11.5v19.1h11.1c2.5 0 4.4-.3 5.7-1z"/><path d="m74.3 85c-1.6-1.5-2.5-4.2-2.5-8.2 0-2.7.3-4.8.9-6.3s1.6-2.6 3-3.3 3.4-1 6-1c1.3 0 5.1.1 11.4.3v-2.4c0-2.9-.2-5-.7-6.2s-1.3-2-2.6-2.4c-1.2-.3-3.3-.5-6.3-.5-1.3 0-3 .1-4.9.2-2 .1-3.6.3-4.8.5v-4.3c3.3-.7 7.1-1 11.4-1 3.7 0 6.5.4 8.4 1.2 1.8.8 3.1 2.2 3.8 4.1s1 4.7 1 8.4v22.5h-4.8l-.3-5h-.3c-.8 2.2-2.2 3.7-4.1 4.4s-4.1 1.1-6.6 1.1c-3.7.1-6.3-.6-8-2.1zm14.8-3c1.2-.4 2.2-1.2 2.8-2.4.9-1.8 1.3-4.3 1.3-7.3v-2h-10c-1.7 0-3 .2-3.8.5s-1.4.9-1.7 1.8-.5 2.2-.5 4 .2 3.1.6 3.9 1.1 1.4 2 1.8c1 .3 2.5.5 4.5.5 1.9-.2 3.5-.4 4.8-.8z"/></g></g></svg>