<svg width="40" height="40" viewBox="0 0 40 40" fill="none" xmlns="http://www.w3.org/2000/svg">
<g clip-path="url(#clip0_3523_2)">
<path d="M20 40C25.3043 40 30.3914 37.8929 34.1421 34.1421C37.8929 30.3914 40 25.3043 40 20C40 14.6957 37.8929 9.60859 34.1421 5.85786C30.3914 2.10714 25.3043 0 20 0C14.6957 0 9.60859 2.10714 5.85786 5.85786C2.10714 9.60859 0 14.6957 0 20C0 25.3043 2.10714 30.3914 5.85786 34.1421C9.60859 37.8929 14.6957 40 20 40Z" fill="#14141F"/>
<path d="M20.0001 18C21.1047 18 22.0002 17.1046 22.0002 16C22.0002 14.8954 21.1047 14 20.0001 14C18.8955 14 18.0001 14.8954 18.0001 16C18.0001 17.1046 18.8955 18 20.0001 18Z" fill="white"/>
<path fill-rule="evenodd" clip-rule="evenodd" d="M18.2112 8.42229C19.3372 7.85924 20.6628 7.85924 21.7888 8.42229L29.7888 12.4223C31.144 13.0999 32 14.4849 32 16V24C32 25.5151 31.144 26.9002 29.7888 27.5777L21.7888 31.5777C20.6628 32.1408 19.3372 32.1408 18.2112 31.5777L10.2111 27.5777C8.85601 26.9002 8 25.5151 8 24V16C8 14.4849 8.85601 13.0999 10.2111 12.4223L18.2112 8.42229ZM20 12C17.7909 12 16 13.7908 16 16V24C16 26.2092 17.7909 28 20 28C22.2091 28 24 26.2092 24 24V16C24 13.7908 22.2091 12 20 12Z" fill="white"/>
</g>
<defs>
<clipPath id="clip0_3523_2">
<rect width="40" height="40" fill="white"/>
</clipPath>
</defs>
</svg>
