<svg fill="none" height="40" viewBox="0 0 40 40" width="40" xmlns="http://www.w3.org/2000/svg" xmlns:xlink="http://www.w3.org/1999/xlink"><clipPath id="a"><path d="m0 0h40v40h-40z"/></clipPath><g clip-path="url(#a)"><path d="m20 40c5.3043 0 10.3914-2.1071 14.1421-5.8579 3.7508-3.7507 5.8579-8.8378 5.8579-14.1421s-2.1071-10.39141-5.8579-14.14214c-3.7507-3.75072-8.8378-5.85786-14.1421-5.85786s-10.39141 2.10714-14.14214 5.85786c-3.75072 3.75073-5.85786 8.83784-5.85786 14.14214s2.10714 10.3914 5.85786 14.1421c3.75073 3.7508 8.83784 5.8579 14.14214 5.8579z" fill="#14141f"/><g fill="#fff"><path d="m20.0001 18c1.1046 0 2.0001-.8954 2.0001-2s-.8955-2-2.0001-2-2 .8954-2 2 .8954 2 2 2z"/><path clip-rule="evenodd" d="m18.2112 8.42229c1.126-.56305 2.4516-.56305 3.5776 0l8 4.00001c1.3552.6776 2.2112 2.0626 2.2112 3.5777v8c0 1.5151-.856 2.9002-2.2112 3.5777l-8 4c-1.126.5631-2.4516.5631-3.5776 0l-8.0001-4c-1.35509-.6775-2.2111-2.0626-2.2111-3.5777v-8c0-1.5151.85601-2.9001 2.2111-3.5777zm1.7888 3.57771c-2.2091 0-4 1.7908-4 4v8c0 2.2092 1.7909 4 4 4s4-1.7908 4-4v-8c0-2.2092-1.7909-4-4-4z" fill-rule="evenodd"/></g></g></svg>