<svg width="40" height="40" viewBox="0 0 40 40" fill="none" xmlns="http://www.w3.org/2000/svg">
<rect width="40" height="40" fill="white"/>
<path fill-rule="evenodd" clip-rule="evenodd" d="M22.3851 4.56305C20.8837 3.81231 19.1163 3.81231 17.6149 4.56305L6.94819 9.89639C5.14135 10.7998 4 12.6465 4 14.6667V25.3333C4 27.3535 5.14135 29.2002 6.94819 30.1036L17.6149 35.4369C19.1163 36.1877 20.8837 36.1877 22.3851 35.4369L33.0518 30.1036C34.8587 29.2002 36 27.3535 36 25.3333V14.6667C36 12.6465 34.8587 10.7998 33.0518 9.89639L22.3851 4.56305ZM14.6667 14.6667C14.6667 11.7211 17.0545 9.33333 20 9.33333C22.9455 9.33333 25.3333 11.7211 25.3333 14.6667V25.3333C25.3333 28.2789 22.9455 30.6667 20 30.6667C17.0545 30.6667 14.6667 28.2789 14.6667 25.3333V14.6667Z" fill="#14141F"/>
<path d="M22.6667 14.6667C22.6667 16.1394 21.4728 17.3333 20 17.3333C18.5272 17.3333 17.3333 16.1394 17.3333 14.6667C17.3333 13.1939 18.5272 12 20 12C21.4728 12 22.6667 13.1939 22.6667 14.6667Z" fill="#14141F"/>
</svg>