<svg width="50" height="50" fill="none" xmlns="http://www.w3.org/2000/svg"><path fill-rule="evenodd" clip-rule="evenodd" d="M25.5 12c-6 0-9.75 3-11.25 9 2.25-3 4.88-4.13 7.88-3.38 1.7.43 2.93 1.68 4.28 3.05 2.21 2.24 4.76 4.83 10.34 4.83 6 0 9.75-3 11.25-9-2.25 3-4.88 4.13-7.88 3.38-1.7-.43-2.93-1.68-4.28-3.05C33.63 14.6 31.08 12 25.5 12ZM14.25 25.5c-6 0-9.75 3-11.25 9 2.25-3 4.88-4.13 7.88-3.38 1.7.43 2.93 1.67 4.28 3.05C17.37 36.4 19.92 39 25.5 39c6 0 9.75-3 11.25-9-2.25 3-4.88 4.12-7.88 3.37-1.7-.42-2.93-1.67-4.28-3.04-2.21-2.24-4.76-4.83-10.34-4.83Z" fill="#38BDF8"/></svg>