<svg width="40" height="40" fill="none" xmlns="http://www.w3.org/2000/svg"><path d="M35.8 8.41 20.58 36.04a.82.82 0 0 1-1.44 0L3.6 8.43c-.35-.62.17-1.37.86-1.25l15.25 2.77c.1.02.2.02.29 0l14.92-2.76c.7-.13 1.21.61.87 1.23Z" fill="url(#a)"/><path d="M26.98 3.55 15.7 5.79a.42.42 0 0 0-.34.39l-.69 11.87a.42.42 0 0 0 .5.44l3.14-.74c.3-.07.56.2.5.5l-.93 4.63a.42.42 0 0 0 .31.5c.07 0 .15 0 .22-.02l1.93-.6a.42.42 0 0 1 .53.5l-1.48 7.27c-.1.45.5.7.75.31l.17-.26 9.18-18.6c.15-.3-.11-.66-.45-.6l-3.23.64a.42.42 0 0 1-.48-.53l2.11-7.41a.42.42 0 0 0-.48-.53Z" fill="url(#b)"/><defs><linearGradient id="a" x1="3.23" y1="6.19" x2="22.54" y2="32.03" gradientUnits="userSpaceOnUse"><stop stop-color="#41D1FF"/><stop offset="1" stop-color="#BD34FE"/></linearGradient><linearGradient id="b" x1="18.84" y1="4.16" x2="22.37" y2="28" gradientUnits="userSpaceOnUse"><stop stop-color="#FFEA83"/><stop offset=".08" stop-color="#FFDD35"/><stop offset="1" stop-color="#FFA800"/></linearGradient></defs></svg>