<svg viewBox="0 0 56 56" fill="none" xmlns="http://www.w3.org/2000/svg">
<path d="M38.0687 27.7008L40.0593 27.8946C40.0923 27.5558 40.1092 27.2124 40.1092 26.865C40.1092 26.5176 40.0923 26.1741 40.0593 25.8354L38.0687 26.0291C38.0954 26.3036 38.1092 26.5824 38.1092 26.865C38.1092 27.1476 38.0954 27.4264 38.0687 27.7008Z" fill="#FF383B"/>
<path d="M37.7456 24.3959L39.6596 23.816C39.4584 23.1519 39.1932 22.5157 38.8712 21.9144L37.1082 22.8588C37.3687 23.3451 37.583 23.8594 37.7456 24.3959Z" fill="#FF383B"/>
<path d="M36.1808 21.4734L37.7261 20.2038C37.2895 19.6724 36.8018 19.1847 36.2704 18.7481L35.0007 20.2934C35.4315 20.6473 35.8269 21.0427 36.1808 21.4734Z" fill="#FF383B"/>
<path d="M33.6154 19.366L34.5597 17.603C33.9585 17.2809 33.3222 17.0157 32.6582 16.8145L32.0783 18.7286C32.6147 18.8911 33.129 19.1055 33.6154 19.366Z" fill="#FF383B"/>
<path d="M30.445 18.4054L30.6387 16.4148C30.3 16.3819 29.9566 16.365 29.6092 16.365C29.2618 16.365 28.9183 16.3819 28.5796 16.4148L28.7733 18.4054C29.0478 18.3787 29.3266 18.365 29.6092 18.365C29.8918 18.365 30.1706 18.3787 30.445 18.4054Z" fill="#FF383B"/>
<path d="M28.7733 35.3246L28.5796 37.3152C28.9183 37.3481 29.2618 37.365 29.6092 37.365C29.9566 37.365 30.3 37.3481 30.6387 37.3152L30.445 35.3246C30.1706 35.3513 29.8918 35.365 29.6092 35.365C29.3266 35.365 29.0478 35.3513 28.7733 35.3246Z" fill="#FF383B"/>
<path d="M32.0783 35.0014L32.6582 36.9155C33.3222 36.7143 33.9585 36.4491 34.5597 36.127L33.6154 34.364C33.129 34.6245 32.6147 34.8388 32.0783 35.0014Z" fill="#FF383B"/>
<path d="M35.0007 33.4366L36.2704 34.9819C36.8018 34.5453 37.2895 34.0576 37.7261 33.5262L36.1808 32.2566C35.8269 32.6873 35.4315 33.0827 35.0007 33.4366Z" fill="#FF383B"/>
<path d="M37.1082 30.8712L38.8712 31.8155C39.1932 31.2143 39.4584 30.5781 39.6596 29.914L37.7456 29.3341C37.583 29.8706 37.3687 30.3848 37.1082 30.8712Z" fill="#FF383B"/>
<path d="M37.0775 38.8236C40.9693 36.3369 43.461 32.0181 43.461 27.0571C43.461 20.015 38.2617 14.1873 31.4924 13.2034L31.9446 15.3144C37.3802 16.4583 41.461 21.2812 41.461 27.0571C41.461 31.0388 39.5218 34.5676 36.5363 36.7504L37.0775 38.8236Z" fill="#283D46"/>
<path d="M31.9237 15.2055C33.3809 14.8027 34.4503 13.5688 34.6747 11.9763C34.9763 9.8356 33.4855 7.85565 31.3447 7.55399C31.0688 7.51511 30.7955 7.50601 30.5282 7.52424L30.8685 9.51683C30.9338 9.51929 30.9996 9.52511 31.0657 9.53443C32.1126 9.68196 32.8418 10.6503 32.6943 11.6973C32.5945 12.4048 32.12 12.9672 31.4996 13.212L31.9237 15.2055Z" fill="#283D46"/>
<path fill-rule="evenodd" clip-rule="evenodd" d="M13.9805 26.1961L10.4589 43.8039C10.3352 44.4227 10.8084 45 11.4395 45H37.4055C38.0612 45 38.5394 44.3796 38.3726 43.7455L36.5328 36.7545L38.467 36.2455L40.3067 43.2366C40.8073 45.1388 39.3725 47 37.4055 47H11.4395C9.54636 47 8.12648 45.2681 8.49775 43.4117L12.0193 25.8039L13.9805 26.1961Z" fill="#283D46"/>
<path fill-rule="evenodd" clip-rule="evenodd" d="M8.61658 18.1001L13.0581 5.6637L14.9416 6.33637L10.5001 18.7727C10.3382 19.226 10.5222 19.7303 10.9379 19.9729L24.9593 28.152C25.8383 28.6647 26.9677 28.3283 27.4229 27.418C27.8447 26.5743 27.5272 25.5481 26.7026 25.09L14.7517 18.4506L18.5679 8.63759L20.4319 9.36248L17.2481 17.5495L27.6739 23.3416C29.4345 24.3198 30.1124 26.511 29.2117 28.3125C28.24 30.256 25.8284 30.9744 23.9515 29.8795L9.9302 21.7004C8.68292 20.9728 8.13092 19.4599 8.61658 18.1001Z" fill="#283D46"/>
<path fill-rule="evenodd" clip-rule="evenodd" d="M12.8665 10.0995L17.8665 12.0697L17.1333 13.9304L12.1333 11.9603L12.8665 10.0995Z" fill="#283D46"/>
<path fill-rule="evenodd" clip-rule="evenodd" d="M16.9999 52V46H18.9999V52H16.9999Z" fill="#283D46"/>
<path fill-rule="evenodd" clip-rule="evenodd" d="M21.9999 52V46H23.9999V52H21.9999Z" fill="#283D46"/>
<path fill-rule="evenodd" clip-rule="evenodd" d="M24.9999 52V46H26.9999V52H24.9999Z" fill="#283D46"/>
<path fill-rule="evenodd" clip-rule="evenodd" d="M29.9999 52V46H31.9999V52H29.9999Z" fill="#283D46"/>
<path fill-rule="evenodd" clip-rule="evenodd" d="M49.5453 48.8176C47.0105 48.3479 45.0908 46.1254 45.0908 43.4545C45.0908 40.4421 47.5329 38 50.5454 38C53.5578 38 55.9999 40.4421 55.9999 43.4545C55.9999 46.1254 54.0802 48.348 51.5453 48.8176V51.3134H54.0453V53.3134H51.5453V56H49.5453V53.3134H47.0453V51.3134H49.5453V48.8176ZM47.0908 43.4545C47.0908 45.3624 48.6375 46.9091 50.5454 46.9091C52.4533 46.9091 53.9999 45.3624 53.9999 43.4545C53.9999 41.5466 52.4533 40 50.5454 40C48.6375 40 47.0908 41.5466 47.0908 43.4545Z" fill="#283D46"/>
</svg>
