<svg viewBox="0 0 56 57" xmlns="http://www.w3.org/2000/svg" xmlns:xlink="http://www.w3.org/1999/xlink">
  <g transform="translate(-14 178)">
    <clipPath id="a" clip-rule="evenodd">
      <path d="M14-178h56v56H14v-56z" fill="#FFF"/>
    </clipPath>
    <g clip-path="url(#a)">
      <use xlink:href="#path0_fill" transform="matrix(-1 0 0 1 53.948 -175.997)" fill="#2F424A"/>
      <use xlink:href="#path1_fill" transform="matrix(-1 0 0 1 37.6414 -155.628)" fill="#2F424A"/>
      <use xlink:href="#path2_fill" transform="matrix(-1 0 0 1 48.4722 -145.239)" fill="#FF383B"/>
      <use xlink:href="#path2_fill" transform="matrix(-1 0 0 1 42.38 -141.062)" fill="#FF383B"/>
      <use xlink:href="#path2_fill" transform="matrix(-1 0 0 1 42.38 -148.719)" fill="#FF383B"/>
    </g>
  </g>
  <defs>
    <path id="path0_fill" fill-rule="evenodd" d="M.6234 2.1944c-.1714.0106-.339.021-.5026.0308L0 .229.4058.204C3.2701.0288 7.402-.224 11.4235.3865c4.2251.648 8.5366 2.2905 11.1318 6.2046 1.3234 1.9958 1.9341 4.986 2.2318 7.3355.1512 1.1967.2283 2.2926.2659 3.0684a35.6148 35.6148 0 0 1 .0358 1.0622l5.1581 11.2323c.5253 1.1438-.1239 2.4826-1.3472 2.7786l-3.8086.9215v5.2023l-.0104.0718c-.1846 1.2415-.8327 3.2224-2.0526 4.8193-1.2751 1.6431-3.2393 2.9972-6.0446 2.9972h-1.7077v4.9167h-2v-6.9167h3.7077c2.0685 0 3.4889-.9662 4.4646-2.2234 1.0084-1.2752 1.479-2.738 1.643-3.8109v-6.6301l5.3383-1.2916-5.3383-11.6245v-.2354l-.0005-.0588a19.6408 19.6408 0 0 0-.0038-.2348 33.1139 33.1139 0 0 0-.0315-.879c-.0364-.7543-.1074-1.7727-.2524-2.9137-.2946-2.3259-.8685-4.9043-1.9144-6.4817-2.1432-3.2322-5.7856-4.7221-9.7682-5.3329-3.7655-.5835-7.6488-.3443-10.497-.169z"/>
    <path id="path1_fill" d="M4.0615 2.0882c0 1.1534-.9092 2.0883-2.0307 2.0883C.9092 4.1765 0 3.2415 0 2.0883 0 .9348.9092 0 2.0308 0c1.1215 0 2.0307.935 2.0307 2.0882z"/>
    <path id="path2_fill" d="M3.3846 1.7402c0 .9611-.7577 1.7402-1.6923 1.7402C.7577 3.4804 0 2.7013 0 1.7402 0 .7792.7577 0 1.6923 0c.9346 0 1.6923.7791 1.6923 1.7402z"/>
  </defs>
</svg>
