<svg viewBox="0 0 56 56" version="1.1" xmlns="http://www.w3.org/2000/svg" xmlns:xlink="http://www.w3.org/1999/xlink">
<title>ill_allergi</title>
<desc>Created using Figma</desc>
<g id="Canvas" transform="translate(366 333)">
<g id="ill_allergi">
<clipPath id="clip-0" clip-rule="evenodd">
<path d="M -366 -333L -310 -333L -310 -277L -366 -277L -366 -333Z" fill="#FFFFFF"/>
</clipPath>
<g id="Group 10" clip-path="url(#clip-0)">
<g id="Union">
<use xlink:href="#path0_fill" transform="translate(-326 -300)" fill="#FF383B"/>
<use xlink:href="#path1_fill" transform="translate(-326 -300)" fill="#FF383B"/>
<use xlink:href="#path2_fill" transform="translate(-326 -300)" fill="#FF383B"/>
<use xlink:href="#path3_fill" transform="translate(-326 -300)" fill="#FF383B"/>
<use xlink:href="#path4_fill" transform="translate(-326 -300)" fill="#FF383B"/>
</g>
<g id="Vector 9 (Stroke)">
<use xlink:href="#path5_fill" transform="matrix(0.966295 -0.257439 0.260205 0.965553 -360.987 -319.179)" fill="#2F424A"/>
</g>
<g id="Vector 10 (Stroke)">
<use xlink:href="#path6_fill" transform="matrix(0.966295 -0.257439 0.260205 0.965553 -367.519 -309.253)" fill="#2F424A"/>
</g>
</g>
</g>
</g>
<defs>
<path id="path0_fill" d="M 11 1.5C 11 0.67157 11.6716 0 12.5 0C 13.3284 0 14 0.67157 14 1.5C 14 2.32843 13.3284 3 12.5 3C 11.6716 3 11 2.32843 11 1.5Z"/>
<path id="path1_fill" d="M 6 7.5C 6 6.67157 6.67157 6 7.5 6C 8.32843 6 9 6.67157 9 7.5C 9 8.32843 8.32843 9 7.5 9C 6.67157 9 6 8.32843 6 7.5Z"/>
<path id="path2_fill" d="M 2.5 12C 1.67157 12 1 12.6716 1 13.5C 1 14.3284 1.67157 15 2.5 15C 3.32843 15 4 14.3284 4 13.5C 4 12.6716 3.32843 12 2.5 12Z"/>
<path id="path3_fill" d="M 0 7.5C 0 6.67157 0.67157 6 1.5 6C 2.32843 6 3 6.67157 3 7.5C 3 8.32843 2.32843 9 1.5 9C 0.67157 9 0 8.32843 0 7.5Z"/>
<path id="path4_fill" d="M 6.5 0C 5.67157 0 5 0.67157 5 1.5C 5 2.32843 5.67157 3 6.5 3C 7.32843 3 8 2.32843 8 1.5C 8 0.67157 7.32843 0 6.5 0Z"/>
<path id="path5_fill" fill-rule="evenodd" d="M 12.1416 2.16663C 11.596 2.36723 11.0331 2.73128 10.462 3.24362C 9.61608 3.99701 8.884 4.94795 8.22544 5.95434C 7.56848 6.95503 7.05061 7.9277 6.68062 8.67975C 6.49786 9.05087 6.35995 9.35156 6.26344 9.5687C 6.21617 9.67497 6.18169 9.75491 6.15739 9.81204C 6.1457 9.83951 6.13756 9.85891 6.13163 9.87315L 6.12576 9.88729L 6.12465 9.89L 5.71923 10.8822L 3.1801 9.63298C 3.16647 9.66524 3.15261 9.69835 3.13852 9.73232C 2.87083 10.376 2.5588 11.2281 2.32446 12.2291C 1.84532 14.2602 1.77673 16.5357 2.95333 18.2456L 1.30571 19.3794C -0.360084 16.9585 -0.141132 13.97 0.377883 11.7699C 0.642612 10.6552 1.00731 9.64985 1.29157 8.96499C 1.43691 8.61563 1.57046 8.32501 1.66192 8.13453C 1.70921 8.03613 1.74957 7.95527 1.77554 7.90417C 1.7893 7.87712 1.80111 7.85429 1.80827 7.84055L 1.81784 7.82231L 1.82083 7.81666L 1.82187 7.81471C 1.82203 7.8144 1.82259 7.81336 2.70462 8.28456L 1.82259 7.81336L 2.2783 6.96033L 4.71165 8.15754C 4.7654 8.04442 4.82372 7.92356 4.88618 7.79658C 5.27084 7.01532 5.84802 5.93523 6.55262 4.85814C 7.25562 3.78675 8.15162 2.6349 9.12643 1.7549C 10.1176 0.865682 11.3188 0.133016 12.6838 0.0048764C 13.0873 -0.0329979 13.3824 0.157585 13.5381 0.305282C 13.6383 0.408917 13.7619 0.586913 13.8136 0.68709C 13.8884 0.84576 13.9636 1.08027 14.0076 1.26676C 14.0876 1.61503 14.1531 2.08363 14.1986 2.50829C 14.2021 2.54193 14.2057 2.5756 14.2091 2.60925C 14.865 2.29368 15.7673 1.91854 16.8644 1.58673C 19.4658 0.806804 23.4607 0.208886 28.5797 0.97408C 34.4637 1.86678 40.1265 4.72314 42.5388 6.72178L 43.1124 7.19697L 42.8214 7.88259C 42.1813 9.39035 41.15 11.7447 39.6463 13.8709C 38.487 15.5031 36.9869 17.083 35.074 18.0518L 38.1144 20.2228L 37.0594 21.0468C 36.9303 21.1477 36.7885 21.2603 36.6348 21.3823C 35.5312 22.2587 33.8152 23.6213 31.7876 24.5953C 30.1946 25.3541 28.3377 25.8989 26.3786 25.7417C 26.3988 25.7693 26.4185 25.7961 26.4375 25.822C 26.5333 25.9524 26.6133 26.0609 26.6695 26.1372L 26.7571 26.2559L 27.4545 27.1992L 26.4135 27.7387C 18.0783 32.0582 9.28743 29.1261 4.73467 23.7287L 6.26343 22.4392C 10.0849 26.9696 17.3373 29.5563 24.432 26.4685C 24.3315 26.3309 24.227 26.1874 24.1232 26.0443C 23.8703 25.6956 23.6169 25.3427 23.4351 25.0817C 23.3428 24.9492 23.2597 24.8265 23.2061 24.7423C 23.1753 24.6938 23.1328 24.621 23.1068 24.5702C 23.0968 24.5498 23.0769 24.5052 23.0656 24.4772C 23.0498 24.4342 23.0169 24.3148 23.0034 24.2351C 22.9969 24.1672 23.001 23.9951 23.018 23.8915C 23.0543 23.7247 23.1583 23.4671 23.4254 23.2816C 23.6864 23.1003 23.9538 23.092 24.1051 23.1084C 24.2008 23.1234 24.3545 23.1683 24.4139 23.1931C 26.6275 24.2001 28.8723 23.7686 30.9276 22.7897C 32.4326 22.0797 33.7532 21.1067 34.7813 20.3003L 30.6318 17.3373L 32.7279 16.8098C 34.8946 16.2645 36.6306 14.6629 38.0158 12.7127C 39.2016 11.0511 40.0558 9.23796 40.6763 7.81053C 38.2687 6.07398 33.3698 3.72371 28.2797 2.95145C 23.4609 2.20889 19.9052 2.75795 17.4405 3.50195C 16.235 3.86241 15.3654 4.25364 14.7524 4.57327C 14.457 4.7266 14.2517 4.84871 14.1022 4.94281C 14.0326 4.98651 13.988 5.01625 13.9528 5.04027C 13.9377 5.05059 13.93 5.056 13.9224 5.06143L 13.9189 5.06388L 12.4135 6.17231L 12.3296 4.30166L 12.3292 4.2941L 12.328 4.26867L 12.3229 4.16886C 12.3181 4.08062 12.3111 3.95793 12.3013 3.8079C 12.2815 3.50478 12.252 3.11464 12.2099 2.72054C 12.1888 2.52239 12.1664 2.33593 12.1416 2.16663Z"/>
<path id="path6_fill" fill-rule="evenodd" d="M 0 21.8228C 11.2087 6.51538 28.6993 0.899992 36.0777 0L 36.1987 0.992643C 29.0076 1.8698 11.8068 7.39117 0.806826 22.4136L 0 21.8228Z"/>
</defs>
</svg>
