<svg viewBox="0 0 56 57" version="1.1" xmlns="http://www.w3.org/2000/svg" xmlns:xlink="http://www.w3.org/1999/xlink">
<title>ill_barn_ont_i_halsen</title>
<desc>Created using Figma</desc>
<g id="Canvas" transform="translate(137 -149)">
<g id="ill_barn_ont_i_halsen">
<clipPath id="clip-0" clip-rule="evenodd">
<path d="M -137 149L -81 149L -81 205L -137 205L -137 149Z" fill="#FFFFFF"/>
</clipPath>
<g id="Group 51" clip-path="url(#clip-0)">
<g id="Vector (Stroke)">
<use xlink:href="#path0_fill" transform="translate(-127.06 152.788)" fill="#2F424A"/>
</g>
<g id="Vector (Stroke)">
<use xlink:href="#path1_fill" transform="translate(-121.5 186.5)" fill="#FF383B"/>
</g>
<g id="Vector 2 (Stroke)">
<use xlink:href="#path2_fill" transform="matrix(1 0 0 -1 -112.186 175.464)" fill="#2F424A"/>
</g>
</g>
</g>
</g>
<defs>
<path id="path0_fill" fill-rule="evenodd" d="M 0.403178 2.19334C 0.307691 2.19915 0.213534 2.20488 0.120756 2.21049L 0 0.214136C 0.0595043 0.210537 0.119673 0.206889 0.18049 0.203202C 3.05706 0.0287946 7.38551 -0.233641 11.5945 0.413761C 15.8956 1.08146 20.2961 2.74199 22.8938 6.65969C 23.5888 7.70783 24.0421 9.1109 24.35 10.5404C 24.6575 11.974 24.8425 13.5565 24.9462 14.9797C 25.0497 16.4068 25.0786 17.7319 25.081 18.681C 25.0822 19.1588 25.0769 19.5526 25.0714 19.8209C 25.0707 19.8567 25.0699 19.8905 25.0692 19.9222L 28.2926 24.7475C 29.8736 27.1143 28.5467 30.3284 25.7566 30.8906L 25.0604 31.0309L 25.0604 33.4484L 24.0263 35.5165C 23.8504 36.6941 23.5196 38.5457 22.6435 40.1183C 21.6535 41.8594 19.9394 43.2956 17.0864 43.2956C 16.2369 43.2955 15.5583 43.2809 15.0604 43.2639L 15.0604 49.2123L 13.0604 49.2123L 13.0604 41.1255L 14.1428 41.2157L 14.1499 41.2163L 14.1799 41.2185C 14.2094 41.2207 14.2512 41.2236 14.3104 41.2273C 14.4324 41.2349 14.6103 41.2447 14.855 41.2548C 15.3513 41.2754 16.0872 41.2957 17.0864 41.2956C 19.1073 41.2956 20.2109 40.3503 20.9049 39.1298C 21.6698 37.8176 21.901 36.2322 22.0695 35.0774L 22.0941 34.9089L 23.0604 32.9762L 23.0604 29.3937L 25.3615 28.93C 26.7566 28.6489 27.42 27.0419 26.6295 25.8585L 23.0484 20.4977L 23.0611 20.1733L 23.0613 20.1684L 23.062 20.1503L 23.0644 20.0752C 23.0665 20.0068 23.0692 19.9087 23.0718 19.7796C 23.0772 19.5184 23.0823 19.1479 23.0811 18.6861C 23.0787 17.756 23.0519 16.501 22.9515 15.1248C 22.8513 13.7446 22.6844 12.3004 22.3948 10.9615C 22.1056 9.6186 21.7166 8.50337 21.2269 7.76493C 19.0862 4.5363 15.3636 3.02282 11.2877 2.39009C 7.34026 1.77135 3.27163 2.01885 0.403178 2.19334Z"/>
<path id="path1_fill" fill-rule="evenodd" d="M 5.99999 2C 3.79087 2 2 3.79086 2 6L 2 15.5L 3.21865e-06 15.5L 0 6C 5.60284e-06 2.6863 2.68629 0 5.99999 0L 15 0L 15 2L 5.99999 2Z"/>
<path id="path2_fill" fill-rule="evenodd" d="M 3.8394 2.46424L 0 0.928477L 0.371391 0L 5.37139 2L 5.37139 2.92848L 0.371391 4.92848L 0 4L 3.8394 2.46424Z"/>
</defs>
</svg>
