<svg viewBox="0 0 56 56" version="1.1" xmlns="http://www.w3.org/2000/svg" xmlns:xlink="http://www.w3.org/1999/xlink">
<title>ill_barn_borrelia</title>
<desc>Created using Figma</desc>
<g id="Canvas" transform="translate(367 -227)">
<g id="ill_barn_borrelia">
<g id="Group 60">
<g id="Line (Stroke)">
<use xlink:href="#path0_fill" transform="matrix(1 -2.50496e-16 2.39486e-16 1 -327.756 257)" fill="#283D46"/>
</g>
<g id="Line (Stroke)">
<use xlink:href="#path0_fill" transform="translate(-361 257)" fill="#283D46"/>
</g>
<g id="Vector (Stroke)">
<use xlink:href="#path1_fill" transform="translate(-354.758 235)" fill="#283D46"/>
</g>
<g id="Vector (Stroke)">
<use xlink:href="#path1_fill" transform="matrix(-1 0 0 1 -323.242 235)" fill="#283D46"/>
</g>
<g id="Subtract">
<use xlink:href="#path2_fill" transform="translate(-344.364 234)" fill="#283D46"/>
</g>
<g id="Rectangle 2 (Stroke)">
<use xlink:href="#path3_fill" transform="translate(-351.503 243.664)" fill="#283D46"/>
</g>
<g id="Subtract">
<use xlink:href="#path4_fill" transform="translate(-349.112 238)" fill="#283D46"/>
</g>
<g id="Vector (Stroke)">
<use xlink:href="#path5_fill" transform="translate(-361.469 237.952)" fill="#283D46"/>
</g>
<g id="Vector (Stroke)">
<use xlink:href="#path6_fill" transform="matrix(1 0 0 -1 -359.647 275)" fill="#283D46"/>
</g>
<g id="Vector (Stroke)">
<use xlink:href="#path7_fill" transform="matrix(-1 0 0 -1 -318.188 275)" fill="#283D46"/>
</g>
<g id="Vector (Stroke)">
<use xlink:href="#path8_fill" transform="matrix(-1 0 0 1 -316.88 237.952)" fill="#283D46"/>
</g>
<g id="Ellipse 3.2 (Stroke)">
<use xlink:href="#path9_fill" transform="translate(-345.356 256)" fill="#FF383B"/>
</g>
</g>
</g>
</g>
<defs>
<path id="path0_fill" fill-rule="evenodd" d="M 10.7556 2L 0 2L 0 0L 10.7556 0L 10.7556 2Z"/>
<path id="path1_fill" fill-rule="evenodd" d="M 1.40056 6.65151C 0.39887 4.90465 2.98023e-06 2.70496 0 0L 2 0C 2 2.53923 2.3803 4.33953 3.13555 5.65663C 3.87393 6.94429 5.03346 7.87825 6.82753 8.56631L 6.11135 10.4337C 3.99431 9.62175 2.41913 8.4278 1.40056 6.65151Z"/>
<path id="path2_fill" d="M 8.5636 4.37131C 8.10559 2.97281 6.82063 2 5.36404 2C 3.90739 2 2.62241 2.97287 2.16444 4.37146C 1.3994 4.55463 0.673981 4.80167 0 5.10397C 0.198456 2.25125 2.52419 0 5.36404 0C 8.2038 0 10.5295 2.2511 10.7281 5.10367C 10.0541 4.80142 9.32864 4.55441 8.5636 4.37131Z"/>
<path id="path3_fill" fill-rule="evenodd" d="M 21.104 2.1096C 19.0424 2.79633 15.743 3.65792 12.5033 3.67569C 9.26366 3.65792 5.96419 2.79633 3.90257 2.1096L 2.08447 16.5201C 1.2932 22.7918 6.18188 28.3361 12.5033 28.3361C 18.8247 28.3361 23.7134 22.7918 22.9221 16.5201L 21.104 2.1096ZM 4.18589 0.0934522C 3.20454 -0.248132 2.10472 0.381706 1.97465 1.41263L 0.100197 16.2698C -0.841769 23.736 4.97797 30.3361 12.5033 30.3361C 20.0286 30.3361 25.8484 23.736 24.9064 16.2698L 23.032 1.41263C 22.9019 0.381707 21.8021 -0.248132 20.8207 0.093452C 18.8573 0.776882 15.6726 1.67569 12.5033 1.67569C 9.33402 1.67569 6.14934 0.776883 4.18589 0.0934522Z"/>
<path id="path4_fill" d="M 18.0079 5.90097C 17.6582 5.16013 17.0577 4.44403 16.1921 3.81168C 14.7115 2.7301 12.5685 2 10.1122 2C 7.65598 2 5.51291 2.7301 4.03238 3.81168C 3.16673 4.44403 2.56628 5.16013 2.21654 5.90097C 2.07047 5.85233 1.92975 5.80435 1.79482 5.75739C 1.14227 5.53024 0.437363 5.73264 0 6.19684C 0.844406 2.67587 5.05055 0 10.1122 0C 15.1739 0 19.3801 2.6759 20.2245 6.19687C 19.7871 5.73267 19.0822 5.53024 18.4296 5.75739C 18.2947 5.80435 18.154 5.85233 18.0079 5.90097Z"/>
<path id="path5_fill" fill-rule="evenodd" d="M 3.01612 9.10074C 0.948982 6.18088 -0.22513 2.58107 0.0360694 0L 2.02591 0.201368C 1.82877 2.14937 2.757 5.27341 4.64846 7.94512C 6.52941 10.602 9.17189 12.5484 12.2023 12.5484L 12.2023 14.5484C 8.26612 14.5484 5.09376 12.0354 3.01612 9.10074Z"/>
<path id="path6_fill" fill-rule="evenodd" d="M 2.48139 7.59593C 0.816789 5.54057 3.03984e-06 2.80507 0 0L 2 0C 2 2.43911 2.7126 4.70362 4.03561 6.3372C 5.33942 7.94709 7.2767 9 9.89167 9L 9.89167 11C 6.67373 11 4.16518 9.675 2.48139 7.59593Z"/>
<path id="path7_fill" fill-rule="evenodd" d="M 2.5723 7.60625C 0.864946 5.5547 3.09944e-06 2.81744 0 0L 2 0C 2 2.42674 2.74689 4.68948 4.10958 6.32689C 5.45573 7.94441 7.43885 9 10.0566 9L 10.0566 11C 6.84136 11 4.29621 9.67769 2.5723 7.60625Z"/>
<path id="path8_fill" fill-rule="evenodd" d="M 2.57137 9.0575C 0.711237 6.1167 -0.214383 2.53389 0.0420417 0L 2.03188 0.201368C 1.82997 2.19655 2.58493 5.33758 4.26163 7.98836C 5.93045 10.6267 8.35606 12.5484 11.3648 12.5484L 11.3648 14.5484C 7.40686 14.5484 4.43938 12.0107 2.57137 9.0575Z"/>
<path id="path9_fill" fill-rule="evenodd" d="M 6.35556 11C 8.71893 11 10.7111 9.02789 10.7111 6.5C 10.7111 3.97211 8.71893 2 6.35556 2C 3.99218 2 2 3.97211 2 6.5C 2 9.02789 3.99218 11 6.35556 11ZM 6.35556 13C 9.86563 13 12.7111 10.0899 12.7111 6.5C 12.7111 2.91015 9.86563 0 6.35556 0C 2.84548 0 0 2.91015 0 6.5C 0 10.0899 2.84548 13 6.35556 13Z"/>
</defs>
</svg>
