<svg viewBox="0 0 56 56" version="1.1" xmlns="http://www.w3.org/2000/svg" xmlns:xlink="http://www.w3.org/1999/xlink">
<title>ill_barn_diarre_och_krakningar</title>
<desc>Created using Figma</desc>
<g id="Canvas" transform="translate(367 -150)">
<g id="ill_barn_diarre_och_krakningar">
<clipPath id="clip-0" clip-rule="evenodd">
<path d="M -367 150L -311 150L -311 206L -367 206L -367 150Z" fill="#FFFFFF"/>
</clipPath>
<g id="Group 49" clip-path="url(#clip-0)">
<g id="Vector (Stroke)">
<use xlink:href="#path0_fill" transform="translate(-372 193)" fill="#FF383B"/>
</g>
<g id="Vector (Stroke)">
<use xlink:href="#path1_fill" transform="matrix(-0.965926 0.258819 0.258819 0.965926 -330.061 151.76)" fill="#2F424A"/>
</g>
<g id="Ellipse">
<use xlink:href="#path2_fill" transform="matrix(0.965926 -0.258819 -0.258819 -0.965926 -343.305 177.63)" fill="#283D46"/>
</g>
</g>
</g>
</g>
<defs>
<path id="path0_fill" fill-rule="evenodd" d="M 13.8041 26C 13.8884 25.8474 13.9724 25.6954 14.056 25.5441C 14.1403 25.3915 14.2243 25.2395 14.3079 25.0881C 14.3115 25.0817 14.315 25.0752 14.3186 25.0688L 14.2524 25.0322L 13.8235 24.6003L 13.6973 24.7256L 13.4432 24.5853L 13.0701 25.2607L 13.8041 26ZM 11.7335 23.9147L 12.4431 23.2101L 11.0627 21.8199L 10.3531 22.5246L 11.7335 23.9147ZM 8.97268 21.1344L 9.68228 20.4298L 8.30186 19.0396L 7.59227 19.7442L 8.97268 21.1344ZM 6.21186 18.354L 6.92145 17.6494L 5.54104 16.2592L 4.83144 16.9638L 6.21186 18.354ZM 3.45103 15.5737L 4.16063 14.8691L 2.78021 13.4789L 2.07062 14.1835L 3.45103 15.5737ZM 0.748729 12.8522C 0.883293 12.7898 1.06022 12.7079 1.28196 12.606L 1.15562 12.3312L 1.3998 12.0887L 0.965201 11.651C 0.930598 11.6669 0.896955 11.6824 0.864265 11.6974C 0.717726 11.7648 0.590364 11.8235 0.481768 11.8738C 0.156926 12.0241 0 12.0982 0 12.0982L 0.748729 12.8522ZM 2.59487 10.9097L 3.0063 11.8212C 3.50815 11.5946 4.0854 11.3354 4.74307 11.0421L 4.33571 10.1288C 3.6769 10.4227 3.09762 10.6828 2.59487 10.9097ZM 6.07475 9.35684L 6.47895 10.2715C 7.02079 10.0321 7.60073 9.77674 8.22108 9.50474L 7.81952 8.58891C 7.19848 8.86121 6.61721 9.11712 6.07475 9.35684ZM 9.56806 7.82491L 9.96732 8.74175C 10.5241 8.4993 11.1066 8.24637 11.7165 7.9824L 11.3193 7.06467C 10.7089 7.32887 10.1253 7.58225 9.56806 7.82491ZM 13.066 6.31074L 13.4614 7.22926C 14.0251 6.9866 14.6083 6.73616 15.2123 6.47752L 14.8186 5.55828C 14.2142 5.8171 13.6301 6.06791 13.066 6.31074ZM 16.5776 4.80671L 16.9697 5.72661C 17.5363 5.48508 18.1186 5.23742 18.7174 4.98327L 18.3267 4.06275C 17.7275 4.31705 17.1445 4.56502 16.5776 4.80671ZM 20.0801 3.32007L 20.4695 4.24117C 21.0409 3.99962 21.6256 3.75296 22.2242 3.5009L 21.8362 2.57926C 21.2372 2.83147 20.6519 3.07839 20.0801 3.32007ZM 23.5937 1.84062L 23.9805 2.76276C 24.5547 2.52189 25.1402 2.27667 25.7378 2.02683L 25.3521 1.10421C 24.7542 1.35417 24.1681 1.59963 23.5937 1.84062ZM 26.745 0.522673L 27.299 0.820318L 27.4131 1.09413C 27.4438 1.03695 27.4734 0.981981 27.5017 0.929225C 27.5462 0.846401 27.5878 0.769036 27.6264 0.697162C 27.8744 0.235148 28 0 28 0C 27.7549 0.101981 27.5115 0.20328 27.27 0.303897C 27.217 0.325953 27.1641 0.347977 27.1114 0.369967C 26.9888 0.421046 26.8667 0.471947 26.745 0.522673ZM 26.499 2.79112L 25.619 2.31623C 25.3258 2.85957 24.9906 3.48 24.6136 4.17636L 25.4931 4.65239C 25.8702 3.95571 26.2057 3.3347 26.499 2.79112ZM 24.4852 6.51188L 23.6063 6.0349C 23.29 6.61773 22.953 7.23794 22.5955 7.89533L 23.4739 8.37315C 23.8316 7.71555 24.1688 7.09491 24.4852 6.51188ZM 22.4626 10.2304L 21.5846 9.75183C 21.2608 10.3458 20.9234 10.9642 20.5724 11.6069L 21.4501 12.0862C 21.8012 11.4433 22.1388 10.8246 22.4626 10.2304ZM 20.4339 13.9453L 19.5566 13.4653C 19.2283 14.0653 18.8899 14.6833 18.5413 15.3194L 19.4183 15.8C 19.767 15.1638 20.1055 14.5454 20.4339 13.9453ZM 18.4 17.6565L 17.5234 17.1753C 17.1924 17.7783 16.8533 18.3955 16.5061 19.0271L 17.3823 19.5089C 17.7297 18.8771 18.0689 18.2596 18.4 17.6565ZM 16.3604 21.3661L 15.4844 20.8838C 15.1511 21.4892 14.811 22.1064 14.4641 22.7354L 15.3398 23.2183C 15.6867 22.5891 16.027 21.9717 16.3604 21.3661Z"/>
<path id="path1_fill" fill-rule="evenodd" d="M 0.403178 2.19334C 0.307691 2.19915 0.213534 2.20488 0.120756 2.21049L 0 0.214136C 0.0595043 0.210537 0.119673 0.206889 0.18049 0.203202C 3.05706 0.0287946 7.38551 -0.233641 11.5945 0.413761C 15.8956 1.08146 20.2961 2.74199 22.8938 6.65969C 24.2597 8.71969 24.5683 12.0576 24.5952 14.6542C 24.6086 15.9895 24.5464 17.2246 24.4817 18.1029C 24.449 18.546 24.415 18.9118 24.3897 19.1597C 24.3892 19.1654 24.3886 19.1712 24.388 19.1769L 28.1974 24.7158C 29.8234 27.0801 28.5047 30.3369 25.6917 30.9037L 25.0604 31.0309L 25.0604 33.7439L 22.8143 35.2597C 23.0908 36.7349 23.0722 38.5067 22.4272 40.0308C 21.6309 41.9125 19.9213 43.2956 17.0864 43.2956C 16.2369 43.2955 15.5583 43.2809 15.0604 43.2639L 15.0604 49.2123L 13.0604 49.2123L 13.0604 41.1255L 14.1428 41.2157L 14.1499 41.2163L 14.1799 41.2185C 14.2094 41.2207 14.2512 41.2236 14.3104 41.2273C 14.4324 41.2349 14.6103 41.2447 14.855 41.2548C 15.3513 41.2754 16.0872 41.2957 17.0864 41.2956C 19.1254 41.2956 20.105 40.3864 20.5854 39.2513C 21.1104 38.0107 21.0736 36.3821 20.7225 35.0719L 20.538 34.3831L 23.0604 32.6808L 23.0604 29.3937L 25.2967 28.9431C 26.7031 28.6597 27.3625 27.0313 26.5495 25.8492L 22.314 19.6907L 22.3609 19.3138L 22.3614 19.3098L 22.3633 19.2938L 22.3712 19.226C 22.3783 19.1637 22.3881 19.0748 22.4 18.957C 22.4244 18.7177 22.4559 18.3797 22.4871 17.9559C 22.5502 17.1004 22.609 15.9492 22.5953 14.675C 22.5681 12.0525 22.2303 9.2781 21.2269 7.76493C 19.0862 4.5363 15.3636 3.02282 11.2877 2.39009C 7.34026 1.77135 3.27163 2.01885 0.403178 2.19334Z"/>
<path id="path2_fill" d="M 4 0.686645C 4 1.79121 3.10457 2.68665 2 2.68665C 0.89543 2.68665 0 1.79121 0 0.686645C 0 -0.417925 0.801718 0.14182 1.90629 0.14182C 3.01086 0.14182 4 -0.417925 4 0.686645Z"/>
</defs>
</svg>
