<svg viewBox="0 0 57 57" version="1.1" xmlns="http://www.w3.org/2000/svg" xmlns:xlink="http://www.w3.org/1999/xlink">
<title>ill_barn_akne</title>
<desc>Created using Figma</desc>
<g id="Canvas" transform="translate(291 -226)">
<g id="ill_barn_akne">
<clipPath id="clip-0" clip-rule="evenodd">
<path d="M -290 227L -234 227L -234 283L -290 283L -290 227Z" fill="#FFFFFF"/>
</clipPath>
<g id="Group 56" clip-path="url(#clip-0)">
<g id="Ellipse 4.1">
<use xlink:href="#path0_fill" transform="matrix(-1 0 0 1 -266.359 249.372)" fill="#2F424A"/>
</g>
<g id="Ellipse 3.6">
<use xlink:href="#path1_fill" transform="matrix(-1 0 0 1 -257.528 260.761)" fill="#FF383B"/>
</g>
<g id="Ellipse 3.7">
<use xlink:href="#path1_fill" transform="matrix(-1 0 0 1 -263.62 264.938)" fill="#FF383B"/>
</g>
<g id="Ellipse 3.8">
<use xlink:href="#path1_fill" transform="matrix(-1 0 0 1 -263.62 257.281)" fill="#FF383B"/>
</g>
<g id="Vector (Stroke)">
<use xlink:href="#path2_fill" transform="matrix(-1 0 0 1 -250.052 230.788)" fill="#2F424A"/>
</g>
</g>
</g>
</g>
<defs>
<path id="path0_fill" d="M 4.06154 2.08825C 4.06154 3.24155 3.15233 4.1765 2.03077 4.1765C 0.909206 4.1765 0 3.24155 0 2.08825C 0 0.93494 0.909206 0 2.03077 0C 3.15233 0 4.06154 0.93494 4.06154 2.08825Z"/>
<path id="path1_fill" d="M 3.38462 1.74021C 3.38462 2.7013 2.62694 3.48041 1.69231 3.48041C 0.757672 3.48041 0 2.7013 0 1.74021C 0 0.779117 0.757672 0 1.69231 0C 2.62694 0 3.38462 0.779117 3.38462 1.74021Z"/>
<path id="path2_fill" fill-rule="evenodd" d="M 0.403178 2.19334C 0.307691 2.19915 0.213534 2.20488 0.120756 2.21049L 0 0.214136C 0.0595043 0.210537 0.119673 0.206889 0.18049 0.203202C 3.05706 0.0287946 7.38551 -0.233641 11.5945 0.413761C 15.8956 1.08146 20.2961 2.74199 22.8938 6.65969C 24.2393 8.68893 24.7433 12.0632 24.946 14.7264C 25.0495 16.0921 25.0786 17.3562 25.081 18.259C 25.0822 18.7138 25.0769 19.0887 25.0714 19.3435C 25.0707 19.3763 25.0699 19.4075 25.0692 19.4367L 28.4649 24.8084C 29.9628 27.1779 28.622 30.3132 25.874 30.867L 25.0604 31.0309L 25.0604 33.4484L 24.0263 35.5165C 23.8504 36.6941 23.5196 38.5457 22.6435 40.1183C 21.6535 41.8594 19.9394 43.2956 17.0864 43.2956C 16.2369 43.2955 15.5583 43.2809 15.0604 43.2639L 15.0604 49.2123L 13.0604 49.2123L 13.0604 41.1255L 14.1428 41.2157L 14.1499 41.2163L 14.1799 41.2185C 14.2094 41.2207 14.2512 41.2236 14.3104 41.2273C 14.4324 41.2349 14.6103 41.2447 14.855 41.2548C 15.3513 41.2754 16.0872 41.2957 17.0864 41.2956C 19.1073 41.2956 20.2109 40.3503 20.9049 39.1298C 21.6698 37.8176 21.901 36.2322 22.0695 35.0774L 22.0941 34.9089L 23.0604 32.9762L 23.0604 29.3937L 25.4789 28.9064C 26.8529 28.6295 27.5233 27.0618 26.7744 25.8771L 23.0483 19.9828L 23.0612 19.6712L 23.0614 19.6667L 23.062 19.6498L 23.0645 19.5791C 23.0665 19.5145 23.0692 19.422 23.0719 19.3C 23.0772 19.0527 23.0823 18.7023 23.0811 18.2644C 23.0787 17.3816 23.052 16.1907 22.9517 14.8781C 22.7467 12.1846 22.2507 9.30885 21.2269 7.76493C 19.0862 4.5363 15.3636 3.02282 11.2877 2.39009C 7.34026 1.77135 3.27163 2.01885 0.403178 2.19334Z"/>
</defs>
</svg>
