<svg viewBox="0 0 56 56" version="1.1" xmlns="http://www.w3.org/2000/svg" xmlns:xlink="http://www.w3.org/1999/xlink">
<title>ill_bihalebesvar</title>
<desc>Created using Figma</desc>
<g id="Canvas" transform="translate(290 331)">
<g id="ill_bihalebesvar">
<clipPath id="clip-0" clip-rule="evenodd">
<path d="M -290 -331L -234 -331L -234 -275L -290 -275L -290 -331Z" fill="#FFFFFF"/>
</clipPath>
<g id="Group 11" clip-path="url(#clip-0)">
<g id="Vector (Stroke)">
<use xlink:href="#path0_fill" transform="matrix(-1 0 0 1 -241.155 -328.997)" fill="#2F424A"/>
</g>
<g id="Ellipse 3.3 (Stroke)">
<use xlink:href="#path1_fill" transform="translate(-275 -323)" fill="#FF383B"/>
</g>
<g id="Ellipse 3">
<use xlink:href="#path2_fill" transform="translate(-274.502 -295.496)" fill="#2F424A"/>
</g>
</g>
</g>
</g>
<defs>
<path id="path0_fill" fill-rule="evenodd" d="M 0.62338 2.19444C 0.452007 2.205 0.284382 2.21532 0.120756 2.22522L 0 0.228866C 0.132219 0.220869 0.267548 0.212586 0.405832 0.204121C 3.2701 0.0287954 7.40203 -0.224125 11.4235 0.386531C 15.6486 1.0345 19.9601 2.67697 22.5553 6.59106C 23.8787 8.58686 24.4894 11.5771 24.7871 13.9266C 24.9383 15.1233 25.0154 16.2192 25.053 16.995C 25.0719 17.3867 25.0816 17.7095 25.0863 17.9274C 25.0873 17.975 25.0881 18.0185 25.0888 18.0572L 30.2469 29.2895C 30.7722 30.4333 30.123 31.7721 28.8997 32.0681L 25.0911 32.9896L 25.0911 38.1919L 25.0807 38.2637C 24.8961 39.5052 24.248 41.4861 23.0281 43.083C 21.753 44.7261 19.7888 46.0802 16.9835 46.0802L 15.2758 46.0802L 15.2758 50.9969L 13.2758 50.9969L 13.2758 44.0802L 16.9835 44.0802C 19.052 44.0802 20.4724 43.114 21.4481 41.8568C 22.4565 40.5816 22.9271 39.1188 23.0911 38.0459L 23.0911 31.4158L 28.4294 30.1242L 23.0911 18.4997L 23.0911 18.2813L 23.0911 18.278L 23.0911 18.2643L 23.0906 18.2055C 23.0901 18.1511 23.089 18.0737 23.0868 17.9707C 23.0822 17.761 23.0734 17.4649 23.0553 17.0917C 23.0189 16.3374 22.9479 15.319 22.8029 14.178C 22.5083 11.8521 21.9344 9.27367 20.8885 7.6963C 18.7453 4.46406 15.1029 2.9742 11.1203 2.36342C 7.35483 1.77992 3.47148 2.01906 0.62338 2.19444Z"/>
<path id="path1_fill" fill-rule="evenodd" d="M 19.9525 10.9806L 17.9619 10.7868C 17.9893 10.512 18.0006 10.2818 18 10C 18.0006 9.71823 17.9893 9.48802 17.9619 9.21318L 19.9525 9.01945C 19.9839 9.34206 20 9.66915 20 10C 20 10.3308 19.9839 10.6579 19.9525 10.9806ZM 19.5719 7.09617L 17.6578 7.67608C 17.4978 7.13929 17.321 6.7157 17.058 6.22951L 18.821 5.28519C 19.1277 5.8578 19.3803 6.46374 19.5719 7.09617ZM 17.7304 3.65597L 16.1851 4.92562C 15.8331 4.49344 15.5066 4.16692 15.0744 3.81491L 16.344 2.2696C 16.8501 2.68539 17.3146 3.14991 17.7304 3.65597ZM 14.7148 1.17901L 13.7705 2.94204C 13.2843 2.67897 12.8607 2.50219 12.3239 2.34221L 12.9038 0.428132C 13.5363 0.619742 14.1422 0.872314 14.7148 1.17901ZM 10.9805 0.0474633L 10.7868 2.03806C 10.512 2.01073 10.2818 1.9994 10 2C 9.71823 1.9994 9.48802 2.01073 9.21318 2.03806L 9.01945 0.0474633C 9.34206 0.016067 9.66915 0 10 0C 10.3308 0 10.6579 0.016067 10.9805 0.0474633ZM 7.09617 0.428132L 7.67608 2.34221C 7.13929 2.50219 6.7157 2.67897 6.22951 2.94204L 5.28519 1.17901C 5.8578 0.872314 6.46374 0.619742 7.09617 0.428132ZM 3.65597 2.2696L 4.92562 3.81491C 4.49344 4.16692 4.16692 4.49344 3.81491 4.92562L 2.2696 3.65597C 2.68539 3.1499 3.1499 2.68539 3.65597 2.2696ZM 1.17901 5.28519L 2.94204 6.22951C 2.67897 6.7157 2.50219 7.13929 2.34221 7.67608L 0.428132 7.09617C 0.619742 6.46374 0.872314 5.8578 1.17901 5.28519ZM 0.0474633 9.01945C 0.016067 9.34206 0 9.66915 0 10C 0 10.3308 0.016067 10.6579 0.0474633 10.9805L 2.03806 10.7868C 2.01073 10.512 1.9994 10.2818 2 10C 1.9994 9.71823 2.01073 9.48802 2.03806 9.21318L 0.0474633 9.01945ZM 0.428132 12.9038L 2.34221 12.3239C 2.50219 12.8607 2.67897 13.2843 2.94204 13.7705L 1.17901 14.7148C 0.872314 14.1422 0.619742 13.5363 0.428132 12.9038ZM 2.2696 16.344L 3.81491 15.0744C 4.16692 15.5066 4.49344 15.8331 4.92562 16.1851L 3.65597 17.7304C 3.1499 17.3146 2.68539 16.8501 2.2696 16.344ZM 5.28519 18.821L 6.22951 17.058C 6.7157 17.321 7.13929 17.4978 7.67608 17.6578L 7.09617 19.5719C 6.46374 19.3803 5.8578 19.1277 5.28519 18.821ZM 9.01945 19.9525L 9.21318 17.9619C 9.48802 17.9893 9.71823 18.0006 10 18C 10.2818 18.0006 10.512 17.9893 10.7868 17.9619L 10.9806 19.9525C 10.6579 19.9839 10.3308 20 10 20C 9.66915 20 9.34206 19.9839 9.01945 19.9525ZM 12.9038 19.5719L 12.3239 17.6578C 12.8607 17.4978 13.2843 17.321 13.7705 17.058L 14.7148 18.821C 14.1422 19.1277 13.5363 19.3803 12.9038 19.5719ZM 16.344 17.7304L 15.0744 16.1851C 15.5066 15.8331 15.8331 15.5066 16.1851 15.0744L 17.7304 16.344C 17.3146 16.8501 16.8501 17.3146 16.344 17.7304ZM 18.821 14.7148C 19.1277 14.1422 19.3803 13.5363 19.5719 12.9038L 17.6578 12.3239C 17.4978 12.8607 17.321 13.2843 17.058 13.7705L 18.821 14.7148Z"/>
<path id="path2_fill" d="M 7.00502 7.65363C 7.00502 9.58801 5.43689 11.1561 3.50251 11.1561C 1.56813 11.1561 0 9.58801 0 7.65363C 0 5.71925 3.50251 -2.246e-06 3.50251 -2.246e-06C 3.50251 -2.246e-06 7.00502 5.71925 7.00502 7.65363Z"/>
</defs>
</svg>
