<svg viewBox="0 0 56 56" version="1.1" xmlns="http://www.w3.org/2000/svg" xmlns:xlink="http://www.w3.org/1999/xlink">
<title>ill_erektionsbesvar</title>
<desc>Created using Figma</desc>
<g id="Canvas" transform="translate(62 332)">
<g id="ill_erektionsbesvar">
<g id="Group">
<g id="Union (Stroke)">
<use xlink:href="#path0_fill" transform="translate(-61 -321)" fill="#283D46"/>
</g>
<g id="Union">
<use xlink:href="#path1_fill" transform="translate(-46.0747 -312.763)" fill="#283D46"/>
<use xlink:href="#path2_fill" transform="translate(-46.0747 -312.763)" fill="#283D46"/>
</g>
</g>
<g id="male">
<use xlink:href="#path3_fill" transform="translate(-21 -291)" fill="#283D46"/>
</g>
</g>
</g>
<defs>
<path id="path0_fill" fill-rule="evenodd" d="M 27 4.57403L 26.9923 4.574C 19.0085 4.53986 11.3619 3.65281 4.68162 2.12464L 2.1435 23.3904C 4.74664 23.6582 7.96306 24.5547 10.4966 25.2609C 10.5557 25.2773 10.6144 25.2937 10.6727 25.3099C 11.0097 25.4039 11.3371 25.4951 11.6547 25.5827C 16.567 26.9382 20.1985 28.5871 22.3815 31.0134C 23.044 31.7498 23.6095 32 23.9809 32L 30.019 32C 30.3905 32 30.9559 31.7498 31.6185 31.0134C 33.8014 28.5871 37.4329 26.9382 42.3452 25.5827C 42.6627 25.4951 42.9905 25.4038 43.3276 25.3098L 43.5036 25.2608C 46.0372 24.5546 49.2533 23.6582 51.8565 23.3904L 49.3183 2.12464C 42.6381 3.65281 34.9915 4.53986 27.0078 4.574L 27 4.57403ZM 53.998 24.4576C 54.0372 24.9319 53.479 25.3023 53.0154 25.315C 50.5168 25.3829 46.8923 26.3928 43.8648 27.2363C 43.5277 27.3303 43.1972 27.4224 42.8772 27.5107C 38.0345 28.8469 34.8842 30.3739 33.1053 32.3511C 32.2882 33.2593 31.2236 34 30.019 34L 23.9809 34C 22.7763 34 21.7118 33.2593 20.8947 32.3511C 19.1158 30.3739 15.9654 28.8469 11.1227 27.5107C 10.8027 27.4224 10.473 27.3305 10.1359 27.2366C 7.10843 26.393 3.4831 25.3829 0.984564 25.315C 0.520941 25.3023 -0.0372869 24.9319 0.00195866 24.4576L 0.00244694 24.4533L 2.81678 0.87327L 2.81989 0.846536C 2.91718 0.0291228 3.89863 -0.112509 4.68073 0.0714507C 11.3582 1.64201 18.947 2.54279 27 2.57401C 35.0529 2.54279 42.6418 1.64201 49.3192 0.0714507C 50.1013 -0.112509 51.0828 0.0291228 51.1801 0.846536L 51.1832 0.87327L 53.9975 24.4533L 53.998 24.4576ZM 1.03897 23.3157L 1.04161 23.3158Z"/>
<path id="path1_fill" d="M 4.56566 0.752431C 4.70503 0.514028 4.62476 0.207815 4.38637 0.0684409C 4.14798 -0.0709329 3.84175 0.00932838 3.70237 0.247701C 1.25431 4.43499 -0.338573 12.2843 0.0614129 20.0841C 0.075554 20.3599 0.310585 20.572 0.586365 20.5578C 0.862145 20.5437 1.07424 20.3086 1.0601 20.0329C 0.666062 12.349 2.24926 4.7145 4.56566 0.752431Z"/>
<path id="path2_fill" d="M 19.5837 0.752431C 19.4443 0.514028 19.5246 0.207815 19.763 0.0684409C 20.0013 -0.0709329 20.3076 0.00932838 20.447 0.247701C 22.895 4.43499 24.4879 12.2843 24.0879 20.0841C 24.0738 20.3599 23.8387 20.572 23.563 20.5578C 23.2872 20.5437 23.0751 20.3086 23.0892 20.0329C 23.4833 12.349 21.9001 4.7145 19.5837 0.752431Z"/>
<path id="path3_fill" fill-rule="evenodd" d="M 13 6L 15 6L 15 0L 9 0L 9 2L 11.6284 2L 8.56458 5.06381C 7.68237 4.45047 6.61041 4.09091 5.45453 4.09091C 2.44208 4.09091 0 6.53299 0 9.54547C 0 12.5579 2.44208 15 5.45453 15C 8.46698 15 10.9091 12.5579 10.9091 9.54547C 10.9091 8.41153 10.5631 7.3584 9.97089 6.4859L 13 3.45676L 13 6ZM 8.90912 9.54547C 8.90912 11.4533 7.36243 13 5.45453 13C 3.54663 13 2 11.4533 2 9.54547C 2 7.63757 3.54663 6.09091 5.45453 6.09091C 7.36243 6.09091 8.90912 7.63757 8.90912 9.54547Z"/>
</defs>
</svg>
