<svg viewBox="0 0 56 56" version="1.1" xmlns="http://www.w3.org/2000/svg" xmlns:xlink="http://www.w3.org/1999/xlink">
<title>ill_fodelsemarke</title>
<desc>Created using Figma</desc>
<g id="Canvas" transform="translate(-14 332)">
<clipPath id="clip-0" clip-rule="evenodd">
<path d="M 14 -332L 70 -332L 70 -276L 14 -276L 14 -332Z" fill="#FFFFFF"/>
</clipPath>
<g id="ill_fodelsemarke" clip-path="url(#clip-0)">
<g id="Group">
<g id="Union (Stroke)">
<use xlink:href="#path0_fill" transform="translate(15.0004 -336)" fill="#2F424A"/>
</g>
<g id="Ellipse 3">
<use xlink:href="#path1_fill" transform="translate(38 -313)" fill="#2F424A"/>
</g>
<g id="Ellipse 3.1">
<use xlink:href="#path2_fill" transform="translate(24 -318)" fill="#FF383B"/>
</g>
<g id="Ellipse 3.2">
<use xlink:href="#path1_fill" transform="translate(31 -304)" fill="#2F424A"/>
</g>
<g id="Vector 9 (Stroke)">
<use xlink:href="#path3_fill" transform="translate(33.5486 -317.891)" fill="#2F424A"/>
</g>
<g id="Vector 9.1 (Stroke)">
<use xlink:href="#path3_fill" transform="matrix(-1 0 0 1 49.4514 -318.215)" fill="#2F424A"/>
</g>
</g>
</g>
</g>
<defs>
<path id="path0_fill" fill-rule="evenodd" d="M 26.8763 0.0076369L 26.9996 0L 35.1246 0L 35.7627 1.76999C 35.1266 2.29709 33.6871 4.10719 33.6871 6.65564C 33.6871 6.94035 33.885 7.39563 34.5868 8.00496C 35.2856 8.61709 36.2381 9.1749 37.3845 9.7227C 39.6885 10.8285 42.4362 11.685 44.3034 12.1487C 47.2755 12.8876 53.1871 16.2931 53.1871 24.0265C 53.187 31.1236 53.7284 52.2779 53.9992 61.9721L 52.9996 63L 46.4996 63L 45.5065 62.1175L 43.8486 48.1037L 43.4367 62.0296L 42.4371 63L 11.5621 63L 10.5625 62.0296L 10.1507 48.1037L 8.49268 62.1175L 7.49961 63L 0.99961 63L 0 61.9721C 0.270802 52.2779 0.812192 31.1236 0.81211 24.0265C 0.81211 16.2931 6.72372 12.8876 9.69586 12.1487C 11.5631 11.685 14.3107 10.8285 16.6147 9.7227C 17.7611 9.1749 18.7136 8.61709 19.4124 8.00496C 20.1142 7.39563 20.3121 6.94035 20.3121 6.65564L 20.3121 6.55986C 20.3122 5.15823 20.3122 4.20829 20.2193 3.52528C 20.132 2.86899 19.9864 2.68142 19.8616 2.57794L 20.3763 0.81559L 26.8763 0.0076369ZM 27.0615 2L 22.0815 2.61902C 22.1339 2.82619 22.1725 3.04111 22.2018 3.26179C 22.3099 4.09171 22.3121 5.20132 22.3121 6.65564C 22.3121 7.82523 21.5621 8.78722 20.7236 9.51521C 19.8819 10.2404 18.7016 10.94 17.4783 11.5266C 15.0427 12.6898 12.1028 13.6108 10.1784 14.0897L 9.93711 13.1192L 10.1784 14.0897C 7.73383 14.6974 2.81211 17.54 2.81211 24.0265C 2.81203 30.907 2.30631 50.9072 2.02776 61L 6.61095 61L 9.75654 34.4123L 11.7492 34.5002L 12.533 61L 41.4663 61L 42.25 34.5002L 44.2427 34.4123L 47.3883 61L 51.9715 61C 51.6929 50.9072 51.1872 30.907 51.1871 24.0265C 51.1871 17.54 46.2654 14.6974 43.8209 14.0897C 41.8964 13.6108 38.9565 12.6898 36.5209 11.5266C 35.2976 10.94 34.1173 10.2404 33.2757 9.51521C 32.4372 8.78722 31.6871 7.82523 31.6871 6.65564C 31.6871 4.74747 32.3041 3.1567 33.0144 2L 27.0615 2Z"/>
<path id="path1_fill" d="M 5 2.5C 5 3.88071 3.88071 5 2.5 5C 1.11929 5 0 3.88071 0 2.5C 0 1.11929 1.11929 0 2.5 0C 3.88071 0 5 1.11929 5 2.5Z"/>
<path id="path2_fill" d="M 7 3.5C 7 5.433 5.433 7 3.5 7C 1.567 7 0 5.433 0 3.5C 0 1.567 1.567 0 3.5 0C 5.433 0 7 1.567 7 3.5Z"/>
<path id="path3_fill" fill-rule="evenodd" d="M 0.010058 11.6557C 2.25211 7.44586 0.947086 2.41771 0 0.430169L 0.902748 0C 1.91322 2.12056 3.34878 7.51403 0.89269 12.1258L 0.010058 11.6557Z"/>
</defs>
</svg>
