<svg viewBox="0 0 56 56" version="1.1" xmlns="http://www.w3.org/2000/svg" xmlns:xlink="http://www.w3.org/1999/xlink">
<title>ill_fotbesvar</title>
<desc>Created using Figma</desc>
<g id="Canvas" transform="translate(214 101)">
<g id="ill_fotbesvar">
<clipPath id="clip-0" clip-rule="evenodd">
<path d="M -214 -101L -158 -101L -158 -45L -214 -45L -214 -101Z" fill="#FFFFFF"/>
</clipPath>
<g id="Group 36" clip-path="url(#clip-0)">
<g id="Vector 3.1 (Stroke)">
<use xlink:href="#path0_fill" transform="matrix(-1 0 0 1 -161.975 -110.052)" fill="#283D46"/>
</g>
</g>
</g>
</g>
<defs>
<path id="path0_fill" fill-rule="evenodd" d="M 41.9682 6.72673C 41.3871 11.8323 40.6457 18.3457 40.6486 26.1096C 40.6367 30.8907 42.2718 35.9625 44.0115 40.3717C 44.6582 42.0117 45.3162 43.5428 45.9042 44.9114C 46.1054 45.3795 46.2984 45.8286 46.48 46.2566C 47.1731 47.8904 47.7567 49.3389 47.9206 50.322C 48.713 55.0766 44.9465 58.7715 40.4893 58.7715C 38.4911 58.7641 36.7342 58.4936 34.9584 58.2202C 33.0937 57.9332 31.2082 57.6429 29.0006 57.6507C 27.1397 57.6507 26.3686 57.8981 25.4353 58.1977C 25.325 58.233 25.2125 58.2691 25.0957 58.3057C 23.868 58.6893 22.3653 59.0517 18.9129 59.0517C 14.1654 59.0517 11.7676 58.4092 10.3696 57.8177C 9.71513 58.319 9.13575 58.653 8.46245 58.8401C 7.69939 59.0425 6.86381 59.0517 5.74296 59.0517C 3.17281 59.0517 1.51285 57.9388 0.663589 56.4593C -0.134469 55.0691 -0.185681 53.3823 0.365153 52.2807C 0.774541 51.462 1.46642 50.9282 2.19414 50.567C 2.8899 50.2267 3.73808 49.9875 4.52236 49.8229C 5.04775 49.7132 5.57814 49.6248 6.08122 49.5409C 6.32803 49.4997 6.56828 49.4596 6.79814 49.4187C 7.49369 49.2952 8.03094 49.1835 8.43142 49.0069C 10.0155 48.3304 12.0866 47.7269 14.2319 47.1016C 15.0112 46.8745 15.8003 46.6446 16.5794 46.4072C 19.5442 45.5043 22.2509 44.5236 23.9075 43.2494C 24.3872 42.8803 24.7405 42.2633 24.9416 41.367C 25.156 40.4346 25.1722 39.3881 25.069 38.2089C 24.87 35.8503 24.1803 33.4016 23.5885 31.8051L 10.7087 1.8476L 12.5461 1.05765L 25.4458 31.0615L 25.4546 31.0851C 26.0751 32.7581 26.8367 35.4805 27.0616 38.037C 27.171 39.3211 27.1417 40.6737 26.8931 41.8048C 26.6312 42.9721 26.1042 44.0829 25.1269 44.8346C 23.1407 46.3623 20.0889 47.4291 17.1621 48.3205C 16.3459 48.569 15.5302 48.8062 14.7345 49.0376C 12.6377 49.6475 10.6802 50.2168 9.21921 50.8452C 8.63895 51.0889 7.88022 51.2574 7.14844 51.3878C 6.90227 51.4316 6.65205 51.4732 6.40075 51.5151C 5.90791 51.5971 5.4109 51.6799 4.93206 51.7805C 4.2102 51.931 3.60477 52.0946 3.08335 52.3585C 2.59389 52.6014 2.30502 52.8732 2.15398 53.1752C 1.94254 53.5981 1.88695 54.5731 2.39812 55.4636C 2.85809 56.2649 3.82096 57.0517 5.74296 57.0517C 5.80647 57.0517 5.86821 57.0517 5.92824 57.0517C 6.92768 57.0522 7.45751 57.0524 7.9272 56.913C 8.34998 56.7956 8.77819 56.5558 9.58622 55.8825L 10.0886 55.4638L 10.6736 55.7563C 11.6228 56.2308 13.6467 57.0517 18.9129 57.0517C 22.1857 57.0517 23.4851 56.7136 24.4991 56.3967C 24.6093 56.3623 24.7178 56.3275 24.8262 56.2928C 25.8352 55.9696 26.8309 55.6507 29.0006 55.6507C 31.4276 55.6586 33.427 55.9668 35.316 56.258C 37.0515 56.5255 38.6939 56.7787 40.4893 56.7715C 43.878 56.7715 46.5105 54.0267 45.9478 50.6509C 45.8314 49.9529 45.3642 48.7475 44.6388 47.0377C 44.4601 46.6166 44.2692 46.1721 44.0693 45.7068C 43.4791 44.3332 42.8109 42.7782 42.151 41.1056C 40.3881 36.6346 38.6606 31.1992 38.6486 26.1096C 38.6516 18.1944 39.4024 11.5985 39.9832 6.49625C 40.2728 3.95239 40.5202 1.77978 40.6115 0L 42.6088 0.103317C 42.513 1.94052 42.2609 4.15503 41.9682 6.72673Z"/>
</defs>
</svg>
