<svg viewBox="0 0 56 56" version="1.1" xmlns="http://www.w3.org/2000/svg" xmlns:xlink="http://www.w3.org/1999/xlink">
<title>ill_handbesvar</title>
<desc>Created using Figma</desc>
<g id="Canvas" transform="translate(138 101)">
<g id="ill_handbesvar">
<clipPath id="clip-0" clip-rule="evenodd">
<path d="M -138 -101L -82 -101L -82 -45L -138 -45L -138 -101Z" fill="#FFFFFF"/>
</clipPath>
<g id="Group 37" clip-path="url(#clip-0)">
<g id="Union">
<use xlink:href="#path0_fill" transform="translate(-137 -86)" fill="#283D46"/>
</g>
<g id="Union">
<use xlink:href="#path1_fill" transform="translate(-115.208 -100)" fill="#283D46"/>
</g>
</g>
</g>
</g>
<defs>
<path id="path0_fill" fill-rule="evenodd" d="M 13.5 0C 11.9429 0 10.6232 1.01685 10.1689 2.42276C 9.67284 2.15315 9.10431 2 8.5 2C 6.56702 2 5 3.567 5 5.5L 5 6.33681C 4.54536 6.12085 4.0368 6 3.5 6C 1.56702 6 0 7.567 0 9.5L 0 26.5C 9.15527e-05 26.5521 0.00161743 26.6129 0.00413513 26.6685C 0.00144958 26.7776 1.52588e-05 26.8914 0 27C 0 33.5356 4.83731 39 11 39C 14.881 39 18.2558 36.8143 20.2031 33.5768L 32.4168 21.407L 31.7058 20.6987C 29.5641 18.5646 26.093 18.5646 23.9512 20.6986L 23.327 21.3206C 22.8271 21.6117 22.4699 21.6937 22.2358 21.6943C 22.1354 21.7017 22.0618 21.7022 22 21.6909L 22 4.5C 22 2.567 20.433 1 18.5 1C 17.7434 1 17.0429 1.24005 16.4705 1.64814C 15.8522 0.658417 14.753 0 13.5 0ZM 8.5 4C 9.32843 4 10 4.67157 10 5.5L 10 18L 12 18L 12 3.5C 12 2.67157 12.6716 2 13.5 2C 14.3284 2 15 2.67157 15 3.5L 15 18L 17 18L 17 4.5C 17 3.67157 17.6716 3 18.5 3C 19.3284 3 20 3.67157 20 4.5L 20 22.6446L 20.321 22.9415C 20.7923 23.3577 21.5483 23.6752 22.2404 23.6942C 22.9713 23.6926 23.7197 23.4277 24.4691 22.9678L 24.5689 22.9066L 25.3629 22.1154C 26.4771 21.0052 28.1589 20.8037 29.4791 21.5108L 18.6107 32.3401L 18.5454 32.4514C 16.921 35.2197 14.1279 37 11 37C 6.117 37 2 32.6147 2 27C 1.99997 26.8919 2.00139 26.7913 2.00439 26.684L 2.00565 26.6393L 2.00291 26.5947C 2.00055 26.5583 1.99988 26.5369 2 26.5L 2 9.5C 2 8.67157 2.67157 8 3.5 8C 4.32843 8 5 8.67157 5 9.5L 5 18L 7 18L 7 5.5C 7 4.67157 7.67157 4 8.5 4Z"/>
<path id="path1_fill" fill-rule="evenodd" d="M 18.9168 0C 20.4739 0 21.7935 1.01685 22.2479 2.42276C 22.7439 2.15315 23.3125 2 23.9168 2C 25.8498 2 27.4168 3.567 27.4168 5.5L 27.4168 6.33681C 27.8714 6.12085 28.38 6 28.9168 6C 30.8498 6 32.4168 7.567 32.4168 9.5L 32.4168 26.5C 32.4167 26.5521 32.4152 26.6129 32.4126 26.6685C 32.4153 26.7776 32.4168 26.8914 32.4168 27C 32.4168 33.5356 27.5795 39 21.4168 39C 17.5358 39 14.161 36.8143 12.2137 33.5768L 0 21.407L 0.71093 20.6987C 2.85272 18.5646 6.32375 18.5646 8.46555 20.6986L 9.08975 21.3206C 9.58963 21.6117 9.94687 21.6937 10.1809 21.6943C 10.2814 21.7017 10.355 21.7022 10.4168 21.6909L 10.4168 4.5C 10.4168 2.567 11.9838 1 13.9168 1C 14.6733 1 15.3738 1.24005 15.9463 1.64814C 16.5646 0.658417 17.6638 0 18.9168 0ZM 23.9168 4C 23.0883 4 22.4168 4.67157 22.4168 5.5L 22.4168 18L 20.4168 18L 20.4168 3.5C 20.4168 2.67157 19.7452 2 18.9168 2C 18.0883 2 17.4168 2.67157 17.4168 3.5L 17.4168 18L 15.4168 18L 15.4168 4.5C 15.4168 3.67157 14.7452 3 13.9168 3C 13.0883 3 12.4168 3.67157 12.4168 4.5L 12.4168 22.6446L 12.0958 22.9415C 11.6245 23.3577 10.8685 23.6752 10.1763 23.6942C 9.44543 23.6926 8.69711 23.4277 7.94771 22.9678L 7.84791 22.9066L 7.05389 22.1154C 5.9397 21.0052 4.25792 20.8037 2.93765 21.5108L 13.8061 32.3401L 13.8714 32.4514C 15.4958 35.2197 18.2888 37 21.4168 37C 26.2998 37 30.4168 32.6147 30.4168 27C 30.4168 26.8919 30.4154 26.7913 30.4124 26.684L 30.4111 26.6393L 30.4139 26.5947C 30.4162 26.5583 30.4169 26.5369 30.4168 26.5L 30.4168 9.5C 30.4168 8.67157 29.7452 8 28.9168 8C 28.0883 8 27.4168 8.67157 27.4168 9.5L 27.4168 18L 25.4168 18L 25.4168 5.5C 25.4168 4.67157 24.7452 4 23.9168 4Z"/>
</defs>
</svg>
