<svg viewBox="0 0 56 56" xmlns="http://www.w3.org/2000/svg" xmlns:xlink="http://www.w3.org/1999/xlink">
  <g transform="translate(-15 24)">
    <clipPath id="a" clip-rule="evenodd">
      <path d="M15-24h56v56H15v-56z" fill="#FFF"/>
    </clipPath>
    <g clip-path="url(#a)">
      <use xlink:href="#path0_fill" transform="translate(17.86 .446)" fill="#283D46"/>
      <use xlink:href="#path1_stroke" transform="translate(19.798 -20)" fill="#283D46"/>
      <g transform="translate(18.899 -17.78)" fill="#283D46">
        <use xlink:href="#path2_fill"/>
        <use xlink:href="#path3_fill"/>
        <use xlink:href="#path4_stroke"/>
      </g>
      <use xlink:href="#path5_fill" transform="translate(31.814 -15.5)" fill="#FF383B"/>
      <use xlink:href="#path6_fill" transform="translate(28 6)" fill="#283D46"/>
      <use xlink:href="#path6_fill" transform="translate(44 6)" fill="#283D46"/>
    </g>
    <use xlink:href="#path7_fill" transform="translate(56 17)" fill="#283D46"/>
  </g>
  <defs>
    <path id="path0_fill" fill-rule="evenodd" d="M4.105 5.07c-.241-1.277-.663-2.368-1.131-3.102-.48-.75-.936-1.031-1.279-.966-.343.065-.665.493-.836 1.367-.168.854-.16 2.024.08 3.3.242 1.276.664 2.367 1.132 3.1.48.752.936 1.032 1.279.967.343-.065.665-.493.836-1.367.168-.854.16-2.024-.08-3.3zM1.51.02c.73-.14 1.45.484 2.008 1.358.568.891 1.042 2.147 1.309 3.555.266 1.407.285 2.749.082 3.786-.199 1.018-.642 1.861-1.372 2-.73.138-1.45-.485-2.008-1.359C.96 8.469.486 7.213.219 5.805-.047 4.398-.066 3.056.137 2.02.336 1 .779.158 1.509.019zm38.508 5.05c.241-1.277.663-2.368 1.131-3.102.48-.75.936-1.031 1.279-.966.343.065.666.493.837 1.367.167.854.16 2.024-.082 3.3-.242 1.276-.663 2.367-1.131 3.1-.48.752-.936 1.032-1.279.967-.343-.065-.666-.493-.837-1.367-.167-.854-.16-2.024.082-3.3zM42.613.02c-.73-.14-1.45.484-2.008 1.358-.568.891-1.042 2.147-1.309 3.555-.266 1.407-.285 2.749-.082 3.786.199 1.018.642 1.861 1.372 2 .73.138 1.45-.485 2.008-1.359.569-.891 1.042-2.147 1.309-3.555.266-1.407.285-2.749.082-3.786-.199-1.018-.642-1.861-1.372-2z"/>
    <path id="path1_stroke" d="M37.423 26.688l-.83-.559-.232.345.08.409.982-.195zm-34.39 0l.98.195.081-.409-.232-.345-.83.559zm13.672 20.61l.783-.622-.226-.286-.357-.072-.2.98zm7.045 0l-.2-.98-.357.072-.226.286.783.621zm15.705-30.44c.013 3.449-1.008 6.536-2.862 9.271l1.659 1.118c1.991-2.974 3.19-6.623 3.203-10.39h-2zM20.228 1c10.84 0 19.227 6.304 19.227 15.858h2C41.455 5.805 31.731-1 20.228-1v2zM1 16.858C1 7.304 9.388 1 20.228 1v-2C8.724-1-1 5.805-1 16.858h2zm2.862 9.271C2.008 23.394.987 20.307 1 16.858h-2c.013 3.766 1.212 7.415 3.203 10.389l1.659-1.118zm-1.81.364a19.065 19.065 0 0 0-.355 3.626h2a16.196 16.196 0 0 1 .316-3.236l-1.961-.39zm-.355 3.626c0 8.96 6.358 16.434 14.808 18.158l.4-1.96C9.368 44.78 3.697 38.112 3.697 30.12h-2zm14.225 17.8A5.487 5.487 0 0 0 20.228 50v-2a3.486 3.486 0 0 1-2.74-1.324l-1.566 1.243zM20.228 50c1.745 0 3.3-.815 4.305-2.081l-1.566-1.243A3.487 3.487 0 0 1 20.227 48v2zm3.722-1.723c8.45-1.724 14.808-9.197 14.808-18.158h-2c0 7.992-5.67 14.66-13.208 16.199l.4 1.96zM38.758 30.12a19.07 19.07 0 0 0-.355-3.626l-1.961.39c.212 1.062.317 2.112.316 3.236h2z"/>
    <path id="path2_fill" d="M32.806 1.873l.457 6.92c1.798.974 5.394 3.776 5.394 7.193v7.867c1.424-2.622 4.225-9.755 3.147-13.711C40.78 6.387 38.077 2.56 35.262.345c-1.142-.898-2.552.078-2.456 1.528z"/>
    <path id="path3_fill" d="M9 2.27l-.218 6.523c-1.798.974-5.394 3.776-5.394 7.193v7.867C1.965 21.23-.837 14.098.242 10.142 1.268 6.377 3.782 2.83 6.512.756 7.646-.106 9.048.846 9 2.27z"/>
    <path id="path4_stroke" d="M33.263 8.793l-.499.033.018.276.243.13.238-.439zm-.457-6.92l.498-.033-.498.033zm5.851 21.98h-.5l.94.238-.44-.238zm3.147-13.711l.482-.132-.482.132zM35.262.345l-.31.393.31-.393zM8.782 8.793l.238.44.252-.137.01-.286-.5-.017zm.219-6.523l.5.017L9 2.27zM3.388 23.853l-.44.238.94-.238h-.5zM.242 10.142l-.483-.132.483.132zM6.512.756L6.209.358l.303.398zm27.25 8.004l-.458-6.92-.997.066.457 6.92.998-.066zm5.395 7.226c0-1.884-.988-3.554-2.15-4.847-1.165-1.29-2.582-2.284-3.506-2.785l-.476.879a12.702 12.702 0 0 1 3.238 2.575c1.084 1.206 1.894 2.646 1.894 4.178h1zm0 7.867v-7.867h-1v7.867h1zm2.164-13.58c.5 1.836.108 4.492-.633 7.087-.734 2.575-1.769 4.963-2.47 6.254l.879.477c.721-1.33 1.799-3.82 2.553-6.456.746-2.616 1.214-5.504.636-7.625l-.965.264zM34.953.739c2.737 2.153 5.374 5.89 6.368 9.536l.965-.264c-1.054-3.866-3.821-7.782-6.715-10.058l-.618.786zm-1.65 1.101c-.036-.555.215-.983.537-1.192.307-.198.711-.225 1.111.09l.619-.786c-.742-.583-1.614-.57-2.273-.143-.644.417-1.05 1.201-.991 2.097l.997-.066zM9.282 8.81L9.5 2.287l-.999-.034-.219 6.524 1 .033zm-5.394 7.176c0-1.532.81-2.972 1.894-4.178A12.702 12.702 0 0 1 9.02 9.233l-.476-.88c-.924.502-2.34 1.497-3.505 2.786-1.163 1.293-2.151 2.963-2.151 4.847h1zm0 7.867v-7.867h-1v7.867h1zM-.241 10.01c-.578 2.12-.11 5.009.637 7.625.753 2.636 1.83 5.126 2.553 6.456l.878-.477c-.701-1.291-1.736-3.68-2.47-6.254-.74-2.595-1.134-5.25-.633-7.086l-.965-.264zM6.21.358C3.394 2.498.815 6.137-.241 10.01l.965.264c.997-3.657 3.447-7.111 6.09-9.12L6.21.358zM9.5 2.287C9.53 1.405 9.11.64 8.467.233 7.81-.183 6.948-.204 6.21.358l.605.796c.395-.3.802-.276 1.118-.076.33.21.587.633.569 1.175l1 .034z"/>
    <path id="path5_fill" fill-rule="evenodd" d="M.371 2.257c2.414-.965 9.286-2.268 15.646.007l.337-.942C9.714-1.053 2.586.294 0 1.33l.371.928zm0 3.032c2.414-.965 9.286-2.268 15.646.007l.337-.942C9.714 1.98 2.586 3.327 0 4.361l.371.928z"/>
    <path id="path6_fill" d="M0 0h8v1H0V0z"/>
    <path id="path7_fill" fill-rule="evenodd" d="M13 6h2V0H9v2h2.628L8.565 5.064A5.455 5.455 0 1 0 9.97 6.486L13 3.456V6zM8.91 9.545a3.455 3.455 0 1 1-6.91 0 3.455 3.455 0 0 1 6.91 0z"/>
  </defs>
</svg>
