<svg viewBox="0 0 56 56" version="1.1" xmlns="http://www.w3.org/2000/svg" xmlns:xlink="http://www.w3.org/1999/xlink">
<title>ill_hosta</title>
<desc>Created using Figma</desc>
<g id="Canvas" transform="translate(-90 332)">
<g id="ill_hosta">
<g id="Group 61">
<g id="Vector (Stroke)">
<use xlink:href="#path0_fill" transform="translate(96.9396 -329.997)" fill="#2F424A"/>
</g>
<g id="Vector 2 (Stroke)">
<use xlink:href="#path1_fill" transform="matrix(0.965926 0.258819 -0.258819 0.965926 114.544 -311.075)" fill="#2F424A"/>
</g>
<g id="Union">
<use xlink:href="#path2_fill" transform="translate(124.777 -298.99)" fill="#FF383B"/>
</g>
<g id="Union">
<use xlink:href="#path3_fill" transform="translate(124 -290.669)" fill="#FF383B"/>
</g>
<g id="Vector">
<use xlink:href="#path4_fill" transform="matrix(-1 1.38778e-16 1.38778e-16 1 106 -287)" fill="#FF383B"/>
</g>
</g>
</g>
</g>
<defs>
<path id="path0_fill" fill-rule="evenodd" d="M 0.62338 2.19444C 0.452007 2.205 0.284382 2.21532 0.120756 2.22522L 0 0.228866C 0.132219 0.220869 0.267548 0.212586 0.405832 0.204121C 3.2701 0.0287954 7.40203 -0.224125 11.4235 0.386531C 15.6486 1.0345 19.9601 2.67697 22.5553 6.59106C 23.8787 8.58686 24.4894 11.5771 24.7871 13.9266C 24.9383 15.1233 25.0154 16.2192 25.053 16.995C 25.0719 17.3867 25.0816 17.7095 25.0863 17.9274C 25.0873 17.975 25.0881 18.0185 25.0888 18.0572L 30.2469 29.2895C 30.7722 30.4333 30.123 31.7721 28.8997 32.0681L 25.0911 32.9896L 25.0911 35.5351L 22.5258 37.2279L 24.0604 39.1461L 24.0604 39.4969C 24.0604 40.6654 23.7151 42.2975 22.6327 43.6605C 21.5162 45.0663 19.6973 46.0802 16.9835 46.0802L 15.2758 46.0802L 15.2758 50.9969L 13.2758 50.9969L 13.2758 44.0802L 16.9835 44.0802C 19.1435 44.0802 20.3631 43.3024 21.0665 42.4166C 21.7097 41.6068 21.9868 40.6216 22.0473 39.8313L 19.5949 36.7658L 23.0911 34.4587L 23.0911 31.4158L 28.4294 30.1242L 23.0911 18.4997L 23.0911 18.2813L 23.0911 18.278L 23.0911 18.2643L 23.0906 18.2055C 23.0901 18.1511 23.089 18.0737 23.0868 17.9707C 23.0822 17.761 23.0734 17.4649 23.0553 17.0917C 23.0189 16.3374 22.9479 15.319 22.8029 14.178C 22.5083 11.8521 21.9344 9.27367 20.8885 7.6963C 18.7453 4.46406 15.1029 2.9742 11.1203 2.36342C 7.35483 1.77992 3.47148 2.01906 0.62338 2.19444Z"/>
<path id="path1_fill" fill-rule="evenodd" d="M 3.8394 2.46424L 0 0.928477L 0.371391 0L 5.37139 2L 5.37139 2.92848L 0.371391 4.92848L 0 4L 3.8394 2.46424Z"/>
<path id="path2_fill" d="M 9.15508 8.84205L 0 6.38895L 0.52153 4.4426L 9.87633 6.94923L 9.87418 6.95728C 9.89888 6.96201 9.92358 6.96632 9.94829 6.97028L 9.95155 6.97117C 11.1998 7.16947 12.4214 6.39597 12.7557 5.14817C 13.1131 3.81449 12.3216 2.44364 10.988 2.08628C 10.0396 1.83216 9.07236 2.159 8.46419 2.84867L 6.41499 2.2996C 7.39685 0.545661 9.47516 -0.389611 11.5056 0.154456C 13.9062 0.797675 15.3308 3.2652 14.6876 5.66581C 14.0604 8.00657 11.6987 9.41944 9.35574 8.89204L 9.3548 8.89558L 9.19742 8.8534C 9.19035 8.85154 9.1833 8.84968 9.17624 8.84778C 9.16917 8.84589 9.16212 8.84397 9.15508 8.84205Z"/>
<path id="path3_fill" d="M 6.76146 2.77768L 6.76071 2.78046C 6.79805 2.78848 6.83546 2.79752 6.87292 2.80756C 8.03609 3.11923 8.67535 4.25403 8.39859 5.28693C 8.12183 6.31982 7.00082 6.98294 5.83765 6.67126C 4.67448 6.35959 4.03522 5.22482 4.31198 4.19193L 3.34605 3.93311C 2.91723 5.53348 3.91688 7.19186 5.57883 7.63718C 7.24078 8.08252 8.93568 7.14612 9.36452 5.54575C 9.79333 3.94534 8.7937 2.28696 7.13174 1.84164C 7.09769 1.83252 7.06361 1.82397 7.02954 1.81601L 7.03125 1.81348L 0.25882 0L 0 0.965942L 6.76146 2.77768Z"/>
<path id="path4_fill" d="M 0 3.5L 9 0L 9 7L 0 3.5Z"/>
</defs>
</svg>
