<svg viewBox="0 0 56 56" version="1.1" xmlns="http://www.w3.org/2000/svg" xmlns:xlink="http://www.w3.org/1999/xlink">
<title>ill_hudbesvar</title>
<desc>Created using Figma</desc>
<g id="Canvas" transform="translate(138 333)">
<g id="ill_hudbesvar">
<g id="Group">
<g id="hand">
<use xlink:href="#path0_fill" transform="translate(-132.484 -331)" fill="#283D46"/>
</g>
<g id="hurt">
<use xlink:href="#path1_fill" transform="translate(-113 -304)" fill="#FF383B"/>
<use xlink:href="#path2_fill" transform="translate(-113 -304)" fill="#FF383B"/>
</g>
</g>
</g>
</g>
<defs>
<path id="path0_fill" fill-rule="evenodd" d="M 25.4841 0C 27.541 0 29.2353 1.55255 29.459 3.54974C 30.053 3.20038 30.7451 3 31.4841 3C 33.6932 3 35.4841 4.79086 35.4841 7L 35.4841 7.53513C 36.0724 7.19479 36.7555 7 37.4841 7C 39.6932 7 41.4841 8.79086 41.4841 11L 41.4841 35C 41.484 35.0527 41.4827 35.1133 41.4805 35.1688C 41.4828 35.278 41.484 35.3913 41.4841 35.5C 41.4841 43.4722 35.2513 50 27.4841 50C 23.0091 50 19.0343 47.8258 16.4781 44.4628L 0 28.2094L 0.721771 27.4974C 3.47034 24.7863 7.92101 24.7863 10.6696 27.4974L 11.5413 28.3573C 12.3435 28.827 12.9338 28.9499 13.3451 28.9219C 13.7439 28.8947 14.081 28.7194 14.3858 28.3647C 15.0574 27.5836 15.4841 26.0149 15.4841 24L 15.4841 6C 15.4841 3.79086 17.2749 2 19.4841 2C 20.3074 2 21.0726 2.24875 21.7087 2.67517C 22.2554 1.11713 23.7393 0 25.4841 0ZM 23.4841 4C 23.4841 2.89542 24.3795 2 25.4841 2C 26.5886 2 27.4841 2.89542 27.4841 4L 27.4841 24L 29.4841 24L 29.4841 7C 29.4841 5.89542 30.3795 5 31.4841 5C 32.5886 5 33.4841 5.89542 33.4841 7L 33.4841 24L 35.4841 24L 35.4841 11C 35.4841 9.89542 36.3795 9 37.4841 9C 38.5886 9 39.4841 9.89542 39.4841 11L 39.4841 35C 39.4841 35.04 39.4834 35.0667 39.4813 35.1062L 39.4793 35.1441L 39.4803 35.182C 39.4828 35.2897 39.4841 35.3916 39.4841 35.5C 39.4841 42.4395 34.0762 48 27.4841 48C 23.6552 48 20.2351 46.1317 18.0312 43.2008L 17.9868 43.1418L 2.9212 28.2816C 4.87977 27.009 7.54253 27.2222 9.26509 28.9213L 10.306 29.948L 10.4058 30.0087C 11.4735 30.6573 12.5068 30.9837 13.4813 30.9172C 14.4847 30.8488 15.2975 30.3723 15.9025 29.6685C 17.0507 28.3328 17.4841 26.1583 17.4841 24L 17.4841 6C 17.4841 4.89542 18.3795 4 19.4841 4C 20.5886 4 21.4841 4.89542 21.4841 6L 21.4841 24L 23.4841 24L 23.4841 4Z"/>
<path id="path1_fill" d="M 15.4 8L 17 6.39999L 14.6 4L 17 1.60001L 15.4 0L 13 2.39999L 10.6 0L 9 1.60001L 11.4 4L 9 6.39999L 10.6 8L 13 5.60001L 15.4 8Z"/>
<path id="path2_fill" d="M 8 12.4L 6.4 14L 4 11.6L 1.6 14L 0 12.4L 2.39999 10L 0 7.60001L 1.6 6L 4 8.39999L 6.4 6L 8 7.60001L 5.60001 10L 8 12.4Z"/>
</defs>
</svg>
