<svg viewBox="0 0 56 56" version="1.1" xmlns="http://www.w3.org/2000/svg" xmlns:xlink="http://www.w3.org/1999/xlink">
<title>ill_huvudvark</title>
<desc>Created using Figma</desc>
<g id="Canvas" transform="translate(-166 332)">
<g id="ill_huvudvark">
<clipPath id="clip-0" clip-rule="evenodd">
<path d="M 166 -332L 222 -332L 222 -276L 166 -276L 166 -332Z" fill="#FFFFFF"/>
</clipPath>
<g id="Group 17" clip-path="url(#clip-0)">
<g id="Vector (Stroke)">
<use xlink:href="#path0_fill" transform="matrix(-1 0 0 1 210.845 -329.997)" fill="#2F424A"/>
</g>
<g id="Ellipse 3 (Stroke)">
<use xlink:href="#path1_fill" transform="translate(179 -326)" fill="#FF383B"/>
</g>
<g id="Ellipse 3.1 (Stroke)">
<use xlink:href="#path2_fill" transform="translate(174 -331)" fill="#FF383B"/>
</g>
</g>
</g>
</g>
<defs>
<path id="path0_fill" fill-rule="evenodd" d="M 0.62338 2.19444C 0.452007 2.205 0.284382 2.21532 0.120756 2.22522L 0 0.228866C 0.132219 0.220869 0.267548 0.212586 0.405832 0.204121C 3.2701 0.0287954 7.40203 -0.224125 11.4235 0.386531C 15.6486 1.0345 19.9601 2.67697 22.5553 6.59106C 23.8787 8.58686 24.4894 11.5771 24.7871 13.9266C 24.9383 15.1233 25.0154 16.2192 25.053 16.995C 25.0719 17.3867 25.0816 17.7095 25.0863 17.9274C 25.0873 17.975 25.0881 18.0185 25.0888 18.0572L 30.2469 29.2895C 30.7722 30.4333 30.123 31.7721 28.8997 32.0681L 25.0911 32.9896L 25.0911 38.1919L 25.0807 38.2637C 24.8961 39.5052 24.248 41.4861 23.0281 43.083C 21.753 44.7261 19.7888 46.0802 16.9835 46.0802L 15.2758 46.0802L 15.2758 50.9969L 13.2758 50.9969L 13.2758 44.0802L 16.9835 44.0802C 19.052 44.0802 20.4724 43.114 21.4481 41.8568C 22.4565 40.5816 22.9271 39.1188 23.0911 38.0459L 23.0911 31.4158L 28.4294 30.1242L 23.0911 18.4997L 23.0911 18.2813L 23.0911 18.278L 23.0911 18.2643L 23.0906 18.2055C 23.0901 18.1511 23.089 18.0737 23.0868 17.9707C 23.0822 17.761 23.0734 17.4649 23.0553 17.0917C 23.0189 16.3374 22.9479 15.319 22.8029 14.178C 22.5083 11.8521 21.9344 9.27367 20.8885 7.6963C 18.7453 4.46406 15.1029 2.9742 11.1203 2.36342C 7.35483 1.77992 3.47148 2.01906 0.62338 2.19444Z"/>
<path id="path1_fill" fill-rule="evenodd" d="M 8 14C 11.3137 14 14 11.3137 14 8C 14 4.68629 11.3137 2 8 2C 4.68629 2 2 4.68629 2 8C 2 11.3137 4.68629 14 8 14ZM 8 16C 12.4183 16 16 12.4183 16 8C 16 3.58172 12.4183 0 8 0C 3.58172 0 0 3.58172 0 8C 0 12.4183 3.58172 16 8 16Z"/>
<path id="path2_fill" fill-rule="evenodd" d="M 25.9605 14.021L 24.9635 13.9435C 24.9884 13.6258 25.0002 13.324 25 13C 25.0002 12.676 24.9884 12.3742 24.9635 12.0565L 25.9605 11.979C 25.9867 12.3159 26 12.6564 26 13C 26 13.3436 25.9867 13.6841 25.9605 14.021ZM 25.6436 9.9639L 24.671 10.1966C 24.5213 9.5673 24.3343 8.99433 24.0898 8.40681L 25.0136 8.02376C 25.2722 8.64746 25.4837 9.29565 25.6436 9.9639ZM 24.086 6.20672L 23.2338 6.73002C 22.8979 6.18148 22.5422 5.69331 22.1254 5.20688L 22.8855 4.55708C 23.327 5.07353 23.7288 5.62499 24.086 6.20672ZM 21.4429 3.11448L 20.7931 3.87459C 20.3067 3.45775 19.8185 3.10209 19.27 2.76615L 19.7933 1.914C 20.375 2.27124 20.9265 2.67298 21.4429 3.11448ZM 17.9762 0.986447L 17.5932 1.91017C 17.0057 1.66572 16.4327 1.47872 15.8034 1.329L 16.0361 0.356446C 16.7043 0.516326 17.3525 0.727809 17.9762 0.986447ZM 14.021 0.0395024L 13.9435 1.0365C 13.6258 1.01163 13.324 0.999809 13 1C 12.676 0.999809 12.3742 1.01163 12.0565 1.0365L 11.979 0.0395023C 12.3159 0.0133304 12.6564 0 13 0C 13.3436 0 13.6841 0.0133304 14.021 0.0395024ZM 9.9639 0.356446L 10.1966 1.329C 9.5673 1.47872 8.99433 1.66572 8.40681 1.91017L 8.02376 0.986447C 8.64746 0.727809 9.29565 0.516326 9.9639 0.356446ZM 6.20672 1.914L 6.73002 2.76615C 6.18148 3.10209 5.69331 3.45775 5.20688 3.87459L 4.55708 3.11448C 5.07353 2.67298 5.62499 2.27124 6.20672 1.914ZM 3.11448 4.55708L 3.87459 5.20688C 3.45775 5.69331 3.10209 6.18148 2.76615 6.73002L 1.914 6.20672C 2.27124 5.62499 2.67298 5.07353 3.11448 4.55708ZM 0.986447 8.02376L 1.91017 8.40681C 1.66572 8.99433 1.47872 9.5673 1.329 10.1966L 0.356446 9.9639C 0.516326 9.29565 0.727809 8.64746 0.986447 8.02376ZM 0.0395024 11.979C 0.0133304 12.3159 0 12.6564 0 13C 0 13.3436 0.0133304 13.6841 0.0395023 14.021L 1.0365 13.9435C 1.01163 13.6258 0.999809 13.324 1 13C 0.999809 12.676 1.01163 12.3742 1.0365 12.0565L 0.0395024 11.979ZM 0.356446 16.0361L 1.329 15.8034C 1.47872 16.4327 1.66572 17.0057 1.91017 17.5932L 0.986447 17.9762C 0.727809 17.3525 0.516326 16.7043 0.356446 16.0361ZM 1.914 19.7933L 2.76615 19.27C 3.10209 19.8185 3.45775 20.3067 3.87459 20.7931L 3.11448 21.4429C 2.67298 20.9265 2.27124 20.375 1.914 19.7933ZM 4.55708 22.8855L 5.20688 22.1254C 5.69331 22.5422 6.18148 22.8979 6.73002 23.2338L 6.20672 24.086C 5.62499 23.7288 5.07353 23.327 4.55708 22.8855ZM 8.02376 25.0136L 8.40681 24.0898C 8.99433 24.3343 9.5673 24.5213 10.1966 24.671L 9.9639 25.6436C 9.29565 25.4837 8.64746 25.2722 8.02376 25.0136ZM 11.979 25.9605L 12.0565 24.9635C 12.3742 24.9884 12.676 25.0002 13 25C 13.324 25.0002 13.6258 24.9884 13.9435 24.9635L 14.021 25.9605C 13.6841 25.9867 13.3436 26 13 26C 12.6564 26 12.3159 25.9867 11.979 25.9605ZM 16.0361 25.6436L 15.8034 24.671C 16.4327 24.5213 17.0057 24.3343 17.5932 24.0898L 17.9762 25.0136C 17.3525 25.2722 16.7043 25.4837 16.0361 25.6436ZM 19.7933 24.086L 19.27 23.2338C 19.8185 22.8979 20.3067 22.5422 20.7931 22.1254L 21.4429 22.8855C 20.9265 23.327 20.375 23.7288 19.7933 24.086ZM 22.8855 21.4429L 22.1254 20.7931C 22.5422 20.3067 22.8979 19.8185 23.2338 19.27L 24.086 19.7933C 23.7288 20.375 23.327 20.9265 22.8855 21.4429ZM 25.0136 17.9762L 24.0898 17.5932C 24.3343 17.0057 24.5213 16.4327 24.671 15.8034L 25.6436 16.0361C 25.4837 16.7043 25.2722 17.3525 25.0136 17.9762Z"/>
</defs>
</svg>
