<svg viewBox="0 0 56 56" version="1.1" xmlns="http://www.w3.org/2000/svg" xmlns:xlink="http://www.w3.org/1999/xlink">
<title>ill_illaluktande_flytningar</title>
<desc>Created using Figma</desc>
<g id="Canvas" transform="translate(-91 101)">
<g id="ill_illaluktande_flytningar">
<clipPath id="clip-0" clip-rule="evenodd">
<path d="M 91 -101L 147 -101L 147 -45L 91 -45L 91 -101Z" fill="#FFFFFF"/>
</clipPath>
<g id="Group 40" clip-path="url(#clip-0)">
<g id="Union">
<use xlink:href="#path0_fill" transform="translate(91.1367 -88)" fill="#283D46"/>
</g>
<g id="Union">
<use xlink:href="#path1_fill" transform="translate(91 -63)" fill="#FF383B"/>
</g>
</g>
<g id="female">
<use xlink:href="#path2_fill" transform="translate(136.091 -63)" fill="#283D46"/>
</g>
</g>
</g>
<defs>
<path id="path0_fill" fill-rule="evenodd" d="M 51.0377 1.933C 51.3087 2.13706 51.8051 2.60506 51.8446 3.33908C 52.409 3.51592 52.8868 3.93999 53.1137 4.52822L 55.5926 10.9542C 55.8634 11.6562 55.7173 12.4508 55.2144 13.0105C 54.7116 13.5703 53.9372 13.8004 53.2103 13.6062C 52.5891 13.4402 51.9311 13.3336 51.2454 13.2868C 48.5101 14.2841 45.072 16.0508 41.7572 18.654C 37.1943 22.2338 32.9347 27.3024 31.0048 34.1367L 30.7181 34.0552C 30.3503 34.465 29.817 34.72 29.229 34.72L 26.4977 34.72C 25.7873 34.72 25.1536 34.3471 24.7981 33.7747L 24.4483 33.8741C 22.5183 27.0395 18.3272 22.0369 13.8334 18.5232C 10.5825 15.9788 7.20812 14.2628 4.50053 13.2855C 3.80791 13.3316 3.14336 13.4386 2.51639 13.6062C 1.78947 13.8004 1.01502 13.5703 0.512199 13.0105C 0.00936842 12.4508 -0.136742 11.6562 0.134063 10.9542L 2.61295 4.52822C 2.83988 3.93996 3.31772 3.51589 3.88206 3.33906C 3.92159 2.60505 4.41802 2.13706 4.68898 1.933C 4.9158 1.77287 5.29083 1.57977 5.54109 1.48312C 5.95619 1.33206 6.57956 1.17683 7.2027 1.0631C 8.38967 0.849754 10.1148 0.654709 12.1444 0.499107C 16.1706 0.191681 21.7536 0.000335693 27.8633 0C 33.9731 0.000335693 39.5561 0.191681 43.5822 0.499107C 45.6119 0.654709 47.337 0.849754 48.524 1.0631C 49.1471 1.17683 49.7705 1.33206 50.1856 1.48312C 50.4359 1.57977 50.8109 1.77287 51.0377 1.933ZM 2.33099 11.5908C 2.23775 11.5692 2.146 11.5488 2.05577 11.5295L 4.47893 5.24805C 8.82685 6.43725 17.6662 7.25125 27.8633 7.25125C 38.0605 7.25125 46.8998 6.43725 51.2477 5.24805L 53.6709 11.5295C 53.5809 11.5488 53.4893 11.5692 53.3961 11.5909C 52.7637 11.4418 52.1085 11.3432 51.4364 11.2941C 46.7422 10.9517 41.2208 13.0292 36.8421 17.2332C 31.9753 21.9058 29.7777 27.2061 29.229 32.72L 26.4977 32.72C 25.6755 27.2061 23.7514 21.9058 18.8845 17.2332C 14.5058 13.0292 8.98449 10.9517 4.29022 11.2941C 3.61827 11.3432 2.96327 11.4417 2.33099 11.5908ZM 7.47129 13.4384C 9.68098 14.4736 12.0998 15.8965 14.4497 17.7357C 18.0089 20.5241 21.4507 24.3244 23.7485 29.186C 22.7388 25.3997 20.9456 21.9301 17.4994 18.6759C 14.4075 15.7073 10.7919 13.973 7.47129 13.4384ZM 48.319 13.4283C 44.981 13.9509 41.3389 15.6883 38.2272 18.6759C 34.777 21.9443 32.8404 25.3822 31.8776 29.1008C 34.1954 24.3793 37.6115 20.6406 41.1395 17.8675C 43.5614 15.9656 46.0549 14.4926 48.319 13.4283ZM 27.8633 5.25125C 37.3145 5.25125 45.4261 4.54464 49.7953 3.54917C 49.8297 3.51073 49.8471 3.47194 49.8471 3.43283C 49.8471 3.1936 49.1939 2.96604 48.0164 2.76002C 47.5972 2.68668 47.1116 2.61606 46.5654 2.54862C 42.69 2.07015 35.7633 1.75144 27.8633 1.75144C 19.9634 1.75144 13.0367 2.07015 9.16129 2.54862C 8.61507 2.61606 8.12948 2.68668 7.71031 2.76002C 6.5328 2.96604 5.87955 3.1936 5.87955 3.43283C 5.87955 3.47194 5.89701 3.51074 5.93137 3.54919C 10.3007 4.54465 18.4122 5.25125 27.8633 5.25125Z"/>
<path id="path1_fill" d="M 10.5 2C 12.1087 2 13 3.11038 13 4C 13 6.20914 14.7909 8 17 8C 19.2091 8 21 6.20914 21 4L 19 4C 19 5.10457 18.1046 6 17 6C 15.8954 6 15 5.10457 15 4C 15 1.79086 12.9853 0 10.5 0C 8.01472 0 6 1.79086 6 4C 6 5.10457 5.10457 6 4 6C 2.89543 6 2 5.10457 2 4L 0 4C 0 6.20914 1.79086 8 4 8C 6.20914 8 8 6.20914 8 4C 8 3.11038 8.89133 2 10.5 2Z"/>
<path id="path2_fill" fill-rule="evenodd" d="M 4.4545 10.8176C 1.91965 10.3479 0 8.12541 0 5.45454C 0 2.44208 2.44208 0 5.45454 0C 8.467 0 10.9091 2.44208 10.9091 5.45454C 10.9091 8.12544 8.98939 10.348 6.4545 10.8176L 6.4545 13.3134L 8.9545 13.3134L 8.9545 15.3134L 6.4545 15.3134L 6.4545 18L 4.4545 18L 4.4545 15.3134L 1.9545 15.3134L 1.9545 13.3134L 4.4545 13.3134L 4.4545 10.8176ZM 2 5.45454C 2 7.36244 3.54665 8.90909 5.45454 8.90909C 7.36243 8.90909 8.90909 7.36244 8.90909 5.45454C 8.90909 3.54665 7.36243 2 5.45454 2C 3.54665 2 2 3.54665 2 5.45454Z"/>
</defs>
</svg>
