<svg viewBox="0 0 56 56" version="1.1" xmlns="http://www.w3.org/2000/svg" xmlns:xlink="http://www.w3.org/1999/xlink">
<title>ill_insektsbett</title>
<desc>Created using Figma</desc>
<g id="Canvas" transform="translate(214 24)">
<g id="ill_insektsbett">
<g id="Group 60">
<g id="Vector (Stroke)">
<use xlink:href="#path0_fill" transform="translate(-197.965 5.73688)" fill="#FF383B"/>
</g>
<g id="Vector (Stroke)">
<use xlink:href="#path1_fill" transform="translate(-198.9 13.2)" fill="#FF383B"/>
</g>
<g id="Vector (Stroke)">
<use xlink:href="#path2_fill" transform="translate(-180.042 -18.4781)" fill="#283D46"/>
</g>
<g id="Vector 2 (Stroke)">
<use xlink:href="#path3_fill" transform="translate(-198.526 -17.4997)" fill="#283D46"/>
</g>
<g id="Ellipse 4.1 (Stroke)">
<use xlink:href="#path4_fill" transform="matrix(0.867722 0.49705 -0.502956 0.864312 -203.402 -17.2847)" fill="#283D46"/>
</g>
<g id="Line (Stroke)">
<use xlink:href="#path5_fill" transform="matrix(0.780869 0.624695 -0.624695 0.780869 -199.375 -10.7809)" fill="#283D46"/>
</g>
<g id="Vector 3 (Stroke)">
<use xlink:href="#path6_fill" transform="translate(-199.502 1.8467)" fill="#283D46"/>
</g>
<g id="Ellipse 4 (Stroke)">
<use xlink:href="#path7_fill" transform="matrix(0.867722 0.49705 -0.502956 0.864312 -188.275 -6.93966)" fill="#283D46"/>
</g>
<g id="Ellipse 3 (Stroke)">
<use xlink:href="#path8_fill" transform="matrix(0.709885 -0.704318 0.709885 0.704318 -186.864 -6.16831)" fill="#283D46"/>
</g>
<g id="Ellipse 5">
<use xlink:href="#path9_fill" transform="matrix(0.709885 -0.704318 0.709885 0.704318 -180.529 -6.29554)" fill="#283D46"/>
</g>
</g>
</g>
</g>
<defs>
<path id="path0_fill" fill-rule="evenodd" d="M 4.19535 5.99264C 1.83833 4.55994 0.563089 2.59089 0 0.526235L 1.92953 0C 2.36644 1.60201 3.3412 3.13296 5.23418 4.2836C 7.15148 5.44902 10.0771 6.26312 14.4648 6.26312L 14.4648 8.26312C 9.85245 8.26312 6.52804 7.41055 4.19535 5.99264Z"/>
<path id="path1_fill" fill-rule="evenodd" d="M 16.0923 4.76154C 9.86499 7.35625 3.12644 4.76859 0 0.6L 0.8 0C 3.67356 3.83141 9.93501 6.24375 15.7077 3.83846L 16.0923 4.76154Z"/>
<path id="path2_fill" fill-rule="evenodd" d="M 3.44124 0.516733C 5.17186 -0.106326 7.29252 -0.0776161 8.60584 0.144232L 8.26862 2.1156C 7.10286 1.91337 5.50491 1.86575 4.13668 2.39193C 3.45757 2.63801 2.9891 2.92262 2.60332 3.44399C 2.25109 3.89765 2 4.532 2 5.45548L 0 5.45548C 0 4.13984 0.368683 3.06092 1.02358 2.21745C 1.64492 1.44168 2.57093 0.84528 3.44124 0.516733Z"/>
<path id="path3_fill" fill-rule="evenodd" d="M 10.5808 5.6969C 12.5217 8.56887 13.2805 11.7553 13.54 13.0421L 11.5794 13.4373C 11.326 12.1796 10.6906 9.37325 8.9293 6.82494C 7.22041 4.32303 4.48838 2.11651 0 1.99932L 0.052201 0C 5.30916 0.137256 8.58747 2.77852 10.5808 5.6969Z"/>
<path id="path4_fill" fill-rule="evenodd" d="M 0 5.56503C 0 5.56503 4.37623 11.1301 9.77457 11.1301C 15.1729 11.1301 19.5491 8.63851 19.5491 5.56503C 19.5491 2.49155 15.1729 0 9.77457 0C 4.37623 0 0 2.49155 0 5.56503ZM 15.6967 7.76205C 17.1704 6.92302 17.5491 6.0706 17.5491 5.56503C 17.5491 5.05946 17.1704 4.20704 15.6967 3.36801C 14.281 2.56198 12.1914 2 9.77457 2C 7.35776 2 5.26817 2.56198 3.85244 3.36801C 2.85551 3.9356 2.35966 4.50932 2.14317 4.97764C 2.16775 5.00385 2.19319 5.03081 2.21954 5.05855C 2.68572 5.55089 3.29547 6.14675 4.09934 6.77554C 5.731 8.05888 7.73698 9.13006 9.77457 9.13006C 12.1914 9.13006 14.281 8.56808 15.6967 7.76205Z"/>
<path id="path5_fill" fill-rule="evenodd" d="M 12.8062 1L 0 1L 0 0L 12.8062 0L 12.8062 1Z"/>
<path id="path6_fill" fill-rule="evenodd" d="M 2.62807 14.1148L 2.66265 14.2306C 3.91666 18.4284 7.11914 20.5921 11.1737 21.5542C 14.5245 22.369 18.1543 22.2889 21.3399 21.8452C 18.5203 20.6568 16.6031 18.5795 15.6287 15.9986C 14.5161 13.0519 14.704 9.65446 15.8128 6.48351C 15.7763 6.42571 15.7309 6.35779 15.673 6.27354C 15.2913 5.70308 14.7629 5.09414 13.9996 4.41829C 12.4447 3.03069 10.5367 2 8.81507 2C 6.11264 2 4.12124 3.70261 2.96772 6.28584C 1.78541 8.93352 1.72412 12.0403 2.57983 14.0041L 2.62807 14.1148ZM 15.9555 6.76453C 15.9844 6.83888 15.9697 6.82764 15.9512 6.75268C 15.9526 6.75662 15.9541 6.76056 15.9555 6.76453ZM 24.0507 23.4089C 16.5089 24.9356 3.7907 24.9941 0.746324 14.803C -1.49757 9.6533 1.35449 4.35679e-12 8.81507 4.35679e-12C 13.6876 -5.70244e-06 18.2921 5.59779 17.8958 6.61557C 15.5574 12.6205 17.1264 19.0834 24.0507 20.61L 24.0507 23.4089Z"/>
<path id="path7_fill" fill-rule="evenodd" d="M 13.4009 6.80692C 14.6155 6.08857 14.893 5.38256 14.893 4.9958C 14.893 4.60903 14.6155 3.90302 13.4009 3.18467C 12.2308 2.49258 10.4838 2 8.44651 2C 6.40925 2 4.66222 2.49258 3.49209 3.18467C 2.27756 3.90302 2 4.60903 2 4.9958C 2 5.38256 2.27756 6.08857 3.49209 6.80692C 4.66222 7.49901 6.40925 7.99159 8.44651 7.99159C 10.4838 7.99159 12.2308 7.49901 13.4009 6.80692ZM 8.44651 9.99159C 13.1114 9.99159 16.893 7.7549 16.893 4.9958C 16.893 2.23669 13.1114 0 8.44651 0C 3.78163 0 0 2.23669 0 4.9958C 0 7.7549 3.78163 9.99159 8.44651 9.99159Z"/>
<path id="path8_fill" fill-rule="evenodd" d="M 6.82578 12.978C 8.01686 11.4035 9.01857 9.45897 9.01857 7.47585C 9.01857 5.16003 8.4547 3.79203 7.83896 3.04159C 7.25212 2.32635 6.48325 2 5.5996 2C 4.58187 2 3.76016 2.31192 3.18008 2.92818C 2.59213 3.55282 2 4.75888 2 7.04466C 2 8.97353 3.10511 11.0047 4.4749 12.7217C 4.93934 13.3066 5.38903 13.8 5.79477 14.2127C 6.11646 13.8651 6.46495 13.4577 6.82578 12.978ZM 5.82296 16.9635C 5.82296 16.9635 11.0186 12.7157 11.0186 7.47585C 11.0186 2.23598 8.46905 0 5.5996 0C 2.73015 0 0 1.80479 0 7.04466C 0 12.2845 5.82296 16.9635 5.82296 16.9635Z"/>
<path id="path9_fill" d="M 4.8086 2.4043C 4.8086 3.73216 3.73216 4.8086 2.4043 4.8086C 1.07644 4.8086 0 3.73216 0 2.4043C 0 1.07644 1.07644 0 2.4043 0C 3.73216 0 4.8086 1.07644 4.8086 2.4043Z"/>
</defs>
</svg>
