<svg viewBox="0 0 56 56" version="1.1" xmlns="http://www.w3.org/2000/svg" xmlns:xlink="http://www.w3.org/1999/xlink">
<title>ill_magbesvar - nedre</title>
<desc>Created using Figma</desc>
<g id="Canvas" transform="translate(290 258)">
<g id="ill_magbesvar - nedre">
<clipPath id="clip-0" clip-rule="evenodd">
<path d="M -290 -258L -234 -258L -234 -202L -290 -202L -290 -258Z" fill="#FFFFFF"/>
</clipPath>
<g id="Group 19" clip-path="url(#clip-0)">
<g id="Vector">
<use xlink:href="#path0_fill" transform="translate(-279 -268)" fill="#283D46"/>
<use xlink:href="#path1_fill" transform="translate(-279 -268)" fill="#283D46"/>
<use xlink:href="#path2_fill" transform="translate(-279 -268)" fill="#283D46"/>
<use xlink:href="#path3_fill" transform="translate(-279 -268)" fill="#283D46"/>
</g>
<g id="Vector (Stroke)">
<use xlink:href="#path4_fill" transform="translate(-275 -231)" fill="#FF383B"/>
</g>
</g>
</g>
</g>
<defs>
<path id="path0_fill" fill-rule="evenodd" d="M 17 0L 27 0L 27 18C 27 20.8273 25.6963 23.35 23.6573 25L 25 25C 29.9706 25 34 29.0294 34 34C 34 38.9706 29.9706 43 25 43L 23.6573 43C 25.6963 44.65 27 47.1727 27 50L 27 70C 27 72.7614 24.7614 75 22 75C 19.2386 75 17 72.7614 17 70L 17 51L 9 51C 4.02944 51 0 46.9706 0 42C 0 38.5171 1.97845 35.4962 4.8728 34C 1.97845 32.5038 0 29.4829 0 26C 0 21.0294 4.02944 17 9 17L 17 17L 17 0ZM 9 33L 9 35C 5.13401 35 2 38.134 2 42C 2 45.866 5.13401 49 9 49L 19 49L 19 70C 19 71.6569 20.3431 73 22 73C 23.6569 73 25 71.6569 25 70L 25 50C 25 46.134 21.866 43 18 43L 18 41L 25 41C 28.866 41 32 37.866 32 34C 32 30.134 28.866 27 25 27L 18 27L 18 25C 21.866 25 25 21.866 25 18L 25 2L 19 2L 19 19L 9 19C 5.13401 19 2 22.134 2 26C 2 29.866 5.13401 33 9 33Z"/>
<path id="path1_fill" d="M 23 27L 9 27L 9 25L 23 25L 23 27Z"/>
<path id="path2_fill" d="M 9 41L 18 41L 18 43L 9 43L 9 41Z"/>
<path id="path3_fill" d="M 25 33L 9 33L 9 35L 25 35L 25 33Z"/>
<path id="path4_fill" fill-rule="evenodd" d="M 4.34822 0.0422096C 4.55091 0.0162835 4.79 0.000542521 5 0L 5.46429 0L 5.46429 2L 5 2C 4.85587 1.99946 4.74619 2.00673 4.60691 2.02541L 4.34822 0.0422096ZM 6.39286 0L 7.32143 0L 7.32143 2L 6.39286 2L 6.39286 0ZM 8.25 0L 9.17857 0L 9.17857 2L 8.25 2L 8.25 0ZM 10.1071 0L 11.0357 0L 11.0357 2L 10.1071 2L 10.1071 0ZM 11.9643 0L 12.8929 0L 12.8929 2L 11.9643 2L 11.9643 0ZM 13.8214 0L 14.75 0L 14.75 2L 13.8214 2L 13.8214 0ZM 15.6786 0L 16.6071 0L 16.6071 2L 15.6786 2L 15.6786 0ZM 17.5357 0L 18 0L 18 2L 17.5357 2L 17.5357 0ZM 1.95554 1.03348C 2.28295 0.784479 2.6998 0.542277 3.08579 0.379796L 3.8519 2.22725C 3.58752 2.33447 3.39727 2.44529 3.17419 2.61932L 1.95554 1.03348ZM 0.379796 3.08579C 0.542277 2.6998 0.784479 2.28295 1.03348 1.95554L 2.61932 3.17419C 2.44529 3.39727 2.33447 3.58752 2.22725 3.8519L 0.379796 3.08579ZM 0 5C 0.000542521 4.79 0.0162835 4.55091 0.0422096 4.34822L 2.02541 4.60691C 2.00673 4.74619 1.99946 4.85587 2 5C 1.99946 5.14413 2.00673 5.25381 2.02541 5.39309L 0.0422096 5.65178C 0.0162835 5.44909 0.000542521 5.21 0 5ZM 1.03348 8.04446C 0.784479 7.71705 0.542277 7.3002 0.379796 6.91421L 2.22725 6.1481C 2.33447 6.41248 2.44529 6.60273 2.61932 6.82581L 1.03348 8.04446ZM 3.08579 9.6202C 2.6998 9.45772 2.28295 9.21552 1.95554 8.96652L 3.17419 7.38068C 3.39727 7.55471 3.58752 7.66553 3.8519 7.77275L 3.08579 9.6202ZM 5 10C 4.79 9.99946 4.55091 9.98372 4.34822 9.95779L 4.60691 7.97459C 4.74619 7.99327 4.85587 8.00054 5 8L 5.48 8L 5.48 10L 5 10ZM 7.4 10L 6.44 10L 6.44 8L 7.4 8L 7.4 10ZM 9.32 10L 8.36 10L 8.36 8L 9.32 8L 9.32 10ZM 11.24 10L 10.28 10L 10.28 8L 11.24 8L 11.24 10ZM 13.16 10L 12.2 10L 12.2 8L 13.16 8L 13.16 10ZM 14.6 10L 14.12 10L 14.12 8L 14.6 8C 14.7834 8.00054 14.9964 8.01456 15.1734 8.03714L 14.9147 10.0203C 14.8011 10.005 14.7176 9.99946 14.6 10ZM 16.0605 10.4954C 15.8787 10.3531 15.734 10.2687 15.5184 10.1817L 16.2845 8.33427C 16.6218 8.47652 16.9931 8.69225 17.2792 8.90952L 16.0605 10.4954ZM 16.8183 11.4816C 16.7313 11.266 16.6469 11.1213 16.5046 10.9395L 18.0905 9.72081C 18.3078 10.0069 18.5235 10.3782 18.6657 10.7155L 16.8183 11.4816ZM 17 12.4C 17.0005 12.2824 16.995 12.1989 16.9797 12.0853L 18.9629 11.8266C 18.9854 12.0036 18.9995 12.2166 19 12.4L 19 12.9188L 17 12.9188L 17 12.4ZM 17 14.9938L 17 13.9563L 19 13.9563L 19 14.9938L 17 14.9938ZM 17 17.0688L 17 16.0312L 19 16.0312L 19 17.0688L 17 17.0688ZM 17 19.1438L 17 18.1063L 19 18.1063L 19 19.1438L 17 19.1438ZM 17 21.2188L 17 20.1812L 19 20.1812L 19 21.2188L 17 21.2188ZM 17 23.2938L 17 22.2563L 19 22.2563L 19 23.2938L 17 23.2938ZM 17 25.3687L 17 24.3312L 19 24.3312L 19 25.3687L 17 25.3687ZM 17 27.4438L 17 26.4062L 19 26.4062L 19 27.4438L 17 27.4438ZM 17 29L 17 28.4813L 19 28.4813L 19 29L 17 29Z"/>
</defs>
</svg>
