<svg viewBox="0 0 56 56" version="1.1" xmlns="http://www.w3.org/2000/svg" xmlns:xlink="http://www.w3.org/1999/xlink">
<title>ill_magbesvar - ovre</title>
<desc>Created using Figma</desc>
<g id="Canvas" transform="translate(368 260)">
<g id="ill_magbesvar - ovre">
<clipPath id="clip-0" clip-rule="evenodd">
<path d="M -368 -260L -312 -260L -312 -204L -368 -204L -368 -260Z" fill="#FFFFFF"/>
</clipPath>
<g id="Group 18" clip-path="url(#clip-0)">
<g id="Union">
<use xlink:href="#path0_stroke" transform="translate(-364 -265)" fill="#283D46"/>
</g>
<g id="Union">
<use xlink:href="#path1_fill" transform="translate(-357 -223)" fill="#FF383B"/>
</g>
</g>
</g>
</g>
<defs>
<path id="path0_stroke" d="M 15.5 0L 16.4997 0.0226304L 16.5229 -1L 15.5 -1L 15.5 0ZM 8.99999 0L 8.99999 -1L 7.99999 -1L 7.99999 0L 8.99999 0ZM 15 22.0889L 14.0002 22.0662L 13.9809 22.9197L 14.8208 23.0727L 15 22.0889ZM 20.91 31.0551L 21.8959 31.2221L 21.8959 31.2221L 20.91 31.0551ZM 29.8614 36.7446L 29.888 37.7443L 29.888 37.7443L 29.8614 36.7446ZM 36.2328 36.7389L 36.2804 35.7401L 36.2804 35.7401L 36.2328 36.7389ZM 41.984 42.9912L 40.9855 43.0452L 41.0247 43.7694L 41.7252 43.9571L 41.984 42.9912ZM 59.667 47.7293L 60.6329 47.9881L 60.8917 47.0222L 59.9258 46.7634L 59.667 47.7293ZM 58.1141 53.5248L 57.8552 54.4908L 58.8212 54.7496L 59.08 53.7837L 58.1141 53.5248ZM 40.7392 48.8693L 40.998 47.9033L 40.2537 47.7039L 39.8711 48.3728L 40.7392 48.8693ZM 39.7122 50.0662L 39.1741 49.2233L 39.1672 49.2278L 39.7122 50.0662ZM 12.0014 51.7321L 11.746 52.699L 11.7517 52.7005L 12.0014 51.7321ZM 0.19628 31.3568L 1.19111 31.4583L 1.19111 31.4583L 0.19628 31.3568ZM 8.99999 22.6601L 9.24111 23.6306L 9.99999 23.442L 9.99999 22.6601L 8.99999 22.6601ZM 15.5 -1L 8.99999 -1L 8.99999 1L 15.5 1L 15.5 -1ZM 15.9997 22.1115L 16.4997 0.0226304L 14.5003 -0.0226304L 14.0002 22.0662L 15.9997 22.1115ZM 21.8959 31.2221C 22.1934 29.4655 22.5977 27.2475 21.8171 25.3154C 20.9809 23.2458 18.9499 21.7917 15.1791 21.105L 14.8208 23.0727C 18.2561 23.6983 19.4903 24.8952 19.9627 26.0646C 20.4908 27.3716 20.247 28.9805 19.924 30.8881L 21.8959 31.2221ZM 21.5756 33.9197C 21.5721 33.1135 21.7267 32.2215 21.8959 31.2221L 19.924 30.8881C 19.7548 31.8875 19.5791 32.9459 19.5756 33.9197L 21.5756 33.9197ZM 29.8348 35.745C 27.143 35.8166 24.9585 35.8686 23.4369 35.5573C 22.6865 35.4037 22.2252 35.184 21.9593 34.9401C 21.7329 34.7324 21.5756 34.4431 21.5756 33.9197L 19.5756 33.9197C 19.5756 34.9324 19.9184 35.7819 20.6072 36.4138C 21.2566 37.0095 22.1257 37.3304 23.036 37.5167C 24.8361 37.885 27.2944 37.8133 29.888 37.7443L 29.8348 35.745ZM 36.2804 35.7401C 34.034 35.6338 31.8248 35.692 29.8348 35.745L 29.888 37.7443C 31.878 37.6913 34.0131 37.6337 36.1853 37.7378L 36.2804 35.7401ZM 42.9826 42.9372C 42.8918 41.2583 42.4333 39.5205 41.3565 38.1555C 40.2532 36.757 38.5777 35.8494 36.2804 35.7401L 36.1853 37.7378C 37.9568 37.8221 39.0731 38.4902 39.7863 39.3942C 40.5259 40.3317 40.9086 41.6232 40.9855 43.0452L 42.9826 42.9372ZM 41.7252 43.9571L 59.4082 48.6952L 59.9258 46.7634L 42.2429 42.0252L 41.7252 43.9571ZM 58.7011 47.4705L 57.1481 53.266L 59.08 53.7837L 60.6329 47.9881L 58.7011 47.4705ZM 58.3729 52.5589L 40.998 47.9033L 40.4804 49.8352L 57.8552 54.4908L 58.3729 52.5589ZM 40.2503 50.9091C 40.8057 50.5546 41.2548 49.982 41.6073 49.3657L 39.8711 48.3728C 39.5968 48.8526 39.3444 49.1146 39.1742 49.2233L 40.2503 50.9091ZM 11.7517 52.7005C 15.309 53.6143 20.9494 54.1413 26.3557 53.965C 31.7093 53.7884 37.1479 52.9262 40.2573 50.9046L 39.1672 49.2278C 36.5605 50.9225 31.6229 51.7902 26.2898 51.9661C 21.0094 52.1422 15.6525 51.644 12.251 50.7638L 11.7517 52.7005ZM -0.79855 31.2552C -1.30533 36.2201 -0.910581 40.8604 1.0137 44.6411C 2.96054 48.466 6.41143 51.2901 11.746 52.699L 12.2567 50.7653C 7.40163 49.483 4.45293 46.989 2.79611 43.7339C 1.11674 40.4344 0.703783 36.2326 1.19111 31.4583L -0.79855 31.2552ZM 8.75887 21.6896C 4.85074 22.6606 -0.17231 25.12 -0.79855 31.2552L 1.19111 31.4583C 1.68371 26.6324 5.57087 24.5424 9.24111 23.6306L 8.75887 21.6896ZM 7.99999 0L 7.99999 22.6601L 9.99999 22.6601L 9.99999 0L 7.99999 0Z"/>
<path id="path1_fill" d="M 0 0C 0 2.20914 1.79086 4 4 4C 5.50601 4 6.81763 3.16771 7.5 1.938C 8.18237 3.16771 9.49399 4 11 4C 12.506 4 13.8176 3.16771 14.5 1.938C 15.1824 3.16771 16.494 4 18 4C 20.2091 4 22 2.20914 22 0L 20 0C 20 1.10457 19.1046 2 18 2C 16.8954 2 16 1.10457 16 0L 13 0C 13 1.10457 12.1046 2 11 2C 9.89542 2 9 1.10457 9 0L 6 0C 6 1.10457 5.10458 2 4 2C 2.89542 2 2 1.10457 2 0L 0 0Z"/>
</defs>
</svg>
