<svg viewBox="0 0 56 56" version="1.1" xmlns="http://www.w3.org/2000/svg" xmlns:xlink="http://www.w3.org/1999/xlink">
<title>ill_nagelsvamp</title>
<desc>Created using Figma</desc>
<g id="Canvas" transform="translate(-166 104)">
<g id="ill_nagelsvamp">
<clipPath id="clip-0" clip-rule="evenodd">
<path d="M 166 -104L 222 -104L 222 -48L 166 -48L 166 -104Z" fill="#FFFFFF"/>
</clipPath>
<g id="Group 41" clip-path="url(#clip-0)">
<g id="Ellipse (Stroke)">
<use xlink:href="#path0_fill" transform="matrix(0.965926 -0.258819 0.258819 0.965926 172.428 -67.3449)" fill="#FF383B"/>
</g>
<g id="Vector 3.1 (Stroke)">
<use xlink:href="#path1_fill" transform="translate(172.251 -142.052)" fill="#283D46"/>
</g>
<g id="Rectangle 3">
<use xlink:href="#path2_fill" transform="matrix(0.706411 0.707802 -0.706411 0.707802 178.891 -88.0469)" fill="#FF383B"/>
</g>
</g>
</g>
</g>
<defs>
<path id="path0_fill" fill-rule="evenodd" d="M 9.79543 4.22689C 10.7749 3.73715 11 3.2456 11 3C 11 2.7544 10.7749 2.26285 9.79543 1.77311C 8.82154 1.27789 7.54696 0.993944 6 1C 4.45304 0.993944 3.17846 1.27789 2.20457 1.77311C 1.22509 2.26285 1 2.7544 1 3C 1 3.2456 1.22509 3.73715 2.20457 4.22689C 3.17846 4.72211 4.45304 5.00606 6 5C 7.54696 5.00606 8.82154 4.72211 9.79543 4.22689ZM 6 6C 9.31371 6 12 4.65685 12 3C 12 1.34315 9.31371 0 6 0C 2.68629 0 0 1.34315 0 3C 0 4.65685 2.68629 6 6 6Z"/>
<path id="path1_fill" fill-rule="evenodd" d="M 59.968 9.69879C 59.1252 17.1172 58.0479 26.6008 58.0508 37.917C 58.0389 44.9347 60.4312 52.3874 62.9595 58.8085C 63.9004 61.199 64.8569 63.4294 65.7103 65.4193C 66.0017 66.0989 66.2812 66.7504 66.5438 67.3707C 67.5564 69.7621 68.3764 71.8117 68.6032 73.1755C 69.7002 79.7698 64.4959 84.9257 58.27 84.9257C 55.4181 84.9183 52.8958 84.5291 50.3289 84.1331C 47.6185 83.715 44.8585 83.2892 41.6083 83.297C 38.8403 83.297 37.672 83.6726 36.3007 84.1133C 36.1412 84.1646 35.9791 84.2167 35.8113 84.2692C 34.0788 84.8117 31.9451 85.3328 26.9785 85.3328C 19.8558 85.3328 16.4445 84.328 14.5229 83.4707C 13.5075 84.2738 12.671 84.7722 11.7025 85.0417C 10.6553 85.3236 9.50401 85.3328 7.87848 85.3328C 4.29605 85.3328 2.04569 83.7887 0.902115 81.7926C -0.19027 79.8859 -0.240261 77.5967 0.481596 76.1503C 1.01685 75.0778 1.92925 74.3612 2.93123 73.8629C 3.90112 73.3856 5.07672 73.055 6.20014 72.8189C 6.95163 72.6617 7.71338 72.5344 8.44085 72.4129C 8.7998 72.3529 9.1504 72.2943 9.48731 72.2342C 10.5042 72.0532 11.333 71.8782 11.9542 71.6064C 14.2238 70.6343 17.2019 69.7649 20.3028 68.8597C 21.4367 68.5287 22.5869 68.193 23.7249 67.8456C 28.016 66.5362 32.019 65.0917 34.4957 63.183C 35.3037 62.5602 35.8555 61.5517 36.1609 60.1875C 36.4796 58.7875 36.506 57.1971 36.3551 55.4596C 36.0603 51.9847 35.0425 48.3616 34.1772 46.0242L 15.4936 2.48166L 17.3315 1.69301L 36.035 45.2818L 36.0438 45.3054C 36.9377 47.719 38.0271 51.6155 38.3477 55.2881C 38.5049 57.1302 38.4653 59.0261 38.1126 60.6245C 37.7467 62.2589 37.0218 63.7612 35.7166 64.7671C 32.9103 66.9299 28.5619 68.4607 24.3087 69.7585C 23.1334 70.1171 21.9565 70.4602 20.8063 70.7955C 17.754 71.6852 14.8896 72.5202 12.7433 73.4442C 11.9421 73.7832 10.8914 74.0153 9.83828 74.2032C 9.48498 74.2661 9.12433 74.3263 8.76083 74.387C 8.04367 74.5067 7.3154 74.6283 6.61061 74.7764C 5.54972 74.9983 4.6172 75.253 3.82185 75.6537C 3.0586 76.0333 2.54865 76.4873 2.27112 77.0434C 1.88748 77.8121 1.83114 79.3909 2.63749 80.7984C 3.39265 82.1165 4.9461 83.3328 7.87848 83.3328L 8.06108 83.3328C 9.57098 83.3332 10.4145 83.3334 11.1662 83.115C 11.8726 82.9184 12.5531 82.5201 13.7397 81.5294L 14.2427 81.1095L 14.8285 81.4029C 16.2822 82.1312 19.2901 83.3328 26.9785 83.3328C 31.7651 83.3328 33.6952 82.8361 35.2137 82.3606C 35.3748 82.3102 35.533 82.2594 35.6905 82.2088C 37.1376 81.7443 38.5309 81.297 41.6083 81.297C 45.0783 81.3049 47.9524 81.7487 50.6872 82.171C 53.2137 82.5612 55.6213 82.933 58.27 82.9257C 63.4228 82.9257 67.4987 78.724 66.6303 73.5037C 66.4508 72.4246 65.7468 70.6178 64.7021 68.1505C 64.4424 67.5371 64.165 66.8902 63.8748 66.2135C 63.0193 64.2186 62.0526 61.9643 61.0985 59.5411C 58.5471 53.0583 56.0627 45.2426 56.0508 37.917C 56.0537 26.4497 57.1405 16.8839 57.9829 9.46875C 58.4036 5.76584 58.7634 2.59925 58.8968 0L 60.8942 0.103115C 60.7562 2.75968 60.3918 5.96809 59.968 9.69879Z"/>
<path id="path2_fill" d="M 10.0373 0L 10.0373 10.0373L 0 10.0373L 10.0373 0Z"/>
</defs>
</svg>
