<svg viewBox="0 0 56 56" version="1.1" xmlns="http://www.w3.org/2000/svg" xmlns:xlink="http://www.w3.org/1999/xlink">
<title>ill_ont i halsen</title>
<desc>Created using Figma</desc>
<g id="Canvas" transform="translate(214 258)">
<g id="ill_ont i halsen">
<clipPath id="clip-0" clip-rule="evenodd">
<path d="M -214 -258L -158 -258L -158 -202L -214 -202L -214 -258Z" fill="#FFFFFF"/>
</clipPath>
<g id="Group 20" clip-path="url(#clip-0)">
<g id="Vector (Stroke)">
<use xlink:href="#path0_fill" transform="translate(-197.06 -255.997)" fill="#2F424A"/>
</g>
<g id="Vector (Stroke)">
<use xlink:href="#path1_fill" transform="translate(-192.5 -220.5)" fill="#FF383B"/>
</g>
<g id="Vector 2 (Stroke)">
<use xlink:href="#path2_fill" transform="matrix(1 0 0 -1 -182.186 -233.536)" fill="#2F424A"/>
</g>
<g id="Vector">
<use xlink:href="#path3_fill" transform="matrix(-1 1.38778e-16 1.38778e-16 1 -195 -213)" fill="#FF383B"/>
</g>
</g>
</g>
</g>
<defs>
<path id="path0_fill" fill-rule="evenodd" d="M 0.62338 2.19444C 0.452007 2.205 0.284382 2.21532 0.120756 2.22522L 0 0.228866C 0.132219 0.220869 0.267548 0.212586 0.405832 0.204121C 3.2701 0.0287954 7.40203 -0.224125 11.4235 0.386531C 15.6486 1.0345 19.9601 2.67697 22.5553 6.59106C 23.8787 8.58686 24.4894 11.5771 24.7871 13.9266C 24.9383 15.1233 25.0154 16.2192 25.053 16.995C 25.0719 17.3867 25.0816 17.7095 25.0863 17.9274C 25.0873 17.975 25.0881 18.0185 25.0888 18.0572L 30.2469 29.2895C 30.7722 30.4333 30.123 31.7721 28.8997 32.0681L 25.0911 32.9896L 25.0911 35.2394L 24.0604 37.2394L 24.0604 39.4969C 24.0604 40.6654 23.7151 42.2975 22.6327 43.6605C 21.5162 45.0663 19.6973 46.0802 16.9835 46.0802L 15.2758 46.0802L 15.2758 50.9969L 13.2758 50.9969L 13.2758 44.0802L 16.9835 44.0802C 19.1435 44.0802 20.3631 43.3024 21.0665 42.4166C 21.8041 41.4879 22.0604 40.3284 22.0604 39.4969L 22.0604 36.7544L 23.0911 34.7544L 23.0911 31.4158L 28.4294 30.1242L 23.0911 18.4997L 23.0911 18.2813L 23.0911 18.278L 23.0911 18.2643L 23.0906 18.2055C 23.0901 18.1511 23.089 18.0737 23.0868 17.9707C 23.0822 17.761 23.0734 17.4649 23.0553 17.0917C 23.0189 16.3374 22.9479 15.319 22.8029 14.178C 22.5083 11.8521 21.9344 9.27367 20.8885 7.6963C 18.7453 4.46406 15.1029 2.9742 11.1203 2.36342C 7.35483 1.77992 3.47148 2.01906 0.62338 2.19444Z"/>
<path id="path1_fill" fill-rule="evenodd" d="M 5.99999 2C 3.79087 2 2 3.79086 2 6L 2 15.5L 3.21865e-06 15.5L 0 6C 5.60284e-06 2.6863 2.68629 0 5.99999 0L 15 0L 15 2L 5.99999 2Z"/>
<path id="path2_fill" fill-rule="evenodd" d="M 3.8394 2.46424L 0 0.928477L 0.371391 0L 5.37139 2L 5.37139 2.92848L 0.371391 4.92848L 0 4L 3.8394 2.46424Z"/>
<path id="path3_fill" d="M 0 3.5L 9 0L 9 7L 0 3.5Z"/>
</defs>
</svg>
