<svg viewBox="0 0 56 56" version="1.1" xmlns="http://www.w3.org/2000/svg" xmlns:xlink="http://www.w3.org/1999/xlink">
<title>ill_oronnasahals</title>
<desc>Created using Figma</desc>
<g id="Canvas" transform="translate(62 101)">
<g id="ill_oronnasahals">
<clipPath id="clip-0" clip-rule="evenodd">
<path d="M -62 -101L -6 -101L -6 -45L -62 -45L -62 -101Z" fill="#FFFFFF"/>
</clipPath>
<g id="Group 38" clip-path="url(#clip-0)">
<g id="Vector 10 (Stroke)">
<use xlink:href="#path0_fill" transform="translate(-36.1658 -86.9979)" fill="#283D46"/>
</g>
<g id="Vector 6 (Stroke)">
<use xlink:href="#path1_fill" transform="translate(-31.5762 -80.882)" fill="#283D46"/>
</g>
<g id="Vector 9 (Stroke)">
<use xlink:href="#path2_fill" transform="matrix(-1 0 0 1 -40.4162 -98.2348)" fill="#283D46"/>
</g>
</g>
</g>
</g>
<defs>
<path id="path0_fill" fill-rule="evenodd" d="M 4.7058 6.51103C 2.82812 9.05033 2.09214 12.1248 1.99895 14.1564L 0.00105029 14.0648C 0.108317 11.7262 0.935962 8.24535 3.09769 5.32192C 5.29282 2.35331 8.84043 0 14.2308 0C 20.9261 0 24.7076 3.12663 26.7662 6.49225C 28.7808 9.786 29.1233 13.2572 29.1233 14.1106C 29.1233 15.554 29.0917 19.558 26.5934 24.1556C 25.5242 26.0756 23.8465 27.7855 22.2526 29.3078C 22.0242 29.5258 21.7973 29.7405 21.5735 29.9524C 20.2345 31.2194 19.0032 32.3846 18.1916 33.5671C 17.8104 34.1175 17.4489 34.6576 17.099 35.1805C 16.1454 36.6052 15.2773 37.9023 14.3274 38.9331C 12.961 40.4074 11.3535 41.3919 9.05878 41.3919C 3.57289 41.3919 0 36.7301 0 32.5135L 2 32.5135C 2 35.7543 4.80195 39.3919 9.05878 39.3919C 10.654 39.3919 11.7633 38.7574 12.8605 37.5736C 13.6963 36.6775 14.4804 35.5029 15.3949 34.1331C 15.7551 33.5936 16.1355 33.0237 16.5472 32.4287C 17.5052 31.0554 18.9027 29.7299 20.2942 28.41C 20.4871 28.227 20.6799 28.0442 20.8714 27.8613C 22.4447 26.359 23.9222 24.8783 24.8419 23.1902C 27.1247 19.1134 27.1237 15.6455 27.1233 14.1681C 27.1233 14.1486 27.1233 14.1294 27.1233 14.1106C 27.1233 13.5206 26.8342 10.4365 25.06 7.53582C 23.3298 4.70698 20.165 2 14.2308 2C 9.51766 2 6.55008 4.01689 4.7058 6.51103Z"/>
<path id="path1_fill" fill-rule="evenodd" d="M 4.96588 1.43804C 6.35845 0.446435 8.20267 0.00642782 9.60794 0C 12.4155 0 14.1839 0.999163 15.2098 2.40306C 16.1375 3.72575 16.3765 5.34913 16.3785 6.2674L 14.3785 6.2674C 14.3806 5.47733 14.2799 4.46701 13.595 3.58309C 13.0084 2.78037 11.8915 2 9.60794 2C 8.42908 1.99357 7.18996 2.26539 6.14523 3.05332C 5.18012 3.75797 4.44127 4.88367 4.44127 6.69448L 4.44127 10.7708L 3.48866 11.8624C 3.24503 12.1416 3.16256 12.5556 3.32579 13.0772C 3.4962 13.6729 3.8191 14.0985 4.36121 14.4071C 5.42789 15.0543 6.49683 16.1346 6.49683 17.7986C 6.49683 19.986 4.66684 21.3041 3.30952 21.9987C 2.59266 22.3634 1.85336 22.634 1.33678 22.7966C 1.07162 22.8797 0.840039 22.9435 0.687861 22.9827C 0.608576 23.0031 0.541461 23.0194 0.499442 23.0293L 0.445809 23.0417L 0.429962 23.0452L 0.424885 23.0463L 0.423071 23.0467C 0.42276 23.0468 0.421744 23.047 0.211113 22.0694C 0.000481114 21.0919 0.000230506 21.0919 0 21.092L 0.0067426 21.0905L 0.0415061 21.0825C 0.076914 21.0741 0.123359 21.0629 0.188605 21.0461C 0.32549 21.0108 0.506854 20.9611 0.737236 20.8885C 1.21172 20.7397 1.79386 20.5298 2.39842 20.2183C 3.68396 19.5604 4.49683 18.7432 4.49683 17.7986C 4.49683 17.129 4.09845 16.587 3.32382 16.117C 2.48298 15.5867 1.72044 14.593 1.41705 13.6745C 1.10647 12.682 1.16184 11.4869 1.98178 10.5474L 2.44127 10.0208L 2.44127 6.69448C 2.44127 4.23447 3.49369 2.51292 4.96588 1.43804Z"/>
<path id="path2_fill" fill-rule="evenodd" d="M 3.20051 11.6079C 7.44698 6.92916 8.78499 1.8129 9.22288 0L 11.167 0.469653C 10.7233 2.30582 9.20519 7.88242 4.68736 12.9456C 2.10398 15.8171 1.78788 17.7849 2.10273 18.9479C 2.42151 20.1254 3.50063 20.9021 4.63961 21.1526C 6.66351 21.5978 9.46974 21.3388 10.6297 21.1432L 11.2074 21.0458L 11.5748 21.5021C 11.9948 22.0244 12.4878 22.5923 13.318 22.9307C 14.0783 23.2623 15.1716 23.4219 16.7646 22.8846C 17.0976 22.7723 17.3698 22.5255 17.4989 22.1771C 17.6251 21.8366 17.6546 21.2835 17.2696 20.5045L 19.0626 19.6184C 19.6394 20.7856 19.7289 21.9151 19.3743 22.8721C 19.0226 23.8211 18.273 24.4866 17.4038 24.7797C 15.3905 25.4588 13.7805 25.3143 12.5186 24.764C 11.6034 24.3468 10.891 23.7242 10.4006 23.1985C 8.93677 23.3903 6.30378 23.5665 4.20995 23.1059C 2.58408 22.7483 0.742692 21.5777 0.172226 19.4705C -0.402167 17.3489 0.423732 14.6945 3.20051 11.6079Z"/>
</defs>
</svg>
