<svg viewBox="0 0 56 56" version="1.1" xmlns="http://www.w3.org/2000/svg" xmlns:xlink="http://www.w3.org/1999/xlink">
<title>ill_premens_besvar</title>
<desc>Created using Figma</desc>
<g id="Canvas" transform="translate(-91 24)">
<g id="ill_premens_besvar">
<clipPath id="clip-0" clip-rule="evenodd">
<path d="M 91 -24L 147 -24L 147 32L 91 32L 91 -24Z" fill="#FFFFFF"/>
</clipPath>
<g id="Group 48" clip-path="url(#clip-0)">
<g id="Vector (Stroke)">
<use xlink:href="#path0_fill" transform="translate(99.7428 -14.4287)" fill="#283D46"/>
</g>
<g id="Ellipse">
<use xlink:href="#path1_fill" transform="matrix(-0.965926 0.258819 0.258819 0.965926 111.864 -1)" fill="#283D46"/>
</g>
<g id="Ellipse 2">
<use xlink:href="#path2_fill" transform="translate(113 12)" fill="#283D46"/>
</g>
<g id="Line (Stroke)">
<use xlink:href="#path3_fill" transform="matrix(-0.965926 -0.258819 0.258819 -0.965926 131.469 -0.963522)" fill="#283D46"/>
</g>
<g id="Ellipse">
<use xlink:href="#path1_fill" transform="matrix(0.965926 0.258819 -0.258819 0.965926 125.864 -1)" fill="#283D46"/>
</g>
<g id="Vector 8">
<use xlink:href="#path4_fill" transform="matrix(1 -8.32667e-17 8.32667e-17 1 120 -20)" fill="#FF383B"/>
</g>
<g id="Line (Stroke)">
<use xlink:href="#path3_fill" transform="matrix(0.965926 -0.258819 -0.258819 -0.965926 106.259 -0.963522)" fill="#283D46"/>
</g>
<g id="Ellipse 3.11">
<use xlink:href="#path5_fill" transform="translate(108 4)" fill="#2F424A"/>
</g>
<g id="Union">
<use xlink:href="#path6_fill" transform="translate(100.003 -7.5767)" fill="#283D46"/>
</g>
</g>
<g id="female">
<use xlink:href="#path7_fill" transform="translate(136.091 14)" fill="#283D46"/>
</g>
</g>
</g>
<defs>
<path id="path0_fill" fill-rule="evenodd" d="M 30.2572 8.42875C 16.1532 8.42875 4.23199 3.39669 0 0.857493L 0.514496 0C 4.61584 2.46081 16.3613 7.42875 30.2572 7.42875L 30.2572 8.42875Z"/>
<path id="path1_fill" d="M 4 1.00265C 4 2.10722 3.10457 3.00265 2 3.00265C 0.89543 3.00265 0 2.10722 0 1.00265C 0 -0.101919 0.89543 0.00264931 2 0.00264931C 3.10457 0.00264931 4 -0.101919 4 1.00265Z"/>
<path id="path2_fill" d="M 12 2C 12 3.10457 9.31371 2.5 6 2.5C 2.68629 2.5 0 3.10457 0 2C 0 0.89543 2.68629 0 6 0C 9.31371 0 12 0.89543 12 2Z"/>
<path id="path3_fill" fill-rule="evenodd" d="M 8 1L 0 1L 0 0L 8 0L 8 1Z"/>
<path id="path4_fill" d="M 0 8.27452L 3.30267 0L 6.60535 0L 4.40357 5.51635L 8.53191 5.51635L 0 16.549L 3.02745 8.27452L 0 8.27452Z"/>
<path id="path5_fill" d="M 4 4.80233C 4 6.01607 3.10457 7 2 7C 0.895431 7 0 6.01607 0 4.80233C 0 3.58858 2 -1.40927e-06 2 -1.40927e-06C 2 -1.40927e-06 4 3.58858 4 4.80233Z"/>
<path id="path6_fill" d="M 0.238403 3.64935C 0.602234 9.32725 1.0146 15.7625 2.8637 21.1513C 3.99234 24.4267 5.74239 27.4644 8.2924 29.6648C 10.908 31.9019 14.3706 33.3113 18.9249 33.5742C 18.9488 33.5759 18.9729 33.5767 18.9971 33.5767C 19.0213 33.5767 19.0454 33.5759 19.0692 33.5742C 23.6235 33.3113 27.0861 31.9019 29.7018 29.6648C 32.2517 27.4644 34.0018 24.4267 35.1304 21.1513C 36.9795 15.7625 37.3919 9.32725 37.7557 3.64935C 37.833 2.44416 37.908 1.27309 37.9941 0.153393L 36 0C 35.9094 1.17786 35.8312 2.38989 35.7516 3.6217L 35.7516 3.62271C 35.3851 9.29831 34.9916 15.3938 33.2387 20.5021C 32.1798 23.6017 30.7112 26.189 28.4018 28.1449C 26.1711 30.0528 23.1558 31.3274 18.997 31.575C 14.8383 31.3274 11.823 30.0528 9.59237 28.1449C 7.28299 26.189 5.81429 23.6017 4.75543 20.5021C 3.00256 15.3938 2.60901 9.29831 2.24257 3.62271C 2.16302 2.39055 2.08474 1.17818 1.99411 0L 0 0.153393C 0.086113 1.27285 0.161194 2.44444 0.238403 3.64935Z"/>
<path id="path7_fill" fill-rule="evenodd" d="M 4.4545 10.8176C 1.91965 10.3479 0 8.12541 0 5.45454C 0 2.44208 2.44208 0 5.45454 0C 8.467 0 10.9091 2.44208 10.9091 5.45454C 10.9091 8.12544 8.98939 10.348 6.4545 10.8176L 6.4545 13.3134L 8.9545 13.3134L 8.9545 15.3134L 6.4545 15.3134L 6.4545 18L 4.4545 18L 4.4545 15.3134L 1.9545 15.3134L 1.9545 13.3134L 4.4545 13.3134L 4.4545 10.8176ZM 2 5.45454C 2 7.36244 3.54665 8.90909 5.45454 8.90909C 7.36243 8.90909 8.90909 7.36244 8.90909 5.45454C 8.90909 3.54665 7.36243 2 5.45454 2C 3.54665 2 2 3.54665 2 5.45454Z"/>
</defs>
</svg>
