<svg viewBox="0 0 56 56" version="1.1" xmlns="http://www.w3.org/2000/svg" xmlns:xlink="http://www.w3.org/1999/xlink">
<title>ill_somnsvarigheter</title>
<desc>Created using Figma</desc>
<g id="Canvas" transform="translate(214 178)">
<g id="ill_somnsvarigheter">
<clipPath id="clip-0" clip-rule="evenodd">
<path d="M -214 -178L -158 -178L -158 -122L -214 -122L -214 -178Z" fill="#FFFFFF"/>
</clipPath>
<g id="Group 28" clip-path="url(#clip-0)">
<g id="Union">
<use xlink:href="#path0_fill" transform="translate(-211 -170)" fill="#283D46"/>
</g>
</g>
</g>
</g>
<defs>
<path id="path0_fill" fill-rule="evenodd" d="M 1.64201 0.536974C 2.74983 -0.0959606 4.22969 -0.173506 5.40746 0.326357C 6.72977 0.888277 10.7507 2.25167 12.9115 2.96845C 14.725 2.02628 17.0692 1.2782 19.8581 1.26047C 22.2216 1.2607 25.0461 1.36965 27.9144 1.48029C 29.4265 1.53862 30.9507 1.59741 32.426 1.64099C 36.7595 1.76911 40.5064 1.75647 42.3916 1.28977C 42.8897 1.16663 43.3596 1.03752 43.8001 0.91646L 43.8023 0.915865C 44.2429 0.794787 44.6542 0.681765 45.0351 0.590807C 45.7507 0.420412 46.5785 0.267 47.2955 0.477373C 47.646 0.59099 48.084 0.878374 48.338 1.18315C 48.6037 1.52646 48.7511 1.93524 48.8318 2.35805C 48.9884 3.17842 48.9341 4.2829 48.7402 5.69107C 48.4148 7.93114 48.8437 9.96913 49.3268 12.2647L 49.328 12.2705C 49.4032 12.6276 49.4796 12.9909 49.5547 13.3621C 50.1116 16.1187 50.5741 19.2997 49.7513 23.2472C 49.0059 26.752 48.202 29.8366 47.8005 31.2772C 48.3507 32.152 48.8731 33.0333 49.1885 33.8143C 49.7445 35.1906 49.8896 36.3359 49.5652 37.3454C 49.2454 38.3409 48.5277 39.0038 47.8587 39.5338C 47.1619 40.0859 46.2738 40.0062 45.6126 39.8727C 44.9192 39.7305 44.079 39.4412 43.1673 39.1244L 43.0988 39.1007C 41.2877 38.4712 39.061 37.6974 36.4009 37.4653C 31.59 37.0317 23.6965 36.8104 16.1056 37.4657C 13.2129 37.7135 11.9794 37.9455 10.9513 38.2769C 10.5103 38.4164 10.1031 38.5799 9.61549 38.7757C 8.99403 39.0254 8.24138 39.3277 7.12138 39.6996C 5.27713 40.3083 3.31894 39.9271 1.95767 39.1408C 1.27683 38.7474 0.667252 38.2081 0.313142 37.5477C -0.0590813 36.8535 -0.147048 36.0055 0.312318 35.2094C 1.01059 33.9993 2.10658 30.8276 2.66052 28.7787C 1.70432 27.5074 1.0992 26.2185 0.727418 24.893C 0.146546 22.7792 0.160325 20.6361 0.174241 18.472L 0.174271 18.4666C 0.176423 18.133 0.178559 17.799 0.178513 17.4644C 0.178941 15.6758 0.272523 13.8026 0.361466 12.0222L 0.361527 12.021C 0.40033 11.2446 0.438248 10.4856 0.467164 9.75928C 0.564866 7.30852 0.547013 5.39885 0.221452 4.32421C -0.0272057 3.50337 -0.00688097 2.72232 0.280015 2.03678C 0.554047 1.42909 1.11256 0.850176 1.64201 0.536974ZM 4.23262 30.5411C 3.61865 32.5553 2.72537 35.0292 2.0446 36.209C 1.9922 36.2998 1.96822 36.402 2.07576 36.6026C 2.20145 36.837 2.48746 37.1371 2.95808 37.4089C 3.8998 37.9529 5.2681 38.2052 6.49446 37.8004C 7.50499 37.4689 8.21256 37.1852 8.8394 36.9338C 9.3531 36.7278 9.81342 36.5432 10.3411 36.3723C 11.488 36.0068 12.9414 35.732 15.934 35.4731C 23.6385 34.8112 31.7076 35.0352 36.5803 35.4734C 39.5161 35.7452 42.0007 36.6018 43.8237 37.2352L 43.8902 37.2583C 44.7697 37.564 45.46 37.8039 46.0083 37.9123C 46.4577 38.003 46.6081 37.9614 46.63 37.9553C 47.2312 37.4774 47.5341 37.1288 47.6611 36.7336C 47.7845 36.3494 47.8017 35.721 47.3341 34.5633C 47.0019 33.7409 46.4128 32.8196 45.7452 31.7757C 45.4664 31.3397 45.1739 30.8823 44.8808 30.4018C 43.9815 28.9278 43.0054 27.1246 43.1722 25.4727L 45.1621 25.6737C 45.0807 26.4797 45.5407 27.5827 46.3499 28.9623C 46.7602 27.3775 47.2901 25.2072 47.795 22.8313C 48.575 19.2395 48.1419 16.4656 47.5943 13.7584C 47.5327 13.4529 47.4692 13.148 47.4058 12.8433C 46.9082 10.4514 46.4118 8.0654 46.7589 5.41825C 46.9489 4.03902 46.9586 3.21132 46.8673 2.73303C 46.824 2.5065 46.7695 2.42432 46.7564 2.40732C 46.7549 2.40396 46.7538 2.40102 46.753 2.39845C 46.7477 2.39844 46.741 2.39784 46.7324 2.39646C 46.5857 2.35344 46.246 2.35839 45.4983 2.53642C 45.1543 2.61807 44.7683 2.72421 44.3403 2.84191C 43.8963 2.96402 43.4067 3.09863 42.8722 3.23116C 40.6632 3.77805 36.6056 3.76543 32.3669 3.64012C 30.8757 3.59601 29.3415 3.53678 27.8252 3.47823C 24.9709 3.368 22.18 3.26023 19.8581 3.26047C 13.8866 3.26047 10.6443 7.00652 9.58432 8.23128C 9.46159 8.37308 9.36784 8.48139 9.30281 8.54579L 7.89551 7.1247C 7.87886 7.14029 7.91499 7.09914 7.97832 7.02706L 7.97917 7.02608C 8.03168 6.96633 8.1031 6.88504 8.1779 6.79807C 8.34183 6.60752 8.56838 6.34929 8.84218 6.06114C 9.30313 5.57703 9.9484 4.96152 10.7408 4.35086C 8.54157 3.60877 5.72968 2.63518 4.6261 2.16741C 4.01268 1.90706 3.18956 1.95621 2.63414 2.27355C 2.33196 2.43546 2.21878 2.53754 2.12497 2.80886C 2.04404 3.00228 2.00038 3.29817 2.13556 3.74434C 2.57765 5.20369 2.55982 7.4751 2.46558 9.83893C 2.43593 10.582 2.3974 11.3515 2.35825 12.1335L 2.35819 12.1348C 2.26972 13.9019 2.17807 15.7325 2.17851 17.4644C 2.17845 17.8619 2.17519 18.2508 2.17198 18.6322C 2.15456 20.7086 2.13901 22.5621 2.65309 24.3529C 3.22386 26.3878 4.4823 28.4285 7.40421 30.5986L 6.2117 32.2042C 5.4662 31.6505 4.80989 31.0967 4.23262 30.5411Z"/>
</defs>
</svg>
