<svg viewBox="0 0 56 56" version="1.1" xmlns="http://www.w3.org/2000/svg" xmlns:xlink="http://www.w3.org/1999/xlink">
<title>ill_stress_oro_depression</title>
<desc>Created using Figma</desc>
<g id="Canvas" transform="translate(290 178)">
<g id="ill_stress_oro_depression">
<clipPath id="clip-0" clip-rule="evenodd">
<path d="M -290 -178L -234 -178L -234 -122L -290 -122L -290 -178Z" fill="#FFFFFF"/>
</clipPath>
<g id="Group 27" clip-path="url(#clip-0)">
<g id="Subtract">
<mask id="mask0_outline_ins">
<use xlink:href="#path0_fill" fill="white" transform="translate(-284 -153)"/>
</mask>
<g mask="url(#mask0_outline_ins)">
<use xlink:href="#path1_stroke_2x" transform="translate(-284 -153)" fill="#283D46"/>
</g>
</g>
<g id="Subtract">
<mask id="mask1_outline_ins">
<use xlink:href="#path2_fill" fill="white" transform="translate(-246.16 -153)"/>
</mask>
<g mask="url(#mask1_outline_ins)">
<use xlink:href="#path3_stroke_2x" transform="translate(-246.16 -153)" fill="#283D46"/>
</g>
</g>
<g id="Subtract">
<use xlink:href="#path4_fill" transform="translate(-258.584 -148)" fill="#FF383B"/>
</g>
<g id="Subtract">
<use xlink:href="#path5_fill" transform="translate(-274.584 -148)" fill="#FF383B"/>
</g>
<g id="Rectangle 2">
<use xlink:href="#path6_fill" transform="matrix(0.984808 -0.173648 0.173648 0.984808 -274.026 -156.298)" fill="#283D46"/>
</g>
<g id="Rectangle 2.1">
<use xlink:href="#path6_fill" transform="matrix(0.984808 0.173648 -0.173648 0.984808 -257.852 -157.687)" fill="#283D46"/>
</g>
<g id="Ellipse">
<use xlink:href="#path7_fill" transform="translate(-272 -154)" fill="#283D46"/>
</g>
<g id="Ellipse">
<use xlink:href="#path7_fill" transform="translate(-256 -154)" fill="#283D46"/>
</g>
<g id="Vector (Stroke)">
<use xlink:href="#path8_fill" transform="translate(-281.257 -169.429)" fill="#283D46"/>
</g>
<g id="Vector (Stroke)">
<use xlink:href="#path9_fill" transform="translate(-268.116 -140.379)" fill="#283D46"/>
</g>
<g id="Vector 2.1 (Stroke)">
<use xlink:href="#path10_fill" transform="translate(-263.8 -137.4)" fill="#283D46"/>
</g>
<g id="Union">
<use xlink:href="#path11_fill" transform="translate(-280.997 -161.577)" fill="#283D46"/>
</g>
</g>
</g>
</g>
<defs>
<path id="path0_fill" d="M 5.28854 0.212067C 4.88422 0.0745697 4.45081 0 4 0C 1.79086 0 0 1.79086 0 4C 0 6.20914 1.79086 8 4 8C 4.82001 8 5.5824 7.75325 6.21695 7.32994L 5.28854 0.212067Z"/>
<path id="path1_stroke_2x" d="M 5.28854 0.212067L 7.27174 -0.0466083L 7.11077 -1.28074L 5.93246 -1.68144L 5.28854 0.212067ZM 6.21695 7.32994L 7.32685 8.99371L 8.36092 8.30388L 8.20015 7.07127L 6.21695 7.32994ZM 5.93246 -1.68144C 5.37726 -1.8637 4.62098 -1.99275 4 -2L 4 2C 4.28063 1.99275 4.39117 2.01284 4.64463 2.10558L 5.93246 -1.68144ZM 4 -2C 0.686294 -2 -2 0.686294 -2 4L 2 4C 2 2.89543 2.89543 2 4 2L 4 -2ZM -2 4C -2 7.31371 0.686294 10 4 10L 4 6C 2.89543 6 2 5.10457 2 4L -2 4ZM 4 10C 5.13174 9.97556 6.45351 9.55357 7.32685 8.99371L 5.10705 5.66617C 4.71128 5.95293 4.50827 6.02444 4 6L 4 10ZM 8.20015 7.07127L 7.27174 -0.0466083L 3.30534 0.470742L 4.23375 7.58862L 8.20015 7.07127Z"/>
<path id="path2_fill" d="M 0 7.2173L 0.871582 0.29303C 1.33632 0.10408 1.8446 0 2.3772 0C 4.58633 0 6.3772 1.79086 6.3772 4C 6.3772 6.20914 4.58633 8 2.3772 8C 1.48692 8 0.664581 7.70915 0 7.2173Z"/>
<path id="path3_stroke_2x" d="M 0 7.2173L -1.98434 6.96752L -2.1305 8.12869L -1.18978 8.82491L 0 7.2173ZM 0.871582 0.29303L 0.118314 -1.55969L -0.966509 -1.11863L -1.11276 0.0432538L 0.871582 0.29303ZM 1.98434 7.46708L 2.85592 0.542806L -1.11276 0.0432538L -1.98434 6.96752L 1.98434 7.46708ZM 1.62485 2.14575C 1.91601 2.01823 2.04624 1.98981 2.3772 2L 2.3772 -2C 1.64297 -1.98981 0.756624 -1.81007 0.118314 -1.55969L 1.62485 2.14575ZM 2.3772 2C 3.48176 2 4.3772 2.89543 4.3772 4L 8.3772 4C 8.3772 0.686294 5.6909 -2 2.3772 -2L 2.3772 2ZM 4.3772 4C 4.3772 5.10457 3.48176 6 2.3772 6L 2.3772 10C 5.6909 10 8.3772 7.31371 8.3772 4L 4.3772 4ZM 2.3772 6C 1.82524 6.02882 1.60326 5.94311 1.18978 5.60969L -1.18978 8.82491C -0.274095 9.47519 1.14861 9.97118 2.3772 10L 2.3772 6Z"/>
<path id="path4_fill" d="M 0 0C 0.771545 1.7659 2.53363 3 4.58395 3C 6.63428 3 8.39635 1.7659 9.16791 0L 6.82007 0C 6.27075 0.613754 5.47246 1 4.58395 1C 3.69545 1 2.89716 0.613754 2.34784 0L 0 0Z"/>
<path id="path5_fill" d="M 0 0C 0.771545 1.7659 2.53363 3 4.58395 3C 6.63428 3 8.39636 1.7659 9.16791 0L 6.82007 0C 6.27075 0.613754 5.47247 1 4.58395 1C 3.69543 1 2.89716 0.613754 2.34784 0L 0 0Z"/>
<path id="path6_fill" d="M 0 0L 8 0L 8 1L 0 1L 0 0Z"/>
<path id="path7_fill" d="M 4 2C 4 3.10457 3.10457 4 2 4C 0.895431 4 0 3.10457 0 2C 0 0.895431 0.895431 0 2 0C 3.10457 0 4 0.895431 4 2Z"/>
<path id="path8_fill" fill-rule="evenodd" d="M 30.2572 8.42875C 16.1532 8.42875 4.23199 3.39669 0 0.857493L 0.514496 0C 4.40125 2.33205 15.1531 6.91574 28.0945 7.38902C 27.5449 7.08211 26.9752 6.74007 26.4408 6.38118C 25.8174 5.96178 25.2153 5.49849 24.7547 5.04577C 24.2977 4.59532 23.9062 4.08623 23.7722 3.55001C 23.7373 3.41053 23.7094 3.20903 23.7916 3.00872C 23.89 2.76905 24.0928 2.64962 24.2791 2.60823C 24.4416 2.57212 24.6059 2.58919 24.7361 2.61307C 24.8644 2.63712 25.0236 2.68137 25.1775 2.73292C 25.5619 2.86267 26.0564 3.07622 26.6241 3.32141C 26.9334 3.45501 27.2645 3.598 27.6114 3.74195C 29.6086 4.57098 32.071 5.40238 34.1488 4.94065L 34.3657 5.91684C 31.9435 6.45511 29.2059 5.48652 27.2281 4.66554C 26.8625 4.51375 26.5207 4.36591 26.2077 4.23054C 25.6965 4.00942 25.2622 3.82158 24.927 3.70414C 25.0472 3.89146 25.2223 4.10254 25.4567 4.3336C 25.8721 4.74442 26.4012 5.14988 26.9987 5.55131C 28.1954 6.35692 29.5591 7.06234 30.4641 7.47356L 30.2572 8.42875ZM 24.7372 3.28098C 24.7373 3.28104 24.7376 3.28281 24.7378 3.28609C 24.7372 3.28256 24.7371 3.28091 24.7372 3.28098Z"/>
<path id="path9_fill" fill-rule="evenodd" d="M 4.71438 1.13667C 4.37998 0.968399 4.07901 0.936423 3.71672 1.03068L 0.23299 1.86532L 0 0.892841L 3.48373 0.0581981C 4.0144 -0.0614879 4.65282 0.00633937 5.1465 0.234856L 5.72918 0.514058C 6.139 0.710426 6.61573 0.710425 7.02555 0.514058L 7.57544 0.250568C 8.09289 0.0114351 8.76411 -0.0489981 9.31596 0.0938627L 12.2485 0.896832L 11.9845 1.86133L 9.05187 1.05836C 8.6755 0.947068 8.35799 0.975654 8.00756 1.15238L 7.45766 1.41587C 6.77465 1.74315 5.98008 1.74315 5.29706 1.41587L 4.71438 1.13667Z"/>
<path id="path10_fill" fill-rule="evenodd" d="M 1.78244 1.53292C 1.05666 1.42644 0.366811 1.07304 0 0.8L 0.6 0C 0.899855 0.226956 1.36001 0.473561 1.91756 0.542085C 2.43956 0.613267 2.97982 0.513071 3.44645 0.0464466L 4.15355 0.753553C 3.42018 1.48693 2.54378 1.63673 1.78244 1.53292Z"/>
<path id="path11_fill" d="M 0.23822 3.64644L 0.238403 3.64935C 0.602234 9.32726 1.01459 15.7625 2.86371 21.1513C 3.99234 24.4267 5.7424 27.4644 8.29239 29.6648C 10.908 31.9019 14.3705 33.3112 18.9247 33.5742C 18.9486 33.5759 18.9728 33.5768 18.9971 33.5767C 19.0214 33.5768 19.0455 33.5759 19.0694 33.5742C 23.6236 33.3112 27.0861 31.9019 29.7017 29.6648C 32.2517 27.4644 34.0018 24.4267 35.1304 21.1513C 36.9795 15.7625 37.3919 9.32726 37.7557 3.64935C 37.8329 2.44417 37.908 1.27309 37.9941 0.153397L 36 0C 35.9094 1.17786 35.8311 2.38991 35.7516 3.62172C 35.3851 9.29732 34.9915 15.3938 33.2387 20.5021C 32.1798 23.6017 30.7111 26.189 28.4017 28.1449C 26.1711 30.0528 23.1557 31.3274 18.997 31.575C 14.8383 31.3274 11.823 30.0528 9.59238 28.1449C 7.28299 26.189 5.8143 23.6017 4.75543 20.5021C 3.00256 15.3938 2.60901 9.29831 2.24255 3.62271C 2.16302 2.39055 2.08475 1.17818 1.99411 0L 0 0.153397C 0.0860596 1.27219 0.161041 2.44228 0.23822 3.64644Z"/>
</defs>
</svg>
