<svg viewBox="0 0 56 56" version="1.1" xmlns="http://www.w3.org/2000/svg" xmlns:xlink="http://www.w3.org/1999/xlink">
<title>ill_underfunktion_i_skoldkorteln</title>
<desc>Created using Figma</desc>
<g id="Canvas" transform="translate(368 -53)">
<g id="ill_underfunktion_i_skoldkorteln">
<g id="head">
<use xlink:href="#path0_fill" transform="translate(-367.213 58.3425)" fill="#283D46"/>
<use xlink:href="#path1_fill" transform="translate(-367.213 58.3425)" fill="#283D46"/>
<use xlink:href="#path2_fill" transform="translate(-367.213 58.3425)" fill="#283D46"/>
<use xlink:href="#path3_fill" transform="translate(-367.213 58.3425)" fill="#283D46"/>
</g>
<g id="Line (Stroke)">
<use xlink:href="#path4_fill" transform="matrix(6.02009e-17 1 -1 6.22815e-17 -342 81)" fill="#283D46"/>
</g>
<g id="Line (Stroke)">
<use xlink:href="#path4_fill" transform="matrix(-6.02009e-17 1 1 6.22815e-17 -338 81)" fill="#283D46"/>
</g>
<g id="Vector">
<use xlink:href="#path5_fill" transform="translate(-347 87)" fill="#FF383B"/>
<use xlink:href="#path6_fill" transform="translate(-347 87)" fill="#FF383B"/>
</g>
</g>
</g>
<defs>
<path id="path0_fill" fill-rule="evenodd" d="M 8.72577 0.315189C 8.72574 0.315031 8.72573 0.314913 9.71325 0.157477L 10.7008 0L 10.7018 0.00618333L 10.7051 0.0268905L 10.7188 0.110473C 10.7311 0.185346 10.7493 0.294088 10.7735 0.435599C 10.8223 0.72048 10.8938 1.12776 10.9876 1.63195C 11.1757 2.64433 11.4481 4.02046 11.7942 5.52121C 12.4977 8.57277 13.4595 11.922 14.5271 13.6638C 16.8137 17.3943 17.6357 18.2061 19.3955 19.7093C 19.7291 19.9951 20.0172 20.2566 20.2795 20.4947C 20.9668 21.1184 21.4779 21.5823 22.17 21.9063C 23.0869 22.3557 24.4426 22.6575 27.2133 22.6575L 27.2133 24.6575C 24.339 24.6575 22.6172 24.3529 21.2897 23.7021C 20.3131 23.2074 19.6167 22.5823 18.8555 21.899C 18.6128 21.6811 18.3635 21.4574 18.0965 21.23C 16.1494 19.5668 15.1972 18.5841 12.8219 14.7089C 11.5585 12.6478 10.5397 8.98266 9.84532 5.97049C 9.49247 4.43938 9.21159 3.02132 9.02125 1.99748C 8.92573 1.48356 8.8517 1.06222 8.80219 0.77301C 8.77728 0.627476 8.75814 0.512805 8.74547 0.436025L 8.73089 0.346966L 8.72712 0.323624L 8.72577 0.315189Z"/>
<path id="path1_fill" fill-rule="evenodd" d="M 45.7007 0.315189C 45.7008 0.315031 45.7008 0.314913 44.7133 0.157477L 43.7257 0L 43.7247 0.00618333L 43.7214 0.0268905L 43.7077 0.110473C 43.6954 0.185346 43.6772 0.294088 43.653 0.435599C 43.6042 0.72048 43.5327 1.12776 43.4389 1.63195C 43.2508 2.64433 42.9784 4.02046 42.6323 5.52121C 41.9288 8.57277 40.9671 11.922 39.8995 13.6638C 37.6128 17.3943 36.7908 18.2061 35.031 19.7093C 34.6974 19.9951 34.4094 20.2566 34.147 20.4947C 33.4598 21.1184 32.9486 21.5823 32.2565 21.9063C 31.3397 22.3557 29.9839 22.6575 27.2133 22.6575L 27.2133 24.6575C 30.0875 24.6575 31.8093 24.3529 33.1368 23.7021C 34.1134 23.2074 34.8098 22.5823 35.571 21.899C 35.8137 21.6811 36.063 21.4574 36.3301 21.23C 38.2771 19.5668 39.2293 18.5841 41.6046 14.7089C 42.868 12.6478 43.8868 8.98266 44.5812 5.97049C 44.934 4.43938 45.2149 3.02132 45.4053 1.99748C 45.5008 1.48356 45.5748 1.06222 45.6243 0.77301C 45.6492 0.627476 45.6684 0.512805 45.681 0.436025L 45.6956 0.346966L 45.6994 0.323624L 45.7007 0.315189Z"/>
<path id="path2_fill" fill-rule="evenodd" d="M 14.198 14.1576C 14.7502 14.1492 15.2047 14.59 15.2131 15.1422C 15.2427 17.0831 15.2253 19.3817 15.1828 21.3023C 15.1411 23.1855 15.074 24.8113 14.9911 25.3543C 14.9022 25.9363 14.6661 27.2625 13.6997 28.712C 12.7096 30.1528 10.9941 31.6634 8.01706 32.8818C 3.49206 34.7337 1.10991 35.4853 0.426513 35.6345L 0 33.6805C 0.495183 33.5724 2.73304 32.8833 7.25951 31.0308C 9.93961 29.9339 11.3179 28.6468 12.0514 27.5793C 12.7865 26.5517 12.9187 25.6806 13.0062 25.1039C 13.0089 25.0865 13.0115 25.0693 13.014 25.0523C 13.0726 24.6692 13.1403 23.2015 13.1833 21.258C 13.2255 19.352 13.2427 17.0907 13.2134 15.1728C 13.2049 14.6205 13.6458 14.166 14.198 14.1576Z"/>
<path id="path3_fill" fill-rule="evenodd" d="M 40.2432 14.1576C 39.691 14.1492 39.2365 14.59 39.228 15.1422C 39.1984 17.0831 39.2159 19.3817 39.2584 21.3023C 39.3 23.1855 39.3671 24.8113 39.45 25.3543C 39.5389 25.9363 39.7751 27.2625 40.7414 28.712C 41.7315 30.1528 43.447 31.6634 46.4241 32.8818C 50.9491 34.7337 53.3313 35.4853 54.0146 35.6345L 54.4412 33.6805C 53.946 33.5724 51.7081 32.8833 47.1817 31.0308C 44.5016 29.9339 43.1233 28.6468 42.3897 27.5793C 41.6547 26.5517 41.5225 25.6806 41.435 25.1039C 41.4323 25.0865 41.4297 25.0693 41.4271 25.0523C 41.3686 24.6692 41.3009 23.2015 41.2579 21.258C 41.2156 19.352 41.1984 17.0907 41.2278 15.1728C 41.2362 14.6205 40.7954 14.166 40.2432 14.1576Z"/>
<path id="path4_fill" fill-rule="evenodd" d="M 0.969231 1L 0 1L 0 0L 0.969231 0L 0.969231 1ZM 4.84615 1L 2.90769 1L 2.90769 0L 4.84615 0L 4.84615 1ZM 8.72308 1L 6.78462 1L 6.78462 0L 8.72308 0L 8.72308 1ZM 12.6 1L 10.6615 1L 10.6615 0L 12.6 0L 12.6 1ZM 16.4769 1L 14.5385 1L 14.5385 0L 16.4769 0L 16.4769 1ZM 20.3538 1L 18.4154 1L 18.4154 0L 20.3538 0L 20.3538 1ZM 23.2615 1L 22.2923 1L 22.2923 0L 23.2615 0L 23.2615 1Z"/>
<path id="path5_fill" d="M 6.99996 3.89795C 6.03353 3.93973 4.89144 3.82435 4.31722 3.50506C 3.53622 3.07082 3.22201 2.33457 3.03902 1.90562C 2.99935 1.8127 2.9659 1.7342 2.93514 1.67632L 2.89571 1.60084C 2.66952 1.16557 1.98324 -0.155214 1.29562 0.0150591C 0.561485 0.196858 -0.497475 3.4144 0.262656 6.01528C 1.21273 9.26637 2.99996 10.1681 2.99996 9.65979L 2.99996 8.743C 2.99996 7.36611 4.941 7.35348 6.26168 7.34489L 6.37496 7.34412C 6.59566 7.34248 6.80379 7.34756 6.99996 7.35856L 6.99996 3.89795Z"/>
<path id="path6_fill" d="M 6.99996 3.89795C 7.96639 3.93973 9.10852 3.82435 9.68274 3.50506C 10.4637 3.07082 10.778 2.33457 10.9609 1.90562C 11.0006 1.8127 11.0341 1.7342 11.0648 1.67632L 11.1042 1.60084C 11.3304 1.16557 12.0167 -0.155214 12.7043 0.0150591C 13.4385 0.196858 14.4974 3.4144 13.7373 6.01528C 12.7872 9.26637 11 10.1681 11 9.65979L 11 8.743C 11 7.36611 9.05896 7.35348 7.73828 7.34489L 7.625 7.34412C 7.4043 7.34248 7.19613 7.34756 6.99996 7.35856L 6.99996 3.89795Z"/>
</defs>
</svg>
