<svg viewBox="0 0 56 56" version="1.1" xmlns="http://www.w3.org/2000/svg" xmlns:xlink="http://www.w3.org/1999/xlink">
<title>ill_urinvagsbesvar</title>
<desc>Created using Figma</desc>
<g id="Canvas" transform="translate(-14 258)">
<g id="ill_urinvagsbesvar">
<g id="Group 2">
<mask id="mask0_alpha" mask-type="alpha">
<g id="Rectangle 6">
<use xlink:href="#path0_fill" transform="translate(25 -227)" fill="#C4C4C4"/>
</g>
</mask>
<g id="Rectangle 5" mask="url(#mask0_alpha)">
<mask id="mask1_outline_ins">
<use xlink:href="#path1_fill" fill="white" transform="translate(30 -230)"/>
</mask>
<g mask="url(#mask1_outline_ins)">
<use xlink:href="#path2_stroke_2x" transform="translate(30 -230)" fill="#2F424A"/>
</g>
</g>
<g id="Union" mask="url(#mask0_alpha)">
<mask id="mask2_outline_ins">
<use xlink:href="#path3_fill" fill="white" transform="translate(35.883 -233.972)"/>
</mask>
<g mask="url(#mask2_outline_ins)">
<use xlink:href="#path4_stroke_2x" transform="translate(35.883 -233.972)" fill="#2F424A"/>
</g>
</g>
</g>
<g id="Group">
<mask id="mask3_alpha" mask-type="alpha">
<g id="Rectangle 3">
<use xlink:href="#path5_fill" transform="matrix(1 0 0 -1 19 -225)" fill="#FFFFFF"/>
</g>
</mask>
<g id="Rectangle 4 (Stroke)" mask="url(#mask3_alpha)">
<use xlink:href="#path6_fill" transform="translate(20.7386 -261)" fill="#2F424A"/>
</g>
</g>
<g id="Group">
<mask id="mask4_alpha" mask-type="alpha">
<g id="Rectangle 3">
<use xlink:href="#path7_fill" transform="translate(19 -258)" fill="#FFFFFF"/>
</g>
</mask>
<g id="Rectangle 4 (Stroke)" mask="url(#mask4_alpha)">
<use xlink:href="#path6_fill" transform="translate(20.7386 -261)" fill="#2F424A"/>
</g>
</g>
<g id="Vector 4">
<use xlink:href="#path8_stroke" transform="matrix(0.866025 -0.5 0.505525 0.862812 22.2464 -251.627)" fill="#2F424A"/>
</g>
<g id="Vector 4.1">
<use xlink:href="#path9_stroke" transform="matrix(-0.866025 -0.5 -0.505525 0.862812 51.5181 -251.627)" fill="#2F424A"/>
</g>
<g id="female">
<use xlink:href="#path10_fill" transform="translate(59.0909 -220)" fill="#283D46"/>
</g>
</g>
</g>
<defs>
<path id="path0_fill" d="M 0 0L 27 0L 27 27L 0 27L 0 0Z"/>
<path id="path1_fill" d="M 0 3.5C 0 1.567 1.567 0 3.5 0L 3.5 0C 5.433 0 7 1.567 7 3.5L 7 24.5C 7 26.433 5.433 28 3.5 28L 3.5 28C 1.567 28 0 26.433 0 24.5L 0 3.5Z"/>
<path id="path2_stroke_2x" d="M 5 3.5L 5 24.5L 9 24.5L 9 3.5L 5 3.5ZM 2 24.5L 2 3.5L -2 3.5L -2 24.5L 2 24.5ZM 3.5 26C 2.67157 26 2 25.3284 2 24.5L -2 24.5C -2 27.5376 0.462434 30 3.5 30L 3.5 26ZM 5 24.5C 5 25.3284 4.32843 26 3.5 26L 3.5 30C 6.53757 30 9 27.5376 9 24.5L 5 24.5ZM 3.5 2C 4.32843 2 5 2.67157 5 3.5L 9 3.5C 9 0.462434 6.53757 -2 3.5 -2L 3.5 2ZM 3.5 -2C 0.462434 -2 -2 0.462434 -2 3.5L 2 3.5C 2 2.67157 2.67157 2 3.5 2L 3.5 -2Z"/>
<path id="path3_fill" d="M 9.15732 4.41297C 9.66238 2.5419 8.55083 0.61661 6.67791 0.118453C 4.81474 -0.377111 2.90166 0.727394 2.39922 2.58872L 0.00252021 11.4675C -0.00792806 11.5062 0.0150665 11.546 0.0538113 11.5564L 0.159123 11.5844C 0.202137 11.5958 0.202136 11.6568 0.159122 11.6683C 0.135887 11.6745 0.122096 11.6984 0.128362 11.7216L 4.04382 26.2267C 4.54625 28.0881 6.45933 29.1926 8.3225 28.697C 10.1954 28.1989 11.307 26.2736 10.8019 24.4025L 7.87323 13.5529C 7.4858 12.1176 7.4858 10.6053 7.87323 9.16998L 9.15732 4.41297Z"/>
<path id="path4_stroke_2x" d="M 9.15732 4.41297L 7.22643 3.89175L 7.22643 3.89175L 9.15732 4.41297ZM 6.67791 0.118453L 6.16383 2.05125L 6.16383 2.05125L 6.67791 0.118453ZM 2.39922 2.58872L 0.46833 2.06751L 0.46833 2.06751L 2.39922 2.58872ZM 0.00252021 11.4675L -1.92837 10.9463L -1.92837 10.9463L 0.00252021 11.4675ZM 0.0538113 11.5564L -0.460277 13.4892L -0.460266 13.4892L 0.0538113 11.5564ZM 0.159123 11.5844L -0.354955 13.5172L -0.354944 13.5172L 0.159123 11.5844ZM 0.159122 11.6683L -0.354902 9.73547L -0.354928 9.73548L 0.159122 11.6683ZM 0.128362 11.7216L 2.05925 11.2004L 2.05925 11.2003L 0.128362 11.7216ZM 4.04382 26.2267L 2.11293 26.748L 2.11293 26.748L 4.04382 26.2267ZM 8.3225 28.697L 7.80842 26.7642L 7.80842 26.7642L 8.3225 28.697ZM 10.8019 24.4025L 12.7328 23.8813L 12.7328 23.8813L 10.8019 24.4025ZM 7.87323 13.5529L 9.80412 13.0317L 9.80412 13.0317L 7.87323 13.5529ZM 7.87323 9.16998L 9.80412 9.69119L 9.80412 9.69119L 7.87323 9.16998ZM 11.0882 4.93418C 11.8819 1.99393 10.1352 -1.03153 7.192 -1.81435L 6.16383 2.05125C 6.96651 2.26475 7.44288 3.08987 7.22643 3.89175L 11.0882 4.93418ZM 7.192 -1.81435C 4.26416 -2.59309 1.25788 -0.857439 0.46833 2.06751L 4.33011 3.10994C 4.54544 2.31223 5.36533 1.83887 6.16383 2.05125L 7.192 -1.81435ZM 0.46833 2.06751L -1.92837 10.9463L 1.93341 11.9887L 4.33011 3.10994L 0.46833 2.06751ZM -1.92837 10.9463C -2.22743 12.0542 -1.56927 13.1942 -0.460277 13.4892L 0.567899 9.62356C 1.5994 9.89791 2.21157 10.9583 1.93341 11.9887L -1.92837 10.9463ZM -0.460266 13.4892L -0.354955 13.5172L 0.673201 9.65156L 0.567889 9.62355L -0.460266 13.4892ZM -0.354944 13.5172C -2.29319 13.0017 -2.29317 10.2509 -0.354902 9.73547L 0.673147 13.6011C 2.69744 13.0628 2.69746 10.19 0.67319 9.65156L -0.354944 13.5172ZM -0.354928 9.73548C -1.44843 10.0263 -2.09741 11.1504 -1.80253 12.2428L 2.05925 11.2003C 2.3416 12.2463 1.7202 13.3226 0.673173 13.6011L -0.354928 9.73548ZM -1.80253 12.2428L 2.11293 26.748L 5.97471 25.7055L 2.05925 11.2004L -1.80253 12.2428ZM 2.11293 26.748C 2.90247 29.6729 5.90874 31.4086 8.83658 30.6298L 7.80842 26.7642C 7.00992 26.9766 6.19003 26.5032 5.97471 25.7055L 2.11293 26.748ZM 8.83658 30.6298C 11.7797 29.847 13.5265 26.8215 12.7328 23.8813L 8.87102 24.9237C 9.08748 25.7256 8.6111 26.5507 7.80842 26.7642L 8.83658 30.6298ZM 12.7328 23.8813L 9.80412 13.0317L 5.94234 14.0741L 8.87102 24.9237L 12.7328 23.8813ZM 9.80412 13.0317C 9.46844 11.8547 9.46844 10.8682 9.80412 9.69119L 5.94234 8.64876C 5.50315 10.3424 5.50315 12.3805 5.94234 14.0741L 9.80412 13.0317ZM 9.80412 9.69119L 11.0882 4.93418L 7.22643 3.89175L 5.94234 8.64876L 9.80412 9.69119Z"/>
<path id="path5_fill" d="M 0 0L 36 0L 36 17L 0 17L 0 0Z"/>
<path id="path6_fill" fill-rule="evenodd" d="M 23.2993 2L 9.22344 2C 8.75474 2 8.34893 2.32553 8.24725 2.78307L 2.02503 30.7831C 1.88625 31.4076 2.36147 32 3.00122 32L 29.5215 32C 30.1613 32 30.6365 31.4076 30.4977 30.7831L 24.2755 2.78307C 24.1738 2.32553 23.768 2 23.2993 2ZM 9.22344 0C 7.81734 0 6.5999 0.976595 6.29488 2.34921L 0.0726567 30.3492C -0.343686 32.2227 1.08197 34 3.00122 34L 29.5215 34C 31.4408 34 32.8664 32.2228 32.4501 30.3492L 26.2279 2.34921C 25.9228 0.976596 24.7054 0 23.2993 0L 9.22344 0Z"/>
<path id="path7_fill" d="M 0 0L 36 0L 36 4L 0 4L 0 0Z"/>
<path id="path8_stroke" d="M 0.014365 15.4717L -0.985619 15.466L 0.014365 15.4717ZM 5.04207 15.5288L 6.04193 15.5458L 6.04193 15.5458L 5.04207 15.5288ZM 6.301 0.338828C 6.31041 -0.213377 5.87038 -0.668653 5.31818 -0.678061C 4.76597 -0.687468 4.3107 -0.247445 4.30129 0.30476L 6.301 0.338828ZM -0.897715 -0.00568149L -0.985619 15.466L 1.01435 15.4773L 1.10225 0.00568149L -0.897715 -0.00568149ZM 6.04193 15.5458L 6.301 0.338828L 4.30129 0.30476L 4.04222 15.5117L 6.04193 15.5458ZM 2.52838 19C 4.4458 19 6.00927 17.4629 6.04193 15.5458L 4.04222 15.5117C 4.02815 16.3378 3.35452 17 2.52838 17L 2.52838 19ZM -0.985619 15.466C -0.99669 17.4145 0.579819 19 2.52838 19L 2.52838 17C 1.68883 17 1.00958 16.3169 1.01435 15.4773L -0.985619 15.466Z"/>
<path id="path9_stroke" d="M 0.0142831 15.4861L -0.985701 15.4804L 0.0142831 15.4861ZM 5.01366 15.514L 6.01365 15.5195L 6.01365 15.5195L 5.01366 15.514ZM 6.09796 0.209562C 6.101 -0.342715 5.65576 -0.792889 5.10348 -0.79593C 4.5512 -0.798971 4.10103 -0.353728 4.09799 0.198548L 6.09796 0.209562ZM -0.897715 -0.00568149L -0.985701 15.4804L 1.01427 15.4918L 1.10225 0.00568149L -0.897715 -0.00568149ZM 6.01365 15.5195L 6.09796 0.209562L 4.09799 0.198548L 4.01368 15.5085L 6.01365 15.5195ZM 2.51397 19C 4.4393 19 6.00304 17.4448 6.01365 15.5195L 4.01368 15.5085C 4.00913 16.3336 3.33903 17 2.51397 17L 2.51397 19ZM -0.985701 15.4804C -0.996726 17.421 0.573355 19 2.51397 19L 2.51397 17C 1.68236 17 1.00954 16.3233 1.01427 15.4918L -0.985701 15.4804Z"/>
<path id="path10_fill" fill-rule="evenodd" d="M 4.4545 10.8176C 1.91965 10.3479 0 8.12541 0 5.45454C 0 2.44208 2.44208 0 5.45454 0C 8.467 0 10.9091 2.44208 10.9091 5.45454C 10.9091 8.12544 8.98939 10.348 6.4545 10.8176L 6.4545 13.3134L 8.9545 13.3134L 8.9545 15.3134L 6.4545 15.3134L 6.4545 18L 4.4545 18L 4.4545 15.3134L 1.9545 15.3134L 1.9545 13.3134L 4.4545 13.3134L 4.4545 10.8176ZM 2 5.45454C 2 7.36244 3.54665 8.90909 5.45454 8.90909C 7.36243 8.90909 8.90909 7.36244 8.90909 5.45454C 8.90909 3.54665 7.36243 2 5.45454 2C 3.54665 2 2 3.54665 2 5.45454Z"/>
</defs>
</svg>
