<svg viewBox="0 0 56 56" xmlns="http://www.w3.org/2000/svg" xmlns:xlink="http://www.w3.org/1999/xlink">
  <g transform="translate(367 24)">
    <clipPath id="a" clip-rule="evenodd">
      <path d="M-367-24h56v56h-56v-56z" fill="#FFF"/>
    </clipPath>
    <g clip-path="url(#a)">
      <clipPath id="b" clip-rule="evenodd">
        <path d="M-367-24h56v56h-56v-56z" fill="#FFF"/>
      </clipPath>
      <g clip-path="url(#b)">
        <mask id="c">
          <use xlink:href="#path0_fill" fill="#fff" transform="translate(-346 3)"/>
        </mask>
        <g mask="url(#c)">
          <use xlink:href="#path1_stroke_2x" transform="translate(-346 3)" fill="#283D46"/>
        </g>
        <use xlink:href="#path2_fill" transform="translate(-342 7)" fill="#283D46"/>
        <use xlink:href="#path3_fill" transform="translate(-351.95 -1.98)" fill="#283D46"/>
        <mask id="d">
          <use xlink:href="#path4_fill" fill="#fff" transform="translate(-355 -5)"/>
        </mask>
        <g mask="url(#d)">
          <use xlink:href="#path5_stroke_2x" transform="translate(-355 -5)" fill="#283D46"/>
        </g>
        <use xlink:href="#path6_fill" transform="rotate(-1.59 -641.91 12716.05)" fill="#283D46"/>
        <mask id="e">
          <use xlink:href="#path6_fill" fill="#fff" transform="rotate(-1.59 -641.91 12716.05)"/>
        </mask>
        <g mask="url(#e)">
          <use xlink:href="#path7_stroke_2x" transform="rotate(-1.59 -641.91 12716.05)" fill="#283D46"/>
        </g>
        <use xlink:href="#path8_fill" transform="translate(-359 -18)" fill="#283D46"/>
        <mask id="f">
          <use xlink:href="#path8_fill" fill="#fff" transform="translate(-359 -18)"/>
        </mask>
        <g mask="url(#f)">
          <use xlink:href="#path9_stroke_2x" transform="translate(-359 -18)" fill="#283D46"/>
        </g>
        <use xlink:href="#path8_fill" transform="translate(-331 -20)" fill="#283D46"/>
        <mask id="g">
          <use xlink:href="#path8_fill" fill="#fff" transform="translate(-331 -20)"/>
        </mask>
        <g mask="url(#g)">
          <use xlink:href="#path9_stroke_2x" transform="translate(-331 -20)" fill="#283D46"/>
        </g>
        <use xlink:href="#path10_fill" transform="translate(-324 -20)" fill="#283D46"/>
        <mask id="h">
          <use xlink:href="#path10_fill" fill="#fff" transform="translate(-324 -20)"/>
        </mask>
        <g mask="url(#h)">
          <use xlink:href="#path11_stroke_2x" transform="translate(-324 -20)" fill="#283D46"/>
        </g>
        <use xlink:href="#path12_stroke" transform="translate(-333 -13)" fill="#283D46"/>
        <use xlink:href="#path8_fill" transform="translate(-326 -8)" fill="#283D46"/>
        <mask id="i">
          <use xlink:href="#path8_fill" fill="#fff" transform="translate(-326 -8)"/>
        </mask>
        <g mask="url(#i)">
          <use xlink:href="#path9_stroke_2x" transform="translate(-326 -8)" fill="#283D46"/>
        </g>
        <use xlink:href="#path13_stroke" transform="translate(-333 -3)" fill="#283D46"/>
        <use xlink:href="#path8_fill" transform="translate(-329 5)" fill="#283D46"/>
        <mask id="j">
          <use xlink:href="#path8_fill" fill="#fff" transform="translate(-329 5)"/>
        </mask>
        <g mask="url(#j)">
          <use xlink:href="#path9_stroke_2x" transform="translate(-329 5)" fill="#283D46"/>
        </g>
        <use xlink:href="#path14_fill" transform="translate(-354 11)" fill="#283D46"/>
        <mask id="k">
          <use xlink:href="#path14_fill" fill="#fff" transform="translate(-354 11)"/>
        </mask>
        <g mask="url(#k)">
          <use xlink:href="#path15_stroke_2x" transform="translate(-354 11)" fill="#283D46"/>
        </g>
        <use xlink:href="#path16_stroke" transform="translate(-345 21)" fill="#283D46"/>
        <use xlink:href="#path14_fill" transform="translate(-332 15)" fill="#283D46"/>
        <mask id="l">
          <use xlink:href="#path14_fill" fill="#fff" transform="translate(-332 15)"/>
        </mask>
        <g mask="url(#l)">
          <use xlink:href="#path15_stroke_2x" transform="translate(-332 15)" fill="#283D46"/>
        </g>
      </g>
    </g>
  </g>
  <defs>
    <path id="path0_fill" d="M15 7.5a7.5 7.5 0 1 1-15 0 7.5 7.5 0 0 1 15 0z"/>
    <path id="path1_stroke_2x" d="M13 7.5A5.5 5.5 0 0 1 7.5 13v4A9.5 9.5 0 0 0 17 7.5h-4zM7.5 13A5.5 5.5 0 0 1 2 7.5h-4A9.5 9.5 0 0 0 7.5 17v-4zM2 7.5A5.5 5.5 0 0 1 7.5 2v-4A9.5 9.5 0 0 0-2 7.5h4zM7.5 2A5.5 5.5 0 0 1 13 7.5h4A9.5 9.5 0 0 0 7.5-2v4z"/>
    <path id="path2_fill" d="M6.35 1.47a3.5 3.5 0 1 0-4.88 4.88l.72-.72a2.5 2.5 0 1 1 3.44-3.44l.72-.72z"/>
    <path id="path3_fill" d="M3.48.8A1.91 1.91 0 1 0 .8 3.48l.4-.4A1.37 1.37 0 1 1 3.08 1.2l.4-.4z"/>
    <path id="path4_fill" d="M10 5A5 5 0 1 1 0 5a5 5 0 0 1 10 0z"/>
    <path id="path5_stroke_2x" d="M8 5a3 3 0 0 1-3 3v4a7 7 0 0 0 7-7H8zM5 8a3 3 0 0 1-3-3h-4a7 7 0 0 0 7 7V8zM2 5a3 3 0 0 1 3-3v-4a7 7 0 0 0-7 7h4zm3-3a3 3 0 0 1 3 3h4a7 7 0 0 0-7-7v4z"/>
    <path id="path6_fill" d="M6 3a3 3 0 1 1-6 0 3 3 0 0 1 6 0z"/>
    <path id="path7_stroke_2x" d="M4 3a1 1 0 0 1-1 1v4a5 5 0 0 0 5-5H4zM3 4a1 1 0 0 1-1-1h-4a5 5 0 0 0 5 5V4zM2 3a1 1 0 0 1 1-1v-4a5 5 0 0 0-5 5h4zm1-1a1 1 0 0 1 1 1h4a5 5 0 0 0-5-5v4z"/>
    <path id="path8_fill" d="M5 2.5a2.5 2.5 0 1 1-5 0 2.5 2.5 0 0 1 5 0z"/>
    <path id="path9_stroke_2x" d="M3 2.5a.5.5 0 0 1-.5.5v4A4.5 4.5 0 0 0 7 2.5H3zm-.5.5a.5.5 0 0 1-.5-.5h-4A4.5 4.5 0 0 0 2.5 7V3zM2 2.5c0-.28.22-.5.5-.5v-4A4.5 4.5 0 0 0-2 2.5h4zm.5-.5c.28 0 .5.22.5.5h4A4.5 4.5 0 0 0 2.5-2v4z"/>
    <path id="path10_fill" d="M3 1.5a1.5 1.5 0 1 1-3 0 1.5 1.5 0 0 1 3 0z"/>
    <path id="path11_stroke_2x" d="M1 1.5c0-.28.22-.5.5-.5v4A3.5 3.5 0 0 0 5 1.5H1zm.5-.5c.28 0 .5.22.5.5h-4A3.5 3.5 0 0 0 1.5 5V1zm.5.5a.5.5 0 0 1-.5.5v-4A3.5 3.5 0 0 0-2 1.5h4zm-.5.5a.5.5 0 0 1-.5-.5h4A3.5 3.5 0 0 0 1.5-2v4z"/>
    <path id="path12_stroke" d="M4 2.5C4 3.33 3.33 4 2.5 4v2A3.5 3.5 0 0 0 6 2.5H4zM2.5 4A1.5 1.5 0 0 1 1 2.5h-2A3.5 3.5 0 0 0 2.5 6V4zM1 2.5C1 1.67 1.67 1 2.5 1v-2A3.5 3.5 0 0 0-1 2.5h2zM2.5 1C3.33 1 4 1.67 4 2.5h2A3.5 3.5 0 0 0 2.5-1v2z"/>
    <path id="path13_stroke" d="M5 3a2 2 0 0 1-2 2v2a4 4 0 0 0 4-4H5zM3 5a2 2 0 0 1-2-2h-2a4 4 0 0 0 4 4V5zM1 3c0-1.1.9-2 2-2v-2a4 4 0 0 0-4 4h2zm2-2a2 2 0 0 1 2 2h2a4 4 0 0 0-4-4v2z"/>
    <path id="path14_fill" d="M7 3.5a3.5 3.5 0 1 1-7 0 3.5 3.5 0 0 1 7 0z"/>
    <path id="path15_stroke_2x" d="M5 3.5C5 4.33 4.33 5 3.5 5v4A5.5 5.5 0 0 0 9 3.5H5zM3.5 5A1.5 1.5 0 0 1 2 3.5h-4A5.5 5.5 0 0 0 3.5 9V5zM2 3.5C2 2.67 2.67 2 3.5 2v-4A5.5 5.5 0 0 0-2 3.5h4zM3.5 2C4.33 2 5 2.67 5 3.5h4A5.5 5.5 0 0 0 3.5-2v4z"/>
    <path id="path16_stroke" d="M6 3.5A2.5 2.5 0 0 1 3.5 6v2A4.5 4.5 0 0 0 8 3.5H6zM3.5 6A2.5 2.5 0 0 1 1 3.5h-2A4.5 4.5 0 0 0 3.5 8V6zM1 3.5A2.5 2.5 0 0 1 3.5 1v-2A4.5 4.5 0 0 0-1 3.5h2zM3.5 1A2.5 2.5 0 0 1 6 3.5h2A4.5 4.5 0 0 0 3.5-1v2z"/>
  </defs>
</svg>
